/* XPM */
static char *result[] = {
/* columns rows colors chars-per-pixel */
"64 64 200 2 ",
"   c #0C0001",
".  c #150002",
"X  c #1A0003",
"o  c #150C0E",
"O  c #1C0C0E",
"+  c #120C10",
"@  c #240004",
"#  c #2B0207",
"$  c #26020D",
"%  c #2A010B",
"&  c #260808",
"*  c #320006",
"=  c #35000C",
"-  c #270410",
";  c #2E0115",
":  c #330213",
">  c #3C0213",
",  c #3F0418",
"<  c #221416",
"1  c #2C1417",
"2  c #2F1818",
"3  c #381313",
"4  c #3C2F30",
"5  c #430115",
"6  c #490014",
"7  c #490519",
"8  c #6B101C",
"9  c #550F25",
"0  c #471425",
"q  c #51172C",
"w  c #551D30",
"e  c #6E132D",
"r  c #6F182A",
"t  c #76152C",
"y  c #7B1A38",
"u  c #552D36",
"i  c #443434",
"p  c #736122",
"a  c #711F4B",
"s  c #5A3A43",
"d  c #6D2741",
"f  c #782C46",
"g  c #6B3647",
"h  c #7A3B4D",
"j  c #793D52",
"k  c #5B4747",
"l  c #7D4463",
"z  c #870025",
"x  c #920024",
"c  c #861D3A",
"v  c #99193D",
"b  c #A20835",
"n  c #B00D3F",
"m  c #A51B39",
"M  c #861844",
"N  c #981E45",
"B  c #B5144B",
"V  c #BB1751",
"C  c #BA1C53",
"Z  c #872A4A",
"A  c #902243",
"S  c #8F3558",
"D  c #993655",
"F  c #943F5A",
"G  c #A62447",
"H  c #B6294A",
"J  c #B72D57",
"K  c #A8355D",
"L  c #B8375E",
"P  c #9C3F68",
"I  c #BD3765",
"U  c #B92570",
"Y  c #A93E74",
"T  c #C21755",
"R  c #C21955",
"E  c #DE1B5D",
"W  c #C62258",
"Q  c #C53C5F",
"!  c #E0205F",
"~  c #C73D67",
"^  c #D83B6E",
"/  c #E52B6F",
"(  c #EA296D",
")  c #F0246B",
"_  c #E62E70",
"`  c #EF3276",
"'  c #B04554",
"]  c #8B4868",
"[  c #9E4666",
"{  c #94516B",
"}  c #98546F",
"|  c #975372",
" . c #9D5B74",
".. c #9C5F78",
"X. c #A34769",
"o. c #B4486C",
"O. c #A6566F",
"+. c #A85875",
"@. c #B25E7A",
"#. c #8F677E",
"$. c #CD425D",
"%. c #C84863",
"&. c #C95B6E",
"*. c #D34B79",
"=. c #C7527E",
"-. c #D7577D",
";. c #E6C03E",
":. c #BF5F8F",
">. c #BC5291",
",. c #9F6C8D",
"<. c #A66589",
"1. c #BE6381",
"2. c #A9748E",
"3. c #B87088",
"4. c #B86F97",
"5. c #A67296",
"6. c #AF7F98",
"7. c #B27399",
"8. c #BD7D9C",
"9. c #CD448E",
"0. c #D95687",
"q. c #E15B84",
"w. c #E05697",
"e. c #CE658C",
"r. c #C26F8D",
"t. c #CD6494",
"y. c #D5699D",
"u. c #C97A97",
"i. c #CA759B",
"p. c #DD7C9F",
"a. c #E66798",
"s. c #E5749A",
"d. c #F2729D",
"f. c #D971A6",
"g. c #DA72B1",
"h. c #ED73A4",
"j. c #F67AA9",
"k. c #FF75B6",
"l. c #FF79C4",
"z. c #B4829C",
"x. c #C188A2",
"c. c #D98AAC",
"v. c #D097AE",
"b. c #DD80B4",
"n. c #ED82A6",
"m. c #EB89AA",
"M. c #FB81AB",
"N. c #F890AC",
"B. c #ED8EB3",
"V. c #EB8DBD",
"C. c #FC84B1",
"Z. c #FB83B5",
"A. c #F683BA",
"S. c #FD8BBC",
"D. c #EA96B9",
"F. c #FF92BE",
"G. c #F49ABE",
"H. c #FF9BBD",
"J. c #FDA0BB",
"K. c #DE96C9",
"L. c #E589C3",
"P. c #FE8EC4",
"I. c #FB8DC9",
"U. c #E696C8",
"Y. c #FE94C4",
"T. c #FF9CC6",
"R. c #F696CA",
"E. c #FC96CC",
"W. c #F79FCF",
"Q. c #FE9ECE",
"!. c #FF8DD1",
"~. c #EC99D4",
"^. c #FD9CD4",
"/. c #FF97D9",
"(. c #F49CDB",
"). c #FE9EDC",
"_. c #ECACCE",
"`. c #F2A0CC",
"'. c #FDA5CD",
"]. c #FFACCB",
"[. c #F7A6D3",
"{. c #FDA3D4",
"}. c #FEA3DC",
"|. c #FAA8D9",
" X c #FFABDC",
".X c #FFB8D9",
"XX c #F79BE7",
"oX c #FC9DE2",
"OX c #FB9EE8",
"+X c #F3A0E0",
"@X c #FDA3E2",
"#X c #FEABE5",
"$X c #FFA2EB",
"%X c #FFACEC",
"&X c #FFB5E6",
"*X c #FFB2EA",
"=X c #FFC3EB",
"-X c #FFD3EF",
";X c #FFC3F2",
":X c #FFDCFA",
/* pixels */
";.;.;.;.;.;.;.;.;.;.;.;.;.;.;.;.;.;.;.;.;.;.;.;.;.;.;.;.;.;.;.;.;.;.;.;.;.;.;.;.;.;.;.;.;.;.;.;.;.;.;.;.;.;.;.;.;.;.;.;.;.;.;.;.",
";.;.;.;.;.;.;.;.;.;.;.;.;.;.;.;.;.;.;.;.;.;.;.;.;.;.;.;.;.;.;.;.;.;.;.;.;.;.;.;.;.;.;.;.;.;.;.;.;.;.;.;.;.;.;.;.;.;.;.;.;.;.;.;.",
";.;.;.;.;.;.;.;.;.;.;.;.;.;.;.;.;.;.;.;.;.;.;.;.;.;.;.;.;.;.;.;.;.;.;.;.;.;.;.;.;.;.;.;.;.;.;.;.;.;.;.;.;.;.;.;.;.;.;.;.;.;.;.;.",
";.;.;.;.;.;.;.;.;.;.;.;.;.;.;.;.;.;.;.;.;.;.;.;.;.;.;.;.;.;.;.;.;.;.;.;.;.;.;.;.;.;.;.;.;.;.;.;.;.;.;.;.;.;.;.;.;.;.;.;.;.;.;.;.",
";.;.;.;.;.;.;.;.;.;.;.;.;.;.;.;.;.;.;.;.;.;.;.;.;.;.;.;.;.;.;.;.;.;.;.;.;.;.;.;.;.;.;.;.;.;.;.;.;.;.;.;.;.;.;.;.;.;.;.;.;.;.;.;.",
";.;.;.;.;.;.;.;.;.;.;.;.;.;.;.;.;.;.;.;.p p ;.;.;.;.;.;.;.;.;.;.;.;.;.;.;.;.;.;.;.;.;.;.;.;.;.;.;.;.;.;.;.;.;.;.;.;.;.;.;.;.;.;.",
";.;.;.;.;.;.;.;.;.;.;.;.;.;.;.;.;.;.;.;.p p ;.;.;.;.;.;.;.;.;.;.;.;.;.;.;.;.;.;.;.;.;.;.;.;.;.;.;.;.;.;.;.;.;.;.;.;.;.;.;.;.;.;.",
";.;.;.;.;.;.;.;.;.;.;.;.;.;.;.;.;.;.;.p p p p ;.;.;.;.;.;.;.;.;.;.;.;.;.;.;.;.;.;.;.;.;.;.;.;.;.;.;.;.;.p p ;.;.;.;.;.;.;.;.;.;.",
";.;.;.;.;.;.;.;.;.;.;.;.;.;.;.;.;.;.;.p p p p ;.;.;.;.;.;.;.;.;.;.;.;.;.;.;.;.;.;.;.;.;.;.;.;.;.;.;.;.p p p ;.;.;.;.;.;.;.;.;.;.",
";.;.;.;.;.;.;.;.;.;.;.;.;.;.;.;.;.;.p p p p p p ;.;.;.;.;.;.;.;.;.;.;.;.;.;.;.;.;.;.;.;.;.;.;.;.;.;.;.p p p ;.;.;.;.;.;.;.;.;.;.",
";.;.;.;.;.;.;.;.;.;.;.;.;.;.;.;.;.;.p p p p p p ;.;.;.;.;.;.;.;.;.;.;.;.;.;.;.;.;.;.;.;.;.;.;.;.;.;.p p p p ;.;.;.;.;.;.;.;.;.;.",
";.;.;.;.;.;.;.;.;.;.;.;.;.;.;.;.;.p p p p p p p ;.;.;.;.;.;.;.;.;.;.;.;.;.;.;.;.;.;.;.;.;.;.;.;.;.;.p p p p ;.;.;.;.;.;.;.;.;.;.",
";.;.;.;.;.;.;.;.;.;.;.;.;.;.;.;.;.p p p 4 4 O O < < + o o o o o + + + + o o 1 < O O ;.;.;.;.;.;.;.p p p p p p ;.;.;.;.;.;.;.;.;.",
";.;.;.;.;.;.;.;.;.;.;.;.;.;.;.;.p p p p 4 4 - < < < o o + + o o + + + o o o < < O o p p p p p p p p p p p p p p p p p p p ;.;.;.",
";.;.;.;.;.;.;.;.;.;.;.;.;.;.;.;.p p k k h h X.X.} } 4.2.8.x.7.7.5.5.5.5.<.<.] ] q 9 @ & p p p p p p p p p p p p p p p p p ;.;.;.",
";.;.;.;.;.;.p p p p p p p p p p p p k k j Z } X.} { 4.2.8.8.7.7.5.5.5.5.<.<.] ] q q & # p p p p p p p p p p p p p p p p ;.;.;.;.",
";.;.;.;.;.;.p p p p p p p p s s u u h j F F c.p.].].D.D.i.i.[.[.;X;X*X*X#X#XD.U.u.u.{ { g g % $ p p p p p p p p p p ;.;.;.;.;.;.",
";.;.;.;.;.;.;.p p p p p p p s s u u h j F F p.p.].'.D.D.i.i.|.|.;X;X*X*X&X&XU.U.i.u.{ { g g % ; p p p p p p p p ;.;.;.;.;.;.;.;.",
";.;.;.;.;.;.;.;.;.p p p 2 2 g g v.v.z.8.{ { c.c.B.B.D D P F c.i.%X%X~.~.|.(.|.@X X X&X&X]. X . .: : p p p p p p p ;.;.;.;.;.;.;.",
";.;.;.;.;.;.;.;.;.;.;.p 2 2 g g v.v.u.z.{ { c.c.B.m.D D S F c.c.*X+X~.~.+X|.+X}. X X&X.X.X X . .: : p p p p p p p ;.;.;.;.;.;.;.",
";.;.;.;.;.;.;.;.;.;.  . ; ; x.x.8.8.% # .X.X:X:X[ [ e e -X-X=X=XK.~.#X+X+X+X|.+X(.(.}.@X}.^.'.'.| | : : 1 < p p p p ;.;.;.;.;.;.",
";.;.;.;.;.;.;.;.;.;.    ; ; x.x.8.8.% # .X=X:X:X[ [ e e -X-X=X=X~.~.+X#XXXoX(.+X}.(.}.}.}.{.{.'.| | = : 1 1 p p p p ;.;.;.;.;.;.",
";.;.;.;.;.;.;.;.;.;.    l l _._.6.6.@ & S S J.J.....= = X.X.S.Z.@X@X+X~.@X@X$X$XXXXX$X$X}.@X{.}.G.D.f f # & ;.;.p p ;.;.;.;.;.;.",
";.;.;.;.;.;.;.;.;.;.    l l _._.6.6.& X S S G.J.....= * X.K Z.S.}.@X~.(.#X@X#X$XOXXX@XOX@X@X{.{.G.G.f h & & ;.;.;.;.;.;.;.;.;.;.",
";.;.;.;.;.;.;.;.;.;.$ - 4.4.=X=Xz.z.@ $ a e V.B.,.2.X O M M Z.S.#X%XOXOX/.oXoXoXXXXXOX$XOXoXR.R.T.'.1.1.q q ;.;.;.;.;.;.;.;.;.;.",
";.;.;.;.;.;.;.;.;.;.- - 4.7.=X=Xz.z.$ # y y B.A.2.2.@ X M M Z.k.%X%XOXXXoXoX@X$XXXXX$X$XoX@XR.R.T.`.1.1.q w ;.;.;.;.;.;.;.;.;.;.",
";.;.;.;.;.;.;.;.X @ d d V.b.&X X| | # # P P ]. X#.#.$ $ o.9.k.k.k.l.l.l.}.@X@X@XoXoXOX$X@X@XR.R.H.T.m.m.j j X X ;.;.;.;.;.;.;.;.",
";.;.;.;.;.;.;.;.@ @ d d V.V. X&X| | # # P [  X].#.,.$ $ =.=.j.k.l.k.l.l.@X@X$X@XXXXX$X$X@XoXR.R.F.T.m.m.j j X X ;.;.;.;.;.;.;.;.",
";.;.;.;.;.;.;.;.> > @.+.E.Q.b.b.a a , 5 :.:. X X,.,.; ; f.y.w.w.U U 9.9.).}.#X#XoXoX@X@X}.@X{.}.T.T.m.m. . .$ - ;.;.;.;.;.;.;.;.",
";.;.;.;.;.;.;.;.= 3 +.+.Q.Q.b.g.a a 5 5 :.:. X X,.,.; ; y.y.w.w.U U 9.9.}.).#X#XoXoXoXoX@X}.}.}.T.T.m.m. . .$ $ ;.;.;.;.;.;.;.;.",
";.;.;.;.;.;.;.;.= = @.@.W.`.[.|.L.~.L.L.OXoX#X#XK.~.K.K.(.~././.!.!.!.!.I.I.}.{.).).@X@X@X X^.{.C.C.n.n.3.3.@ $ ;.;.;.;.;.;.;.;.",
";.;.;.;.;.;.;.;.= = +.+.W.`.|.[.U.L.L.L.@X@X#X#XK.K.K.K././././.!.!.!.!.V.P.}.^.).).@X}.@X@X).^.C.Z.n.n.3.3.$ @ ;.;.;.;.;.;.;.;.",
";.;.;.;.;.;.;.;.> > u.i.[.[.#X*X*X*X#X@X>.>.g.g.#X*X|.+X#X#X@X@X#X%X}.).A.A.Y.P.{.).}.}.}.}.@X Xh.h.s.s.u.x.# # ;.;.;.;.;.;.;.;.",
";.;.;.;.;.;.;.;., 5 u.i.[.[.*X#X*X*X#X@X>.>.g.g.*X*X#X}. X#X@X@X%X%X).).k.A.P.P.}.^.).}.}.@X}.}.h.j.s.s.u.u.# # ;.;.;.;.;.;.;.;.",
";.;.;.;.;.;.;.;.5 , r.r.V.V.E.E.^.^.E.E.Y Y f.f. X XW.W.[.[.W.Q.oX).!.!.a.y.j.j.Q.^.).).}.oX^./.0.0.*.=.r.r.: - ;.;.;.;.;.;.;.;.",
";.;.;.;.;.;.;.;., , r.3.I.G.E.E.^.{.E.E.Y Y f.f. X}.W.W.W.'.W.W./.).!.I.a.f.j.j.^.E.).).).}.^.^.0.0.=.-.r.3.: ; ;.;.;.;.;.;.;.;.",
";.;.;.;.;.;.;.;.# # f f t.t.Y.P.Y.Y.Y.Y.T.Y.Q.Q.'.{.'.T.'.].'.'. X|.S.S.9.*.0.0.C.C.S.S.A.A.h.h.I I K K +. .$ $ ;.;.;.;.;.;.;.;.",
";.;.;.;.;.;.;.;.@ $ f d t.t.P.P.P.P.Y.Y.Y.T.Q.'.{.'.T.T.'.'.'.'.}.|.P.S.*.=.0.0.C.C.P.S.A.l.h.h.I I U K  .O.$ @ ;.;.;.;.;.;.;.;.",
";.;.;.;.;.;.;.;.. . w w e.e.S.S.F.S.F.F.Z.S.F.S.H.F.H.H.J.'.J.J.].].N.N.G G ~ ~ q.-.-.-.-.-.G G ~ ~ o.o.0 0     ;.;.;.;.;.;.;.;.",
";.;.;.;.;.;.;.;.. . w w e.e.S.S.F.F.F.F.N.C.S.F.F.F.H.H.J.J.J.J.].].N.N.G G Q ~ q.-.-.-.0.*.G G ~ ~ o.o.0 0     ;.;.;.;.;.;.;.;.",
";.;.;.;.;.;.;.;.p p @ @ Z S h.n.M.M.M.C.M.M.d.d.q.q.I L c c t e r r t c G m H H H H m m G H Q Q -.-.Z y . . ;.;.;.;.;.;.;.;.;.;.",
";.;.;.p p p p p p p X @ S Z d.h.M.M.N.N.M.M.d.d.q.q.I L c c t e r r c t G G H J H H m m H H Q Q -.-.f Z . . ;.;.;.;.;.;.;.;.;.;.",
";.;.;.p p p p p p p p p 6 5 D D a.a.*.^ I L W L W W B B K K +.@.O.O.D D H H b b m m %.%.$.$.$.o.y y 0 0 ;.;.;.;.;.;.;.;.;.;.;.;.",
";.;.;.;.p p p p p p p p 5 > K D a.a.*.*.~ ~ J J E W B B D K @.@.O.O.Z D H H m b H m %.%.$.$.%.%.c f 0 0 ;.;.;.;.;.;.;.;.;.;.;.;.",
";.;.;.;.;.;.p p p p p p p p 9 9 A N v v z z x b E E ` ` C.k.;X;X=X=XM.M.^ ^ x x m m &.&.' ' 8 8 3 3 ;.;.;.;.;.;.;.;.;.;.;.;.;.;.",
";.;.;.;.;.;.p p p p p p p p 9 9 A c v v z z b b E E ` ` k.C.;X*X=X=XM.M.^ ^ x x A m &.&.' ' 8 8 3 3 p p p p p p p p p p ;.;.;.;.",
";.;.;.;.;.p p p p p p p p p p p @ @ e e b b E E ) ) ) ) ( ( / / _ _ _ _ ! ( m n r z 7 8 & @ . . p p p p p p p p p p p p ;.;.;.;.",
";.;.;.;.;.p p p p p p p p p p p @ @ r r B n ! ! ) ) ) ) ( ( / ( _ _ ^ ( ) ( n n t t 7 3 & & . . p p p p p p p p p p ;.;.;.;.;.;.",
";.;.;.;.p p p p p p p ;.p p p p p p * * v v W W C C C C R R R T R R V V C C N N 5 6 2 2 p p p p p p p p p p p ;.;.;.;.;.;.;.;.;.",
";.;.;.;.p p p p p ;.;.;.;.p p p p p * * v N W R C C C C R R R R R R V V C C N N 5 6 2 2 p p p p p p p p p ;.;.;.;.;.;.;.;.;.;.;.",
";.;.;.;.p p p ;.;.;.;.;.;.;.;.p p p p ;.5 5 7 7 5 5 > 5 6 6 6 6 6 6 6 6 6 7 : > i i p p p p p p p p ;.;.;.;.;.;.;.;.;.;.;.;.;.;.",
";.;.;.;.;.;.;.;.;.;.;.;.;.;.;.;.;.;.;.;.5 5 9 7 6 5 5 5 6 6 6 6 6 6 6 6 7 6 > = i i p p p p p p p p ;.;.;.;.;.;.;.;.;.;.;.;.;.;.",
";.;.;.;.;.;.;.;.;.;.;.;.;.;.;.;.;.;.;.;.;.;.;.;.;.;.;.;.;.;.;.p p p p p p p p p p p p p p p p p p p p ;.;.;.;.;.;.;.;.;.;.;.;.;.",
";.;.;.;.;.;.;.;.;.;.;.;.;.;.;.;.;.;.;.;.;.;.;.;.;.;.;.;.;.;.p p p p p p p p p p p p p p p p p p p p p ;.;.;.;.;.;.;.;.;.;.;.;.;.",
";.;.;.;.;.;.;.;.;.;.;.;.;.;.;.;.;.;.;.;.;.;.;.;.;.;.;.;.;.;.p p p p p p p p p ;.;.p p p p p p p p p p p ;.;.;.;.;.;.;.;.;.;.;.;.",
";.;.;.;.;.;.;.;.;.;.;.;.;.;.;.;.;.;.;.;.;.;.;.;.;.;.;.;.;.p p p p p p p ;.;.;.;.;.;.;.p p p p p p p p p ;.;.;.;.;.;.;.;.;.;.;.;.",
";.;.;.;.;.;.;.;.;.;.;.;.;.;.;.;.;.;.;.;.;.;.;.;.;.;.;.;.p p p p p p ;.;.;.;.;.;.;.;.;.;.;.p p p p p p p p ;.;.;.;.;.;.;.;.;.;.;.",
";.;.;.;.;.;.;.;.;.;.;.;.;.;.;.;.;.;.;.;.;.;.;.;.;.;.;.;.p p p ;.;.;.;.;.;.;.;.;.;.;.;.;.;.;.;.p p p p p p ;.;.;.;.;.;.;.;.;.;.;.",
";.;.;.;.;.;.;.;.;.;.;.;.;.;.;.;.;.;.;.;.;.;.;.;.;.;.;.;.p p ;.;.;.;.;.;.;.;.;.;.;.;.;.;.;.;.;.;.;.p p p p ;.;.;.;.;.;.;.;.;.;.;.",
";.;.;.;.;.;.;.;.;.;.;.;.;.;.;.;.;.;.;.;.;.;.;.;.;.;.;.;.;.;.;.;.;.;.;.;.;.;.;.;.;.;.;.;.;.;.;.;.;.;.;.;.;.;.;.;.;.;.;.;.;.;.;.;.",
";.;.;.;.;.;.;.;.;.;.;.;.;.;.;.;.;.;.;.;.;.;.;.;.;.;.;.;.;.;.;.;.;.;.;.;.;.;.;.;.;.;.;.;.;.;.;.;.;.;.;.;.;.;.;.;.;.;.;.;.;.;.;.;.",
";.;.;.;.;.;.;.;.;.;.;.;.;.;.;.;.;.;.;.;.;.;.;.;.;.;.;.;.;.;.;.;.;.;.;.;.;.;.;.;.;.;.;.;.;.;.;.;.;.;.;.;.;.;.;.;.;.;.;.;.;.;.;.;.",
";.;.;.;.;.;.;.;.;.;.;.;.;.;.;.;.;.;.;.;.;.;.;.;.;.;.;.;.;.;.;.;.;.;.;.;.;.;.;.;.;.;.;.;.;.;.;.;.;.;.;.;.;.;.;.;.;.;.;.;.;.;.;.;.",
";.;.;.;.;.;.;.;.;.;.;.;.;.;.;.;.;.;.;.;.;.;.;.;.;.;.;.;.;.;.;.;.;.;.;.;.;.;.;.;.;.;.;.;.;.;.;.;.;.;.;.;.;.;.;.;.;.;.;.;.;.;.;.;."
};
