/* XPM */
static char *result[] = {
/* columns rows colors chars-per-pixel */
"64 64 200 2 ",
"   c #080000",
".  c #150102",
"X  c #1C0003",
"o  c #180808",
"O  c #220104",
"+  c #26020B",
"@  c #27070B",
"#  c #2A000C",
"$  c #330003",
"%  c #37030E",
"&  c #2F0110",
"*  c #340213",
"=  c #3A0413",
"-  c #3B0B1C",
";  c #251213",
":  c #2A1414",
">  c #2F1F21",
",  c #3A1126",
"<  c #2C2223",
"1  c #372326",
"2  c #3C2B2D",
"3  c #45000F",
"4  c #4B0319",
"5  c #4E0518",
"6  c #500012",
"7  c #53011C",
"8  c #650018",
"9  c #4A0420",
"0  c #590325",
"q  c #520A20",
"w  c #441628",
"e  c #4A1C2B",
"r  c #5E0F33",
"t  c #5A1D37",
"y  c #650B27",
"u  c #700E34",
"i  c #63193B",
"p  c #6B1D39",
"a  c #751839",
"s  c #4C2337",
"d  c #552937",
"f  c #453134",
"g  c #503033",
"h  c #64223E",
"j  c #67293E",
"k  c #70283E",
"l  c #736122",
"z  c #751D41",
"x  c #792C46",
"c  c #6B3648",
"v  c #794667",
"b  c #80052A",
"n  c #8B0937",
"m  c #920830",
"M  c #87173A",
"N  c #95163C",
"B  c #A20432",
"V  c #A80C37",
"C  c #B70036",
"Z  c #A41E3B",
"A  c #84203D",
"S  c #851B48",
"D  c #9C1E49",
"F  c #981F55",
"G  c #AD0641",
"H  c #B7074A",
"J  c #A61947",
"K  c #B7184C",
"L  c #BD1957",
"P  c #86314C",
"I  c #842955",
"U  c #9D2F58",
"Y  c #893652",
"T  c #9D3356",
"R  c #9C375B",
"E  c #AB234C",
"W  c #A22455",
"Q  c #B22C54",
"!  c #B4255A",
"~  c #A43B5A",
"^  c #AB2160",
"/  c #BA2661",
"(  c #BA3768",
")  c #C50D46",
"_  c #CC034A",
"`  c #CB124E",
"'  c #D10150",
"]  c #D5105E",
"[  c #CD245F",
"{  c #D1235C",
"}  c #C33A5A",
"|  c #C71F63",
" . c #E40D63",
".. c #E51468",
"X. c #EF1477",
"o. c #F41C75",
"O. c #FA1E7C",
"+. c #C62765",
"@. c #D72368",
"#. c #C23961",
"$. c #E32766",
"%. c #E6236D",
"&. c #ED267B",
"*. c #E62978",
"=. c #FC267C",
"-. c #A6425F",
";. c #895677",
":. c #A14562",
">. c #B14666",
",. c #AA546F",
"<. c #A74F78",
"1. c #A25775",
"2. c #BF5172",
"3. c #AF677D",
"4. c #D5476D",
"5. c #CE4C7A",
"6. c #D24476",
"7. c #D14D75",
"8. c #D14A79",
"9. c #C95E7B",
"0. c #E54D7E",
"q. c #E6C03E",
"w. c #FF1F84",
"e. c #F0398B",
"r. c #AF5C83",
"t. c #B25C85",
"y. c #B2788C",
"u. c #C54F80",
"i. c #CA5F88",
"p. c #D75987",
"a. c #DE5C93",
"s. c #E95A87",
"d. c #E55C8B",
"f. c #F75C90",
"g. c #C76685",
"h. c #D86789",
"j. c #CB6E93",
"k. c #D06091",
"l. c #C67A9E",
"z. c #D97895",
"x. c #E3638C",
"c. c #E76893",
"v. c #EC6D95",
"b. c #ED6D9D",
"n. c #F46495",
"m. c #F76997",
"M. c #F16E9B",
"N. c #ED709C",
"B. c #F4739E",
"V. c #FE759F",
"C. c #C46FA0",
"Z. c #D97BA8",
"A. c #DF79B0",
"S. c #E379A9",
"D. c #F575A3",
"F. c #FC74A2",
"G. c #F878A3",
"H. c #F374A8",
"J. c #F27EAB",
"K. c #E17BB0",
"L. c #C387A3",
"P. c #D39AB0",
"I. c #E382AF",
"U. c #E88AAE",
"Y. c #FF82AD",
"T. c #EC83B3",
"R. c #E488B3",
"E. c #FC85B4",
"W. c #FF8AB6",
"Q. c #F586BC",
"!. c #FC83BA",
"~. c #FF89BC",
"^. c #EB90BA",
"/. c #F896BB",
"(. c #CEA7B6",
"). c #F8A6BD",
"_. c #F68BC0",
"`. c #FF8EC3",
"'. c #FF92C3",
"]. c #F49AC3",
"[. c #FE93CB",
"{. c #F59CCB",
"}. c #FE9ACC",
"|. c #FF96D0",
" X c #F69DD1",
".X c #FF9BD4",
"XX c #FE9DDC",
"oX c #D8B1C3",
"OX c #FCA3CA",
"+X c #EEB0CC",
"@X c #FDA2D5",
"#X c #FFA1DC",
"$X c #F2AED9",
"%X c #FFAADC",
"&X c #EFB2DA",
"*X c #FF9EE1",
"=X c #FEA3E1",
"-X c #FFADE6",
";X c #FFB8E9",
":X c #FFD3F4",
/* pixels */
"q.q.q.q.q.q.q.q.q.q.q.q.q.q.q.q.q.q.q.q.q.q.q.q.q.q.q.q.q.q.q.q.q.q.q.q.q.q.q.q.q.q.q.q.q.q.q.q.q.q.q.q.q.q.q.q.q.q.q.q.q.q.q.q.",
"q.q.q.q.q.q.q.q.q.q.q.q.q.q.q.q.q.q.q.q.q.q.q.q.q.q.q.q.q.q.q.q.q.q.q.q.q.q.q.q.q.q.q.q.q.q.q.q.q.q.q.q.q.q.q.q.q.q.q.q.q.q.q.q.",
"q.q.q.q.q.q.q.q.q.q.q.q.q.q.q.q.q.q.q.q.q.q.q.q.q.q.q.q.q.q.q.q.q.q.q.q.q.q.q.q.q.q.q.q.q.q.q.q.q.q.q.q.q.q.q.q.q.q.q.q.q.q.q.q.",
"q.q.q.q.q.q.q.q.q.q.q.q.q.q.q.q.q.q.q.q.q.q.q.q.q.q.q.q.q.q.q.q.q.q.q.q.q.q.q.q.q.q.q.q.q.q.q.q.q.q.q.q.q.q.q.q.q.q.q.q.q.q.q.q.",
"q.q.q.q.q.q.q.q.q.q.q.q.q.q.q.q.q.q.q.q.q.q.q.q.q.q.q.q.q.q.q.q.q.q.q.q.q.q.q.q.q.q.q.q.q.q.q.q.q.q.q.q.q.q.q.q.q.q.q.q.q.q.q.q.",
"q.q.q.q.q.q.q.q.q.q.q.q.q.q.q.q.q.q.q.q.l l q.q.q.q.q.q.q.q.q.q.q.q.q.q.q.q.q.q.q.q.q.q.q.q.q.q.q.q.q.q.q.q.q.q.q.q.q.q.q.q.q.q.",
"q.q.q.q.q.q.q.q.q.q.q.q.q.q.q.q.q.q.q.q.l l q.q.q.q.q.q.q.q.q.q.q.q.q.q.q.q.q.q.q.q.q.q.q.q.q.q.q.q.q.q.q.q.q.q.q.q.q.q.q.q.q.q.",
"q.q.q.q.q.q.q.q.q.q.q.q.q.q.q.q.q.q.q.l l l l q.q.q.q.q.q.q.q.q.q.q.q.q.q.q.q.q.q.q.q.q.q.q.q.q.q.q.q.q.l l q.q.q.q.q.q.q.q.q.q.",
"q.q.q.q.q.q.q.q.q.q.q.q.q.q.q.q.q.q.q.l l l l q.q.q.q.q.q.q.q.q.q.q.q.q.q.q.q.q.q.q.q.q.q.q.q.q.q.q.q.l l l q.q.q.q.q.q.q.q.q.q.",
"q.q.q.q.q.q.q.q.q.q.q.q.q.q.q.q.q.q.l l l l l l q.q.q.q.q.q.q.q.q.q.q.q.q.q.q.q.q.q.q.q.q.q.q.q.q.q.q.l l l q.q.q.q.q.q.q.q.q.q.",
"q.q.q.q.q.q.q.q.q.q.q.q.q.q.q.q.q.q.l l l l     O # - - w w s s d d s s e e - , * : q.q.q.q.q.q.q.q.l l l l q.q.q.q.q.q.q.q.q.q.",
"q.q.q.q.q.q.q.q.q.q.q.q.q.q.q.q.q.l l l l l     + + - = w w s s d d d s e e - , * * q.q.q.q.q.q.q.q.l l l l q.q.q.q.q.q.q.q.q.q.",
"q.q.q.q.q.q.q.q.q.q.q.q.q.q.q.q.q.l o . @ @ = 3 Y Y g.g.Z.I.U.^. XOX{.OXI.I.Z.j.r.<.r r & * @ @ q.l l l l l l q.q.q.q.q.q.q.q.q.",
"q.q.q.q.q.q.q.q.q.q.q.q.q.q.q.q.l l . . + @ 3 w Y Y g.t.Z.Z.^.^.{.{.OX{.I.I.j.Z.<.<.r r * * @ @ l l l l l l l l l l l l l q.q.q.",
"q.q.q.q.q.q.q.q.q.q.q.q.q.q.< < . . e e 3.3.g.g././.@XOX}.}..X.X#X@X#X#X}..X[.|.[.|.A._.r.r.h h ; @ l l l l l l l l l l l q.q.q.",
"q.q.q.q.q.q.l l l l l l l l < < . X e e 3.3.g.9././.@XOX}.}.XX X.X#X@X#X X.X|.|.[.|.R.K.r.r.h h @ @ l l l l l l l l l l q.q.q.q.",
"q.q.q.q.q.q.l l l l l l l l ; @ k k :.:.>.>.OXOX2.2.i.i.-X-X=X=X*X X=X=X-X-X=X=X=X%X=X=X X.XC.l.p p d d l l l l l l q.q.q.q.q.q.",
"q.q.q.q.q.q.q.l l l l l l l @ ; k k :.-.>.,.OXOX2.2.i.i.-X-X#X=X*X*X=X=X*X=X=X$X=X-X=X=X X Xl.C.p p d d l l l l q.q.q.q.q.q.q.q.",
"q.q.q.q.q.q.q.q.q.l l l l l : : P P g.i.>.>.z.z.z.z.U.U.@X@X#X=X*X*X=X*X=X=X=X=X=X=XXX=X-X-X X[.j.j.6 3 l l l l l q.q.q.q.q.q.q.",
"q.q.q.q.q.q.q.q.q.q.q.l l l : : P P 9.g.>.>.v.z.z.z.U.U.@X@X#X=X*X=X*X*X=X=X=X=X=X=X=XXX-X-X|.|.j.j.3 3 l l l l l q.q.q.q.q.q.q.",
"q.q.q.q.q.q.q.q.q.q.q.q.. . # # 5 5 ,.,.L.L.8 y ).).:X:X X{.*X=X=X=X*X*XXXXXXX XXX*XXX*X*X*X*XXX/./.p p l l l l l l q.q.q.q.q.q.",
"q.q.q.q.q.q.q.q.q.q.q.q.. . # $ 3 6 ,.,.I.z.y y ).).:X:X{.{.*X*X=X=X*X*X*XXXXX=X*XXXXXXX*X*XXXXX'.].a k q.q.l l l l q.q.q.q.q.q.",
"q.q.q.q.q.q.q.q.q.q.q.q.O O c c % % j j L.L.3 $ x x P.R.XX X#X=X=XXX=X*XXX*X*X*XXX=X*X*X*X*X*X=X@X@X<.3.- - 2 2 l l q.q.q.q.q.q.",
"q.q.q.q.q.q.q.q.q.q.q.l O O c c % % j k 3.L.$ $ x x U.R.#XXX=X=X#X=X*X=X*X*X*X*X=XXX=X*X*X*X=X=X@X@Xt.t.3 - 2 2 q.q.q.q.q.q.q.q.",
"q.q.q.q.q.q.q.q.q.q.q.l # $ y.y.e e c c (.(.# # a z I.I.%X%X@X@X X X.X.X*XXX*XXXXXXX@X#XXX.X*X*XXXXXZ.A.t t 1 1 q.q.q.q.q.q.q.q.",
"q.q.q.q.q.q.q.q.q.q.l l # # y.y.e w c c (.(.# # z z I.I.%X%X#X@X|.|..X.XXX*XXX*X#XXX#XXXXXXX=X*X.X.XA.Z.t d 1 1 q.q.q.q.q.q.q.q.",
"q.q.q.q.q.q.q.q.q.q.l l & & P.P., , 2 f oXoX+ + I I [.[.%X%X@X#XR.T._._.XXXX*XXXXXXXXX.XXX X=X#XXXXXK.K.h h f g q.q.q.q.q.q.q.q.",
"q.q.q.q.q.q.q.q.q.l l l & & P.P., , s f oXoXO + I I [.[.%X%X@X#XT.T._._.XXXXXX*XXXXX.XXX.XXX*X#XXXXXK.Z.h h f f q.q.q.q.q.q.q.q.",
"q.q.q.q.q.q.q.q.q.l l l & & P.P.v v ;.;.&XoXi i t.t.%X#X{.}.Q.J.S.S.Q.'.#X#X*X*XXX*X.XXX.X.X#X#XXXXXA.A.t t f 2 q.q.q.q.q.q.q.q.",
"q.q.q.q.q.q.q.q.q.l l l & & P.P.v v v r.+X&Xr t t.t.%X=X}.}.K.J.S.S._.Q.XX#X=X*X*X*X.X.X.X.X#X#XXXXXA.Z.t t f f q.q.q.q.q.q.q.q.",
"q.q.q.q.q.q.q.q.q.q.q.q.+ O L.L.&X&X&X$X{.oX_.]. X X-X-XQ.Q.u.u.Y.T.OX.XXX#XXX*X.XXX.X.X}.}.@X.X.X.XA.Z.p p g f q.q.q.q.q.q.q.q.",
"q.q.q.q.q.q.q.q.q.q.q.q.O + L.L.&X&X&X&X].].].]. X X-X-XQ.Q.u.u.J.Y..XOX#XXX=XXXXX.X.X.X}..X.XXXXX.XS.K.p p f f q.q.q.q.q.q.q.q.",
"q.q.q.q.q.q.q.q.q.q.q.q.+ + l.L.;X:XC.C.R R }.}.@X#X-X=XJ.!.F U p.p.'.'.}.[.[.'.'.}.[.'.}.'.}.}.[.[.H.H.U U 4 4 > > q.q.q.q.q.q.",
"q.q.q.q.q.q.q.q.q.q.q.q.& O L.L.;X;XC.C.R R OX}.%X#X=X=X`.J.W ^ p.h./.'.}.[.[.[.'.'.'.[.}.}.}.}.[.[.H.H.U U 4 4 > > q.q.q.q.q.q.",
"q.q.q.q.q.q.q.q.q.q.q.q.+ + l.L.#X@XA.A.k.k.`.'.@X.X=X=X!.!.( ( 5.5.H.H.W.~.!.~.W.W.N.N.Y.J./.`.W.W.( ( D D u u . o q.q.q.q.q.q.",
"q.q.q.q.q.q.q.q.q.q.q.q.+ + L.l.$X@XA.A.k.k.`.`.@X#X=X*X!.!.( ( 5.5.G.G.!.W.~.~.W./.N.N.J.J././.W.W.( ( F D u u . . q.q.q.q.q.q.",
"q.q.q.q.q.q.q.q.q.q.l l O # 1.1.T.U.~.'.`.`.`.[.[.[.#X#X`.`.a.a.8.8.6.6.5.5.7.7.4.4.>.} x.x.Y.E.9.9.h.h.p.p.S S o o q.q.q.q.q.q.",
"q.q.q.q.q.q.q.q.q.q.l l O O 1.1.T.T.`.`.[._.`.`.[.[.#X#X`.[.a.a.8.8.6.6.5.5.7.7.4.4.} } x.h.W.Y.9.9.h.h.p.p.S S o o q.q.q.q.q.q.",
"q.q.q.q.q.q.q.q.q.l l l # O a a i.p.D.D.b.b.~.~.'.`.~.~.!.!.H.H.d.d./ #.E E E E Z Z } } n.n.p.s.N N @X%X|.XXF F . . q.q.q.q.q.q.",
"q.q.q.q.q.q.q.q.q.l l l # # a a p.p.H.D.b.b.~.~.`.[.`.~.!.!.D.H.d.d.} } E E E E Z Z } } v.n.d.p.N N @XOX.X.XF F . . q.q.q.q.q.q.",
"q.q.q.q.q.q.q.q.l l l l $ $ 7 8 ( ( n.n.F.F.H.b.B.B.V.G.M.b.M.b.D.b.B.M.N.N.c.c.x.x.V.V.0.0.G G H H @.*.e.e.^ ^ X + q.q.q.q.q.q.",
"q.q.q.l l l l l l l l l $ $ 8 8 ( / n.n.F.F.b.D.B.v.B.B.b.N.b.b.M.M.M.M.v.v.c.c.x.x.V.V.0.0.G G H G w.@.e.e.^ ^ X X q.q.q.q.q.q.",
"q.q.q.l l l l l l l d g a S ! ! G H +.[ f.f.s.s.m.m.Y.Y.B.M.B.b.G.B.G.G.B.B.Y.B.Y.Y.x.s.` K H ) X...X.X.w.w.| ^ + O q.q.q.q.q.q.",
"q.q.q.q.l l l l l l c d z M ! ! K G [ [ f.f.f.s.m.m.m.Y.M.b.B.B.D.D.G.G.B.N.B.B.Y.Y.p.s.K K C H X.] X.X.*.e.^ ^ + O q.q.q.q.q.q.",
"q.q.q.q.q.q.l l c x n M +.@.*.&.] ] _ _ ..$.{ { 4.4.0.0.v.v.v.v.v.v.v.m.B.M.V.V.x.x.Z E B B ] $.w.w.w.w.%.%.J J O O q.q.q.q.q.q.",
"q.q.q.q.q.q.l l x c M n +.#.&.*.] ] _ ) @.$.{ { 4.4.0.f.x.v.N.v.v.M.M.v.M.M.B.B.x.x.J E B B $.$.w.X.w.w.%.%.J J O X l l q.q.q.q.",
"q.q.q.q.q.l : : a a 6.5.e.&.o.o.=.w....._ _ ` ) V V Q Q -.>.-.-.~ ~ T ~ ~ ~ ~ T A A 8 8 B B $.$.O.&.X.w.%.%.n m X O l l q.q.q.q.",
"q.q.q.q.q.l ; : a a 6.*.*.*.&.=.=.=....._ ) ) ) V V Q Q -.>.-.-.~ ~ T T ~ ~ ~ ~ A A 8 8 B B $.$.O.o.w.X.$...m m X O q.q.q.q.q.q.",
"q.q.q.q.l l 2 2 y u +./ &.&.o.o. . .' ' _ _ C C V B M M q 5 o X . . X X . X X X X O 5 6 m m ` ` o.&.=.=.{ { u b O O q.q.q.q.q.q.",
"q.q.q.q.l l 2 2 y y / / &.&.o.o. . .' ' _ _ C C B V M b 5 5 o X . . X X X X O X O X 5 6 m m ` ` o.o.=.=.{ { b b X O q.q.q.q.q.q.",
"q.q.q.q.l l ; ; 4 4 U U +.( @.@.| | L L K H J J N A 6 6 ; ; q.q.l l l l l l l l l l l l 8 7 Q ! @.+.[ ! Z D y y . . q.q.q.q.q.q.",
"q.q.q.q.q.q.; ; 4 4 U U +./ @.@.| +.L ` K K J J A N 6 6 : : q.q.l l l l l l l l l l l l 8 8 Q Q +.+.! [ D E 7 0 . . q.q.q.q.q.q.",
"q.q.q.q.q.q.q.q.2 2 * * 9 9 0 0 0 0 7 7 7 7 4 4 3 % q.q.q.q.q.l l l l l l l l l l l l l l l 5 q 7 7 4 4 % % O @ q.q.q.q.q.q.q.q.",
"q.q.q.q.q.q.q.q.2 2 * * 9 9 0 0 0 0 0 7 7 7 4 5 = % q.q.q.q.l l l l l l l l l l l l l l l l q q 5 5 4 4 % % O O q.q.q.q.q.q.q.q.",
"q.q.q.q.q.q.q.q.q.q.q.q.q.q.q.q.q.q.q.q.q.q.q.q.q.q.q.q.q.q.l l l l l l l l l q.q.l l l l l l l l l l l q.q.q.q.q.q.q.q.q.q.q.q.",
"q.q.q.q.q.q.q.q.q.q.q.q.q.q.q.q.q.q.q.q.q.q.q.q.q.q.q.q.q.l l l l l l l q.q.q.q.q.q.q.l l l l l l l l l q.q.q.q.q.q.q.q.q.q.q.q.",
"q.q.q.q.q.q.q.q.q.q.q.q.q.q.q.q.q.q.q.q.q.q.q.q.q.q.q.q.l l l l l l q.q.q.q.q.q.q.q.q.q.q.l l l l l l l l q.q.q.q.q.q.q.q.q.q.q.",
"q.q.q.q.q.q.q.q.q.q.q.q.q.q.q.q.q.q.q.q.q.q.q.q.q.q.q.q.l l l q.q.q.q.q.q.q.q.q.q.q.q.q.q.q.q.l l l l l l q.q.q.q.q.q.q.q.q.q.q.",
"q.q.q.q.q.q.q.q.q.q.q.q.q.q.q.q.q.q.q.q.q.q.q.q.q.q.q.q.l l q.q.q.q.q.q.q.q.q.q.q.q.q.q.q.q.q.q.q.l l l l q.q.q.q.q.q.q.q.q.q.q.",
"q.q.q.q.q.q.q.q.q.q.q.q.q.q.q.q.q.q.q.q.q.q.q.q.q.q.q.q.q.q.q.q.q.q.q.q.q.q.q.q.q.q.q.q.q.q.q.q.q.q.q.q.q.q.q.q.q.q.q.q.q.q.q.q.",
"q.q.q.q.q.q.q.q.q.q.q.q.q.q.q.q.q.q.q.q.q.q.q.q.q.q.q.q.q.q.q.q.q.q.q.q.q.q.q.q.q.q.q.q.q.q.q.q.q.q.q.q.q.q.q.q.q.q.q.q.q.q.q.q.",
"q.q.q.q.q.q.q.q.q.q.q.q.q.q.q.q.q.q.q.q.q.q.q.q.q.q.q.q.q.q.q.q.q.q.q.q.q.q.q.q.q.q.q.q.q.q.q.q.q.q.q.q.q.q.q.q.q.q.q.q.q.q.q.q.",
"q.q.q.q.q.q.q.q.q.q.q.q.q.q.q.q.q.q.q.q.q.q.q.q.q.q.q.q.q.q.q.q.q.q.q.q.q.q.q.q.q.q.q.q.q.q.q.q.q.q.q.q.q.q.q.q.q.q.q.q.q.q.q.q.",
"q.q.q.q.q.q.q.q.q.q.q.q.q.q.q.q.q.q.q.q.q.q.q.q.q.q.q.q.q.q.q.q.q.q.q.q.q.q.q.q.q.q.q.q.q.q.q.q.q.q.q.q.q.q.q.q.q.q.q.q.q.q.q.q."
};
