/* XPM */
static char *result[] = {
/* columns rows colors chars-per-pixel */
"64 64 183 2 ",
"   c #0D0000",
".  c #160000",
"X  c #1F0002",
"o  c #1B0B0C",
"O  c #1A0D11",
"+  c #240204",
"@  c #2B0005",
"#  c #25020C",
"$  c #2D0109",
"%  c #340106",
"&  c #31010B",
"*  c #3C0216",
"=  c #310019",
"-  c #3D0618",
";  c #261115",
":  c #301111",
">  c #311B1C",
",  c #3A1F1F",
"<  c #3C1F21",
"1  c #382828",
"2  c #4E000A",
"3  c #420317",
"4  c #470616",
"5  c #430A12",
"6  c #4C031B",
"7  c #6A0019",
"8  c #76001E",
"9  c #470A23",
"0  c #560925",
"q  c #5E0028",
"w  c #481828",
"e  c #561327",
"r  c #510F38",
"t  c #471D34",
"y  c #660226",
"u  c #7A0728",
"i  c #7D1529",
"p  c #671A33",
"a  c #721D37",
"s  c #5A2434",
"d  c #473139",
"f  c #652538",
"g  c #736122",
"h  c #5C2742",
"j  c #692845",
"k  c #782841",
"l  c #64364A",
"z  c #7F425B",
"x  c #774869",
"c  c #870019",
"v  c #8E001A",
"b  c #90001F",
"n  c #84172D",
"m  c #8B1333",
"M  c #931C34",
"N  c #9E133D",
"B  c #A20027",
"V  c #B00137",
"C  c #AE133C",
"Z  c #911740",
"A  c #B60B44",
"S  c #BB0B44",
"D  c #AF1249",
"F  c #B0184E",
"G  c #B01D5A",
"H  c #8C2F4E",
"J  c #96274F",
"K  c #963448",
"L  c #932E50",
"P  c #8B3C56",
"I  c #8E3F59",
"U  c #963D5F",
"Y  c #A42444",
"T  c #AA2252",
"R  c #B6295B",
"E  c #B93658",
"W  c #A13B62",
"Q  c #B9306C",
"!  c #B92172",
"~  c #C9064A",
"^  c #CF1C5B",
"/  c #D11653",
"(  c #CA245D",
")  c #D20E65",
"_  c #CD1467",
"`  c #E71D6F",
"'  c #E01E74",
"]  c #C23E66",
"[  c #CE2A74",
"{  c #D5387A",
"}  c #ED2475",
"|  c #F62C7D",
" . c #86425B",
".. c #A4405D",
"X. c #BA455F",
"o. c #854F64",
"O. c #9B4D65",
"+. c #87516A",
"@. c #A94B69",
"#. c #AA516D",
"$. c #AC4876",
"%. c #AC5275",
"&. c #AB5C75",
"*. c #AF5C7E",
"=. c #A7617B",
"-. c #C54870",
";. c #E6C03E",
":. c #CF3D87",
">. c #AF4380",
",. c #B25D88",
"<. c #BF5E91",
"1. c #BC6687",
"2. c #B8758C",
"3. c #BA7791",
"4. c #CB4D85",
"5. c #C75D86",
"6. c #EA5C8C",
"7. c #EC5E99",
"8. c #C36889",
"9. c #D5618A",
"0. c #C66991",
"q. c #D16E92",
"w. c #D56B9A",
"e. c #D47394",
"r. c #DF749D",
"t. c #D67A9C",
"y. c #E7668B",
"u. c #E56794",
"i. c #E46C93",
"p. c #E65AA9",
"a. c #DE6DA1",
"s. c #DA79A3",
"d. c #D47EA8",
"f. c #DC75B1",
"g. c #E779A8",
"h. c #F578A7",
"j. c #FF62B5",
"k. c #FF6FB8",
"l. c #F17AB6",
"z. c #FF6FC2",
"x. c #DF87AD",
"c. c #DF88B0",
"v. c #DD88BA",
"b. c #E68DAD",
"n. c #FE83AC",
"m. c #EC89B8",
"M. c #FC80B4",
"N. c #FA88B9",
"B. c #E89AB6",
"V. c #E593BC",
"C. c #F393BC",
"Z. c #FF92BE",
"A. c #FB9BBD",
"S. c #F58EC7",
"D. c #FE8CC1",
"F. c #FF8BCE",
"G. c #ED93C8",
"H. c #EA98CB",
"J. c #FD94C3",
"K. c #FB92CD",
"L. c #F49AC9",
"P. c #FE9CCD",
"I. c #FF87D8",
"U. c #FE93D3",
"Y. c #FE9CD4",
"T. c #F599D8",
"R. c #FE9CDC",
"E. c #F4A3C7",
"W. c #FFB5CE",
"Q. c #FDA3D5",
"!. c #F8A8D6",
"~. c #FEA3DB",
"^. c #FEAFDA",
"/. c #FFB2DC",
"(. c #FE9DE3",
"). c #FF9BE8",
"_. c #FEA3E3",
"`. c #FFAAE3",
"'. c #FFA3EA",
"]. c #FFAAEA",
"[. c #FFB6EC",
"{. c #FFB3F8",
"}. c #FFE1FD",
/* pixels */
";.;.;.;.;.;.;.;.;.;.;.;.;.;.;.;.;.;.;.;.;.;.;.;.;.;.;.;.;.;.;.;.;.;.;.;.;.;.;.;.;.;.;.;.;.;.;.;.;.;.;.;.;.;.;.;.;.;.;.;.;.;.;.;.",
";.;.;.;.;.;.;.;.;.;.;.;.;.;.;.;.;.;.;.;.;.;.;.;.;.;.;.;.;.;.;.;.;.;.;.;.;.;.;.;.;.;.;.;.;.;.;.;.;.;.;.;.;.;.;.;.;.;.;.;.;.;.;.;.",
";.;.;.;.;.;.;.;.;.;.;.;.;.;.;.;.;.;.;.;.;.;.;.;.;.;.;.;.;.;.;.;.;.;.;.;.;.;.;.;.;.;.;.;.;.;.;.;.;.;.;.;.;.;.;.;.;.;.;.;.;.;.;.;.",
";.;.;.;.;.;.;.;.;.;.;.;.;.;.;.;.;.;.;.;.;.;.;.;.;.;.;.;.;.;.;.;.;.;.;.;.;.;.;.;.;.;.;.;.;.;.;.;.;.;.;.;.;.;.;.;.;.;.;.;.;.;.;.;.",
";.;.;.;.;.;.;.;.;.;.;.;.;.;.;.;.;.;.;.;.;.;.;.;.;.;.;.;.;.;.;.;.;.;.;.;.;.;.;.;.;.;.;.;.;.;.;.;.;.;.;.;.;.;.;.;.;.;.;.;.;.;.;.;.",
";.;.;.;.;.;.;.;.;.;.;.;.;.;.;.;.;.;.;.;.g g ;.;.;.;.;.;.;.;.;.;.;.;.;.;.;.;.;.;.;.;.;.;.;.;.;.;.;.;.;.;.;.;.;.;.;.;.;.;.;.;.;.;.",
";.;.;.;.;.;.;.;.;.;.;.;.;.;.;.;.;.;.;.;.g g ;.;.;.;.;.;.;.;.;.;.;.;.;.;.;.;.;.;.;.;.;.;.;.;.;.;.;.;.;.;.;.;.;.;.;.;.;.;.;.;.;.;.",
";.;.;.;.;.;.;.;.;.;.;.;.;.;.;.;.;.;.;.g g g g ;.;.;.;.;.;.;.;.;.;.;.;.;.;.;.;.;.;.;.;.;.;.;.;.;.;.;.;.;.g g ;.;.;.;.;.;.;.;.;.;.",
";.;.;.;.;.;.;.;.;.;.;.;.;.;.;.;.;.;.;.g g g g ;.;.;.;.;.;.;.;.;.;.;.;.;.;.;.;.;.;.;.;.;.;.;.;.;.;.;.;.g g g ;.;.;.;.;.;.;.;.;.;.",
";.;.;.;.;.;.;.;.;.;.;.;.;.;.;.;.;.;.g g g g g g ;.;.;.;.;.;.;.;.;.;.;.;.;.;.;.;.;.;.;.;.;.;.;.;.;.;.;.g g g ;.;.;.;.;.;.;.;.;.;.",
";.;.;.;.;.;.;.;.;.;.;.;.;.;.;.;.;.;.g g g g g g ;.;.+ o + + % @ @ @ @ @ @ @ + + X X . . ;.;.;.;.;.;.g g g g ;.;.;.;.;.;.;.;.;.;.",
";.;.;.;.;.;.;.;.;.;.;.;.;.;.;.;.;.g g g g g g g ;.;.+ + @ + @ % $ $ $ $ @ @ + + X + . . ;.;.;.;.;.;.g g g g ;.;.;.;.;.;.;.;.;.;.",
";.;.;.;.;.;.;.;.;.;.;.;.;.;.;.;.;.g g g g g o o : : s f O.O.&.&.3.3.3.3.&.=. . .f f 9 - > ; O O ;.g g g g g g ;.;.;.;.;.;.;.;.;.",
";.;.;.;.;.;.;.;.;.;.;.;.;.;.;.;.g g g g g g o X : : s s O.O.=.&.3.3.2.2.=.=. .z f f < - > ; O O g g g g g g g g g g g g g ;.;.;.",
";.;.;.;.;.;.;.;.;.;.;.;.;.;.;.;.g g g g w w P P 3.x.b.b.C.C.^.Q././.!.!.H.H.H.H.V.v.x.d.,.,.h j # # g g g g g g g g g g g ;.;.;.",
";.;.;.;.;.;.g g g g g g g g g g g g g g w 5 P  .e.x.x.x.C.C.Q.!././.Q.!.T.H.H.H.v.v.d.d.,.,.j j # o g g g g g g g g g g ;.;.;.;.",
";.;.;.;.;.;.g g g g g g g g g g g g + X a a t.e.e.t.W./.Q.P.w.w.<.<.!.T.].].].].[.].`.`.Q.Y.d.d.f f + @ g g g g g g ;.;.;.;.;.;.",
";.;.;.;.;.;.;.g g g g g g g g g g g # + a a q.q.e.x././.P.E.w.q.<.<.T.~.].].'.'.].[.`.`.Q.Q.s.d.f a + + g g g g ;.;.;.;.;.;.;.;.",
";.;.;.;.;.;.;.;.;.g g g g g g g     w w #.#.@.@.O.O.E.E.e.i.L L ,.&.T.E.~.~.T.T.Y.Y.L.!.Q.!.E.!.e.e.p f X X g g g ;.;.;.;.;.;.;.",
";.;.;.;.;.;.;.;.;.;.;.g g g g g     s w #.#.@.@.O.O.A.A.e.e.L L *.*.E.E.~.~.H.T.!.L.Y.L.Q.Q.E.E.e.e.p p X X g g g ;.;.;.;.;.;.;.",
";.;.;.;.;.;.;.;.;.;.;.;.;.g g g X X 2.2.I I H H }.}.W.W.a a O.@.}.}.!.^.T.T.~.(.Q.Q.~.~.!.T.].`.J.J.%.%.$ $ g g g g ;.;.;.;.;.;.",
";.;.;.;.;.;.;.;.;.;.;.;.g g g g X . 2.2.I I H H }.}.W.W.p a #.%.}.}.^.^.T.H.R.~.Q.R.~.!.!.T.`.`.C.L.%.%.& $ g g g g ;.;.;.;.;.;.",
";.;.;.;.;.;.;.;.;.;.;.;.g g 1 1 5 3 B.B.o.o.* * 8.8.A.J.f s - - 0.0.K.Y._.~.T.T._._._._._._.T._.`.`.V.V.f s , , g g ;.;.;.;.;.;.",
";.;.;.;.;.;.;.;.;.;.;.g g g 1 1 3 3 B.B.o. .* * -.,.A.C.f j - - 0.0.P.K._.'.T.(._._._._.T.(.~.T.`.`.m.V.s p , , ;.;.;.;.;.;.;.;.",
";.;.;.;.;.;.;.;.;.;.;.g g g # # O.U ^.^.+.+.$ @ W W C.C.l l # = $.$.R.R.{.{.(.).'.).'.'.(._.T.(.].].^.~.&.&.% % ;.;.;.;.;.;.;.;.",
";.;.;.;.;.;.;.;.;.;.g g g g # # U U ^.^.+.+.# @ W W C.C.l l # # $.$.R.(.{.{.'.).(.'._.).(.(.(.(.].[.~.~.#.&.% % ;.;.;.;.;.;.;.;.",
";.;.;.;.;.;.;.;.;.;.g g g g : = 9.9.M.M.j j $ $ r.s././.t t = = h.f.j.k.z.z.I.z.).).).(.(.(.(.T.).'.Y.R.b.g.k k ;.;.;.;.;.;.;.;.",
";.;.;.;.;.;.;.;.;.g g g g g $ & 5.5.M.M.j j $ = s.t././.t 1 = = a.h.k.k.z.z.I.I.).).'.).(.(.(.(.(.(.Y.U.b.s.k k ;.;.;.;.;.;.;.;.",
";.;.;.;.;.;.;.;.;.g g g g g 3 3 4.4.4.4.q r 9 9 m.m././.s h r r l.l.:.:.! ! p.p.(.(.(.(.R.(.(.R.(.(.R.R.K.P.8.0.< w O O ;.;.;.;.",
";.;.;.;.;.;.;.;.;.g g g ;.;.3 3 4.4.4.4.r 0 9 9 B.m.^./.h h r r l.l.:.:.! ! p.p.(.(.(._.(.R.R.R.(.(.R.R.P.P.8.0.9 w O o ;.;.;.;.",
";.;.;.;.;.;.;.;.;.;.;.;.s t 1.1.a.a.F.D.m.m.V.V.Q.!.Q.Y.G.H.G.G.F.U.F.F.F.F.R.U.R.T.R._.F.K.U.U.(.(.R.R.~.~.c.c.j l ; ; ;.;.;.;.",
";.;.;.;.;.;.;.;.;.;.;.;.s s 1.1.a.a.D.D.V.V.V.V.!.!.Q.Q.G.G.G.G.U.U.F.F.F.F.R.U.R.Y.~.~.K.K.U.U.R.).R.R.Y.~.c.x.l h O ; ;.;.;.;.",
";.;.;.;.;.;.;.;.;.;.;.;.j j H.H.g.m.P.P.[.[.G.G.>.$.S.S.[.]._._._._._.`.~._.`.`.~.~.P.P.N.N.D.D.R.R.R.R.Y.~.L.G.z z > > ;.;.;.;.",
";.;.;.;.;.;.;.;.;.;.;.;.j l B.B.g.g.Y.P.[.[.L.G.>.$.S.S.].].(._._._._.~.`.`.`.`.^.~.P.Y.m.M.D.Z.R.Y.Y.R.~.~.L.C.z z > > ;.;.;.;.",
";.;.;.;.;.;.;.;.;.;.;.;.x +./.!.g.r.N.N.`./.f.f.>.>.U.U.'._.'.].].'._.].~.~.Q.Y.J.D.b.h.u.u.l.M.Q.Q.Y.~.~.Y.L.J.P z > > ;.;.;.;.",
";.;.;.;.;.;.;.;.;.;.;.;.x x /.!.r.r.Z.Z.`.`.f.f.>.>.K.U.'.].'.'.].].].].`.~.Y.Q.J.J.h.h.u.u.h.M.Y.Y.~.~.Y.Q.J.L.z  .> > ;.;.;.;.",
";.;.;.;.;.;.;.;.;.;.g g x x E.W.$.@.g.g.Y.Y.Y.R.`.`.U.U.U.U.).U.F.U.K.K.m.N.g.a.9.9.-.-.] ] i.i.J.A.Q.P.Z.J.s.s.j j ; ; ;.;.;.;.",
";.;.;.;.;.;.;.;.;.;.g g x x !.!.@.$.g.g.Y.Y.Y.U.`._.U.R.U.R.I.U.U.K.K.T.m.m.g.g.9.9.-.-.] -.y.w.Z.J.E.E.J.J.s.s.l j ; ; ;.;.;.;.",
";.;.;.;.;.;.;.;.;.g g g j h 3.3.p p -.8.Z.Z.D.D.D.D.h.h.7.7.{ { R R R R Z Z 7 7 8 8 Y Y Y Y E E t.r.b.b.q.q.,.,.w t o   ;.;.;.;.",
";.;.;.;.;.;.;.;.;.g g g h h 3.3.p p 8.8.J.Z.K.D.D.D.h.h.7.7.-.-.R G R R Z Z 7 7 8 8 Y Y Y Y E E r.t.b.b.q.q.*.=.w w o o ;.;.;.;.",
";.;.;.;.;.;.;.;.g g g g g g - - @ @ P  .r.r.n.n.n.i.-.y.^ ( S V ^ ^ _ ( F F 6.6.J.Z.R R N N u u 0 0 6 e 6 0 - - d d ;.;.;.;.;.;.",
";.;.;.g g g g g g g g g g g - - @ @ P  .r.r.n.n.n.n.h.y.( ( C S ^ ^ ( ( F F 6.6.Z.Z.E R N N u u 0 0 e e 6 6 * 5 d d ;.;.;.;.;.;.",
";.;.;.g g g g g g g g g g g g g g g * * H H i.i.i.y.E E V V ~ ~ | | | | ' ' j.j.U.I.{ [ G G y y w , ;.;.;.;.;.;.;.;.;.;.;.;.;.;.",
";.;.;.;.g g g g g g g g g g g g g g * * H K i.i.y.-.E E V V ~ ~ | | | | ' ' j.j.I.U.} { G G y y , , ;.;.;.;.;.;.;.;.;.;.;.;.;.;.",
";.;.;.;.;.;.g g g g g g g g g g g g g g e e ....X.X.c c B B / / } } ` ` } } ) ) _ _ [ [ Q Q q q ;.;.;.;.;.;.;.;.;.;.;.;.;.;.;.;.",
";.;.;.;.;.;.g g g g g g g g g g g g ;.;.e e ....X.X.c c B B / / } } ` ` } } ) ) _ _ [ [ Q Q q q g g g g g g g g g g g g ;.;.;.;.",
";.;.;.;.;.g g g g g g g g g g g g g ;.;.;.;.5 4 M M v v v v C C C S S S ~ S A D F D T T J J 6 6 g g g g g g g g g g g g ;.;.;.;.",
";.;.;.;.;.g g g g g g g g g g g g g ;.;.;.;.4 2 M M v v b v C C S C S S S S A S D D T T J J 6 6 g g g g g g g g g g ;.;.;.;.;.;.",
";.;.;.;.g g g g g g g ;.g g g g g g g ;.;.;.% $ K K M M n i i i n n m m m m m m u i 2 2 2 % g g g g g g g g g ;.;.;.;.;.;.;.;.;.",
";.;.;.;.g g g g g ;.;.;.;.g g g g g g ;.;.;.$ % K K M M n n i i n n m m m m m m u u 2 2 % 2 g g g g g g g ;.;.;.;.;.;.;.;.;.;.;.",
";.;.;.;.g g g ;.;.;.;.;.;.;.;.g g g g ;.;.;.;.;.5 5 4 4 5 5 % % & & % $ & & & & + @ g g g g g g g g ;.;.;.;.;.;.;.;.;.;.;.;.;.;.",
";.;.;.;.;.;.;.;.;.;.;.;.;.;.;.;.;.;.;.;.;.;.;.;.5 5 e 4 5 5 % % & & % & & & % % + @ g g g g g g g g ;.;.;.;.;.;.;.;.;.;.;.;.;.;.",
";.;.;.;.;.;.;.;.;.;.;.;.;.;.;.;.;.;.;.;.;.;.;.;.;.;.;.;.;.;.;.g g g g g g g g g g g g g g g g g g g g ;.;.;.;.;.;.;.;.;.;.;.;.;.",
";.;.;.;.;.;.;.;.;.;.;.;.;.;.;.;.;.;.;.;.;.;.;.;.;.;.;.;.;.;.g g g g g g g g g g g g g g g g g g g g g ;.;.;.;.;.;.;.;.;.;.;.;.;.",
";.;.;.;.;.;.;.;.;.;.;.;.;.;.;.;.;.;.;.;.;.;.;.;.;.;.;.;.;.;.g g g g g g g g g ;.;.g g g g g g g g g g g ;.;.;.;.;.;.;.;.;.;.;.;.",
";.;.;.;.;.;.;.;.;.;.;.;.;.;.;.;.;.;.;.;.;.;.;.;.;.;.;.;.;.g g g g g g g ;.;.;.;.;.;.;.g g g g g g g g g ;.;.;.;.;.;.;.;.;.;.;.;.",
";.;.;.;.;.;.;.;.;.;.;.;.;.;.;.;.;.;.;.;.;.;.;.;.;.;.;.;.g g g g g g ;.;.;.;.;.;.;.;.;.;.;.g g g g g g g g ;.;.;.;.;.;.;.;.;.;.;.",
";.;.;.;.;.;.;.;.;.;.;.;.;.;.;.;.;.;.;.;.;.;.;.;.;.;.;.;.g g g ;.;.;.;.;.;.;.;.;.;.;.;.;.;.;.;.g g g g g g ;.;.;.;.;.;.;.;.;.;.;.",
";.;.;.;.;.;.;.;.;.;.;.;.;.;.;.;.;.;.;.;.;.;.;.;.;.;.;.;.g g ;.;.;.;.;.;.;.;.;.;.;.;.;.;.;.;.;.;.;.g g g g ;.;.;.;.;.;.;.;.;.;.;.",
";.;.;.;.;.;.;.;.;.;.;.;.;.;.;.;.;.;.;.;.;.;.;.;.;.;.;.;.;.;.;.;.;.;.;.;.;.;.;.;.;.;.;.;.;.;.;.;.;.;.;.;.;.;.;.;.;.;.;.;.;.;.;.;.",
";.;.;.;.;.;.;.;.;.;.;.;.;.;.;.;.;.;.;.;.;.;.;.;.;.;.;.;.;.;.;.;.;.;.;.;.;.;.;.;.;.;.;.;.;.;.;.;.;.;.;.;.;.;.;.;.;.;.;.;.;.;.;.;.",
";.;.;.;.;.;.;.;.;.;.;.;.;.;.;.;.;.;.;.;.;.;.;.;.;.;.;.;.;.;.;.;.;.;.;.;.;.;.;.;.;.;.;.;.;.;.;.;.;.;.;.;.;.;.;.;.;.;.;.;.;.;.;.;.",
";.;.;.;.;.;.;.;.;.;.;.;.;.;.;.;.;.;.;.;.;.;.;.;.;.;.;.;.;.;.;.;.;.;.;.;.;.;.;.;.;.;.;.;.;.;.;.;.;.;.;.;.;.;.;.;.;.;.;.;.;.;.;.;.",
";.;.;.;.;.;.;.;.;.;.;.;.;.;.;.;.;.;.;.;.;.;.;.;.;.;.;.;.;.;.;.;.;.;.;.;.;.;.;.;.;.;.;.;.;.;.;.;.;.;.;.;.;.;.;.;.;.;.;.;.;.;.;.;."
};
