/* XPM */
static char *result[] = {
/* columns rows colors chars-per-pixel */
"64 64 187 2 ",
"   c #0C0000",
".  c #160002",
"X  c #1E0000",
"o  c #1C0009",
"O  c #170B0D",
"+  c #220004",
"@  c #23010B",
"#  c #2A000B",
"$  c #28060A",
"%  c #310007",
"&  c #3F0305",
"*  c #35030A",
"=  c #3C040D",
"-  c #270515",
";  c #320212",
":  c #3C0012",
">  c #340B15",
",  c #350E1B",
"<  c #390D1D",
"1  c #271113",
"2  c #341313",
"3  c #3C2829",
"4  c #43000D",
"5  c #4A000D",
"6  c #4D0015",
"7  c #47091B",
"8  c #450D1B",
"9  c #540318",
"0  c #5B041C",
"q  c #7A0017",
"w  c #560621",
"e  c #5B0122",
"r  c #540D24",
"t  c #451628",
"y  c #4E1E2E",
"u  c #55162E",
"i  c #591C34",
"p  c #5D1B3D",
"a  c #620124",
"s  c #680821",
"d  c #760225",
"f  c #62182F",
"g  c #6F1C37",
"h  c #48282B",
"j  c #4B2634",
"k  c #69263C",
"l  c #736122",
"z  c #5D1E46",
"x  c #542C43",
"c  c #5E2A45",
"v  c #4E3244",
"b  c #6F2449",
"n  c #71374A",
"m  c #840428",
"M  c #89022E",
"N  c #950A32",
"B  c #8C1A3A",
"V  c #941C3E",
"C  c #A2193E",
"Z  c #951A45",
"A  c #B20C42",
"S  c #A71C46",
"D  c #B3144B",
"F  c #B2194A",
"G  c #BC1950",
"H  c #8A3B53",
"J  c #943B56",
"K  c #993B57",
"L  c #A52553",
"P  c #B82656",
"I  c #A53350",
"U  c #BA315D",
"Y  c #AA3563",
"T  c #A73D7C",
"R  c #C00A41",
"E  c #C50D50",
"W  c #C81F5D",
"Q  c #C2235B",
"!  c #C8315B",
"~  c #D51D63",
"^  c #D51C6C",
"/  c #FC1D6F",
"(  c #F51E7B",
")  c #CC266A",
"_  c #D72461",
"`  c #C63461",
"'  c #E32365",
"]  c #F42073",
"[  c #9F425B",
"{  c #B6415D",
"}  c #884E67",
"|  c #8D5270",
" . c #BD4667",
".. c #B4446E",
"X. c #AB5D78",
"o. c #C6456B",
"O. c #C74C75",
"+. c #D74B7A",
"@. c #CE597C",
"#. c #E3547C",
"$. c #E6C03E",
"%. c #C53887",
"&. c #AA4881",
"*. c #BF4E8B",
"=. c #AB5788",
"-. c #B15F86",
";. c #BD598B",
":. c #A26388",
">. c #BB6887",
",. c #BF6F97",
"<. c #CA5C82",
"1. c #C05B8D",
"2. c #DE5A82",
"3. c #C14692",
"4. c #C96283",
"5. c #CA6C8D",
"6. c #DA678F",
"7. c #CA7898",
"8. c #DD799F",
"9. c #E7698D",
"0. c #E06F95",
"q. c #EE6D95",
"w. c #E96F9B",
"e. c #F76F94",
"r. c #E6739D",
"t. c #EA749D",
"y. c #F3759D",
"u. c #FA769A",
"i. c #CF5BA2",
"p. c #DE5BA7",
"a. c #DF62A7",
"s. c #C972A0",
"d. c #D972AD",
"f. c #E06BA0",
"g. c #EB73A1",
"h. c #EB77A7",
"j. c #F57DA3",
"k. c #F57EAE",
"l. c #FA79A8",
"z. c #C4829D",
"x. c #D490A9",
"c. c #CE82B5",
"v. c #DB8BB5",
"b. c #DF94BD",
"n. c #F581A8",
"m. c #E090AB",
"M. c #E588B3",
"N. c #FB82B3",
"B. c #F589B6",
"V. c #FA8BBC",
"C. c #E197B3",
"Z. c #E494BE",
"A. c #E996BB",
"S. c #F793BE",
"D. c #FB94BA",
"F. c #DE91C3",
"G. c #FF8DC4",
"H. c #FF8BCE",
"J. c #E59BC7",
"K. c #F495C2",
"L. c #FD94C4",
"P. c #FF9AC7",
"I. c #F594CC",
"U. c #FA95CA",
"Y. c #FE9BCC",
"T. c #F88DD4",
"R. c #F59FD3",
"E. c #FE9CD3",
"W. c #FE9DDB",
"Q. c #EDA0C9",
"!. c #F7A6C6",
"~. c #FDB3CE",
"^. c #FFA1D3",
"/. c #F5A8D5",
"(. c #FCA8D4",
"). c #FFA3DB",
"_. c #FEAADD",
"`. c #FF9DE3",
"'. c #FFA2E3",
"]. c #FEADE2",
"[. c #FFA3E9",
"{. c #FFACE9",
"}. c #FDB6E7",
"|. c #FBBFE4",
" X c #FFB3F7",
".X c #FFD5FF",
"XX c #FFE2FF",
/* pixels */
"$.$.$.$.$.$.$.$.$.$.$.$.$.$.$.$.$.$.$.$.$.$.$.$.$.$.$.$.$.$.$.$.$.$.$.$.$.$.$.$.$.$.$.$.$.$.$.$.$.$.$.$.$.$.$.$.$.$.$.$.$.$.$.$.",
"$.$.$.$.$.$.$.$.$.$.$.$.$.$.$.$.$.$.$.$.$.$.$.$.$.$.$.$.$.$.$.$.$.$.$.$.$.$.$.$.$.$.$.$.$.$.$.$.$.$.$.$.$.$.$.$.$.$.$.$.$.$.$.$.",
"$.$.$.$.$.$.$.$.$.$.$.$.$.$.$.$.$.$.$.$.$.$.$.$.$.$.$.$.$.$.$.$.$.$.$.$.$.$.$.$.$.$.$.$.$.$.$.$.$.$.$.$.$.$.$.$.$.$.$.$.$.$.$.$.",
"$.$.$.$.$.$.$.$.$.$.$.$.$.$.$.$.$.$.$.$.$.$.$.$.$.$.$.$.$.$.$.$.$.$.$.$.$.$.$.$.$.$.$.$.$.$.$.$.$.$.$.$.$.$.$.$.$.$.$.$.$.$.$.$.",
"$.$.$.$.$.$.$.$.$.$.$.$.$.$.$.$.$.$.$.$.$.$.$.$.$.$.$.$.$.$.$.$.$.$.$.$.$.$.$.$.$.$.$.$.$.$.$.$.$.$.$.$.$.$.$.$.$.$.$.$.$.$.$.$.",
"$.$.$.$.$.$.$.$.$.$.$.$.$.$.$.$.$.$.$.$.l l $.$.$.$.$.$.$.$.$.$.$.$.$.$.$.$.$.$.$.$.$.$.$.$.$.$.$.$.$.$.$.$.$.$.$.$.$.$.$.$.$.$.",
"$.$.$.$.$.$.$.$.$.$.$.$.$.$.$.$.$.$.$.$.l l $.$.$.$.$.$.$.$.$.$.$.$.$.$.$.$.$.$.$.$.$.$.$.$.$.$.$.$.$.$.$.$.$.$.$.$.$.$.$.$.$.$.",
"$.$.$.$.$.$.$.$.$.$.$.$.$.$.$.$.$.$.$.l l l l $.$.$.$.$.$.$.$.$.$.$.$.$.$.$.$.$.$.$.$.$.$.$.$.$.$.$.$.$.l l $.$.$.$.$.$.$.$.$.$.",
"$.$.$.$.$.$.$.$.$.$.$.$.$.$.$.$.$.$.$.l l l 3 3 , , j j v v v v x v x x y y , , $.$.$.$.$.$.$.$.$.$.$.l l l $.$.$.$.$.$.$.$.$.$.",
"$.$.$.$.$.$.$.$.$.$.$.$.$.$.$.$.$.$.l l l l 3 3 , , j j v v v j x x x x y y , , $.$.$.$.$.$.$.$.$.$.$.l l l $.$.$.$.$.$.$.$.$.$.",
"$.$.$.$.$.$.$.$.$.$.$.$.$.$.$.$.$.$.o o ; ; b b ,.,.Q.Q.|.|.|.|./.].R.Q.A.A.X.X.i i @ @     $.$.$.$.l l l l $.$.$.$.$.$.$.$.$.$.",
"$.$.$.$.$.$.$.$.$.$.$.$.$.$.$.$.$.l o o ; ; b b ,.,.Q.J.|.|.|..X|.}./.R.A.S.X.X.u i @ @     $.$.$.$.l l l l $.$.$.$.$.$.$.$.$.$.",
"$.$.$.$.$.$.$.$.$.$.$.$.$.$.$.$.1 @ y y 5.>.P.P.).).^.^.^.^._.~.].].^.).Y.Y.S.S.m.m.| } O o O O $.l l l l l l $.$.$.$.$.$.$.$.$.",
"$.$.$.$.$.$.$.$.$.$.$.$.$.$.$.$.@ - y y >.>.P.P.).).E.^.^.^._._.].].).).Y.E.S.K.v.M.} } o o O O l l l l l l l l l l l l l $.$.$.",
"$.$.$.$.$.$.$.$.$.$.$.$.$.$.$.$.< < x.x.V.S.....;.;.(._.V.N.Y Y ;.;.}.].).^.E.E.(.(.J.Z.| | o o l l l l l l l l l l l l l $.$.$.",
"$.$.$.$.$.$.l l l l l l l l l l < < x.x.D.D. ...1.1.(._.V.V.Y Y ;.;.{.].^.).^.^.(.(.A.Q.| | o o l l l l l l l l l l l l $.$.$.$.",
"$.$.$.$.$.$.l l l l l l l l l l } } ~.~.@.4.@.5.M.M.S.K.4.@.6.6.B.S.).(.W.^.W.R.).).(._.Z.Z.i p l l l l l l l l l l $.$.$.$.$.$.",
"$.$.$.$.$.$.$.l l l l l l l l l } } ~.~.4.4.@.@.M.M.K.K.<.<.6.9.K.S.)./.^.E.).W.).^._._.Z.Z.x p l l l l l l l l $.$.$.$.$.$.$.$.",
"$.$.$.$.$.$.$.$.$.l l l l l 8 < z.z.!.!.g g x.x.XXXXc.v.g g P.!..X.XR.I.'.'.W.`.R.E._.'.E.E.-.-.; - l l l l l l l $.$.$.$.$.$.$.",
"$.$.$.$.$.$.$.$.$.$.$.l l l < t z.z.!.C.g k C.C.XX.XM.v.g g !.!..X.XI.I.`.).`.`.R.E._._.Y.E.-.=.; - l l l l l l l $.$.$.$.$.$.$.",
"$.$.$.$.$.$.$.$.$.$.$.$.3 h n n !./.A.A.& * i u b.b.b.b.% % r r s.s.'.'.W.W.`.`.W.W.W.W.E.E.K.K.z i $.$.l l l l l l $.$.$.$.$.$.",
"$.$.$.$.$.$.$.$.$.$.$.$.3 3 n k ~.!.A.A.* * u u F.v.b.b.% % 7 r s.s.].].W.W.W.W.`.W.W.W.E.Y.K.B.i i $.$.$.$.l l l l $.$.$.$.$.$.",
"$.$.$.$.$.$.$.$.$.$.$.$.8 2 X.X..X}./.(.; ; y y v.F.F.F.# * % % ;.;. X X[.[.[.`.[.`.`.W.W.W.Y.P.H H 2 2 $.$.$.$.l l $.$.$.$.$.$.",
"$.$.$.$.$.$.$.$.$.$.$.l 8 8 X.X.}.|././.; * y t F.v.F.J.# # % % ;.;. X X[.[.[.[.[.`.`.W.W.W.P.Y.H H 2 2 $.$.$.$.$.$.$.$.$.$.$.$.",
"$.$.$.$.$.$.$.$.$.$.X + 6 6 d.m.)._.=.=.X + c c J.J.F.d.X + u u *.*.p.p.i.i.T.T.[.[.`.W.W.W.Y.Y.5.5.g k + + $.$.$.$.$.$.$.$.$.$.",
"$.$.$.$.$.$.$.$.$.$.X X 7 w r.d.).).=.&.+ X c c J.J.c.c.+ o u u *.*.p.p.i.i.T.T.[.[.`.`.W.W.Y.L.5.6.k k + + $.$.$.$.$.$.$.$.$.$.",
"$.$.$.$.$.$.$.$.$.$.7 r Z Z l.l.H.H.T T p p :.:.}./.F.F.z z =.:.p.a.%.%.3.*.T.T.[.{.'.W.E.W.U.U.P.P.s.s.k k + # $.$.$.$.$.$.$.$.",
"$.$.$.$.$.$.$.$.$.l w 7 Z Z k.l.H.H.T T z z :.:./.{.F.F.z c =.=.a.a.%.%.3.*.T.T.{.{.W.).W.E.U.U.P.P.s.7.c k @ @ $.$.$.$.$.$.$.$.",
"$.$.$.$.$.$.$.$.> > >.>.@.@.l.l.'.'.`.)._._./././.R.].).].}.).).`.`.`.`.[.[.`.T.).).).W.^.).W.E.W.E.E.E.8.7.k k o @ $.$.$.$.$.$.",
"$.$.$.$.$.$.$.$.> ; >.>.O.O.l.l.`.'.'.`._.]././.R.R.).].].].'.'.`.`.`.`.[.`.`.`.).).^.).).^.W.W.W.W.E.^.7.7.k k + @ $.$.$.$.$.$.",
"$.$.$.$.$.$.$.$.< < b.C.t.n.n.N.'._.'.).}.{.&.=.&.&.`.W./.`.'.'.`.`.`.W.'.'.W.W.U.E.G.U.L.L.).).R.W._._.S.D.J J # # $.$.$.$.$.$.",
"$.$.$.$.$.$.$.$.< < b.x.n.r.B.N.'.'.W.'.{.}.&.&.T &.`.`.`.`.'.'.`.`.`.`.'.'.).W.U.E.K.U.L.L._.).W.W._._.S.S.J H # # $.$.$.$.$.$.",
"$.$.$.$.$.$.$.$.3 3 ~.~.B.B.k.k.).W.'.'._.).d.d.d.d.W.W.'.W.`.`.`.`.W.'.).).R.R.L.L.V.V.h.k.L.H.R.E._._.P.P.[ [ < , $.$.$.$.$.$.",
"$.$.$.$.$.$.$.$.8 3 ~.~.n.N.k.k.).).].'.).).d.d.d.d.W.W.`.'.`.`.`.`.`.`.).'.^.W.U.U.V.S.h.k.L.L.E.R._._.P.P.[ K , > $.$.$.$.$.$.",
"$.$.$.$.$.$.$.$.2 2 z.z.t.0.j.j.G.G.E.T.E.E._.].{.{.'._.W.).W.).`.`.R.W.Y.E.G.V.k.k.k.k.h.g.k.N.D.P.P.P.n.n.J J # # $.$.$.$.$.$.",
"$.$.$.$.$.$.$.$.2 * @.z.0.n.y.u.H.G.E.E.E.Y._._.{.{.).).).W.W.W.`.T.T.W.E.U.G.V.B.B.k.k.g.g.N.N.P.D.P.^.j.j.J K # # $.$.$.$.$.$.",
"$.$.$.$.$.$.$.$.1 1 8 8 [ K 6.6.0.f.h.h.B.V.P.P.^.^.^.^.^.P.Y.Y.U.I.I.T.G.G.g.h.r.g.g.g.q.t.0.0.5.5.>.>.K J r r 1 1 $.$.$.$.$.$.",
"$.$.$.$.$.$.$.$.1 1 8 8 K [ 6.6.f.f.h.d.B.D.P.P.(.^.^.E.^.^.Y.Y.U.I.G.I.G.G.h.h.r.r.g.t.r.y.0.0.5.5.X.>.J K r r 1 1 $.$.$.$.$.$.",
"$.$.$.$.$.$.$.$.$.l X . % + f f ....<.2.u.u.n.n.y.n.g.g.h.t.t.t.h.f.h.g.g.g.g.w.t.y.0.q.@.@.[ [ 8 8 X o + @ . . $.$.$.$.$.$.$.$.",
"$.$.$.$.$.$.$.$.$.l . . + + f k ..Y +.3.n.u.u.n.n.n.t.g.t.t.t.t.f.h.g.g.g.g.f.w.t.y.r.r.@.@.[ [ 8 8 X $ $ @ . . $.$.$.$.$.$.$.$.",
"$.$.$.$.$.$.$.$.l l l l l l l $.d d U U S S m m N M U ` 6.2.q.q.j.l.q.q.y.t.n.n.u.n.o.o.m m 9 5 X X $.$.$.$.$.$.$.$.$.$.$.$.$.$.",
"$.$.$.l l l l l l l l l l l l l a d U U S Z m m N N o.U 2.2.q.q.u.y.q.q.y.y.n.n.n.y.O.o.m m 9 9 X X $.$.$.$.$.$.$.$.$.$.$.$.$.$.",
"$.$.$.l l l l l l l l l l l l l d d G F M M ` o.+.+.S F P P #.#.e.e.e.e.9.9. . .I I B V M M s s # @ $.$.$.$.$.$.$.$.$.$.$.$.$.$.",
"$.$.$.$.l l l l l l l l l l l l d m F F M N ` o.+.2.S F P P #.#.e.e.e.e.9.9. .o.I I V V M M s s + @ $.$.$.$.$.$.$.$.$.$.$.$.$.$.",
"$.$.$.$.$.$.l l l l l l $ 1 w w P G E E ) ) [.[.`.W.Q W A A ! ! o.o.{ { o.o.M M q q N N E F L L 4 : $.$.$.$.$.$.$.$.$.$.$.$.$.$.",
"$.$.$.$.$.$.l l l l l l $ 1 w w P G E E ) ) `.[.W.`.W W A A ! ! o.o.{ { O.o.m m q q N N F G L L : = l l l l l l l l l l $.$.$.$.",
"$.$.$.$.$.l l l l l l l h h e e ) _ / / ( ( %.( / ( ] ( ' ' ! ` s 0 5 & B B D D _ _ ' ' R R C C * = l l l l l l l l l l $.$.$.$.",
"$.$.$.$.$.l l l l l l l h h e e _ _ / / ( ( ( ( ( ( ] / ' ' ! ! 0 0 4 & B B A F _ _ ' ' R R C C = = l l l l l l l l $.$.$.$.$.$.",
"$.$.$.$.l l l l l l l $.2 2 r 9 ` ) ~ ~ ^ ^ ^ ^ ^ ^ ) ~ Q Q V V 4 = + + 5 5 S Z P ) G G F F B B % * l l l l l $.$.$.$.$.$.$.$.$.",
"$.$.$.$.l l l l l $.$.$.2 2 w w ` ` ~ ~ ^ ^ ^ ^ ^ ^ ) ~ Q Q V V = = + + 5 5 Z Z Q P G G F S B B % % l l l $.$.$.$.$.$.$.$.$.$.$.",
"$.$.$.$.l l l $.$.$.$.$.$.$.j j 9 w a s e e e e e e 9 9 4 4 * * h h l l l l 4 : 6 6 5 5 5 7 ; = l l $.$.$.$.$.$.$.$.$.$.$.$.$.$.",
"$.$.$.$.$.$.$.$.$.$.$.$.$.$.j j w w a r e e e e 0 e 0 e 4 4 = * h h l l l l : : 6 6 5 5 6 6 ; ; l l $.$.$.$.$.$.$.$.$.$.$.$.$.$.",
"$.$.$.$.$.$.$.$.$.$.$.$.$.$.$.$.$.$.$.$.$.$.$.$.$.$.$.$.$.$.$.l l l l l l l l l l l l l l l l l l l l $.$.$.$.$.$.$.$.$.$.$.$.$.",
"$.$.$.$.$.$.$.$.$.$.$.$.$.$.$.$.$.$.$.$.$.$.$.$.$.$.$.$.$.$.l l l l l l l l l l l l l l l l l l l l l $.$.$.$.$.$.$.$.$.$.$.$.$.",
"$.$.$.$.$.$.$.$.$.$.$.$.$.$.$.$.$.$.$.$.$.$.$.$.$.$.$.$.$.$.l l l l l l l l l $.$.l l l l l l l l l l l $.$.$.$.$.$.$.$.$.$.$.$.",
"$.$.$.$.$.$.$.$.$.$.$.$.$.$.$.$.$.$.$.$.$.$.$.$.$.$.$.$.$.l l l l l l l $.$.$.$.$.$.$.l l l l l l l l l $.$.$.$.$.$.$.$.$.$.$.$.",
"$.$.$.$.$.$.$.$.$.$.$.$.$.$.$.$.$.$.$.$.$.$.$.$.$.$.$.$.l l l l l l $.$.$.$.$.$.$.$.$.$.$.l l l l l l l l $.$.$.$.$.$.$.$.$.$.$.",
"$.$.$.$.$.$.$.$.$.$.$.$.$.$.$.$.$.$.$.$.$.$.$.$.$.$.$.$.l l l $.$.$.$.$.$.$.$.$.$.$.$.$.$.$.$.l l l l l l $.$.$.$.$.$.$.$.$.$.$.",
"$.$.$.$.$.$.$.$.$.$.$.$.$.$.$.$.$.$.$.$.$.$.$.$.$.$.$.$.l l $.$.$.$.$.$.$.$.$.$.$.$.$.$.$.$.$.$.$.l l l l $.$.$.$.$.$.$.$.$.$.$.",
"$.$.$.$.$.$.$.$.$.$.$.$.$.$.$.$.$.$.$.$.$.$.$.$.$.$.$.$.$.$.$.$.$.$.$.$.$.$.$.$.$.$.$.$.$.$.$.$.$.$.$.$.$.$.$.$.$.$.$.$.$.$.$.$.",
"$.$.$.$.$.$.$.$.$.$.$.$.$.$.$.$.$.$.$.$.$.$.$.$.$.$.$.$.$.$.$.$.$.$.$.$.$.$.$.$.$.$.$.$.$.$.$.$.$.$.$.$.$.$.$.$.$.$.$.$.$.$.$.$.",
"$.$.$.$.$.$.$.$.$.$.$.$.$.$.$.$.$.$.$.$.$.$.$.$.$.$.$.$.$.$.$.$.$.$.$.$.$.$.$.$.$.$.$.$.$.$.$.$.$.$.$.$.$.$.$.$.$.$.$.$.$.$.$.$.",
"$.$.$.$.$.$.$.$.$.$.$.$.$.$.$.$.$.$.$.$.$.$.$.$.$.$.$.$.$.$.$.$.$.$.$.$.$.$.$.$.$.$.$.$.$.$.$.$.$.$.$.$.$.$.$.$.$.$.$.$.$.$.$.$.",
"$.$.$.$.$.$.$.$.$.$.$.$.$.$.$.$.$.$.$.$.$.$.$.$.$.$.$.$.$.$.$.$.$.$.$.$.$.$.$.$.$.$.$.$.$.$.$.$.$.$.$.$.$.$.$.$.$.$.$.$.$.$.$.$."
};
