/* XPM */
static char *result[] = {
/* columns rows colors chars-per-pixel */
"64 64 187 2 ",
"   c #130202",
".  c #1D0000",
"X  c #1D0B0B",
"o  c #2B0002",
"O  c #270008",
"+  c #2B000B",
"@  c #250B0B",
"#  c #290809",
"$  c #360006",
"%  c #33010D",
"&  c #3A050A",
"*  c #2C0311",
"=  c #340313",
"-  c #3C0A16",
";  c #310019",
":  c #3E0018",
">  c #371417",
",  c #3B0921",
"<  c #3A2B2B",
"1  c #450317",
"2  c #460917",
"3  c #55021B",
"4  c #5B011C",
"5  c #5B0819",
"6  c #4C111C",
"7  c #620E18",
"8  c #7D0014",
"9  c #4D0A20",
"0  c #5D0020",
"q  c #5F0C26",
"w  c #491C24",
"e  c #471829",
"r  c #551B23",
"t  c #5C1E33",
"y  c #600924",
"u  c #6F092A",
"i  c #700B2D",
"p  c #6F1932",
"a  c #751D36",
"s  c #522232",
"d  c #65272E",
"f  c #6A2639",
"g  c #7E223F",
"h  c #736122",
"j  c #5D2A42",
"k  c #6E2E4F",
"l  c #7D2943",
"z  c #65314C",
"x  c #733449",
"c  c #850020",
"v  c #930024",
"b  c #840630",
"n  c #96093A",
"m  c #8F163C",
"M  c #821A3B",
"N  c #98143E",
"B  c #A50034",
"V  c #981F46",
"C  c #B80845",
"Z  c #A41D48",
"A  c #B2164D",
"S  c #B51A4B",
"D  c #832743",
"F  c #8E294C",
"G  c #9C244B",
"H  c #923753",
"J  c #AB2948",
"K  c #AD2A56",
"L  c #B52656",
"P  c #A13B50",
"I  c #B73559",
"U  c #B32F67",
"Y  c #B73D7B",
"T  c #CE0C54",
"R  c #C71E5B",
"E  c #D41859",
"W  c #C02053",
"Q  c #D1205E",
"!  c #D71A64",
"~  c #F51D6B",
"^  c #F71E73",
"/  c #FC1C74",
"(  c #C92861",
")  c #D32263",
"_  c #CD3D69",
"`  c #D2326D",
"'  c #C22D78",
"]  c #E72D6E",
"[  c #EC2871",
"{  c #F62876",
"}  c #8A415F",
"|  c #A2475D",
" . c #854264",
".. c #A54E69",
"X. c #B14B67",
"o. c #A15868",
"O. c #B8586E",
"+. c #A84E77",
"@. c #BB5C7F",
"#. c #B8627D",
"$. c #C7416E",
"%. c #C24B71",
"&. c #D54575",
"*. c #DF557C",
"=. c #E64076",
"-. c #E6C03E",
";. c #B85687",
":. c #B5718E",
">. c #D64D87",
",. c #CD5D80",
"<. c #DE5485",
"1. c #C45C94",
"2. c #FF4C8F",
"3. c #E55485",
"4. c #E95F92",
"5. c #CC6483",
"6. c #CB6A8E",
"7. c #D66C8E",
"8. c #CD7986",
"9. c #C86A98",
"0. c #DB6F93",
"q. c #CC789A",
"w. c #D2779E",
"e. c #E9628A",
"r. c #E36292",
"t. c #E96C95",
"y. c #F16192",
"u. c #F46D93",
"i. c #EF7099",
"p. c #E9769C",
"a. c #CA68A0",
"s. c #D36FA3",
"d. c #D676A7",
"f. c #E66DA5",
"g. c #EC6BAC",
"h. c #EE76AE",
"j. c #F779A5",
"k. c #FA78A5",
"l. c #FF7EAF",
"z. c #E876B1",
"x. c #F077B0",
"c. c #F67CB5",
"v. c #FB7FB3",
"b. c #F37CB9",
"n. c #FF79BF",
"m. c #D9849A",
"M. c #D888A7",
"N. c #DF86B1",
"B. c #D694B5",
"V. c #D696BC",
"C. c #E384AA",
"Z. c #E58AAB",
"A. c #FF82AC",
"S. c #F08DAF",
"D. c #E593A3",
"F. c #FB83B3",
"G. c #FC8AB4",
"H. c #F582B9",
"J. c #FE8BB9",
"K. c #E891BA",
"L. c #F594BD",
"P. c #FA94BD",
"I. c #FD88C3",
"U. c #FF8CCC",
"Y. c #EB93C3",
"T. c #FF95C3",
"R. c #F39DC6",
"E. c #FC9CC4",
"W. c #FF93CB",
"Q. c #F59ACB",
"!. c #FF9BCD",
"~. c #FF96D7",
"^. c #F49FD5",
"/. c #FF9CD4",
"(. c #FE9EDC",
"). c #E9A2CF",
"_. c #F9A1CC",
"`. c #FEA2D3",
"'. c #FEA3DD",
"]. c #FBA8D8",
"[. c #FFB1DE",
"{. c #FFA3E1",
"}. c #FFAAE1",
"|. c #FEB3E5",
" X c #FFB6EA",
".X c #FFC7FA",
"XX c #FFDDFC",
/* pixels */
"-.-.-.-.-.-.-.-.-.-.-.-.-.-.-.-.-.-.-.-.-.-.-.-.-.-.-.-.-.-.-.-.-.-.-.-.-.-.-.-.-.-.-.-.-.-.-.-.-.-.-.-.-.-.-.-.-.-.-.-.-.-.-.-.",
"-.-.-.-.-.-.-.-.-.-.-.-.-.-.-.-.-.-.-.-.-.-.-.-.-.-.-.-.-.-.-.-.-.-.-.-.-.-.-.-.-.-.-.-.-.-.-.-.-.-.-.-.-.-.-.-.-.-.-.-.-.-.-.-.",
"-.-.-.-.-.-.-.-.-.-.-.-.-.-.-.-.-.-.-.-.-.-.-.-.-.-.-.-.-.-.-.-.-.-.-.-.-.-.-.-.-.-.-.-.-.-.-.-.-.-.-.-.-.-.-.-.-.-.-.-.-.-.-.-.",
"-.-.-.-.-.-.-.-.-.-.-.-.-.-.-.-.-.-.-.-.-.-.-.-.-.-.-.-.-.-.-.-.-.-.-.-.-.-.-.-.-.-.-.-.-.-.-.-.-.-.-.-.-.-.-.-.-.-.-.-.-.-.-.-.",
"-.-.-.-.-.-.-.-.-.-.-.-.-.-.-.-.-.-.-.-.-.-.-.-.-.-.-.-.-.-.-.-.-.-.-.-.-.-.-.-.-.-.-.-.-.-.-.-.-.-.-.-.-.-.-.-.-.-.-.-.-.-.-.-.",
"-.-.-.-.-.-.-.-.-.-.-.-.-.-.-.-.-.-.-.-.h h -.-.-.-.-.-.-.-.-.-.-.-.-.-.-.-.-.-.-.-.-.-.-.-.-.-.-.-.-.-.-.-.-.-.-.-.-.-.-.-.-.-.",
"-.-.-.-.-.-.-.-.-.-.-.-.-.-.-.-.-.-.-.-.h h -.-.-.-.-.-.-.-.-.-.-.-.-.-.-.-.-.-.-.-.-.-.-.-.-.-.-.-.-.-.-.-.-.-.-.-.-.-.-.-.-.-.",
"-.-.-.-.-.-.-.-.-.-.-.-.-.-.-.-.-.-.-.h h h h -.-.-.-.-.-.-.-.-.-.-.-.-.-.-.-.-.-.-.-.-.-.-.-.-.-.-.-.-.h h -.-.-.-.-.-.-.-.-.-.",
"-.-.-.-.-.-.-.-.-.-.-.-.-.-.-.-.-.-.-.h h h h -.-.-.-.-.-.-.-.-.-.-.-.-.-.-.-.-.-.-.-.-.-.-.-.-.-.-.-.h h h -.-.-.-.-.-.-.-.-.-.",
"-.-.-.-.-.-.-.-.-.-.-.-.-.-.-.-.-.-.h h h h h h -.-.-.-.-.-.-.-.-.-.-.-.-.-.-.-.-.-.-.-.-.-.-.-.-.-.-.h h h -.-.-.-.-.-.-.-.-.-.",
"-.-.-.-.-.-.-.-.-.-.-.-.-.-.-.-.-.-.h h h h h h -.-.. . * * ; ; * * * * * * * O O * > > -.-.-.-.-.-.h h h h -.-.-.-.-.-.-.-.-.-.",
"-.-.-.-.-.-.-.-.-.-.-.-.-.-.-.-.-.h h h h h h h -.-.. O + * ; X * * * * * * O * * X > > -.-.-.-.-.-.h h h h -.-.-.-.-.-.-.-.-.-.",
"-.-.-.-.-.-.-.-.-.-.-.-.-.-.-.-.-.h h h h h @ @ > > x x :.8.M.M.B.B.V.B.V.V.:.:. .} t t @ > X X -.h h h h h h -.-.-.-.-.-.-.-.-.",
"-.-.-.-.-.-.-.-.-.-.-.-.-.-.-.-.h h h h h h @ @ > 2 x x :.:.M.M.B.B.B.B.B.B.:.:.} } t p > @ X X h h h h h h h h h h h h h -.-.-.",
"-.-.-.-.-.-.-.-.-.-.-.-.-.-.-.-.h h h h 1 1 ....w.m.K.K._._.|.|.}.|.}.'.|.}._.^.Y.Y.q.w.F F p p w w h h h h h h h h h h h -.-.-.",
"-.-.-.-.-.-.h h h h h h h h h h h h h h 1 3 ....m.w.K.K._._.|.|.|.|.}.}.[.[.^.^.Y.Y.9.w.F F p p w w h h h h h h h h h h -.-.-.-.",
"-.-.-.-.-.-.h h h h h h h h h h h h 2 : | | 5.5.h.C.[.[.P.P.,.;.a.a.{.{.{.(.(.(.{.}././.h.S.7.7.l l , > h h h h h h -.-.-.-.-.-.",
"-.-.-.-.-.-.-.h h h h h h h h h h h 2 2 | | 5.5.C.C.[.[.P.P.;.;.a.a.{.{.(.(.(.{.{.}././.S.x.7.6.l l > 6 h h h h -.-.-.-.-.-.-.-.",
"-.-.-.-.-.-.-.-.-.h h h h h h h + + o.o.#.O.P P %.:.E.E.O.O.H H 9.9.{.{.{.{.(.{.(.(.!.`.!._.L.J.0.0.a a     h h h -.-.-.-.-.-.-.",
"-.-.-.-.-.-.-.-.-.-.-.h h h h h % + o.o.O.O.P P #.#.E.P.O.X.H H 9.9.{.(.(.{.(.(.(.(././.`.`.P.L.0.0.a a     h h h -.-.-.-.-.-.-.",
"-.-.-.-.-.-.-.-.-.-.-.-.-.h h h 6 6 m.m.7 7 m.*.XXXXZ.Z.5 5 D.D.XXXXQ.Y.(.'.{.(.(.'.`.`._.].`.`.F.F.F F # # h h h h -.-.-.-.-.-.",
"-.-.-.-.-.-.-.-.-.-.-.-.h h h h 6 6 m.m.7 7 8.8.XXXXZ.Z.5 5 D.D.XXXXQ.Q.{.'.(.{.(.(.`.'.]._.].].F.F.F G # @ h h h h -.-.-.-.-.-.",
"-.-.-.-.-.-.-.-.-.-.-.-.h h e , ..+.E.E.6 6 r r m.C.S.S.& $ d d C.C.`.`.{.}.{.(.^.(.(.^.].^.`.'.U.W.+.+.- - < < h h -.-.-.-.-.-.",
"-.-.-.-.-.-.-.-.-.-.-.h h h < e +.+.E.E.6 w r r p.m.S.S.$ 1 d d M.M.`.`.{.{.^.'.(.(.'./.].].`.`.W.W.+.+.- - < < -.-.-.-.-.-.-.-.",
"-.-.-.-.-.-.-.-.-.-.-.h h h , , d.d. X|.6 e + % 6.6.L.L.& & 2 2 7.6.|.[.'.'.(.(.(.(.{.(.{.{.'./.(.(.w.w.t t . . -.-.-.-.-.-.-.-.",
"-.-.-.-.-.-.-.-.-.-.h h h h , , d.d.|.|.e e % % 6.6.P.L.$ $ 2 2 7.6.}.'.'.'.(.(.(.~.{.{.(.{.`.^.`.(.d.d.t t     -.-.-.-.-.-.-.-.",
"-.-.-.-.-.-.-.-.-.-.h h h h j j z.z.b.b.= % e s K.K._._.. O z z h.x.n.n.U.U.~.~.(.{.(.{.(.(././.'.{.).Q.H } = - -.-.-.-.-.-.-.-.",
"-.-.-.-.-.-.-.-.-.h h h h h j j z.h.b.b.; * s e K.K.R.R.O O p z h.h.n.n.I.U.~./.{.{.{.{.(.'././.'.'.Q.Q.} } = = -.-.-.-.-.-.-.-.",
"-.-.-.-.-.-.-.-.-.h h h h h z z H.H.Y Y : : k k _.].Y.Y.; ;  . .g.g.' ' g.g.U.U.{.{.{.(.~./.W.U.(./.`._.q.q.% % -.-.-.-.-.-.-.-.",
"-.-.-.-.-.-.-.-.-.h h h -.-.z z H.z.Y Y : : k k `.`.Y.Y.; ;  .k g.g.' ' g.g.~.U.{.{.{.(.W./.W.W./.(.`./.q.q.+ = -.-.-.-.-.-.-.-.",
"-.-.-.-.-.-.-.-.-.-.-.-.-.-.j s K.L.W.!.N.N._._.{.}.(.^.V.V.).).n.g.1.>.I.n.~.~./.(.(.`.!./.c.c.H.F.!.!.q.q.= % -.-.-.-.-.-.-.-.",
"-.-.-.-.-.-.-.-.-.-.-.-.-.-.j z Y.L.W.W.N.N._._.}.{.(.(.V.V.).).x.b.>.>.n.n.~.~././.`././.!.b.b.J.H.!.E.q.q.% = -.-.-.-.-.-.-.-.",
"-.-.-.-.-.-.-.-.-.-.-.-.-.-.s s Z.C.!.!.|.|.s.s.1.1.|.}.|.|. X Xz.g.U U x.x.U.U./.!.!.!.E.E.r.r.r.r.F.H.#.#.> - -.-.-.-.-.-.-.-.",
"-.-.-.-.-.-.-.-.-.-.-.-.-.-.s s C.C.!.!. X|.s.s.1.;.{.{.|.|. X Xh.h.U U b.n.~.U.!.!./.!.E.T.7.e.r.r.F.F.#.#.- = -.-.-.-.-.-.-.-.",
"-.-.-.-.-.-.-.-.-.-.-.-.-.-.w w @.5.A.A.`._.1.9.;.;.{.{.^.).'.}.f.f.U L 4.4.l.l.J.J.G.G.A.A.&.%.7.<.j.p.| | o o -.-.-.-.-.-.-.-.",
"-.-.-.-.-.-.-.-.-.-.-.-.-.-.w 6 5.*.l.l.`.`.1.6.;.;.{.{.^.^.}.}.f.f.K U 4.4.l.l.J.P.G.G.A.A.&.*.3.<.p.j.| | o # -.-.-.-.-.-.-.-.",
"-.-.-.-.-.-.-.-.-.-.h h h -.- & ..X.p.i.F.H._._.{.].].]././.}.}.c.F.&.>._ _ 4.3.p.t.0.t.u.u.*.*.e.e.*.8.f f > > -.-.-.-.-.-.-.-.",
"-.-.-.-.-.-.-.-.-.-.h h h -.# - X.X.i.i.F.F.`.`.{.}.`.(.^.`.}.'.v.H.>.*._ _ e.e.t.t.t.t.u.u.*.*.e.e.7.7.f a > > -.-.-.-.-.-.-.-.",
"-.-.-.-.-.-.-.-.-.h h h h h O O D D *.5.0.p.G.G.P.E.H.P.I.I.T.W.J.J.e.u.J I J J J J I I *.*.u.u.p.j.H } # # -.-.-.-.-.-.-.-.-.-.",
"-.-.-.-.-.-.-.-.-.h h h h h O O D x *.@.p.p.G.A.E.P.J.J.T.T.T.T.J.J.t.u.W W S J J J P I *.*.u.u.C.p.H H # @ -.-.-.-.-.-.-.-.-.-.",
"-.-.-.-.-.-.-.-.h h h h h h h -.- & g g %.%.k.k.F.A.k.k.F.v.F.n.k.k.3.3.S S v v 8 8 c c Z Z N N G G q q X X -.-.-.-.-.-.-.-.-.-.",
"-.-.-.h h h h h h h h h h h h h & & g g %.%.i.k.F.F.k.k.l.v.F.n.k.k.3.3.S S v v 8 8 c c Z Z N N G V q q X X -.-.-.-.-.-.-.-.-.-.",
"-.-.-.h h h h h h h h h h h h h h h 2 2 U I ] =.&.&.y.y.<.<.` _ ` ` R R Q Q S T B B L L k.k.J G b b 7 y @ @ -.-.-.-.-.-.-.-.-.-.",
"-.-.-.-.h h h h h h h h h h h h h h 2 2 ( _ =.=.` &.y.y.<.<.&.&.` ` R R Q ) C S B B S L k.j.G G b b 5 y @ @ -.-.-.-.-.-.-.-.-.-.",
"-.-.-.-.-.-.h h h h h h h h h h h h O o K K W W n n ` $.Z V n n C C T T [ [ { { ! ! 2.2..X.Xr.e.K K i i . . -.-.-.-.-.-.-.-.-.-.",
"-.-.-.-.-.-.h h h h h h h h h h h h o o K K W W n n _ $.Z Z n n C C T T [ [ { { E ! 2.2..X.Xe.4.K K i i . . h h h h h h -.-.-.-.",
"-.-.-.-.-.h h h h h h h h h h h h h . . M M N G M M D D u u m n T E ~ ~ ^ ^ ^ ^ / / / / ] ] A S V V q q     h h h h h h -.-.-.-.",
"-.-.-.-.-.h h h h h h h h h h h h h . o M a V V m a m D u u n m E E ~ ~ [ ^ ^ ^ / / / / ] ] A A G G q q     h h h h -.-.-.-.-.-.",
"-.-.-.-.h h h h h h h -.h h h h h h h -.> - 1 1 $ $ $ $ $ $ u u ( I ) ) ) R ) ) ! ! ! ) A A m m 4 4 w w h h h -.-.-.-.-.-.-.-.-.",
"-.-.-.-.h h h h h -.-.-.-.h h h h h h -.> 2 $ 1 $ $ $ $ $ & u u ( ( ) ) ( ) ) ( ! ! ) ) A A m m 4 4 w 6 h -.-.-.-.-.-.-.-.-.-.-.",
"-.-.-.-.h h h -.-.-.-.-.-.-.-.h h h h -.-.-.-.-.-.-.-.-.-.-.w w 6 3 3 3 0 0 0 0 0 0 0 0 1 1 & = h h -.-.-.-.-.-.-.-.-.-.-.-.-.-.",
"-.-.-.-.-.-.-.-.-.-.-.-.-.-.-.-.-.-.-.-.-.-.-.-.-.-.-.-.-.-.w w 3 3 3 0 0 9 0 0 0 0 0 0 3 1 = = h h -.-.-.-.-.-.-.-.-.-.-.-.-.-.",
"-.-.-.-.-.-.-.-.-.-.-.-.-.-.-.-.-.-.-.-.-.-.-.-.-.-.-.-.-.-.-.h h h h h h h h h h h h h h h h h h h h -.-.-.-.-.-.-.-.-.-.-.-.-.",
"-.-.-.-.-.-.-.-.-.-.-.-.-.-.-.-.-.-.-.-.-.-.-.-.-.-.-.-.-.-.h h h h h h h h h h h h h h h h h h h h h -.-.-.-.-.-.-.-.-.-.-.-.-.",
"-.-.-.-.-.-.-.-.-.-.-.-.-.-.-.-.-.-.-.-.-.-.-.-.-.-.-.-.-.-.h h h h h h h h h -.-.h h h h h h h h h h h -.-.-.-.-.-.-.-.-.-.-.-.",
"-.-.-.-.-.-.-.-.-.-.-.-.-.-.-.-.-.-.-.-.-.-.-.-.-.-.-.-.-.h h h h h h h -.-.-.-.-.-.-.h h h h h h h h h -.-.-.-.-.-.-.-.-.-.-.-.",
"-.-.-.-.-.-.-.-.-.-.-.-.-.-.-.-.-.-.-.-.-.-.-.-.-.-.-.-.h h h h h h -.-.-.-.-.-.-.-.-.-.-.h h h h h h h h -.-.-.-.-.-.-.-.-.-.-.",
"-.-.-.-.-.-.-.-.-.-.-.-.-.-.-.-.-.-.-.-.-.-.-.-.-.-.-.-.h h h -.-.-.-.-.-.-.-.-.-.-.-.-.-.-.-.h h h h h h -.-.-.-.-.-.-.-.-.-.-.",
"-.-.-.-.-.-.-.-.-.-.-.-.-.-.-.-.-.-.-.-.-.-.-.-.-.-.-.-.h h -.-.-.-.-.-.-.-.-.-.-.-.-.-.-.-.-.-.-.h h h h -.-.-.-.-.-.-.-.-.-.-.",
"-.-.-.-.-.-.-.-.-.-.-.-.-.-.-.-.-.-.-.-.-.-.-.-.-.-.-.-.-.-.-.-.-.-.-.-.-.-.-.-.-.-.-.-.-.-.-.-.-.-.-.-.-.-.-.-.-.-.-.-.-.-.-.-.",
"-.-.-.-.-.-.-.-.-.-.-.-.-.-.-.-.-.-.-.-.-.-.-.-.-.-.-.-.-.-.-.-.-.-.-.-.-.-.-.-.-.-.-.-.-.-.-.-.-.-.-.-.-.-.-.-.-.-.-.-.-.-.-.-.",
"-.-.-.-.-.-.-.-.-.-.-.-.-.-.-.-.-.-.-.-.-.-.-.-.-.-.-.-.-.-.-.-.-.-.-.-.-.-.-.-.-.-.-.-.-.-.-.-.-.-.-.-.-.-.-.-.-.-.-.-.-.-.-.-.",
"-.-.-.-.-.-.-.-.-.-.-.-.-.-.-.-.-.-.-.-.-.-.-.-.-.-.-.-.-.-.-.-.-.-.-.-.-.-.-.-.-.-.-.-.-.-.-.-.-.-.-.-.-.-.-.-.-.-.-.-.-.-.-.-.",
"-.-.-.-.-.-.-.-.-.-.-.-.-.-.-.-.-.-.-.-.-.-.-.-.-.-.-.-.-.-.-.-.-.-.-.-.-.-.-.-.-.-.-.-.-.-.-.-.-.-.-.-.-.-.-.-.-.-.-.-.-.-.-.-."
};
