/* XPM */
static char *result[] = {
/* columns rows colors chars-per-pixel */
"64 64 196 2 ",
"   c #0F0000",
".  c #150202",
"X  c #1C0304",
"o  c #1F0D0D",
"O  c #240004",
"+  c #2C0002",
"@  c #2C000C",
"#  c #29070D",
"$  c #34000C",
"%  c #3B000B",
"&  c #33080E",
"*  c #380714",
"=  c #2A1213",
"-  c #2B1C1D",
";  c #3D111C",
":  c #271C22",
">  c #291C20",
",  c #2F2023",
"<  c #352525",
"1  c #3C2929",
"2  c #46000B",
"3  c #430116",
"4  c #490319",
"5  c #4C051B",
"6  c #54001B",
"7  c #5B031A",
"8  c #52101F",
"9  c #63011C",
"0  c #5A0624",
"q  c #421921",
"w  c #581228",
"e  c #501830",
"r  c #640022",
"t  c #6C0D26",
"y  c #770827",
"u  c #75122E",
"i  c #7C1437",
"p  c #751A3A",
"a  c #412929",
"s  c #5D293D",
"d  c #453A3A",
"f  c #6F2130",
"g  c #6D263B",
"h  c #6D2B3F",
"j  c #736122",
"k  c #6D2D4A",
"l  c #752B42",
"z  c #6C3E50",
"x  c #764A5B",
"c  c #810523",
"v  c #8E0024",
"b  c #91072A",
"n  c #9E0331",
"m  c #9F063A",
"M  c #81143B",
"N  c #98143A",
"B  c #AC023C",
"V  c #AE0D3D",
"C  c #BC023C",
"Z  c #B60A3F",
"A  c #A1173B",
"S  c #9D1E44",
"D  c #951156",
"F  c #BD0D45",
"G  c #B60B4B",
"H  c #AC1B43",
"J  c #A81A4C",
"K  c #B21D4B",
"L  c #AC1753",
"P  c #BD1D53",
"I  c #982841",
"U  c #8D304D",
"Y  c #9F2653",
"T  c #873B58",
"R  c #983554",
"E  c #B0294B",
"W  c #AB2B54",
"Q  c #B62456",
"!  c #BC255C",
"~  c #AD345D",
"^  c #BB3C57",
"/  c #813E60",
"(  c #A53967",
")  c #BB3D6E",
"_  c #C9094C",
"`  c #D1034A",
"'  c #C6134D",
"]  c #C10852",
"[  c #C11D56",
"{  c #D51355",
"}  c #C3255B",
"|  c #C41C62",
" . c #D41460",
".. c #EA0D63",
"X. c #EC1F64",
"o. c #EF1C75",
"O. c #F31575",
"+. c #FC1E7D",
"@. c #CE2A69",
"#. c #D32A63",
"$. c #CD3763",
"%. c #D33C6D",
"&. c #D52870",
"*. c #E12564",
"=. c #F42C6F",
"-. c #EF2373",
";. c #8E4F66",
":. c #9B5564",
">. c #8E4D70",
",. c #8F5774",
"<. c #AD4669",
"1. c #A1496C",
"2. c #AA5167",
"3. c #A84E72",
"4. c #A45175",
"5. c #A45778",
"6. c #A3637D",
"7. c #CA476C",
"8. c #C54A7B",
"9. c #CB4C7D",
"0. c #C8557A",
"q. c #D8577A",
"w. c #E2477C",
"e. c #E05E7F",
"r. c #E6C03E",
"t. c #DA3E8A",
"y. c #EE3A82",
"u. c #A84D83",
"i. c #A66081",
"p. c #BD7B93",
"a. c #DE4186",
"s. c #C35881",
"d. c #D55786",
"f. c #E45B82",
"g. c #CE6682",
"h. c #C1758B",
"j. c #D86599",
"k. c #DF769E",
"l. c #E8658A",
"z. c #E96695",
"x. c #E56B9B",
"c. c #EB6D9B",
"v. c #F46C9B",
"b. c #FB6D9D",
"n. c #E67196",
"m. c #E97297",
"M. c #EE729D",
"N. c #F2759E",
"B. c #D155A1",
"V. c #FF5EA6",
"C. c #E86EA3",
"Z. c #F86DA2",
"A. c #E974A7",
"S. c #F474A3",
"D. c #F971A0",
"F. c #F37AA6",
"G. c #FD7CA2",
"H. c #F376AB",
"J. c #FD7BA9",
"K. c #FA67B8",
"L. c #E67EB1",
"P. c #F47BB3",
"I. c #E3849B",
"U. c #DA82AF",
"Y. c #C991AF",
"T. c #ED87AE",
"R. c #F281AB",
"E. c #E589B3",
"W. c #FE85B2",
"Q. c #F984B5",
"!. c #FD8CBC",
"~. c #EE91BC",
"^. c #FF97BC",
"/. c #F48EC0",
"(. c #FE8CC3",
"). c #FF93C3",
"_. c #F594CC",
"`. c #FD95CB",
"'. c #F19ACB",
"]. c #FD9ACC",
"[. c #F99AD3",
"{. c #FE9DD4",
"}. c #FC9EDC",
"|. c #F2A0CC",
" X c #F3A5D3",
".X c #FEA1D6",
"XX c #F2A2DC",
"oX c #FEA3DB",
"OX c #F3B5D7",
"+X c #FEB2DF",
"@X c #FDA4E1",
"#X c #FFA8E6",
"$X c #FFBFE6",
"%X c #FFBAF9",
"&X c #FFC8FF",
"*X c #FFD3F5",
/* pixels */
"r.r.r.r.r.r.r.r.r.r.r.r.r.r.r.r.r.r.r.r.r.r.r.r.r.r.r.r.r.r.r.r.r.r.r.r.r.r.r.r.r.r.r.r.r.r.r.r.r.r.r.r.r.r.r.r.r.r.r.r.r.r.r.r.",
"r.r.r.r.r.r.r.r.r.r.r.r.r.r.r.r.r.r.r.r.r.r.r.r.r.r.r.r.r.r.r.r.r.r.r.r.r.r.r.r.r.r.r.r.r.r.r.r.r.r.r.r.r.r.r.r.r.r.r.r.r.r.r.r.",
"r.r.r.r.r.r.r.r.r.r.r.r.r.r.r.r.r.r.r.r.r.r.r.r.r.r.r.r.r.r.r.r.r.r.r.r.r.r.r.r.r.r.r.r.r.r.r.r.r.r.r.r.r.r.r.r.r.r.r.r.r.r.r.r.",
"r.r.r.r.r.r.r.r.r.r.r.r.r.r.r.r.r.r.r.r.r.r.r.r.r.r.r.r.r.r.r.r.r.r.r.r.r.r.r.r.r.r.r.r.r.r.r.r.r.r.r.r.r.r.r.r.r.r.r.r.r.r.r.r.",
"r.r.r.r.r.r.r.r.r.r.r.r.r.r.r.r.r.r.r.r.r.r.r.r.r.r.r.r.r.r.r.r.r.r.r.r.r.r.r.r.r.r.r.r.r.r.r.r.r.r.r.r.r.r.r.r.r.r.r.r.r.r.r.r.",
"r.r.r.r.r.r.r.r.r.r.r.r.r.r.r.r.r.r.r.r.j j r.r.r.r.r.r.r.r.r.r.r.r.r.r.r.r.r.r.r.r.r.r.r.r.r.r.r.r.r.r.r.r.r.r.r.r.r.r.r.r.r.r.",
"r.r.r.r.r.r.r.r.r.r.r.r.r.r.r.r.r.r.r.r.j j r.r.- - - , - - : : : : > > - - < < - - r.r.r.r.r.r.r.r.r.r.r.r.r.r.r.r.r.r.r.r.r.r.",
"r.r.r.r.r.r.r.r.r.r.r.r.r.r.r.r.r.r.r.j j j j r.- - , , - , : - : : - > - - < , - - r.r.r.r.r.r.r.r.r.r.j j r.r.r.r.r.r.r.r.r.r.",
"r.r.r.r.r.r.r.r.r.r.r.r.r.r.r.r.r.r.r.j j j < < O O k k / / >.>.,.,.,.,.T ;.T T * ; . . r.r.r.r.r.r.r.j j j r.r.r.r.r.r.r.r.r.r.",
"r.r.r.r.r.r.r.r.r.r.r.r.r.r.r.r.r.r.j j j j < 1 O O k k / z >.>.,.,.,.,./ T T z ; * . . r.r.r.r.r.r.r.j j j r.r.r.r.r.r.r.r.r.r.",
"r.r.r.r.r.r.r.r.r.r.r.r.r.r.r.r.r.r.j j + O w w 4.4.E.U.[.[.XX+X+X+X+X+X'.].~.~.i.i.e e @ @ . . r.r.j j j j r.r.r.r.r.r.r.r.r.r.",
"r.r.r.r.r.r.r.r.r.r.r.r.r.r.r.r.r.j j j # O e w 4.4.U.U.'.'.oXXX+X+X+X+X].].~.~.i.5.e e @ $ . . r.r.j j j j r.r.r.r.r.r.r.r.r.r.",
"r.r.r.r.r.r.r.r.r.r.r.r.r.r.r.r.    = & T T k.k.).).oXoXXXoX@XXXXXXX[.XX[.}.oXoXoX.XL.U.>.1.w 8 X O j j j j j r.r.r.r.r.r.r.r.r.",
"r.r.r.r.r.r.r.r.r.r.r.r.r.r.r.r.    & & U T k.n.).].oXoX}.XXXXXXXXXX'.XX{.}.oX.XoX.XU.U.1.1.w w X X j j j j j j j j j j j r.r.r.",
"r.r.r.r.r.r.r.r.r.r.r.r.r.r.r.r.+ + :.:.^.^.s.s.1.( oXoX}.oX@XXX[.[.oX}.}.}.}.}..X{..X{.!.!.4.3.* * j j j j j j j j j j j r.r.r.",
"r.r.r.r.r.r.j j j j j j j j j j # # :.:.^.^.d.u.( ( oXoXoXoXXXoXXX}.}.}.}.}.}.}.{.{..X.X!.!.3.3.* * j j j j j j j j j j r.r.r.r.",
"r.r.r.r.r.r.j j j j j j j j 1 1 f f I.I.l l 6.6.$X$X X X[.{..X.X.X.X#XoXoX.X.X.X.X.XoXoX}.[.L.L.g s = = j j j j j j r.r.r.r.r.r.",
"r.r.r.r.r.r.r.j j j j j j j 1 1 f f I.I.l l 6.6.$X$X X X{.{..XoX.X{.+XoXoX.X.X.X.X.XoX.X.X}.L.L.s e = = j j j j r.r.r.r.r.r.r.r.",
"r.r.r.r.r.r.r.r.r.j j j j j - = 2.2.0.g.% % ;.;.*X*X|.|.L.A.j.j.A.A.!./.'.).]. X.X.X{..X}.{.[.}.5.5.* @     j j j r.r.r.r.r.r.r.",
"r.r.r.r.r.r.r.r.r.r.r.j j j = ; 2.2.g.g.% % ;.;.*X*X|.'.A.L.j.j.A.A.~.~.].'..X.X.XoX}.}.[.[.[.}.5.5.$ @     j j j r.r.r.r.r.r.r.",
"r.r.r.r.r.r.r.r.r.r.r.r.r.j s s h.p.u u u u <.<.T.T.P.Q.d.d.s.8.j.j.L.L._._..X].oX.XoXoX}.}.#X#XL.A.g p o o j j j j r.r.r.r.r.r.",
"r.r.r.r.r.r.r.r.r.r.r.r.j j s s h.p.u u u u <.<.T.T.Q.T.d.a.s.a.j.j.L.L.`.`.]..X.XoX}.oX}.}.@X#XA.A.p g o o j j j j r.r.r.r.r.r.",
"r.r.r.r.r.r.r.r.r.r.r.r.j j z z p.p.2 2 Y Y !.!.!.!.9.8.j.z.P.(.].`.[. XoX.X}..X.X}.oX#X}.}.}.}.!.!.U R . o r.r.j j r.r.r.r.r.r.",
"r.r.r.r.r.r.r.r.r.r.r.j j j z x p.p.2 2 Y W !.!.!.!.9.a.j.z.Q.Q.`.].{.[..X.X{.{.{.{.@XoX}.}.#X@X!.!.R R X X r.r.r.r.r.r.r.r.r.r.",
"r.r.r.r.r.r.r.r.r.r.r.j j j ;.x Y.Y.% % D D a.t.@.@.! ! P.P.}..X{.{.oXoXoXoXoXoX[.[._._.}.}.@XXX`.`.4.1.o . r.r.r.r.r.r.r.r.r.r.",
"r.r.r.r.r.r.r.r.r.r.j j j j x x Y.Y.% $ D D a.a.@.%.| ( P.P.}..X{.{.@XoX}..XoXoX}.}._._.}.@X@X}.`._.1.4.. o r.r.r.r.r.r.r.r.r.r.",
"r.r.r.r.r.r.r.r.r.r.j j j j x z OXOXu.u.B.B.K.K.t.t.L L H.H.].{.`.`.`.`.[.[.{.`.`.`._._.}.@X@X}.`.`.4.5.  . r.r.r.r.r.r.r.r.r.r.",
"r.r.r.r.r.r.r.r.r.j j j j j z z OXOXu.u.B.B.K.K.t.t.L L H.H.{.].].].`.`.`.`.`.{.`.`._._.@X@X@XXX].`.u.i.. . r.r.r.r.r.r.r.r.r.r.",
"r.r.r.r.r.r.r.r.r.j j j j j s g E.~..X.X#X#X%X%X(.(.L Q d.d.R.J.!.^.).`.(.(.`.(.`.`.{.[.oX#XoXoX^.).1.1.. . r.r.r.r.r.r.r.r.r.r.",
"r.r.r.r.r.r.r.r.r.j j j r.r.g g E.E.oXoX#X#X%X%X(.(.W W d.d.J.J.!.!.).).(.(.`.(.`.`.{.[.#X#XoXoX/.).1.1.. . r.r.r.r.r.r.r.r.r.r.",
"r.r.r.r.r.r.r.r.O X + + 7 7 i i ( ( ^.!..X{.oX#XQ.Q.s.9.7.7.l.f.G.G.^.!.(.!.(.(.`.`.oXoX.X.X].[.R.T.U U o . r.r.r.r.r.r.r.r.r.r.",
"r.r.r.r.r.r.r.r.O O + + 6 6 i i ( ~ !.!..X XoXoX!.!.9.9.7.7.l.e.G.G.!.^.!.(.(.(.`.`.}..XoXoX].].R.F.U U . . r.r.r.r.r.r.r.r.r.r.",
"r.r.r.r.r.r.; ; N S } } n B Q Q N.F.C.M.(.(.}.{.].].W.W.q.q.E E E W q.q.x.x.!.)..XoX{.{.`.`.P.P.M.N.R R X X r.r.r.r.r.r.r.r.r.r.",
"r.r.r.r.r.r.; ; S N } } m A Q Q N.F.x.C.(.(.{.{.|.|.W.W.q.q.E E E W d.q.x.x.).(.oXoX.X{.`.).T.Q.M.m.R R o X r.r.r.r.r.r.r.r.r.r.",
"r.r.r.r.r.r.3 3 Q Q =.=.' ' #.#.b.v.N.N.C.K.P.P.W.!.^.^.N.R.l.l.l.l.C.S.W.W.^.(.).(.Q.P.P.P.A.H.e.e.I I 3 3 r.r.r.r.r.r.r.r.r.r.",
"r.r.r.r.r.r.3 3 } ! =.=._ { #.#.v.v.C.Z.C.C.P.P.W.!.^.^.R.N.l.l.l.l.S.N.W.W.(.^.)./.P.Q.H.P.H.F.e.e.I I 3 3 r.r.r.r.r.r.r.r.r.r.",
"r.r.r.r.r.r.5 5 P P X.X.{ { Z Z $.$.l.v.H.C.C.C.F.S.W.W.W.W.Q.!.!.Q.^.!.W.Q.W.W.F.R.x.x.C.Z.b.b.^ ^ c c c b r r r.r.r.r.r.r.r.r.",
"r.r.r.r.r.r.5 5 P P X.X.{ { Z F $.$.v.l.C.Z.C.C.S.S.W.J.W.W.!.W.!.!.!.!.W.Q.W.W.F.R.C.x.Z.S.D.b.^ ^ c c c b r 9 r.r.r.r.r.r.r.r.",
"r.r.r.r.r.r.$ $ J J *.*.{ { C C V V 7.%.v.z.S.H.H.S.Z.c.c.c.M.N.N.M.z.x.c.M.M.M.M.A.Z.c.v.v.e.w.A A b b w.w.) ) 3 3 r.r.r.r.r.r.",
"r.r.r.r.r.r.$ $ J J *.*.{ { B C C V w.%.v.v.S.S.D.S.c.Z.c.c.S.N.c.M.c.c.M.c.M.M.M.C.M.v.v.v.e.e.A b b b w.w.) ) 3 3 r.r.r.r.r.r.",
"r.r.r.r.r.r.# @ i p m m _ _ ` ` C C B B $.%.b.b.W.G.v.v.b.b.b.b.b.b.b.b.b.b.b.D.F.G.N.N.q.e.A A v v a.w.&X&X9.u.% % r.r.r.r.r.r.",
"r.r.r.j j j O @ i i m m _ _ ` _ C C V C $.%.D.D.N.R.v.v.b.v.b.N.b.b.b.b.b.b.D.D.F.N.N.N.q.q.A A v b w.w.&X&X9.3.% % r.r.r.r.r.r.",
"r.r.r.j j j j j $ $ u t E K ' ' F F Z Z V V A H R W 0.0.n.n.n.n.n.n.M.m.m.M.0.q.~ ~ S S H H n n F F y.y.V.V.8.t.0 5 r.r.r.r.r.r.",
"r.r.r.r.j j j j $ $ u u K E ' F F F Z Z V G N m W W 0.2.n.n.n.n.m.m.m.m.M.M.0.0.~ ~ S S H H n n F G y.y.V.V.8.%.5 8 r.r.r.r.r.r.",
"r.r.r.r.r.r.j j j j @ @ 5 5 t y A A K K H H y c 7 7 8 8 g g g g g g h h h h w t 9 9 y c B B  . .y.y.O.O.O...o.&.0 0 r.r.r.r.r.r.",
"r.r.r.r.r.r.j j j j @ @ 8 5 y t A A K K H H c c 7 7 8 8 f g g g g g h h h h w w 9 9 c y B B  . .O.y.O.O.O.O.&.&.w 0 j j r.r.r.r.",
"r.r.r.r.r.j j j j j j j j j q q 7 r y y y y t t ; & 1 1 a 1 a a a a a a 1 1 = # 9 9 H J ] ] o.o.y.y.O.O.y.O.| | 4 3 j j r.r.r.r.",
"r.r.r.r.r.j j j j j j j j j q q 7 7 t y y y t t 3 ; 1 1 a 1 1 a a a a a 1 1 # = 9 9 J J ] ] o.o.O.y.O.y.O.y.| | 4 4 r.r.r.r.r.r.",
"r.r.r.r.j j j j j j j r.j j j j . . . . O X . . d d r.r.j j j j j j j j j j j j 9 9 Q P _ ] ` ` ....+.O.G G i i O @ r.r.r.r.r.r.",
"r.r.r.r.j j j j j r.r.r.r.j j j . . . . X X . . d d r.r.r.r.j j j j j j j j j j 9 r P P _ ] ` ` ....-.o.G G i D @ @ r.r.r.r.r.r.",
"r.r.r.r.j j j r.r.r.r.r.r.r.r.j j j j r.r.r.r.r.r.r.r.r.r.r.r.r.j j j j j j j j j j ~ ~ P P [ [ @.#.} } i M % % r.r.r.r.r.r.r.r.",
"r.r.r.r.r.r.r.r.r.r.r.r.r.r.r.r.r.r.r.r.r.r.r.r.r.r.r.r.r.r.r.r.j j j j j j j j j j ) ( L ! [ P } @.! $.i i $ % r.r.r.r.r.r.r.r.",
"r.r.r.r.r.r.r.r.r.r.r.r.r.r.r.r.r.r.r.r.r.r.r.r.r.r.r.r.r.r.r.j j j j j j j j j j j 3 3 4 4 6 5 0 7 4 4 $ @ r.r.r.r.r.r.r.r.r.r.",
"r.r.r.r.r.r.r.r.r.r.r.r.r.r.r.r.r.r.r.r.r.r.r.r.r.r.r.r.r.r.j j j j j j j j j j j j 3 3 4 4 5 0 7 0 4 4 @ @ r.r.r.r.r.r.r.r.r.r.",
"r.r.r.r.r.r.r.r.r.r.r.r.r.r.r.r.r.r.r.r.r.r.r.r.r.r.r.r.r.r.j j j j j j j j j r.r.j j j j j j j j j j j r.r.r.r.r.r.r.r.r.r.r.r.",
"r.r.r.r.r.r.r.r.r.r.r.r.r.r.r.r.r.r.r.r.r.r.r.r.r.r.r.r.r.j j j j j j j r.r.r.r.r.r.r.j j j j j j j j j r.r.r.r.r.r.r.r.r.r.r.r.",
"r.r.r.r.r.r.r.r.r.r.r.r.r.r.r.r.r.r.r.r.r.r.r.r.r.r.r.r.j j j j j j r.r.r.r.r.r.r.r.r.r.r.j j j j j j j j r.r.r.r.r.r.r.r.r.r.r.",
"r.r.r.r.r.r.r.r.r.r.r.r.r.r.r.r.r.r.r.r.r.r.r.r.r.r.r.r.j j j r.r.r.r.r.r.r.r.r.r.r.r.r.r.r.r.j j j j j j r.r.r.r.r.r.r.r.r.r.r.",
"r.r.r.r.r.r.r.r.r.r.r.r.r.r.r.r.r.r.r.r.r.r.r.r.r.r.r.r.j j r.r.r.r.r.r.r.r.r.r.r.r.r.r.r.r.r.r.r.j j j j r.r.r.r.r.r.r.r.r.r.r.",
"r.r.r.r.r.r.r.r.r.r.r.r.r.r.r.r.r.r.r.r.r.r.r.r.r.r.r.r.r.r.r.r.r.r.r.r.r.r.r.r.r.r.r.r.r.r.r.r.r.r.r.r.r.r.r.r.r.r.r.r.r.r.r.r.",
"r.r.r.r.r.r.r.r.r.r.r.r.r.r.r.r.r.r.r.r.r.r.r.r.r.r.r.r.r.r.r.r.r.r.r.r.r.r.r.r.r.r.r.r.r.r.r.r.r.r.r.r.r.r.r.r.r.r.r.r.r.r.r.r.",
"r.r.r.r.r.r.r.r.r.r.r.r.r.r.r.r.r.r.r.r.r.r.r.r.r.r.r.r.r.r.r.r.r.r.r.r.r.r.r.r.r.r.r.r.r.r.r.r.r.r.r.r.r.r.r.r.r.r.r.r.r.r.r.r.",
"r.r.r.r.r.r.r.r.r.r.r.r.r.r.r.r.r.r.r.r.r.r.r.r.r.r.r.r.r.r.r.r.r.r.r.r.r.r.r.r.r.r.r.r.r.r.r.r.r.r.r.r.r.r.r.r.r.r.r.r.r.r.r.r.",
"r.r.r.r.r.r.r.r.r.r.r.r.r.r.r.r.r.r.r.r.r.r.r.r.r.r.r.r.r.r.r.r.r.r.r.r.r.r.r.r.r.r.r.r.r.r.r.r.r.r.r.r.r.r.r.r.r.r.r.r.r.r.r.r."
};
