/* XPM */
static char *result[] = {
/* columns rows colors chars-per-pixel */
"64 64 193 2 ",
"   c #0C0000",
".  c #130003",
"X  c #1B0002",
"o  c #1E0C0C",
"O  c #240103",
"+  c #2B0102",
"@  c #23000B",
"#  c #2C010D",
"$  c #330104",
"%  c #3C000B",
"&  c #290415",
"*  c #340511",
"=  c #390012",
"-  c #300813",
";  c #291717",
":  c #2E1B1B",
">  c #37161F",
",  c #311C1D",
"<  c #342222",
"1  c #3F3133",
"2  c #430002",
"3  c #43010B",
"4  c #53010B",
"5  c #450011",
"6  c #490417",
"7  c #4B031A",
"8  c #450919",
"9  c #57081A",
"0  c #680016",
"q  c #470D21",
"w  c #53062E",
"e  c #551529",
"r  c #5C152F",
"t  c #7B0929",
"y  c #6A172A",
"u  c #79122C",
"i  c #7B0D33",
"p  c #7E0E3A",
"a  c #6F1B36",
"s  c #771E3A",
"d  c #4C2131",
"f  c #483839",
"g  c #632835",
"h  c #78203E",
"j  c #736122",
"k  c #5E284D",
"l  c #533F40",
"z  c #7B2744",
"x  c #712C43",
"c  c #683546",
"v  c #773346",
"b  c #7C384E",
"n  c #783552",
"m  c #535252",
"M  c #784866",
"N  c #8C001B",
"B  c #8B002B",
"V  c #810737",
"C  c #830C35",
"Z  c #960839",
"A  c #871A37",
"S  c #941139",
"D  c #9C143E",
"F  c #A2002D",
"G  c #A60B37",
"H  c #BA053B",
"J  c #9A0E42",
"K  c #991D45",
"L  c #BB0C43",
"P  c #B6004B",
"I  c #A81C45",
"U  c #B8114E",
"Y  c #AE1C54",
"T  c #B71953",
"R  c #BB1955",
"E  c #872B4F",
"W  c #862952",
"Q  c #912A56",
"!  c #873651",
"~  c #B1234F",
"^  c #AD2755",
"/  c #B52555",
"(  c #BB3057",
")  c #AF3E64",
"_  c #C3124C",
"`  c #C8144C",
"'  c #D10255",
"]  c #D50C5D",
"[  c #C01C56",
"{  c #CC205F",
"}  c #C1345D",
"|  c #D40861",
" . c #CA1B66",
".. c #DD0F77",
"X. c #E8096B",
"o. c #E41A78",
"O. c #F21F7C",
"+. c #C42461",
"@. c #DD3F6B",
"#. c #C4277A",
"$. c #DA2871",
"%. c #E7216F",
"&. c #994457",
"*. c #884E67",
"=. c #9D4963",
"-. c #945A6E",
";. c #855974",
":. c #AB456A",
">. c #A6506E",
",. c #AC4370",
"<. c #9B657C",
"1. c #D2486F",
"2. c #C84B73",
"3. c #D55C7C",
"4. c #E6C03E",
"5. c #FA1A84",
"6. c #FF1C8B",
"7. c #EF2781",
"8. c #F72486",
"9. c #A65D8A",
"0. c #B75881",
"q. c #AE6481",
"w. c #BB6C87",
"e. c #BC648D",
"r. c #AE6C99",
"t. c #B77C96",
"y. c #D9458B",
"u. c #CA5B87",
"i. c #DD5C90",
"p. c #E85A85",
"a. c #E84B9E",
"s. c #E35D92",
"d. c #C5668D",
"f. c #C9758F",
"g. c #CA6C99",
"h. c #DA659A",
"j. c #CC7293",
"k. c #D77799",
"l. c #E36C99",
"z. c #FE6E9E",
"x. c #EC739E",
"c. c #F1739F",
"v. c #F34FA4",
"b. c #E758A8",
"n. c #DC79A8",
"m. c #EB6FA7",
"M. c #F669AF",
"N. c #ED74A3",
"B. c #E778A7",
"V. c #EF7BAC",
"C. c #F476A4",
"Z. c #FA71A3",
"A. c #F37AA9",
"S. c #FB7BB8",
"D. c #FF6FC2",
"F. c #DD87A6",
"G. c #D18CAA",
"H. c #E985A5",
"J. c #F384AD",
"K. c #F58CAF",
"L. c #F383B6",
"P. c #F989B6",
"I. c #FE83BB",
"U. c #F18EBC",
"Y. c #EC93BB",
"T. c #F397BB",
"R. c #FD92BC",
"E. c #F6A2BF",
"W. c #F38BC0",
"Q. c #FD8DC4",
"!. c #FE93C3",
"~. c #F596CA",
"^. c #FE96CB",
"/. c #FF9DCC",
"(. c #FE9DD5",
"). c #F79BDA",
"_. c #FE9DDA",
"`. c #ECA6C0",
"'. c #F8A3C6",
"]. c #FFA3CB",
"[. c #F8B0C8",
"{. c #FFA2D5",
"}. c #FEADD3",
"|. c #FFA3DB",
" X c #FFABDC",
".X c #FFB4DF",
"XX c #FFBEDC",
"oX c #FF9EE1",
"OX c #FFA4E3",
"+X c #FFABE4",
"@X c #FFB5E7",
"#X c #FFACF0",
"$X c #FFC2DE",
/* pixels */
"4.4.4.4.4.4.4.4.4.4.4.4.4.4.4.4.4.4.4.4.4.4.4.4.4.4.4.4.4.4.4.4.4.4.4.4.4.4.4.4.4.4.4.4.4.4.4.4.4.4.4.4.4.4.4.4.4.4.4.4.4.4.4.4.",
"4.4.4.4.4.4.4.4.4.4.4.4.4.4.4.4.4.4.4.4.4.4.4.4.4.4.4.4.4.4.4.4.4.4.4.4.4.4.4.4.4.4.4.4.4.4.4.4.4.4.4.4.4.4.4.4.4.4.4.4.4.4.4.4.",
"4.4.4.4.4.4.4.4.4.4.4.4.4.4.4.4.4.4.4.4.4.4.4.4.4.4.4.4.4.4.4.4.4.4.4.4.4.4.4.4.4.4.4.4.4.4.4.4.4.4.4.4.4.4.4.4.4.4.4.4.4.4.4.4.",
"4.4.4.4.4.4.4.4.4.4.4.4.4.4.4.4.4.4.4.4.4.4.4.4.4.4.4.4.4.4.4.4.4.4.4.4.4.4.4.4.4.4.4.4.4.4.4.4.4.4.4.4.4.4.4.4.4.4.4.4.4.4.4.4.",
"4.4.4.4.4.4.4.4.4.4.4.4.4.4.4.4.4.4.4.4.4.4.4.4.4.4.4.4.4.4.4.4.4.4.4.4.4.4.4.4.4.4.4.4.4.4.4.4.4.4.4.4.4.4.4.4.4.4.4.4.4.4.4.4.",
"4.4.4.4.4.4.4.4.4.4.4.4.4.4.4.4.4.4.4.4.j j 4.4.4.4.4.4.4.4.4.4.4.4.4.4.4.4.4.4.4.4.4.4.4.4.4.4.4.4.4.4.4.4.4.4.4.4.4.4.4.4.4.4.",
"4.4.4.4.4.4.4.4.4.4.4.4.4.4.4.4.4.4.4.4.j j 4.4.: : : : < < : , : : < < ; : 4.4.4.4.4.4.4.4.4.4.4.4.4.4.4.4.4.4.4.4.4.4.4.4.4.4.",
"4.4.4.4.4.4.4.4.4.4.4.4.4.4.4.4.4.4.4.j j j j 4.: : : : < < , , : < < < : : 4.4.4.4.4.4.4.4.4.4.4.4.4.4.j j 4.4.4.4.4.4.4.4.4.4.",
"4.4.4.4.4.4.4.4.4.4.4.4.4.4.4.4.4.4.4.j j j j 4.8 9 h h z z h s g a x v 8 3 ; ; 4.4.4.4.4.4.4.4.4.4.4.j j j 4.4.4.4.4.4.4.4.4.4.",
"4.4.4.4.4.4.4.4.4.4.4.4.4.4.4.4.4.4.j j j j j j 9 4 s h z z s s a x v x * > ; ; 4.4.4.4.4.4.4.4.4.4.4.j j j 4.4.4.4.4.4.4.4.4.4.",
"4.4.4.4.4.4.4.4.4.4.4.4.4.4.4.4.4.4.: : - - v n f.f.x.H.J.J.K.J.K.K.H.H.d.3.c x 8 > O O 4.4.4.4.4.4.j j j j 4.4.4.4.4.4.4.4.4.4.",
"4.4.4.4.4.4.4.4.4.4.4.4.4.4.4.4.4.j : : - - v v f.k.H.x.J.J.J.J.K.K.H.F.<.w.x x q 8 @ @ 4.4.4.4.4.4.j j j j 4.4.4.4.4.4.4.4.4.4.",
"4.4.4.4.4.4.4.4.4.4.4.4.4.4.4.4.    , > q.q.Y.W.R.!.{.{./.].R.!.P.R././.].].Y.W.d.d.b E @ # 4.4.4.j j j j j j 4.4.4.4.4.4.4.4.4.",
"4.4.4.4.4.4.4.4.4.4.4.4.4.4.4.4.    > > q.q.U.W.R.!.}.]./.].R.R.R.P.^./.{.{.Y.Y.d.d.! ! # # j j j j j j j j j j j j j j j 4.4.4.",
"4.4.4.4.4.4.4.4.4.4.4.4.4.4.4.4.o o <.<.Y.Y.,.,.W W U.U.R.R.:.:.Q Q U.W. XOX|._.^.^.k.n.b b # # 1 1 j j j j j j j j j j j 4.4.4.",
"4.4.4.4.4.4.j j j j j j j j j j o o <.<.Y.Y.,.) W W Y.W.R.R.:.:.Q Q U.W.|.OX{.|.!.!.B.k.b b # # 1 1 j j j j j j j j j j 4.4.4.4.",
"4.4.4.4.4.4.j j j j j j j j l l b n '.'.w.w.n z XXXXXXXX=.=.! ! $X$X}.}.)._._.OX|.{.].].j.j.q 7 , , j j j j j j j j 4.4.4.4.4.4.",
"4.4.4.4.4.4.4.j j j j j j j l l n n '.'.w.w.z n $X$XXXXX=.=.! ! $X$X}.}.(._.OXOX X|.].].j.g.q q , , j j j j j j 4.4.4.4.4.4.4.4.",
"4.4.4.4.4.4.4.4.4.j j j j j e e e.e. X X*.*.q q `.`.$X$Xb b e e [.[.}.}.).).oXoX|.|.{. XR.Q.=.,.d d j j j j j j j 4.4.4.4.4.4.4.",
"4.4.4.4.4.4.4.4.4.4.4.j j j d e d.e..X}.*.*.q q `.`.$X$Xb b e e [.[.[.].).(.oXoX|. X X{.!.R.:.>.d d j j j j j j j 4.4.4.4.4.4.4.",
"4.4.4.4.4.4.4.4.+ + 3 2 y y >.>.n.n..X@X;.;.& @ z z T.T.*.*.@ @ E E !.R. X XOXOX{.(.(.{.^.(.B.n.! E 5 7 * * j j j j 4.4.4.4.4.4.",
"4.4.4.4.4.4.4.4.+ + 3 3 y y >.>.n.n..X@X<.;.@ @ z z T.'.;.*.# & E E R.!.OX X|.|._.{._.(.(.(.n.H.E E 6 6 = * j j j j 4.4.4.4.4.4.",
"4.4.4.4.4.4..   g g F.F.H.J.2.u.~.^.@X@XM ;.@ X 0.0.}.}.M M & & u.d.Q.Q._.OX_._._._.|.|._.|.W.W.B.n.k.n.=.>.= q l l 4.4.4.4.4.4.",
"4.4.4.4.4.4.  . g g F.H.H.c.u.3.^.^.@X@X;.;.X @ 0.0.].{.M M = & u.u.Q.Q.oXOX_._._._.|.OX|._.W.U.n.B.k.k.>.>.q = l f 4.4.4.4.4.4.",
"4.4.4.4.4.4.  . t.t.+X.XR.R.m.m.m.m.h.h.w w & * g.g.#X@Xk k & # V.V.y.y.y.#.a.b.OX#XoXOX|.|.(.|.(./././.E.E.t.t.k g 1 1 4.4.4.4.",
"4.4.4.4.4.4.. . t.t.}.}.R.R.m.x.m.m.g.h.w w * # g.g.@X@Xk k & & m.m.y.y.#.#.b.b.OXOXOX|.|.OX{.{.].(.].].[.E.f.3.g k f 1 4.4.4.4.",
"4.4.4.4.4.4.o ; G.G.@X.XC.J.p.l.D.I.D.S.d.d.e.e.~.~.+X+Xr.r.9.9.^.Q.M.M.a.a.D.D.oXoX XOX|.).{.(.|.|.].{.].].E.E.-.-.    4.4.4.4.",
"4.4.4.4.4.4.& o G.G..X.XC.C.l.p.I.I.S.V.g.g.e.0.~.~.+X Xr.r.9.9.^.Q.M.M.a.a.D.D.oXOXOX|.).{.).{.|.|.}.].].].E.E.-.-.    4.4.4.4.",
"4.4.4.4.4.4.X X f.f.R.R.3.p.3.@.C.Z.I.P.J.H.Y.H./.(.OXOX+X+X+X+X{.|.OX X#X#XoXoX_._.{.{.^.^.!.^././././.R.R.K.T.-.-.. . 4.4.4.4.",
"4.4.4.4.4.4.X X f.f.R.R.p.p.@.3.z.c.P.P.H.J.H.J././.OXoX+X+X+X+X|.{.+X|.#X#X#XoX_._.{.|.).^.^.^././././.R.R.T.T.<.-.o o 4.4.4.4.",
"4.4.4.4.4.4.o o &.&.3.3.3.1.@.@.T T ~ Y V V C p h.l.^.^.oX_.).).{.|._._._.^.).).|.{.|.{.!.!.Q.!.Q.R.R.!.R.E.F.F.c c o o 4.4.4.4.",
"4.4.4.4.4.4.O o &.&.3.3.@.@.@.@.T T Y Y V V C p l.h.(.(._.oX).).{.{.(._._._.).^.{.|.{.|.!.^.!.!.Q.!.!.R.R.T.F.F.c n o o 4.4.4.4.",
"4.4.4.4.4.4.4.4.* * u s ( ( H L %.%. . .L.D.+X#XY ^ s.s.(.(._._.|.|._._.|.{.|.|.{.{.^.!.V.V.A.V.A.J.L.K.F.F.x x d d 4.4.4.4.4.4.",
"4.4.4.4.4.4.4.4.* * h a ( ( L H %.%...| W.D.+X#X^ / s.s.(.(.{._.|.|._._._._.|.|.{.}.^.!.V.V.A.A.L.A.J.K.F.F.x x d d 4.4.4.4.4.4.",
"4.4.4.4.4.4.4.4.4.4.4.4.B t _ R O.O...o.v.v.b.D. . .T T i.i.!.^.^.^._.(.Q.W.L.L.L.L.V.V.A.A.l.l.:.,.a a r r 4.4.4.4.4.4.4.4.4.4.",
"4.4.4.4.4.4.4.4.4.4.4.4.B t _ R O.O.o.o.v.v.D.b. .+.T T i.i.^.^.^.(._._.R.W.L.L.L.L.J.J.C.A.l.l.:.,.a y r r 4.4.4.4.4.4.4.4.4.4.",
"4.4.4.4.4.4.4.4.4.4.j j 4 4 / / O.7.8.8.....7.7.7.7.P P +.+.Z.Z.P.I.S.L.m.m.h.k.x.x.c.N.c.c.) ) 7 7 4.4.4.4.4.4.4.4.4.4.4.4.4.4.",
"4.4.4.4.4.4.4.4.4.4.j j 4 4 / / O.O.6.8...7.7...7.7.P P +.+.Z.Z.I.I.L.L.m.m.l.l.x.x.x.c.c.c.) :.6 7 4.4.4.4.4.4.4.4.4.4.4.4.4.4.",
"4.4.4.4.4.4.4.4.4.j j j 3 % K K $.$.8.8.5.5.6.6.5.5.| | { { p.p.C.C.C.A.m.N.m.x.c.x.l.l.:.:.e 9 4.4.4.4.4.4.4.4.4.4.4.4.4.4.4.4.",
"4.4.4.4.4.4.4.4.4.j j j % = K K o.%.8.5.8.6.6.6.8.5.| | { { p.@.N.Z.C.C.x.N.m.x.c.c.l.x.:.) 9 9 4.4.4.4.4.4.4.4.4.4.4.4.4.4.4.4.",
"4.4.4.4.4.4.4.4.j j j j & @ s s U T ' ' X.X.6.5.6.6.O.7.R [ } } z.z.Z.Z.z.H.c.c.1.2.A A % % 4.4.4.4.4.4.4.4.4.4.4.4.4.4.4.4.4.4.",
"4.4.4.j j j j j j j j j O # z s U T ' ' X.X.6.5.6.5.O.O.[ [ } } z.z.Z.Z.H.H.c.H.2.2.E A % % 4.4.4.4.4.4.4.4.4.4.4.4.4.4.4.4.4.4.",
"4.4.4.j j j j j j j j j j j = = C A U U ' ] X.X.5.5.7.7.G I C A 2.2.1.2.^ ^ S S Z Z u u + + 4.4.4.4.4.4.4.4.4.4.4.4.4.4.4.4.4.4.",
"4.4.4.4.j j j j j j j j j j * = C C U U | ' X.X.5.5.7.7.J J A A 2.} 2.2.^ ^ S S S S C u + + 4.4.4.4.4.4.4.4.4.4.4.4.4.4.4.4.4.4.",
"4.4.4.4.4.4.j j j j j j j j j j = = i i [ [ | ] %.o.$.$.u u 2 2 4 9 u t B B N N F F I ~ 6 6 j 4.4.4.4.4.4.4.4.4.4.4.4.4.4.4.4.4.",
"4.4.4.4.4.4.j j j j j j j j j j = = i i R R ] ] o.o.$.@.u u 2 2 4 9 u t B B N N F F ~ G 6 6 j j j j j j j j j j j j j j 4.4.4.4.",
"4.4.4.4.4.j j j j j j j j j j j j j * * i i K J J Z C C 3 3 O O $ % 0 0 G G ` ` L ` ~ ~ 3 3 j j j j j j j j j j j j j j 4.4.4.4.",
"4.4.4.4.4.j j j j j j j j j j j j j * * i i J J Z Z C C 3 3 O O $ % 0 0 G G ` ` ` ` ~ ~ 3 5 j j j j j j j j j j j j 4.4.4.4.4.4.",
"4.4.4.4.j j j j j j j 4.j j j j j j j 4.X . O O O X X O X . $ + A A G G H H L H L L K K % = j j j j j j j j j 4.4.4.4.4.4.4.4.4.",
"4.4.4.4.j j j j j 4.4.4.4.j j j j j j 4.X X X O O O O X . X $ $ A A F G H H H H L L K K = * j j j j j j j 4.4.4.4.4.4.4.4.4.4.4.",
"4.4.4.4.j j j 4.4.4.4.4.4.4.4.j j j j 4.4.4.4.4.4.4.4.4.m m + O A s I I D G ~ ~ D D 4 4 j j j j j j 4.4.4.4.4.4.4.4.4.4.4.4.4.4.",
"4.4.4.4.4.4.4.4.4.4.4.4.4.4.4.4.4.4.4.4.4.4.4.4.4.4.4.4.m m O O A A I I G ~ ~ ~ D D 4 4 j j j j j j 4.4.4.4.4.4.4.4.4.4.4.4.4.4.",
"4.4.4.4.4.4.4.4.4.4.4.4.4.4.4.4.4.4.4.4.4.4.4.4.4.4.4.4.4.4.4.j + * 6 6 5 5 7 7 j j j j j j j j j j j 4.4.4.4.4.4.4.4.4.4.4.4.4.",
"4.4.4.4.4.4.4.4.4.4.4.4.4.4.4.4.4.4.4.4.4.4.4.4.4.4.4.4.4.4.j j $ + 6 6 5 5 7 7 j j j j j j j j j j j 4.4.4.4.4.4.4.4.4.4.4.4.4.",
"4.4.4.4.4.4.4.4.4.4.4.4.4.4.4.4.4.4.4.4.4.4.4.4.4.4.4.4.4.4.j j j j j j j j j 4.4.j j j j j j j j j j j 4.4.4.4.4.4.4.4.4.4.4.4.",
"4.4.4.4.4.4.4.4.4.4.4.4.4.4.4.4.4.4.4.4.4.4.4.4.4.4.4.4.4.j j j j j j j 4.4.4.4.4.4.4.j j j j j j j j j 4.4.4.4.4.4.4.4.4.4.4.4.",
"4.4.4.4.4.4.4.4.4.4.4.4.4.4.4.4.4.4.4.4.4.4.4.4.4.4.4.4.j j j j j j 4.4.4.4.4.4.4.4.4.4.4.j j j j j j j j 4.4.4.4.4.4.4.4.4.4.4.",
"4.4.4.4.4.4.4.4.4.4.4.4.4.4.4.4.4.4.4.4.4.4.4.4.4.4.4.4.j j j 4.4.4.4.4.4.4.4.4.4.4.4.4.4.4.4.j j j j j j 4.4.4.4.4.4.4.4.4.4.4.",
"4.4.4.4.4.4.4.4.4.4.4.4.4.4.4.4.4.4.4.4.4.4.4.4.4.4.4.4.j j 4.4.4.4.4.4.4.4.4.4.4.4.4.4.4.4.4.4.4.j j j j 4.4.4.4.4.4.4.4.4.4.4.",
"4.4.4.4.4.4.4.4.4.4.4.4.4.4.4.4.4.4.4.4.4.4.4.4.4.4.4.4.4.4.4.4.4.4.4.4.4.4.4.4.4.4.4.4.4.4.4.4.4.4.4.4.4.4.4.4.4.4.4.4.4.4.4.4.",
"4.4.4.4.4.4.4.4.4.4.4.4.4.4.4.4.4.4.4.4.4.4.4.4.4.4.4.4.4.4.4.4.4.4.4.4.4.4.4.4.4.4.4.4.4.4.4.4.4.4.4.4.4.4.4.4.4.4.4.4.4.4.4.4.",
"4.4.4.4.4.4.4.4.4.4.4.4.4.4.4.4.4.4.4.4.4.4.4.4.4.4.4.4.4.4.4.4.4.4.4.4.4.4.4.4.4.4.4.4.4.4.4.4.4.4.4.4.4.4.4.4.4.4.4.4.4.4.4.4.",
"4.4.4.4.4.4.4.4.4.4.4.4.4.4.4.4.4.4.4.4.4.4.4.4.4.4.4.4.4.4.4.4.4.4.4.4.4.4.4.4.4.4.4.4.4.4.4.4.4.4.4.4.4.4.4.4.4.4.4.4.4.4.4.4.",
"4.4.4.4.4.4.4.4.4.4.4.4.4.4.4.4.4.4.4.4.4.4.4.4.4.4.4.4.4.4.4.4.4.4.4.4.4.4.4.4.4.4.4.4.4.4.4.4.4.4.4.4.4.4.4.4.4.4.4.4.4.4.4.4."
};
