/* XPM */
static char *result[] = {
/* columns rows colors chars-per-pixel */
"64 64 14 1 ",
"  c black",
". c #34781A",
"X c #736122",
"o c #921616",
"O c #D92020",
"+ c #54B42E",
"@ c #EE850E",
"# c #EC9810",
"$ c #FFCD0B",
"% c #FFF700",
"& c #E6C03E",
"* c #EAEC49",
"= c #14B4B4",
"- c white",
/* pixels */
"&&&&&&&&&&&&&&&&&&&&&&&&&&&&&      &&&&&&&&&&&&&&&&&&&&&&&&&&&&&",
"&&&&&&&&&&&&&&&&&&&&&&&&&&&&&      &&&&&&&&&&&&&&&&&&&&&&&&&&&&&",
"&&&&&&&&&&&&&&&&&&&&&&&&&&&&&      &&&&&&&&&&&&&&&&&&&&&&&&&&&&&",
"&&&&&&&&&&&&&                ******                &&&&&&&&&&&&&",
"&&&&&&&&&&&&&                ******                &&&&&&&&&&&&&",
"&&&&&&&&&&&&&                ******                &&&&&&&&&&&&&",
"&&&&&&&&&&   ...++++++++++++++++++++++++++++++++...   &&&&&&&&&&",
"&&&&&&&&&&   ...++++++++++++++++++++++++++++++++...   &&&&&&&&&&",
"&&&&&&&&&&   ...++++++++++++++++++++++++++++++++...   &&&&&&&&&&",
"&&&&&&&&&&   ...++++++++++++++++++++++++++++++++...   &&&&&&&&&&",
"&&&&&&&&&&   ...++++++....ooo======ooo....++++++...   &&&&&&&&&&",
"&&&&&&&&&&   ...++++++....ooo======ooo....++++++...   &&&&&&&&&&",
"&&&&&&&&&&   ...++++++....ooo======ooo....++++++...   X&&&&&&&&&",
"&&&&&&&&&&   ...++++++....OOO++++++OOO....++++++...   XXXXXXX&&&",
"&&&&&&&&&&   ...++++++....OOO++++++OOO....++++++...   XXXXXXX&&&",
"&&&&&&XXXX   ...++++++....OOO++++++OOO....++++++...   XXXXXX&&&&",
"&&&&&&    oooooo......OOOOOOO......OOOOOOO......oooooo    &&&&&&",
"&&&&&&    oooooo......OOOOOOO......OOOOOOO......oooooo    &&&&&&",
"&&&&&&    oooooo......OOOOOOO......OOOOOOO......oooooo    &&&&&&",
"&&&&&&    oooOOO@@@@@@####$$$%%%%%%$$$####@@@@@@OOOooo    &&&&&&",
"&&&&&&    oooOOO@@@@@@####$$$%%%%%%$$$####@@@@@@OOOooo    &&&&&&",
"&&&&&&    oooOOO@@@@@@####$$$%%%%%%$$$####@@@@@@OOOooo    &&&&&&",
"&&&&&&    oooOOO@@@@@@####$$$%%%%%%$$$####@@@@@@OOOooo    &&&&&&",
"&&&   OOOOOOOOOO---          @@@@@@          ---OOOOOOOOOO   &&&",
"&&&   OOOOOOOOOO---          @@@@@@          ---OOOOOOOOOO   &&&",
"&&&   OOOOOOOOOO---          @@@@@@          ---OOOOOOOOOO   &&&",
"&&&   OOOOOOOOOO---                          ---OOOOOOOOOO   &&&",
"&&&   OOOOOOOOOO---                          ---OOOOOOOOOO   &&&",
"&&&   OOOOOOOOOO---                          ---OOOOOOOOOO   &&&",
"&&&   OOOOOOOOOO%%%       ===      ===       %%%OOOOOOOOOO   &&&",
"&&&   OOOOOOOOOO%%%       ===      ===       %%%OOOOOOOOOO   &&&",
"&&&   OOOOOOOOOO%%%       ===      ===       %%%OOOOOOOOOO   &&&",
"&&&   OOOOOOOOOO%%%       ---      ---       %%%OOOOOOOOOO   &&&",
"&&&   OOOOOOOOOO%%%       ---      ---       %%%OOOOOOOOOO   &&&",
"&&&   OOOOOOOOOO%%%       ---      ---       %%%OOOOOOOOOO   &&&",
"&&&   OOOOOOOOOO$$$       ------------       $$$OOOOOOOOOO   &&&",
"&&&   OOOOOOOOOO$$$       ------------       $$$OOOOOOOOOO   &&&",
"&&&   OOOOOOOOOO$$$       ------------       $$$OOOOOOOOOO   &&&",
"&&&   OOOOOOOOOO$$$       ------------       $$$OOOOOOOOOO   &&&",
"&&&   ooooOOOOOOOOO$$$$$$$OOO@@@@@@OOO$$$$$$$OOOOOOOOOoooo   &&&",
"&&&   ooooOOOOOOOOO$$$$$$$OOO@@@@@@OOO$$$$$$$OOOOOOOOOoooo   &&&",
"&&&   ooooOOOOOOOOO$$$$$$$OOO@@@@@@OOO$$$$$$$OOOOOOOOOoooo   &&&",
"&&&XXX    oooOOOOOOOOOOOOOOOOOOOOOOOOOOOOOOOOOOOOOOooo    &&&&&&",
"&&&&XX    oooOOOOOOOOOOOOOOOOOOOOOOOOOOOOOOOOOOOOOOooo    &&&&&&",
"&&&&&&    oooOOOOOOOOOOOOOOOOOOOOOOOOOOOOOOOOOOOOOOooo    &&&&&&",
"&&&&&&    ooooooOOOOOOOOOOOOOOOOOOOOOOOOOOOOOOOOoooooo    XX&&&&",
"&&&&&X    ooooooOOOOOOOOOOOOOOOOOOOOOOOOOOOOOOOOoooooo    XX&&&&",
"&&&&&X    ooooooOOOOOOOOOOOOOOOOOOOOOOOOOOOOOOOOoooooo    &&&&&&",
"&&&&XXXXXX      oooOOOOOOOOOOOOOOOOOOOOOOOOOOooo      X&&&&&&&&&",
"&&&&XXXXX&      oooOOOOOOOOOOOOOOOOOOOOOOOOOOooo      &&&&&&&&&&",
"&&&&XXX&&&      oooOOOOOOOOOOOOOOOOOOOOOOOOOOooo      &&&&&&&&&&",
"&&&&&&&&&&      oooOOOOOOOOOOOOOOOOOOOOOOOOOOooo      &&&&&&&&&&",
"&&&&&&&&&&&&&&&&   oooooooOOOOOOOOOOOOooooooo   XXX&&&&&&&&&&&&&",
"&&&&&&&&&&&&&&&&   oooooooOOOOOOOOOOOOooooooo   XXX&&&&&&&&&&&&&",
"&&&&&&&&&&&&&&&&   oooooooOOOOOOOOOOOOooooooo   XXXX&&&&&&&&&&&&",
"&&&&&&&&&&&&&&&&&&&&&&                    &XXXXXXXXX&&&&&&&&&&&&",
"&&&&&&&&&&&&&&&&&&&&&&                    &&&XXXXXXXX&&&&&&&&&&&",
"&&&&&&&&&&&&&&&&&&&&&&                    &&&&&XXXXXX&&&&&&&&&&&",
"&&&&&&&&&&&&&&&&&&&&&&&&&&&&XX&&&&&&&&&&&&&&&&&&&XXXX&&&&&&&&&&&",
"&&&&&&&&&&&&&&&&&&&&&&&&&&&&&&&&&&&&&&&&&&&&&&&&&&&&&&&&&&&&&&&&",
"&&&&&&&&&&&&&&&&&&&&&&&&&&&&&&&&&&&&&&&&&&&&&&&&&&&&&&&&&&&&&&&&",
"&&&&&&&&&&&&&&&&&&&&&&&&&&&&&&&&&&&&&&&&&&&&&&&&&&&&&&&&&&&&&&&&",
"&&&&&&&&&&&&&&&&&&&&&&&&&&&&&&&&&&&&&&&&&&&&&&&&&&&&&&&&&&&&&&&&",
"&&&&&&&&&&&&&&&&&&&&&&&&&&&&&&&&&&&&&&&&&&&&&&&&&&&&&&&&&&&&&&&&"
};
