/* XPM */
static char *result[] = {
/* columns rows colors chars-per-pixel */
"32 32 2 1 ",
"  c #594009",
". c #E09F12",
/* pixels */
"... ........ ...... ....... ....",
"... ........ ...... ....... ....",
"... ........ ...... ....... ....",
"... ........ ...... ....... ....",
"... ........ ...... ....... ....",
"... ........ ...... ...... .....",
"... ........ ....... ..... .....",
"... ........ ....... ..... .....",
"... ........ ....... ..... .....",
"... ........ ........ .... .....",
"... ........ ........ .... .....",
"... ........ ........ .... .....",
"... ........ ........ .... .....",
"... ........ ........ ...     ..",
"... ........ ........ ...     ..",
"... ........ ....... ....     ..",
"... ........ ....... ....     ..",
"... ........ ....... ....     ..",
"... ........ ....... ....     ..",
".... ....... ....... ....     ..",
".... ....... ....... ..... .....",
".... ....... ....... ..... .....",
"...  ....... ....... ..... .....",
"... ....... ........ ..... .....",
"... ....... ........ ..... .....",
"... ....... ........ ..... .....",
"... ....... ........ ..... .....",
"... .......  ....... ..... .....",
"... ........ ....... ..... .....",
"... ........ ....... ..... .....",
"... ........ ....... ..... .....",
"... ........ ....... ..... ....."
};
