/* XPM */
static char *result[] = {
/* columns rows colors chars-per-pixel */
"32 32 5 1 ",
"  c #173908",
". c #205509",
"X c #35B100",
"o c #5B9D3F",
"O c #94FE67",
/* pixels */
"ooooo.oooo.oOOoooOOOooXooooXXXoo",
".oooo..oooo..oOOOoXoooXXXXX..ooo",
"...ooo..ooooXXoOXXooooo.XXooo.oo",
"oo..ooo.oooooXXXX....o.oXoo.oooo",
"XXX.ooXooo..ooXXoooo...ooo .oooo",
"oooXoXX...ooooooooooo.oooO  oo o",
"oooXXXoOO.oOOo..ooo.oOOoOOo .  o",
"ooooXXooOOoOooo.ooo. oOOOoo   oo",
"o..oXooooOOOo   .o  ..oOOoo  .oo",
"oo.ooooXoOOooooo   oooooooo oooo",
"ooXXXoXXo.Oo ooXo ooXXooXo.ooooo",
"oo.oXXX...ooo  oXXooX..oXXooXXoo",
" ooooXXo.oXXo. o XXoXo...XoXXooo",
" o ooXoo.oX.o.o  oXXooo..oXX..oo",
"  oooXOoOOX.O.o ooXXooooooXXo..o",
"  ooooOOOXXoOOo Ooo.. o.ooXXoooo",
"o o.oooOoXoooOoOOoooOo ..o  ooOo",
"oooXXooooXXooOOOOOoOOo  o  oooOo",
"oooo.XooXXXoooO.oOOOooo o OOOOoo",
"oooo.OXX....XX..ooOOooo  ooOOooo",
"OOooOOXXoXoXX..oooOooo. oooOOooo",
"oOoOOoXXoXXX..oo..Ooo.oo  ooo   ",
"oOOOooooooXOooOOOo....oOoo  o oo",
"oooooooooXXOOOoooOOO.ooOooo  ooo",
"oooooo..ooooOOooooo.OoOO.oo ..oo",
"o.OO...oo..oOoooooo.OOOo.. XXooX",
"oooOOoooOo.XXXX..ooooOooo. .XXXX",
"ooooOOoO..oo.oXXooXXXXXoXXXooXXo",
".o..oOO..ooo...Xo.Xo.oX.XooooXX.",
"o.oooO..ooooo..XXXo..oXX.o..oX..",
"o.oooO.oooooo.ooXXo.ooXX...ooX.o",
"ooooooooooooooooXooooooXo.ooo..o"
};
