/* XPM */
static char *result[] = {
/* columns rows colors chars-per-pixel */
"64 64 4 1 ",
"  c black",
". c #A26D1E",
"X c #C88625",
"o c #D39740",
/* pixels */
"oooooooooooooooooooooooooooooooooooooooooooooooooooooooooooooooo",
"oXXXXXXXX                                               XXXXXXXX",
"oX......X                                               X......X",
"oX......X                                               X......X",
"oX......X                                               X......X",
"oX......X                                               X......X",
"oX......X                                               X......X",
"oX......X                                               X......X",
"oX......X                                               X......X",
"oX......X                                               X......X",
"oX......X                                               X......X",
"oX......X                                               X......X",
"oX......X                                               X......X",
"oX......X                                               X......X",
"oX......X                                               X......X",
"oX......X                                               X......X",
"oX......X                                               X......X",
"oX......X                                               X......X",
"oX......X                                               X......X",
"oX......XXXXXXXXXXXXXXXXXXXXXXXXXXXXXXXXXXXXXXXXXXXXXXXXX......X",
"oX......X...............................................X......X",
"oX......X...............................................X......X",
"oX......X...............................................X......X",
"oX......X...............................................X......X",
"oX......X...............................................X......X",
"oX......XXXXXXXXXXXXXXXXXXXXXXXXXXXXXXXXXXXXXXXXXXXXXXXXX......X",
"oX......X                                               X......X",
"oX......X                                               X......X",
"oX......X                                               X......X",
"oX......X                                               X......X",
"oX......X                                               X......X",
"oX......X                                               X......X",
"oX......X                                               X......X",
"oX......X                                               X......X",
"oX......X                                               X......X",
"oX......X                                               X......X",
"oX......X                                               X......X",
"oX......X                                               X......X",
"oX......X                                               X......X",
"oX......XXXXXXXXXXXXXXXXXXXXXXXXXXXXXXXXXXXXXXXXXXXXXXXXX......X",
"oX......X...............................................X......X",
"oX......X...............................................X......X",
"oX......X...............................................X......X",
"oX......X...............................................X......X",
"oX......X...............................................X......X",
"oX......XXXXXXXXXXXXXXXXXXXXXXXXXXXXXXXXXXXXXXXXXXXXXXXXX......X",
"oX......X                                               X......X",
"oX......X                                               X......X",
"oX......X                                               X......X",
"oX......X                                               X......X",
"oX......X                                               X......X",
"oX......X                                               X......X",
"oX......X                                               X......X",
"oX......X                                               X......X",
"oX......X                                               X......X",
"oX......X                                               X......X",
"oX......XXXXXXXXXXXXXXXXXXXXXXXXXXXXXXXXXXXXXXXXXXXXXXXXX......X",
"oX......X...............................................X......X",
"oX......X...............................................X......X",
"oX......X...............................................X......X",
"oX......X...............................................X......X",
"oX......XXXXXXXXXXXXXXXXXXXXXXXXXXXXXXXXXXXXXXXXXXXXXXXXX......X",
"oX......X                                               X......X",
"oXXXXXXXXoooooooooooooooooooooooooooooooooooooooooooooooXXXXXXXX"
};
