/* XPM */
static char *result[] = {
/* columns rows colors chars-per-pixel */
"64 64 11 1 ",
"  c black",
". c #736122",
"X c #B04F10",
"o c #F07705",
"O c #9D831B",
"+ c #AE8E13",
"@ c #EEAA07",
"# c #F4CF0E",
"$ c #E6C03E",
"% c #E156A6",
"& c white",
/* pixels */
"$$$$$$$$$$$$$$$$$$$                          $$$$$$$$$$$$$$$$$$$",
"$$$$$$$$$$$$$$$$$$$                          $$$$$$$$$$$$$$$$$$$",
"$$$$$$$$$$$$$$$$$$$                          $$$$$$$$$$$$$$$$$$$",
"$$$$$$$$$$$$$         XXXXooooooooooooXXXX      $$$$$$$$$$$$$$$$",
"$$$$$$$$$$$$$         XXXXooooooooooooXXXX      $$$$$$$$$$$$$$$$",
"$$$$$$$$$$$$$         XXXXooooooooooooXXXX      $$$$$$$$$$$$$$$$",
"$$$$$$$$$$      XXXoooooooooooooooooooooooooo      $$$$$$$$$$$$$",
"$$$$$$$$$$      XXXoooooooooooooooooooooooooo      $..$$$$$$$$$$",
"$$$$$$$$$$      XXXoooooooooooooooooooooooooo      ...$$$$$$$$$$",
"$$$$$$$$$$      XXXoooooooooooooooooooooooooo      ...$$$$$$$$$$",
"$$$$$$       XXXoooooo#######################oooXXX   $$$$$$$$$$",
"$$$$$$       XXXoooooo#######################oooXXX   $$$$$$$$$$",
"$$$$$$       XXXoooooo#######################oooXXX   .$$$$$$$$$",
"$$$$$$    XXXoooooo#######+++OOO###+++OOOO######ooo   .......$$$",
"$$$$$$    XXXoooooo#######+++OOO###+++OOOO######ooo   .......$$$",
"$$$$$$    XXXoooooo#######+++OOO###+++OOOO######ooo   ......$$$$",
"$$$$$$    ooooooooo#######&&&+++###&&&++++######oooXXX    $$$$$$",
"$$$$$$    ooooooooo#######&&&+++###&&&++++######oooXXX    $$$$$$",
"$$$$$$    ooooooooo#######&&&+++###&&&++++######oooXXX    $$$$$$",
"$$$       ooooooooo#######+++   ###+++    ######@@@ooo    $$$$$$",
"$$$       ooooooooo#######+++   ###+++    ######@@@ooo    $$$$$$",
"$$$       ooooooooo#######+++   ###+++    ######@@@ooo    $$$$$$",
"$$$       ooooooooo#######+++   ###+++    ######@@@ooo    $$$$$$",
"$$$   XXXXoooooo@@@#######+++   ###+++    #########ooo       $$$",
"$$$   XXXXoooooo@@@#######+++   ###+++    #########ooo       $$$",
"$$$   XXXXoooooo@@@#######+++   ###+++    #########ooo       $$$",
"   XXXooooooo######%%%%%%%+++   ###+++    %%%######oooooooXXX   ",
"   XXXooooooo######%%%%%%%+++   ###+++    %%%######oooooooXXX   ",
"   XXXooooooo######%%%%%%%+++   ###+++    %%%######oooooooXXX   ",
"   XXXooooooo#########################################ooooXXX   ",
"   XXXooooooo#########################################ooooXXX   ",
"   XXXooooooo#########################################ooooXXX   ",
"   XXXooooooo#########################################ooooXXX   ",
"   XXXooooooo#########################################ooooXXX   ",
"   XXXooooooo#########################################ooooXXX   ",
"   XXXooooXXX@@@###################################@@@XXXXXXX   ",
"   XXXooooXXX@@@###################################@@@XXXXXXX   ",
"   XXXooooXXX@@@###################################@@@XXXXXXX   ",
"   XXXooooXXX@@@###################################@@@XXXXXXX   ",
"$$$   XXXXXXXooo@@@@@@@@@@################@@@@@@@@@XXXXXXX   $$$",
"$$$   XXXXXXXooo@@@@@@@@@@################@@@@@@@@@XXXXXXX   $$$",
"$$$   XXXXXXXooo@@@@@@@@@@################@@@@@@@@@XXXXXXX   $$$",
"$$$...    XXXooooooooooooo@@@@@@@@@@@@@@@@oooooooooXXX    $$$$$$",
"$$$$..    XXXooooooooooooo@@@@@@@@@@@@@@@@oooooooooXXX    $$$$$$",
"$$$$$$    XXXooooooooooooo@@@@@@@@@@@@@@@@oooooooooXXX    $$$$$$",
"$$$   ####&&&#########ooooooooooooooooooooooo#########&&&&   $$$",
"$$$   ####&&&#########ooooooooooooooooooooooo#########&&&&   $$$",
"$$$   ####&&&#########ooooooooooooooooooooooo#########&&&&   $$$",
"   @@@################@@@@oooXXXXXXooo@@@@################@@@   ",
"   @@@################@@@@oooXXXXXXooo@@@@################@@@   ",
"   @@@################@@@@oooXXXXXXooo@@@@################@@@   ",
"   @@@################@@@@oooXXXXXXooo@@@@################@@@   ",
"   @@@@@@@@@@@@@@@@@@@@@@@@@@      @@@@@@@@@@@@@@@@@@@@@@@@@@   ",
"   @@@@@@@@@@@@@@@@@@@@@@@@@@      @@@@@@@@@@@@@@@@@@@@@@@@@@   ",
"   @@@@@@@@@@@@@@@@@@@@@@@@@@      @@@@@@@@@@@@@@@@@@@@@@@@@@   ",
"$$$                          ......                          $$$",
"$$$                          .....$                          $$$",
"$$$                          ..$$$$                          $$$",
"$$$$$$$$$$$$$$$$$$$$$$$$$$$$..$$$$$$$$$$$$$$$$$$$....$$$$$$$$$$$",
"$$$$$$$$$$$$$$$$$$$$$$$$$$$$$$$$$$$$$$$$$$$$$$$$$$$$$$$$$$$$$$$$",
"$$$$$$$$$$$$$$$$$$$$$$$$$$$$$$$$$$$$$$$$$$$$$$$$$$$$$$$$$$$$$$$$",
"$$$$$$$$$$$$$$$$$$$$$$$$$$$$$$$$$$$$$$$$$$$$$$$$$$$$$$$$$$$$$$$$",
"$$$$$$$$$$$$$$$$$$$$$$$$$$$$$$$$$$$$$$$$$$$$$$$$$$$$$$$$$$$$$$$$",
"$$$$$$$$$$$$$$$$$$$$$$$$$$$$$$$$$$$$$$$$$$$$$$$$$$$$$$$$$$$$$$$$"
};
