/* XPM */
static char *result[] = {
/* columns rows colors chars-per-pixel */
"20 18 10 1 ",
"  c black",
". c #B04F10",
"X c #F07705",
"o c #9D831B",
"O c #AE8E13",
"+ c #EEAA07",
"@ c #F4CF0E",
"# c #E156A6",
"$ c white",
"% c None",
/* pixels */
"%%%%%%        %%%%%%",
"%%%%   .XXXX.  %%%%%",
"%%%  .XXXXXXXX  %%%%",
"%%  .XX@@@@@@@X. %%%",
"%% .XX@@Oo@Oo@@X %%%",
"%% XXX@@$O@$O@@X. %%",
"%  XXX@@O @O @@+X %%",
"% .XX+@@O @O @@@X  %",
" .XX@@##O @O #@@XX. ",
" .XX@@@@@@@@@@@@@X. ",
" .XX@@@@@@@@@@@@@X. ",
" .X.+@@@@@@@@@@@+.. ",
"% ..X+++@@@@@+++.. %",
"%% .XXXX+++++XXX. %%",
"% @$@@@XXXXXXX@@@$ %",
" +@@@@@+X..X+@@@@@+ ",
" ++++++++  ++++++++ ",
"%        %%        %"
};
