/* XPM */
static char *result[] = {
/* columns rows colors chars-per-pixel */
"64 64 195 2 ",
"   c #0F0000",
".  c #150202",
"X  c #1C0304",
"o  c #1F0D0D",
"O  c #240004",
"+  c #2C0002",
"@  c #2C000C",
"#  c #29070D",
"$  c #34000C",
"%  c #3B000B",
"&  c #33080E",
"*  c #380714",
"=  c #2A1213",
"-  c #2B1C1D",
";  c #3D111C",
":  c #271C22",
">  c #291C20",
",  c #2F2023",
"<  c #352525",
"1  c #3C2929",
"2  c #46000B",
"3  c #430116",
"4  c #490319",
"5  c #4C051B",
"6  c #54001B",
"7  c #5B031A",
"8  c #52101F",
"9  c #63011C",
"0  c #5A0624",
"q  c #421921",
"w  c #581228",
"e  c #501830",
"r  c #640022",
"t  c #6C0D26",
"y  c #770827",
"u  c #75122E",
"i  c #7C1437",
"p  c #751A3A",
"a  c #412929",
"s  c #5D293D",
"d  c #453A3A",
"f  c #6F2130",
"g  c #6D263B",
"h  c #6D2B3F",
"j  c #736122",
"k  c #6D2D4A",
"l  c #6C3E50",
"z  c #764A5B",
"x  c #810523",
"c  c #8E0024",
"v  c #91072A",
"b  c #890431",
"n  c #9E0331",
"m  c #9F063A",
"M  c #98143A",
"N  c #AC023C",
"B  c #AE0D3D",
"V  c #BC023C",
"C  c #B60A3F",
"Z  c #A1173B",
"A  c #9D1E44",
"S  c #951156",
"D  c #BD0D45",
"F  c #B60B4B",
"G  c #AC1B43",
"H  c #A81A4C",
"J  c #B21D4B",
"K  c #AC1753",
"L  c #BD1D53",
"P  c #982841",
"I  c #8D304D",
"U  c #9F2653",
"Y  c #873B58",
"T  c #983554",
"R  c #B0294B",
"E  c #AB2B54",
"W  c #B62456",
"Q  c #BC255C",
"!  c #AD345D",
"~  c #BB3C57",
"^  c #813E60",
"/  c #A53967",
"(  c #BB3D6E",
")  c #C9094C",
"_  c #D1034A",
"`  c #C6134D",
"'  c #C10852",
"]  c #C11D56",
"[  c #D51355",
"{  c #C3255B",
"}  c #C41C62",
"|  c #D41460",
" . c #EA0D63",
".. c #EC1F64",
"X. c #EF1C75",
"o. c #F31575",
"O. c #FC1E7D",
"+. c #CE2A69",
"@. c #D32A63",
"#. c #CD3763",
"$. c #D33C6D",
"%. c #D52870",
"&. c #E12564",
"*. c #F42C6F",
"=. c #EF2373",
"-. c #8E4F66",
";. c #9B5564",
":. c #8E4D70",
">. c #8F5774",
",. c #AD4669",
"<. c #A1496C",
"1. c #AA5167",
"2. c #A84E72",
"3. c #A45175",
"4. c #A45778",
"5. c #A3637D",
"6. c #CA476C",
"7. c #C54A7B",
"8. c #CB4C7D",
"9. c #C8557A",
"0. c #D8577A",
"q. c #E2477C",
"w. c #E05E7F",
"e. c #E6C03E",
"r. c #DA3E8A",
"t. c #EE3A82",
"y. c #A84D83",
"u. c #A66081",
"i. c #BD7B93",
"p. c #DE4186",
"a. c #C35881",
"s. c #D55786",
"d. c #E45B82",
"f. c #CE6682",
"g. c #C1758B",
"h. c #D86599",
"j. c #DF769E",
"k. c #E8658A",
"l. c #E96695",
"z. c #E56B9B",
"x. c #EB6D9B",
"c. c #F46C9B",
"v. c #FB6D9D",
"b. c #E67196",
"n. c #E97297",
"m. c #EE729D",
"M. c #F2759E",
"N. c #D155A1",
"B. c #FF5EA6",
"V. c #E86EA3",
"C. c #F86DA2",
"Z. c #E974A7",
"A. c #F474A3",
"S. c #F971A0",
"D. c #F37AA6",
"F. c #FD7CA2",
"G. c #F376AB",
"H. c #FD7BA9",
"J. c #FA67B8",
"K. c #E67EB1",
"L. c #F47BB3",
"P. c #E3849B",
"I. c #DA82AF",
"U. c #C991AF",
"Y. c #ED87AE",
"T. c #F281AB",
"R. c #E589B3",
"E. c #FE85B2",
"W. c #F984B5",
"Q. c #FD8CBC",
"!. c #EE91BC",
"~. c #FF97BC",
"^. c #F48EC0",
"/. c #FE8CC3",
"(. c #FF93C3",
"). c #F594CC",
"_. c #FD95CB",
"`. c #F19ACB",
"'. c #FD9ACC",
"]. c #F99AD3",
"[. c #FE9DD4",
"{. c #FC9EDC",
"}. c #F2A0CC",
"|. c #F3A5D3",
" X c #FEA1D6",
".X c #F2A2DC",
"XX c #FEA3DB",
"oX c #F3B5D7",
"OX c #FEB2DF",
"+X c #FDA4E1",
"@X c #FFA8E6",
"#X c #FFBFE6",
"$X c #FFBAF9",
"%X c #FFC8FF",
"&X c #FFD3F5",
/* pixels */
"e.e.e.e.e.e.e.e.e.e.e.e.e.e.e.e.e.e.e.e.e.e.e.e.e.e.e.e.e.e.e.e.e.e.e.e.e.e.e.e.e.e.e.e.e.e.e.e.e.e.e.e.e.e.e.e.e.e.e.e.e.e.e.e.",
"e.e.e.e.e.e.e.e.e.e.e.e.e.e.e.e.e.e.e.e.e.e.e.e.e.e.e.e.e.e.e.e.e.e.e.e.e.e.e.e.e.e.e.e.e.e.e.e.e.e.e.e.e.e.e.e.e.e.e.e.e.e.e.e.",
"e.e.e.e.e.e.e.e.e.e.e.e.e.e.e.e.e.e.e.e.e.e.e.e.e.e.e.e.e.e.e.e.e.e.e.e.e.e.e.e.e.e.e.e.e.e.e.e.e.e.e.e.e.e.e.e.e.e.e.e.e.e.e.e.",
"e.e.e.e.e.e.e.e.e.e.e.e.e.e.e.e.e.e.e.e.e.e.e.e.e.e.e.e.e.e.e.e.e.e.e.e.e.e.e.e.e.e.e.e.e.e.e.e.e.e.e.e.e.e.e.e.e.e.e.e.e.e.e.e.",
"e.e.e.e.e.e.e.e.e.e.e.e.e.e.e.e.e.e.e.e.e.e.e.e.e.e.e.e.e.e.e.e.e.e.e.e.e.e.e.e.e.e.e.e.e.e.e.e.e.e.e.e.e.e.e.e.e.e.e.e.e.e.e.e.",
"e.e.e.e.e.e.e.e.e.e.e.e.e.e.e.e.e.e.e.e.j j e.e.e.e.e.e.e.e.e.e.e.e.e.e.e.e.e.e.e.e.e.e.e.e.e.e.e.e.e.e.e.e.e.e.e.e.e.e.e.e.e.e.",
"e.e.e.e.e.e.e.e.e.e.e.e.e.e.e.e.e.e.e.e.j j - - < < - - - > > : > > > > , > - - e.e.e.e.e.e.e.e.e.e.e.e.e.e.e.e.e.e.e.e.e.e.e.e.",
"e.e.e.e.e.e.e.e.e.e.e.e.e.e.e.e.e.e.e.j j j - - , < - - > > > : > > > > , > - - e.e.e.e.e.e.e.e.e.e.e.e.j j e.e.e.e.e.e.e.e.e.e.",
"e.e.e.e.e.e.e.e.e.e.e.e.e.e.e.e.e.e.e.j . . * ; Y l Y ^ >.>.>.>.:.:.^ ^ k k + O < < e.e.e.e.e.e.e.e.e.j j j e.e.e.e.e.e.e.e.e.e.",
"e.e.e.e.e.e.e.e.e.e.e.e.e.e.e.e.e.e.j j . . * ; Y Y -.^ :.>.>.>.:.:.^ ^ k k O O < < e.e.e.e.e.e.e.e.e.j j j e.e.e.e.e.e.e.e.e.e.",
"e.e.e.e.e.e.e.e.e.e.e.e.e.e.e.e.. X @ @ e e 4.u.!.!.'.~.@XOXOXOXOX|.].`.I.I.3.3.w w O O e.e.e.e.e.e.j j j j e.e.e.e.e.e.e.e.e.e.",
"e.e.e.e.e.e.e.e.e.e.e.e.e.e.e.e.. . @ @ e e u.u.!.!.'.`.OXOXOXoX.XXX`.`.I.I.3.3.e w O + e.e.e.e.e.e.j j j j e.e.e.e.e.e.e.e.e.e.",
"e.e.e.e.e.e.e.e.e.e.e.e.e.e.X X w w <.<.I.I. X XXXXX X[.`..X.X.X.X.X{..XXX X'._.Z.j.Y Y & &     e.j j j j j j e.e.e.e.e.e.e.e.e.",
"e.e.e.e.e.e.e.e.e.e.e.e.e.e.X O w w <.<.K.I. X XXXXX{.[..X]..X.X+X.X+X{.XXXX_.].j.j.Y Y & &   . j j j j j j j j j j j j j e.e.e.",
"e.e.e.e.e.e.e.e.e.e.e.e.e.e.* * 2.2.Q.Q..X].[.[.{.{. X{.{.{.].{..XXXXXXXXXXX/ / 9.9.~.~.;.;.+ + j j j j j j j j j j j j j e.e.e.",
"e.e.e.e.e.e.j j j j j j j j * * 2.2.Q.!. XXX[.[.{.{.{.XX{.{..X{.XX.XXX.XXXXX/ / u.s.~.~.;.;.+ + j j j j j j j j j j j j e.e.e.e.",
"e.e.e.e.e.e.j j j j j j = = s e R.K.{.{. X X X X X}. XXXOXXX[.XX X X[.].|.|.#X#X5.5.I h P.P.f f 1 1 j j j j j j j j e.e.e.e.e.e.",
"e.e.e.e.e.e.e.j j j j j = = s s K.R.[.[.XXXX X X X X XXXOXXXXX{.XX X[.].|.|.#X#X5.5.h h P.P.f f 1 1 j j j j j j e.e.e.e.e.e.e.e.",
"e.e.e.e.e.e.e.e.e.j     $ $ 4.4.{.[.[.]. XXX XXX X X`.(.!.^.Z.Z.h.h.Z.K.}.}.&X&X-.-.% % f.f.1.1.& = j j j j j j j e.e.e.e.e.e.e.",
"e.e.e.e.e.e.e.e.e.e.    $ @ 4.4.[.[.[.[. X X X X X'.`.`.Q.!.Z.Z.h.h.Z.K.}.}.&X&X-.-.% % f.f.1.1.; = j j j j j j j e.e.e.e.e.e.e.",
"e.e.e.e.e.e.e.e.e.e.o o p g Z.Z.@X+X{.{.XX{. XXX[.[._.).K.K.h.h.s.8.s.s.T.W.Y.Y.,.,.u u u u g.g.s s e.e.j j j j j j e.e.e.e.e.e.",
"e.e.e.e.e.e.e.e.e.e.o o p g Z.Z.+X+X{.{.XXXXXX X[.[.).(.K.K.h.h.8.a.s.s.W.W.Y.Y.,.,.u y u u g.g.d s e.e.e.e.j j j j e.e.e.e.e.e.",
"e.e.e.e.e.e.e.e.e.e.X X Y T /.W.+X+X{.{.+XXX{.[.[. X X X].[._.'./.L.N.l.8.8.Q.Q.Q.Q.U U 2 2 i.i.z l e.e.e.e.e.e.j j e.e.e.e.e.e.",
"e.e.e.e.e.e.e.e.e.e.o X I T Q.Q.{.+X{.{.+X+X X X[. XXX X[. X_.'.L.L.l.l.8.8.Q.Q.Q.Q.U U 2 2 i.i.z l e.e.e.e.e.e.e.e.e.e.e.e.e.e.",
"e.e.e.e.e.e.e.e.e.e.X X 3.3.(.).+X{.{.{.).).{.{.{.{.{.{.XX+X[.[.{.{.L.L.} Q %.+.r.r.S S * * U.U.z z e.e.e.e.e.e.e.e.e.e.e.e.e.e.",
"e.e.e.e.e.e.e.e.e.e.X X 2.2._.(.{.+X.X{.).).{.].{.{.{.{.XX X[.[.{.{.L.L.Q Q +.+.r.p.S S * * U.U.z z e.e.e.e.e.e.e.e.e.e.e.e.e.e.",
"e.e.e.e.e.e.e.e.e.e.. o 3.3.'.).+X{.+X+X).)._.].]._._._._._.'.'.[.[.G.G.K K p.p.J.J.N.N.y.y.oXoXz z e.e.e.e.e.e.e.e.e.e.e.e.e.e.",
"e.e.e.e.e.e.e.e.e.j . . 3.3._.'.+X+X+X.X).)._._._.[._.[._._._.'.'.[.G.G.K U p.p.J.J.N.N.y.y.oXoXz z e.e.e.e.e.e.e.e.e.e.e.e.e.e.",
"e.e.e.e.e.e.e.e.e.j . o :.<.(.Q.+X{.+X+X[.[._._././././.(.(.Q.Q.E.H.s.s.! Q )./.$X$X@X@X X X!.R.g g e.e.e.e.e.e.e.e.e.e.e.e.e.e.",
"e.e.e.e.e.e.e.e.e.j   o <.<.(.~.XX+X+X+X[.[._._./._.(./.(.'.Q.Q.F.F.s.s.W U /./.$X$X@X@X XOXR.R.g g e.e.e.e.e.e.e.e.e.e.e.e.e.e.",
"e.e.e.e.e.e.e.e.e.e.. . I I Y.T.].'. XXX[.{._._./././.(.Q.Q.F.F.d.k.6.6.7.p.L./.OXXX]. X~.!./ ! i i 6 6 + + X O e.e.e.e.e.e.e.e.",
"e.e.e.e.e.e.e.e.e.e.. . I I K.L.'.].XXXX{.{._._././././.Q.~.F.F.w.w.6.6.9.a.L./.XXXX X]./.Q.! / i i 6 6 + + O O e.e.e.e.e.e.e.e.",
"e.e.e.e.e.e.e.e.e.e.X X R T M.n.W.L._._.[. X XXX(./.b.z.0.0.R E R R 0.0.T.E.~.}.[.[././.V.z.M.F.W W m m { { M A * ; e.e.e.e.e.e.",
"e.e.e.e.e.e.e.e.e.e.o o T T n.M.L.Y./.(.[. XXXXX/.(.z.z.s.0.E E R R 0.0.E.E.}.}.{.XX/./.V.V.M.M.W W m m { { A M ; ; e.e.e.e.e.e.",
"e.e.e.e.e.e.e.e.e.e.2 2 P P w.w.G.G.K.L.W.L.Q.(.Q.~.E.E.M.M.k.k.k.k.M.M.(.~.Q.E.L.J.G.V.m.A.c.v.@.@.` ` *.*.Q { * 3 e.e.e.e.e.e.",
"e.e.e.e.e.e.e.e.e.e.q 2 P P w.w.D.G.L.L.L.T./.(.(.(.E.E.M.A.k.k.k.k.T.T.(.~.Q.Q.L.L.V.G.m.m.c.c.@.@.` [ *.*.{ L * 3 e.e.e.e.e.e.",
"e.e.e.e.e.e.e.e.9 r b b x x ~ ~ A.v.V.C.V.z.L.K.E.E.E.E.Q.~.Q.E.E.Q.E.E.E.H.A.A.V.V.A.C.k.c.#.#.D D [ [ ....L L 5 5 e.e.e.e.e.e.",
"e.e.e.e.e.e.e.e.r r b b x x ~ ~ v.A.C.V.z.z.D.D.E.E.W.E.Q.Q.Q.Q.E.E.E.E.E.E.A.G.V.V.A.V.c.k.#.#.D D [ [ ....L L 5 5 e.e.e.e.e.e.",
"e.e.e.e.e.e.3 * ( ( q.q.v v M M d.w.c.c.m.M.m.m.m.m.m.m.z.l.V.M.A.A.V.c.C.x.A.A.C.A.c.c.6.$.B B V V [ [ &.&.G H * $ e.e.e.e.e.e.",
"e.e.e.e.e.e.3 2 ( ( q.q.v v v M d.p.c.c.m.m.Z.A.x.x.m.x.x.l.M.x.A.A.x.x.x.C.H.A.S.C.l.v.6.$.C C V N [ [ &.&.H A * * e.e.e.e.e.e.",
"e.e.e.e.e.e.% % 8.8.%X%Xq.q.c c B Z w.0.M.P.v.T.S.S.v.v.v.v.v.v.c.v.M.c.v.c.F.H.S.C.$.$.N N V V _ _ ) ) m m i p @ O e.e.e.e.e.e.",
"e.e.e.j j j % 2 y.2.%X%Xq.p.c c Z Z 0.w.M.M.T.v.S.S.v.v.v.v.v.v.v.v.v.c.M.v.F.H.S.S.%.$.N B V V _ _ ) ) m m p i # @ e.e.e.e.e.e.",
"e.e.e.j j j 5 5 7.r.B.B.p.p.[ D n n Z B A M ~ R 0.a.n.n.n.n.n.n.b.b.b.b.9.1.E T A Z B B C C D D ` ` J J u u $ $ e.e.e.e.e.e.e.e.",
"e.e.e.e.j j w 5 7.+.B.B.*.p.) D n n Z R A P ! ! a.0.n.n.n.n.n.n.b.b.j.b.9.9.T R N Z B G C C D ` ] C J H u u $ $ e.e.e.e.e.e.e.e.",
"e.e.e.e.e.e.0 0 %.%.o.o.t.o.t.o.| | N N x y 9 9 t w h h h h g g f g g g 8 8 7 7 y x G G J J G M t t 7 8 @ @ e.e.e.e.e.e.e.e.e.e.",
"e.e.e.e.e.e.0 0 %.%.o.o.o.o.o.t.| | N F y x 9 9 w w h h h h h g g g g h 8 8 7 7 x y G G D J Z M t t 8 2 @ @ j j j j j j e.e.e.e.",
"e.e.e.e.e.j 4 * ' } o.t.o.o.o.t.X.X.' ' H H 9 9 = # 1 1 e a a a a a a a 1 1 * & t t y y y y 7 9 q q j j j j j j j j j j e.e.e.e.",
"e.e.e.e.e.j 4 4 | | t.o.t.o.t.O.X.X.' ' H G 9 9 o = 1 a a a a a a a 1 1 1 1 3 ; t t y y y y 7 7 q q j j j j j j j j e.e.e.e.e.e.",
"e.e.e.e.j j @ @ i i F F =.=. . ._ _ ' [ L L 9 9 e.e.e.e.j j j j j j j j j j d d . . X X . . . . j j j j j j j e.e.e.e.e.e.e.e.e.",
"e.e.e.e.j j @ @ p S F F =.=. . ._ _ ' ' L } 9 9 e.e.e.e.e.e.j j j j j j j j d d . . X O . . . . j j j j j e.e.e.e.e.e.e.e.e.e.e.",
"e.e.e.e.j j j e.$ % i i Q +.+.+.L ] W L / ! e.e.e.e.e.e.e.e.e.e.j j j j j j j j j j j j j j j j j j e.e.e.e.e.e.e.e.e.e.e.e.e.e.",
"e.e.e.e.e.e.e.e.$ $ i i Q { @.] L L W L / ! e.e.e.e.e.e.e.e.e.e.j j j j j j j j j j j j j j j j j j e.e.e.e.e.e.e.e.e.e.e.e.e.e.",
"e.e.e.e.e.e.e.e.e.e.@ & 4 4 7 0 6 5 4 5 3 3 e.e.e.e.e.e.e.e.e.j j j j j j j j j j j j j j j j j j j j e.e.e.e.e.e.e.e.e.e.e.e.e.",
"e.e.e.e.e.e.e.e.e.e.$ @ 3 4 0 7 6 6 5 4 3 3 e.e.e.e.e.e.e.e.j j j j j j j j j j j j j j j j j j j j j e.e.e.e.e.e.e.e.e.e.e.e.e.",
"e.e.e.e.e.e.e.e.e.e.e.e.e.e.e.e.e.e.e.e.e.e.e.e.e.e.e.e.e.e.j j j j j j j j j e.e.j j j j j j j j j j j e.e.e.e.e.e.e.e.e.e.e.e.",
"e.e.e.e.e.e.e.e.e.e.e.e.e.e.e.e.e.e.e.e.e.e.e.e.e.e.e.e.e.j j j j j j j e.e.e.e.e.e.e.j j j j j j j j j e.e.e.e.e.e.e.e.e.e.e.e.",
"e.e.e.e.e.e.e.e.e.e.e.e.e.e.e.e.e.e.e.e.e.e.e.e.e.e.e.e.j j j j j j e.e.e.e.e.e.e.e.e.e.e.j j j j j j j j e.e.e.e.e.e.e.e.e.e.e.",
"e.e.e.e.e.e.e.e.e.e.e.e.e.e.e.e.e.e.e.e.e.e.e.e.e.e.e.e.j j j e.e.e.e.e.e.e.e.e.e.e.e.e.e.e.e.j j j j j j e.e.e.e.e.e.e.e.e.e.e.",
"e.e.e.e.e.e.e.e.e.e.e.e.e.e.e.e.e.e.e.e.e.e.e.e.e.e.e.e.j j e.e.e.e.e.e.e.e.e.e.e.e.e.e.e.e.e.e.e.j j j j e.e.e.e.e.e.e.e.e.e.e.",
"e.e.e.e.e.e.e.e.e.e.e.e.e.e.e.e.e.e.e.e.e.e.e.e.e.e.e.e.e.e.e.e.e.e.e.e.e.e.e.e.e.e.e.e.e.e.e.e.e.e.e.e.e.e.e.e.e.e.e.e.e.e.e.e.",
"e.e.e.e.e.e.e.e.e.e.e.e.e.e.e.e.e.e.e.e.e.e.e.e.e.e.e.e.e.e.e.e.e.e.e.e.e.e.e.e.e.e.e.e.e.e.e.e.e.e.e.e.e.e.e.e.e.e.e.e.e.e.e.e.",
"e.e.e.e.e.e.e.e.e.e.e.e.e.e.e.e.e.e.e.e.e.e.e.e.e.e.e.e.e.e.e.e.e.e.e.e.e.e.e.e.e.e.e.e.e.e.e.e.e.e.e.e.e.e.e.e.e.e.e.e.e.e.e.e.",
"e.e.e.e.e.e.e.e.e.e.e.e.e.e.e.e.e.e.e.e.e.e.e.e.e.e.e.e.e.e.e.e.e.e.e.e.e.e.e.e.e.e.e.e.e.e.e.e.e.e.e.e.e.e.e.e.e.e.e.e.e.e.e.e.",
"e.e.e.e.e.e.e.e.e.e.e.e.e.e.e.e.e.e.e.e.e.e.e.e.e.e.e.e.e.e.e.e.e.e.e.e.e.e.e.e.e.e.e.e.e.e.e.e.e.e.e.e.e.e.e.e.e.e.e.e.e.e.e.e."
};
