/* XPM */
static char *result[] = {
/* columns rows colors chars-per-pixel */
"64 64 189 2 ",
"   c #140607",
".  c #1B0002",
"X  c #1C0B0C",
"o  c #1B0C12",
"O  c #240003",
"+  c #2A0205",
"@  c #2C000C",
"#  c #220E0E",
"$  c #33020F",
"%  c #3C090E",
"&  c #360015",
"*  c #3C0514",
"=  c #271919",
"-  c #3A0021",
";  c #381726",
":  c #332525",
">  c #3A2527",
",  c #43000C",
"<  c #4B080A",
"1  c #50000F",
"2  c #420114",
"3  c #440A17",
"4  c #44031B",
"5  c #4D0419",
"6  c #51071D",
"7  c #78020C",
"8  c #7F0E19",
"9  c #611617",
"0  c #4E0B22",
"q  c #560624",
"w  c #5A0C25",
"e  c #56182B",
"r  c #4F0430",
"t  c #461431",
"y  c #591737",
"u  c #6F1B27",
"i  c #631B31",
"p  c #781B3B",
"a  c #502533",
"s  c #59323D",
"d  c #7E272A",
"f  c #662A3A",
"g  c #71273A",
"h  c #736122",
"j  c #581A41",
"k  c #632843",
"l  c #66344B",
"z  c #77394D",
"x  c #653553",
"c  c #4C4545",
"v  c #584C4E",
"b  c #7D4455",
"n  c #85001A",
"m  c #930022",
"M  c #8E162E",
"N  c #97093A",
"B  c #861D32",
"V  c #8C1F3B",
"C  c #9F1B36",
"Z  c #AE0E3F",
"A  c #B30A36",
"S  c #A3133C",
"D  c #852837",
"F  c #94213F",
"G  c #990E46",
"H  c #9F1E4F",
"J  c #BF0844",
"K  c #AA1B46",
"L  c #A11B49",
"P  c #B9194A",
"I  c #A61A55",
"U  c #AA1C5A",
"Y  c #8A3753",
"T  c #963D5A",
"R  c #A12044",
"E  c #A82258",
"W  c #B32B5B",
"Q  c #BA236D",
"!  c #BD3564",
"~  c #C80553",
"^  c #D80857",
"/  c #CA1850",
"(  c #C6235A",
")  c #C3365A",
"_  c #DE1E66",
"`  c #CD1A70",
"'  c #DA236A",
"]  c #CB3964",
"[  c #D52574",
"{  c #C8317B",
"}  c #EC267B",
"|  c #FA2B7C",
" . c #874454",
".. c #844D5E",
"X. c #934459",
"o. c #9B4B63",
"O. c #865163",
"+. c #9F5973",
"@. c #AA4162",
"#. c #AE566B",
"$. c #A1417C",
"%. c #B24B7B",
"&. c #A3587A",
"*. c #B15672",
"=. c #D14F6B",
"-. c #CA4C73",
";. c #D64974",
":. c #CA5077",
">. c #D45378",
",. c #E15574",
"<. c #C56A79",
"1. c #E6C03E",
"2. c #AF4D87",
"3. c #BB538F",
"4. c #A66A88",
"5. c #BF6D86",
"6. c #B5728B",
"7. c #A06F91",
"8. c #AF7097",
"9. c #BD79A0",
"0. c #D55B80",
"q. c #D95D8A",
"w. c #E55D88",
"e. c #FF4E9C",
"r. c #CA6B8A",
"t. c #D96794",
"y. c #C87896",
"u. c #D4799C",
"i. c #E7638D",
"p. c #E76994",
"a. c #F06290",
"s. c #E57A99",
"d. c #F1719C",
"f. c #DF77AA",
"g. c #DA74B4",
"h. c #EC66AC",
"j. c #EA7AA7",
"k. c #F07CA5",
"l. c #FF6EB8",
"z. c #EF7CB0",
"x. c #F27DB4",
"c. c #FF73BA",
"v. c #E5819E",
"b. c #DA85A4",
"n. c #D784B0",
"m. c #DD92B0",
"M. c #EA87A8",
"N. c #F585AB",
"B. c #E490AC",
"V. c #EE85B4",
"C. c #E58CB5",
"Z. c #F484B3",
"A. c #F686BA",
"S. c #F797B8",
"D. c #FE94BD",
"F. c #F9A4BB",
"G. c #D69BC5",
"H. c #E98BC2",
"J. c #FF87C2",
"K. c #FF8DC3",
"L. c #FF8DCD",
"P. c #E499C9",
"I. c #FF95C2",
"U. c #FF9AC1",
"Y. c #FE95CB",
"T. c #F699CB",
"R. c #FE9BCC",
"E. c #FF8BD6",
"W. c #ED98D0",
"Q. c #FF95D3",
"!. c #F698D5",
"~. c #FD9BD2",
"^. c #F49DDA",
"/. c #FE9DDC",
"(. c #FBAAC7",
"). c #FFA3CE",
"_. c #FFA4D1",
"`. c #FFA3DC",
"'. c #F8A8DA",
"]. c #FDABDC",
"[. c #FC9DE1",
"{. c #FDA2E2",
"}. c #FFADE4",
"|. c #FFA9EA",
" X c #FEB5E9",
".X c #FFBEE9",
"XX c #FFB4F3",
"oX c #FFC4F8",
"OX c #FFE0FD",
/* pixels */
"1.1.1.1.1.1.1.1.1.1.1.1.1.1.1.1.1.1.1.1.1.1.1.1.1.1.1.1.1.1.1.1.1.1.1.1.1.1.1.1.1.1.1.1.1.1.1.1.1.1.1.1.1.1.1.1.1.1.1.1.1.1.1.1.",
"1.1.1.1.1.1.1.1.1.1.1.1.1.1.1.1.1.1.1.1.1.1.1.1.1.1.1.1.1.1.1.1.1.1.1.1.1.1.1.1.1.1.1.1.1.1.1.1.1.1.1.1.1.1.1.1.1.1.1.1.1.1.1.1.",
"1.1.1.1.1.1.1.1.1.1.1.1.1.1.1.1.1.1.1.1.1.1.1.1.1.1.1.1.1.1.1.1.1.1.1.1.1.1.1.1.1.1.1.1.1.1.1.1.1.1.1.1.1.1.1.1.1.1.1.1.1.1.1.1.",
"1.1.1.1.1.1.1.1.1.1.1.1.1.1.1.1.1.1.1.1.1.1.1.1.1.1.1.1.1.1.1.1.1.1.1.1.1.1.1.1.1.1.1.1.1.1.1.1.1.1.1.1.1.1.1.1.1.1.1.1.1.1.1.1.",
"1.1.1.1.1.1.1.1.1.1.1.1.1.1.1.1.1.1.1.1.1.1.1.1.1.1.1.1.1.1.1.1.1.1.1.1.1.1.1.1.1.1.1.1.1.1.1.1.1.1.1.1.1.1.1.1.1.1.1.1.1.1.1.1.",
"1.1.1.1.1.1.1.1.1.1.1.1.1.1.1.1.1.1.1.1.h h 1.1.1.1.1.1.1.1.1.1.1.1.1.1.1.1.1.1.1.1.1.1.1.1.1.1.1.1.1.1.1.1.1.1.1.1.1.1.1.1.1.1.",
"1.1.1.1.1.1.1.1.1.1.1.1.1.1.1.1.1.1.1.1.h h 1.1.1.1.1.1.1.1.1.1.1.1.1.1.1.1.1.1.1.1.1.1.1.1.1.1.1.1.1.1.1.1.1.1.1.1.1.1.1.1.1.1.",
"1.1.1.1.1.1.1.1.1.1.1.1.1.1.1.1.1.1.1.h h h h 1.1.1.1.1.1.1.1.1.1.1.1.1.1.1.1.1.1.1.1.1.1.1.1.1.1.1.1.1.h h 1.1.1.1.1.1.1.1.1.1.",
"1.1.1.1.1.1.1.1.1.1.1.1.1.1.1.1.1.1.1.h h h h 1.1.1.1.1.1.1.1.1.1.1.1.1.1.1.1.1.1.1.1.1.1.1.1.1.1.1.1.h h h 1.1.1.1.1.1.1.1.1.1.",
"1.1.1.1.1.1.1.1.1.1.1.1.1.1.1.1.1.1.h h h h h h 1.1.1.1.1.1.1.1.1.1.1.1.1.1.1.1.1.1.1.1.1.1.1.1.1.1.1.h h h 1.1.1.1.1.1.1.1.1.1.",
"1.1.1.1.1.1.1.1.1.1.1.1.1.1.1.1.1.1.h h h h h h 1.1.1.1.1.1.1.1.1.1.1.1.1.1.1.1.1.1.1.1.1.1.1.1.1.1.h h h h 1.1.1.1.1.1.1.1.1.1.",
"1.1.1.1.1.1.1.1.1.1.1.1.1.1.1.1.1.h h h h h h h 1.1.1.1.1.1.1.1.1.1.1.1.1.1.1.1.1.1.1.1.1.1.1.1.1.1.h h h h 1.1.1.1.1.1.1.1.1.1.",
"1.1.1.1.1.1.1.1.1.1.1.1.1.1.1.1.1.h X X X # X o o o X o o o o o X X # # # # X X 1.1.1.1.1.1.1.1.1.h h h h h h 1.1.1.1.1.1.1.1.1.",
"1.1.1.1.1.1.1.1.1.1.1.1.1.1.1.1.h h X X X X X o X o o   o o o = X o # # # # # # 1.1.h h h h h h h h h h h h h h h h h h h 1.1.1.",
"1.1.1.1.1.1.1.1.1.1.1.1.v v c c > > $ $ z z 4.+.7.7.7.7.8.8.9.9.8.8.+.+.X.o.o.o.v v s v h h h h h h h h h h h h h h h h h 1.1.1.",
"1.1.1.1.1.1.h h h h h h v v c c > > $ * z z +.+.7.7.7.7.8.8.9.9.6.6.+.+.o.o.o.o.l z v c h h h h h h h h h h h h h h h h 1.1.1.1.",
"1.1.1.1.1.1.h h h h h h . . a a O.O.&.6.B.C.).T. X XoX.X X Xn.n.b.b.F.F.S.S.T T w w e e ; ; h h h h h h h h h h h h 1.1.1.1.1.1.",
"1.1.1.1.1.1.1.h h h h h   . a e O.O.6.&.C.C.T.T. X.XoXoX X Xn.m.b.B.F.F.S.S.T X.w 9 a a 3 ; h h h h h h h h h h 1.1.1.1.1.1.1.1.",
"1.1.1.1.1.1.1.1.1.h O . f f m.m..X.X].}.].`.'.~.^.^.^.'.P.P.+.+.D D <.<.F.F.T Y g p 5.5.6.6.@ O h h h h h h h h h 1.1.1.1.1.1.1.",
"1.1.1.1.1.1.1.1.1.1.. . f f m.m..X.X}.]._.`.T.!.^.^.'.^.P.P.&.&.D D <.<.F.S. . .g p 5.6.<.6.@ @ h h h h h h h h h 1.1.1.1.1.1.1.",
"1.1.1.1.1.1.1.1.. . s f B.B.).).`.^.{.{././.^./.|.{.^.^.'.'.OXOX#.#.u u (.F.OXOXT T Y Y (.T.a y . . 1.1.h h h h h h 1.1.1.1.1.1.",
"1.1.1.1.1.1.1.1..   f s B.B.).).^.'.{.{././././.{.|.^.^.'.'.OXOX#.#.u u (.(.OXOXT T Y Y (.(.y a     1.1.1.1.h h h h 1.1.1.1.1.1.",
"1.1.1.1.1.1.1.1.% 3 6.b.)._.`.].`./.{.[.[.[.{.{.^.^.].`.T.T.y.r.0 6 a f H.D.r.r.4 2 k l XXoXG.G.; ; 1.1.1.1.1.1.h h 1.1.1.1.1.1.",
"1.1.1.1.1.1.1.1.% % b.b._._.`._./.`.[.{.{.{.^.{.^.^.{.].T.T.y.y.0 6 i i I.L.r.r.2 4 l x .X.XG.G.; ; 1.1.1.1.1.1.1.1.1.1.1.1.1.1.",
"1.1.1.1.1.1.s s X.X.S.F.~.T./././././.[.|.|.[.{.{.{.XXXX/./.%.2.$ $ k k U.I.%.%.@ @ x x oXoX X Xx s 1.1.1.1.1.1.1.1.1.1.1.1.1.1.",
"1.1.1.1.1.1.s s X.X.F.D.R.R././././.[./.|.|.[.{.[.{.XXXX/./.%.%.@ & k k I.I.%.%.@ @ x x oXoX X Xk x 1.1.1.1.1.1.1.1.1.1.1.1.1.1.",
"1.1.1.1.  X e 0 r.r.D.U.Y.Y.Q./././././.{./.`.[.E.E.c.l.l.c.z.z.- - t t ].].f.f.& & r y '.!././.2.+.& & 1.1.1.1.1.1.1.1.1.1.1.1.",
"1.1.1.1.X X 0 e r.r.U.U.Y.Y./././.[./././.{.[.{.E.E.l.l.l.l.z.h.- - t t ].].f.f.- & y y ^.!././.+.2.& @ 1.1.1.1.1.1.1.1.1.1.1.1.",
"1.1.1.1.> > g k v.v.S.D.Y.R././.[./././././.{.{.h.h.Q Q { { c.x.j j j j `.`.A.H.y r r r 3.3.Q.Q.n.f.y y 1.1.1.1.1.1.1.1.1.1.1.1.",
"1.1.1.1.> a l l v.v.D.S.R.R.`.`.`.[./.`.`./.}.{.h.h.Q Q { { x.x.j j j y _.`.H.A.y y r r 3.3./.Q.m.M.i a 1.1.1.1.1.1.1.1.1.1.1.1.",
"1.1.1.1.: : b b B.M.N.d.~.~.`.`.{.{.`.`.'.`.Y.Y.Y.L.J.J.E.L.Q.Q.W.W.G.P.`.`.].`.T.T.H.H.~.~.~._.u.u.i e 1.1.1.1.1.1.1.1.1.1.1.1.",
"1.1.1.1.> > b b S.N.v.N.~.~.`.{.{.{.`.{._.`.T.I.L.Y.J.J.L.L.Q.Q.W.W.H.P.`.`._.`.T.W.P.C.~.!._._.u.u.e i 1.1.1.1.1.1.1.1.1.1.1.1.",
"1.1.1.1.: : b b M.M.q.q.~.R.{.`.{.{.`.`.R.R.V.V.Y.Y.{.`.[.`.{.[.|.|.XXXXW.!.2.2.H.H.XX X`.`.).).B.S.g g 1.1.1.1.1.1.1.1.1.1.1.1.",
"1.1.1.1.: : b b M.M.q.t.Y.Q.`.[.`.`.`.`.R.).V.V.Y.Y.].`.`.`.[.[.|.|.XXXX^.!.2.2.H.H.|. X].`.).).S.N.l g 1.1.1.1.1.1.1.1.1.1.1.1.",
"1.1.1.1.: : b O.v.v.! ! K.K./.[.[./.Q.Q.A.A.t.t.Z.Z.].}./.`.^./.[.[.[.^.!.!.$.$.g.g.`.[.Y.Y.R.).M.M.g g 1.1.1.1.1.1.1.1.1.1.1.1.",
"1.1.1.1.: : O.b v.s.! ! K.J.[.[./.[.Q.~.A.A.t.t.Z.V.{.].{./././.[.[.[.[.!.!.$.$.g.g.`.`.Y.R.).U.N.M.i d 1.1.1.1.1.1.1.1.1.1.1.1.",
"1.1.1.1.= : O...s.s.R L i.t.J.J.J.J.x.c.d.d.=.-.q.q.J.K.~._.`.`.{.{./.[.[.`.|.|.[.{./._.~._.D.D.#.#.2 , 1.1.1.1.1.1.1.1.1.1.1.1.",
"1.1.1.1.= = O...s.p.R L t.w.J.J.J.J.A.A.d.a.=.-.q.q.I.K.R.R.`.`.{.[.[./.{.[.|.}.`.{./.~._._.D.D.*.#., 2 1.1.1.1.1.1.1.1.1.1.1.1.",
"1.1.1.1.= # b z <.r.R R ;.;.w.w.:.:.=.-.,.,.( ) Z Z ! ) N.x.I.I.~.~./._.`./.`.`.`._.Y.R.D.K.j.s.Y  .O O 1.1.1.1.1.1.1.1.1.1.1.1.",
"1.1.1.1.= = g b r.r.R R ;.;.w.q.:.:.-.-.,.,.) ) S G ( ! x.N.I.U._.~./._./.`.`.`./._.R.R.D.D.s.j. . .+ O 1.1.1.1.1.1.1.1.1.1.1.1.",
"1.1.1.1.1.1.1.1.w w D G K K G J i.a.]._.A Z A A / / P P C S 0.0.k.j.V.V.V.V.z.z.z.x.N.Z.k.N.*.*.* % 1.1.1.1.1.1.1.1.1.1.1.1.1.1.",
"1.1.1.h h h h h w w F D K K J G a.a.].].Z A A A / / P / K N 0.0.j.k.V.V.Z.M.z.z.z.x.A.N.N.N.*.*.* 3 1.1.1.1.1.1.1.1.1.1.1.1.1.1.",
"1.1.1.h h h h h h h w q S Z J ~ e.e.E.E.~ ~ ^ ^ | | _ _ m m S S >.>.p.p.t.i.i.i.i.i.p.p.@.@.6 6 1.1.1.1.1.1.1.1.1.1.1.1.1.1.1.1.",
"1.1.1.1.h h h h h h 6 q S N J ~ e.e.E.E.^ ^ ^ ^ | | _ _ m m S S >.>.d.p.i.i.w.i.a.i.a.d.@.@.6 6 1.1.1.1.1.1.1.1.1.1.1.1.1.1.1.1.",
"1.1.1.1.1.1.h h h h O O G G [ [ [ [ ` ` } } } } } } ' ' K P n 7 C C =.=.) ) ] ] ) ] ) ) N N 1 1 1.1.1.1.1.1.1.1.1.1.1.1.1.1.1.1.",
"1.1.1.1.1.1.h h h h O O G G [ [ [ [ ` ` } } } } } } ' ' P P 7 7 C C =.=.) ) ) ) ] ] ) ) N M 1 6 h h h h h h h h h h h h 1.1.1.1.",
"1.1.1.1.1.h h h h h O O p p H H E E I I U U I I U U R S M M 8 8 7 7 7 7 n n n n n n m m J J ] ] 4 4 h h h h h h h h h h 1.1.1.1.",
"1.1.1.1.1.h h h h h . O p p H H E E I I U U I I U I H R M M 8 n 7 7 n 7 8 7 8 n n n m m J J ] ] 0 0 h h h h h h h h 1.1.1.1.1.1.",
"1.1.1.1.h h h h h h h 1.+ + % , , , , , , 2 , * 5 5 5 5 < < 9 9 d d D B B B V V D R L L ( ( W W & * h h h h h 1.1.1.1.1.1.1.1.1.",
"1.1.1.1.h h h h h 1.1.1.+ + % , < < , , 5 2 * , 5 5 5 5 < < 9 9 d B D D B B V F H R K K ( ( W W & & h h h 1.1.1.1.1.1.1.1.1.1.1.",
"1.1.1.1.h h h 1.1.1.1.1.1.1.1.h h h h 1.1.1.1.1.1.1.1.1.1.1.+ + % % 3 3 , 2 4 4 4 6 w w q q 4 2 h h 1.1.1.1.1.1.1.1.1.1.1.1.1.1.",
"1.1.1.1.1.1.1.1.1.1.1.1.1.1.1.1.1.1.1.1.1.1.1.1.1.1.1.1.1.1.# + % % 3 3 2 2 4 4 6 6 q q q q 4 * h h 1.1.1.1.1.1.1.1.1.1.1.1.1.1.",
"1.1.1.1.1.1.1.1.1.1.1.1.1.1.1.1.1.1.1.1.1.1.1.1.1.1.1.1.1.1.1.h h h h h h h h h h h h h h h h h h h h 1.1.1.1.1.1.1.1.1.1.1.1.1.",
"1.1.1.1.1.1.1.1.1.1.1.1.1.1.1.1.1.1.1.1.1.1.1.1.1.1.1.1.1.1.h h h h h h h h h h h h h h h h h h h h h 1.1.1.1.1.1.1.1.1.1.1.1.1.",
"1.1.1.1.1.1.1.1.1.1.1.1.1.1.1.1.1.1.1.1.1.1.1.1.1.1.1.1.1.1.h h h h h h h h h 1.1.h h h h h h h h h h h 1.1.1.1.1.1.1.1.1.1.1.1.",
"1.1.1.1.1.1.1.1.1.1.1.1.1.1.1.1.1.1.1.1.1.1.1.1.1.1.1.1.1.h h h h h h h 1.1.1.1.1.1.1.h h h h h h h h h 1.1.1.1.1.1.1.1.1.1.1.1.",
"1.1.1.1.1.1.1.1.1.1.1.1.1.1.1.1.1.1.1.1.1.1.1.1.1.1.1.1.h h h h h h 1.1.1.1.1.1.1.1.1.1.1.h h h h h h h h 1.1.1.1.1.1.1.1.1.1.1.",
"1.1.1.1.1.1.1.1.1.1.1.1.1.1.1.1.1.1.1.1.1.1.1.1.1.1.1.1.h h h 1.1.1.1.1.1.1.1.1.1.1.1.1.1.1.1.h h h h h h 1.1.1.1.1.1.1.1.1.1.1.",
"1.1.1.1.1.1.1.1.1.1.1.1.1.1.1.1.1.1.1.1.1.1.1.1.1.1.1.1.h h 1.1.1.1.1.1.1.1.1.1.1.1.1.1.1.1.1.1.1.h h h h 1.1.1.1.1.1.1.1.1.1.1.",
"1.1.1.1.1.1.1.1.1.1.1.1.1.1.1.1.1.1.1.1.1.1.1.1.1.1.1.1.1.1.1.1.1.1.1.1.1.1.1.1.1.1.1.1.1.1.1.1.1.1.1.1.1.1.1.1.1.1.1.1.1.1.1.1.",
"1.1.1.1.1.1.1.1.1.1.1.1.1.1.1.1.1.1.1.1.1.1.1.1.1.1.1.1.1.1.1.1.1.1.1.1.1.1.1.1.1.1.1.1.1.1.1.1.1.1.1.1.1.1.1.1.1.1.1.1.1.1.1.1.",
"1.1.1.1.1.1.1.1.1.1.1.1.1.1.1.1.1.1.1.1.1.1.1.1.1.1.1.1.1.1.1.1.1.1.1.1.1.1.1.1.1.1.1.1.1.1.1.1.1.1.1.1.1.1.1.1.1.1.1.1.1.1.1.1.",
"1.1.1.1.1.1.1.1.1.1.1.1.1.1.1.1.1.1.1.1.1.1.1.1.1.1.1.1.1.1.1.1.1.1.1.1.1.1.1.1.1.1.1.1.1.1.1.1.1.1.1.1.1.1.1.1.1.1.1.1.1.1.1.1.",
"1.1.1.1.1.1.1.1.1.1.1.1.1.1.1.1.1.1.1.1.1.1.1.1.1.1.1.1.1.1.1.1.1.1.1.1.1.1.1.1.1.1.1.1.1.1.1.1.1.1.1.1.1.1.1.1.1.1.1.1.1.1.1.1."
};
