/* XPM */
static char *result[] = {
/* columns rows colors chars-per-pixel */
"64 64 191 2 ",
"   c #0C0000",
".  c #130003",
"X  c #1B0002",
"o  c #1E0C0C",
"O  c #240103",
"+  c #2B0102",
"@  c #23000B",
"#  c #2C010D",
"$  c #330104",
"%  c #3C000B",
"&  c #290415",
"*  c #340511",
"=  c #390012",
"-  c #300813",
";  c #291717",
":  c #2E1B1B",
">  c #37161F",
",  c #311C1D",
"<  c #342222",
"1  c #3F3133",
"2  c #430002",
"3  c #43010B",
"4  c #53010B",
"5  c #450011",
"6  c #490417",
"7  c #4B031A",
"8  c #450919",
"9  c #57081A",
"0  c #680016",
"q  c #470D21",
"w  c #53062E",
"e  c #551529",
"r  c #5C152F",
"t  c #7B0929",
"y  c #6A172A",
"u  c #79122C",
"i  c #7B0D33",
"p  c #7E0E3A",
"a  c #6F1B36",
"s  c #771E3A",
"d  c #4C2131",
"f  c #483839",
"g  c #632835",
"h  c #78203E",
"j  c #736122",
"k  c #5E284D",
"l  c #533F40",
"z  c #7B2744",
"x  c #712C43",
"c  c #683546",
"v  c #773346",
"b  c #7C384E",
"n  c #783552",
"m  c #535252",
"M  c #784866",
"N  c #8C001B",
"B  c #8B002B",
"V  c #810737",
"C  c #830C35",
"Z  c #960839",
"A  c #871A37",
"S  c #941139",
"D  c #9C143E",
"F  c #A2002D",
"G  c #A60B37",
"H  c #BA053B",
"J  c #9A0E42",
"K  c #991D45",
"L  c #BB0C43",
"P  c #B6004B",
"I  c #A81C45",
"U  c #B8114E",
"Y  c #AE1C54",
"T  c #B71953",
"R  c #BB1955",
"E  c #872B4F",
"W  c #862952",
"Q  c #912A56",
"!  c #873651",
"~  c #B1234F",
"^  c #AD2755",
"/  c #B52555",
"(  c #BB3057",
")  c #AF3E64",
"_  c #C3124C",
"`  c #C8144C",
"'  c #D10255",
"]  c #D50C5D",
"[  c #C01C56",
"{  c #C1345D",
"}  c #D40861",
"|  c #CA1B66",
" . c #DD0F77",
".. c #E8096B",
"X. c #E41A78",
"o. c #F21F7C",
"O. c #C42461",
"+. c #DD3F6B",
"@. c #C4277A",
"#. c #DA2871",
"$. c #E7216F",
"%. c #994457",
"&. c #884E67",
"*. c #9D4963",
"=. c #945A6E",
"-. c #855974",
";. c #AB456A",
":. c #A6506E",
">. c #AC4370",
",. c #9B657C",
"<. c #D2486F",
"1. c #C84B73",
"2. c #D55C7C",
"3. c #E6C03E",
"4. c #FA1A84",
"5. c #FF1C8B",
"6. c #EF2781",
"7. c #F72486",
"8. c #A65D8A",
"9. c #B75881",
"0. c #BB6C87",
"q. c #BC648D",
"w. c #AE6C99",
"e. c #B77C96",
"r. c #D9458B",
"t. c #CA5B87",
"y. c #DD5C90",
"u. c #E85A85",
"i. c #E84B9E",
"p. c #E35D92",
"a. c #C5668D",
"s. c #C9758F",
"d. c #CA6C99",
"f. c #DA659A",
"g. c #CC7293",
"h. c #D77799",
"j. c #E36C99",
"k. c #FE6E9E",
"l. c #EC739E",
"z. c #F1739F",
"x. c #F34FA4",
"c. c #E758A8",
"v. c #DC79A8",
"b. c #EB6FA7",
"n. c #F669AF",
"m. c #ED74A3",
"M. c #E778A7",
"N. c #EF7BAC",
"B. c #F476A4",
"V. c #FA71A3",
"C. c #F37AA9",
"Z. c #FF6EBA",
"A. c #FB7BB8",
"S. c #FF6FC2",
"D. c #DD87A6",
"F. c #D18CAA",
"G. c #E985A5",
"H. c #F384AD",
"J. c #F58CAF",
"K. c #F383B6",
"L. c #F989B6",
"P. c #FE83BB",
"I. c #F18EBC",
"U. c #EC93BB",
"Y. c #F397BB",
"T. c #FD92BC",
"R. c #F6A2BF",
"E. c #F38BC0",
"W. c #FD8DC4",
"Q. c #FE93C3",
"!. c #F596CA",
"~. c #FE96CB",
"^. c #FF9DCC",
"/. c #FE9DD5",
"(. c #F79BDA",
"). c #FE9DDA",
"_. c #F8A3C6",
"`. c #FFA3CB",
"'. c #F8B0C8",
"]. c #FFA2D5",
"[. c #FEADD3",
"{. c #FFA3DB",
"}. c #FFABDC",
"|. c #FFB4DF",
" X c #FFBEDC",
".X c #FF9EE1",
"XX c #FFA4E3",
"oX c #FFABE4",
"OX c #FFB5E7",
"+X c #FFACF0",
"@X c #FFC2DE",
/* pixels */
"3.3.3.3.3.3.3.3.3.3.3.3.3.3.3.3.3.3.3.3.3.3.3.3.3.3.3.3.3.3.3.3.3.3.3.3.3.3.3.3.3.3.3.3.3.3.3.3.3.3.3.3.3.3.3.3.3.3.3.3.3.3.3.3.",
"3.3.3.3.3.3.3.3.3.3.3.3.3.3.3.3.3.3.3.3.3.3.3.3.3.3.3.3.3.3.3.3.3.3.3.3.3.3.3.3.3.3.3.3.3.3.3.3.3.3.3.3.3.3.3.3.3.3.3.3.3.3.3.3.",
"3.3.3.3.3.3.3.3.3.3.3.3.3.3.3.3.3.3.3.3.3.3.3.3.3.3.3.3.3.3.3.3.3.3.3.3.3.3.3.3.3.3.3.3.3.3.3.3.3.3.3.3.3.3.3.3.3.3.3.3.3.3.3.3.",
"3.3.3.3.3.3.3.3.3.3.3.3.3.3.3.3.3.3.3.3.3.3.3.3.3.3.3.3.3.3.3.3.3.3.3.3.3.3.3.3.3.3.3.3.3.3.3.3.3.3.3.3.3.3.3.3.3.3.3.3.3.3.3.3.",
"3.3.3.3.3.3.3.3.3.3.3.3.3.3.3.3.3.3.3.3.3.3.3.3.3.3.3.3.3.3.3.3.3.3.3.3.3.3.3.3.3.3.3.3.3.3.3.3.3.3.3.3.3.3.3.3.3.3.3.3.3.3.3.3.",
"3.3.3.3.3.3.3.3.3.3.3.3.3.3.3.3.3.3.3.3.j j 3.3.3.3.3.3.3.3.3.3.3.3.3.3.3.3.3.3.3.3.3.3.3.3.3.3.3.3.3.3.3.3.3.3.3.3.3.3.3.3.3.3.",
"3.3.3.3.3.3.3.3.3.3.3.3.3.3.3.3.3.3.3.3.j j 3.3.3.3.; ; < < : : : : < < : : : : 3.3.3.3.3.3.3.3.3.3.3.3.3.3.3.3.3.3.3.3.3.3.3.3.",
"3.3.3.3.3.3.3.3.3.3.3.3.3.3.3.3.3.3.3.j j j j 3.3.3.; : < < < : < : < < : : : < 3.3.3.3.3.3.3.3.3.3.3.3.j j 3.3.3.3.3.3.3.3.3.3.",
"3.3.3.3.3.3.3.3.3.3.3.3.3.3.3.3.3.3.3.j j j j 3.; ; 3 , v h a a h h h z s h 4 9 3.3.3.3.3.3.3.3.3.3.3.j j j 3.3.3.3.3.3.3.3.3.3.",
"3.3.3.3.3.3.3.3.3.3.3.3.3.3.3.3.3.3.j j j j j j ; ; 8 3 h v a a k s z z h A 9 8 3.3.3.3.3.3.3.3.3.3.3.j j j 3.3.3.3.3.3.3.3.3.3.",
"3.3.3.3.3.3.3.3.3.3.3.3.3.3.3.3.3.3.j j @ @ q q g ! ,.2.D.G.J.J.L.H.C.H.G.G.g.g.b v - - : : 3.3.3.3.j j j j 3.3.3.3.3.3.3.3.3.3.",
"3.3.3.3.3.3.3.3.3.3.3.3.3.3.3.3.3.j j j @ @ > 8 h g D.,.G.D.J.L.H.H.H.H.z.G.g.g.b v - - : : 3.3.3.3.j j j j 3.3.3.3.3.3.3.3.3.3.",
"3.3.3.3.3.3.3.3.3.3.3.3.3.3.3.3.3.j # @ n ! a.a.R.U.'.`.^.^.L.T.T.T.^.`.].].Q.Q.U.U.a.,.q >     3.j j j j j j 3.3.3.3.3.3.3.3.3.",
"3.3.3.3.3.3.3.3.3.3.3.3.3.3.3.3.j j # # ! ! a.a.U.U.`.].~.^.L.T.T.Q.`.^.`.].Q.Q.K.U.,.,.> >   . j j j j j j j j j j j j j 3.3.3.",
"3.3.3.3.3.3.3.3.3.3.3.3.3.3.1 1 # # b b h.M.Q.Q.].).oX{.U.E.Q Q ;.;.T.T.I.E.W W ;.>.U.U.,.,.o o j j j j j j j j j j j j j 3.3.3.",
"3.3.3.3.3.3.j j j j j j j j 1 1 # # b b v.h.~.Q.).].oXXXE.E.Q Q ;.;.T.I.E.U.W W >.>.U.U.,.,.o o j j j j j j j j j j j j 3.3.3.3.",
"3.3.3.3.3.3.j j j j j j j j , , q w g.g.`.`.{.{..XXX(.).[.[.@X@X! ! *.*. X X@X@Xz v 0.0._._.n n l l j j j j j j j j 3.3.3.3.3.3.",
"3.3.3.3.3.3.3.j j j j j j j , > 9 7 g.g.`.`.].}.XXXX/.).[.[.@X@X%.! *.*. X X X@Xn v a.0._._.n n l l j j j j j j 3.3.3.3.3.3.3.3.",
"3.3.3.3.3.3.3.3.3.j j j j j d d ;.>.E.Y.].}.{.}..X.X/.(.[.[.'.'.e e v b @X@XR.R.q q &.&.oX|.q.q.e e j j j j j j j 3.3.3.3.3.3.3.",
"3.3.3.3.3.3.3.3.3.3.3.j j j d d *.*.Q.Q.}.{.}.{.).).(.).[.'.'.'.e e b c @X@XR.R.q q &.&.}.[.q.q.e e j j j j j j j 3.3.3.3.3.3.3.",
"3.3.3.3.3.3.3.3.3.3.= = 6 6 E E M.v./././././.].{.XX{.{.T.W.W W @ @ &.&.Y._.z z @ @ -.-.OX Xv.v.:.:.y y 2 3 + + j j 3.3.3.3.3.3.",
"3.3.3.3.3.3.3.3.3.3.* = 6 6 E E D.M.^././.].].).{.XXoX}.W.W.W W @ @ &.&.R.Q.z h @ @ -.8.OXOXv.v.:.:.y y 3 3 + + j j 3.3.3.3.3.3.",
"3.3.3.3.3.3.f f 8 8 :.=.h.h.M.v.E.E.).].XX{.).).).)..X.XW.W.t.d.& & M M [.[.9.9.X o M M OXOX~.~.t.2.G.G.D.D.g g     3.3.3.3.3.3.",
"3.3.3.3.3.3.l l q = :.*.h.v.v.v.E.E.{.{.{.{.).).).).XX).W.W.t.a.= & M M [.[.9.9.@ o -.-.OXOX~.~.2.t.G.l.D.G.g g   . 3.3.3.3.3.3.",
"3.3.3.3.1 f l l s.e._._.`.^.^./.).].XX{.XX{.XXXXc.c.) 6.r.r.N.M.& & k k oXoXd.d.# # w w f.f.b.n.l.b.T.T.[.[.e.e.o   3.3.3.3.3.3.",
"3.3.3.3.f 1 k g s.s._._.^.`./._.{.).}.XX{.XXXX+Xc.c.@.@.r.r.b.M.# & k k OXOXd.d.# # w w f.d.b.N.b.b.T.T.[.'.e.e.. . 3.3.3.3.3.3.",
"3.3.3.3.    =.=.R.R._.`.].].{.{.).].)./.XX}..X.XS.S.i.i.n.n.W.W.8.8.w.w.oXoX(.!.q.q.a.a.A.A.A.P.y.p.C.C. X|.F.F.; ; 3.3.3.3.3.3.",
"3.3.3.3.    =.=.R.R._.`.].].].].].).]./.}.XX.X.XS.S.i.i.n.n.W.W.8.8.w.w.}.OX!.!.q.q.d.d.A.N.A.S.y.p.C.C. X|.F.D.o & 3.3.3.3.3.3.",
"3.3.3.3.X X =.=.J.Y.T.T.R.^.^./.!.~.~.~.{.{.).).(..X+X+X.X.X].{.oXoXXXXX{.}./.^.G.K.G.H.L.L.k.k.<.2.u.u.T.T.s.h.X . 3.3.3.3.3.3.",
"3.3.3.3.. X =.,.Y.Y.T.T.^.^.^.^.~.~.~.~.{.{.).).(.+X+X+XXXXX{.{.oXoX+XXXXXXX/.^.H.G.G.H.L.L.z.k.<.<.u.u.T.T.s.s.X . 3.3.3.3.3.3.",
"3.3.3.3.o o n c D.D.J.Y.T.T.Q.W.W.W.Q.~.].].].{.(.(.(./.].].].{.(.(.)..X~./.f.j.p p V V ~ T R T +.+.+.+.2.2.%.%.o o 3.3.3.3.3.3.",
"3.3.3.3.o o c n D.D.Y.Y.T.T.Q.T.W.Q.~.Q.].{.].].(.(././.].].].{.(.(..X)././.y.j.p p V V Y Y ~ [ +.+.+.2.2.2.%.%.o X 3.3.3.3.3.3.",
"3.3.3.3.3.3.d d x x D.D.J.H.H.H.N.N.N.N.Q.Q.].].{.{.).].{.).{.].].)././.p.p./ / oXoXS.W.| | $.$.L H { { s s * * 3.3.3.3.3.3.3.3.",
"3.3.3.3.3.3.d d h x G.D.H.J.A.H.C.C.N.N.Q.^.].}.{.{.].).).].XX).{.]././.p.p.^ Y oXXXS.K.| } $.$.L L ( [ s s * * 3.3.3.3.3.3.3.3.",
"3.3.3.3.3.3.3.3.3.3.r r a a ;.>.j.j.C.C.N.H.K.K.K.K.E.W.).).~./.~.~.y.y.R Y | O.Z.Z.i.i.6. .o.o._ _ N t 3.3.3.3.3.3.3.3.3.3.3.3.",
"3.3.3.3.3.3.3.3.3.3.r r y a ;.;.j.j.C.C.N.N.K.J.K.K.W.L.)./.~.~.~.Q.y.y.R Y | | S.S.x.i. . .o.o.U _ t t 3.3.3.3.3.3.3.3.3.3.3.3.",
"3.3.3.3.3.3.3.3.3.3.j j j 3.6 7 ) ) z.z.z.m.m.m.j.j.b.b.K.K.P.L.V.V.O.O.P P 6.6.6.6. . .7.5.6.6./ / 4 4 3.3.3.3.3.3.3.3.3.3.3.3.",
"3.3.3.3.3.3.3.3.3.3.j j j 3.7 7 ) ) z.z.l.l.m.m.b.f.b.M.K.K.P.P.V.V.O.O.P P 6.6.6.6. . .5.7.6.6./ / 4 4 3.3.3.3.3.3.3.3.3.3.3.3.",
"3.3.3.3.3.3.3.3.3.j j j j j 3.3.9 e ) ;.j.j.l.l.l.m.m.m.C.B.z.z.u.u.| O.} } 4.4.5.5.4.4.4.7.#.X.K K % % 3.3.3.3.3.3.3.3.3.3.3.3.",
"3.3.3.3.3.3.3.3.3.j j j j j 3.3.9 9 ) ;.j.j.l.l.b.j.m.m.C.C.V.z.r.u.O.| } } 4.4.7.5.4.4.4.4.#.#.K K % 3 3.3.3.3.3.3.3.3.3.3.3.3.",
"3.3.3.3.3.3.3.3.j j j j j j j 3.3.3.% % A A 1.1.G.z.z.G.k.k.k.k.{ { [ [ 6.6.4.5.4.4.....' ' R U h h + @ 3.3.3.3.3.3.3.3.3.3.3.3.",
"3.3.3.j j j j j j j j j j j j j j j % % A E 1.1.l.l.G.k.V.k.k.k.{ { [ [ o.6.4.5.4.4.....' ' R U h h @ O 3.3.3.3.3.3.3.3.3.3.3.3.",
"3.3.3.j j j j j j j j j j j j j j j $ + C i S S S S ^ ^ 1.1.<.{ S A D D 6.o.o.4.....} } U U C C % = 3.3.3.3.3.3.3.3.3.3.3.3.3.3.",
"3.3.3.3.j j j j j j j j j j j j j j + + u u Z Z S A ^ ( 1.1.1.1.A C G I o.4.4.4.....] ] U R C C = = 3.3.3.3.3.3.3.3.3.3.3.3.3.3.",
"3.3.3.3.3.3.j j j j j j j j j j j j 6 6 I I F F N N B B t u 9 9 2 2 u u #.#.X.$.] ] [ R p i = = 3.3.3.3.3.3.3.3.3.3.3.3.3.3.3.3.",
"3.3.3.3.3.3.j j j j j j j j j j j j 6 6 I ~ F F N N B B u u 4 9 2 2 u u +.#.X.X.] ] R [ i p = = j j j j j j j j j j j j 3.3.3.3.",
"3.3.3.3.3.j j j j j j j j j j j j j 5 5 ~ ~ ` _ ` ` G G 0 0 $ $ O O 3 3 p V Z J J J i i * * j j j j j j j j j j j j j j 3.3.3.3.",
"3.3.3.3.3.j j j j j j j j j j j j j 5 5 ~ I ` _ ` ` G G 0 0 2 $ O O 3 3 i V Z Z J J i i * * j j j j j j j j j j j j 3.3.3.3.3.3.",
"3.3.3.3.j j j j j j j 3.j j j j j j % % K K L U H H H H G F A A $ $ X . X O O X O O X X j j j j j j j j j j j 3.3.3.3.3.3.3.3.3.",
"3.3.3.3.j j j j j 3.3.3.3.j j j j j = = D K L L L H H H G G A A + $ . X X X O O O O . . j j j j j j j j j 3.3.3.3.3.3.3.3.3.3.3.",
"3.3.3.3.j j j 3.3.3.3.3.3.3.3.j j j j 3.4 4 D D ~ ~ D G I I A A + O m m j j j j j j j j j j j j j j 3.3.3.3.3.3.3.3.3.3.3.3.3.3.",
"3.3.3.3.3.3.3.3.3.3.3.3.3.3.3.3.3.3.3.3.4 4 D D ~ ( G ~ I D h A O + m m j j j j j j j j j j j j j j 3.3.3.3.3.3.3.3.3.3.3.3.3.3.",
"3.3.3.3.3.3.3.3.3.3.3.3.3.3.3.3.3.3.3.3.3.3.3.3.6 6 6 5 6 6 # # j j j j j j j j j j j j j j j j j j j 3.3.3.3.3.3.3.3.3.3.3.3.3.",
"3.3.3.3.3.3.3.3.3.3.3.3.3.3.3.3.3.3.3.3.3.3.3.3.6 6 5 5 6 6 $ $ j j j j j j j j j j j j j j j j j j j 3.3.3.3.3.3.3.3.3.3.3.3.3.",
"3.3.3.3.3.3.3.3.3.3.3.3.3.3.3.3.3.3.3.3.3.3.3.3.3.3.3.3.3.3.j j j j j j j j j 3.3.j j j j j j j j j j j 3.3.3.3.3.3.3.3.3.3.3.3.",
"3.3.3.3.3.3.3.3.3.3.3.3.3.3.3.3.3.3.3.3.3.3.3.3.3.3.3.3.3.j j j j j j j 3.3.3.3.3.3.3.j j j j j j j j j 3.3.3.3.3.3.3.3.3.3.3.3.",
"3.3.3.3.3.3.3.3.3.3.3.3.3.3.3.3.3.3.3.3.3.3.3.3.3.3.3.3.j j j j j j 3.3.3.3.3.3.3.3.3.3.3.j j j j j j j j 3.3.3.3.3.3.3.3.3.3.3.",
"3.3.3.3.3.3.3.3.3.3.3.3.3.3.3.3.3.3.3.3.3.3.3.3.3.3.3.3.j j j 3.3.3.3.3.3.3.3.3.3.3.3.3.3.3.3.j j j j j j 3.3.3.3.3.3.3.3.3.3.3.",
"3.3.3.3.3.3.3.3.3.3.3.3.3.3.3.3.3.3.3.3.3.3.3.3.3.3.3.3.j j 3.3.3.3.3.3.3.3.3.3.3.3.3.3.3.3.3.3.3.j j j j 3.3.3.3.3.3.3.3.3.3.3.",
"3.3.3.3.3.3.3.3.3.3.3.3.3.3.3.3.3.3.3.3.3.3.3.3.3.3.3.3.3.3.3.3.3.3.3.3.3.3.3.3.3.3.3.3.3.3.3.3.3.3.3.3.3.3.3.3.3.3.3.3.3.3.3.3.",
"3.3.3.3.3.3.3.3.3.3.3.3.3.3.3.3.3.3.3.3.3.3.3.3.3.3.3.3.3.3.3.3.3.3.3.3.3.3.3.3.3.3.3.3.3.3.3.3.3.3.3.3.3.3.3.3.3.3.3.3.3.3.3.3.",
"3.3.3.3.3.3.3.3.3.3.3.3.3.3.3.3.3.3.3.3.3.3.3.3.3.3.3.3.3.3.3.3.3.3.3.3.3.3.3.3.3.3.3.3.3.3.3.3.3.3.3.3.3.3.3.3.3.3.3.3.3.3.3.3.",
"3.3.3.3.3.3.3.3.3.3.3.3.3.3.3.3.3.3.3.3.3.3.3.3.3.3.3.3.3.3.3.3.3.3.3.3.3.3.3.3.3.3.3.3.3.3.3.3.3.3.3.3.3.3.3.3.3.3.3.3.3.3.3.3.",
"3.3.3.3.3.3.3.3.3.3.3.3.3.3.3.3.3.3.3.3.3.3.3.3.3.3.3.3.3.3.3.3.3.3.3.3.3.3.3.3.3.3.3.3.3.3.3.3.3.3.3.3.3.3.3.3.3.3.3.3.3.3.3.3."
};
