/* XPM */
static char *result[] = {
/* columns rows colors chars-per-pixel */
"64 64 27 1 ",
"  c #0F1719",
". c #322607",
"X c #0A0634",
"o c #593B06",
"O c #533F0A",
"+ c #7F5414",
"@ c #0D0842",
"# c #100A50",
"$ c #130C5E",
"% c #160E6C",
"& c #19107A",
"* c #164959",
"= c #195365",
"- c #1C5D71",
"; c #1F677D",
": c #A88016",
"> c #1C1287",
", c #1F1494",
"< c #2216A1",
"1 c #2518AE",
"2 c #227189",
"3 c #257B95",
"4 c #2B1CC8",
"5 c #2885A1",
"6 c #2B8FAD",
"7 c #2E99B9",
"8 c #31A3C5",
/* pixels */
"................................................................",
".OOOOOOOOOOOOOOOOOOOOOOOOOOOOOOOOOOOOOOOOOOOOOOOOOOOOOOOOOOOOOO.",
".O::::O::::O:::O:::O:::O:::O:::O:::O:::O:::O:::O::O:::O:::O:::O.",
".O::::O::::O:::O:::O:::O:::O:::O:::O:::O:::O:::O::O:::O:::O:::O.",
".O::::O::::O:::O:::O:::O:::O:::O:::O:::O:::O:::O::O:::O:::O:::O.",
".O::::O::::O:::O:::O:::O:::O:::O:::O:::O:::O:::O::O:::O:::O:::O.",
".O::::O::::O:::O:::O:::O:::O:::O:::O:::O:::O:::O::O:::O:::O:::O.",
".O::::O::::O:::O:::O:::O:::O:::O:::O:::O:::O:::O::O:::O:::O:::O.",
".O::::O::::O:::O:::O:::O:::O:::O:::O:::O:::O:::O::O:::O:::O:::O.",
".O::::O::::O:::O:::O:::O:::O:::O:::O:::O:::O:::O::O:::O:::O:::O.",
".O::::O::::OOOOOOOOOOOOOOOOOOOOOOOOOOOOOOOOOOOOOOOOOOOO:::O:::O.",
".O::::O::::O+++++++++++++++++++++++++++++++++++++++++oO:::O:::O.",
".O::::O::::O+++++++++++++++++++++++++++++++++++++++++oO:::O:::O.",
".O::::O::::O++                                    +++oO:::O:::O.",
".O::::O::::O++ ******** ******** ******** ******* +++oO:::O:::O.",
".O::::O::::O++ ****;=** ******3* *****;** **7**** +++oO:::O:::O.",
".O::::O::::O++ **=2**** ****;5** ****3;** *5***;* +++oO:::O:::O.",
".O::::O::::O++ *6-***** ***35*** **=6**** -***--* +++oO:::O:::O.",
".O::::O::::O++ 2-****-* *-7=**8* **3***=* ***-2** +++oO:::O:::O.",
".O::::O::::O++ *****3=* *2**;7** *****32* **33*** +++oO:::O:::O.",
".O::::O::::O++ ****;*** ****2*** ****-*** ******* +++oO:::O:::O.",
".O::::O::::O++                                    +++oO:::O:::O.",
".O::::O::::O++ ******** ******** ******** ******* +++oO:::O:::O.",
".O::::O::::O++ ****22;* ****=;** ****2-** ***-2** +++oO:::O:::O.",
".O::::O::::O++ *-;--*** **=--*** **;5**;* **;-*** +++oO:::O:::O.",
".O::::O::::O++ 2-*****; =5=***2* *22**;-* *;=**=* +++oO:::O:::O.",
".O::::O::::O++ *****2;* *****;;* ****=2** ****--* +++oO:::O:::O.",
".O::::O::::O++ ***;6=** ***=2*** **-63*** ***33** +++oO:::O:::O.",
".O::::O::::O++ **--**** ******** ******** **-**** +++oO:::O:::O.",
".O::::O::::O++                                    +++oO:::O:::O.",
".O::::O::::O+++++++++++++++++++++++++++++++++++++++++oO:::O:::O.",
".O::::O::::O+++++++++++++++++++++++++++++++++++++++++oO:::O:::O.",
".O::::O::::O+++++++++++++++++++++++++++++++++++++++++oO:::O:::O.",
".O::::O::::OOOOOOOOOOOOOOOOOOOOOOOOOOOOOOOOOOOOOOOOOOOO:::O:::O.",
".O::::O::::OO::::::::::::::::::::::::::::::::::::::::OO:::O:::O.",
".O::::O::::OO::::::::::::::::::::::::::::::::::::::::OO:::O:::O.",
".O::::O::::OO::::::::::::::::::::::::::::::::::::::::OO:::O:::O.",
".O::::O::::OO::::::::::::::::::::::::::::::::::::::::OO:::O:::O.",
".O::::O::::OOOOOOOOOOOOOOOOOOOOOOOOOOOOOOOOOOOOOOOOOOOO:::O:::O.",
".O::::O::::O::::::::::::::::::::::::::::::::::::::::::O:::O:::O.",
".O::::O::::O::::::::::::::::::::::::::::::::::::::::::O:::O:::O.",
".O::::O::::O::::::::::::::::::::::::::::::::::::::::::O:::O:::O.",
".O::::O::::O::::::::::::::::::::::::::::::::::::::::::O:::O:::O.",
".O::::O::::O::::::::::::XXXXXXXXXXXXXX::::::::::::::::O:::O:::O.",
".O::::O::::O::::::::::XX&,>&<$X%<<%,&XXX::::::::::::::O:::O:::O.",
".O::::O::::O::::::::XX%%$XXXXXXXXXXX#>,#XXX:::::::::::O:::O:::O.",
".O::::O::::O::::::XXX>$XXXX::::::::XXXX,4@XX::::::::::O:::O:::O.",
".O::::O::::O:::::XX@>XXXX:::::::::::::XXX1XXX:::::::::O:::O:::O.",
".O::::O::::O::::oX#$XXX:::::::::::::::::XXXXXXo:::::::O:::O:::O.",
".O::::O::::O:::oXX&XXo::::::::::::::::::oXXXXXoo::::::O:::O:::O.",
".O::::O::::O::ooXXXXXoo:::::::::::::::::ooXXXXoo::::::O:::O:::O.",
".O::::O::::O::oooXXXooo:::::::::::::::::ooXXXXoo::::::O:::O:::O.",
".O::::O::::O:::ooooooo::::::::::::::::::oooooooo::::::O:::O:::O.",
".O::::O::::O::::ooooo:::::::::::::::::::::oooo::::::::O:::O:::O.",
".O::::O::::O::::::::::::::::::::::::::::::::::::::::::O:::O:::O.",
".O::::O::::O::::::::::::::::::::::::::::::::::::::::::O:::O:::O.",
".O::::O::::O::::::::::::::::::::::::::::::::::::::::::O:::O:::O.",
".O::::O::::O::::::::::::::::::::::::::::::::::::::::::O:::O:::O.",
".O::::O::::OOOOOOOOOOOOOOOOOOOOOOOOOOOOOOOOOOOOOOOOOOOO:::O:::O.",
".O::::O::::O::::::::::::::::::::::::::::::::::::::::::O:::O:::O.",
".O::::O::::O::::::::::::::::::::::::::::::::::::::::::O:::O:::O.",
".O::::O::::O::::::::::::::::::::::::::::::::::::::::::O:::O:::O.",
".OOOOOOOOOOOOOOOOOOOOOOOOOOOOOOOOOOOOOOOOOOOOOOOOOOOOOOOOOOOOOO.",
"................................................................"
};
