/* XPM */
static char *result[] = {
/* columns rows colors chars-per-pixel */
"64 64 131 2 ",
"   c #0F0000",
".  c #130002",
"X  c #1B0001",
"o  c #13000A",
"O  c #1B0008",
"+  c #190808",
"@  c #1A0611",
"#  c #210005",
"$  c #2E000C",
"%  c #250B0C",
"&  c #37000E",
"*  c #3B000E",
"=  c #290312",
"-  c #320511",
";  c #3D0D19",
":  c #261214",
">  c #281616",
",  c #312121",
"<  c #51000D",
"1  c #5B001E",
"2  c #421114",
"3  c #4B0D22",
"4  c #441525",
"5  c #4F1121",
"6  c #50142C",
"7  c #5C1330",
"8  c #4E2B32",
"9  c #562137",
"0  c #572439",
"q  c #413334",
"w  c #61283F",
"e  c #736122",
"r  c #622F45",
"t  c #692B49",
"y  c #713645",
"u  c #6E3050",
"i  c #7E3356",
"p  c #733B53",
"a  c #9F1E39",
"s  c #AE0A36",
"d  c #BB003F",
"f  c #B1183C",
"g  c #8D253D",
"h  c #AC0542",
"j  c #BF1342",
"k  c #B81D4A",
"l  c #842D4B",
"z  c #8A3853",
"x  c #933152",
"c  c #A5284B",
"v  c #A42A51",
"b  c #A83152",
"n  c #B03767",
"m  c #D2295B",
"M  c #C9385E",
"N  c #DA2267",
"B  c #C53775",
"V  c #D63A78",
"C  c #854258",
"Z  c #9B4763",
"A  c #8F5569",
"S  c #9F4372",
"D  c #995B78",
"F  c #AE4566",
"G  c #BD516F",
"H  c #B8457A",
"J  c #A15672",
"K  c #A95274",
"L  c #B55C7F",
"P  c #9E607C",
"I  c #C74B7A",
"U  c #E6C03E",
"Y  c #B54E89",
"T  c #B16484",
"R  c #BB6D8E",
"E  c #C74283",
"W  c #DB5C84",
"Q  c #E95A83",
"!  c #E0538C",
"~  c #C86C9B",
"^  c #C67597",
"/  c #CE719C",
"(  c #DA7892",
")  c #E2658D",
"_  c #E86690",
"`  c #EE6F97",
"'  c #E66F9B",
"]  c #EC7097",
"[  c #E6749F",
"{  c #ED769E",
"}  c #D36AA5",
"|  c #EC76A4",
" . c #F370A3",
".. c #F078A3",
"X. c #FA7EAF",
"o. c #F670B0",
"O. c #D483A9",
"+. c #DA8CAD",
"@. c #E581A7",
"#. c #E68EAE",
"$. c #FF82AD",
"%. c #F38DB7",
"&. c #FB8BBD",
"*. c #E095BA",
"=. c #F48CC1",
"-. c #FD8EC4",
";. c #FF8FCA",
":. c #E794C0",
">. c #EC91C0",
",. c #E79AC0",
"<. c #EB98C7",
"1. c #EF9DC8",
"2. c #F494C5",
"3. c #FF90C4",
"4. c #F299C5",
"5. c #FC98C5",
"6. c #FC93C9",
"7. c #F199CB",
"8. c #FE9BCD",
"9. c #FD94D4",
"0. c #FE9BD4",
"q. c #FE9EDC",
"w. c #F0A2C8",
"e. c #FEA3D6",
"r. c #F8ADD4",
"t. c #FEA2DC",
"y. c #FFACDE",
"u. c #FE9EE1",
"i. c #FFA3E2",
"p. c #FFABE5",
"a. c #FFB1E8",
/* pixels */
"U U U U U U U U U U U U U U U U U U U U U U U U U U U U U U U U U U U U U U U U U U U U U U U U U U U U U U U U U U U U U U U U ",
"U U U U U U U U U U U U U U U U U U U U U U U U U U U U U U U U U U U U U U U U U U U U U U U U U U U U U U U U U U U U U U U U ",
"U U U U U U U U U U U U U U U U U U U U U U U U U U U U U U U U U U U U U U U U U U U U U U U U U U U U U U U U U U U U U U U U ",
"U U U U U U U U U U U U U U U U U U U U U U U U U U U U U U U U U U U U U U U U U U U U U U U U U U U U U U U U U U U U U U U U ",
"U U U U U U U U U U U U U U U U U U U U U U U U U U U U U U U U U U U U U U U U U U U U U U U U U U U U U U U U U U U U U U U U ",
"U U U U U U U U U U U U U U U U U U U U e e U U U U U U U U U U U U U U U U U U U U U U U U U U U U U U U U U U U U U U U U U U ",
"U U U U U U U U U U U U U U U U U U U U e e U U U U U U U U U U U U U U U U U U U U U U U U U U U U U U U U U U U U U U U U U U ",
"U U U U U U U U U U U U U U U U U U U e e e e U U U U U U U U U U U U U U U U U U U U U U U U U U U U U e e U U U U U U U U U U ",
"U U U U U U U U U U U U U U U U U U U e e e e U U U U U U U U U U U U U U U U U U U U U U U U U U U U e e e U U U U U U U U U U ",
"U U U U U U U U U U U U U U U U U U e e e e e e U U U U U U U U U U U U U U U U U U U U U U U U U U U e e e U U U U U U U U U U ",
"U U U U U U U U U U U U U U U U U U e e e e e e U U U U U U U U U U U U U U U U U U U U U U U U U U e e e e U U U U U U U U U U ",
"U U U U U U U U U U U U U U U U U e e e e e e e U U U U U U U U U U U U U U U U U U U U U U U U U U e e e e U U U U U U U U U U ",
"U U U U U U U U U U U U U U U U U e e e e e e e e U U U U U U U U U U U U U U U U U U U U U U U U e e e e e e U U U U U U U U U ",
"U U U U U U U U U U U U U U U U e e e e e e e e e U U U U U U U U U U U U U U U U U e e e e e e e e e e e e e e e e e e e U U U ",
"U U U U U U U U U U U U U U U U e e e e e e e e e e U U U U U U U U U U U U U U U U e e e e e e e e e e e e e e e e e e e U U U ",
"U U U U U U e e e e e e e e e e e e e e e e e e e e e e e e e e e e e e e U U U U U U e e e e e e e e e e e e e e e e e U U U U ",
"U U U U U U e e e e e e e e e e e e e e e e e e e e e e e e e e e e e e e U U U U U U U U e e e e e e e e e e e e e U U U U U U ",
"U U U U U U U e e e e e e e e e e e e e e e e e e e e e e e e e e e e e U U U U U U U U U U e e e e e e e e e e U U U U U U U U ",
"U U U U U U U U U e e e e e e e e e e e e e e e e e e e = $ & & * * & & & $ # # U U U U U e e e e e e e e e e e e U U U U U U U ",
"U U U U U U U U U U U e e e e e e e e e e e e e e e e e $ $ & & * * & - $ $ # X U U U U U e e e e e e e e e e e e U U U U U U U ",
"U U U U U U U U U U U U U e e e e e e e e e e e % % w w T T K K K K K K J J A A % % + + e e e e e e U U e e e e e e U U U U U U ",
"U U U U U U U U U U U U e e e e e e e e e e e e + % w w T T K K K K K K J J A A % % + + e e e e U U U U U U e e e e U U U U U U ",
"U U U U U U U U U U U U e e e e e e e e e e q q S S ~ ~ ,.>.4.4.4.2.4.4.w.1.#.#.Z Z 5 5 . . U U U U U U U U U U e e U U U U U U ",
"U U U U U U U U U U U e e e e e e e e e e e q q S S ~ ~ >.>.4.4.4.7.4.4.%.4.#.#.Z Z 3 4 . . U U U U U U U U U U U U U U U U U U ",
"U U U U U U U U U U U e e e e e e e e e e e p p 8.9.0.0.0.t.t.e.t.t.y.e.e.e.e.e.%.%.^ ^ 0 0 . o U U U U U U U U U U U U U U U U ",
"U U U U U U U U U U e e e e e e e e e e U U p p 9.8.0.0.e.0.t.t.t.y.t.t.e.e.w.5.%.%.^ ^ 0 0 . o U U U U U U U U U U U U U U U U ",
"U U U U U U U U U U e e e e e e e e 8 8 p i r.r.q.q.t.q.q.q.q.q.t.e.q.t.q.t.e.t.t.t.e.e.O.O.4 6 X # U U U U U U U U U U U U U U ",
"U U U U U U U U U e e e e e e e U U 8 8 p p r.r.q.q.t.q.q.q.t.t.q.q.t.q.t.t.t.0.e.e.r.e.O.O.6 6 # # U U U U U U U U U U U U U U ",
"U U U U U U U U U e e e e e U U % : y y #.+.r.y.q.q.t.q.q.q.u.q.u.q.q.i.q.t.u.u.i.i.e.t.8.0.R R ; ; U U U U U U U U U U U U U U ",
"U U U U U U U U U e e e U U U U % % l w +.+.e.e.q.q.u.q.u.q.q.q.q.q.t.q.t.q.u.i.i.i.t.e.0.0.R R ; ; U U U U U U U U U U U U U U ",
"U U U U U U U U U U U U U U U U % % C C w.w.r.e.q.q.q.q.q.q.i.q.q.q.u.t.q.t.q.u.t.i.t.t.e.e.,.,.4 2 > > U U U U U U U U U U U U ",
"U U U U U U U U U U U U U U U U % % C C w.w.r.y.q.q.q.q.q.q.q.q.q.q.t.t.u.q.u.u.i.i.t.y.e.t.,.,.4 4 > > U U U U U U U U U U U U ",
"U U U U U U U U U U U U U U X X T T 8.8.p.r.r.u.q.q.i.i.i.i.q.i.i.q.q.q.q.q.u.q.i.u.i.i.i.i.t.r.*.*.r r U U U U U U U U U U U U ",
"U U U U U U U U U U U U U U X X T T 8.8.p.p.u.r.q.q.i.i.t.i.i.q.q.i.q.q.q.q.t.q.u.i.i.u.r.i.7.r.*.*.r r U U U U U U U U U U U U ",
"U U U U U U U U U U U U U U - - / / 0.9.r.u.i.i.t.u.q.q.q.q.q.q.q.q.i.t.i.q.u.t.u.u.u.u.u.i.7.i.:.:.t t U U U U U U U U U U U U ",
"U U U U U U U U U U U U U U - - / / 0.7.t.t.i.7.i.t.q.u.q.q.q.q.q.q.t.u.q.t.u.t.u.u.u.u.i.i.i.7.:.:.t t U U U U U U U U U U U U ",
"U U U U U U U U U U e e 2 2 z z 2.4.p.t.t.i.q.u.q.q.q.q.q.q.q.i.t.u.u.q.q.q.q.q.u.u.u.u.i.i.t.t.<.<.u u U U U U U U U U U U U U ",
"U U U U U U U U U U e e 2 2 z z 5.5.t.p.q.i.7.u.q.i.q.q.q.0.q.q.t.t.q.q.q.q.q.q.u.u.u.u.i.i.q.t.<.<.u u U U U U U U U U U U U U ",
"U U U U U U U U U e 4 4 l l @.@.e.e.t.i.q.t.t.p.a.p.} } Y Y i.p.i.q.q.9.9.9.u.q.u.u.u.u.i.i.t.t.<.7.i i : : U U U U U U U U U U ",
"U U U U U U U U U e 4 4 l l @.@.e.t.t.i.u.q.t.t.p.p.} } Y Y i.p.q.i.q.q.9.9.q.q.u.u.u.u.u.i.q.i.<.=.i i : : U U U U U U U U U U ",
"U U U U U U U U . . 9 9 O.O.t.e.p.i.i.i.q.q.t.t.[ [ n n H H p.y.i.t.q.9.9.9.q.q.u.9.u.u.p.i.q.0.&.-.x x 5 5 U U U U U U U U U U ",
"U U U e e e e e . . 9 9 O.O.t.t.p.p.i.i.q.q.t.t.| ' n n H H i.i.t.u.q.q.9.9.q.q.u.u.u.u.i.p.0.0.&.&.x x 5 5 U U U U U U U U U U ",
"U U U e e e e e = = D D 4.7.0.0.9.9.0.9.i.i.7.0.v v I I 6.6.e.t.i.t.u.u.u.u.6.6.u.u.u.u.9.0.-.-.$.$.c c F F U U U U U U U U U U ",
"U U U U e e e e = = D D 7.7.0.0.9.9.0.0.i.p.0.7.v v I I 6.6.e.0.q.i.u.u.u.u.=.;.u.u.u.u.0.0.-.-.$.$.c v F F U U U U U U U U U U ",
"U U U U U U e e P P 1.1.p.i.9.9.E E o.o.a.a.4.2.W W -.&.0.0.0.e.t.t.i.t.0.0.=.&.;.;.q.t.-.&. . .Q Q k k h h V V 7 7 U U U U U U ",
"U U U U U U e e P D 1.1.p.p.9.9.E E o.o.a.a.&.2.W W =.-.e.q.0.0.t.t.t.i.0.0.-.-.;.;.q.u.-.&. . .Q Q k k h h V V 7 7 e e U U U U ",
"U U U U U e e e R R 0.q.p.p.9.9.B B ! ! e.e.5.5.W W 8.8.q.e.q.q.t.e.e.0.=.=.| | ' ' ' '  ..._ _ M M s s d d N N 1 1 e e U U U U ",
"U U U U U e e e R R e.q.p.p.9.9.B B ! ! e.r.5.5.W W 8.0.q.q.q.0.t.e.7.0.=.=.| ..' ' | |  ..._ _ M M s s d h N N 1 1 U U U U U U ",
"U U U U e e e e T T -.3.q.0.;.;.X.X.] ` { { ) ) W I &.&.8.0.8.8.e.8.8.5.&.%.] ] b b G G ( ( g g a a f f j j m m < < U U U U U U ",
"U U U U e e e e L L -.6.0.q.;.;.X.X.` ` { { ) ) I ) &.&.e.e.8.8.8.0.5.8.&.%.] ] b b G G ( ( g g a a f f j j m m < < U U U U U U ",
"U U U U e e e U , , # O @ @ o o . o . . X X X X . . . .   o o . o o . o X . X X . . .   . .     . . X X # # # X U U U U U U U U ",
"U U U U U U U U , , O O @ @ o o o . o X X X X X . .     o   o . o o o o o X X X . X . . .     . X X X # # # X X U U U U U U U U ",
"U U U U U U U U U U U U U U U U U U U U U U U U U U U U U U U e e e e e e e e e e e e e e e e e e e e U U U U U U U U U U U U U ",
"U U U U U U U U U U U U U U U U U U U U U U U U U U U U U U e e e e e e e e e e e e e e e e e e e e e U U U U U U U U U U U U U ",
"U U U U U U U U U U U U U U U U U U U U U U U U U U U U U U e e e e e e e e e U U e e e e e e e e e e e U U U U U U U U U U U U ",
"U U U U U U U U U U U U U U U U U U U U U U U U U U U U U e e e e e e e U U U U U U U e e e e e e e e e U U U U U U U U U U U U ",
"U U U U U U U U U U U U U U U U U U U U U U U U U U U U e e e e e e U U U U U U U U U U U e e e e e e e e U U U U U U U U U U U ",
"U U U U U U U U U U U U U U U U U U U U U U U U U U U U e e e U U U U U U U U U U U U U U U U e e e e e e U U U U U U U U U U U ",
"U U U U U U U U U U U U U U U U U U U U U U U U U U U U e e U U U U U U U U U U U U U U U U U U U e e e e U U U U U U U U U U U ",
"U U U U U U U U U U U U U U U U U U U U U U U U U U U U U U U U U U U U U U U U U U U U U U U U U U U U U U U U U U U U U U U U ",
"U U U U U U U U U U U U U U U U U U U U U U U U U U U U U U U U U U U U U U U U U U U U U U U U U U U U U U U U U U U U U U U U ",
"U U U U U U U U U U U U U U U U U U U U U U U U U U U U U U U U U U U U U U U U U U U U U U U U U U U U U U U U U U U U U U U U ",
"U U U U U U U U U U U U U U U U U U U U U U U U U U U U U U U U U U U U U U U U U U U U U U U U U U U U U U U U U U U U U U U U ",
"U U U U U U U U U U U U U U U U U U U U U U U U U U U U U U U U U U U U U U U U U U U U U U U U U U U U U U U U U U U U U U U U "
};
