/* XPM */
static char *result[] = {
/* columns rows colors chars-per-pixel */
"64 64 15 1 ",
"  c #1D680E",
". c #D13C17",
"X c #AC5803",
"o c #88791A",
"O c #B96363",
"+ c #CB7B7B",
"@ c #F37572",
"# c #219D0F",
"$ c #2B9116",
"% c #41B529",
"& c #F88004",
"* c #BEDC29",
"= c #C7DE27",
"- c #327F84",
"; c #31D6F5",
/* pixels */
"                                                                ",
" $$$$$$$$$$$$$$$$$$$$$$$$$$$$$$$$$$$$$$$$$$$$$$$$$$$$$$$$$$$$$$ ",
" $%%%%%%%%%%%%%%%%%%%%%%%%%%%%%%%%%%%%%%%%%%%%%%%%%%%%%%%%%%%%$ ",
" $%##########################################################%$ ",
" $%##########################################################%$ ",
" $%#################################&&&&&&&&&################%$ ",
" $%#################################&&&&&&&&X&&&&&###########%$ ",
" $%#################################&&&&&&&&X&&&&&&##########%$ ",
" $%#############################&&&XXX&&&&&&X&&&&&&&#########%$ ",
" $%########.....################&&&&&XX&====X&&&&&&&#########%$ ",
" $%#######.......#......#######&&&&&&&&======&&&&&&&#########%$ ",
" $%#######@@.....@.......#####&&&&&&&&=======o&&&&&&#########%$ ",
" $%###.....@.....@.......#####&&&&&&&&======o=&&XXXX#########%$ ",
" $%##......@@....@.......#####&&&&&&&&=====oo=XXX&&&&&#######%$ ",
" $%##.......@....@.......#####&&&&&XXX====oo==&&&&&&&&#######%$ ",
" $%##.......@.==.@.......######&&XXX&X&===o==&&&&&&&&&#######%$ ",
" $%##.......@====o......#######&XX&&&&&&====X&&&&&&&&&#######%$ ",
" $%###......=====o=....#######XXX&&&&&&XX&&&XX&&&&&&&&#######%$ ",
" $%####.....====oo=@@@########&&&&&&&&&X&&&&&XX&&&&&&&#######%$ ",
" $%#####@@@@===o===....#######&&&&&&&&X&&&&&&&X&&&&&&########%$ ",
" $%###.......=====.......#####&&&&&&&&#&&&&&&&&##############%$ ",
" $%###........===.........####&&&&&&&##&&&&&&&&##############%$ ",
" $%###........@...@.......#############&&&&&&&&##############%$ ",
" $%###.......@@....@......###############&&&&&###############%$ ",
" $%###.......@.....@@.....###################################%$ ",
" $%###......@@.....@@....####################################%$ ",
" $%##########.......#########################################%$ ",
" $%##########.......#########################################%$ ",
" $%##########......##########################################%$ ",
" $%###########.....##########################################%$ ",
" $%##########################################################%$ ",
" $%##############################################++++++######%$ ",
" $%###################################+++++++###++++++++#####%$ ",
" $%###################################+++++++++#++++++++#####%$ ",
" $%###################################+++++++++O++++++++#####%$ ",
" $%###################################+++++++++O++++++++#####%$ ",
" $%###################;;;;############+++++++++O++++++++#####%$ ",
" $%#########;;;;;;;##;;;;;;###########+++++++++O++++++++#####%$ ",
" $%########;;;;;;;;--;;;;;;###########+++++++++O+++++OO######%$ ",
" $%########;;;;;;;;-;;;;;;;###########+++++++++O++++OO++++###%$ ",
" $%########;;;;;;;;--;;;;;;########+++OOOOO++****++OO++++++##%$ ",
" $%#####;;;---;;;;;;-;;;;;;######+++++++++O+*====*OO++++++++#%$ ",
" $%####;;;;;;--;====-;;;;;#######++++++++++*======*+++++++++#%$ ",
" $%####;;;;;;;-======;;;;;#######++++++++++*======*+++++++++#%$ ",
" $%###;;;;;;;;========;;;;#######++++++++++*======*+++++++++#%$ ",
" $%###;;;;;;;;======o=---########++++++++++*======O+++++++++#%$ ",
" $%###;;;;;;;;====ooo=;;;;#########++++++OO*======*OOO++++###%$ ",
" $%###;;------;===o==;;;;;;##########OOOO+++*====*+++OOO#####%$ ",
" $%#####;;;;;;;;====;;;;;;;;#########++++++++****++++++++####%$ ",
" $%####;;;;;;;;-;;;-;;;;;;;;#########++++++++O+++OO+++++++###%$ ",
" $%####;;;;;;;--;;;--;;;;;;;#########++++++++O++++O+++++++###%$ ",
" $%####;;;;;;;-;;;;;-;;;;;;;########++++++++OO+++++O++++++###%$ ",
" $%#####;;;;--;;;;;;--;;;;##########++++++++#++++++O++++++###%$ ",
" $%##########;;;;;;;#################++++++##+++++OO#++++####%$ ",
" $%##########;;;;;;;#################++++####++++++##########%$ ",
" $%###########;;;;;##########################+++++###########%$ ",
" $%###########;;;############################+++#############%$ ",
" $%##########################################################%$ ",
" $%##########################################################%$ ",
" $%##########################################################%$ ",
" $%##########################################################%$ ",
" $%%%%%%%%%%%%%%%%%%%%%%%%%%%%%%%%%%%%%%%%%%%%%%%%%%%%%%%%%%%%$ ",
" $$$$$$$$$$$$$$$$$$$$$$$$$$$$$$$$$$$$$$$$$$$$$$$$$$$$$$$$$$$$$$ ",
"                                                                "
};
