/* XPM */
static char *result[] = {
/* columns rows colors chars-per-pixel */
"64 64 2 1 ",
"  c #736122",
". c #E6C03E",
/* pixels */
"................................................................",
"................................................................",
"................................................................",
"................................................................",
"................................................................",
"....................  ..........................................",
"....................  ..........................................",
"...................    .............................  ..........",
"...................    ............................   ..........",
"..................      ...........................   ..........",
"..................      ..........................    ..........",
".................       ..........................    ..........",
".................        ........................      .........",
"................         .................                   ...",
"................          ................                   ...",
"......                               ......                 ....",
"......                               ........             ......",
".......                             ..........          ........",
".........                         ...........            .......",
"...........                     .............            .......",
".............                 ..............      ..      ......",
"............                ................    ......    ......",
"............                 ...............  ..........  ......",
"...........                  ...................................",
"...........                  ...................................",
"..........          ..        ..................................",
"..........        .....       ..................................",
".........       .........      .................................",
".........     .............    .................................",
".........   .................  .................................",
"................................................................",
"................................................................",
"................................................................",
"................................................................",
"................................................................",
"................................................................",
"..........   ............................  .....................",
"..........   ...........................   .....................",
".........     ..........................    ....................",
".........     .........................     ....................",
"........       ........................      ...................",
"...                  .................       ...................",
"...                   ...............         ..................",
"....                  ...............         ..................",
"......              ................           .................",
"......            ......                                    ....",
".....             ......                                    ....",
".....             ........                                ......",
"....       .       .........                           .........",
"....     ....      ...........                       ...........",
"....   ........    .............                  ..............",
"................................                  ..............",
"...............................                    .............",
"..............................                     .............",
"..............................         ..           ............",
".............................       .......         ............",
"............................      ...........        ...........",
"............................   ................      ...........",
"............................  ...................    ...........",
"................................................................",
"................................................................",
"................................................................",
"................................................................",
"................................................................"
};
