/* XPM */
static char *result[] = {
/* columns rows colors chars-per-pixel */
"64 64 176 2 ",
"   c #0E0002",
".  c #130003",
"X  c #1B0000",
"o  c #19080D",
"O  c #2C000B",
"+  c #3D0009",
"@  c #230213",
"#  c #260618",
"$  c #280819",
"%  c #3D071A",
"&  c #350B1B",
"*  c #2C1B1B",
"=  c #3D0B22",
"-  c #341E20",
";  c #372525",
":  c #400003",
">  c #40000B",
",  c #49020D",
"<  c #59000C",
"1  c #460819",
"2  c #431E1E",
"3  c #5C0D2C",
"4  c #441321",
"5  c #4F1627",
"6  c #4D1B2C",
"7  c #5D152F",
"8  c #56182A",
"9  c #5F1130",
"0  c #610F2F",
"q  c #601022",
"w  c #66172D",
"e  c #671F29",
"r  c #621431",
"t  c #442D2F",
"y  c #562135",
"u  c #54263D",
"i  c #50393A",
"p  c #583F3F",
"a  c #61253A",
"s  c #692538",
"d  c #74203F",
"f  c #7B203F",
"g  c #736122",
"h  c #6C2D44",
"j  c #7A2846",
"k  c #683343",
"l  c #7A324B",
"z  c #554D4E",
"x  c #745C64",
"c  c #880E32",
"v  c #92163B",
"b  c #B7133F",
"n  c #981F41",
"m  c #BA0B48",
"M  c #AF1C46",
"N  c #B6104A",
"B  c #B81049",
"V  c #BC0E59",
"C  c #BB1B51",
"Z  c #843A52",
"A  c #B6254E",
"S  c #AB2D53",
"D  c #B33657",
"F  c #C9074F",
"G  c #CC0353",
"H  c #C90653",
"J  c #C70859",
"K  c #D20053",
"L  c #D5025A",
"P  c #C12652",
"I  c #C11763",
"U  c #DA1169",
"Y  c #DA1D72",
"T  c #E71A75",
"R  c #C72466",
"E  c #D7367C",
"W  c #DB337D",
"Q  c #E5257F",
"!  c #8A4059",
"~  c #924A5E",
"^  c #8C4E61",
"/  c #A75779",
"(  c #AC5F7E",
")  c #C64068",
"_  c #C74571",
"`  c #D54976",
"'  c #C85C7E",
"]  c #E24877",
"[  c #E6C03E",
"{  c #F92481",
"}  c #F33E87",
"|  c #EA3D90",
" . c #BE6786",
".. c #B67395",
"X. c #D74F84",
"o. c #D8418B",
"O. c #C65C80",
"+. c #D25986",
"@. c #D75E87",
"#. c #DF598D",
"$. c #DE5E95",
"%. c #E5558A",
"&. c #FD489A",
"*. c #E85E92",
"=. c #C76A8C",
"-. c #D66589",
";. c #D76D90",
":. c #DE6D95",
">. c #D27796",
",. c #D7759F",
"<. c #E7638F",
"1. c #E9608A",
"2. c #E46291",
"3. c #E56B95",
"4. c #EC6A95",
"5. c #E6689A",
"6. c #F26E9D",
"7. c #F96999",
"8. c #E7759D",
"9. c #ED759D",
"0. c #F2719D",
"q. c #FF59A7",
"w. c #DC74A5",
"e. c #EB6FA0",
"r. c #F96DAE",
"t. c #EC73A1",
"y. c #E77CA7",
"u. c #EC7AA2",
"i. c #ED73AB",
"p. c #EB7DA9",
"a. c #F376A5",
"s. c #FA7BA3",
"d. c #FA70A8",
"f. c #FF65B5",
"g. c #EC7AB1",
"h. c #F077B2",
"j. c #FF7EB0",
"k. c #DD83A6",
"l. c #D687AD",
"z. c #D48EB3",
"x. c #DB92B5",
"c. c #D894B9",
"v. c #E583AB",
"b. c #E987AF",
"n. c #EC8AA9",
"m. c #FB84AC",
"M. c #EE8AB3",
"N. c #F983B5",
"B. c #F38BBA",
"V. c #FB8DBC",
"C. c #E992BB",
"Z. c #F090B7",
"A. c #F691BF",
"S. c #FF8EC5",
"D. c #F78EC9",
"F. c #EE96C8",
"G. c #F393C5",
"H. c #FB96C3",
"J. c #F799C4",
"K. c #FC99C4",
"L. c #F593CA",
"P. c #FE95CC",
"I. c #F39BCC",
"U. c #FD9CCC",
"Y. c #EF9ED0",
"T. c #F59ED4",
"R. c #FB9DD3",
"E. c #F49FDB",
"W. c #FA9ED8",
"Q. c #FCA2CE",
"!. c #F6A2D4",
"~. c #FBA1D4",
"^. c #FFA9D4",
"/. c #F7A2DC",
"(. c #FBA2DA",
"). c #FFB2FD",
/* pixels */
"[ [ [ [ [ [ [ [ [ [ [ [ [ [ [ [ [ [ [ [ [ [ [ [ [ [ [ [ [ [ [ [ [ [ [ [ [ [ [ [ [ [ [ [ [ [ [ [ [ [ [ [ [ [ [ [ [ [ [ [ [ [ [ [ ",
"[ [ [ [ [ [ [ [ [ [ [ [ [ [ [ [ [ [ [ [ [ [ [ [ [ [ [ [ [ [ [ [ [ [ [ [ [ [ [ [ [ [ [ [ [ [ [ [ [ [ [ [ [ [ [ [ [ [ [ [ [ [ [ [ ",
"[ [ [ [ [ [ [ [ [ [ [ [ [ [ [ [ [ [ [ [ [ [ [ [ [ [ [ [ * * * * - - * * * * [ [ [ [ [ [ [ [ [ [ [ [ [ [ [ [ [ [ [ [ [ [ [ [ [ [ ",
"[ [ [ [ [ [ [ [ [ [ [ [ [ [ [ [ [ [ [ [ [ [ [ [ [ [ [ [ * * * * - - * * * * [ [ [ [ [ [ [ [ [ [ [ [ [ [ [ [ [ [ [ [ [ [ [ [ [ [ ",
"[ [ [ [ [ [ [ [ [ [ [ [ [ [ [ [ [ [ [ [ [ [ [ [ [ [ p p 5 5 a a h h a a 6 8 i i [ [ [ [ [ [ [ [ [ [ [ [ [ [ [ [ [ [ [ [ [ [ [ [ ",
"[ [ [ [ [ [ [ [ [ [ [ [ [ [ [ [ [ [ [ [ g g [ [ [ [ p p 5 5 a y h h a a 6 6 i i [ [ [ [ [ [ [ [ [ [ [ [ [ [ [ [ [ [ [ [ [ [ [ [ ",
"[ [ [ [ [ [ [ [ [ [ [ [ [ [ [ [ [ [ [ [     % % 7 7 d d  . .k.k.C.b.v.v. . .j d r r % 1   . [ [ [ [ [ [ [ [ [ [ [ [ [ [ [ [ [ [ ",
"[ [ [ [ [ [ [ [ [ [ [ [ [ [ [ [ [ [ [ g . . % % 7 7 d d  . .k.k.b.b.v.k.=. .j d 7 w % & . . [ [ [ [ [ [ g g [ [ [ [ [ [ [ [ [ [ ",
"[ [ [ [ [ [ [ [ [ [ . . @ @ @ @ # # # $ 1 4 / / v.v.Z.Z.K.K.K.U.R.U.R.U.U.U.A.A.n.v.( ( & & @ $ * $ $ $ @ @ [ [ [ [ [ [ [ [ [ [ ",
"[ [ [ [ [ [ [ [ [ [ . . @ @ # # # # # $ = = / / v.k.Z.C.K.K.U.K.R.R.R.U.K.U.A.Q.n.v.( ( & * # @ $ $ $ $ @ @ [ [ [ [ [ [ [ [ [ [ ",
"[ [ [ [ [ [ [ [ [ [ $ & ....c.c.z.x.x.x.F.F.w.w.Z.B.Q.Q.Q.Q.Q.~.~.~.R.~.Q.~.Q.Q.B.B.,.,.x.n.c.c.c.z.c.F.....o o [ [ [ [ [ [ [ [ ",
"[ [ [ [ [ [ [ [ [ [ O $ ....c.z.x.z.x.z.C.x.w.w.B.B.Q.Q.Q.Q.Q.Q.R.~.R.~.~.Q.~.Q.Z.Z.,.,.x.x.c.x.z.z.c.c.....o o [ [ [ [ [ [ [ [ ",
"[ [ [ [ [ [ [ [ [ [ l.l.C.J.F.Y.Y.T.Y.Y.F.F.F.D.R.R.(.!.!.!.~./.(.(././.!.(.(.W.W.R.L.L.F.F.I.I.E.E.E.T.L.U.u u [ [ [ [ [ [ [ [ ",
"[ [ [ [ [ [ [ [ [ [ l.l.F.J.F.I.!.!.Y.Y.F.F.D.F.R.P.!.~./.!.(.~.(.(././.!.(.(.(.R.R.L.L.G.F.I.Q.E.Y.T.T.P.P.u u g g g g g [ [ [ ",
"[ [ [ [ [ [ [ [ [ [ C.C.U.K.~.~.~.~.(.(./.E.G.D.D.D.W.~.~.!.(.!././././.(./.~.(.G.G.G.B.I.I.~.~.R.R.W.W.P.P.u u g g g g g [ [ [ ",
"[ [ [ [ [ [ g g g g C.Z.P.U.~.~.(.!.(.(.W.(.D.G.L.L.~.W.!.!.~.~././././.(.(.~.~.G.G.G.G.U.U.~.~.R.R.(.W.U.U.u u g g g g [ [ [ [ ",
"[ [ [ [ [ [ g g g g x.Z.V.V.K.A.^.Q.P.R.P.D.h.h.g.M.R.R.~.Q.~./././.E./.!.!.Q.U.M.M.y.y.V.H.J.K.U.Q.V.K.V.V.y y g g [ [ [ [ [ [ ",
"[ [ [ [ [ [ [ g g g n.Z.V.V.K.K.Q.Q.R.W.D.D.h.h.g.g.R.U.Q.~./.~././././.!.!.I.I.g.M.i.y.G.G.J.K.Q.Q.K.K.V.V.y y [ [ [ [ [ [ [ [ ",
"[ [ [ [ [ [ [ [ z z k.>.9.9.9.9.u.u.i.i.h.h.i.i.N.N.K.L.~.~.~.~.E.E./.E.!.!.J.J.N.N.t.t.p.p.y.y.u.9.9.8.v.9.6 t g [ [ [ [ [ [ [ ",
"[ [ [ [ [ [ [ [ z z >.k.9.n.n.9.u.u.i.i.h.i.r.i.N.N.K.H.Q.R.(././.E./.!.Q.!.J.J.N.N.t.9.p.p.y.y.u.v.8.9.9.8.6 y g [ [ [ [ [ [ [ ",
"[ [ [ [ [ [ [ [ [ [ l l ;.=.u.u.6.6.s.a.e.e.*.*.5.5.G.V.~.U.^.(.E.E././.R.R.B.V.4.5.%.#.e.e.i.a.0.0.9.9.>.;.x x g g [ [ [ [ [ [ ",
"[ [ [ [ [ [ [ [ [ [ l l =.=.a.u.6.6.a.0.e.i.-.#.5.5.G.V.U.R.!.(.E.E././.R.T.D.B.5.2.#.#.e.e.a.a.6.0.9.9.;.>.x x g g [ [ [ [ [ [ ",
"[ [ [ [ [ [ [ [ [ [ X X Z j ;.;.6.0.4.4.<.<.X.+.@.-.B.B.R.U.(.(././././.P.W.B.B.$.$.X.X.2.*.<.<.0.0.3.:.l l [ [ g g [ [ [ [ [ [ ",
"[ [ [ [ [ [ [ [ [ [ X O l l ;.;.0.0.4.4.<.*.X.' +.-.B.B.U.R.(.(.E./././.T.T.B.D.$.$.X.X.*.*.<.<.0.6.:.:.! l [ [ [ [ [ [ [ [ [ [ ",
"[ [ [ [ [ [ [ [ [ [ o o X X ! Z ' ' ) ) ` _ 3.:.A.A.^.^.!.~.!.!.E.T.W.W.T.W.R.U.S.S.5.5.X.` _ _ ' ' ! ! X X [ [ [ [ [ [ [ [ [ [ ",
"[ [ [ [ [ [ [ [ [ [ o o X X Z Z ' ' ) ) ` E 3.:.A.A.^.^.(.(.!.!.E.W.W.W.R.T.R.R.S.S.5.e.o.` _ _ O.( ! ! X X [ [ [ [ [ [ [ [ [ [ ",
"[ [ [ [ [ [ [ [ [ [ g g . . O O f f %.%.7.7.S.j.P.R.^.(.(.(.P.W.W.~.W.W.W.W.W.R.P.U.N.N.3.5.@.@.Z j O O     [ [ [ [ [ [ [ [ [ [ ",
"[ [ [ [ [ [ [ [ [ g g g . . + O f f 1.%.7.q.S.S.R.R.(.(.(.(.W.E.W.R.~.W.~.~.R.R.P.P.N.N.4.4.@.@.j Z O O     [ [ [ [ [ [ [ [ [ [ ",
"[ [ [ [ [ [ [ [ [ g g g g g t t q w *.*.| } &.&.&.&.| | o.o.P.P.!.~.T.!.T.E.W.W.~.~.K.U.m.m.n.n.s a ; ; [ [ [ [ [ [ [ [ [ [ [ [ ",
"[ [ [ [ [ [ [ [ [ g g g [ [ t t 9 w *.*.} } } &.q.&.| o.o.o.D.D.T.T.!.!.!.!.~.R.~.(.U.K.V.m.n.n.s a ; ; [ [ [ [ [ [ [ [ [ [ [ [ ",
"[ [ [ [ [ [ [ [ [ [ [ [ [ [ [ [ 9 9 %.%.T T T T U U { o.q.f.f.r.R.U.~.R.~.R.R.Q.K.K.V.V.m.m.Z.n.k k [ [ [ [ [ [ [ [ [ [ [ [ [ [ ",
"[ [ [ [ [ [ [ [ [ [ [ [ [ [ [ [ 9 9 %.%.T T T T T T { { f.f.r.r.R.R.R.~.U.T.Q.R.K.K.Z.V.m.m.n.M.k k [ [ [ [ [ [ [ [ [ [ [ [ [ [ ",
"[ [ [ [ [ [ [ [ [ [ [ [ [ [ [ [ 0 0 E E T Q { { U U q.q.).).Q W S.P.B.B.B.B.H.H.n.9.4.3.7.4.-.-.8 8 [ [ [ [ [ [ [ [ [ [ [ [ [ [ ",
"[ [ [ [ [ [ [ [ [ [ [ [ [ [ [ [ 0 0 E E T T { { U U q.q.).).W W P.S.B.M.B.V.H.A.9.n.3.3.4.7.-.-.8 8 [ [ [ [ [ [ [ [ [ [ [ [ [ [ ",
"[ [ [ [ [ [ [ [ [ [ [ [ [ [ [ [ 3 0 W W L L K K G G V V I I Y Y d.d.t.t.8.8.9.9.0.m.7.7.] ] A S 1 1 [ [ [ [ [ [ [ [ [ [ [ [ [ [ ",
"[ [ [ [ [ [ [ [ [ [ [ [ [ [ [ [ 0 3 W } L L K K G G V V I I Y Y d.d.t.t.8.8.9.8.m.m.7.7.] ] S S 1 > [ [ [ [ [ [ [ [ [ [ [ [ [ [ ",
"[ [ [ [ [ [ [ [ [ [ g g g [ [ [ 3 3 R R K K K K L L H G H H J J j.j.3.3.<.4.1.1.] ` P P b b D D 1 1 [ [ [ [ [ [ [ [ [ [ [ [ [ [ ",
"[ [ [ [ [ [ [ [ [ [ g g g [ [ [ 3 3 R R K K K K L L G G H H J J j.j.3.3.4.4.1.1.` ] P P b b D D 1 1 [ [ [ [ [ [ [ [ [ [ [ [ [ [ ",
"[ [ [ [ [ [ [ [ [ g g g g g [ [ 4 1 f c B B K F K K G K H H C C : > ^ ^ ~ ~ s s q q e e e e 2 2 [ [ [ [ [ [ [ [ [ [ [ [ [ [ [ [ ",
"[ [ [ [ [ [ [ [ [ g g g g g [ [ 4 % c c B B F K K K K K J H C C > > ^ ~ ~ ~ s e q q w e e e 2 - [ [ [ [ [ [ [ [ [ [ [ [ [ [ [ [ ",
"[ [ [ [ [ [ [ [ g g g g g g g [ [ [ : : v v m m F F F F N N v n X X . X . X X X X X X X X X [ [ [ [ [ [ [ [ [ [ [ [ [ [ [ [ [ [ ",
"[ [ [ g g g g g g g g g g g g g g g + + v v m m F H F F N N v v O X . . X X X X X O X X X . [ [ [ [ [ [ [ [ [ [ [ [ [ [ [ [ [ [ ",
"[ [ [ g g g g g g g g g g g g g g g g g + : c c A A M M n n > > [ [ [ [ [ g g g g g g g g g [ [ [ [ [ [ [ [ [ [ [ [ [ [ [ [ [ [ ",
"[ [ [ [ g g g g g g g g g g g g g g g g + : c c A A M M n n > > [ [ [ [ [ g g g g g g g g g [ [ [ [ [ [ [ [ [ [ [ [ [ [ [ [ [ [ ",
"[ [ [ [ [ [ g g g g g g g g g g g g g g [ [ , , < < < < , , [ [ [ [ [ [ g g g g g g g g g g g [ [ [ [ [ [ [ [ [ [ [ [ [ [ [ [ [ ",
"[ [ [ [ [ [ g g g g g g g g g g g g [ [ [ [ , , < < < < , , g g g g g g g g g g g g g g g g g g g g g g g g g g g g g g [ [ [ [ ",
"[ [ [ [ [ g g g g g g g g g g g g g [ [ [ [ [ [ g g g g g g g g g g g g g g g g g g g g g g g g g g g g g g g g g g g g [ [ [ [ ",
"[ [ [ [ [ g g g g g g g g g g g g g [ [ [ [ [ [ [ [ g g g g g g g g g g g g g g g g g g g g g g g g g g g g g g g g [ [ [ [ [ [ ",
"[ [ [ [ g g g g g g g [ g g g g g g g [ [ [ [ [ [ [ [ [ g g g g g g g g g g g g g g g g g g g g g g g g g g g [ [ [ [ [ [ [ [ [ ",
"[ [ [ [ g g g g g [ [ [ [ g g g g g g [ [ [ [ [ [ [ [ [ [ [ g g g g g g g g g g g g g g g g g g g g g g g [ [ [ [ [ [ [ [ [ [ [ ",
"[ [ [ [ g g g [ [ [ [ [ [ [ [ g g g g [ [ [ [ [ [ [ [ [ [ [ [ [ g g g g g g g g g g g g g g g g g g [ [ [ [ [ [ [ [ [ [ [ [ [ [ ",
"[ [ [ [ [ [ [ [ [ [ [ [ [ [ [ [ [ [ [ [ [ [ [ [ [ [ [ [ [ [ [ [ g g g g g g g g g g g g g g g g g g [ [ [ [ [ [ [ [ [ [ [ [ [ [ ",
"[ [ [ [ [ [ [ [ [ [ [ [ [ [ [ [ [ [ [ [ [ [ [ [ [ [ [ [ [ [ [ g g g g g g g g g g g g g g g g g g g g [ [ [ [ [ [ [ [ [ [ [ [ [ ",
"[ [ [ [ [ [ [ [ [ [ [ [ [ [ [ [ [ [ [ [ [ [ [ [ [ [ [ [ [ [ g g g g g g g g g g g g g g g g g g g g g [ [ [ [ [ [ [ [ [ [ [ [ [ ",
"[ [ [ [ [ [ [ [ [ [ [ [ [ [ [ [ [ [ [ [ [ [ [ [ [ [ [ [ [ [ g g g g g g g g g [ [ g g g g g g g g g g g [ [ [ [ [ [ [ [ [ [ [ [ ",
"[ [ [ [ [ [ [ [ [ [ [ [ [ [ [ [ [ [ [ [ [ [ [ [ [ [ [ [ [ g g g g g g g [ [ [ [ [ [ [ g g g g g g g g g [ [ [ [ [ [ [ [ [ [ [ [ ",
"[ [ [ [ [ [ [ [ [ [ [ [ [ [ [ [ [ [ [ [ [ [ [ [ [ [ [ [ g g g g g g [ [ [ [ [ [ [ [ [ [ [ g g g g g g g g [ [ [ [ [ [ [ [ [ [ [ ",
"[ [ [ [ [ [ [ [ [ [ [ [ [ [ [ [ [ [ [ [ [ [ [ [ [ [ [ [ g g g [ [ [ [ [ [ [ [ [ [ [ [ [ [ [ [ g g g g g g [ [ [ [ [ [ [ [ [ [ [ ",
"[ [ [ [ [ [ [ [ [ [ [ [ [ [ [ [ [ [ [ [ [ [ [ [ [ [ [ [ g g [ [ [ [ [ [ [ [ [ [ [ [ [ [ [ [ [ [ [ g g g g [ [ [ [ [ [ [ [ [ [ [ ",
"[ [ [ [ [ [ [ [ [ [ [ [ [ [ [ [ [ [ [ [ [ [ [ [ [ [ [ [ [ [ [ [ [ [ [ [ [ [ [ [ [ [ [ [ [ [ [ [ [ [ [ [ [ [ [ [ [ [ [ [ [ [ [ [ ",
"[ [ [ [ [ [ [ [ [ [ [ [ [ [ [ [ [ [ [ [ [ [ [ [ [ [ [ [ [ [ [ [ [ [ [ [ [ [ [ [ [ [ [ [ [ [ [ [ [ [ [ [ [ [ [ [ [ [ [ [ [ [ [ [ ",
"[ [ [ [ [ [ [ [ [ [ [ [ [ [ [ [ [ [ [ [ [ [ [ [ [ [ [ [ [ [ [ [ [ [ [ [ [ [ [ [ [ [ [ [ [ [ [ [ [ [ [ [ [ [ [ [ [ [ [ [ [ [ [ [ ",
"[ [ [ [ [ [ [ [ [ [ [ [ [ [ [ [ [ [ [ [ [ [ [ [ [ [ [ [ [ [ [ [ [ [ [ [ [ [ [ [ [ [ [ [ [ [ [ [ [ [ [ [ [ [ [ [ [ [ [ [ [ [ [ [ ",
"[ [ [ [ [ [ [ [ [ [ [ [ [ [ [ [ [ [ [ [ [ [ [ [ [ [ [ [ [ [ [ [ [ [ [ [ [ [ [ [ [ [ [ [ [ [ [ [ [ [ [ [ [ [ [ [ [ [ [ [ [ [ [ [ "
};
