/* XPM */
static char *result[] = {
/* columns rows colors chars-per-pixel */
"64 64 180 2 ",
"   c #060000",
".  c #0C0002",
"X  c #0F0808",
"o  c #130000",
"O  c #190002",
"+  c #1C0009",
"@  c #130B0C",
"#  c #1C0A0C",
"$  c #160B12",
"%  c #1B0E13",
"&  c #220002",
"*  c #24040C",
"=  c #2C010D",
"-  c #240909",
";  c #33000E",
":  c #3D000F",
">  c #310011",
",  c #380518",
"<  c #3C0918",
"1  c #29191A",
"2  c #301C1F",
"3  c #322A2A",
"4  c #4B000A",
"5  c #52030C",
"6  c #410112",
"7  c #4F001D",
"8  c #470A1F",
"9  c #4C0A1E",
"0  c #6A021B",
"q  c #4F0D21",
"w  c #580A2A",
"e  c #4F1025",
"r  c #441A28",
"t  c #531429",
"y  c #531828",
"u  c #581F32",
"i  c #660826",
"p  c #670929",
"a  c #6B0829",
"s  c #61172E",
"d  c #631D34",
"f  c #44232B",
"g  c #4A2232",
"h  c #5D2738",
"j  c #483437",
"k  c #443838",
"l  c #583B3F",
"z  c #61223A",
"x  c #736122",
"c  c #5F3644",
"v  c #612E40",
"b  c #763149",
"n  c #7A4E5F",
"m  c #9F0533",
"M  c #8E1635",
"N  c #941134",
"B  c #941A3C",
"V  c #AD0B3B",
"C  c #921D40",
"Z  c #BC0D48",
"A  c #A91548",
"S  c #8B2441",
"D  c #863353",
"F  c #AA274E",
"G  c #A92055",
"H  c #B03258",
"J  c #BC2767",
"K  c #B83D65",
"L  c #C6195A",
"P  c #CA1B5F",
"I  c #C52353",
"U  c #C62859",
"Y  c #CD1E62",
"T  c #DE156D",
"R  c #E30967",
"E  c #F2126C",
"W  c #EE1973",
"Q  c #D22A71",
"!  c #D13678",
"~  c #E52777",
"^  c #8A485D",
"/  c #9B405F",
"(  c #974A65",
")  c #805B6C",
"_  c #A04964",
"`  c #A8526F",
"'  c #A95672",
"]  c #B45575",
"[  c #C74C75",
"{  c #CD4C79",
"}  c #D84876",
"|  c #CB557D",
" . c #D1517D",
".. c #E34976",
"X. c #E6C03E",
"o. c #E73183",
"O. c #946A85",
"+. c #9B6F86",
"@. c #9C7289",
"#. c #AC6F8D",
"$. c #B57299",
"%. c #D04A81",
"&. c #CE5081",
"*. c #DE5487",
"=. c #DC5C8D",
"-. c #DA5E93",
";. c #E64587",
":. c #F0438B",
">. c #E75B8C",
",. c #CC668F",
"<. c #DD648E",
"1. c #CB6D92",
"2. c #DC6793",
"3. c #DB6E93",
"4. c #D36898",
"5. c #C47192",
"6. c #C87092",
"7. c #DD7097",
"8. c #D2739C",
"9. c #DB739E",
"0. c #E76795",
"q. c #EB659E",
"w. c #EA6D9D",
"e. c #F56490",
"r. c #F16F9C",
"t. c #E4739B",
"y. c #E4769B",
"u. c #EB739D",
"i. c #F1739D",
"p. c #F764A3",
"a. c #E673A2",
"s. c #EB72A3",
"d. c #EC76A8",
"f. c #EC7BA9",
"g. c #F97AA6",
"h. c #F574A9",
"j. c #F877A8",
"k. c #F47CAB",
"l. c #EA7EB1",
"z. c #F47FB5",
"x. c #FE7BB2",
"c. c #FF6FC7",
"v. c #E383A3",
"b. c #F987AE",
"n. c #EE84B7",
"m. c #E38EB1",
"M. c #EC85BB",
"N. c #EC8FB8",
"B. c #F582B4",
"V. c #FD84B5",
"C. c #F285BA",
"Z. c #F985BB",
"A. c #F58ABD",
"S. c #FE8ABC",
"D. c #EA96B4",
"F. c #EC91BD",
"G. c #E699B8",
"H. c #FB90BB",
"J. c #FC8CC7",
"K. c #FD93C5",
"L. c #FF9FC7",
"P. c #F696CF",
"I. c #FE94CB",
"U. c #F69ECE",
"Y. c #FE9CCC",
"T. c #FF96D3",
"R. c #F69DD4",
"E. c #FD9DD4",
"W. c #FC9EDA",
"Q. c #FFA1CF",
"!. c #F7A3D6",
"~. c #FBA2D6",
"^. c #F6A2D9",
"/. c #FBA2DB",
"(. c #F7ADDA",
"). c #F5B0D2",
"_. c #FAB5DD",
"`. c #FDA2E3",
"'. c #FBB4E0",
"]. c #FFA8F3",
/* pixels */
"X.X.X.X.X.X.X.X.X.X.X.X.X.X.X.X.X.X.X.X.X.X.X.X.X.X.X.X.X.X.X.X.X.X.X.X.X.X.X.X.X.X.X.X.X.X.X.X.X.X.X.X.X.X.X.X.X.X.X.X.X.X.X.X.",
"X.X.X.X.X.X.X.X.X.X.X.X.X.X.X.X.X.X.X.X.X.X.X.X.X.X.X.X.X.X.X.X.X.X.X.X.X.X.X.X.X.X.X.X.X.X.X.X.X.X.X.X.X.X.X.X.X.X.X.X.X.X.X.X.",
"X.X.X.X.X.X.X.X.X.X.X.X.X.X.X.X.X.X.X.X.X.X.X.X.X.X.X.X.X.X.X.X.X.X.X.X.X.X.X.X.X.X.X.X.X.X.X.X.X.X.X.X.X.X.X.X.X.X.X.X.X.X.X.X.",
"X.X.X.X.X.X.X.X.X.X.X.X.X.X.X.X.X.X.X.X.X.X.X.X.X.X.X.X.X.X.X.X.X.X.X.X.X.X.X.X.X.X.X.X.X.X.X.X.X.X.X.X.X.X.X.X.X.X.X.X.X.X.X.X.",
"X.X.X.X.X.X.X.X.X.X.X.X.X.X.X.X.X.X.X.X.X.X.X.X.X.X.X.X.6 6 9 9 9 9 q q 9 9 ; ; X.X.X.X.X.X.X.X.X.X.X.X.X.X.X.X.X.X.X.X.X.X.X.X.",
"X.X.X.X.X.X.X.X.X.X.X.X.X.X.X.X.X.X.X.X.x x X.X.X.X.X.X.: : 9 9 9 9 q e 9 9 ; ; X.X.X.X.X.X.X.X.X.X.X.X.X.X.X.X.X.X.X.X.X.X.X.X.",
"X.X.X.X.X.X.X.X.X.X.X.X.X.X.X.X.X.X.X.X.    + + > ; w t ` ` 6.1.1.1.6.6.5.5.( ( , q > > * * . . X.X.X.X.X.X.X.X.X.X.X.X.X.X.X.X.",
"X.X.X.X.X.X.X.X.X.X.X.X.X.X.X.X.X.X.X.x     + + > = t w ` ` 6.6.1.1.6.5.5.5.( ( q e > > * * . . X.X.X.X.x x X.X.X.X.X.X.X.X.X.X.",
"X.X.X.X.X.X.X.X.X.X.@ @ $ $ $ $ @ @ @ X O O ^ / 1.1.v.9.N.N.R.E.R.R.R.R.U.U.N.F.8.8.,.,.D D * + $ $ $ $ % % @ @ X $ X.X.X.X.X.X.",
"X.X.X.X.X.X.X.X.X.X.$ @ @ @ $ $ # $ X X O O ( / 1.6.8.v.N.F.P.E.R.W.R.R.!.Q.F.F.8.8.,.,.D D * + $ $ $ X % % @ @ @ X X.X.X.X.X.X.",
"X.X.X.X.X.X.X.X.1 3 X + ) n @.O.+.+.@.@.#.#.9.9.V.S.Q.Q.~.~.W.`.`.`.`./.~./././.~.E.V.V.4.4.$.$.O.@.O.O.O.) n n o O 3 3 X.X.X.X.",
"X.X.X.X.X.X.X.X.1 1 X + ) n +.+.+.@.@.+.#.#.9.9.S.S.Q.Q.(.~.`.`.`.`./.`.(././.~.E.E.V.Z.4.4.$.$.O.O.O.O.@.@.n n o O 3 3 X.X.X.X.",
"X.X.X.X.X.X.X.X.= = ^ ^ ).G._._._.'.(.(.U.R.M.M.K.P.~.~.~.~.R.R.R.W.R.R.R.E.E.E.~.~.A.A.M.M.!.!.'.'.'.'.).).D.D.b b & & X.X.X.X.",
"X.X.X.X.X.X.X.X.= & n ^ G.G._._._._.(.(.R.U.M.M.K.J.~.~.!.~.R.R.W.R.W.R.R.R.E.R.~.~.A.A.C.F.!.!.'.'.'.'.).).D.G.b b & + x X.X.X.",
"X.X.X.X.X.X.X.X.h h D.D.L.L.Q.!.W.W.E.E.E.E.I.J.T.E././.W.R.!.~.!.~.^.^.R.~./.~.~.~.L.K.K.K././.R.^.R.R.Q.!.Y.P.m.m.g r x X.X.X.",
"X.X.X.X.X.X.x x h h D.D.L.L.E.!.W.W.E.E.W.E.I.I.T.T././.^.W.R.~.R.~./.R.~.^././.~.~.K.K.P.K./.`.^.^.R.!.!.!.Y.E.m.m.r g X.X.X.X.",
"X.X.X.X.X.X.x x v v D.D.S.H.E.W././.E.E.K.I.n.f.A.C.P.P.!.R.~.!.^.R.^.^.^./././.Y.P.n.n.l.l.T.T.W.W.W.W.~.Q.K.H.D.m.g g X.X.X.X.",
"X.X.X.X.X.X.X.x l z D.D.H.H.E.E.`./.E.E.I.I.l.l.C.C.P.P.!.W.!.~.^.^.^.^.W./.`.W.E.E.n.C.n.l.T.T.`.W././.Q.Q.K.K.m.m.g f X.X.X.X.",
"X.X.X.X.X.X.X.X.u u v.v.b.b.z.V.Z.Z.B.z.f.f.f.d.C.N.K.P.~.~.~.~.~./.W.^.`.^.W.W.I.I.z.z.l.d.z.z.Z.Z.A.A.B.A.b.V.v.v.r r X.X.X.X.",
"X.X.X.X.X.X.X.X.h h v.v.g.k.B.z.Z.Z.b.z.f.f.f.f.n.n.U.U.~.~.~.~.~.^.^.`././.T.W.I.I.z.z.l.k.z.z.Z.Z.S.A.B.V.V.b.v.v.< r X.X.X.X.",
"X.X.X.X.X.X.X.X.c c ` ' a.t.w.u.w.w.u.w.t.u.2.2.f.f.K.K.~.~.~.~.^.^./.^.W.`.E.W.J.J.s.d.q.2.h.h.s.s.w.t.t.u.3.3._ ( l l X.X.X.X.",
"X.X.X.X.X.X.X.X.c c ' ' t.t.u.w.w.w.u.u.t.u.2.2.f.f.P.K.~.~.~.!.^.^.^.`./.`.W.T.J.J.s.s.0.0.h.h.s.s.w.w.a.u.3.y._ ( l l X.X.X.X.",
"X.X.X.X.X.X.X.X.X.X.= = ' ' t.t.r.r.i.u.u.i.{ { -.-.A.Z.~.~.!.!.^.^.^.~.W.W.W.`.M.M.-.-.&.&.i.s.q.r.r.r.y.y.^ ^ O O X.X.X.X.X.X.",
"X.X.X.X.X.X.X.X.X.X.= = ' ' t.t.r.r.i.i.i.w.{ { -.<.A.Z.~.~.!.!.R.^.^.^.`.W.W.W.M.c.-.-.&. .s.s.r.0.r.r.7.7.^ ^ O O X.X.X.X.X.X.",
"X.X.X.X.X.X.X.X.X.X.X . < < ] ] 2.<.[ {  . .0.0.x.Z.Y.E.R.R.!.~.~.^.^.R./.^.W.W.E.I.z.z.<.=.&. .{ { <.<._ _ * *     X.X.X.X.X.X.",
"X.X.X.X.X.X.X.X.X.X.o o < < ] ] <.2.[ [  . .0.<.B.V.Y.E.R.R.!.R.R.^.^.W.W.`.W.W.I.Y.z.z.<.=.{  .{ { <.<._ _ = -     X.X.X.X.X.X.",
"X.X.X.X.X.X.X.X.X.X.x x o . 8 9 / / | | <.=.B.k.Y.Y././.^.^.R.^.~.^.^.^.^./.R.R./.(.Y.Y.f.f.>.>.[ [ D b < < . o X.X.X.X.X.X.X.X.",
"X.X.X.X.X.X.X.X.X.x x x . o 8 9 / / | | >.<.B.B.E.Y././.R.R.~.~.~.^.^.^.`.^.R.T./.~.Y.Y.f.f.0.-.] [ D D , , . X X.X.X.X.X.X.X.X.",
"X.X.X.X.X.X.X.X.X.x x x x x = 1 d d 7.7.b.S.K.K.E.Q.R.R.R.W.~.~.~.~.~.~.W.^.W.^.Y.~.Y.Y.K.H.g.b.u.f.y y 2 2 X.X.X.X.X.X.X.X.X.X.",
"X.X.X.X.X.X.X.X.X.x x x X.X.1 1 d d 7.7.V.b.K.K.Y.E.R.R.^.^.W.W.E.R.^.~.R.W.W.~.~.Q.Q.Q.K.H.b.b.y.y.t y 2 2 X.X.X.X.X.X.X.X.X.X.",
"X.X.X.X.X.X.X.X.X.X.X.X.X.X.k j z d y.9.H.S.Y.Y.E.Y.E.E.W.E.E.E.E.E./.E.~.E.R.E.~.~.K.Y.Q.Q.H.L.D.b.z z X.X.X.X.X.X.X.X.X.X.X.X.",
"X.X.X.X.X.X.X.X.X.X.X.X.X.X.j j z z 9.v.S.H.Y.Y.Y.E.E.E.E.W.E.T.E.~.E.E.E.E.E.E.~.~.U.Y.L.L.L.H.b.b.h d X.X.X.X.X.X.X.X.X.X.X.X.",
"X.X.X.X.X.X.X.X.X.X.X.X.X.X.j k z z y.y.s.s.d.s.C.Z.J.K.J.I.K.K.K.K.K.K.K.K.K.K.J.J.M.l.d.d.h.i.3.<.e e X.X.X.X.X.X.X.X.X.X.X.X.",
"X.X.X.X.X.X.X.X.X.X.X.X.X.X.j k z z 9.y.s.s.a.d.B.B.K.J.K.K.K.L.K.K.Y.K.K.K.J.I.J.J.M.C.d.d.h.h.3.3.e e X.X.X.X.X.X.X.X.X.X.X.X.",
"X.X.X.X.X.X.X.X.X.X.X.X.X.X.k k q q K K >.>.i.i.k.f.f.f.a.t.s.s.s.s.a.a.d.a.d.h.x.x.x.x.p.h.;.:.%.%.w t X.X.X.X.X.X.X.X.X.X.X.X.",
"X.X.X.X.X.X.X.X.X.X.X.X.X.X.k k q q K K :.>.i.i.b.f.f.f.a.a.s.s.s.s.a.d.s.a.d.d.x.x.x.z.p.p.;.;.%.%.w w X.X.X.X.X.X.X.X.X.X.X.X.",
"X.X.X.X.X.X.X.X.X.X.x x x X.2 2 9 9 H H U U ..}  .<.0.e.g.g.g.g.g.g.k.k.j.j.h.h.;.*.;.;.:.:.~ ~ ! ! w w X.X.X.X.X.X.X.X.X.X.X.X.",
"X.X.X.X.X.X.X.X.X.X.x x x X.2 1 9 9 H H U U } } >...0.y.i.i.g.g.g.g.j.x.x.k.h.h.*.*.;.;.:.:.~ ~ ! ! w w X.X.X.X.X.X.X.X.X.X.X.X.",
"X.X.X.X.X.X.X.X.X.x x x x x X.X.y y M B m m V V I I ....e.e.e.0.<.=.=.*.q.q.q.q.q.p.o.o.T T W W Q Q w w X.X.X.X.X.X.X.X.X.X.X.X.",
"X.X.X.X.X.X.X.X.X.x x x x x X.X.y y B B m m V V I I ....e.e.0.0.=.=.*.=.q.q.q.q.p.p.o.o.T T W W Q Q w w X.X.X.X.X.X.X.X.X.X.X.X.",
"X.X.X.X.X.X.X.X.x x x x x x x X.X.X.4 4 B C M N N N N N M M S S 5 5 0 0 G G Y J ].].c.c.R R E E Y Y 7 q X.X.X.X.X.X.X.X.X.X.X.X.",
"X.X.X.x x x x x x x x x x x x x x x 4 4 C C N N N N N N M M S S 5 5 0 0 G F J J ].].c.c.R R E E Y Y 7 q X.X.X.X.X.X.X.X.X.X.X.X.",
"X.X.X.x x x x x x x x x x x x x x x x x x x X.X.X.X.X.X.X.X.X.X.X.X.X.X.a a A A L L P P L L Z Z F F 6 6 X.X.X.X.X.X.X.X.X.X.X.X.",
"X.X.X.X.x x x x x x x x x x x x x x x x x x X.X.X.X.X.X.X.X.X.X.X.X.X.X.a a A A L L P P L L Z Z F F 6 , X.X.X.X.X.X.X.X.X.X.X.X.",
"X.X.X.X.X.X.x x x x x x x x x x x x x x X.X.X.X.X.X.X.X.X.X.X.X.X.X.X.X.& & i y p p a a a p i i s s f f X.X.X.X.X.X.X.X.X.X.X.X.",
"X.X.X.X.X.X.x x x x x x x x x x x x X.X.X.X.X.X.x x x x x x x x x x x x & & w w p p a a p a i p s s f f x x x x x x x x X.X.X.X.",
"X.X.X.X.X.x x x x x x x x x x x x x X.X.X.X.X.X.x x x x x x x x x x x x X X - - - - - - - - - - * # x x x x x x x x x x X.X.X.X.",
"X.X.X.X.X.x x x x x x x x x x x x x X.X.X.X.X.X.X.X.x x x x x x x x x x X X # # - - - - - - - - - * x x x x x x x x X.X.X.X.X.X.",
"X.X.X.X.x x x x x x x X.x x x x x x x X.X.X.X.X.X.X.X.X.x x x x x x x x x x x x x x x x x x x x x x x x x x x X.X.X.X.X.X.X.X.X.",
"X.X.X.X.x x x x x X.X.X.X.x x x x x x X.X.X.X.X.X.X.X.X.X.X.x x x x x x x x x x x x x x x x x x x x x x x X.X.X.X.X.X.X.X.X.X.X.",
"X.X.X.X.x x x X.X.X.X.X.X.X.X.x x x x X.X.X.X.X.X.X.X.X.X.X.X.X.x x x x x x x x x x x x x x x x x x X.X.X.X.X.X.X.X.X.X.X.X.X.X.",
"X.X.X.X.X.X.X.X.X.X.X.X.X.X.X.X.X.X.X.X.X.X.X.X.X.X.X.X.X.X.X.X.x x x x x x x x x x x x x x x x x x X.X.X.X.X.X.X.X.X.X.X.X.X.X.",
"X.X.X.X.X.X.X.X.X.X.X.X.X.X.X.X.X.X.X.X.X.X.X.X.X.X.X.X.X.X.X.x x x x x x x x x x x x x x x x x x x x X.X.X.X.X.X.X.X.X.X.X.X.X.",
"X.X.X.X.X.X.X.X.X.X.X.X.X.X.X.X.X.X.X.X.X.X.X.X.X.X.X.X.X.X.x x x x x x x x x x x x x x x x x x x x x X.X.X.X.X.X.X.X.X.X.X.X.X.",
"X.X.X.X.X.X.X.X.X.X.X.X.X.X.X.X.X.X.X.X.X.X.X.X.X.X.X.X.X.X.x x x x x x x x x X.X.x x x x x x x x x x x X.X.X.X.X.X.X.X.X.X.X.X.",
"X.X.X.X.X.X.X.X.X.X.X.X.X.X.X.X.X.X.X.X.X.X.X.X.X.X.X.X.X.x x x x x x x X.X.X.X.X.X.X.x x x x x x x x x X.X.X.X.X.X.X.X.X.X.X.X.",
"X.X.X.X.X.X.X.X.X.X.X.X.X.X.X.X.X.X.X.X.X.X.X.X.X.X.X.X.x x x x x x X.X.X.X.X.X.X.X.X.X.X.x x x x x x x x X.X.X.X.X.X.X.X.X.X.X.",
"X.X.X.X.X.X.X.X.X.X.X.X.X.X.X.X.X.X.X.X.X.X.X.X.X.X.X.X.x x x X.X.X.X.X.X.X.X.X.X.X.X.X.X.X.X.x x x x x x X.X.X.X.X.X.X.X.X.X.X.",
"X.X.X.X.X.X.X.X.X.X.X.X.X.X.X.X.X.X.X.X.X.X.X.X.X.X.X.X.x x X.X.X.X.X.X.X.X.X.X.X.X.X.X.X.X.X.X.X.x x x x X.X.X.X.X.X.X.X.X.X.X.",
"X.X.X.X.X.X.X.X.X.X.X.X.X.X.X.X.X.X.X.X.X.X.X.X.X.X.X.X.X.X.X.X.X.X.X.X.X.X.X.X.X.X.X.X.X.X.X.X.X.X.X.X.X.X.X.X.X.X.X.X.X.X.X.X.",
"X.X.X.X.X.X.X.X.X.X.X.X.X.X.X.X.X.X.X.X.X.X.X.X.X.X.X.X.X.X.X.X.X.X.X.X.X.X.X.X.X.X.X.X.X.X.X.X.X.X.X.X.X.X.X.X.X.X.X.X.X.X.X.X.",
"X.X.X.X.X.X.X.X.X.X.X.X.X.X.X.X.X.X.X.X.X.X.X.X.X.X.X.X.X.X.X.X.X.X.X.X.X.X.X.X.X.X.X.X.X.X.X.X.X.X.X.X.X.X.X.X.X.X.X.X.X.X.X.X.",
"X.X.X.X.X.X.X.X.X.X.X.X.X.X.X.X.X.X.X.X.X.X.X.X.X.X.X.X.X.X.X.X.X.X.X.X.X.X.X.X.X.X.X.X.X.X.X.X.X.X.X.X.X.X.X.X.X.X.X.X.X.X.X.X.",
"X.X.X.X.X.X.X.X.X.X.X.X.X.X.X.X.X.X.X.X.X.X.X.X.X.X.X.X.X.X.X.X.X.X.X.X.X.X.X.X.X.X.X.X.X.X.X.X.X.X.X.X.X.X.X.X.X.X.X.X.X.X.X.X."
};
