/* XPM */
static char *result[] = {
/* columns rows colors chars-per-pixel */
"64 64 194 2 ",
"   c #070000",
".  c #0E0002",
"X  c #0F0B0B",
"o  c #150006",
"O  c #1E0007",
"+  c #1B000B",
"@  c #140A0A",
"#  c #19090A",
"$  c #160B13",
"%  c #1B0C12",
"&  c #230002",
"*  c #2B0000",
"=  c #23040C",
"-  c #2B010D",
";  c #220909",
":  c #310006",
">  c #32000A",
",  c #38000B",
"<  c #260011",
"1  c #2D0212",
"2  c #350414",
"3  c #3D0813",
"4  c #211010",
"5  c #271E1E",
"6  c #351D1D",
"7  c #450307",
"8  c #460008",
"9  c #4B000D",
"0  c #420010",
"q  c #4B0811",
"w  c #420C1A",
"e  c #5B0216",
"r  c #520B17",
"t  c #5B0A1D",
"y  c #66061C",
"u  c #480822",
"i  c #5A0C28",
"p  c #451429",
"a  c #4E1A2F",
"s  c #521426",
"d  c #5E162A",
"f  c #650628",
"g  c #66052A",
"h  c #6D1C2D",
"j  c #6E0030",
"k  c #651D38",
"l  c #721C32",
"z  c #4D222D",
"x  c #5B2239",
"c  c #62273F",
"v  c #736122",
"b  c #5D3546",
"n  c #6A2942",
"m  c #643044",
"M  c #77364C",
"N  c #6D3550",
"B  c #785066",
"V  c #9A0A30",
"C  c #971337",
"Z  c #98183B",
"A  c #AB0D37",
"S  c #92213E",
"D  c #921A40",
"F  c #AD1A45",
"G  c #B2144B",
"H  c #B01849",
"J  c #B91656",
"K  c #902A44",
"L  c #9D3C57",
"P  c #A42C4C",
"I  c #BD205C",
"U  c #B83153",
"Y  c #C20945",
"T  c #D20654",
"R  c #C41A5D",
"E  c #C82A54",
"W  c #CB1E64",
"Q  c #D5166B",
"!  c #E60F68",
"~  c #E1116E",
"^  c #E71673",
"/  c #D42F77",
"(  c #CA3476",
")  c #80475E",
"_  c #9D4D64",
"`  c #974A68",
"'  c #815A6A",
"]  c #A64D6A",
"[  c #BF4064",
"{  c #AA586D",
"}  c #A85672",
"|  c #976D7F",
" . c #C1476C",
".. c #D2486C",
"X. c #CD4B74",
"o. c #CD447B",
"O. c #CC4C7E",
"+. c #D34F7B",
"@. c #D05379",
"#. c #E54675",
"$. c #E6C03E",
"%. c #F73B88",
"&. c #936A84",
"*. c #9B6986",
"=. c #9E7283",
"-. c #A06D85",
";. c #B46B8B",
":. c #B9718D",
">. c #D74F86",
",. c #CB598F",
"<. c #D65788",
"1. c #E8498A",
"2. c #E65D85",
"3. c #FB5B90",
"4. c #C16F8D",
"5. c #D7678A",
"6. c #CD7187",
"7. c #CB7488",
"8. c #DA6797",
"9. c #D76F90",
"0. c #C47194",
"q. c #CC7497",
"w. c #DD7599",
"e. c #D1789F",
"r. c #E16387",
"t. c #E66797",
"y. c #EA6B9D",
"u. c #F36997",
"i. c #E67495",
"p. c #EA759A",
"a. c #E6799D",
"s. c #F3789E",
"d. c #FA5CA1",
"f. c #D87EA3",
"g. c #E86EA4",
"h. c #F26DA4",
"j. c #E674A3",
"k. c #EB74A3",
"l. c #EE7CA7",
"z. c #EA75A9",
"x. c #EB7BAB",
"c. c #F473A1",
"v. c #F577AC",
"b. c #F37CA9",
"n. c #F87AA9",
"m. c #E97EB5",
"M. c #F27CB1",
"N. c #FB7BB2",
"B. c #C580A0",
"V. c #D886A7",
"C. c #DC8FB2",
"Z. c #DC96B8",
"A. c #EE83AE",
"S. c #F492AB",
"D. c #E886B1",
"F. c #EE83B6",
"G. c #EB84BB",
"H. c #EC8BBB",
"J. c #F481B3",
"K. c #FC84B3",
"L. c #F786B8",
"P. c #FD85BB",
"I. c #F48DB9",
"U. c #FC8CBC",
"Y. c #EC94B9",
"T. c #E99CBC",
"R. c #F791BD",
"E. c #E1A5BC",
"W. c #ED88C6",
"Q. c #FA8CC5",
"!. c #F28EC9",
"~. c #EC95C3",
"^. c #F593C4",
"/. c #FB92C5",
"(. c #F599C3",
"). c #F795CF",
"_. c #FE96CA",
"`. c #FA9AC8",
"'. c #FD9BCD",
"]. c #F797D1",
"[. c #F59ED5",
"{. c #FB9ED4",
"}. c #FA9ED8",
"|. c #F0A1C7",
" X c #F5A1CC",
".X c #FDA1CE",
"XX c #F5A1D4",
"oX c #FBA2D3",
"OX c #FDA2DA",
"+X c #FFA9D8",
"@X c #F6B6D7",
"#X c #FBB5DC",
"$X c #FFB3E1",
"%X c #FFBCF6",
/* pixels */
"$.$.$.$.$.$.$.$.$.$.$.$.$.$.$.$.$.$.$.$.$.$.$.$.$.$.$.$.$.$.$.$.$.$.$.$.$.$.$.$.$.$.$.$.$.$.$.$.$.$.$.$.$.$.$.$.$.$.$.$.$.$.$.$.",
"$.$.$.$.$.$.$.$.$.$.$.$.$.$.$.$.$.$.$.$.$.$.$.$.$.$.$.$.$.$.$.$.$.$.$.$.$.$.$.$.$.$.$.$.$.$.$.$.$.$.$.$.$.$.$.$.$.$.$.$.$.$.$.$.",
"$.$.$.$.$.$.$.$.$.$.$.$.$.$.$.$.$.$.$.$.$.$.$.$., > r r q q r r y t 7 0 $.$.$.$.$.$.$.$.$.$.$.$.$.$.$.$.$.$.$.$.$.$.$.$.$.$.$.$.",
"$.$.$.$.$.$.$.$.$.$.$.$.$.$.$.$.$.$.$.$.$.$.$.$., > r r q q r r t t 7 0 $.$.$.$.$.$.$.$.$.$.$.$.$.$.$.$.$.$.$.$.$.$.$.$.$.$.$.$.",
"$.$.$.$.$.$.$.$.$.$.$.$.$.$.$.$.    + + - - w w _ _ 7.7.7.7.6.6.9.9.{ ] a a - 1 < < . . $.$.$.$.$.$.$.$.$.$.$.$.$.$.$.$.$.$.$.$.",
"$.$.$.$.$.$.$.$.$.$.$.$.$.$.$.$.    + + - 1 w w _ _ 7.7.7.7.6.7.6.5.] ] s s 1 - = % o o $.$.$.$.$.$.$.$.$.$.$.$.$.$.$.$.$.$.$.$.",
"$.$.$.$.$.$.$.$.$ $ $ $ $ $ % # & O M M :.4.q.q.T.Y.~.~..X.X X`..X`.Y.I.f.f.0.0.` ` & & # # $ # @ $ 4 % X X $.$.$.$.$.$.$.$.$.$.",
"$.$.$.$.$.$.$.$.$ $ % % $ $ % 4 & & M M 4.4.q.7.Y.Y.(.(..X.X X.XR..XY.I.f.V.0.0.` ` & & # @ % # @ # % % X X $.$.$.$.$.$.$.$.$.$.",
"$.$.$.$.$.$.o o B B &.&.&.&.=.*.:.:.q.q.S.I..X.X+XXXXXXXOXOXoXOX+X+X.X.X+XoXR.^.e.e.;.;.*.-.=.| =.=.' ' o + 5 5 $.$.$.$.$.$.$.$.",
"$.$.$.$.$.$.o o B B &.&.&.&.*.*.:.:.q.q.I.I..X.XXX+XXXXXOXOXOXOX+X+X.XoXoXoXR.Y.e.e.;.;.*.&.&.| =.| ' ' o + 5 5 $.$.$.$.$.$.$.$.",
"$.$.$.$.< < N N ~.Z.$X$X#X#X#X#X.X+XH.H.H.H.oX+X X XXX|.OXOXOXOXoXoX XoX+X+X~.~.W.H.oXoX$X$X#X#X@X@XE.E.B ) 2 1 $.$.$.$.$.$.$.$.",
"$.$.$.$.< < N N Z.Z.$X$X#X#X@X#X.X.XH.H.H.H.+X.X XXXXXXXoXOXOXoXOXoX XoX+XoX~.~.H.H.oXoX@X%X#X#X@X@XE.E.) ) 1 4 $.$.$.$.$.$.$.$.",
"$.$.$.$.p p B.B.~.T..X'.XXXX~.~.H.H./.Q.`.'..X.XXXXXXXXXXXXX{.XXoXOX{.XXXXOXOXXX!.!.W.W.).).[.[.T.|.E.Y.V.V.x x $.$.$.$.$.$.$.$.",
"$.$.$.$.p p B.B.~.~.'..X|.XX~.~.H.H./.^.`.'.XXXXXX|.XXXX{.XX{.{.{.XXXX}.OXXXOX{.!.~.W.W.].).[.[.|.|.T.T.V.V.x x v v v v v $.$.$.",
"$.$.$.$.p p Z.C.|. X X.XoXoXXXOXoXoX^.^.~.(.XX+XXXXXXXXX[.[.[.OXoXOX{.{.oXOX).).!.!.}.}.}.OXOXOX.X X|..XT.T.c c v v v v v $.$.$.",
"$.$.$.$.p p Z.Z. X|.oX XoXoXoXoXoXoX^.^.^.~.XX@XXXXXXXXXOX[.{.{.OXOX{.}.OX}.).).!.!.}.].}.OXOXOX X.X.XT.T.T.c c v v v v $.$.$.$.",
"$.$.$.$.a a C.C.`.(._.'.'.'.'.oX_._.m.m.m.m.].~..XXXXXXX{.}.}.[.OXOX{.{.]._.W.m.G.m.Q.Q.}.oX{.{..X.XS.R.Y.Y.n n v v $.$.$.$.$.$.",
"$.$.$.$.a a C.C.(.(._._.'.'.'.oX_._.m.m.f.D.].[.XXXXXXXXXX}.}.{.oXoX{.{.].).G.W.m.m.!.!.{.{.{.oX.X.XR.|.Y.T.n n $.$.$.$.$.$.$.$.",
"$.$.$.$.u u V.V.J.J.L.N.P.P.P.P.M.v.z.v.F.G. X'.XXoXXXXXXXXXXXOX{.XXoXoX{.{.I.U.z.z.M.M.L.N.L.L.J.K.S.A.A.S.k k v $.$.$.$.$.$.$.",
"$.$.$.$.u u V.f.J.J.N.L.P.P.P.P.N.v.z.z.F.F.'.'.'.{.oXXXXXXX{.XX{.XXoXoX{.oXU.L.z.z.M.M.L.L.L.U.L.L.A.A.H.F.k k v $.$.$.$.$.$.$.",
"$.$.$.$.m b ` ` 8.w.y.t.y.y.s.h.h.g.8.t.g.e.!.Q.oX{.XXXXXXXXXXXXXXXX.XoX_._.x.x.g.t.g.h.s.y.y.y.a.a.f.a.] ] m m v v $.$.$.$.$.$.",
"$.$.$.$.b b ] ` i.8.y.y.y.y.h.u.h.d.t.8.g.j.Q.!.XX'.XX{.XXOXXXXX.XXXoX.X_._.x.x.g.t.c.k.p.p.y.y.p.j.w.w.] ` m m v v $.$.$.$.$.$.",
"$.$.$.$.$.$.+ = _ ` f.a.c.c.s.s.h.h.<.<.,.,.m.G.XX{.}.OX[.XXXXXX XXX.X.XI.I.8.5.+.O.y.s.u.u.s.s.w.9.{ } 2 2 $.$.v v $.$.$.$.$.$.",
"$.$.$.$.$.$.O O ` ` a.a.c.c.s.s.h.h.>.,.,.,.G.D.{.{.XX[.XX}.XXXXXXXX.X XI.L.8.8.O.O.c.u.u.u.s.s.w.w.} } 2 2 $.$.$.$.$.$.$.$.$.$.",
"$.$.$.$.$.$.. X 2 2 ` _ i.@.@.@.>.( 8.,.F.m.oXoX{.{.XXXX[.XX[.[.XX[.oXoX`._.J.J.t.t.+.+...X.5.r.{ { 3 3 . . $.$.$.$.$.$.$.$.$.$.",
"$.$.$.$.$.$.. . 2 2 _ ] @.V.@.@.>.,.8.8.m.F.oXoX{.{.XXXXXXXXXXXX[.[.oXXX/._.J.J.r.t.+.+.X.X.5.5.{ { 3 3 . o $.$.$.$.$.$.$.$.$.$.",
"$.$.$.$.$.$.$.$.. . 3 3 K K  ...,.5.m.m.'.'.oXoX.XXXXXXXXX}.}.}.XX[.XXOX{.{.`._.n.A.<.r.@.@.L L 6 w . . $.$.$.$.$.$.$.$.$.$.$.$.",
"$.$.$.$.$.$.$.$.. . 0 3 K S  ...5.,.x.m.'.'.+XoXXXXXXXXX}.}.}.}.[.[.OX{.{.oX'._.b.n.r.5.@.@.L L w w . . $.$.$.$.$.$.$.$.$.$.$.$.",
"$.$.$.$.$.$.$.$.$.v 6 6 y y V.@./.U.`./.'..XXX XXX.X{.XX{.{.}.}.}.}.{.{.{.{._._./.`.K.K.i.i.l l 4 4 $.$.$.$.$.$.$.$.$.$.$.$.$.$.",
"$.$.$.$.$.$.$.$.$.v 6 6 y t i.V.U.R.`.`.'.'.'..X{.XXoXXX{.OX}.{.}.}.{.{.{._.'.].`./.K.K.i.t.h h 4 4 $.$.$.$.$.$.$.$.$.$.$.$.$.$.",
"$.$.$.$.$.$.$.$.$.$.$.$.h h S.S.`.`.'._._.'.{.'._.'.'.{.{.].{.{.].{.].{.oXoX'.'.`.`.R.U.i.p.l h $.$.$.$.$.$.$.$.$.$.$.$.$.$.$.$.",
"$.$.$.$.$.$.$.$.$.$.$.$.h h S.S.`.R.'.'.'.`._.{.'.{.{._.{.{.].{.].{.{.{.{.oX'.'.`.`.U.U.p.a.l h $.$.$.$.$.$.$.$.$.$.$.$.$.$.$.$.",
"$.$.$.$.$.$.$.$.$.$.$.$.t t 9.9.x.z.g.g.G.M.Q././.U.R./.^.^.Q./._.Q._.^.^._.F.F.j.j.p.j.i.p.l l $.$.$.$.$.$.$.$.$.$.$.$.$.$.$.$.",
"$.$.$.$.$.$.$.$.$.$.$.$.t t 9.9.x.x.g.g.M.J./.Q./.Q./.^.Q.Q._./.Q._._._.^.^.F.H.j.p.p.p.p.i.l h $.$.$.$.$.$.$.$.$.$.$.$.$.$.$.$.",
"$.$.$.$.$.$.$.$.$.$.$.$.g g O.O.>.>.u.h.N.N.N.K.j.k.j.l.j.j.j.z.z.z.z.x.l.s.A.n.s.s.r.r. .[ f f $.$.$.$.$.$.$.$.$.$.$.$.$.$.$.$.",
"$.$.$.$.$.$.$.$.$.$.$.$.g g o.O.>.>.h.y.N.N.N.M.k.k.j.k.z.j.j.a.z.z.z.z.l.A.s.A.s.s.r.r.E [ f y $.$.$.$.$.$.$.$.$.$.$.$.$.$.$.$.",
"$.$.$.$.$.$.$.$.$.$.v v j j ( ( / / 1.1.<.>.>.>.n.n.n.n.n.A.l.n.n.c.s.n.u.u.@.2.....U U P P e e $.$.$.$.$.$.$.$.$.$.$.$.$.$.$.$.",
"$.$.$.$.$.$.$.$.$.$.v v j j ( ( / / 1.1.<.1.>.<.n.n.n.n.l.a.n.l.n.n.c.s.u.u.2.2.....U U P P e e $.$.$.$.$.$.$.$.$.$.$.$.$.$.$.$.",
"$.$.$.$.$.$.$.$.$.v v v g j / / ^ ^ Q Q o.o.y.y.d.d.d.d.5.,.5.<.3.3.3.3.#.#.E E A A V V D S d d $.$.$.$.$.$.$.$.$.$.$.$.$.$.$.$.",
"$.$.$.$.$.$.$.$.$.v v v j g >./ Q ^ Q Q o.( y.y.d.d.d.d.,.5.@.5.3.u.3.3.#.#.E E A A V V S Z d d $.$.$.$.$.$.$.$.$.$.$.$.$.$.$.$.",
"$.$.$.$.$.$.$.$.v v v v e f W R ^ ^ ~ ~ Q.P.%X%XW Q E J y e 7 7 D D D C C C C C Z Z S S 8 8 $.$.$.$.$.$.$.$.$.$.$.$.$.$.$.$.$.$.",
"$.$.$.v v v v v v v v v y e W W ^ ^ ! ^ P.Q.%X%XW / J J e y 7 7 D D V D C C C C Z Z S S 8 8 $.$.$.$.$.$.$.$.$.$.$.$.$.$.$.$.$.$.",
"$.$.$.v v v v v v v v v 9 e F H T T ! ! %.%.%.%.Y Y F A 9 9 & & * * > > : > - > 2 > , > v v $.$.$.$.$.$.$.$.$.$.$.$.$.$.$.$.$.$.",
"$.$.$.$.v v v v v v v v e e F F T T ! ! %.%.%.%.Y Y A Y 9 9 & & * * : > : : : : > > > > v v $.$.$.$.$.$.$.$.$.$.$.$.$.$.$.$.$.$.",
"$.$.$.$.$.$.v v v v v v 9 9 P P G G R R R R I I F F y y $.$.$.$.$.$.$.$.v v v v v v v v v v v $.$.$.$.$.$.$.$.$.$.$.$.$.$.$.$.$.",
"$.$.$.$.$.$.v v v v v v 9 9 P K G G R W R R I I P F y y $.$.v v v v v v v v v v v v v v v v v v v v v v v v v v v v v v $.$.$.$.",
"$.$.$.$.$.v v v v v v v z z d d i i g g g i i i s s & & v v v v v v v v v v v v v v v v v v v v v v v v v v v v v v v v $.$.$.$.",
"$.$.$.$.$.v v v v v v v z z d d f g g j i g i i s s & & v v v v v v v v v v v v v v v v v v v v v v v v v v v v v v $.$.$.$.$.$.",
"$.$.$.$.v v v v v v v $.v v + # ; ; ; ; # ; # # @ @ @ X v v v v v v v v v v v v v v v v v v v v v v v v v v v $.$.$.$.$.$.$.$.$.",
"$.$.$.$.v v v v v $.$.$.$.v ; ; ; ; ; ; # # # # @ # @ . $.$.v v v v v v v v v v v v v v v v v v v v v v v $.$.$.$.$.$.$.$.$.$.$.",
"$.$.$.$.v v v $.$.$.$.$.$.$.$.v v v v $.$.$.$.$.$.$.$.$.$.$.$.$.v v v v v v v v v v v v v v v v v v $.$.$.$.$.$.$.$.$.$.$.$.$.$.",
"$.$.$.$.$.$.$.$.$.$.$.$.$.$.$.$.$.$.$.$.$.$.$.$.$.$.$.$.$.$.$.$.v v v v v v v v v v v v v v v v v v $.$.$.$.$.$.$.$.$.$.$.$.$.$.",
"$.$.$.$.$.$.$.$.$.$.$.$.$.$.$.$.$.$.$.$.$.$.$.$.$.$.$.$.$.$.$.v v v v v v v v v v v v v v v v v v v v $.$.$.$.$.$.$.$.$.$.$.$.$.",
"$.$.$.$.$.$.$.$.$.$.$.$.$.$.$.$.$.$.$.$.$.$.$.$.$.$.$.$.$.$.v v v v v v v v v v v v v v v v v v v v v $.$.$.$.$.$.$.$.$.$.$.$.$.",
"$.$.$.$.$.$.$.$.$.$.$.$.$.$.$.$.$.$.$.$.$.$.$.$.$.$.$.$.$.$.v v v v v v v v v $.$.v v v v v v v v v v v $.$.$.$.$.$.$.$.$.$.$.$.",
"$.$.$.$.$.$.$.$.$.$.$.$.$.$.$.$.$.$.$.$.$.$.$.$.$.$.$.$.$.v v v v v v v $.$.$.$.$.$.$.v v v v v v v v v $.$.$.$.$.$.$.$.$.$.$.$.",
"$.$.$.$.$.$.$.$.$.$.$.$.$.$.$.$.$.$.$.$.$.$.$.$.$.$.$.$.v v v v v v $.$.$.$.$.$.$.$.$.$.$.v v v v v v v v $.$.$.$.$.$.$.$.$.$.$.",
"$.$.$.$.$.$.$.$.$.$.$.$.$.$.$.$.$.$.$.$.$.$.$.$.$.$.$.$.v v v $.$.$.$.$.$.$.$.$.$.$.$.$.$.$.$.v v v v v v $.$.$.$.$.$.$.$.$.$.$.",
"$.$.$.$.$.$.$.$.$.$.$.$.$.$.$.$.$.$.$.$.$.$.$.$.$.$.$.$.v v $.$.$.$.$.$.$.$.$.$.$.$.$.$.$.$.$.$.$.v v v v $.$.$.$.$.$.$.$.$.$.$.",
"$.$.$.$.$.$.$.$.$.$.$.$.$.$.$.$.$.$.$.$.$.$.$.$.$.$.$.$.$.$.$.$.$.$.$.$.$.$.$.$.$.$.$.$.$.$.$.$.$.$.$.$.$.$.$.$.$.$.$.$.$.$.$.$.",
"$.$.$.$.$.$.$.$.$.$.$.$.$.$.$.$.$.$.$.$.$.$.$.$.$.$.$.$.$.$.$.$.$.$.$.$.$.$.$.$.$.$.$.$.$.$.$.$.$.$.$.$.$.$.$.$.$.$.$.$.$.$.$.$.",
"$.$.$.$.$.$.$.$.$.$.$.$.$.$.$.$.$.$.$.$.$.$.$.$.$.$.$.$.$.$.$.$.$.$.$.$.$.$.$.$.$.$.$.$.$.$.$.$.$.$.$.$.$.$.$.$.$.$.$.$.$.$.$.$.",
"$.$.$.$.$.$.$.$.$.$.$.$.$.$.$.$.$.$.$.$.$.$.$.$.$.$.$.$.$.$.$.$.$.$.$.$.$.$.$.$.$.$.$.$.$.$.$.$.$.$.$.$.$.$.$.$.$.$.$.$.$.$.$.$.",
"$.$.$.$.$.$.$.$.$.$.$.$.$.$.$.$.$.$.$.$.$.$.$.$.$.$.$.$.$.$.$.$.$.$.$.$.$.$.$.$.$.$.$.$.$.$.$.$.$.$.$.$.$.$.$.$.$.$.$.$.$.$.$.$."
};
