/* XPM */
static char *result[] = {
/* columns rows colors chars-per-pixel */
"64 64 189 2 ",
"   c #0E0002",
".  c #0F0008",
"X  c #150003",
"o  c #1B0001",
"O  c #13040A",
"+  c #1B0B11",
"@  c #1B1414",
"#  c #1B141B",
"$  c #220202",
"%  c #2C0304",
"&  c #22040D",
"*  c #2F000C",
"=  c #320404",
"-  c #3B0002",
";  c #3A000B",
":  c #350313",
">  c #3C0314",
",  c #241F1F",
"<  c #3F0D2C",
"1  c #282626",
"2  c #352626",
"3  c #372729",
"4  c #3B2B2B",
"5  c #3C3638",
"6  c #41000B",
"7  c #480308",
"8  c #440114",
"9  c #4B0319",
"0  c #540213",
"q  c #510817",
"w  c #53171E",
"e  c #63001B",
"r  c #6B011E",
"t  c #74041F",
"y  c #460927",
"u  c #580C23",
"i  c #4E162B",
"p  c #55182A",
"a  c #5C1236",
"s  c #551E33",
"d  c #5C1C35",
"f  c #541838",
"g  c #650525",
"h  c #7E0224",
"j  c #60162D",
"k  c #69193A",
"l  c #4E2A36",
"z  c #5F263E",
"x  c #5D2939",
"c  c #433233",
"v  c #493536",
"b  c #4B373A",
"n  c #4E393B",
"m  c #513A3A",
"M  c #62303E",
"N  c #736122",
"B  c #681B45",
"V  c #592240",
"C  c #77294A",
"Z  c #693748",
"A  c #77344D",
"S  c #494043",
"D  c #5C5456",
"F  c #8E112B",
"G  c #961939",
"H  c #88263B",
"J  c #97203F",
"K  c #9F1945",
"L  c #A71E46",
"P  c #882846",
"I  c #8D3859",
"U  c #B22849",
"Y  c #AE2054",
"T  c #B32C57",
"R  c #B92F50",
"E  c #AE385F",
"W  c #A53160",
"Q  c #C60853",
"!  c #C6185A",
"~  c #E01A6C",
"^  c #E11E70",
"/  c #EC1E76",
"(  c #CB2162",
")  c #D22667",
"_  c #CD3268",
"`  c #EF257A",
"'  c #8D4B68",
"]  c #964866",
"[  c #91526C",
"{  c #9D4971",
"}  c #B04262",
"|  c #A25C6F",
" . c #A9597A",
".. c #B6517F",
"X. c #9A6379",
"o. c #B8727E",
"O. c #CA466C",
"+. c #CE4D7F",
"@. c #D84577",
"#. c #CE597A",
"$. c #D55177",
"%. c #DA5279",
"&. c #E6C03E",
"*. c #BE588D",
"=. c #A66785",
"-. c #B96887",
";. c #BE7083",
":. c #C55C88",
">. c #DA5683",
",. c #D45C92",
"<. c #E05D8D",
"1. c #E65692",
"2. c #F25C93",
"3. c #C86083",
"4. c #D46281",
"5. c #CB6C96",
"6. c #CC7398",
"7. c #DB749C",
"8. c #D87C9E",
"9. c #F5668D",
"0. c #ED6994",
"q. c #F16E9E",
"w. c #E3769B",
"e. c #F1749D",
"r. c #C677A3",
"t. c #DD74A3",
"y. c #EC6FA7",
"u. c #F26CA3",
"i. c #EF76A0",
"p. c #EC75A8",
"a. c #F275A6",
"s. c #FD75A4",
"d. c #F979A6",
"f. c #F574AD",
"g. c #FA73AB",
"h. c #E17BB2",
"j. c #F575B0",
"k. c #BB829C",
"l. c #D38B9F",
"z. c #CA8FAC",
"x. c #D886A3",
"c. c #DD86A9",
"v. c #D48EB4",
"b. c #DC8CBD",
"n. c #D891BB",
"m. c #E186AB",
"M. c #EB84B5",
"N. c #EB83BE",
"B. c #EA8CB8",
"V. c #F686B4",
"C. c #FC84BC",
"Z. c #F48DBD",
"A. c #FD8BBC",
"S. c #EF99BE",
"D. c #F695BE",
"F. c #E3A6AF",
"G. c #EF8AC3",
"H. c #FF8BC4",
"J. c #FD8FCA",
"K. c #E193C4",
"L. c #F898C6",
"P. c #FC99C5",
"I. c #F696CE",
"U. c #FD91CA",
"Y. c #FD9ECE",
"T. c #FB97D3",
"R. c #F49CD1",
"E. c #FD9ED4",
"W. c #FF9EDA",
"Q. c #FCA0CA",
"!. c #E3B4CD",
"~. c #F5A4D4",
"^. c #FCA2D4",
"/. c #F1ADD6",
"(. c #FFA9D4",
"). c #F7A3DA",
"_. c #FDA3DC",
"`. c #FEACDC",
"'. c #ECB8D3",
"]. c #F6B1D2",
"[. c #F7B7DA",
"{. c #FFB2DB",
"}. c #FE9EE1",
"|. c #FFA4E2",
" X c #FFABE2",
".X c #FFB3E5",
"XX c #FBB9E1",
"oX c #FFB1EA",
"OX c #FFE6FA",
/* pixels */
"&.&.&.&.&.&.&.&.&.&.&.&.&.&.&.&.&.&.&.&.&.&.&.&.&.&.&.&.&.&.&.&.&.&.&.&.&.&.&.&.&.&.&.&.&.&.&.&.&.&.&.&.&.&.&.&.&.&.&.&.&.&.&.&.",
"&.&.&.&.&.&.&.&.&.&.&.&.&.&.&.&.&.&.&.&.&.&.&.&.&.&.&.&.&.&.&.&.&.&.&.&.&.&.&.&.&.&.&.&.&.&.&.&.&.&.&.&.&.&.&.&.&.&.&.&.&.&.&.&.",
"&.&.&.&.&.&.&.&.&.&.&.&.&.&.&.&.&.&.&.&.&.&.1 1 2 2 4 4 c 2 2 2 2 2 2 2 4 4 2 2 3 3 &.&.&.&.&.&.&.&.&.&.&.&.&.&.&.&.&.&.&.&.&.&.",
"&.&.&.&.&.&.&.&.&.&.&.&.&.&.&.&.&.&.&.&.&.&.1 1 1 1 4 4 2 2 2 2 2 2 2 2 4 w 2 2 3 3 &.&.&.&.&.&.&.&.&.&.&.&.&.&.&.&.&.&.&.&.&.&.",
"&.&.&.&.&.&.&.&.&.&.&.&.&.&.&.&.&.&.&.&.S S X   : : p d x x x x x x x x p s * : $ o &.&.&.&.&.&.&.&.&.&.&.&.&.&.&.&.&.&.&.&.&.&.",
"&.&.&.&.&.&.&.&.&.&.&.&.&.&.&.&.&.&.&.&.S S   X : : x d x x x x m x x x p s : : $ $ &.&.&.&.&.&.&.&.&.&.&.&.&.&.&.&.&.&.&.&.&.&.",
"&.&.&.&.&.&.&.&.&.&.&.&.&.&.&.&.&.&.5 5 X X i i  . .x.8.m.m.l.m.c.c.c.c.x.t. . .k k 8 8 o X , , &.&.&.&.&.&.&.&.&.&.&.&.&.&.&.&.",
"&.&.&.&.&.&.&.&.&.&.&.&.&.&.&.&.&.&.5 5 X X i i o. .8.8.m.m.p.x.c.c.c.c.t.8. . .k k 8 8 o X , , &.&.&.&.N N &.&.&.&.&.&.&.&.&.&.",
"&.&.&.&.&.&.&.&.&.&.&.&.&.&.&.&.@ @ O O y y { { Y.Y.(._.Y.E.E.E.E.^.^.^.`. X).(.M.V. . .d p $ $ &.&.&.N N N &.&.&.&.&.&.&.&.&.&.",
"&.&.&.&.&.&.&.&.&.&.&.&.&.&.&.&.@ @ O X y i { { Y.Y.(.(.Y.Y.Y.E.E.Y.^.^.`.`.(._.M.M.{ ..s s o $ &.&.&.N N N &.&.&.&.&.&.&.&.&.&.",
"&.&.&.&.&.&.&.&.&.&.&.&.&.&.&.&.X X f f r.r._.E._._._.W._._.W._._._._._.). X).)._._.P.Y.6.6.C C @ @ N N N N &.&.&.&.&.&.&.&.&.&.",
"&.&.&.&.&.&.&.&.&.&.&.&.&.&.&.&.X X l l r.r.^._._._.^._.W._.|.W._._._._.|.|._.)._._.Y.Y.6.6.B C @ @ N N N N &.&.&.&.&.&.&.&.&.&.",
"&.&.&.&.&.&.&.&.&.&.&.&.&.&.m m X.X.n.v.R.T.|.|._._.|._.|.|.|.}.|.|. X_.oX.XoXoX_. X_. X_._.6.6.o $ b v D D N &.&.&.&.&.&.&.&.&.",
"&.&.&.&.&.&.&.&.&.&.&.&.&.&.m m =.X.v.v.I.T.|.|._._.|.|.|._.|.|.|.|.|._. XoXoXoX X|.|.|._._.5.5.$ o b b D D N N N N N N N &.&.&.",
"&.&.&.&.&.&.&.&.&.&.2 4 8 8 3.3.I.I.W.)._.W._.W.|. X*.*.....P.P.^.^.:.:.} } w.w.(.`.|.W._._.W.E.E E c.b.].].X.X.X X N N N &.&.&.",
"&.&.&.&.&.&.N N N N 4 4 9 8 3.3.I.I.|.).W.W.W.W. X|.*.*.....P.P.Q.^.:.:.} } w.w.`._._.|._.}.W.W.E W m.m.].].[ X.o X N N &.&.&.&.",
"&.&.&.&.&.&.N N N N n m d j 7.7.Q.^.).).).)._.(.`..XC P | | OXOX{.(.k k ;.3.OXOX^.R.R.W.}.}.|.}.p.t.B.B.XXXXk.k.& o &.&.&.&.&.&.",
"&.&.&.&.&.&.&.N N N n m j j 8.8.E.E.).|.).).(._..X XC C | | OXOX(.(.k k ;.o.OXOXQ.).}.}.|.}.oXoXt.t.G.B.XXXXk.k.o & &.&.&.&.&.&.",
"&.&.&.&.&.&.&.&.S S Z Z 3.-.L.D.E.E.).).).~.`.`..X{.d a p w F.F.].].a a p p l.l.(.(.|.|.}.}.}.|.h.h.G.G.oXoXz.z.& & &.&.&.&.&.&.",
"&.&.&.&.&.&.&.&.S S Z Z ;.;.L.L.).E.).).~.).`. X{..Xk V p w F.F.].].a a p p l.l.(.(.|.|.}.}.|.|.h.h.G.G.XXXXz.z.& & &.&.&.&.&.&.",
"&.&.&.&.&.&.&.&.. . [ [ S.S.Y.Y.)._.).).~.R./.`.XXXXV V - 6 o.o.'.'.z V 6 6 ] ] (.(.|.|.|.}.}.}.G.N.J.J.E.^.=.=.& & &.&.&.&.&.&.",
"&.&.&.&.&.&.&.&.. . [ [ S.S.Q.Y._.)._.|.R.R.`./.XXXXV V - 7 o.o.'.'.V V 6 ; W ] (.~._. X}.}.}.}.N.N.J.J.Q.E.=.=.& & &.&.&.&.&.&.",
"&.&.&.&.&.&.&.&.+ + =.X.Q.Q.Y.R.).W.).).R.R.~./.[.'.i f 7 7 l.l.!.!.< < 8 8 5.5.`.`. X X}.}.|.}.).W.J.J.M.M.' ' X o &.&.&.&.&.&.",
"&.&.&.&.&.&.&.&.+ +  .| Q.Q.~.Q.).).).).R.R.~.~.[.[.f i 7 ; l.l.!.!.< < 8 8 5.5.`.`.|. X}.}.}.}.W.W.J.J.M.M.' ' o X &.&.&.&.&.&.",
"&.&.&.&.&.&.&.&.O O -.=.`.`.^.R.).).|.W.T.T.I.I.oXXXf f a a {.{.[.[.y < B B G.R.)._.|._.|._.}.W.W.E.V.C.7.7.] [ o $ &.&.&.&.&.&.",
"&.&.&.&.&.&.&.&.O O =.-.`.`.R.^.).).).|.T.T.I.I.oXXXa a a a {.{.'.[.< < B B L.I._._.|.|._.|.W.W.E.E.C.C.7.7.[ [ o o &.&.&.&.&.&.",
"&.&.&.&.&.&.&.&.O O  . .L.L.Q.~.).).W.).J.I.G.j.|.|.b.b.K.n.{. X[./.n.n.K.K.~.R._._.W.E._._.I.I.Z.Z.B.M.I I : : &.&.&.&.&.&.&.&.",
"&.&.&.&.&.&.&.&.O O  . .L.L.Q.Q.).)._._.J.J.N.N.).}.b.b.B.n. X{././.n.n.K.K.).)._._.^.^._._.I.I.Z.Z.B.M.I I : > &.&.&.&.&.&.&.&.",
"&.&.&.&.&.&.&.&.+ + ] ] L.P.(.(.Q.~.(._.j.C.,.,.T.E..X.X X X).R.~.~..X XoXoX).|._._.^.E.Q.Q.D.D.A A x x l l &.&.&.&.&.&.&.&.&.&.",
"&.&.&.&.&.&.&.&.+ + ] ] P.P.(.(.Y.~.(.(.V.C.,.,.E.E..X.X X X).^.~.~.`.`.oXoX_.W._._.E.Y.Q.Q.Q.D.A A z V l l &.&.&.&.&.&.&.&.&.&.",
"&.&.&.&.&.&.&.&..   d z 6.6.L.L.D.D.C.A.<.<.+.+.J.J.^._.W.W.W.W.^.^.E.E.T.T.W.W.J.L.Z.A.A.A.m.V.% & 4 c &.&.&.&.&.&.&.&.&.&.&.&.",
"&.&.&.&.&.&.&.&.  . z k 6.6.Q.S.D.D.C.Z.<.<.+.+.J.P._._.W.E._.W.^.^.E.E.T.T.W.W.J.I.A.D.A.A.V.D.& & 4 4 &.&.&.&.&.&.&.&.&.&.&.&.",
"&.&.&.&.&.&.&.&.# # O X l s ;...e.e.>.>._ O.%.%.A.C.J.J.H.H.U.U.U.U.H.A.J.H.A.A.y.h.y.y.g.g.4.4.o $ &.&.&.&.&.&.&.&.&.&.&.&.&.&.",
"&.&.&.&.&.&.&.&.# # X X p x ..:.e.e.<.>.O.O.>.<.C.C.J.J.H.J.U.U.U.P.A.D.A.H.H.C.j.y.y.y.s.s.>.>.$ o &.&.&.&.&.&.&.&.&.&.&.&.&.&.",
"&.&.&.&.&.&.&.&.&.&.1 1 X X 9 9 #.#.$.#.$.$.e.e.g.s.g.f.j.j.j.j.f.f.p.a.a.p.a.a.g.u.1.1._ _ L G % % &.&.&.&.&.&.&.&.&.&.&.&.&.&.",
"&.&.&.&.&.&.&.&.&.&.1 1 X X 9 q #.#.$.$.$.$.e.e.g.g.g.g.j.j.j.j.f.f.a.a.a.i.g.a.g.g.1.1._ _ G L % % &.&.&.&.&.&.&.&.&.&.&.&.&.&.",
"&.&.&.&.&.&.&.&.&.&.N N N &.&.&.q q H H O.O.9.9.d.s.s.s.u.u.u.u.q.q.q.q.s.d.s.s.2.2.( ( ! ( ! ! 0 0 v m &.&.&.&.&.&.&.&.&.&.&.&.",
"&.&.&.&.&.&.&.&.&.&.N N N &.&.&.q q H H $.O.9.9.s.s.g.s.u.u.u.u.q.q.q.q.d.d.s.s.2.2.( ( ~ ( ! ! 0 0 m m &.&.&.&.&.&.&.&.&.&.&.&.",
"&.&.&.&.&.&.&.&.&.N N N N N &.&.- - r r G F R R %.%.0.0.i.i.i.m.e.e.e.e.0.q.@.>.( ( Q Q / ^ ` ` J J = * &.&.&.&.&.&.&.&.&.&.&.&.",
"&.&.&.&.&.&.&.&.&.N N N N N &.&.- - r r G G R R %.$.0.2.i.i.i.p.i.i.e.e.0.0.@.@.( ( Q Q / / ` ` J J * * &.&.&.&.&.&.&.&.&.&.&.&.",
"&.&.&.&.&.&.&.&.N N N N N N N &.W W @.@.U U F F t t 7 7 - = % % = = 7 - h h Y Y ~ ^ / / ` ` ~ ~ K K ; > &.&.&.&.&.&.&.&.&.&.&.&.",
"&.&.&.N N N N N N N N N N N N N W W @.@.U U F F t t 7 0 = = = = = = - 7 h F ! Q ^ ^ / / / / ~ ~ K K : ; &.&.&.&.&.&.&.&.&.&.&.&.",
"&.&.&.N N N N N N N N N N N N N y 9 P P T T L L K H P P > 8 X o     $ $ e e T T ) ) ) ) ( T Y Y 8 > &.&.&.&.&.&.&.&.&.&.&.&.&.&.",
"&.&.&.&.N N N N N N N N N N N N q y P I T T L L G G P P 8 > X X     $ o 0 e T R ) ) ) ) ( ( Y Y 6 ; &.&.&.&.&.&.&.&.&.&.&.&.&.&.",
"&.&.&.&.&.&.N N N N N N N N N N o X = ; e g e e 0 e u u l l &.&.&.&.&.&.M M g g r r r r r r 0 9 &.&.&.&.&.&.&.&.&.&.&.&.&.&.&.&.",
"&.&.&.&.&.&.N N N N N N N N N N X X * ; e e e r e e u u l l N N N N N N M M g g r r t t r e 0 0 N N N N N N N N N N N N &.&.&.&.",
"&.&.&.&.&.N N N N N N N N N N N D D c c v m c c v v 4 c N N N N N N N N N N c 5 v v v c v b c c N N N N N N N N N N N N &.&.&.&.",
"&.&.&.&.&.N N N N N N N N N N N D D c c m m c v v v c c N N N N N N N N N N c c v c v c v b c c N N N N N N N N N N &.&.&.&.&.&.",
"&.&.&.&.N N N N N N N &.N N N N N N N &.&.&.&.&.&.&.&.&.N N N N N N N N N N N N N N N N N N N N N N N N N N N &.&.&.&.&.&.&.&.&.",
"&.&.&.&.N N N N N &.&.&.&.N N N N N N &.&.&.&.&.&.&.&.&.&.&.N N N N N N N N N N N N N N N N N N N N N N N &.&.&.&.&.&.&.&.&.&.&.",
"&.&.&.&.N N N &.&.&.&.&.&.&.&.N N N N &.&.&.&.&.&.&.&.&.&.&.&.&.N N N N N N N N N N N N N N N N N N &.&.&.&.&.&.&.&.&.&.&.&.&.&.",
"&.&.&.&.&.&.&.&.&.&.&.&.&.&.&.&.&.&.&.&.&.&.&.&.&.&.&.&.&.&.&.&.N N N N N N N N N N N N N N N N N N &.&.&.&.&.&.&.&.&.&.&.&.&.&.",
"&.&.&.&.&.&.&.&.&.&.&.&.&.&.&.&.&.&.&.&.&.&.&.&.&.&.&.&.&.&.&.N N N N N N N N N N N N N N N N N N N N &.&.&.&.&.&.&.&.&.&.&.&.&.",
"&.&.&.&.&.&.&.&.&.&.&.&.&.&.&.&.&.&.&.&.&.&.&.&.&.&.&.&.&.&.N N N N N N N N N N N N N N N N N N N N N &.&.&.&.&.&.&.&.&.&.&.&.&.",
"&.&.&.&.&.&.&.&.&.&.&.&.&.&.&.&.&.&.&.&.&.&.&.&.&.&.&.&.&.&.N N N N N N N N N &.&.N N N N N N N N N N N &.&.&.&.&.&.&.&.&.&.&.&.",
"&.&.&.&.&.&.&.&.&.&.&.&.&.&.&.&.&.&.&.&.&.&.&.&.&.&.&.&.&.N N N N N N N &.&.&.&.&.&.&.N N N N N N N N N &.&.&.&.&.&.&.&.&.&.&.&.",
"&.&.&.&.&.&.&.&.&.&.&.&.&.&.&.&.&.&.&.&.&.&.&.&.&.&.&.&.N N N N N N &.&.&.&.&.&.&.&.&.&.&.N N N N N N N N &.&.&.&.&.&.&.&.&.&.&.",
"&.&.&.&.&.&.&.&.&.&.&.&.&.&.&.&.&.&.&.&.&.&.&.&.&.&.&.&.N N N &.&.&.&.&.&.&.&.&.&.&.&.&.&.&.&.N N N N N N &.&.&.&.&.&.&.&.&.&.&.",
"&.&.&.&.&.&.&.&.&.&.&.&.&.&.&.&.&.&.&.&.&.&.&.&.&.&.&.&.N N &.&.&.&.&.&.&.&.&.&.&.&.&.&.&.&.&.&.&.N N N N &.&.&.&.&.&.&.&.&.&.&.",
"&.&.&.&.&.&.&.&.&.&.&.&.&.&.&.&.&.&.&.&.&.&.&.&.&.&.&.&.&.&.&.&.&.&.&.&.&.&.&.&.&.&.&.&.&.&.&.&.&.&.&.&.&.&.&.&.&.&.&.&.&.&.&.&.",
"&.&.&.&.&.&.&.&.&.&.&.&.&.&.&.&.&.&.&.&.&.&.&.&.&.&.&.&.&.&.&.&.&.&.&.&.&.&.&.&.&.&.&.&.&.&.&.&.&.&.&.&.&.&.&.&.&.&.&.&.&.&.&.&.",
"&.&.&.&.&.&.&.&.&.&.&.&.&.&.&.&.&.&.&.&.&.&.&.&.&.&.&.&.&.&.&.&.&.&.&.&.&.&.&.&.&.&.&.&.&.&.&.&.&.&.&.&.&.&.&.&.&.&.&.&.&.&.&.&.",
"&.&.&.&.&.&.&.&.&.&.&.&.&.&.&.&.&.&.&.&.&.&.&.&.&.&.&.&.&.&.&.&.&.&.&.&.&.&.&.&.&.&.&.&.&.&.&.&.&.&.&.&.&.&.&.&.&.&.&.&.&.&.&.&.",
"&.&.&.&.&.&.&.&.&.&.&.&.&.&.&.&.&.&.&.&.&.&.&.&.&.&.&.&.&.&.&.&.&.&.&.&.&.&.&.&.&.&.&.&.&.&.&.&.&.&.&.&.&.&.&.&.&.&.&.&.&.&.&.&."
};
