/* XPM */
static char *result[] = {
/* columns rows colors chars-per-pixel */
"64 64 197 2 ",
"   c #050100",
".  c #0D0001",
"X  c #140001",
"o  c #1C0103",
"O  c #1D040A",
"+  c #230103",
"@  c #2C0103",
"#  c #24000D",
"$  c #2B020C",
"%  c #230909",
"&  c #32000A",
"*  c #3D040C",
"=  c #3C0A0A",
"-  c #220010",
";  c #390716",
":  c #2E1F1F",
">  c #3E101F",
",  c #351D1E",
"<  c #3F1528",
"1  c #34292B",
"2  c #3C3632",
"3  c #490709",
"4  c #490219",
"5  c #5D041E",
"6  c #61091D",
"7  c #4A0B21",
"8  c #520E27",
"9  c #451F2D",
"0  c #52132A",
"q  c #5C1B2D",
"w  c #501438",
"e  c #6E0D22",
"r  c #6D0E2D",
"t  c #621228",
"y  c #7A1628",
"u  c #781833",
"i  c #4D2D2D",
"p  c #592636",
"a  c #4C3839",
"s  c #622935",
"d  c #772538",
"f  c #736122",
"g  c #571540",
"h  c #771D4E",
"j  c #752944",
"k  c #484445",
"l  c #4B4444",
"z  c #555050",
"x  c #7F4B61",
"c  c #87082C",
"v  c #83192E",
"b  c #9A142C",
"n  c #8E153E",
"m  c #941334",
"M  c #951835",
"N  c #9D1539",
"B  c #AF0129",
"V  c #AA042A",
"C  c #B3002F",
"Z  c #AD0C38",
"A  c #B60036",
"S  c #B90035",
"D  c #B9003A",
"F  c #A31C3B",
"G  c #872437",
"H  c #C3043B",
"J  c #BC0C40",
"K  c #A81B44",
"L  c #8A2A46",
"P  c #972B46",
"I  c #8A3249",
"U  c #952D50",
"Y  c #8B3454",
"T  c #853856",
"R  c #9B365B",
"E  c #AE2656",
"W  c #BE385F",
"Q  c #BB3C61",
"!  c #C7094D",
"~  c #CE0250",
"^  c #D40A59",
"/  c #C6165D",
"(  c #D31555",
")  c #C02658",
"_  c #D11863",
"`  c #EA186D",
"'  c #E81B73",
"]  c #C62769",
"[  c #D72763",
"{  c #C83A64",
"}  c #D73869",
"|  c #EE266A",
" . c #E4316B",
".. c #E62977",
"X. c #F6297B",
"o. c #9D425F",
"O. c #A1415F",
"+. c #8F4562",
"@. c #974662",
"#. c #9D457B",
"$. c #9A5C78",
"%. c #AE4B6D",
"&. c #B4486C",
"*. c #B6657C",
"=. c #CC496D",
"-. c #D14C6E",
";. c #CC4776",
":. c #D74D74",
">. c #E6C03E",
",. c #AA5F88",
"<. c #BD518A",
"1. c #A56681",
"2. c #B76687",
"3. c #A57796",
"4. c #B57B9C",
"5. c #AD7FA1",
"6. c #B477A0",
"7. c #CA5C8C",
"8. c #D25483",
"9. c #EB5984",
"0. c #E65F8D",
"q. c #C56082",
"w. c #CC6285",
"e. c #D66589",
"r. c #CE6E91",
"t. c #D56F94",
"y. c #CA7996",
"u. c #DA7B9D",
"i. c #E66689",
"p. c #F5658F",
"a. c #E86696",
"s. c #E96991",
"d. c #F86E9F",
"f. c #E4749A",
"g. c #DE6DA3",
"h. c #CB76A5",
"j. c #D779A8",
"k. c #CF76B2",
"l. c #D97FB0",
"z. c #F36BAB",
"x. c #E374A2",
"c. c #EB73A9",
"v. c #EA7EAA",
"b. c #F374A5",
"n. c #FD73A4",
"m. c #F479A7",
"M. c #F877B1",
"N. c #BB829C",
"B. c #BC89A5",
"V. c #B88DA9",
"C. c #D2839B",
"Z. c #D581A8",
"A. c #DA86B7",
"S. c #D395B3",
"D. c #E885AB",
"F. c #F081AB",
"G. c #E68AB5",
"H. c #E985BB",
"J. c #FC85B5",
"K. c #F788B3",
"L. c #FE8DB7",
"P. c #FE84BB",
"I. c #FC8ABB",
"U. c #ED90B2",
"Y. c #FF8DC4",
"T. c #E893C3",
"R. c #EC9BCD",
"E. c #F697C6",
"W. c #FF95C5",
"Q. c #FE94CA",
"!. c #F49CCD",
"~. c #FE9CCD",
"^. c #EC9CD5",
"/. c #FD96D3",
"(. c #F69FD4",
"). c #FD9DD3",
"_. c #F59EDB",
"`. c #FC9EDB",
"'. c #E5AAC5",
"]. c #F2A3C9",
"[. c #FDA2CB",
"{. c #FEA2D4",
"}. c #F8A8D6",
"|. c #F6A1DB",
" X c #FDA3DB",
".X c #FFAADC",
"XX c #FFBADA",
"oX c #FEA4E1",
"OX c #FBA7E5",
"+X c #FFA9E2",
"@X c #F6B3E1",
"#X c #FFB1E7",
"$X c #FDB8E2",
"%X c #FFB7F0",
"&X c #FFC8E8",
"*X c #FFCAF1",
"=X c #FFE6FF",
/* pixels */
">.>.>.>.>.>.>.>.>.>.>.>.>.>.>.>.>.>.>.>.>.>.>.>.>.>.>.>.>.>.>.>.>.>.>.>.>.>.>.>.>.>.>.>.>.>.>.>.>.>.>.>.>.>.>.>.>.>.>.>.>.>.>.>.",
">.>.>.>.>.>.>.>.>.>.>.>.>.>.>.>.>.>.>.>.>.>.>.>.>.>.>.>.>.>.>.>.>.>.>.>.>.>.>.>.>.>.>.>.>.>.>.>.>.>.>.>.>.>.>.>.>.>.>.>.>.>.>.>.",
">.>.>.>.>.>.>.>.>.>.>.>.>.>.>.>.k a . X . X o X X o o X X o o X X X . X z z >.>.>.>.>.>.>.>.>.>.>.>.>.>.>.>.>.>.>.>.>.>.>.>.>.>.",
">.>.>.>.>.>.>.>.>.>.>.>.>.>.>.>.k k X X X X X o X X X o o o X X X . X . z z >.>.>.>.>.>.>.>.>.>.>.>.>.>.>.>.>.>.>.>.>.>.>.>.>.>.",
">.>.>.>.>.>.>.>.>.>.>.>.>.>.2 2 o X = * G L R R O.O.o.o.O.O.o.o.j d & * % % 1 1 1 1 >.>.>.>.>.>.>.>.>.>.>.>.>.>.>.>.>.>.>.>.>.>.",
">.>.>.>.>.>.>.>.>.>.>.>.>.>.2 2 X o ; * L L R R O.O.R %.%.R o.o.j j & & % % 1 1 1 1 >.>.>.>.>.>.>.>.>.>.>.>.>.>.>.>.>.>.>.>.>.>.",
">.>.>.>.>.>.>.>.>.>.>.>.>.>.X . & & o.@.K.K.L.P.L.L.L.L.L.L.L.L.D.D.2.,.j j ; ; X X k k >.>.>.>.>.>.>.>.>.>.>.>.>.>.>.>.>.>.>.>.",
">.>.>.>.>.>.>.>.>.>.>.>.>.>.. X & & +.+.K.K.P.P.L.L.L.L.L.L.L.L.D.v.1.,.j j $ ; X X l k >.>.>.>.>.>.>.>.f f >.>.>.>.>.>.>.>.>.>.",
">.>.>.>.>.>.>.>.>.>.>.>.. . > > +.+.G.G.$X#X X X.X X.X.X.X.X.X.X{..X{.}.A.A.,.,.p p # % k a >.>.>.>.>.f f f >.>.>.>.>.>.>.>.>.>.",
">.>.>.>.>.>.>.>.>.>.>.>.. X > > +.+.G.D.#X$X X X.X.X.X{. X X.X+X.X.X{. XA.A.,.,.q g + o a a >.>.>.>.>.f f f >.>.>.>.>.>.>.>.>.>.",
">.>.>.>.>.>.>.>.>.>.. . > > 1.1.].[..X.X`.(. XoX|.|.(.|.|.`. X`.oX X`. XoXoX X{.y.h.q q + $ o + - O f f f f >.>.>.>.>.>.>.>.>.>.",
">.>.>.>.>.>.>.>.>.>.. X > 4 ,.1.[.[..X.X(.{. X.X|.|.|.|.`.|.`.`.`.`.oX`.+X+X{. Xy.r.q q + @ O o O O f f f f >.>.>.>.>.>.>.>.>.>.",
">.>.>.>.>.>.>.>.>.>.@ @ +.@.E.E.XX+X{.{.).{.+X.X.X X+X X X X`.`.+XOX`.`.`.`.{.{.).[.q.q.&.&.%.&.j d > > f f f >.>.>.>.>.>.>.>.>.",
">.>.>.>.>.>.>.>.>.>.@ @ @.@.E.W..X.X~.~. X{. X X+X XoX X+X XoX`.OXOX`.`.`.`.).{.[.[.q.q.&.&.%.%.j h > > f f f f f f f f f >.>.>.",
">.>.>.>.>.>.>.>.p i +.Y u.u.[.{..X.X{.}.~.~.j.Z.h.h.(.!.Q.Q.g.g.7.<.l.H.oX`.`. X{.{.F.F.a.a.b.b.t.t.4 4 f f f f f f f f f >.>.>.",
">.>.>.>.>.>.f f p s T Y u.u.{.{..X.X}.{.~.~.l.l.h.h.).!.Q.Q.g.g.<.<.H.H.oXoX).).}.{.F.F.a.a.b.b.t.t.7 4 f f f f f f f f >.>.>.>.",
">.>.>.>.>.>.O O t t r.r.T.H.{.[.!.!.}.XXD.D.I +.S.S.&X&Xu.u.U U Z.Z.}.}.}.|.{.{. X XQ.Q.K.M.v.m.G.U.0 0 f f f f f f >.>.>.>.>.>.",
">.>.>.>.>.>.O O t t r.r.H.H.!.(.!.!.XX}.D.U.T I S.S.&X&Xu.u.U U Z.Z.}.}.{.{. X`. X XE.Q.M.F.m.m.U.U.0 0 f f f f >.>.>.>.>.>.>.>.",
">.>.>.>.>.>.i i U Y v.v.!.E.(.(.T.T.}.XXC.C.3 4 '.'.=X=X*.*.5 5 XXXX*X*XR.R.+X+X X XoX`.Y.Y.v.v.u.u.7 7 f f f f f >.>.>.>.>.>.>.",
">.>.>.>.>.>.9 < Y Y v.v.E.R.(.(.T.T..X.XC.C.4 4 '.'.=X=X*.*.5 5 XXXX*X&XR.R.oXOX X+X X}.Y.Y.v.D.Z.u.7 7 f f f f f >.>.>.>.>.>.>.",
">.>.>.>.o O x x G.A.W.Q.(.`.|.|.R.R.$X$XC.B.+ + T T }.].4.4.@ @ u v v.F.#X#XOX_.`._.oXoXW.Y.g.f.*.*.* ; f f f f f f >.>.>.>.>.>.",
">.>.>.>.O O x x G.G.Q.Q./.(.|.|.R.R.$X$XV.N.+ + h T ].].4.4.@ @ u u F.F.#X#X_.OX_.`. XoXY.Y.x.j.*.2.; ; >.>.f f f f >.>.>.>.>.>.",
">.>.>.>.O X 1.1.!.!.`.).`.`._.|.^.^.@X$XV.V.$ # h h T.T.C.V.$ $ r e d.f.#X#XOX_.`.`.oXoXI.W.v.f.y.y.= & >.>.>.>.f f >.>.>.>.>.>.",
">.>.>.>.X   1.1.!.!.).`.`.|.OX_.^.^.@X@XV.V.$ # h h T.G.V.V.$ $ e e d.s.#X#X_.OX`.`.+XoXW.W.f.Z.y.y.= = >.>.>.>.>.>.>.>.>.>.>.>.",
">.>.>.>.O O N.N.}..X_./.`.`._._.^.^.@X@X5.5.- - #.#.#X#X3.3.# O R U I.I.{.{.|.}.{..X).).J.J.w.w.s s >.>.>.>.>.>.>.>.>.>.>.>.>.>.",
">.>.>.>.O O N.N..X.X/._._.`._._.^.^.@X@X5.B.- - #.#.#X#X3.3.# # R R I.I. X.X X|. X{.~.).J.J.w.w.s s >.>.>.>.>.>.>.>.>.>.>.>.>.>.",
">.>.>.>.O + N.N.}.|._.`.(.`._.`.(.|.|.@X6.6.g g k.k.%X%X6.5.w w g.g./.~..X{.{..X~.~.D.D.:.w.T I i a >.>.>.>.>.>.>.>.>.>.>.>.>.>.",
">.>.>.>.O O N.N.|.(._.`.`.`.|.(.(.|.}.^.6.6.g w k.k.%X%X6.6.w w h.h.Q./.{.{.{..X~.[.D.D.q.q.I I a i >.>.>.>.>.>.>.>.>.>.>.>.>.>.",
">.>.>.>.O % 2.2.(.(. X`.`.|.`.{.).{.H.H.Z.A..X{. X X`. X+X+X+X+X`.`.`.`..X}.L.~.m.m.f.i.d d i i >.>.>.>.>.>.>.>.>.>.>.>.>.>.>.>.",
">.>.>.>.+ + 3.2.(.(.`. X`.|.).{.`.{.H.H.l.l. X{. X X`.`.+X+X+X+XoX`././..X.X~.L.m.n.t.f.d d i i >.>.>.>.>.>.>.>.>.>.>.>.>.>.>.>.",
">.>.>.>.% % 1.$.R.R.{. X~.~.).~.{.).x.x.7.7.{. X+X+X`.`.+XoXoX`.`.`.#XOXP.J.E E ) ) { { 5 5 i i >.>.>.>.>.>.>.>.>.>.>.>.>.>.>.>.",
">.>.>.>.$ - $.$.R.E.{. X).{.~.{.{.[.c.x.7.7.{.{.+X+X/.`. XoXoXoX`.`.#X#XM.J.E E ) E W &.6 6 i p >.>.>.>.>.>.>.>.>.>.>.>.>.>.>.>.",
">.>.>.>.. . < < 2.2.I.L.K.K.L.L.n.b.;.;.8.8.Y.W.`.`././././././.`.`.z.z.] ] / ! ( ( [ [ Z K t t >.>.>.>.>.>.>.>.>.>.>.>.>.>.>.>.",
">.>.>.>.. . < < 2.2.I.L.L.K.L.L.b.m.;.;.8.8.W.W.`./././././.Q./.`.`.z.z.] ] / J ( ( [ [ K K t t >.>.>.>.>.>.>.>.>.>.>.>.>.>.>.>.",
">.>.>.>.k z X X 0 8 %.%.:.t.i.f.:.:.=.} 0.0.J.J.Y.Y.Y.Y.Y.P.P.P.M.M._ ] / / X.X.| |  .| }  .n n X o >.>.>.>.>.>.>.>.>.>.>.>.>.>.",
">.>.>.>.k k . X 8 8 %.%.e.e.i.f.:.:.} =.0.0.J.P.Y.Y.M.Y.P.Y.P.P.z.M.] ] ^ ^ X.X.| | | | [ } n n o o >.>.>.>.>.>.>.>.>.>.>.>.>.>.",
">.>.>.>.>.>.2 1 O X ; 4 I I -.=.:.:.9.9.n.n.m.b.z.M.c.c.b.b.n.n./ / _ _ X.X.' ` ! ~ ( (  . .E E % % >.>.>.>.>.>.>.>.>.>.>.>.>.>.",
">.>.>.>.>.>.1 1 X o ; ; G I -.-.:.:.9.9.n.n.n.b.M.c.c.c.b.b.n.n.] / _ _ X.X.` ` ! ! ( (  .| E E % + >.>.>.>.>.>.>.>.>.>.>.>.>.>.",
">.>.>.>.>.>.>.>.k k o X 3 3 P F -.-.p.p.n.n.d.d.b.b.b.b.n.n.n.n.] ..' ' X.' ~ ~ A A S S H ! c c + + >.>.>.>.>.>.>.>.>.>.>.>.>.>.",
">.>.>.>.>.>.>.>.l k o X 3 3 P P -.-.p.p.n.n.d.n.b.b.b.x.n.n.n.d.....' ' ' ' ~ ~ S S D Z H Z c c o + >.>.>.>.>.>.>.>.>.>.>.>.>.>.",
">.>.>.>.>.>.>.>.f f f f 3 = v v M M K K -.-.:.9.s.s.s.i.i.i.} { ....' ' ! ! D D S C V V Z Z c y o % >.>.>.>.>.>.>.>.>.>.>.>.>.>.",
">.>.>.f f f f f f f f f = = v v M M K K } } p.:.s.s.s.s.i.:.{ } ....' ' ! ! D D A C V V Z V c c % % >.>.>.>.>.>.>.>.>.>.>.>.>.>.",
">.>.>.f f f f f f f f f @ @ G d y c m M W W { { U P I I G G M m _ _ ^ ^ A D B B B B V V F F e e + + >.>.>.>.>.>.>.>.>.>.>.>.>.>.",
">.>.>.>.f f f f f f f f @ @ d G y u m m W { Q Q P P I I G G M m _ _ ^ ^ S S B B B B V V F F e 6 + o >.>.>.>.>.>.>.>.>.>.>.>.>.>.",
">.>.>.>.>.>.f f f f f f , , q q u u U L R R r s o o X X + + 6 6 Z K H H S S C C B B V b y e = = : : >.>.>.>.>.>.>.>.>.>.>.>.>.>.",
">.>.>.>.>.>.f f f f f f , , s q r u L U R R r r + o X o + + 6 6 Z Z H H S S C C V B b b e y = 3 : : f f f f f f f f f f >.>.>.>.",
">.>.>.>.>.f f f f f f f f f o o + @ @ @ & $ O o         . . % @ y v F F F N N N b b d d 3 = : : f f f f f f f f f f f f >.>.>.>.",
">.>.>.>.>.f f f f f f f f f + o @ + @ @ & & + o         . . @ @ u c K F F N N N b M y y = = : : f f f f f f f f f f >.>.>.>.>.>.",
">.>.>.>.f f f f f f f >.f f f f f f f >.>.>.>.>.>.>.>.>.f f X . $ $ & & & & $ $ + @ o o l a f f f f f f f f f >.>.>.>.>.>.>.>.>.",
">.>.>.>.f f f f f >.>.>.>.f f f f f f >.>.>.>.>.>.>.>.>.>.>.. X $ $ @ & $ & & @ @ @ o o l l f f f f f f f >.>.>.>.>.>.>.>.>.>.>.",
">.>.>.>.f f f >.>.>.>.>.>.>.>.f f f f >.>.>.>.>.>.>.>.>.>.>.>.>.f f f f f f f f f f f f f f f f f f >.>.>.>.>.>.>.>.>.>.>.>.>.>.",
">.>.>.>.>.>.>.>.>.>.>.>.>.>.>.>.>.>.>.>.>.>.>.>.>.>.>.>.>.>.>.>.f f f f f f f f f f f f f f f f f f >.>.>.>.>.>.>.>.>.>.>.>.>.>.",
">.>.>.>.>.>.>.>.>.>.>.>.>.>.>.>.>.>.>.>.>.>.>.>.>.>.>.>.>.>.>.f f f f f f f f f f f f f f f f f f f f >.>.>.>.>.>.>.>.>.>.>.>.>.",
">.>.>.>.>.>.>.>.>.>.>.>.>.>.>.>.>.>.>.>.>.>.>.>.>.>.>.>.>.>.f f f f f f f f f f f f f f f f f f f f f >.>.>.>.>.>.>.>.>.>.>.>.>.",
">.>.>.>.>.>.>.>.>.>.>.>.>.>.>.>.>.>.>.>.>.>.>.>.>.>.>.>.>.>.f f f f f f f f f >.>.f f f f f f f f f f f >.>.>.>.>.>.>.>.>.>.>.>.",
">.>.>.>.>.>.>.>.>.>.>.>.>.>.>.>.>.>.>.>.>.>.>.>.>.>.>.>.>.f f f f f f f >.>.>.>.>.>.>.f f f f f f f f f >.>.>.>.>.>.>.>.>.>.>.>.",
">.>.>.>.>.>.>.>.>.>.>.>.>.>.>.>.>.>.>.>.>.>.>.>.>.>.>.>.f f f f f f >.>.>.>.>.>.>.>.>.>.>.f f f f f f f f >.>.>.>.>.>.>.>.>.>.>.",
">.>.>.>.>.>.>.>.>.>.>.>.>.>.>.>.>.>.>.>.>.>.>.>.>.>.>.>.f f f >.>.>.>.>.>.>.>.>.>.>.>.>.>.>.>.f f f f f f >.>.>.>.>.>.>.>.>.>.>.",
">.>.>.>.>.>.>.>.>.>.>.>.>.>.>.>.>.>.>.>.>.>.>.>.>.>.>.>.f f >.>.>.>.>.>.>.>.>.>.>.>.>.>.>.>.>.>.>.f f f f >.>.>.>.>.>.>.>.>.>.>.",
">.>.>.>.>.>.>.>.>.>.>.>.>.>.>.>.>.>.>.>.>.>.>.>.>.>.>.>.>.>.>.>.>.>.>.>.>.>.>.>.>.>.>.>.>.>.>.>.>.>.>.>.>.>.>.>.>.>.>.>.>.>.>.>.",
">.>.>.>.>.>.>.>.>.>.>.>.>.>.>.>.>.>.>.>.>.>.>.>.>.>.>.>.>.>.>.>.>.>.>.>.>.>.>.>.>.>.>.>.>.>.>.>.>.>.>.>.>.>.>.>.>.>.>.>.>.>.>.>.",
">.>.>.>.>.>.>.>.>.>.>.>.>.>.>.>.>.>.>.>.>.>.>.>.>.>.>.>.>.>.>.>.>.>.>.>.>.>.>.>.>.>.>.>.>.>.>.>.>.>.>.>.>.>.>.>.>.>.>.>.>.>.>.>.",
">.>.>.>.>.>.>.>.>.>.>.>.>.>.>.>.>.>.>.>.>.>.>.>.>.>.>.>.>.>.>.>.>.>.>.>.>.>.>.>.>.>.>.>.>.>.>.>.>.>.>.>.>.>.>.>.>.>.>.>.>.>.>.>.",
">.>.>.>.>.>.>.>.>.>.>.>.>.>.>.>.>.>.>.>.>.>.>.>.>.>.>.>.>.>.>.>.>.>.>.>.>.>.>.>.>.>.>.>.>.>.>.>.>.>.>.>.>.>.>.>.>.>.>.>.>.>.>.>."
};
