/* XPM */
static char *result[] = {
/* columns rows colors chars-per-pixel */
"64 64 196 2 ",
"   c #060000",
".  c #0C0001",
"X  c #140002",
"o  c #1B0102",
"O  c #19090C",
"+  c #1F0D10",
"@  c #1F1111",
"#  c #270002",
"$  c #2B0003",
"%  c #210009",
"&  c #2A020B",
"*  c #380000",
"=  c #35020C",
"-  c #2B0511",
";  c #3B0618",
":  c #3E1016",
">  c #3E0F21",
",  c #3E1822",
"<  c #362626",
"1  c #382628",
"2  c #3C2C2C",
"3  c #3D3132",
"4  c #47060E",
"5  c #52000B",
"6  c #440316",
"7  c #410C1E",
"8  c #570019",
"9  c #53051D",
"0  c #6E0013",
"q  c #64001C",
"w  c #6B001C",
"e  c #580723",
"r  c #461622",
"t  c #4C1727",
"y  c #571226",
"u  c #5A1730",
"i  c #5D1F3A",
"p  c #630327",
"a  c #7B0524",
"s  c #611326",
"d  c #6C1934",
"f  c #7C1D3C",
"g  c #482133",
"h  c #5E2636",
"j  c #433232",
"k  c #4B3434",
"l  c #4D3838",
"z  c #59323F",
"x  c #632437",
"c  c #6A263A",
"v  c #736122",
"b  c #672942",
"n  c #712849",
"m  c #6D3D4D",
"M  c #783449",
"N  c #6E3C58",
"B  c #793665",
"V  c #4D4748",
"C  c #5A5252",
"Z  c #65404F",
"A  c #605255",
"S  c #7E4367",
"D  c #840319",
"F  c #8E062D",
"G  c #911739",
"H  c #A4173C",
"J  c #97273A",
"K  c #A4203C",
"L  c #821E42",
"P  c #951241",
"I  c #B60841",
"U  c #AC174B",
"Y  c #B21E4E",
"T  c #AC1B52",
"R  c #872A48",
"E  c #93234D",
"W  c #863E58",
"Q  c #9D3B5C",
"!  c #AE234E",
"~  c #A32856",
"^  c #B5285A",
"/  c #AA3855",
"(  c #BF3A5B",
")  c #833D60",
"_  c #B63F6A",
"`  c #CA1758",
"'  c #D3215F",
"]  c #CF1664",
"[  c #DD1363",
"{  c #F01E73",
"}  c #C52360",
"|  c #D42B67",
" . c #C53C68",
".. c #DB376F",
"X. c #DF3F7A",
"o. c #E32265",
"O. c #EE2372",
"+. c #E6217B",
"@. c #83475B",
"#. c #8E4661",
"$. c #984A66",
"%. c #9E516D",
"&. c #834A72",
"*. c #935575",
"=. c #925A7D",
"-. c #A44564",
";. c #B44A6D",
":. c #AF4A71",
">. c #B94E70",
",. c #A4577C",
"<. c #AD637C",
"1. c #D04B6D",
"2. c #C54475",
"3. c #D34877",
"4. c #D65C7F",
"5. c #E6C03E",
"6. c #F62384",
"7. c #B16F8A",
"8. c #AF7684",
"9. c #BA7F9C",
"0. c #C45886",
"q. c #D15988",
"w. c #E95B87",
"e. c #C96A8E",
"r. c #D0688E",
"t. c #DB6C9B",
"y. c #CE719C",
"u. c #D3799B",
"i. c #E46284",
"p. c #ED6694",
"a. c #F4679D",
"s. c #F76E9E",
"d. c #ED729E",
"f. c #F4729E",
"g. c #F9739F",
"h. c #D966A1",
"j. c #CE7BA0",
"k. c #DE7CA3",
"l. c #D974A8",
"z. c #FE6EA4",
"x. c #E376A4",
"c. c #EE78A1",
"v. c #E975A9",
"b. c #EE71AC",
"n. c #EB79AA",
"m. c #F572A9",
"M. c #FD74AA",
"N. c #F579A8",
"B. c #EA7EB2",
"V. c #BE8A95",
"C. c #CD809F",
"Z. c #D382A0",
"A. c #DD81A3",
"S. c #D58BAD",
"D. c #D986B6",
"F. c #E485A9",
"G. c #F187AD",
"H. c #E78AB8",
"J. c #F583B4",
"K. c #F389BD",
"L. c #FB88BB",
"P. c #E395B4",
"I. c #EC9BBE",
"U. c #EB8EC4",
"Y. c #F58CC4",
"T. c #FE8BC3",
"R. c #ED95C5",
"E. c #E797C9",
"W. c #F695C6",
"Q. c #FE93C5",
"!. c #FA91CB",
"~. c #FE9CCD",
"^. c #FF95D1",
"/. c #F59CD4",
"(. c #FE9DD3",
"). c #F59DDC",
"_. c #FD9EDB",
"`. c #EDA6CB",
"'. c #FBA4CA",
"]. c #EAA8D3",
"[. c #F6A3D2",
"{. c #FCA2D4",
"}. c #FCABD7",
"|. c #FFA3DC",
" X c #FFABDC",
".X c #F6B5DB",
"XX c #FEA5E2",
"oX c #FDAAE4",
"OX c #FFAAE8",
"+X c #FBB6E2",
"@X c #FFB3EA",
"#X c #FDBCEB",
"$X c #FFBEF1",
"%X c #FFC1F4",
"&X c #FFD6FA",
"*X c #FFE5F8",
/* pixels */
"5.5.5.5.5.5.5.5.5.5.5.5.5.5.5.5.5.5.5.5.5.5.5.5.5.5.5.5.5.5.5.5.5.5.5.5.5.5.5.5.5.5.5.5.5.5.5.5.5.5.5.5.5.5.5.5.5.5.5.5.5.5.5.5.",
"5.5.5.5.5.5.5.5.5.5.5.5.5.5.5.5.5.5.5.5.5.5.5.5.5.5.5.5.5.5.5.5.5.5.5.5.5.5.5.5.5.5.5.5.5.5.5.5.5.5.5.5.5.5.5.5.5.5.5.5.5.5.5.5.",
"5.5.5.5.5.5.5.5.5.5.5.5.5.5.5.5.5.5.5.5.5.5.5.5.5.5.5.5.5.5.5.5.5.5.5.5.5.5.5.5.5.5.5.5.5.5.5.5.5.5.5.5.5.5.5.5.5.5.5.5.5.5.5.5.",
"5.5.5.5.5.5.5.5.5.5.5.5.5.5.5.5.5.5.5.5.5.5.5.5.5.5.5.5.5.5.5.5.5.5.5.5.5.5.5.5.5.5.5.5.5.5.5.5.5.5.5.5.5.5.5.5.5.5.5.5.5.5.5.5.",
"5.5.5.5.5.5.5.5.5.5.5.5.5.5.5.5.5.5.5.5.< < 2 2 < < < 1 < 1 1 < < < j 2 < < 5.5.5.5.5.5.5.5.5.5.5.5.5.5.5.5.5.5.5.5.5.5.5.5.5.5.",
"5.5.5.5.5.5.5.5.5.5.5.5.5.5.5.5.5.5.5.5.< < 2 2 < < < < 1 < < < < < 2 2 < < 5.5.5.5.5.5.5.5.5.5.5.5.5.5.5.5.5.5.5.5.5.5.5.5.5.5.",
"5.5.5.5.5.5.5.5.5.5.5.5.5.5.5.5.5.5.@ @ - % t r h h h h x x h x h h t t # # + + 5.5.5.5.5.5.5.5.5.5.5.5.5.5.5.5.5.5.5.5.5.5.5.5.",
"5.5.5.5.5.5.5.5.5.5.5.5.5.5.5.5.5.5.@ + - - r r h h h i x x h h h h t t # # + + 5.5.5.5.5.5.5.5.5.5.5.5.v v 5.5.5.5.5.5.5.5.5.5.",
"5.5.5.5.5.5.5.5.5.5.5.5.5.5.X X - - y t ) W e.7.A.F.F.G.F.F.A.A.A.A.e.u.R M % O .   5.5.5.5.5.5.5.5.5.v v v 5.5.5.5.5.5.5.5.5.5.",
"5.5.5.5.5.5.5.5.5.5.5.5.5.5.X X & & y e Q ) e.e.F.F.F.F.F.F.A.F.A.A.u.u.M M % %     5.5.5.5.5.5.5.5.5.v v v 5.5.5.5.5.5.5.5.5.5.",
"5.5.5.5.5.5.5.5.5.5.5.5.X X > > W W j.j.W.W.{.}.(.{.{.{.(.{.{.(.{.'.}.}.j.u.b b % O . . 5.5.5.5.5.5.v v v v 5.5.5.5.5.5.5.5.5.5.",
"5.5.5.5.5.5.5.5.5.5.5.5.X X > > N W j.u.W.~.}.{.(.~.{.{.(.(.(.(.~.{.}..Xu.j.h h % O . . 5.5.5.5.5.5.v v v v 5.5.5.5.5.5.5.5.5.5.",
"5.5.5.5.5.5.5.5.5.5.O o > ; 7.<.I.I.{. X|. X_.{.XXXX|.(._._.XX|.|.|.{.{.}.'.P.H.#.#.% o + O 5.5.5.v v v v v v 5.5.5.5.5.5.5.5.5.",
"5.5.5.5.5.5.5.5.5.5.o o ; > <.<.I.I.}.}. X|.{.{.XXXX_._._._._._.|.|.{.{.{.}.F.H.#.#.o O O + v v v v v v v v v v v v v v v 5.5.5.",
"5.5.5.5.A A C C o o = = #.#.W.`.}..X XXX|.|.XXXXXXXX_._.|._.|.|. XXX|.|. X|. X|.R.R.V.9.m m r r v v v v v v v v v v v v v 5.5.5.",
"5.5.5.5.A A C C o o = * #.@.'.'.}.}.oX X_.|.XXXXXXXX_.|.|.|.|.|.XX|.|.{. X X|.}.W.R.9.9.m m r r v v v v v v v v v v v v 5.5.5.5.",
"5.5.Z Z i i n b 7 e L L x.k. X X{.{.|.|.!.!.J.L.J.J.(.(.~.~.n.n.x.v.(.^.XXXX).XX@X@X@X@XD.S.R R 4 4 v v v v v v v v 5.5.5.5.5.5.",
"5.5.Z Z i i b m 9 9 L L k.x. X X[.{.{.{.!.Y.L.B.J.L.(.(.~.'.n.v.v.x.~.~._.XX).).OX@X#X@XD.S.R J 4 4 v v v v v v 5.5.5.5.5.5.5.5.",
"5.5.i i I.I.'.'.:.:.q.q.T.T.(.(.|.|. X Xl.l.;._ G.G.}.}.y.y.-._ r.r.^./.XXXXOX).).)._.).Y.Q.p.u.R R o o v v v v v 5.5.5.5.5.5.5.",
"5.5.i i `.I.}.'.:.:.q.q.T.Q.(.(.|.|.oX|.l.l._ :.G.G.}.}.y.y.Q -.r.e.^.^.XXOX).XX).)._.).!.Q.t.t.R R o o v v v v v 5.5.5.5.5.5.5.",
"5.5.N N .X.X'.'.n.v.Y.L.|.XX_._./.(.$X#X,.,.c c *X*X*X&X) ) M M *X*X+X+X/./.XXXXXX).).).(.(.J.J./ Q $ $ v v v v v v 5.5.5.5.5.5.",
"5.5.N Z .X}.I.'.v.l.Y.T._.XX_._._.(.$X%X,.,.c c *X*X&X&X) @.M m *X*X+X+X/./.XXXXXXXX_.).{.(.J.G.Q Q $ $ 5.5.v v v v 5.5.5.5.5.5.",
"5.5.S &.+X+X'.~.B.v.Y.Y.oXoX_._._._.#X@X*.*.* = V.V..X.XS S ; = 8.8.[.[.|.XX|.XX).)._.).(.(.Q.~.A.A.$.$.z z 5.5.v v 5.5.5.5.5.5.",
"5.5.@.&.+X.X{.(.v.b.Y.Y.oXoX_._./._.#X#X*.*.$ $ V.V..X.XS S = = 8.8.'.[.|.|.XX|.).).(./.(.{.Q.Q.k.A.#.#.z z 5.5.5.5.5.5.5.5.5.5.",
"5.5.n n K.I.~.~.B.K.!.E.|.|.|.|.[.[.@X+X7.&.X # @.S `.`.&.7.X # x x E.H.oXoX{.)././.[.{.(.[.~.'.~.'.Z.Z.7 7 5.5.5.5.5.5.5.5.5.5.",
"5.5.n n Q.I.~.~.Y.B.!./. X|.XX|.[.[.#X.XS 7.o % S @.].].7.=.# # x d H.P.+XoX).[.).).).[.[.(.(.'.'.'.Z.u.6 7 5.5.5.5.5.5.5.5.5.5.",
"5.5.d d l.t.K.K.^.^.)._.|.XX{.{.].].#X#X&.&.- - 8.8..X.X&.B & & %.%.R.W.|. X/./.{.[.(.[.[.(.{.~.'.'.P.P.t t 5.5.5.5.5.5.5.5.5.5.",
"5.5.d c k.k.Y.K.^.^._._. XXX[.}.E.].$X#X&.&.O + 7.8..X.XS B & + %.%.R.`. X}././.|.{.{.[._.[.{.[.~.'.P.H.t t 5.5.5.5.5.5.5.5.5.5.",
"5.5.x x j.u.n.n.^.^._.(.(.|.[.[.].].%X%X7.B > > E.E.%X%XB B > ; S.S.}.{././.R.E. X{.{.[.[.{.{.[.[.[.`.`.t g 5.5.5.5.5.5.5.5.5.5.",
"5.5.x b A.u.n.n.^.^.(.(.{.(.[.'.].E.%X%XB 7.> > E.P.%X%XB B > + S.S.{.{././.E.R.{.{.{.[.[.[.[.{.[.[.`.`.t g 5.5.5.5.5.5.5.5.5.5.",
"5.5.5.5.u y u.j.K.J.B.B.K.K.{.}.). XoXoXE.E.D.D..XoX+XoXE.E.D.S./.[.|. XU.U.H.B.{.(.[.[.{.{.{.{.`.'.S.S.: > 5.5.5.5.5.5.5.5.5.5.",
"5.5.5.5.u y u.j.K.H.B.B.K.K.{.'.]. XoX).E.U.D.D.).oXoX+XE.E.D.D.[.[.|.|.U.U.U.D.{.{.(.).{.{.[.[.[.'.S.S., > 5.5.5.5.5.5.5.5.5.5.",
"5.5.5.5.5.5.g g b b 0.7.L.T.~.Q._._._.XXOXOXXXOXoXoXoXOX+XoXXXoXoXoXXX|.l.l.h.h.{.{. X|.[.(.{.|.}.{.C.C.> r 5.5.5.5.5.5.5.5.5.5.",
"5.5.5.5.5.5.g g b b 0.0.L.L.~.~._._.XX_.OXOXOXXXXXoXoXOXoXoXXXoXXXXXXXXXl.l.t.h.{.|.|. X(.[.}.|.'.}.C.C.: > 5.5.5.5.5.5.5.5.5.5.",
"5.5.5.5.5.5.V V - - R W J.J.Q.Q.T.T.!.^._.^._._./._.|._._.|.|._._._.XXXXh.h.0.0.n.N.Q.Q.Q.Q.~.~.H.P.@.@.% - 5.5.5.5.5.5.5.5.5.5.",
"5.5.5.5.5.5.V V - - R R N.J.Q.Q.Y.T.!.!.^._._._././._._.XX_.|.|._._.XXXXh.h.0.0.N.N.Q.Q.Q.Y.~.~.H.H.#.@.- - 5.5.5.5.5.5.5.5.5.5.",
"5.5.5.5.5.5.5.5.2 1 9 9 >.>.c.c.b.h.b.b.L.M.!.T.T.!.T.T.T.T.T.T.T.T.^.^.h.a. . .3.1.p.p.d.d.r.r.@.W X X O O 5.5.5.5.5.5.5.5.5.5.",
"5.5.5.5.5.5.5.5.2 1 8 8 >.;.c.c.b.b.d.b.b.K.T.T.T.T.T.T.T.L.T.T.T.T.^.^.a.h...0.1.1.p.p.d.d.r.r.@.W X o O . 5.5.5.5.5.5.5.5.5.5.",
"5.5.5.5.5.5.5.5.1 2 5 5 G G / ^ 3.2.a.a.z.z.M.z.M.M.m.m.m.m.n.m.b.m.b.m.m.b.w.w.1.1.4.4.>.>.d d $ $ . . 5.5.5.5.5.5.5.5.5.5.5.5.",
"5.5.5.5.5.5.5.5.1 2 5 5 G G ^ ^ 3.X.a.a.m.z.M.M.M.M.m.z.m.m.m.m.m.m.m.m.m.b.w.w.1.1.4.4.;.;.d d $ $ . . 5.5.5.5.5.5.5.5.5.5.5.5.",
"5.5.5.5.5.5.C C r 4 a a H I ' ` ` Y X.X.z.a.z.z.a.s.s.s.s.f.f.f.z.a.M.M.g.g.4.4.( / s s : : 5.5.5.5.5.5.5.5.5.5.5.5.5.5.5.5.5.5.",
"5.5.5.v v v C C 4 7 F a I I ` ` ` ` X.X.z.z.M.z.s.s.s.g.s.f.g.g.z.m.M.M.g.g.4.4.( ( 4 s : : 5.5.5.5.5.5.5.5.5.5.5.5.5.5.5.5.5.5.",
"5.5.5.v v v o X s s Y Y o.o.O.O.[ [ ] ` ....w.w.g.g.c.f.c.c.c.c.f.d.i.i.( ( K K 0 J : 4 X o 5.5.5.5.5.5.5.5.5.5.5.5.5.5.5.5.5.5.",
"5.5.5.5.v v X X s s Y Y o.o.O.O.[ [ ] ` ..+.w.w.g.g.d.f.c.d.d.c.d.c.i.i.(  .K H a D 4 4 X O 5.5.5.5.5.5.5.5.5.5.5.5.5.5.5.5.5.5.",
"5.5.5.5.5.5.o o f f | | { { 6.6.6.6.[ [ H I I I _ _ -.;.$.-.%.$.-.-.J J D D D D G D ~ ~ e e v 5.5.5.5.5.5.5.5.5.5.5.5.5.5.5.5.5.",
"5.5.5.5.5.5.o o f f | ..{ O.6.6.6.{ [ [ ` H U U ;.;.-.-.%.$.$.%.-.$.J J D D D 0 F G ~ ~ e e v v v v v v v v v v v v v v 5.5.5.5.",
"5.5.5.5.5.v o # d d T T ] ] +.+.6.+.O.O.' ' P P 4 4 = = $ & & & * * 0 0 D D K H (  .;.2.e p v v v v v v v v v v v v v v 5.5.5.5.",
"5.5.5.5.5.v o o d d T T ] ] +.+.+.+.O.O.' ' P P 4 4 = = & & $ = * * 0 0 D D H H 1.1. .2.p p v v v v v v v v v v v v 5.5.5.5.5.5.",
"5.5.5.5.v v v v # & s e E E ^ ^ } } | ' ^ ^ f f $ $ o o o o = = d d G G H H ! ! ~ / u u % % v v v v v v v v v 5.5.5.5.5.5.5.5.5.",
"5.5.5.5.v v v v & & e e E E ^ ^ } } ' | ^ ^ f f # $ o o o o = = a d G G H H ! ! / / u u % O v v v v v v v 5.5.5.5.5.5.5.5.5.5.5.",
"5.5.5.5.v v v 5.5.5., < ; 6 p q w w a a w q 7 ; 5.5.5.5.5.5.5.5.e e w p w w q q 9 6 o o V V v v v v 5.5.5.5.5.5.5.5.5.5.5.5.5.5.",
"5.5.5.5.5.5.5.5.5.5.< , 4 ; q 8 w w w a w p ; 4 5.5.5.5.5.5.5.5.e y w p w w q q 8 8 o o V V v v v v 5.5.5.5.5.5.5.5.5.5.5.5.5.5.",
"5.5.5.5.5.5.5.5.5.5.5.5.2 3 k l k j k l j 3 C C 5.5.5.5.5.5.5.v 3 j j j k k k k 3 3 3 3 v v v v v v v 5.5.5.5.5.5.5.5.5.5.5.5.5.",
"5.5.5.5.5.5.5.5.5.5.5.5.2 3 k l j j k l j j C C 5.5.5.5.5.5.v v j 3 j k k k k j 3 j 3 3 v v v v v v v 5.5.5.5.5.5.5.5.5.5.5.5.5.",
"5.5.5.5.5.5.5.5.5.5.5.5.5.5.5.5.5.5.5.5.5.5.5.5.5.5.5.5.5.5.v v v v v v v v v 5.5.v v v v v v v v v v v 5.5.5.5.5.5.5.5.5.5.5.5.",
"5.5.5.5.5.5.5.5.5.5.5.5.5.5.5.5.5.5.5.5.5.5.5.5.5.5.5.5.5.v v v v v v v 5.5.5.5.5.5.5.v v v v v v v v v 5.5.5.5.5.5.5.5.5.5.5.5.",
"5.5.5.5.5.5.5.5.5.5.5.5.5.5.5.5.5.5.5.5.5.5.5.5.5.5.5.5.v v v v v v 5.5.5.5.5.5.5.5.5.5.5.v v v v v v v v 5.5.5.5.5.5.5.5.5.5.5.",
"5.5.5.5.5.5.5.5.5.5.5.5.5.5.5.5.5.5.5.5.5.5.5.5.5.5.5.5.v v v 5.5.5.5.5.5.5.5.5.5.5.5.5.5.5.5.v v v v v v 5.5.5.5.5.5.5.5.5.5.5.",
"5.5.5.5.5.5.5.5.5.5.5.5.5.5.5.5.5.5.5.5.5.5.5.5.5.5.5.5.v v 5.5.5.5.5.5.5.5.5.5.5.5.5.5.5.5.5.5.5.v v v v 5.5.5.5.5.5.5.5.5.5.5.",
"5.5.5.5.5.5.5.5.5.5.5.5.5.5.5.5.5.5.5.5.5.5.5.5.5.5.5.5.5.5.5.5.5.5.5.5.5.5.5.5.5.5.5.5.5.5.5.5.5.5.5.5.5.5.5.5.5.5.5.5.5.5.5.5.",
"5.5.5.5.5.5.5.5.5.5.5.5.5.5.5.5.5.5.5.5.5.5.5.5.5.5.5.5.5.5.5.5.5.5.5.5.5.5.5.5.5.5.5.5.5.5.5.5.5.5.5.5.5.5.5.5.5.5.5.5.5.5.5.5.",
"5.5.5.5.5.5.5.5.5.5.5.5.5.5.5.5.5.5.5.5.5.5.5.5.5.5.5.5.5.5.5.5.5.5.5.5.5.5.5.5.5.5.5.5.5.5.5.5.5.5.5.5.5.5.5.5.5.5.5.5.5.5.5.5.",
"5.5.5.5.5.5.5.5.5.5.5.5.5.5.5.5.5.5.5.5.5.5.5.5.5.5.5.5.5.5.5.5.5.5.5.5.5.5.5.5.5.5.5.5.5.5.5.5.5.5.5.5.5.5.5.5.5.5.5.5.5.5.5.5.",
"5.5.5.5.5.5.5.5.5.5.5.5.5.5.5.5.5.5.5.5.5.5.5.5.5.5.5.5.5.5.5.5.5.5.5.5.5.5.5.5.5.5.5.5.5.5.5.5.5.5.5.5.5.5.5.5.5.5.5.5.5.5.5.5."
};
