/* XPM */
static char *result[] = {
/* columns rows colors chars-per-pixel */
"64 64 192 2 ",
"   c #070000",
".  c #0C0000",
"X  c #130001",
"o  c #1C0003",
"O  c #1C030B",
"+  c #160C0F",
"@  c #1C0B0C",
"#  c #220102",
"$  c #23020B",
"%  c #28060B",
"&  c #380004",
"*  c #32010B",
"=  c #2C0112",
"-  c #290810",
";  c #340715",
":  c #271112",
">  c #22191B",
",  c #27211D",
"<  c #2D2020",
"1  c #322426",
"2  c #352E2E",
"3  c #3C3131",
"4  c #5C000B",
"5  c #450214",
"6  c #4F0C1C",
"7  c #580719",
"8  c #5D001C",
"9  c #59101F",
"0  c #60000D",
"q  c #7C000D",
"w  c #69061B",
"e  c #7F061B",
"r  c #4C0D24",
"t  c #560F20",
"y  c #4C162B",
"u  c #4A192B",
"i  c #53172A",
"p  c #55192A",
"a  c #491B3A",
"s  c #591C33",
"d  c #660B25",
"f  c #740F26",
"g  c #66112B",
"h  c #690F35",
"j  c #791434",
"k  c #741C3B",
"l  c #4A2734",
"z  c #5C2437",
"x  c #463132",
"c  c #4F393D",
"v  c #50393D",
"b  c #692139",
"n  c #73213B",
"m  c #736122",
"M  c #572846",
"N  c #583143",
"B  c #642C42",
"V  c #6E2946",
"C  c #722743",
"Z  c #752943",
"A  c #6A314E",
"S  c #652B55",
"D  c #763859",
"F  c #763D65",
"G  c #71415F",
"H  c #774067",
"J  c #8A011D",
"K  c #870421",
"L  c #970329",
"P  c #990230",
"I  c #8A1332",
"U  c #971D33",
"Y  c #A9203F",
"T  c #851B47",
"R  c #BD0A47",
"E  c #832B47",
"W  c #912446",
"Q  c #952948",
"!  c #8D324E",
"~  c #932F58",
"^  c #8B3757",
"/  c #993558",
"(  c #9C3A5C",
")  c #A32B4A",
"_  c #AA2B4A",
"`  c #AC2E54",
"'  c #BA265D",
"]  c #BB295F",
"[  c #B7365B",
"{  c #BD3B65",
"}  c #C1245B",
"|  c #DE286F",
" . c #C33F67",
".. c #D3366B",
"X. c #CB2972",
"o. c #DD387F",
"O. c #E2256B",
"+. c #E82474",
"@. c #8A4056",
"#. c #8C425C",
"$. c #A1445F",
"%. c #BA4259",
"&. c #944967",
"*. c #A34467",
"=. c #A74B6B",
"-. c #B14361",
";. c #A85372",
":. c #9C617A",
">. c #C5547C",
",. c #DF577C",
"<. c #E6C03E",
"1. c #EE2C82",
"2. c #E23A80",
"3. c #B35081",
"4. c #BB5C80",
"5. c #B96287",
"6. c #AF7389",
"7. c #C75A8A",
"8. c #DB5D86",
"9. c #E25E89",
"0. c #C36687",
"q. c #C2648A",
"w. c #CE618C",
"e. c #D5638C",
"r. c #DC6789",
"t. c #C96A99",
"y. c #DA6C94",
"u. c #C67594",
"i. c #CC7497",
"p. c #DB719B",
"a. c #E96897",
"s. c #F66996",
"d. c #EB759D",
"f. c #F2729E",
"g. c #CE79A1",
"h. c #DD7DAA",
"j. c #FB6FA1",
"k. c #E976A6",
"l. c #F472A5",
"z. c #FB73A3",
"x. c #F77BA7",
"c. c #F473AA",
"v. c #FA75AD",
"b. c #F57BAC",
"n. c #FB7AAF",
"m. c #F77EB7",
"M. c #FC7FB4",
"N. c #DB83AC",
"B. c #D691AB",
"V. c #DB89BE",
"C. c #EC81A9",
"Z. c #F585AD",
"A. c #E989B3",
"S. c #F383B6",
"D. c #F889B4",
"F. c #F784BA",
"G. c #FC85BC",
"H. c #F38DBD",
"J. c #FC8BBA",
"K. c #E999BD",
"L. c #F393BA",
"P. c #FF8DC2",
"I. c #EF9AC6",
"U. c #FD95C5",
"Y. c #F49BC4",
"T. c #FF9BC7",
"R. c #FE94CC",
"E. c #F69ECF",
"W. c #FF9BCC",
"Q. c #F898D3",
"!. c #FE9CD4",
"~. c #FE9EDB",
"^. c #EDA9CB",
"/. c #FCA3CF",
"(. c #FBA5CD",
"). c #F5A4D1",
"_. c #FEA3D3",
"`. c #F5AFD4",
"'. c #FDAAD5",
"]. c #F5A1DB",
"[. c #FEA3DC",
"{. c #F2A9DD",
"}. c #FFAADD",
"|. c #FFB5DB",
" X c #FEA4E2",
".X c #FDABE3",
"XX c #FFB1E6",
"oX c #FFB9E7",
"OX c #FEB6EB",
"+X c #FFC0E5",
"@X c #FFDAF6",
"#X c #FFE0FF",
/* pixels */
"<.<.<.<.<.<.<.<.<.<.<.<.<.<.<.<.<.<.<.<.<.<.<.<.<.<.<.<.<.<.<.<.<.<.<.<.<.<.<.<.<.<.<.<.<.<.<.<.<.<.<.<.<.<.<.<.<.<.<.<.<.<.<.<.",
"<.<.<.<.<.<.<.<.<.<.<.<.<.<.<.<.<.<.<.<.<.<.<.<.<.<.<.<.<.<.<.<.<.<.<.<.<.<.<.<.<.<.<.<.<.<.<.<.<.<.<.<.<.<.<.<.<.<.<.<.<.<.<.<.",
"<.<.<.<.<.<.<.<.<.<.<.<.<.<.<.<.<.<.<.<.. . . . X o X X o X X X X X X X X . <.<.<.<.<.<.<.<.<.<.<.<.<.<.<.<.<.<.<.<.<.<.<.<.<.<.",
"<.<.<.<.<.<.<.<.<.<.<.<.<.<.<.<.<.<.<.<.. . . . O o X X X o X X X X X X . X <.<.<.<.<.<.<.<.<.<.<.<.<.<.<.<.<.<.<.<.<.<.<.<.<.<.",
"<.<.<.<.<.<.<.<.<.<.<.<.<.<.<.<.<.<., , # # 9 9 ! ^ =.{ ( ( ( ( / $.@.@.p p # # < < 1 1 <.<.<.<.<.<.<.<.<.<.<.<.<.<.<.<.<.<.<.<.",
"<.<.<.<.<.<.<.<.<.<.<.<.<.<.<.<.<.<., , # # t 9 ^ ! ( *.( ( ( ( @.$.@.@.p p # # < < 1 1 <.<.<.<.<.<.<.<.<.<.<.<.<.<.<.<.<.<.<.<.",
"<.<.<.<.<.<.<.<.<.<.<.<.<.<.<.<.2 2 . X 6 6 0.0.J.J.P.J.P.G.G.G.D.J.A.L.u.u.&.&.s s $ % . X <.<.<.<.<.<.<.<.<.<.<.<.<.<.<.<.<.<.",
"<.<.<.<.<.<.<.<.<.<.<.<.<.<.<.<.2 2 X . 6 6 0.0.J.J.P.P.P.m.J.J.D.J.L.C.N.N.&.#.s s % $ X X <.<.<.<.<.<.m m <.<.<.<.<.<.<.<.<.<.",
"<.<.<.<.<.<.<.<.<.<.<.<.<.<.> > $ o B V 5.:._./.XXXX~.[.[.[.[.[.}.}.XX}..X}.Y.Y.h.h.#.&.; u . . <.<.<.m m m <.<.<.<.<.<.<.<.<.<.",
"<.<.<.<.<.<.<.<.<.<.<.<.<.<.> > $ $ B B 5.5./._.XXXX X~.[. X[. X}.}.|..X X XY.Y.h.h.&.#.; ; . . <.<.<.m m m <.<.<.<.<.<.<.<.<.<.",
"<.<.<.<.<.<.<.<.<.<.<.<.X X o O V V N.N.'.[.[.[.~.~. X[. X X X].[.].[.[.Q.~.Q.~. X XP.P.;.&.- ; . . m m m m <.<.<.<.<.<.<.<.<.<.",
"<.<.<.<.<.<.<.<.<.<.<.<.X X o o V V N.N.}.}.[.'.!.!.~.[. X~.~.[.~.].~.[.Q.Q.Q.~. X].P.R.&.=.; ; . . m m m m <.<.<.<.<.<.<.<.<.<.",
"<.<.<.<.<.<.<.<.<.<.: : o # 9 9 q.q.}.}.[.[.[.[.[.~.!._.[.~.[.'. X[.~.]..X.X~.~.~.~.XX.XP.P.W E % * : @ m m m <.<.<.<.<.<.<.<.<.",
"<.<.<.<.<.<.<.<.<.<.: : # o 9 9 0.5.}.}.[.[.[.[.~._._.!.[.[.[.[.[. X X~.XX X~.~.~.~..X XJ.F.E E * % # @ m m m m m m m m m <.<.<.",
"<.<.<.<.<.<.<.<.l x u u 7 9 $.$.S.S. X X X[.~.~.H.H.p.p.h.h.E.W.H.H.7.t.t.t.~.~. X X X XW.W.7.7.k n n n B B m m m m m m m <.<.<.",
"<.<.<.<.<.<.m m x l y y 9 9 $.$.S.S.[. X[. X~.Q.H.P.t.p.h.h.T./.H.H.5.7.t.t.~.~. X X X XW.Q.e.e.k n n A n v m m m m m m <.<.<.<.",
"<.<.<.<.<.<.l l E D g.g.7.5.A.h.~.~.~.~. X X XXX4.7.*.*.|.|.|.|.;.;.=.=.^.L.'.'.~.~. X~.!.[.U.P.>.>.a.y.i.i.C V i i <.<.<.<.<.<.",
"<.<.<.<.<.<.l a D D g.g.5.q.h.A.~.!.~.~. X X.X.X7.;.&.*.|.|.|.|.;.;.&.=.L.^._.'.~.~.~.~._.!.J.J.7.7.y.y.i.i.C C i i <.<.<.<.<.<.",
"<.<.<.<.= = ^ ^ I.H.[.}.[.}._.[.!.!.~.~. X XOXOX#.( Z Z @X#X+X+Xb b @.@.@X@X|.'.!.Q. X X[.[._._.M.M.n.n././.'.(.B.B.u u <.<.<.<.",
"<.<.<.<.$ = ^ ^ L.I.'.[.[.[._._.!.[.~.~. X XOXOX^ ( Z Z #X#X+X+Xb b @.@.@X@X'.}.!.~.~. X_.[.!._.Z.M.n.n././.'.(.B.B.u u <.<.<.<.",
"<.<.O + #.#.L.L.}.'.).E.'._./.E.!.).[. X X XOXOXD A * * t.w.[.'.A A ; & =.=.W.T..X.X X X[.[._.'.v.c.m.M.R.R.).E.`.`.N M <.<.<.<.",
"<.<.O @ #.&.L.L.'.}./.E.'.'.E.E.).!.[.[. X XOXOXD D * * t.t.'.'.A A * ; =.=.W.W..X.X X~.'.[._._.c.b.m.m.W.R.E.E.`.`.N N <.<.<.<.",
"<.<.o o 5.0./.T././.^.).).).)._._.[. X].].].OXOXG G * = ;.3.[._.F F = = ~ ~ U.U..X.XQ.]. X.X~.~.P.P.m.P.R.R.[.'.oXoXA A <.<.<.<.",
"<.<.O % ;.;.(.T._.).).).)._.!.).'._. X X X XOXOXG H = = 3.3._.[.D D $ = ~ ~ U.U..X.XQ.~..X.X_.~.J.P.F.F.R.R.[.[.oX|.S B <.<.<.<.",
"<.<.: - 0.5.T.T.(.(.I.I.)./.Y.Y.W.W._._.].].OX{.M M . O V.V.OXXX3 a = = g.g.~.Q.[..X!.!.[. X~. X!.~.W.!.R.W._._.A.A.s s <.<.<.<.",
"<.<.: - 0.0.T.T.(.Y.E.^./.).Y.Y.W./._._.).].OXOXM M O O V.V.XX.Xa a = ; t.t.Q.Q.}.}.Q.!. X X X X~.~.!.!.W.R._.Q.A.K.s s <.<.<.<.",
"<.<.O O u.u.(.(./.).E.].W._.F.I.T.U.'._.].].{.{.F F S S .X{.OXOXF F S S I.Q.~.~._.!._.[.~.~.R.R.W.W.P.P.P.P.H.P.u.i.6 6 <.<.<.<.",
"<.<.O O u.u.(.)././.).)./.Q.H.A.U.U._.'.E.].{.{.F F S S {..XOXOXF F S S Q.Q. X~.!._.~._.~.~.R.Q.!.R.P.P.R.P.H.H.u.u.r r <.<.<.<.",
"<.<.O O 6.6.K.K._._.W.!.U.R.k.k.A.C._./._.!..X[.{.OX{.{.].]. X X.X.X.X.X X[.[.[.!._.}.}.R.Q.c.k.c.c.c.j.c.c.k.k.u.u.y y <.<.<.<.",
"<.<.O O 6.6.I.K.'.(./.(.R.T.h.k.C.S././.!._.}.[.{..X{.{.].]. X X.X X.X.X]. X[.'._._.}.}.R.Q.k.k.c.j.j.c.c.c.k.h.u.i.y r <.<.<.<.",
"<.<.<.<.; ; 6.:.^.^.K.V.A.L.e.w.p.p.T.T.R.Q.[.[. X[..X}..X.X X X X]..X X!.~.[.[.W.W.U.R.P.P.c.b.y.y.e.e.h.p.t.t.r r <.<.<.<.<.<.",
"<.<.<.<.; - :.:.^.^.A.K.A.L.w.w.y.p.T.T.R.R.[.~.].}..X.X X X X X X X.X X[.!.'.}.W.W.U.R.P.P.m.c.a.a.e.e.p.h.u.t.r r <.<.<.<.<.<.",
"<.<.<.<.<.<.c c N N z z Z n ! ! r.r.D.D.S.m.R.R.W._.R.T.R.W.W.W.Q.Q.Q.Q.R.R.G.P.C.C.Z.Z.f.Z.>.>.Z Z y i s s u u <.<.<.<.<.<.<.<.",
"<.<.<.<.<.<.N N N N B z Z n ! ! r.8.D.D.m.m.R.R._.W.W.R.W.R.!.W.Q.~.Q.Q.R.R.m.G.C.C.Z.Z.Z.f.>.>.Z Z s i s z u u <.<.<.<.<.<.<.<.",
"<.<.<.<.<.<.<.<.<.<.<.<.o o 5 5 -.-.f.f.k.k.m.m.J.J.J.D.D.Z.F.Z.m.P.m.F.G.G.c.c.d.d.C.f.,.e.g g o o 1 1 <.<.<.<.<.<.<.<.<.<.<.<.",
"<.<.<.<.<.<.<.<.<.<.<.<.@ # 5 5 -.-.l.a.k.k.m.m.J.G.J.G.Z.G.F.G.G.m.m.F.m.m.k.c.d.d.C.C.r.r.g g o o 1 1 <.<.<.<.<.<.<.<.<.<.<.<.",
"<.<.<.<.<.<.<.<.<.<.m m + + o o j b 8.8.k.l.c.n.x.b.l.l.z.l.j.l.c.c.c.c.v.v.s.s.f.f.y.y.#.#.o # @ @ <.<.<.<.<.<.<.<.<.<.<.<.<.<.",
"<.<.<.<.<.<.<.<.<.<.m m + @ # o j j 8.r.l.l.n.v.n.b.l.l.z.j.c.l.c.c.c.c.v.v.c.a.s.s.y.y.#.#.# @ @ @ <.<.<.<.<.<.<.<.<.<.<.<.<.<.",
"<.<.<.<.<.<.<.<.<.m m m + + o o d d { -.,.8.f.f.x.x.d.f.f.j.j.z.j.j.j.j.j.v.9.9. . .f j # # X X <.<.<.<.<.<.<.<.<.<.<.<.<.<.<.<.",
"<.<.<.<.<.<.<.<.<.m m m + @ o $ d d {  .8.8.f.f.x.x.f.f.j.f.j.f.j.j.j.j.j.v.9.9. .>.j j # % X X <.<.<.<.<.<.<.<.<.<.<.<.<.<.<.<.",
"<.<.<.<.<.<.<.<.m m m m @ - 5 5 f f e e U U %.%.r.r.s.d.9.a.s.s.s.s.,.,.%.} U U J e f w 5 5 o X <.<.<.<.<.<.<.<.<.<.<.<.<.<.<.<.",
"<.<.<.m m m m m m m m m @ - 5 5 f f J e U U %.%.9.9.a.s.s.9.s.s.s.s.,.,.[ [ U U q q w f 5 5 o o <.<.<.<.<.<.<.<.<.<.<.<.<.<.<.<.",
"<.<.<.m m m m m m m m m : % n Z ` ` L L q q K I I I W W W W Q Q _ _ ) Y J J J q J U Y $.E E o # <.<.<.<.<.<.<.<.<.<.<.<.<.<.<.<.",
"<.<.<.<.m m m m m m m m - - n n ` ` L L q q e J I I W W Q W Q Q _ _ Y Y J J q q L K ) Y E Z # o <.<.<.<.<.<.<.<.<.<.<.<.<.<.<.<.",
"<.<.<.<.<.<.m m m m m m ; ; T T 2.2.+.+.R ' L P 0 0 & & # & # # 4 4 J J L L R R O.O.o.o.` ( o # <.<.<.<.<.<.<.<.<.<.<.<.<.<.<.<.",
"<.<.<.<.<.<.m m m m m m - ; T C 2.8.+.+.R R P P 0 0 & & # # # # 4 4 J J L P R R +.+.o.o./ / o # m m m m m m m m m m m m <.<.<.<.",
"<.<.<.<.<.m m m m m m m > - h h X.X.1.1.| | ..../ / p i X X . . 9 9 ) Q ....O.O.+.+.| X.h h # @ m m m m m m m m m m m m <.<.<.<.",
"<.<.<.<.<.m m m m m m m : : h h ] X.1.1.| | ..../ ) p i @ X . . 7 9 ) ) ..| O.O.+.+.X.X.h h $ $ m m m m m m m m m m <.<.<.<.<.<.",
"<.<.<.<.m m m m m m m <.    - % T j ] ] ' ' ] [ b k = = . X m m m m d g ]  .} } ' ' T T $ $     m m m m m m m <.<.<.<.<.<.<.<.<.",
"<.<.<.<.m m m m m <.<.<.    = = j j ] ] ' } ` ` C k = * X X m m m m g g { { } ' ' } T T $ @     m m m m m <.<.<.<.<.<.<.<.<.<.<.",
"<.<.<.<.m m m <.<.<.<.<.<.<.@ @ * & 8 8 8 4 7 7 * * $ @ <.<.<.<.m m # # 8 8 0 w w t * * X X m m m m <.<.<.<.<.<.<.<.<.<.<.<.<.<.",
"<.<.<.<.<.<.<.<.<.<.<.<.<.<.@ @ & & 8 0 4 8 7 7 * & @ @ <.<.<.<.m m # # 8 8 8 w 8 8 * * X X m m m m <.<.<.<.<.<.<.<.<.<.<.<.<.<.",
"<.<.<.<.<.<.<.<.<.<.<.<.<.<.<.<.3 3 c v x x c c 2 3 <.<.<.<.<.m m m 3 3 x c x 3 N c 3 3 m m m m m m m <.<.<.<.<.<.<.<.<.<.<.<.<.",
"<.<.<.<.<.<.<.<.<.<.<.<.<.<.<.<.3 3 c c x x c c 3 2 <.<.<.<.m m m m 3 3 c c x x c c 3 3 m m m m m m m <.<.<.<.<.<.<.<.<.<.<.<.<.",
"<.<.<.<.<.<.<.<.<.<.<.<.<.<.<.<.<.<.<.<.<.<.<.<.<.<.<.<.<.<.m m m m m m m m m <.<.m m m m m m m m m m m <.<.<.<.<.<.<.<.<.<.<.<.",
"<.<.<.<.<.<.<.<.<.<.<.<.<.<.<.<.<.<.<.<.<.<.<.<.<.<.<.<.<.m m m m m m m <.<.<.<.<.<.<.m m m m m m m m m <.<.<.<.<.<.<.<.<.<.<.<.",
"<.<.<.<.<.<.<.<.<.<.<.<.<.<.<.<.<.<.<.<.<.<.<.<.<.<.<.<.m m m m m m <.<.<.<.<.<.<.<.<.<.<.m m m m m m m m <.<.<.<.<.<.<.<.<.<.<.",
"<.<.<.<.<.<.<.<.<.<.<.<.<.<.<.<.<.<.<.<.<.<.<.<.<.<.<.<.m m m <.<.<.<.<.<.<.<.<.<.<.<.<.<.<.<.m m m m m m <.<.<.<.<.<.<.<.<.<.<.",
"<.<.<.<.<.<.<.<.<.<.<.<.<.<.<.<.<.<.<.<.<.<.<.<.<.<.<.<.m m <.<.<.<.<.<.<.<.<.<.<.<.<.<.<.<.<.<.<.m m m m <.<.<.<.<.<.<.<.<.<.<.",
"<.<.<.<.<.<.<.<.<.<.<.<.<.<.<.<.<.<.<.<.<.<.<.<.<.<.<.<.<.<.<.<.<.<.<.<.<.<.<.<.<.<.<.<.<.<.<.<.<.<.<.<.<.<.<.<.<.<.<.<.<.<.<.<.",
"<.<.<.<.<.<.<.<.<.<.<.<.<.<.<.<.<.<.<.<.<.<.<.<.<.<.<.<.<.<.<.<.<.<.<.<.<.<.<.<.<.<.<.<.<.<.<.<.<.<.<.<.<.<.<.<.<.<.<.<.<.<.<.<.",
"<.<.<.<.<.<.<.<.<.<.<.<.<.<.<.<.<.<.<.<.<.<.<.<.<.<.<.<.<.<.<.<.<.<.<.<.<.<.<.<.<.<.<.<.<.<.<.<.<.<.<.<.<.<.<.<.<.<.<.<.<.<.<.<.",
"<.<.<.<.<.<.<.<.<.<.<.<.<.<.<.<.<.<.<.<.<.<.<.<.<.<.<.<.<.<.<.<.<.<.<.<.<.<.<.<.<.<.<.<.<.<.<.<.<.<.<.<.<.<.<.<.<.<.<.<.<.<.<.<.",
"<.<.<.<.<.<.<.<.<.<.<.<.<.<.<.<.<.<.<.<.<.<.<.<.<.<.<.<.<.<.<.<.<.<.<.<.<.<.<.<.<.<.<.<.<.<.<.<.<.<.<.<.<.<.<.<.<.<.<.<.<.<.<.<."
};
