/* XPM */
static char *result[] = {
/* columns rows colors chars-per-pixel */
"64 64 196 2 ",
"   c #0D0202",
".  c #140001",
"X  c #1A0001",
"o  c #160909",
"O  c #1E0F10",
"+  c #1C1313",
"@  c #230205",
"#  c #290204",
"$  c #2E050D",
"%  c #340205",
"&  c #320109",
"*  c #3B020D",
"=  c #360C0C",
"-  c #2B0A10",
";  c #3F0014",
":  c #2A1515",
">  c #2B2323",
",  c #342627",
"<  c #3A2626",
"1  c #382C2D",
"2  c #3C3131",
"3  c #46050F",
"4  c #410516",
"5  c #43031C",
"6  c #450C1A",
"7  c #560616",
"8  c #5D001D",
"9  c #64001C",
"0  c #6C021C",
"q  c #4D0828",
"w  c #540D21",
"e  c #5A0A25",
"r  c #441522",
"t  c #4B1827",
"y  c #571E2F",
"u  c #5A182B",
"i  c #5D1931",
"p  c #6D1729",
"a  c #73142B",
"s  c #7E1737",
"d  c #462D34",
"f  c #5A2635",
"g  c #5A2C38",
"h  c #463132",
"j  c #493838",
"k  c #622235",
"l  c #662639",
"z  c #736122",
"x  c #5C2648",
"c  c #463D40",
"v  c #6D2F4D",
"b  c #72234B",
"n  c #6F3448",
"m  c #6D2A53",
"M  c #7C3363",
"N  c #830D25",
"B  c #980021",
"V  c #82142A",
"C  c #8C1136",
"Z  c #971639",
"A  c #A10729",
"S  c #AD002B",
"D  c #B2002B",
"F  c #A60A36",
"G  c #B60238",
"H  c #A4153D",
"J  c #9E203B",
"K  c #C3013D",
"L  c #861441",
"P  c #901C46",
"I  c #AB0F4B",
"U  c #AA1947",
"Y  c #B61647",
"T  c #B9055D",
"R  c #8E2848",
"E  c #9D2945",
"W  c #82304C",
"Q  c #833654",
"!  c #A62248",
"~  c #B42446",
"^  c #A03752",
"/  c #8D3C6C",
"(  c #943F60",
")  c #B63865",
"_  c #DF0C5C",
"`  c #C01850",
"'  c #DA145A",
"]  c #C72758",
"[  c #C4355E",
"{  c #DB0A66",
"}  c #CE1067",
"|  c #EA1C77",
" . c #C93E66",
".. c #D03F67",
"X. c #D22B71",
"o. c #CF3574",
"O. c #EB257B",
"+. c #F5227F",
"@. c #E83B7F",
"#. c #91465F",
"$. c #8F4961",
"%. c #98566B",
"&. c #9A4E70",
"*. c #9E5D73",
"=. c #A94765",
"-. c #AF4B76",
";. c #B24F73",
":. c #A15C73",
">. c #C54667",
",. c #D5456B",
"<. c #C74978",
"1. c #DA4D77",
"2. c #C15673",
"3. c #D75379",
"4. c #E6C03E",
"5. c #EB3084",
"6. c #B75D82",
"7. c #A86C80",
"8. c #BE6485",
"9. c #BB7B8E",
"0. c #BD6695",
"q. c #CF5585",
"w. c #D65E92",
"e. c #E1408D",
"r. c #E45587",
"t. c #E45B9E",
"y. c #C16A8C",
"u. c #C56695",
"i. c #D96B93",
"p. c #CD7794",
"a. c #DC7197",
"s. c #D47299",
"d. c #EE668D",
"f. c #EA6594",
"g. c #F16B93",
"h. c #E6759E",
"j. c #EB729C",
"k. c #F3729E",
"l. c #DB7DA7",
"z. c #EA6EA1",
"x. c #E971A2",
"c. c #E07EA8",
"v. c #E878AB",
"b. c #F373A4",
"n. c #FB76A7",
"m. c #F97DA7",
"M. c #F777AA",
"N. c #FD7BA9",
"B. c #EA7EB0",
"V. c #FC7CB3",
"C. c #C5839C",
"Z. c #D695AB",
"A. c #DA8FB8",
"S. c #D791B7",
"D. c #E182AB",
"F. c #ED89AB",
"G. c #EE82B7",
"H. c #E78AB4",
"J. c #F788BA",
"K. c #FE8BBB",
"L. c #F593B8",
"P. c #F48EC0",
"I. c #FE8CC2",
"U. c #ED98C6",
"Y. c #FC92C5",
"T. c #FA9DC3",
"R. c #F497CA",
"E. c #FE93CA",
"W. c #F69CCB",
"Q. c #FD9CCE",
"!. c #EF99D1",
"~. c #FF95D2",
"^. c #F69DD6",
"/. c #FD9DD3",
"(. c #F69EDB",
"). c #FC9DDA",
"_. c #ECAECC",
"`. c #FCA1C6",
"'. c #EFAED2",
"]. c #FEA2D5",
"[. c #F8A6D5",
"{. c #F4ADD6",
"}. c #F5A3DA",
"|. c #FEA3DB",
" X c #FEACDC",
".X c #EABADA",
"XX c #F8B7D8",
"oX c #FFA5E1",
"OX c #FFACE3",
"+X c #FFA5E8",
"@X c #FDB9E4",
"#X c #FFB5ED",
"$X c #FFBAEC",
"%X c #FFB8F2",
"&X c #FFC2ED",
"*X c #FFE9FE",
/* pixels */
"4.4.4.4.4.4.4.4.4.4.4.4.4.4.4.4.4.4.4.4.4.4.4.4.4.4.4.4.4.4.4.4.4.4.4.4.4.4.4.4.4.4.4.4.4.4.4.4.4.4.4.4.4.4.4.4.4.4.4.4.4.4.4.4.",
"4.4.4.4.4.4.4.4.4.4.4.4.4.4.4.4.4.4.4.4.4.4.4.4.4.4.4.4.4.4.4.4.4.4.4.4.4.4.4.4.4.4.4.4.4.4.4.4.4.4.4.4.4.4.4.4.4.4.4.4.4.4.4.4.",
"4.4.4.4.4.4.4.4.4.4.4.4.4.4.4.4.4.4., , 2 2 , < < < < < < < < < 1 1 > > 4.4.4.4.4.4.4.4.4.4.4.4.4.4.4.4.4.4.4.4.4.4.4.4.4.4.4.4.",
"4.4.4.4.4.4.4.4.4.4.4.4.4.4.4.4.4.4.> , 2 2 , , < < < < < < < < 1 1 > , 4.4.4.4.4.4.4.4.4.4.4.4.4.4.4.4.4.4.4.4.4.4.4.4.4.4.4.4.",
"4.4.4.4.4.4.4.4.4.4.4.4.4.4.4.4.. . @ @ t t k f l l k k k k f k r r X X > > 4.4.4.4.4.4.4.4.4.4.4.4.4.4.4.4.4.4.4.4.4.4.4.4.4.4.",
"4.4.4.4.4.4.4.4.4.4.4.4.4.4.4.4.. . @ @ y y f k l l k k l l k k r r @ X > > 4.4.4.4.4.4.4.4.4.4.4.4.4.4.4.4.4.4.4.4.4.4.4.4.4.4.",
"4.4.4.4.4.4.4.4.4.4.4.4.X X $ $ i i ( ( p.s.c.c.H.H.l.l.c.c.D.D.y.y.l l X X     4.4.4.4.4.4.4.4.4.4.4.4.4.4.4.4.4.4.4.4.4.4.4.4.",
"4.4.4.4.4.4.4.4.4.4.4.4.X X $ $ i i ( #.s.p.c.c.H.H.l.l.c.c.D.D.u.y.l l X . o   4.4.4.4.4.4.4.4.4.4.4.4.z z 4.4.4.4.4.4.4.4.4.4.",
"4.4.4.4.4.4.4.4.4.4.  . r r &.&.l.l.Q.Q.|.|.|.).).].).)././.|.].|. Xy.8.t u X @     4.4.4.4.4.4.4.4.4.z z z 4.4.4.4.4.4.4.4.4.4.",
"4.4.4.4.4.4.4.4.4.4.    q t &.&.l.l.Q.Q.|.|.|.|.].]./.).).).|.].|. X6.y.y y @ @     4.4.4.4.4.4.4.4.4.z z z 4.4.4.4.4.4.4.4.4.4.",
"4.4.4.4.: : : : X @ t q 0.0.).~.OXoX|.|.|.].|.|.].).).|.].].|.|.|.]./.].D.l.Q Q . o + o 4.4.4.4.4.4.z z z z 4.4.4.4.4.4.4.4.4.4.",
"4.4.4.4.: : : = X @ q t 0.0.~.).oXoX).|.].].).].|.|.oX|.|.|.|.|.|.].Q.].D.D.Q Q .   o + 4.4.4.4.4.4.z z z z 4.4.4.4.4.4.4.4.4.4.",
"4.4.d d y y n n Q W 6.6.~.).+X+XoX+XoXOXOXOXoXoX).).).).OXOX#XOX X].].]. X|.H.D.i i X X 4.4.4.4.4.z z z z z z 4.4.4.4.4.4.4.4.4.",
"4.4.d d y y n W W Q 6.6.~.~.+X+XoX+XoXOXOXOXOX+X].|.]./.OX#XOXOX].|.].].|.|.D.D.f i X X z z z z z z z z z z z z z z z z z 4.4.4.",
"4.4.t r p.p.h.h.i.w.G.J.oXoX).).|.].R.R.G.G.G.G.].].Y.Y.v.v.v.x.|. X].|.oXOX`.`.2.q.p p z z z z z z z z z z z z z z z z z 4.4.4.",
"4.4.r t p.p.h.x.w.i.V.J.oX+X).+X].].R.W.G.H.G.G.].].Y.Y.v.v.v.c.].|.].[.oXoX].Q.2.2.p p z z z z z z z z z z z z z z z z 4.4.4.4.",
"4.4.g g L.F.n.n.M.M.I.I.).).).|.OXOXu.0.-.-.L.J.].].u.u.=.) s.i.Q./.}.(.}.}.].Q.k.F.2.2.4 4 z z z z z z z z z z z z 4.4.4.4.4.4.",
"4.4.g g L.L.n.n.M.M.I.I.|.+X).).OXOX0.u.-.-.H.L. X].u.u.) =.i.i.].^.|.(. X[./.].F.F.2.;.4 4 z z z z z z z z z z 4.4.4.4.4.4.4.4.",
"4.4.g y F.F.b.b.E.Y.|.|.).).).|.#X#X/ / Q #.*X*X&X&Xb b %.%.*X*X X XP.!.!.!.).].K.J.i.f.e e z z z z z z z z z z z 4.4.4.4.4.4.4.",
"4.4.d f F.F.b.b.E.E.|.|.).).|.).#X#X/ / Q Q *X*X&X&Xb b %.%.*X*X X XU.!.!.!./.).J.J.i.i.e e z z z z z z z z z z z 4.4.4.4.4.4.4.",
"4.4.t t i.i.j.j.E./. XoX).^.oXoX%X%XM M ; ; Z.Z.@X.Xv m 6 6 9.9.[.[.].|.^.^./.W.K.E.L.J.y.y.n n z z 4.4.z z z z z z 4.4.4.4.4.4.",
"4.4.t t p.i.z.z./.E.|.|.^.].oXoX%X#XM M ; ; Z.Z..X&Xx x 6 6 9.p.[.].).|.^.^.^./.Y.E.L.J.9.0.n n 4.4.4.4.4.4.z z z z 4.4.4.4.4.4.",
"4.4.w t a.a.M.V./.~.|. X|.|.}.oX#X#XM M & & *.*..X.Xv v # % W W W.W.OXOX).).).).~.)././.L.L.$.#.. . 4.4.4.4.4.4.z z 4.4.4.4.4.4.",
"4.4.t t a.a.V.M./.~.|. X|.|.}.}.#X#X/ M & & *.*..X.Xv v % % W n W.W.OX+X/.).).).)./././.L.L.$.%.. . 4.4.4.4.4.4.4.4.4.4.4.4.4.4.",
"4.4.g g ;.=.x.x.I.Y.).).|.|.}.}.$X$Xm m & & C.C..X.Xx x % % 6.q.^./.oX|.).).).).).)././.T.`.:.:.O + 4.4.4.4.4.4.4.4.4.4.4.4.4.4.",
"4.4.g g =.=.j.x.I.I.).].).].}.}.$X$Xm m & $ C.C..X&Xx x * % 6.6.W.Q.|.).).).).).).)././.`.`.:.:.: + 4.4.4.4.4.4.4.4.4.4.4.4.4.4.",
"4.4.4.4.* * ;.;.z.z.I.J.|.oX}.}.$X@Xm m q ; _._..X.Xx x q q H.H.P.P.E.R.).).(.(.(.(.W.[.XXXX:.7.o o 4.4.4.4.4.4.4.4.4.4.4.4.4.4.",
"4.4.4.4.* = ;.;.z.z.I.J. X}.OX{.@X$Xm m ; q _._.XX.Xx x q q H.H.P.P.R.~.).).(.(.(.(.[.W. XXX7.7.o o 4.4.4.4.4.4.4.4.4.4.4.4.4.4.",
"4.4.4.4.4.4.7 7 ) ) M.M.Q.E.OXOX{.[.A.S.S.S.'.'.'.'.S.S.A.H.T.R.B.B.E.E.).).(.(.(.}.}.[.L._.%.%.o o 4.4.4.4.4.4.4.4.4.4.4.4.4.4.",
"4.4.4.4.4.4.w w ) ) M.m.E.Q.OXOX[. XA.A.S.S.'.'.XX'.S.S.A.A.R.R.B.v.E.E.).).(.(.}.}.[.!._.U.%.%.o o 4.4.4.4.4.4.4.4.4.4.4.4.4.4.",
"4.4.4.4.4.4.= = a V ,.,.)  .q.q.|.].$X$X{.{.{.[. X X X X%X#XQ.Q.w.w.V.V.oX).(.(.oX}. XOXL.T.#.#.O O 4.4.4.4.4.4.4.4.4.4.4.4.4.4.",
"4.4.4.4.4.4.= = a V >.>.[ ) q.q.|.].$X$X X X{.{. X{. X X$X$X/.].w.w.V.V.oX+X(.(.oX XoXoXT.T.#.$.O O 4.4.4.4.4.4.4.4.4.4.4.4.4.4.",
"4.4.4.4.4.4.3 3 Z Z [ ] Y I I I t.t.~.~. X].]. X].].Q.Q.].].Y.Y.<.<.w.f.K.I.E.E.U.R.`.W.0.9.k k   . 4.4.4.4.4.4.4.4.4.4.4.4.4.4.",
"4.4.4.4.4.4.6 5 Z Z ] ] Y I I I t.t.~./.].].].].].].Q./.).].Y.Y.<.<.f.t.I.K.E.E.R.W.[.W.8.y.k k .   4.4.4.4.4.4.4.4.4.4.4.4.4.4.",
"4.4.4.4.& & L L o.X.O.O.| | 5.| T T e.e.Y.Y.K.K.K.K.Y.K.K.Y.K.J.q.3. . .3.r.x.k.a.a.8.8.y y X . + > 4.4.4.4.4.4.4.4.4.4.4.4.4.4.",
"4.4.4.4.% $ L L X.X.+.| +.| 5.5.T T e.5.E.E.K.K.K.K.K.Y.K.Y.J.J.1.3. . .r.r.k.k.a.s.2.8.y y . . + + 4.4.4.4.4.4.4.4.4.4.4.4.4.4.",
"4.4.4.4.; ; ) ) 5.5.{ { _ { | 5.| | } } o.o.n.n.N.M.j.x.b.b.M.m.g.g.,.3.,.,.3.3.^ ^ w w X . , 1 4.4.4.4.4.4.4.4.4.4.4.4.4.4.4.4.",
"4.4.4.4.; ; ) ) 5.e._ { { _ 5.| 5.| } } o.o.n.n.N.N.x.j.b.b.m.m.g.g.3.3.,.,.3.3.^ ^ 6 w X . 1 1 4.4.4.4.4.4.4.4.4.4.4.4.4.4.4.4.",
"4.4.4.4.& & P P ` ` ` K K K _ ' 5.5.{ { X.X.V.V.n.n.k.k.k.k.n.n.F.k.d.d.,.,.~ E 3 3 X X 4.4.4.4.4.4.4.4.4.4.4.4.4.4.4.4.4.4.4.4.",
"4.4.4.4.% % P P ` ` K K G K ' ' 5.5.{ { X.X.V.V.n.n.k.k.j.k.n.k.F.F.d.d.,.,.E E * 3 X X 4.4.4.4.4.4.4.4.4.4.4.4.4.4.4.4.4.4.4.4.",
"4.4.4.4.# # s s F F S D D D K K _ _ O.| @.@.1.d.j.g.D.d.F.g.g.g.1.1...[ ~ ~ N V # - z z z 4.4.4.4.4.4.4.4.4.4.4.4.4.4.4.4.4.4.4.",
"4.4.4.z # # s s H F S S D D K K _ _ ' | @.@.r.r.j.j.g.D.k.g.d.d.@.1.[ [ ~ ~ V N @ # z z z 4.4.4.4.4.4.4.4.4.4.4.4.4.4.4.4.4.4.4.",
"4.4.4.z # # a a F F S D D D D D _ K ' ' ` ] F H ^ =.=.=.>.>.,...` ` B B A A N N @ @ z z z z 4.4.4.4.4.4.4.4.4.4.4.4.4.4.4.4.4.4.",
"4.4.4.4.# $ a a F F G F D D D D K K ' ' ] ] Z Z =.%.=.=.>.>.....~ ` B B A B N N @ @ z z z z 4.4.4.4.4.4.4.4.4.4.4.4.4.4.4.4.4.4.",
"4.4.4.4.X X u u C C F F F A S S D S I G H H 0 0 % % % = 7 7 E E >.>.! ~ J J a a . . z z z z z 4.4.4.4.4.4.4.4.4.4.4.4.4.4.4.4.4.",
"4.4.4.4.X X u p C C F F S F S S S S G Y H H 0 0 % % % # 7 7 E E >.>.! ! J J a a . . z z z z z z z z z z z z z z z z z z 4.4.4.4.",
"4.4.4.4.4.z @ # e e R R U E H Y Y I ! Y s s 3 3 X .     X . $ * 3 6 * * % % & - z z z z z z z z z z z z z z z z z z z z 4.4.4.4.",
"4.4.4.4.4.z @ @ e q R R E U U H I Y ! ! s V = 3 X X     . . $ $ 3 = * * % % - = z z z z z z z z z z z z z z z z z z 4.4.4.4.4.4.",
"4.4.4.4.z z z z - - 6 5 8 8 9 9 0 9 9 9 * ; X . 4.4.4.4.z z z z z z z z z z z z z z z z z z z z z z z z z z z 4.4.4.4.4.4.4.4.4.",
"4.4.4.4.z z z z - - 4 4 8 8 9 9 9 9 9 e ; & X . 4.4.4.4.4.4.z z z z z z z z z z z z z z z z z z z z z z z 4.4.4.4.4.4.4.4.4.4.4.",
"4.4.4.4.z z z 4.4.4.1 2 j j h h h h j j 2 2 j c 4.4.4.4.4.4.4.4.z z z z z z z z z z z z z z z z z z 4.4.4.4.4.4.4.4.4.4.4.4.4.4.",
"4.4.4.4.4.4.4.4.4.4.2 2 j j 2 h h d j c 2 2 c c 4.4.4.4.4.4.4.4.z z z z z z z z z z z z z z z z z z 4.4.4.4.4.4.4.4.4.4.4.4.4.4.",
"4.4.4.4.4.4.4.4.4.4.4.4.4.4.4.4.4.4.4.4.4.4.4.4.4.4.4.4.4.4.4.z z z z z z z z z z z z z z z z z z z z 4.4.4.4.4.4.4.4.4.4.4.4.4.",
"4.4.4.4.4.4.4.4.4.4.4.4.4.4.4.4.4.4.4.4.4.4.4.4.4.4.4.4.4.4.z z z z z z z z z z z z z z z z z z z z z 4.4.4.4.4.4.4.4.4.4.4.4.4.",
"4.4.4.4.4.4.4.4.4.4.4.4.4.4.4.4.4.4.4.4.4.4.4.4.4.4.4.4.4.4.z z z z z z z z z 4.4.z z z z z z z z z z z 4.4.4.4.4.4.4.4.4.4.4.4.",
"4.4.4.4.4.4.4.4.4.4.4.4.4.4.4.4.4.4.4.4.4.4.4.4.4.4.4.4.4.z z z z z z z 4.4.4.4.4.4.4.z z z z z z z z z 4.4.4.4.4.4.4.4.4.4.4.4.",
"4.4.4.4.4.4.4.4.4.4.4.4.4.4.4.4.4.4.4.4.4.4.4.4.4.4.4.4.z z z z z z 4.4.4.4.4.4.4.4.4.4.4.z z z z z z z z 4.4.4.4.4.4.4.4.4.4.4.",
"4.4.4.4.4.4.4.4.4.4.4.4.4.4.4.4.4.4.4.4.4.4.4.4.4.4.4.4.z z z 4.4.4.4.4.4.4.4.4.4.4.4.4.4.4.4.z z z z z z 4.4.4.4.4.4.4.4.4.4.4.",
"4.4.4.4.4.4.4.4.4.4.4.4.4.4.4.4.4.4.4.4.4.4.4.4.4.4.4.4.z z 4.4.4.4.4.4.4.4.4.4.4.4.4.4.4.4.4.4.4.z z z z 4.4.4.4.4.4.4.4.4.4.4.",
"4.4.4.4.4.4.4.4.4.4.4.4.4.4.4.4.4.4.4.4.4.4.4.4.4.4.4.4.4.4.4.4.4.4.4.4.4.4.4.4.4.4.4.4.4.4.4.4.4.4.4.4.4.4.4.4.4.4.4.4.4.4.4.4.",
"4.4.4.4.4.4.4.4.4.4.4.4.4.4.4.4.4.4.4.4.4.4.4.4.4.4.4.4.4.4.4.4.4.4.4.4.4.4.4.4.4.4.4.4.4.4.4.4.4.4.4.4.4.4.4.4.4.4.4.4.4.4.4.4.",
"4.4.4.4.4.4.4.4.4.4.4.4.4.4.4.4.4.4.4.4.4.4.4.4.4.4.4.4.4.4.4.4.4.4.4.4.4.4.4.4.4.4.4.4.4.4.4.4.4.4.4.4.4.4.4.4.4.4.4.4.4.4.4.4.",
"4.4.4.4.4.4.4.4.4.4.4.4.4.4.4.4.4.4.4.4.4.4.4.4.4.4.4.4.4.4.4.4.4.4.4.4.4.4.4.4.4.4.4.4.4.4.4.4.4.4.4.4.4.4.4.4.4.4.4.4.4.4.4.4.",
"4.4.4.4.4.4.4.4.4.4.4.4.4.4.4.4.4.4.4.4.4.4.4.4.4.4.4.4.4.4.4.4.4.4.4.4.4.4.4.4.4.4.4.4.4.4.4.4.4.4.4.4.4.4.4.4.4.4.4.4.4.4.4.4."
};
