/* XPM */
static char *result[] = {
/* columns rows colors chars-per-pixel */
"64 64 198 2 ",
"   c #0A0105",
".  c #140001",
"X  c #1C0001",
"o  c #180B0D",
"O  c #1C0E14",
"+  c #1E1515",
"@  c #210102",
"#  c #21000D",
"$  c #26080C",
"%  c #350105",
"&  c #3D0001",
"*  c #32020A",
"=  c #39060B",
"-  c #2C0611",
";  c #260812",
":  c #3E0617",
">  c #231213",
",  c #3F0A29",
"<  c #2C2121",
"1  c #362626",
"2  c #332629",
"3  c #3A2828",
"4  c #3E3333",
"5  c #3D3839",
"6  c #42000C",
"7  c #470419",
"8  c #520415",
"9  c #54071F",
"0  c #510C1F",
"q  c #59131D",
"w  c #620015",
"e  c #68001B",
"r  c #77041D",
"t  c #440425",
"y  c #5C0623",
"u  c #491527",
"i  c #551527",
"p  c #5B1B2C",
"a  c #480D39",
"s  c #540E34",
"d  c #581A31",
"f  c #53193B",
"g  c #730626",
"h  c #67192C",
"j  c #740F35",
"k  c #681A3B",
"l  c #7A1D32",
"z  c #4F202F",
"x  c #512A2A",
"c  c #5E263C",
"v  c #572A39",
"b  c #433333",
"n  c #4D3335",
"m  c #5F353B",
"M  c #51383A",
"N  c #64243A",
"B  c #736122",
"V  c #5B1642",
"C  c #5B2547",
"Z  c #563D42",
"A  c #682743",
"S  c #6C2D48",
"D  c #762846",
"F  c #6F3E4E",
"G  c #4A4243",
"H  c #81001D",
"J  c #8A0721",
"K  c #930034",
"L  c #8B1730",
"P  c #951738",
"I  c #941C3A",
"U  c #A61C3E",
"Y  c #94283F",
"T  c #821C40",
"R  c #B70E51",
"E  c #A71E53",
"W  c #8A2445",
"Q  c #922945",
"!  c #853650",
"~  c #9C3C5F",
"^  c #A92244",
"/  c #B12B4E",
"(  c #A62856",
")  c #B7335D",
"_  c #A33D61",
"`  c #BE3263",
"'  c #D20354",
"]  c #CB1659",
"[  c #D3145B",
"{  c #C8285D",
"}  c #C61760",
"|  c #D51A67",
" . c #EC156E",
".. c #F01D6F",
"X. c #F61E78",
"o. c #D82666",
"O. c #DB2271",
"+. c #C73F71",
"@. c #EE206D",
"#. c #F32279",
"$. c #FC207C",
"%. c #86404F",
"&. c #99405E",
"*. c #8C4D6E",
"=. c #9F4E67",
"-. c #9D4E69",
";. c #995064",
":. c #9D5A78",
">. c #A74867",
",. c #A85374",
"<. c #BB577F",
"1. c #C64B6E",
"2. c #DC487A",
"3. c #D5597A",
"4. c #E6C03E",
"5. c #BC5784",
"6. c #BC6284",
"7. c #B76A89",
"8. c #B7738E",
"9. c #AE7293",
"0. c #B97796",
"q. c #C95889",
"w. c #DB5481",
"e. c #D5568F",
"r. c #EB4D8C",
"t. c #E45485",
"y. c #C76986",
"u. c #D46193",
"i. c #C77490",
"p. c #CB749D",
"a. c #DB7A99",
"s. c #ED6699",
"d. c #E7739E",
"f. c #EC719C",
"g. c #FA7B9F",
"h. c #CF7DA3",
"j. c #D878A2",
"k. c #F56DA3",
"l. c #F36FAA",
"z. c #EB72A0",
"x. c #E579AA",
"c. c #E67BAA",
"v. c #F472A4",
"b. c #FA70A4",
"n. c #F574AB",
"m. c #FC73AB",
"M. c #FE78AF",
"N. c #E67CB1",
"B. c #D586A7",
"V. c #DA84A6",
"C. c #DA8AB2",
"Z. c #E685A8",
"A. c #E285B5",
"S. c #E980B4",
"D. c #EB8BB9",
"F. c #F483B4",
"G. c #F887B6",
"H. c #F48CBC",
"J. c #FE8BBE",
"K. c #E192B8",
"L. c #F495BB",
"P. c #FD94BF",
"I. c #E7A3BC",
"U. c #D792C2",
"Y. c #EE8EC5",
"T. c #F68DC7",
"R. c #FE8BC4",
"E. c #FD8FC9",
"W. c #F594C7",
"Q. c #FC93C6",
"!. c #F99FC4",
"~. c #FC93CA",
"^. c #F49CCF",
"/. c #FE9DCC",
"(. c #FF97D5",
"). c #F79DD3",
"_. c #FD9DD3",
"`. c #FD9FD9",
"'. c #F6A2CD",
"]. c #F8A3C9",
"[. c #EBAFD3",
"{. c #F4A4D5",
"}. c #FCA2D4",
"|. c #F1ADD6",
" X c #FFAAD2",
".X c #F5A5DC",
"XX c #FFA3DB",
"oX c #FEAADC",
"OX c #EBB5D7",
"+X c #F7B1D9",
"@X c #FFB2DD",
"#X c #FD9EE3",
"$X c #FEA4E2",
"%X c #FFABE3",
"&X c #FFB3E2",
"*X c #FDB9E3",
"=X c #F3B8E8",
"-X c #FFE5FF",
/* pixels */
"4.4.4.4.4.4.4.4.4.4.4.4.4.4.4.4.4.4.4.4.4 5 2 2 4 3 3 3 1 1 1 1 1 1 3 1 1 2 1 2 4.4.4.4.4.4.4.4.4.4.4.4.4.4.4.4.4.4.4.4.4.4.4.4.",
"4.4.4.4.4.4.4.4.4.4.4.4.4.4.4.4.4.4.4.4.5 5 2 2 3 4 3 3 1 1 1 1 1 1 1 1 2 1 2 1 4.4.4.4.4.4.4.4.4.4.4.4.4.4.4.4.4.4.4.4.4.4.4.4.",
"4.4.4.4.4.4.4.4.4.4.4.4.4.4.4.4.4.4.4.4.. . - - z d A S c c c C N c c c : : X X 4 b 4.4.4.4.4.4.4.4.4.4.4.4.4.4.4.4.4.4.4.4.4.4.",
"4.4.4.4.4.4.4.4.4.4.4.4.4.4.4.4.4.4.4.4.. . - - d z S A c N c N c N c c , : . X b b 4.4.4.4.4.4.4.4.4.4.4.4.4.4.4.4.4.4.4.4.4.4.",
"4.4.4.4.4.4.4.4.4.4.4.4.4.4.4 4 X X = = h p -.;.p.p.C.A.A.A.V.A.V.V.V.j.<.7.x h X . < < 4.4.4.4.4.4.4.4.4.4.4.4.4.4.4.4.4.4.4.4.",
"4.4.4.4.4.4.4.4.4.4.4.4.4.4.4 4 @ X = = p p -.=.p.h.A.A.A.A.A.C.V.V.V.V.7.<.h d X X < < 4.4.4.4.4.4.4.4.4.4.4.4.4.4.4.4.4.4.4.4.",
"4.4.4.4.4.4.4.4.4.4.4.4.> > . X z u ;.;.Z.Z././.%X%X.XXX$X$X`.$X#X`._.}.}. X5.5.u s X X X . 4.4.4.4.4.4.4.4.4.4.4.4.4.4.4.4.4.4.",
"4.4.4.4.4.4.4.4.4.4.4.4.> + X X i x ;.;.Z.V.!./.oX&X`.`.$X$XXX`.XX`._.}.oX|.<.<.u s X X X . 4.4.4.4.4.4.B B 4.4.4.4.4.4.4.4.4.4.",
"4.4.4.4.4.4.4.4.4.4.+ + X X N N 0.i.^.].}.}.XXXXXXXXXX#X#X#X#X#X#X`.`.#XoXXX}.}.a.h.D k @ @ > > 4.4.4.B B B 4.4.4.4.4.4.4.4.4.4.",
"4.4.4.4.4.4.4.4.4.4.+ + @ @ N N i.8.].^.oX}.XXXXoX$X`.$X#X#X#X#X#X#X`.XXoXoX}.}.j.j.D D X X > > 4.4.4.B B B 4.4.4.4.4.4.4.4.4.4.",
"4.4.4.4.4.4.4.4.4.4.X @ 0 0 6.6. X XoXoXoX%XoX$XXXoX%X%X#X#X$X$X%X#X%X%XXX}.oXoX(._.S.D.7.9.c f n n B B B B 4.4.4.4.4.4.4.4.4.4.",
"4.4.4.4.4.4.4.4.4.4.X X 0 0 7.y.}.}.oXoX$X$X$XXXXXoX#X%X%X#X$X$X#X$X$X%XXXXXoXoX/._.D.D.9.7.C v n n B B B B 4.4.4.4.4.4.4.4.4.4.",
"4.4.4.4., u A V h N 9 9 &.~ G.G.oXoX/._._.`.E.E.F.T.J.J.XX`.~.E.N.N.N.S.}.oX/.^.`.`.%X%X%X%Xp.p.h h x x B B B 4.4.4.4.4.4.4.4.4.",
"4.4.4.4.u u A A N k 9 y ~ ~ F.L.oXoX}._.`.`.~.(.G.M.R.H.}.XX~.~.N.N.S.N.}.}./.}.`.XX%X%X%X%Xp.p.h q x x B B B B B B B B B 4.4.4.",
"4.4.    *.*. X XL.L._ _ x.x.!.!._.}.`._.oXXXq.6.5.5.J.P.}.XX5.5._ _ N.j. X X}.}.XXXX`.`.`.(.T.G.3.y.q q $ > B B B B B B B 4.4.4.",
"4.4.    *.*. X].L.L._ _ a.z././.}._._.`.oXoX6.q.q.1.P.P._.`.5.q._ >.N.h.}.}.oXXXXXoX`.`.(.(.G.H.y.<.q q > > B B B B B B 4.4.4.4.",
"4.4.    9.9.*X*XP.P.x.x././.oXoX`.`.oXoXoX@XD S -.,.-X-X@X@Xs k <.8.-X-X/.^.#XXXXXXX`.`._._.W.Q.V.a.h h 3 u B B B B 4.4.4.4.4.4.",
"4.4.    9.9.&X&XP.Q.x.x././.%X%X.X.XoXoXoX@XD D :.,.-X-X@X@Xk k 8.8.-X-X_./.XXXXXXXX`.`.`._.Q.~.V.V.h h 3 3 B B 4.4.4.4.4.4.4.4.",
"4.4.    0.0.*X*XH.H.N.N.).).%X%X).{..X.X*X*XV a u i I.I.+X+Xd s x x B.B.}.XX#X`.`._.(.^._._.W.!.L.L.i.i.F F M G B 4.4.4.4.4.4.4.",
"4.4.    0.0.*X*XH.T.N.N._.).%X%X{.`..X.X*X*Xf f s u I.!.+X+Xs s p p B.B.oX}.`.`._.`.^.)._._.W.Q.L.L.i.i.F F G G B 4.4.4.4.4.4.4.",
"4.4.o   5.:.^./.Q.Q.N.N.{.).%X$X.X#X.X.X=X=XC C : = 7.8.OXOXf f = 6 &.&.}.XXoXoX).).`.`.{._./.'.].].].].:.:.X . B B 4.4.4.4.4.4.",
"4.4.o o *.:././.Q.Q.S.A.).).$X$X#X#X.X#X=X=XC C : : 8.i.OXOXf f 6 6 &.&.oX}.$X%X).)..X_./._.}.^./.].].].:.:.X . B B 4.4.4.4.4.4.",
"4.4.. . ! ! c.Z.Q.Q.~.~.$XoX.X$X#X%X%X%X=X=X, , t 7 C.C.OXOX, , 6 7 y.y._.}.XX.X).)._.).{.).{./._.}.'.'.9.9.> $ B B 4.4.4.4.4.4.",
"4.4.. X ! ! Z.c.Q./.~.~.$XoX$XXX$X$X=X=X=X=X, V : 7 C.C.OXOX, , 8 6 u.i.'._.XXXX).)._.{./.{._._.}._.'.'.9.9.> $ 4.4.4.4.4.4.4.4.",
"4.4.. . %.%.a.B.Z.G.].}.`.XX_.`.#X$X$X$X=X=Xa V V V .X=X[.[.t t k k !.!././.T.W.Y.^.).).{.)._.{.).{.{.{.0.0.# # 4.4.4.4.4.4.4.4.",
"4.4..   %.%.a.3.Z.G._./.XX#X`._.#X#X%X.X=X=XV a V V *X+X[.[.t t k D !.!././.W.Y.^.^.#X{.).{._.{.{.{.{.{.0.0.# # 4.4.4.4.4.4.4.4.",
"4.4.4.4.u u ! D V.V.H.L.S.D.T.T.$X$X$X$X.X.XU.U.U.U.|.|.+X+XC.C.K.K.oX X/.}.N.N.Y.Y.oXoX{.).{._.`.)..X{.9.9.# # 4.4.4.4.4.4.4.4.",
"4.4.4.4.u x l W C.V.D.H.N.N.T.T..X.X#X$X$X$XU.U.U.U.|.|.OX=XC.C.K.K. X X/./.S.S.Y.Y.oXXX).}._.{.#X).|..X9.9.# X 4.4.4.4.4.4.4.4.",
"4.4.4.4.4.4.Z Z v v S S a.j.E.E.(.(.(./.oXXX&X*X@XoX{.{.oXoXoX%XoX@XoX}.].].u.u.N.N.%X$X).XXXXXX.XXX).^.7.*.; - 4.4.4.4.4.4.4.4.",
"4.4.4.4.4.4.Z Z v v S S j.p.E.E.~.(._._.oXoX&X@X@X@X'.{.oXoX%X%X@XoX}.oX/./.u.u.N.N.$X%XXX{.XXoXXX$X'.'.:.:.; ; 4.4.4.4.4.4.4.4.",
"4.4.4.4.4.4.4.4.b 5 @ @ ,.>.M.J.J.J.J.J.Q.Q.W.^.}.].}.}.}.XX_._._._.XX_./.(.w.q.q.e.R.J.T.T.W.~.}./.h.h.S S . . 4.4.4.4.4.4.4.4.",
"4.4.4.4.4.4.4.4.b b $ @ ,.<.J.M.J.J.J.J.Q.W././.}.}._.}.XX}._._.}._._.}.~.~.w.q.e.e.J.J.E.~.~.~./._.h.h.S S X . 4.4.4.4.4.4.4.4.",
"4.4.4.4.4.4.4.4.4.4.@ @ l l 3.3.g.g.k.g.z.z.G.G.Q.E.R.R.E.E.R.R.J.R.E.E.R.R.e.e.+.+.t.t.m.b.f.f.<.y.k c X . O O 4.4.4.4.4.4.4.4.",
"4.4.4.4.4.4.4.4.4.4.@ @ l h 3.3.g.g.f.g.z.z.G.G.Q.~.R.T.E.E.R.R.R.R.Q.T.R.R.r.e.+.1.t.t.b.b.f.g.y.y.N N X X O O 4.4.4.4.4.4.4.4.",
"4.4.4.4.4.4.4.4.4.4.@ @ w w U U { { 2.r.b.b.b.n.n.n.n.l.l.l.n.m.b.b.v.l.l.l.l.l.2.t.3.2.3.w.>.>.0 0 X X > o 4.4.4.4.4.4.4.4.4.4.",
"4.4.4.4.4.4.4.4.4.4.@ @ e e ^ ^ { { t.r.b.b.n.v.n.n.n.n.l.l.n.n.n.n.v.l.l.l.l.s.3.3.2.2.3.w.>.>.0 0 X X o O 4.4.4.4.4.4.4.4.4.4.",
"4.4.4.4.4.4.4.4.Z M 9 7 K K } ' ] [ { ] r.r.m.m.M.M.v.v.n.v.v.b.b.b.b.b.m.M.s.k.3.1.Y Y 8 8 = = 4.4.4.4.4.4.4.4.4.4.4.4.4.4.4.4.",
"4.4.4.4.4.4.4.4.Z G 7 9 K T [ ] [ [ ] ] r.r.m.m.M.M.v.l.v.v.v.n.b.b.b.b.m.M.s.s.3.3.Y Y 8 8 = = 4.4.4.4.4.4.4.4.4.4.4.4.4.4.4.4.",
"4.4.4.4.4.4.4.4.* * L D } } #.#. ...' ' | | +.r.s.s.d.z.d.z.d.d.d.d.f.f.w.w.` ) P P r r & & . . 4.4.4.4.4.4.4.4.4.4.4.4.4.4.4.4.",
"4.4.4.4.4.4.4.4.- * T T } } #.#. ...' ' { o.#.2.t.s.z.z.d.d.d.d.f.f.f.d.w.w.) ) L Y g h & % . . 4.4.4.4.4.4.4.4.4.4.4.4.4.4.4.4.",
"4.4.4.4.4.4.4.4.6 6 ( E O.O.X.$.X.$...X.' ' U ' ( ( ,.<.>.>.-.>.&.=.>.>.L L J H H H L I l Y $ % 4.4.4.4.4.4.4.4.4.4.4.4.4.4.4.4.",
"4.4.4.B B B B B 7 6 ( ( O.O.X.$.$.$.X.X.' ' ' U ) ( >.>.-.>.-.-.;.=.>.>.L L r H H H I I Y Y % % 4.4.4.4.4.4.4.4.4.4.4.4.4.4.4.4.",
"4.4.4.B B B B B = * Q T R R O.| #.#.X...@.@.] ] j g = = - * - * % % 6 6 r r J H ^ ^ 1.1._ >.% * 4.4.4.4.4.4.4.4.4.4.4.4.4.4.4.4.",
"4.4.4.4.B B B B * : W W E } | | #.#.....@...] ] g g = = * * * * % % & 6 r J J H ^ ^ 1.1.=.>.$ = 4.4.4.4.4.4.4.4.4.4.4.4.4.4.4.4.",
"4.4.4.4.4.4.B B B B * @ j j E E { ] | o.{ o.+.) y y @ @ . . . X = 6 l l Y I U U / / Q Q u 7 .   4.4.4.4.4.4.4.4.4.4.4.4.4.4.4.4.",
"4.4.4.4.4.4.B B B B # * j j E E ] { o.| o.o.{ ) y y @ @ X . X X 6 6 l l P Y U U / / Y Y : 7 .   B B B B B B B B B B B B 4.4.4.4.",
"4.4.4.4.4.B B B B B B B - * 8 8 g r r r r g w y z z B B B B B B m m q q w w w w w w 6 6 o . B B B B B B B B B B B B B B 4.4.4.4.",
"4.4.4.4.4.B B B B B B B - * 8 8 g e r g e g y e z z B B B B B B m m q h w w w w w w 6 6   . B B B B B B B B B B B B 4.4.4.4.4.4.",
"4.4.4.4.B B B B B B B 4.B B n b M M n n n n b b 4.4.4.4.B B B B B B 4 b n b b b M M b b G G B B B B B B B B B 4.4.4.4.4.4.4.4.4.",
"4.4.4.4.B B B B B 4.4.4.4.B b b M M n n M M b 4 4.4.4.4.4.4.B B B B 4 5 b b x b M n b b G G B B B B B B B 4.4.4.4.4.4.4.4.4.4.4.",
"4.4.4.4.B B B 4.4.4.4.4.4.4.4.B B B B 4.4.4.4.4.4.4.4.4.4.4.4.4.B B B B B B B B B B B B B B B B B B 4.4.4.4.4.4.4.4.4.4.4.4.4.4.",
"4.4.4.4.4.4.4.4.4.4.4.4.4.4.4.4.4.4.4.4.4.4.4.4.4.4.4.4.4.4.4.4.B B B B B B B B B B B B B B B B B B 4.4.4.4.4.4.4.4.4.4.4.4.4.4.",
"4.4.4.4.4.4.4.4.4.4.4.4.4.4.4.4.4.4.4.4.4.4.4.4.4.4.4.4.4.4.4.B B B B B B B B B B B B B B B B B B B B 4.4.4.4.4.4.4.4.4.4.4.4.4.",
"4.4.4.4.4.4.4.4.4.4.4.4.4.4.4.4.4.4.4.4.4.4.4.4.4.4.4.4.4.4.B B B B B B B B B B B B B B B B B B B B B 4.4.4.4.4.4.4.4.4.4.4.4.4.",
"4.4.4.4.4.4.4.4.4.4.4.4.4.4.4.4.4.4.4.4.4.4.4.4.4.4.4.4.4.4.B B B B B B B B B 4.4.B B B B B B B B B B B 4.4.4.4.4.4.4.4.4.4.4.4.",
"4.4.4.4.4.4.4.4.4.4.4.4.4.4.4.4.4.4.4.4.4.4.4.4.4.4.4.4.4.B B B B B B B 4.4.4.4.4.4.4.B B B B B B B B B 4.4.4.4.4.4.4.4.4.4.4.4.",
"4.4.4.4.4.4.4.4.4.4.4.4.4.4.4.4.4.4.4.4.4.4.4.4.4.4.4.4.B B B B B B 4.4.4.4.4.4.4.4.4.4.4.B B B B B B B B 4.4.4.4.4.4.4.4.4.4.4.",
"4.4.4.4.4.4.4.4.4.4.4.4.4.4.4.4.4.4.4.4.4.4.4.4.4.4.4.4.B B B 4.4.4.4.4.4.4.4.4.4.4.4.4.4.4.4.B B B B B B 4.4.4.4.4.4.4.4.4.4.4.",
"4.4.4.4.4.4.4.4.4.4.4.4.4.4.4.4.4.4.4.4.4.4.4.4.4.4.4.4.B B 4.4.4.4.4.4.4.4.4.4.4.4.4.4.4.4.4.4.4.B B B B 4.4.4.4.4.4.4.4.4.4.4.",
"4.4.4.4.4.4.4.4.4.4.4.4.4.4.4.4.4.4.4.4.4.4.4.4.4.4.4.4.4.4.4.4.4.4.4.4.4.4.4.4.4.4.4.4.4.4.4.4.4.4.4.4.4.4.4.4.4.4.4.4.4.4.4.4.",
"4.4.4.4.4.4.4.4.4.4.4.4.4.4.4.4.4.4.4.4.4.4.4.4.4.4.4.4.4.4.4.4.4.4.4.4.4.4.4.4.4.4.4.4.4.4.4.4.4.4.4.4.4.4.4.4.4.4.4.4.4.4.4.4.",
"4.4.4.4.4.4.4.4.4.4.4.4.4.4.4.4.4.4.4.4.4.4.4.4.4.4.4.4.4.4.4.4.4.4.4.4.4.4.4.4.4.4.4.4.4.4.4.4.4.4.4.4.4.4.4.4.4.4.4.4.4.4.4.4.",
"4.4.4.4.4.4.4.4.4.4.4.4.4.4.4.4.4.4.4.4.4.4.4.4.4.4.4.4.4.4.4.4.4.4.4.4.4.4.4.4.4.4.4.4.4.4.4.4.4.4.4.4.4.4.4.4.4.4.4.4.4.4.4.4.",
"4.4.4.4.4.4.4.4.4.4.4.4.4.4.4.4.4.4.4.4.4.4.4.4.4.4.4.4.4.4.4.4.4.4.4.4.4.4.4.4.4.4.4.4.4.4.4.4.4.4.4.4.4.4.4.4.4.4.4.4.4.4.4.4."
};
