/* XPM */
static char *result[] = {
/* columns rows colors chars-per-pixel */
"64 64 188 2 ",
"   c #050000",
".  c #0C0000",
"X  c #130002",
"o  c #1B0102",
"O  c #18000D",
"+  c #1D0D0D",
"@  c #1A0713",
"#  c #230203",
"$  c #2B0005",
"%  c #2D000E",
"&  c #310005",
"*  c #3A0000",
"=  c #320009",
"-  c #3C000F",
";  c #2D0017",
":  c #250A11",
">  c #2F0018",
",  c #340012",
"<  c #3D0012",
"1  c #39061C",
"2  c #27171A",
"3  c #301017",
"4  c #3D141E",
"5  c #2B1D20",
"6  c #3B1121",
"7  c #3E2020",
"8  c #342929",
"9  c #3F2829",
"0  c #5D0004",
"q  c #4C021E",
"w  c #44081B",
"e  c #580F1E",
"r  c #60001D",
"t  c #6D001C",
"y  c #410E2B",
"u  c #510C21",
"i  c #4B1626",
"p  c #4C1624",
"a  c #5E162F",
"s  c #5B1F35",
"d  c #6E0522",
"f  c #7D1327",
"g  c #7F0932",
"h  c #601931",
"j  c #7C1032",
"k  c #542335",
"l  c #57293C",
"z  c #463235",
"x  c #54363E",
"c  c #76273D",
"v  c #736122",
"b  c #5A2940",
"n  c #782846",
"m  c #792A48",
"M  c #6B3E4F",
"N  c #7C3047",
"B  c #662B51",
"V  c #773A5E",
"C  c #783D63",
"Z  c #5F4248",
"A  c #524C4C",
"S  c #5B4E52",
"D  c #645A5B",
"F  c #6F5660",
"G  c #890317",
"H  c #940628",
"J  c #931A34",
"K  c #9E163A",
"L  c #AE062A",
"P  c #A4113C",
"I  c #8F203A",
"U  c #9D1842",
"Y  c #A60C40",
"T  c #BC0C47",
"R  c #A9174A",
"E  c #BE1856",
"W  c #8E2E43",
"Q  c #932F45",
"!  c #893853",
"~  c #9B3D5E",
"^  c #AC3255",
"/  c #863F60",
"(  c #C31149",
")  c #D90E57",
"_  c #CC1850",
"`  c #D61B5D",
"'  c #C52454",
"]  c #C82056",
"[  c #D8255B",
"{  c #EB1D6B",
"}  c #F51D6D",
"|  c #D12060",
" . c #DA2572",
".. c #F52478",
"X. c #87455F",
"o. c #964557",
"O. c #93445D",
"+. c #894863",
"@. c #89566C",
"#. c #945971",
"$. c #985877",
"%. c #A64B67",
"&. c #B84B69",
"*. c #B0556F",
"=. c #AD4974",
"-. c #A05072",
";. c #B25975",
":. c #9D657F",
">. c #AC6073",
",. c #A1637D",
"<. c #C34665",
"1. c #CB477F",
"2. c #D34574",
"3. c #D55A77",
"4. c #E84B7C",
"5. c #E6C03E",
"6. c #BE5987",
"7. c #B27496",
"8. c #C45788",
"9. c #D15380",
"0. c #E35B8D",
"q. c #C9668C",
"w. c #CA6B96",
"e. c #D16C98",
"r. c #CD759B",
"t. c #D3779B",
"y. c #EE6699",
"u. c #E76D9F",
"i. c #F66D9B",
"p. c #EF749D",
"a. c #F47697",
"s. c #F2729C",
"d. c #D26CA3",
"f. c #D97BA4",
"g. c #D775AA",
"h. c #EF72AC",
"j. c #E47DAC",
"k. c #F474A4",
"l. c #FC72A3",
"z. c #F67DA5",
"x. c #F373AA",
"c. c #FF7CB6",
"v. c #CC85AB",
"b. c #D382A6",
"n. c #DF84B0",
"m. c #E286A9",
"M. c #FD80AC",
"N. c #ED8CB7",
"B. c #EA8ABA",
"V. c #F684B6",
"C. c #F088B4",
"Z. c #F682BB",
"A. c #FB85BE",
"S. c #F58CBB",
"D. c #FC8CBC",
"F. c #EB93B7",
"G. c #F890BC",
"H. c #EF8EC1",
"J. c #FA8CC2",
"K. c #FB8AC6",
"L. c #EB9BC4",
"P. c #F394C4",
"I. c #FD92C1",
"U. c #FD93CC",
"Y. c #F699C8",
"T. c #FE9BCD",
"R. c #F59DD2",
"E. c #FA9AD6",
"W. c #FE9BD4",
"Q. c #FE9CDB",
"!. c #F5A1C9",
"~. c #FEA2CE",
"^. c #F4A2D3",
"/. c #FCA4D5",
"(. c #FCABD7",
"). c #F5A2DB",
"_. c #FEA3DC",
"`. c #F6AADA",
"'. c #FEABDC",
"]. c #FFB3D3",
"[. c #FFB4DC",
"{. c #FF9FE2",
"}. c #FFA3E3",
"|. c #FFAAE2",
" X c #FFAFEA",
".X c #FEB2E2",
"XX c #FFDBFE",
"oX c #FFE1FF",
/* pixels */
"5.5.5.5.5.5.5.5.5.5.5.5.5.5.5.5.5.5.5.5.5.5.5.5.5.5.5.5.5.5.5.5.5.5.5.5.5.5.5.5.5.5.5.5.5.5.5.5.5.5.5.5.5.5.5.5.5.5.5.5.5.5.5.5.",
"5.5.5.5.5.5.5.5.5.5.5.5.5.5.5.5.5.5.5.5.5.5.5.5.5.5.5.5.5.5.5.5.5.5.5.5.5.5.5.5.5.5.5.5.5.5.5.5.5.5.5.5.5.5.5.5.5.5.5.5.5.5.5.5.",
"5.5.5.5.5.5.5.5.5.5.5.5.5.5.5.5.5.5.5.5.5.5.X X o o o o X X X X X X X X X O . . 5.5.5.5.5.5.5.5.5.5.5.5.5.5.5.5.5.5.5.5.5.5.5.5.",
"5.5.5.5.5.5.5.5.5.5.5.5.5.5.5.5.5.5.5.5.5.5.X . o o o o X X X X X o o X X o     5.5.5.5.5.5.5.5.5.5.5.5.5.5.5.5.5.5.5.5.5.5.5.5.",
"5.5.5.5.5.5.5.5.5.5.5.5.5.5.5.5.5.5.2 2 # o a a ! ! ~ ~ ~ ~ ~ ~ ~ ~ o.o.u u # # 5 8 8 8 5.5.5.5.5.5.5.5.5.5.5.5.5.5.5.5.5.5.5.5.",
"5.5.5.5.5.5.5.5.5.5.5.5.5.5.5.5.5.5.2 2 o o a a ! ! ~ ~ ~ ~ ~ ~ ~ ~ ~ o.u u # # 8 8 8 8 5.5.5.5.5.5.5.5.5.5.5.5.5.5.5.5.5.5.5.5.",
"5.5.5.5.5.5.5.5.5.5.5.5.5.5.5.5.5 5 o o h h t.e.A.D.D.D.K.D.D.D.S.S.G.C.e.r.X.O.i k o o + + 5.5.5.5.5.5.5.5.5.5.5.5.5.5.5.5.5.5.",
"5.5.5.5.5.5.5.5.5.5.5.5.5.5.5.5.5 2 X o h h e.t.D.D.D.J.A.D.D.D.D.D.G.F.r.r.O.X.k i o O + + 5.5.5.5.5.5.v v 5.5.5.5.5.5.5.5.5.5.",
"5.5.5.5.5.5.5.5.5.5.5.5.5.5.5.5.& $ n n 7.q.'.[. X XQ.Q.|.|.'.|.(.|.'.|..X'.P.L.r.r./ / % % X . 5.5.5.v v v 5.5.5.5.5.5.5.5.5.5.",
"5.5.5.5.5.5.5.5.5.5.5.5.5.5.5.5.$ $ N c q.q.(.[. X X{.{.|.|.|.'.'.'.|.'.'.(.P.P.r.r./ / % = . X 5.5.5.v v v 5.5.5.5.5.5.5.5.5.5.",
"5.5.5.5.5.5.5.5.5.5.5.5.5.5.o o ! V m.m.(.(._._.Q.Q.}.}.).}.).).)._._._._.Q.Q.W.}.|.H.B.+.+.: # 5.5.v v v v 5.5.5.5.5.5.5.5.5.5.",
"5.5.5.5.5.5.5.5.5.5.5.5.5.5.o # ! ! m.m.(.[._./.Q.Q.{.}.).).).)._._._._._.Q./.Q.|.|.B.B.+.O.$ # 5.5.v v v v 5.5.5.5.5.5.5.5.5.5.",
"5.5.5.5.5.5.5.5.5.5.k s m m e.q.[.'.^.^.Q._._._.B.B.d.w.n.n.~.!.N.S.8.6.g.d._.Q.}.}.}.}.E.W.8.8.F / $.#.b l S S 5.5.5.5.5.5.5.5.",
"5.5.5.5.5.5.5.5.5.5.k s m m q.e.'.[.^.^.)._.Q.|.B.B.r.d.n.n.!.~.N.S.8.8.d.d.Q._.}.{.}.{.U.T.q.8.! F #.#.l b S S v v v v v 5.5.5.",
"5.5.5.5.5.5.5.5.7 8 w w w.w.K.K.W./.Q./.}.}. X|.=.*.*.*.[.[.].].%.O.;.;.!.!.)./.}.}.}. XQ.Q.J.S.N.N..X[.7.7.O O v v v v v 5.5.5.",
"5.5.5.5.5.5.v v 9 9 q w e.w.J.J./.R.).).}.}.|.|.=.=.*.*.].].].].%.%.;.;.!.!./.).}.}.}.}.Q.W.J.J.N.N..X[.7.7.O O v v v v 5.5.5.5.",
"5.5.5.5.5.5.v v M x W m j.j.U.P./.).).).}.}. X Xc j o.o.oXoX].].e e >.>.XXXXW.Q.{.}.{.{.{.}.T.W.V.V.|.'.v.v.@ @ v v 5.5.5.5.5.5.",
"5.5.5.5.5.5.5.v x M m m j.j.K.U././.).E.}.}. X}.h c o.o.oXoX].].e u >.;.XXXXQ.E.}.}.{.{.}.Q.W.T.V.V..X'.v.v.@ @ 5.5.5.5.5.5.5.5.",
"5.5.5.5.5.5.+ + M M b.b.K.P.E.E.).`.).^.).R.|..Xs s - w f.f.~.~.p p < < 6.6.Q.Q.{.{.Q.}._._././.D.G..X[.v.v.: O v 5.5.5.5.5.5.5.",
"5.5.5.5.5.5.+ + Z Z b.b.P.P.E.R.)./.^.).).Q..X.Xs a w - f.f.~.].i i < < 6.6.Q.{.{.{.{.Q._._././.G.D..X.Xv.v.O O v 5.5.5.5.5.5.5.",
"5.5.5.5.5.5.. X @.@.!.!.T.T./.^.`.`.R.R.}.}.`..Xb b , % q.w.~./.l l , , ~ =.{.E.{.Q.Q.{._.(._.(.I.I.G.G.$.-.: : v v 5.5.5.5.5.5.",
"5.5.5.5.5.5.. . @.@.L.L./.W.R./.^.).^.R.}.}..X`.b b % , w.w././.l l , , =.=.{.{.{.{.{._.(._.(./.I.I.G.S.-.-.: : v v 5.5.5.5.5.5.",
"5.5.5.5.5.5.: : :.:.(.(.R.R.^.^.(.`.R.R.R.R..X.Xy y > > P.L.(.(.1 > ; ; g.g.W.Q._.|._._.(./.].(.J.I.M.z.%.%.o o v v 5.5.5.5.5.5.",
"5.5.5.5.5.5.: : :.:.(.(.Y.R.^.^.(./.R.R.R.L.XX.Xy y > > L.L.(.(.1 1 ; ; g.d.Q.Q.|._._._._.(.(.(.I.D.C.z.%.=.o o 5.5.5.5.5.5.5.5.",
"5.5.5.5.5.5.o o 7.,.(.(.R./.^.^././.L.Y.Y.U._._.V V C V  X.X.X'.B B C C E.R.{.{._._._.'././.T.T.C.C.q.q.! ! z z 5.5.5.5.5.5.5.5.",
"5.5.5.5.5.5.# + $.:.(.[.^.^.^.^./.(.L.Y.Y.U.(.`.V V V C .X.X|..XB B F C R.).{.{._._.(.'./.~.!.T.C.C.q.3.! ! z z 5.5.5.5.5.5.5.5.",
"5.5.5.5.5.5.# o $.$.`.^._._.R.~././.H.H.g.g.W.W.`.(.`.`.).|.|._. X.X^.^.}.}.{.{._._.|.'.I.G.b.f.r.b.c M 7 7 5.5.5.5.5.5.5.5.5.5.",
"5.5.5.5.5.5.+ + $.$.^.^././.R.^./._.H.H.h.g.T.W.'.`.`.`.`.)._.|..X.X^.^. X}.{.{._._.'.'.!.T.m.t.b.t.c c 7 7 5.5.5.5.5.5.5.5.5.5.",
"5.5.5.5.5.5.+ + +.F L.L.^.`.T.T./.T.Z.C.8.8.U.U.|.|.|.|.E.E._._.|._._._.R.{.|.}.W.W.I.P.I.I.t.t., w Z Z 5.5.5.5.5.5.5.5.5.5.5.5.",
"5.5.5.5.5.5.: + +.+.F.L.(./.T.T.W.~.C.Z.8.8.U.U.|.|.|.}.E.)._._._._.|.|.}.}.}.}.W.W.J.I.T.I.e.t.< 1 Z Z 5.5.5.5.5.5.5.5.5.5.5.5.",
"5.5.5.5.5.5.X X 6 6 ,.,.F.F.S.S.s.p.3.9. .1.K.U.W.W.U.Q.Q.Q.W.W.W.W.W.W.Y.U.B.J.Z.V.D.D.M.M.=.&.D D 5.5.5.5.5.5.5.5.5.5.5.5.5.5.",
"5.5.5.5.5.5.X . 6 6 ,.,.F.F.S.C.p.p.9.9.8.1.U.K.U.W.U.U.W.W.W.W.W.W.W.Q.U.U.Z.J.V.Z.M.D.M.M.%.&.D D 5.5.5.5.5.5.5.5.5.5.5.5.5.5.",
"5.5.5.5.5.5.A A + X 4 4 O.O.q.w.3.3.<.<.0.0.c.c.J.K.A.A.Z.H.Z.K.A.A.A.A.V.V.y.u.y.y.y.y.2.2.j j 5.5.5.5.5.5.5.5.5.5.5.5.5.5.5.5.",
"5.5.5.5.5.5.A A X X w p O.O.q.q.3.3. .<.0.0.c.c.K.J.A.Z.K.c.K.c.A.K.A.A.V.V.u.u.y.u.y.y.2.2.j j 5.5.5.5.5.5.5.5.5.5.5.5.5.5.5.5.",
"5.5.5.5.5.5.5.5.A A + + 7 6 N N *.<.3.<.a.a.a.i.k.k.h.h.h.h.h.h.x.x.x.x.k.k.i.i.4.4.' ' P P t t 5.5.5.5.5.5.5.5.5.5.5.5.5.5.5.5.",
"5.5.5.5.5.5.5.5.A A + + 4 4 N N *.<.3.3.a.s.a.a.k.k.h.h.h.h.h.h.x.x.x.x.z.k.i.i.4.4.' ' P P t t 5.5.5.5.5.5.5.5.5.5.5.5.5.5.5.5.",
"5.5.5.5.5.5.5.5.5.5.v v v 5.& & J f <.<.3.3.a.a.a.a.i.s.k.k.k.k.l.z.l.l.l.l.4.4.( ( _ _ ] _ U U 3 3 5.5.5.5.5.5.5.5.5.5.5.5.5.5.",
"5.5.5.5.5.5.5.5.5.5.v v v 5.& & f f <.&.3.3.a.a.z.z.s.s.z.z.k.i.k.l.l.l.l.i.4.4.( T _ _ ] ( U U 3 3 5.5.5.5.5.5.5.5.5.5.5.5.5.5.",
"5.5.5.5.5.5.5.5.5.v v v v v : # ^ ^ G H t G G H J J I I W W W W Q Q U U T T ) ) ............ . .q q 5.5.5.5.5.5.5.5.5.5.5.5.5.5.",
"5.5.5.5.5.5.5.5.5.v v v v v # # ^ ^ H H G f H G K J I I W I W W Q Q U R T ( ) ) ........ ... . .q q 5.5.5.5.5.5.5.5.5.5.5.5.5.5.",
"5.5.5.5.5.5.5.5.v v v v v v X o 2.2.[ [ L L G G 0 0 * * o o X o , = d q | | } } ..} { { ` ` Y Y w p 5.5.5.5.5.5.5.5.5.5.5.5.5.5.",
"5.5.5.v v v v v v v v v v v X X 2.2.[ [ L L G G 0 0 * * o X o o , = r r |  .} } } ..` { ` ` Y Y p p 5.5.5.5.5.5.5.5.5.5.5.5.5.5.",
"5.5.5.v v v v v v v v v v v X . H g R P L K K J c c p p . .     X X q q R Q ( E E E R R K U d d 5.5.5.5.5.5.5.5.5.5.5.5.5.5.5.5.",
"5.5.5.5.v v v v v v v v v v . X j j P R J K J J I c p p . .     X X q q R R E T E E T R U K d d 5.5.5.5.5.5.5.5.5.5.5.5.5.5.5.5.",
"5.5.5.5.5.5.v v v v v v v v v v # o - = * - & & 4 1 x x 5.5.5.5.5.5.F F , , - w > < , < $ # o # 5.5.5.5.5.5.5.5.5.5.5.5.5.5.5.5.",
"5.5.5.5.5.5.v v v v v v v v v v # # - , * = = = 3 1 x x v v v v v v F F , < w < < < < < $ # o o v v v v v v v v v v v v 5.5.5.5.",
"5.5.5.5.5.v v v v v v v v v v v v v 5.5.5.5.5.5.v v v v v v v v v v v v v v v v v v v v v v v v v v v v v v v v v v v v 5.5.5.5.",
"5.5.5.5.5.v v v v v v v v v v v v v 5.5.5.5.5.5.5.5.v v v v v v v v v v v v v v v v v v v v v v v v v v v v v v v v 5.5.5.5.5.5.",
"5.5.5.5.v v v v v v v 5.v v v v v v v 5.5.5.5.5.5.5.5.5.v v v v v v v v v v v v v v v v v v v v v v v v v v v 5.5.5.5.5.5.5.5.5.",
"5.5.5.5.v v v v v 5.5.5.5.v v v v v v 5.5.5.5.5.5.5.5.5.5.5.v v v v v v v v v v v v v v v v v v v v v v v 5.5.5.5.5.5.5.5.5.5.5.",
"5.5.5.5.v v v 5.5.5.5.5.5.5.5.v v v v 5.5.5.5.5.5.5.5.5.5.5.5.5.v v v v v v v v v v v v v v v v v v 5.5.5.5.5.5.5.5.5.5.5.5.5.5.",
"5.5.5.5.5.5.5.5.5.5.5.5.5.5.5.5.5.5.5.5.5.5.5.5.5.5.5.5.5.5.5.5.v v v v v v v v v v v v v v v v v v 5.5.5.5.5.5.5.5.5.5.5.5.5.5.",
"5.5.5.5.5.5.5.5.5.5.5.5.5.5.5.5.5.5.5.5.5.5.5.5.5.5.5.5.5.5.5.v v v v v v v v v v v v v v v v v v v v 5.5.5.5.5.5.5.5.5.5.5.5.5.",
"5.5.5.5.5.5.5.5.5.5.5.5.5.5.5.5.5.5.5.5.5.5.5.5.5.5.5.5.5.5.v v v v v v v v v v v v v v v v v v v v v 5.5.5.5.5.5.5.5.5.5.5.5.5.",
"5.5.5.5.5.5.5.5.5.5.5.5.5.5.5.5.5.5.5.5.5.5.5.5.5.5.5.5.5.5.v v v v v v v v v 5.5.v v v v v v v v v v v 5.5.5.5.5.5.5.5.5.5.5.5.",
"5.5.5.5.5.5.5.5.5.5.5.5.5.5.5.5.5.5.5.5.5.5.5.5.5.5.5.5.5.v v v v v v v 5.5.5.5.5.5.5.v v v v v v v v v 5.5.5.5.5.5.5.5.5.5.5.5.",
"5.5.5.5.5.5.5.5.5.5.5.5.5.5.5.5.5.5.5.5.5.5.5.5.5.5.5.5.v v v v v v 5.5.5.5.5.5.5.5.5.5.5.v v v v v v v v 5.5.5.5.5.5.5.5.5.5.5.",
"5.5.5.5.5.5.5.5.5.5.5.5.5.5.5.5.5.5.5.5.5.5.5.5.5.5.5.5.v v v 5.5.5.5.5.5.5.5.5.5.5.5.5.5.5.5.v v v v v v 5.5.5.5.5.5.5.5.5.5.5.",
"5.5.5.5.5.5.5.5.5.5.5.5.5.5.5.5.5.5.5.5.5.5.5.5.5.5.5.5.v v 5.5.5.5.5.5.5.5.5.5.5.5.5.5.5.5.5.5.5.v v v v 5.5.5.5.5.5.5.5.5.5.5.",
"5.5.5.5.5.5.5.5.5.5.5.5.5.5.5.5.5.5.5.5.5.5.5.5.5.5.5.5.5.5.5.5.5.5.5.5.5.5.5.5.5.5.5.5.5.5.5.5.5.5.5.5.5.5.5.5.5.5.5.5.5.5.5.5.",
"5.5.5.5.5.5.5.5.5.5.5.5.5.5.5.5.5.5.5.5.5.5.5.5.5.5.5.5.5.5.5.5.5.5.5.5.5.5.5.5.5.5.5.5.5.5.5.5.5.5.5.5.5.5.5.5.5.5.5.5.5.5.5.5.",
"5.5.5.5.5.5.5.5.5.5.5.5.5.5.5.5.5.5.5.5.5.5.5.5.5.5.5.5.5.5.5.5.5.5.5.5.5.5.5.5.5.5.5.5.5.5.5.5.5.5.5.5.5.5.5.5.5.5.5.5.5.5.5.5.",
"5.5.5.5.5.5.5.5.5.5.5.5.5.5.5.5.5.5.5.5.5.5.5.5.5.5.5.5.5.5.5.5.5.5.5.5.5.5.5.5.5.5.5.5.5.5.5.5.5.5.5.5.5.5.5.5.5.5.5.5.5.5.5.5.",
"5.5.5.5.5.5.5.5.5.5.5.5.5.5.5.5.5.5.5.5.5.5.5.5.5.5.5.5.5.5.5.5.5.5.5.5.5.5.5.5.5.5.5.5.5.5.5.5.5.5.5.5.5.5.5.5.5.5.5.5.5.5.5.5."
};
