/* XPM */
static char *result[] = {
/* columns rows colors chars-per-pixel */
"64 64 204 2 ",
"   c #0C0001",
".  c #090606",
"X  c #130001",
"o  c #1D0203",
"O  c #1A0408",
"+  c #1A090C",
"@  c #1C0E12",
"#  c #240103",
"$  c #2B0002",
"%  c #22070F",
"&  c #2C000A",
"*  c #330203",
"=  c #32000B",
"-  c #3A0609",
";  c #2A0214",
":  c #250C14",
">  c #280C13",
",  c #330415",
"<  c #3F0614",
"1  c #3B0418",
"2  c #261A1A",
"3  c #271A1A",
"4  c #2D2727",
"5  c #332526",
"6  c #382626",
"7  c #352C2C",
"8  c #3A2D2D",
"9  c #44010C",
"0  c #49040A",
"q  c #520008",
"w  c #450418",
"e  c #540013",
"r  c #590E1F",
"t  c #4C141D",
"y  c #53101C",
"u  c #7A010E",
"i  c #6B0011",
"p  c #7B0016",
"a  c #75061E",
"s  c #470A23",
"d  c #5D0524",
"f  c #540B24",
"g  c #5D0E29",
"h  c #491425",
"j  c #581425",
"k  c #6B0A23",
"l  c #6A0A2D",
"z  c #720722",
"x  c #6B0F31",
"c  c #7D0B33",
"v  c #7D1737",
"b  c #4C2F34",
"n  c #5B2436",
"m  c #57283A",
"M  c #662839",
"N  c #736122",
"B  c #593745",
"V  c #683546",
"C  c #73344B",
"Z  c #6F3851",
"A  c #7A3853",
"S  c #595151",
"D  c #72445C",
"F  c #695455",
"G  c #7C4C65",
"H  c #7D546B",
"J  c #8A001B",
"K  c #830823",
"L  c #88112E",
"P  c #9C0637",
"I  c #801F3B",
"U  c #971538",
"Y  c #A91136",
"T  c #962436",
"R  c #B71C46",
"E  c #B91F55",
"W  c #952E48",
"Q  c #8B334E",
"!  c #9E2C55",
"~  c #853B55",
"^  c #A92240",
"/  c #A12452",
"(  c #B42756",
")  c #AE3C5A",
"_  c #BB3955",
"`  c #AA3F60",
"'  c #BE3565",
"]  c #CD1F5A",
"[  c #DB1E59",
"{  c #CA295F",
"}  c #C52D67",
"|  c #D62868",
" . c #CC3662",
".. c #CA3870",
"X. c #E52467",
"o. c #ED326F",
"O. c #EB2A70",
"+. c #974158",
"@. c #A7475C",
"#. c #B3475C",
"$. c #8E4B6D",
"%. c #9F4664",
"&. c #8C566E",
"*. c #97546D",
"=. c #9B4F7F",
"-. c #985475",
";. c #AB4666",
":. c #A44964",
">. c #B64B6C",
",. c #A34F74",
"<. c #86616C",
"1. c #9D6674",
"2. c #AA6F7C",
"3. c #C94761",
"4. c #CB4A77",
"5. c #C35276",
"6. c #D75E7E",
"7. c #E35D7E",
"8. c #E6C03E",
"9. c #9F5E82",
"0. c #A25885",
"q. c #986980",
"w. c #AB678E",
"e. c #B66488",
"r. c #AE6A99",
"t. c #B56F94",
"y. c #D15C81",
"u. c #CB6A8A",
"i. c #CC768F",
"p. c #D66993",
"a. c #C37299",
"s. c #D07A97",
"d. c #E8698B",
"f. c #E76D9A",
"g. c #F46D9C",
"h. c #E7719A",
"j. c #E27A9D",
"k. c #EB7A9D",
"l. c #F77699",
"z. c #F4739E",
"x. c #CA7BA3",
"c. c #D97FA4",
"v. c #E16EA2",
"b. c #F76AA3",
"n. c #F96DA5",
"m. c #ED74A3",
"M. c #E978A7",
"N. c #EC7CAA",
"B. c #F473A4",
"V. c #F775A6",
"C. c #FC7AA4",
"Z. c #F574AC",
"A. c #F676B2",
"S. c #F57CB5",
"D. c #DC83A3",
"F. c #DC83A9",
"G. c #CD86B7",
"H. c #D986B4",
"J. c #E484AB",
"K. c #E988B7",
"L. c #EF83BA",
"P. c #F380B2",
"I. c #F788B7",
"U. c #FC8CBC",
"Y. c #E897B9",
"T. c #FF93BF",
"R. c #F298BE",
"E. c #EA8DC1",
"W. c #F58BC1",
"Q. c #FF8CC5",
"!. c #FD8FC9",
"~. c #E997CC",
"^. c #F393C4",
"/. c #FA9BC7",
"(. c #F494CB",
"). c #F897C9",
"_. c #FE94CC",
"`. c #FD9BCD",
"'. c #EC9DD4",
"]. c #FB97D2",
"[. c #F59DD3",
"{. c #FE9DD4",
"}. c #F69FDA",
"|. c #FF9EDA",
" X c #E4A2CA",
".X c #F5A3CE",
"XX c #ECA6D8",
"oX c #F4A5D5",
"OX c #FCA1D3",
"+X c #F5ACD2",
"@X c #FEABD6",
"#X c #F4A2DA",
"$X c #FEA3DC",
"%X c #FEA9DB",
"&X c #FEB6DE",
"*X c #FFA5E1",
"=X c #FFABE3",
"-X c #FBAAE5",
";X c #FDB6E3",
":X c #FFB3EB",
">X c #FFBCED",
",X c #FFBFF2",
"<X c #FFCDE0",
"1X c #FFDCF8",
/* pixels */
"8.8.8.8.8.8.8.8.8.8.8.8.8.8.8.8.8.8.8.8.8.8.4 5 7 7 6 6 6 6 6 6 6 6 5 5 8 8 5 4 8.8.8.8.8.8.8.8.8.8.8.8.8.8.8.8.8.8.8.8.8.8.8.8.",
"8.8.8.8.8.8.8.8.8.8.8.8.8.8.8.8.8.8.8.8.8.8.5 4 6 8 6 6 6 6 6 6 6 6 5 5 8 8 4 5 8.8.8.8.8.8.8.8.8.8.8.8.8.8.8.8.8.8.8.8.8.8.8.8.",
"8.8.8.8.8.8.8.8.8.8.8.8.8.8.8.8.8.8.8.8.5 5 o o h s n n n M n n n n n n t h $ # X   8.8.8.8.8.8.8.8.8.8.8.8.8.8.8.8.8.8.8.8.8.8.",
"8.8.8.8.8.8.8.8.8.8.8.8.8.8.8.8.8.8.8.8.5 5 o o 3 s n n n n n n n n n n h h & #     8.8.8.8.8.8.8.8.8.8.8.8.8.8.8.8.8.8.8.8.8.8.",
"8.8.8.8.8.8.8.8.8.8.8.8.8.8.8.8.X . ; ; s s ~ A e.u.c.c.J.J.J.J.D.D.D.D.D.i.D ~ ; & X O 8.8.8.8.8.8.8.8.8.8.8.8.8.8.8.8.8.8.8.8.",
"8.8.8.8.8.8.8.8.8.8.8.8.8.8.8.8.  X ; + s s A ~ e.e.c.D.J.J.J.J.D.D.D.D.i.D.D +.& ;   X 8.8.8.8.8.8.8.8.8.8.8.8.8.8.8.8.8.8.8.8.",
"8.8.8.8.8.8.8.8.8.8.8.8.8.8.    > > Z Z a.a./.).OXOX{.{.{.{.OX{.`.`./.OX&X@XD.D.Z C ; %     8.8.8.8.8.8.8.8.8.8.8.8.8.8.8.8.8.8.",
"8.8.8.8.8.8.8.8.8.8.8.8.8.8.    ; ; Z Z t.a././.OXOX{.{.{.{.`.OX{.`.OX`.&X&XD.D.C C > >     8.8.8.8.8.8.N N 8.8.8.8.8.8.8.8.8.8.",
"8.8.8.8.8.8.8.8.8.8.8.8.O + > > *.*.Y.Y.+X@XOX#X*X|.*X*X|.|.|.|.$X$X$X$X[.OX%X@XY.Y.-.-.% ; + + 8.8.8.N N N 8.8.8.8.8.8.8.8.8.8.",
"8.8.8.8.8.8.8.8.8.8.8.8.O O , , *.*.Y.Y.@X@X#X#X|.|.*X*X*X|.|.|.$X$X*X$XoX[.%X@XK.E.%.-.; ; + @ 8.8.8.N N N 8.8.8.8.8.8.8.8.8.8.",
"8.8.8.8.8.8.8.8.8.8.O O $ $ +.A R.R.@X@X&X%X#X$X*X*X*X*X|.*X*X*X*X*X=X=X%X*X|.*X&X=X^.E.A A & = O % N N N N 8.8.8.8.8.8.8.8.8.8.",
"8.8.8.8.8.8.8.8.8.8.O O = * ~ D R./.@X@X%X=X%X#X|.*X*X*X*X|.*X$X*X*X=X=X*X*X|.*X=X=XR.^.A A $ = % o N N N N 8.8.8.8.8.8.8.8.8.8.",
"8.8.8.8.8.8.8.8.j t e e v v p.p.%X%X%X$X[.[.[.].U.U.S.S.`.`.`.`.P.P.v.v.].].*X-XOX%XOX@Xp.p.I I q q 0 0 N N N 8.8.8.8.8.8.8.8.8.",
"8.8.8.8.8.8.8.8.t j e e v v p.p.@XOX$X%X[.[.[.].I.W.L.S.`.`.`.`.P.P.v.v.].].-X*X$X$X@X@Xi.u.I I q q 9 9 N N N N N N N N N 8.8.8.",
"8.8.B S ; ; n h i.i.>.>.4.5./.T.].{.}.}.=X=XK.K.;.;.s.M.@X@XF.F.;.` u.p.(.(.*X-XOXOXOXOXU.U.y.y.) ;.+.:.< < N N N N N N N 8.8.8.",
"8.8.B B ; ; h j i.i.3.>.5.4.T.U.{.`.}.oX=X&XK.E.;.;.j.j.@X@XF.J.;.:.u.y.(.].*X-XOXOXOXOXU.U.y.y.` #.+.:.< w N N N N N N 8.8.8.8.",
"4 3 B V x.x.'.~.T.T.N.k.I.I.OX@XOXOX[.[.>X>Xa.a.g j <X<X1X1X-.,.M M 1X1X,X,X(.(.*X$X$XOX`.{._.`.`./..X/.t.u.s f N N 8.8.8.8.8.8.",
"4 3 B B x.x.(.(./.Q.N.P.I.P.OXOX$XOX[.[.>X>Xa.a.j g <X<X1X1X-.=.M M <X1X,X,X(.(.$X$XOX$XOX{./.`.OX/././.u.i.f f 8.8.8.8.8.8.8.8.",
"+ + &.&.@X%X|.|.].!.N.N.Y.K.@X@X$X$X[.[.:X:Xe.e.* $ 2.2.;X&Xq.9.# $ 1.1.[.[.*X|.$X$X$XOX$X$X$X#X%X%X@XOX`.!.0.e.m m S S 8.8.8.8.",
"+ + &.&.@X%X|.$X(.].N.N.I.I.@X@XOX$X[.].:X:Xw.e.* $ 2.2.;X&X9.9.# $ 1.1..X[.*X*X$X$X$X$X%X$X$X#X*X%X%XOX`.`.>.2.m m S S 8.8.8.8.",
"2 2 q.q.>X>X).].!.!.L.S.^.^.*X$X*X$X#X#X:X:Xt.t.$ $ C C  X Xw.w.# # j j H.H.:X:X|.|.}.}.-X}.}.'.#X#X'.'.*X}. X XD Z X   8.8.8.8.",
"2 4 q.1.>X>X].].!.!.S.W.^.(.%X$X%X$XOX#X:X:Xt.t.$ $ C C  X~.w.0.$ # j j H.H.:X:X|.[.}.*X}.-X}.}.#X#X'.'.#X*X X XD D X X 8.8.8.8.",
"2 2 &.D @X@X{.OX!._._.].|.|.*X*X$X$X#XoX>X>Xr.r.& & *.*.-X;X0.0.$ # $.~ E.E.*X*X*X*X*X}.$X|.}.}.-X#XXX#X}.XX X XD D 3 6 8.8.8.8.",
"2 2 G H @X@X{.{._._.]._.|.|.|.*X|.|.#X#X>X>Xr.t.& & *.&.;X;X0.0.# # ~ +.E.E.*X*X$X*X|.*X#X|.}.}.-X#X-XXXXX}. X XD G 4 4 8.8.8.8.",
"2 2 V V J.M.T./.!./._.`.*X}.|.|.$X*X}.#X:X:Xr.r., ; x.G.,X,X0.=.= = x.x.[.{.|.|.=X=X%X#X(.(.(.(.oXOX#X#XXXXXXXXXG G 3 3 8.8.8.8.",
"2 2 V V J.J.T.Q./.!.`._.*X*X|.|.|.|.*X}.:X:Xr.r.; ; G.x.,X<X0.0., = x.s.[.[.|.|.*X=X%X#X(.(.(.(.OXoXoXoXXX XXXXXD G 3 3 8.8.8.8.",
"    V V D.D.k.l.M.N.S.P.M.M.L.I.|.{.*X*X-X-X'.XXG.G.XXXX=X=X~.~.H.H.oXoX|.*X|.|.%X$X$X$XS.K.L.L.(.(..X'.'. XXXXXH H . . 8.8.8.8.",
"    V V D.J.k.k.N.N.P.P.A.A.L.S.|.|.*X*X-X:X'.'.G.G.XXXX=X=X~.~.H.H.oXoX|.|.|.|.$X$X%X$XL.N.L.L./.(.~.'.'.'.;XXXH H O O 8.8.8.8.",
"8.8.b b Q ~ j.j.f.p.h.p.h.h.I.I.`.`..X/.OXOX=X:X:X:X%X%X*X%X%X%X%X%X%X$X*X$X*X|.].{.]._.p.p.v.j.^.R.[..X+X+X&.&.B B 8.8.8.8.8.8.",
"8.8.b b Q Q s.D.p.h.h.h.f.f.S.I.`.`..X/.OX$X=X=X:X:X$X$X%X*X*X%X%X%X%X%X|.*X|.*X{.].`.{.p.p.k.v.R.^..X.XoXoX&.-.B Z 8.8.8.8.8.8.",
"8.8.8.8.M n +.+.Q Q W ! >.>.m.k.U.U.U.U.W.W.{.].|.|.|.{.$XOX|.{.|.|.$X{.$X|.]._.W.W.U.Q.4.4.` ` ,.,.$.$.&.&.B B 8.8.8.8.8.8.8.8.",
"8.8.8.8.m n +.+.Q Q W Q >.;.M.j.U.U.U.U.W.^.{.].|.|.{.|.{.|.{.$X$X{.{.|.|.|._._.W.U.Q.Q.5.>.` ) ,.*.$.$.&.&.B B 8.8.8.8.8.8.8.8.",
"8.8.8.8.8.8.+ > 2 > # o 9 < +.+.l.l.l.C.m.m.S.S.Q.Q._.!.Q.Q.!.Q.Q.Q.Q.Q.Q.Q.P.P.V.N.m.k.+.@.9 9 % # : 2 @ @ 8.8.8.8.8.8.8.8.8.8.",
"8.8.8.8.8.8.@ @ > > o # < < +.+.D.J.C.l.m.m.S.S.U.Q._.!.Q.Q.Q.!.Q.Q.Q.Q.Q.Q.P.P.N.B.k.M.Q ` 9 9 # % : @ @ @ 8.8.8.8.8.8.8.8.8.8.",
"8.8.8.8.8.8.8.8.8.8.7 7 X X t t 6.6.D.l.B.B.n.n.b.Z.n.Z.Z.Z.Z.Z.A.A.A.A.B.h.l.l.g.h.y.4.r r $ $ 8.8.8.8.8.8.8.8.8.8.8.8.8.8.8.8.",
"8.8.8.8.8.8.8.8.8.8.7 7 X X t t i.6.l.l.V.B.C.g.n.n.Z.Z.Z.Z.A.A.A.A.A.A.h.z.g.h.g.g.y.6.r r $ # 8.8.8.8.8.8.8.8.8.8.8.8.8.8.8.8.",
"8.8.8.8.8.8.8.8.8.8.N N N 8.o o t y @.@.6.6.d.g.C.C.C.n.n.g.n.b.n.n.n.B.l.C.l.l.d.7.) ) < - X X 8.8.8.8.8.8.8.8.8.8.8.8.8.8.8.8.",
"8.8.8.8.8.8.8.8.8.8.N N N 8.# # t y @.@.6.6.l.l.C.C.n.C.g.B.b.b.n.n.n.B.C.l.l.l.7.7.) ) - - o X 8.8.8.8.8.8.8.8.8.8.8.8.8.8.8.8.",
"8.8.8.8.8.8.8.8.8.N N N N N o o - 0 a a U T _ _ 7.7.d.d.z.l.B.B.n.B.B.z.d.d.3.3.^ ^ L L j f # & 8.8.8.8.8.8.8.8.8.8.8.8.8.8.8.8.",
"8.8.8.8.8.8.8.8.8.N N N N N o o 0 0 a k L T _ _ 7.7.g.d.z.l.B.V.B.B.z.l.7.7.3.3.^ ^ L L f j # ; 8.8.8.8.8.8.8.8.8.8.8.8.8.8.8.8.",
"8.8.8.8.8.8.8.8.N N N N N N , , ! ! P P u u u u T T #.#.;.;.:.;.%.%.%.%.W T L K u u K K ! ! l g 8.8.8.8.8.8.8.8.8.8.8.8.8.8.8.8.",
"8.8.8.N N N N N N N N N N N 1 1 / / P P u u u u T T #.#.>.#.:.@.%.:.%.%.T W K K u a K K / / d d 8.8.8.8.8.8.8.8.8.8.8.8.8.8.8.8.",
"8.8.8.N N N N N N N N N N N 1 1 ....X.| R R J J p p z z 0 0 * - $ * * * i i K J Y Y  . ...4.z l 8.8.8.8.8.8.8.8.8.8.8.8.8.8.8.8.",
"8.8.8.8.N N N N N N N N N N 1 1 ....| o.R R J J p J K z 0 0 - - * * * * i p J K Y Y  . .y...l l 8.8.8.8.8.8.8.8.8.8.8.8.8.8.8.8.",
"8.8.8.8.8.8.N N N N N N N N 1 1 / E O.O.X.O.X.X.] ] U U 9 9 # # * * k r R R [ [ X.X.o.o. .' r r 8.8.8.8.8.8.8.8.8.8.8.8.8.8.8.8.",
"8.8.8.8.8.8.N N N N N N N N 1 1 E E O.O.X.X.X.[ ] ] P U 9 9 o # * - k k R R [ [ X.X.o.o.' ' d d N N N N N N N N N N N N 8.8.8.8.",
"8.8.8.8.8.N N N N N N N N N # O l k E E | } | | } } c c <.<.F F # # r r _ ( | | [ [ { { v v = = N N N N N N N N N N N N 8.8.8.8.",
"8.8.8.8.8.N N N N N N N N N o # z l E E | | | | } } c c <.<.F F # # r r ) ( o. .[ X.{ { v I = * N N N N N N N N N N 8.8.8.8.8.8.",
"8.8.8.8.N N N N N N N 8.N N 5 5 o o f f l l x x f f o o N N N N 4 4 X . y w g x l l g g % o @ @ N N N N N N N 8.8.8.8.8.8.8.8.8.",
"8.8.8.8.N N N N N 8.8.8.8.N 4 5 o X f f l l x x j f o o 8.8.N N 4 4 X O w w l x l l g g # o 2 2 N N N N N 8.8.8.8.8.8.8.8.8.8.8.",
"8.8.8.8.N N N 8.8.8.8.8.8.8.8.N         # % o o         8.8.8.8.N N . .     % o X X X O     N N N N 8.8.8.8.8.8.8.8.8.8.8.8.8.8.",
"8.8.8.8.8.8.8.8.8.8.8.8.8.8.8.8.      . o o o #     .   8.8.8.8.N N @ .     o % X o X       N N N N 8.8.8.8.8.8.8.8.8.8.8.8.8.8.",
"8.8.8.8.8.8.8.8.8.8.8.8.8.8.8.8.8.8.8.8.8.8.8.8.8.8.8.8.8.8.8.N N N N N N N N N N N N N N N N N N N N 8.8.8.8.8.8.8.8.8.8.8.8.8.",
"8.8.8.8.8.8.8.8.8.8.8.8.8.8.8.8.8.8.8.8.8.8.8.8.8.8.8.8.8.8.N N N N N N N N N N N N N N N N N N N N N 8.8.8.8.8.8.8.8.8.8.8.8.8.",
"8.8.8.8.8.8.8.8.8.8.8.8.8.8.8.8.8.8.8.8.8.8.8.8.8.8.8.8.8.8.N N N N N N N N N 8.8.N N N N N N N N N N N 8.8.8.8.8.8.8.8.8.8.8.8.",
"8.8.8.8.8.8.8.8.8.8.8.8.8.8.8.8.8.8.8.8.8.8.8.8.8.8.8.8.8.N N N N N N N 8.8.8.8.8.8.8.N N N N N N N N N 8.8.8.8.8.8.8.8.8.8.8.8.",
"8.8.8.8.8.8.8.8.8.8.8.8.8.8.8.8.8.8.8.8.8.8.8.8.8.8.8.8.N N N N N N 8.8.8.8.8.8.8.8.8.8.8.N N N N N N N N 8.8.8.8.8.8.8.8.8.8.8.",
"8.8.8.8.8.8.8.8.8.8.8.8.8.8.8.8.8.8.8.8.8.8.8.8.8.8.8.8.N N N 8.8.8.8.8.8.8.8.8.8.8.8.8.8.8.8.N N N N N N 8.8.8.8.8.8.8.8.8.8.8.",
"8.8.8.8.8.8.8.8.8.8.8.8.8.8.8.8.8.8.8.8.8.8.8.8.8.8.8.8.N N 8.8.8.8.8.8.8.8.8.8.8.8.8.8.8.8.8.8.8.N N N N 8.8.8.8.8.8.8.8.8.8.8.",
"8.8.8.8.8.8.8.8.8.8.8.8.8.8.8.8.8.8.8.8.8.8.8.8.8.8.8.8.8.8.8.8.8.8.8.8.8.8.8.8.8.8.8.8.8.8.8.8.8.8.8.8.8.8.8.8.8.8.8.8.8.8.8.8.",
"8.8.8.8.8.8.8.8.8.8.8.8.8.8.8.8.8.8.8.8.8.8.8.8.8.8.8.8.8.8.8.8.8.8.8.8.8.8.8.8.8.8.8.8.8.8.8.8.8.8.8.8.8.8.8.8.8.8.8.8.8.8.8.8.",
"8.8.8.8.8.8.8.8.8.8.8.8.8.8.8.8.8.8.8.8.8.8.8.8.8.8.8.8.8.8.8.8.8.8.8.8.8.8.8.8.8.8.8.8.8.8.8.8.8.8.8.8.8.8.8.8.8.8.8.8.8.8.8.8.",
"8.8.8.8.8.8.8.8.8.8.8.8.8.8.8.8.8.8.8.8.8.8.8.8.8.8.8.8.8.8.8.8.8.8.8.8.8.8.8.8.8.8.8.8.8.8.8.8.8.8.8.8.8.8.8.8.8.8.8.8.8.8.8.8.",
"8.8.8.8.8.8.8.8.8.8.8.8.8.8.8.8.8.8.8.8.8.8.8.8.8.8.8.8.8.8.8.8.8.8.8.8.8.8.8.8.8.8.8.8.8.8.8.8.8.8.8.8.8.8.8.8.8.8.8.8.8.8.8.8."
};
