/* XPM */
static char *result[] = {
/* columns rows colors chars-per-pixel */
"64 64 200 2 ",
"   c #0C0202",
".  c #130002",
"X  c #1B0002",
"o  c #1A050A",
"O  c #240103",
"+  c #2C0006",
"@  c #24060A",
"#  c #29010C",
"$  c #33010C",
"%  c #3C040E",
"&  c #250514",
"*  c #350219",
"=  c #3D051C",
"-  c #231218",
";  c #22191A",
":  c #29191A",
">  c #381717",
",  c #3C0125",
"<  c #331B23",
"1  c #372B2C",
"2  c #42030F",
"3  c #4A0013",
"4  c #460B19",
"5  c #530219",
"6  c #431A1D",
"7  c #6B071E",
"8  c #5F0825",
"9  c #43182B",
"0  c #53162C",
"q  c #551D2A",
"w  c #430D34",
"e  c #4F1831",
"r  c #5D1B36",
"t  c #6C0C2C",
"y  c #7C0529",
"u  c #6E162F",
"i  c #7A0C35",
"p  c #641B33",
"a  c #48292A",
"s  c #57242D",
"d  c #572538",
"f  c #6F202E",
"g  c #63273D",
"h  c #736122",
"j  c #5F2644",
"k  c #6D2844",
"l  c #742D41",
"z  c #673A49",
"x  c #7D344F",
"c  c #633A53",
"v  c #6D3C54",
"b  c #713751",
"n  c #4D4141",
"m  c #595456",
"M  c #76425E",
"N  c #870524",
"B  c #820735",
"V  c #950535",
"C  c #9A0437",
"Z  c #93073A",
"A  c #A70E31",
"S  c #A1113D",
"D  c #B2143E",
"F  c #9D0644",
"G  c #BA1240",
"H  c #862646",
"J  c #8E2A57",
"K  c #942852",
"L  c #883655",
"P  c #953A5A",
"I  c #AA254E",
"U  c #AB2D51",
"Y  c #B72256",
"T  c #8F2D60",
"R  c #8A3F64",
"E  c #993762",
"W  c #A52B62",
"Q  c #B23561",
"!  c #B43965",
"~  c #C4084A",
"^  c #D70F57",
"/  c #C31552",
"(  c #D8175C",
")  c #CD205C",
"_  c #C83C5E",
"`  c #CF1E63",
"'  c #DA1662",
"]  c #E61B6F",
"[  c #F31F79",
"{  c #CC2C62",
"}  c #D62E6B",
"|  c #C93B68",
" . c #DF3C6E",
".. c #C62874",
"X. c #D52B70",
"o. c #D33279",
"O. c #E12065",
"+. c #E5236E",
"@. c #E52075",
"#. c #EB2670",
"$. c #EA227B",
"%. c #F4227D",
"&. c #E7377D",
"*. c #85435C",
"=. c #8A4661",
"-. c #954567",
";. c #9E5671",
":. c #BE4169",
">. c #A04F71",
",. c #A75776",
"<. c #B95174",
"1. c #9B6078",
"2. c #D84877",
"3. c #E6C03E",
"4. c #F11D80",
"5. c #D43B81",
"6. c #E93286",
"7. c #A85885",
"8. c #B75C85",
"9. c #A36981",
"0. c #B06A8D",
"q. c #B86C98",
"w. c #B4719A",
"e. c #C24780",
"r. c #D75682",
"t. c #C75D9C",
"y. c #EF4B8E",
"u. c #E45D8D",
"i. c #FF4694",
"p. c #EA589A",
"a. c #FC589D",
"s. c #DD638A",
"d. c #CC6C92",
"f. c #DE6E9F",
"g. c #C07298",
"h. c #D87A9A",
"j. c #EC608D",
"k. c #E66699",
"l. c #F36697",
"z. c #E2709F",
"x. c #ED5FAA",
"c. c #CB7EA3",
"v. c #D17EA7",
"b. c #DF6EB0",
"n. c #EA66A3",
"m. c #EC6EA2",
"M. c #F96DA8",
"N. c #EA71A3",
"B. c #E975AA",
"V. c #F471A4",
"C. c #F77EA7",
"Z. c #F074AC",
"A. c #F27CAC",
"S. c #EC7AB1",
"D. c #FF76BF",
"F. c #FF77C2",
"G. c #D18DAE",
"H. c #DF8CB2",
"J. c #E58CAC",
"K. c #E989B5",
"L. c #F688B7",
"P. c #F58CBE",
"I. c #EB91BF",
"U. c #F994BB",
"Y. c #F48DC3",
"T. c #FB8DC6",
"R. c #FC8EC8",
"E. c #EC94C4",
"W. c #E698C2",
"Q. c #FC94C4",
"!. c #F798C6",
"~. c #FE95CC",
"^. c #FE9DCC",
"/. c #FF8DD0",
"(. c #F796D5",
"). c #FF92D3",
"_. c #F69CD5",
"`. c #FE9DD4",
"'. c #FE9EDC",
"]. c #F9A2CB",
"[. c #F5A5D3",
"{. c #FCA1D6",
"}. c #FCAAD4",
"|. c #F6A1DB",
" X c #FEA3DB",
".X c #F7A9D8",
"XX c #FEABDD",
"oX c #FDB2D9",
"OX c #FFBCDB",
"+X c #F79CE0",
"@X c #FFA3E2",
"#X c #FBA8E6",
"$X c #FEACE4",
"%X c #FFADE9",
"&X c #FFB2E6",
"*X c #FFB3EE",
"=X c #FFBCE8",
"-X c #FFC4E2",
";X c #FFC6EB",
":X c #FFC2F9",
/* pixels */
"3.3.3.3.3.3.3.3.3.3.3.3.3.3.3.3.3.3.3.3.3.3.3.3.3.3.3.3.3.3.3.3.3.3.3.3.3.3.3.3.3.3.3.3.3.3.3.3.3.3.3.3.3.3.3.3.3.3.3.3.3.3.3.3.",
"3.3.3.3.3.3.3.3.3.3.3.3.3.3.3.3.3.3.3.3.3.3.3.3.3.3.3.3.3.3.3.3.3.3.3.3.3.3.3.3.3.3.3.3.3.3.3.3.3.3.3.3.3.3.3.3.3.3.3.3.3.3.3.3.",
"3.3.3.3.3.3.3.3.3.3.3.3.3.3.3.3.3.3.3.3.3.3.3.3.3.3.3.3.3.3.3.3.3.3.3.3.3.3.3.3.3.3.3.3.3.3.3.3.3.3.3.3.3.3.3.3.3.3.3.3.3.3.3.3.",
"3.3.3.3.3.3.3.3.3.3.3.3.3.3.3.3.3.3.3.3.3.3.3.3.3.3.3.3.3.3.3.3.3.3.3.3.3.3.3.3.3.3.3.3.3.3.3.3.3.3.3.3.3.3.3.3.3.3.3.3.3.3.3.3.",
"3.3.3.3.3.3.3.3.3.3.3.3.3.3.3.3.3.3.3.3.3.3.3.3.3.3.3.3.3.3.3.3.3.3.3.3.3.3.3.3.3.3.3.3.3.3.3.3.3.3.3.3.3.3.3.3.3.3.3.3.3.3.3.3.",
"3.3.3.3.3.3.3.3.3.3.3.3.3.3.3.3.3.3.3.3.h h 3.3.3.3.3.3.3.3.3.3.3.3.3.3.3.3.3.3.3.3.3.3.3.3.3.3.3.3.3.3.3.3.3.3.3.3.3.3.3.3.3.3.",
"3.3.3.3.3.3.3.3.3.3.3.3.3.3.3.3.3.3.3.3.h h 3.3.3.3.3.3.3.3.3.3.3.3.3.3.3.3.3.3.3.3.3.3.3.3.3.3.3.3.3.3.3.3.3.3.3.3.3.3.3.3.3.3.",
"3.3.3.3.3.3.3.3.3.3.3.3.3.3.3.3.3.3.3.h h h h 3.3.3.3.3.3.3.3.3.3.3.3.3.3.3.3.3.3.3.3.3.3.3.3.3.3.3.3.3.h h 3.3.3.3.3.3.3.3.3.3.",
"3.3.3.3.3.3.3.3.3.3.3.3.3.3.3.3.3.3.3.h h h h 3.3.3.3.3.3.3.3.3.3.3.3.3.3.3.3.3.3.3.3.3.3.3.3.3.3.3.3.h h h 3.3.3.3.3.3.3.3.3.3.",
"3.3.3.3.3.3.3.3.3.3.3.3.3.3.3.3.3.3.h h h h h h 3.3.3.3.3.3.3.3.3.3.3.3.3.3.3.3.3.3.3.3.3.3.3.3.3.3.3.h h h 3.3.3.3.3.3.3.3.3.3.",
"3.3.3.3.3.3.3.3.3.3.3.3.3.3.3.3.3.3.h h h h h h     o . X O O O + + @ O     3.3.3.3.3.3.3.3.3.3.3.3.h h h h 3.3.3.3.3.3.3.3.3.3.",
"3.3.3.3.3.3.3.3.3.3.3.3.3.3.3.3.3.h h h h h h h     o X X X O O + + X X     3.3.3.3.3.3.3.3.3.3.3.3.h h h h 3.3.3.3.3.3.3.3.3.3.",
"3.3.3.3.3.3.3.3.3.3.3.3.3.3.3.3.3.h h h - ; : ; . . d d *.*.1.;.=.=.z k # # - o : : ; ; 3.3.3.3.3.h h h h h h 3.3.3.3.3.3.3.3.3.",
"3.3.3.3.3.3.3.3.3.3.3.3.3.3.3.3.h h h h ; ; : < X X e d *.*.;.;.=.-.k k # # @ @ : : ; ; h h h h h h h h h h h h h h h h h 3.3.3.",
"3.3.3.3.3.3.3.3.3.3.3.3.3.3.3.3.m m .   = = x x -.-.G.h.I.W.K.I.U.I.H.H.7.7.R R d s . X h h h h h h h h h h h h h h h h h 3.3.3.",
"3.3.3.3.3.3.h h h h h h h h h h m m   . * = x x -.-.v.c.I.I.I.I.I.I.H.H.,.8.R R d r . . h h h h h h h h h h h h h h h h 3.3.3.3.",
"3.3.3.3.3.3.h h h h h h h h h h X . g g g.1.U.U.`.^.$X$X$X&XXX$X&X&X$X$X).(.Y.Y.G.g.b z     h h h h h h h h h h h h 3.3.3.3.3.3.",
"3.3.3.3.3.3.3.h h h h h h h h h . X g g 0.g.U.U.`.^.$X$X$XXX&X$X&X&X@X#X'.+XE.(.h.G.b b     h h h h h h h h h h 3.3.3.3.3.3.3.3.",
"3.3.3.3.3.3.3.3.3.h h h h h . . l l U.U.oXoXU.U.S.L.~.~.^.{.P.P.T.Y.'.'.+X#X+X+X#X$X[.[.z z o o h h h h h h h h h 3.3.3.3.3.3.3.",
"3.3.3.3.3.3.3.3.3.3.3.h h h . . l l U.U.oXoXU.].L.L.~.^.`.^.P.Q.Y.T.+X+X#X+X+X+X$X$X[.[.z z     h h h h h h h h h 3.3.3.3.3.3.3.",
"3.3.3.3.3.3.3.3.3.3.3.3.3.h $ $ h.h.^.^.U.].<.8.J J Q.Q.K.L.P E T T '._.#X#X+X+X@X@X_.{.W.G.j j h h 3.3.h h h h h h 3.3.3.3.3.3.",
"3.3.3.3.3.3.3.3.3.3.3.3.h h $ $ h.h.^.].].Q.8.8.J J Q.Q.K.K.E T T T '._.#X#X+X+X@X@X|.{.H.H.d d 3.3.3.3.3.3.h h h h 3.3.3.3.3.3.",
"3.3.3.3.3.3.3.3.3.3.3.3.s s -.P ^.^.oX&X>.>.-.-.=XOXoXOXL L >.>.;X;X.X.X+X X+X@X_.'.[._.&XoXM M - - m m 3.3.3.3.h h 3.3.3.3.3.3.",
"3.3.3.3.3.3.3.3.3.3.3.h s s P P !.^.&XXX,.<.=.-.OXOXOXOXL L >.>.;X;X.X.X X X@X X'.'.`.[.oXoXM M - - m m 3.3.3.3.3.3.3.3.3.3.3.3.",
"3.3.3.3.3.3.3.3.3.3.3.h 5 5 d.d.XX X*X*Xk k 0 0 OX-X-X-Xr r k k oXoX{.}.{. X`.`. X X_._.XX$Xw.w.9 9   . 3.3.3.3.3.3.3.3.3.3.3.3.",
"3.3.3.3.3.3.3.3.3.3.h h 5 5 d.d.XX X=X=Xk k 0 0 -X-XOX-Xr r k k oXoX}.}.{.{._.). X X_._.XXXXw.w.9 9 . . 3.3.3.3.3.3.3.3.3.3.3.3.",
"3.3.3.3.3.3.3.3.3.3.h h g j H.H.|.|.:X:Xc M # @ 8.8.}.}.b x $ $ P E {.^.&X&X_._._.{.'. X'._. X Xc.w.= = X o 3.3.3.3.3.3.3.3.3.3.",
"3.3.3.3.3.3.3.3.3.h h h p g H.J.'.+X:X:XM v # & 8.8.}.}.b b $ $ E E ^.{.&X%X_._.'.`. X X_.'.{.{.g.g., =   . 3.3.3.3.3.3.3.3.3.3.",
"3.3.3.3.3.3.3.3.    . . =.=.{.}.#X+X*X*Xc c * & E.E.$X$Xk j = * f.f.~.).`.`.+X+X@X X_.`.(.(.`.`.!.!.7.;.& & 3.3.3.3.3.3.3.3.3.3.",
"3.3.3.3.3.3.3.3.    . . =.M }.{.@X+X*X*Xc c * & I.E.oXXXj j * * f.f.~.~.).`.'. X XXX'.'.(.(.`.`.!.!.;.7.& # 3.3.3.3.3.3.3.3.3.3.",
"3.3.3.3.3.3.1 1 & @ ;.1.W.W.{.{././.t.t., 4 , , XX$X&X&X, w , = Z.Z.5.5.....x.x.#X@X_.|._._.{._.@X@XW.W.e e < < 3.3.3.3.3.3.3.3.",
"3.3.3.3.3.3.1 1 @ # 1.1.W.W.{.{././.t.t.w , , , &XoX&X&Xw w , = S.Z.5.5.....x.x.@X#X|._.'.(._._.XX@XW.W.e e < : 3.3.3.3.3.3.3.3.",
"3.3.3.3.3.3.o o 9.1.].].].].Q.~.(.(.b.b.7.7.0.0..X#X#X.Xq.q.q.q.R.R.p.M.p.p.F.F.@X@X X X@X.X X X X'.{.}.w.G.> 9 3.3.3.3.3.3.3.3.",
"3.3.3.3.3.3.    9.1.].].].].~.Q./.+Xb.b.7.7.0.0.#X.X&X#Xw.q.q.q.R.R.x.x.p.p.F.F.+X X{. X@X@X X X X X{.XXG.G.9 = 3.3.3.3.3.3.3.3.",
"3.3.3.3.3.3.: < oXoX^.^.K.L.T.Q.+X+X#X*X*X*X$X&X#X#X#X#X(.(.`.^.@X X$X$X%X%X+X+X X'.`.`.Q.R.`.~.`.`.XX{.=X-Xb z 3.3.3.3.3.3.3.3.",
"3.3.3.3.3.3.< < }.}.^.^.K.S.Q.Q.+X+X#X#X*X*X%X%X#X#X#X#X(.(.`.`.XX X$X$X%X%X@X#X'. X`.`.R.R.^.`.`.`.}. X-X=Xb z 3.3.3.3.3.3.3.3.",
"3.3.3.3.3.3.& & q.g.z.z.A.C.U.T.).`.+X+X'.+X'. X8.e.'.'.+X X'. XXXXX@X.X|.|. X{.`.'.T.T.B.B.A.A.^.^.].].J.J.q 0 3.3.3.3.3.3.3.3.",
"3.3.3.3.3.3.& & q.g.B.z.C.L.U.U.`.`. X+X+X'.'.+Xe.e. X+X'. X+X'.@X$XXX.X|.[. X X X{.T.T.m.B.A.A.`.~.].].H.H.s q 3.3.3.3.3.3.3.3.",
"3.3.3.3.3.3.o . q f <.<.r.r.u.u.{.{.@X@X'.'.'. X X+X'.+X'.+X`.'.'.'. X'.|.|.{.{.T.T.B.S.m.m.C.C.L.K.J.J.,.,.6 % 3.3.3.3.3.3.3.3.",
"3.3.3.3.3.3.. o p g <.<.r.r.u.k.{.{.XX@X'.'.+X+X'.'.'. X'.+X'.'.'.'.|.{.|..X{.{.T.T.B.Z.z.N.C.J.K.U.J.J.,.,.2 % 3.3.3.3.3.3.3.3.",
"3.3.3.3.3.3.3.3.+ + f u U U | | L.L.{.`.#X@X'.'.@X'.'.'.).`.$X$X X X#X#X'.{.Y.Y.B.S.N.V.l.k.:.:.H H p p 2 2 3.3.3.3.3.3.3.3.3.3.",
"3.3.3.h h h h h + O u u U U | | L.L.`.`.@X@X'. X+X+X'. X~.~.$X$X'.'.@X@X'.(.Y.Y.B.B.Z.V.l.l.:.:.H H p p 2 2 3.3.3.3.3.3.3.3.3.3.",
"3.3.3.h h h h h h h 6 6 7 7 I I u.s.U.U.R.R.).).#X@X@X+X{.`.!.!.^.Q.P.P.L.P.A.S.z.m.l.l. . .S S 5 5 + + 3.3.3.3.3.3.3.3.3.3.3.3.",
"3.3.3.3.h h h h h h 6 > 7 7 I I j.s.Q.Q.R.R./.).@X@X@X#X`.{.E.!.Q.Q.L.P.K.L.S.A.l.l.l.a. . .S S 5 5 O O 3.3.3.3.3.3.3.3.3.3.3.3.",
"3.3.3.3.3.3.h h h h z M y y Y Y 2.2.j.j.k.f.B.S.T.T.T.R.P.P.K.L.z.z.N.m.m.m.M.n.a.l.&. .~ ~ { { K K 4 4 3.3.3.3.3.3.3.3.3.3.3.3.",
"3.3.3.3.3.3.h h h h z z 7 y Y Y 2.2.u.p.k.f.S.S.T.T.T.T.P.P.K.K.z.z.m.B.m.m.M.M.a.a.&.&.~ ~ { { K I 4 w h h h h h h h h 3.3.3.3.",
"3.3.3.3.3.h h h > > K K o.o.$.$.' @./ / 2.2.C.C.N.V.N.Z.N.N.m.z.m.m.M.M.y.y.6.$.$.$.$.$.( ' F.D.+X'.W W > 4 h h h h h h 3.3.3.3.",
"3.3.3.3.3.h h h > > H K 5.o.$.$.+.@./ / 2.2.C.C.l.m.Z.Z.m.B.k.k.m.m.M.M.y.y.&.6.$.6.$.$.' ` D.D.+X+XW W 4 4 h h h h 3.3.3.3.3.3.",
"3.3.3.3.h h n n 3 3 Q Q 6.6.4.4.[ [ ~ ~ D D _ _ u.j.M.l.L.L.L.U.L.U.j.p.` { ' ' [ [ %.%.+.+.i.i.i.a.o.o.i i d d 3.3.3.3.3.3.3.3.",
"3.3.3.3.h h n n 3 3 ! ! 6.6.4.4.[ [ ~ ~ D D _ _ j.j.V.M.L.L.L.U.L.P.p.k.` ' ^ ( [ %.%.%.] ] i.i.a.a.o.o.i i j g 3.3.3.3.3.3.3.3.",
"3.3.3.3.h h   o f f U U X.X.@.@.] ] ( ^ G G A A { | r.r.E P L L P P ! ! ( ) ^ ^ #.#.+.+.O.O.O.O.( ( X.} ! Q 3 3 3.3.3.3.3.3.3.3.",
"3.3.3.3.3.3.. o f f U U X.X.@.@.] ] ( ( G G A A | | r.r.E P L P P K ! ! ) ) ^ ^ #.#.+.+.O.O.' } ( ( } } ! ! 3 3 3.3.3.3.3.3.3.3.",
"3.3.3.3.3.3.1 1 4 4 7 7 i B F F F F Z F N N y N N B t t 6 6 a a a a 5 t S Z V C C V V V V V V C C C Z B i i q q 3.3.3.3.3.3.3.3.",
"3.3.3.3.3.3.1 1 4 4 7 7 B B F B F F C C N N N y y B t u 6 6 a a a 6 8 8 Z Z C C V V V V V V C V C C Z V u y q q 3.3.3.3.3.3.3.3.",
"3.3.3.3.3.3.3.3.o o   . X X . o O O X O O + X O . . . X 3.3.h h h h o o O O O O X X X X X O X O O O X X X X 3.3.3.3.3.3.3.3.3.3.",
"3.3.3.3.3.3.3.3.o . . . o . X o X O O O O O O X . X X . 3.h h h h h @ o O O O + X X X X O X O @ O O X O X X 3.3.3.3.3.3.3.3.3.3.",
"3.3.3.3.3.3.3.3.3.3.3.3.3.3.3.3.3.3.3.3.3.3.3.3.3.3.3.3.h h h h h h 3.3.3.3.3.3.3.3.3.3.3.h h h h h h h h 3.3.3.3.3.3.3.3.3.3.3.",
"3.3.3.3.3.3.3.3.3.3.3.3.3.3.3.3.3.3.3.3.3.3.3.3.3.3.3.3.h h h 3.3.3.3.3.3.3.3.3.3.3.3.3.3.3.3.h h h h h h 3.3.3.3.3.3.3.3.3.3.3.",
"3.3.3.3.3.3.3.3.3.3.3.3.3.3.3.3.3.3.3.3.3.3.3.3.3.3.3.3.h h 3.3.3.3.3.3.3.3.3.3.3.3.3.3.3.3.3.3.3.h h h h 3.3.3.3.3.3.3.3.3.3.3.",
"3.3.3.3.3.3.3.3.3.3.3.3.3.3.3.3.3.3.3.3.3.3.3.3.3.3.3.3.3.3.3.3.3.3.3.3.3.3.3.3.3.3.3.3.3.3.3.3.3.3.3.3.3.3.3.3.3.3.3.3.3.3.3.3.",
"3.3.3.3.3.3.3.3.3.3.3.3.3.3.3.3.3.3.3.3.3.3.3.3.3.3.3.3.3.3.3.3.3.3.3.3.3.3.3.3.3.3.3.3.3.3.3.3.3.3.3.3.3.3.3.3.3.3.3.3.3.3.3.3.",
"3.3.3.3.3.3.3.3.3.3.3.3.3.3.3.3.3.3.3.3.3.3.3.3.3.3.3.3.3.3.3.3.3.3.3.3.3.3.3.3.3.3.3.3.3.3.3.3.3.3.3.3.3.3.3.3.3.3.3.3.3.3.3.3.",
"3.3.3.3.3.3.3.3.3.3.3.3.3.3.3.3.3.3.3.3.3.3.3.3.3.3.3.3.3.3.3.3.3.3.3.3.3.3.3.3.3.3.3.3.3.3.3.3.3.3.3.3.3.3.3.3.3.3.3.3.3.3.3.3.",
"3.3.3.3.3.3.3.3.3.3.3.3.3.3.3.3.3.3.3.3.3.3.3.3.3.3.3.3.3.3.3.3.3.3.3.3.3.3.3.3.3.3.3.3.3.3.3.3.3.3.3.3.3.3.3.3.3.3.3.3.3.3.3.3."
};
