/* XPM */
static char *result[] = {
/* columns rows colors chars-per-pixel */
"64 64 191 2 ",
"   c #140607",
".  c #1B0002",
"X  c #1C0B0C",
"o  c #1B0C12",
"O  c #240003",
"+  c #2A0205",
"@  c #2C000C",
"#  c #220E0E",
"$  c #33020F",
"%  c #3C090E",
"&  c #360015",
"*  c #3C0514",
"=  c #271919",
"-  c #3A0021",
";  c #381726",
":  c #332525",
">  c #3A2527",
",  c #43000C",
"<  c #4B080A",
"1  c #50000F",
"2  c #420114",
"3  c #440A17",
"4  c #44031B",
"5  c #4D0419",
"6  c #51071D",
"7  c #78020C",
"8  c #7E0112",
"9  c #7F0E19",
"0  c #611617",
"q  c #4E0B22",
"w  c #560624",
"e  c #5A0C25",
"r  c #56182B",
"t  c #4F0430",
"y  c #461431",
"u  c #591737",
"i  c #6F1B27",
"p  c #631B31",
"a  c #781B3B",
"s  c #502533",
"d  c #59323D",
"f  c #7E272A",
"g  c #662A3A",
"h  c #71273A",
"j  c #736122",
"k  c #581A41",
"l  c #632843",
"z  c #66344B",
"x  c #77394D",
"c  c #653553",
"v  c #4C4545",
"b  c #584C4E",
"n  c #7D4455",
"m  c #85001A",
"M  c #930022",
"N  c #8E162E",
"B  c #97093A",
"V  c #861D32",
"C  c #8C1F3B",
"Z  c #9F1B36",
"A  c #AE0E3F",
"S  c #B30A36",
"D  c #A3133C",
"F  c #852837",
"G  c #94213F",
"H  c #990E46",
"J  c #9F1E4F",
"K  c #BF0844",
"L  c #AA1B46",
"P  c #A11B49",
"I  c #B9194A",
"U  c #A61A55",
"Y  c #AA1C5A",
"T  c #8A3753",
"R  c #963D5A",
"E  c #A12044",
"W  c #A82258",
"Q  c #B32B5B",
"!  c #BA236D",
"~  c #BD3564",
"^  c #C80553",
"/  c #D80857",
"(  c #CA1850",
")  c #C6235A",
"_  c #C3365A",
"`  c #DE1E66",
"'  c #CD1A70",
"]  c #DA236A",
"[  c #CB3964",
"{  c #D52574",
"}  c #C8317B",
"|  c #EC267B",
" . c #E9287E",
".. c #FA2B7C",
"X. c #874454",
"o. c #844D5E",
"O. c #934459",
"+. c #9B4B63",
"@. c #865163",
"#. c #9F5973",
"$. c #AA4162",
"%. c #AE566B",
"&. c #A1417C",
"*. c #B24B7B",
"=. c #A3587A",
"-. c #B15672",
";. c #D14F6B",
":. c #CA4C73",
">. c #D64974",
",. c #CA5077",
"<. c #D45378",
"1. c #E15574",
"2. c #C56A79",
"3. c #E6C03E",
"4. c #AF4D87",
"5. c #BB538F",
"6. c #A66A88",
"7. c #BF6D86",
"8. c #B5728B",
"9. c #A06F91",
"0. c #AF7097",
"q. c #BD79A0",
"w. c #D55B80",
"e. c #D95D8A",
"r. c #E55D88",
"t. c #FF4E9C",
"y. c #CA6B8A",
"u. c #D96794",
"i. c #C87896",
"p. c #D4799C",
"a. c #E7638D",
"s. c #E76994",
"d. c #F06290",
"f. c #E57A99",
"g. c #F1719C",
"h. c #DF77AA",
"j. c #DA74B4",
"k. c #EC66AC",
"l. c #EA7AA7",
"z. c #F07CA5",
"x. c #FF6EB8",
"c. c #EF7CB0",
"v. c #F27DB4",
"b. c #FF73BA",
"n. c #E5819E",
"m. c #DA85A4",
"M. c #D784B0",
"N. c #DD92B0",
"B. c #EA87A8",
"V. c #F585AB",
"C. c #E490AC",
"Z. c #EE85B4",
"A. c #E58CB5",
"S. c #F484B3",
"D. c #F686BA",
"F. c #F797B8",
"G. c #FE94BD",
"H. c #F9A4BB",
"J. c #D69BC5",
"K. c #E98BC2",
"L. c #FF87C2",
"P. c #FF8DC3",
"I. c #FF8DCD",
"U. c #E499C9",
"Y. c #FF95C2",
"T. c #FF9AC1",
"R. c #FE95CB",
"E. c #F699CB",
"W. c #FE9BCC",
"Q. c #FF8BD6",
"!. c #ED98D0",
"~. c #FF95D3",
"^. c #F698D5",
"/. c #FD9BD2",
"(. c #F49DDA",
"). c #FE9DDC",
"_. c #FBAAC7",
"`. c #FFA3CE",
"'. c #FFA4D1",
"]. c #FFA3DC",
"[. c #F8A8DA",
"{. c #FDABDC",
"}. c #FC9DE1",
"|. c #FDA2E2",
" X c #FFADE4",
".X c #FFA9EA",
"XX c #FEB5E9",
"oX c #FFBEE9",
"OX c #FFB4F3",
"+X c #FFC4F8",
"@X c #FFE0FD",
/* pixels */
"3.3.3.3.3.3.3.3.3.3.3.3.3.3.3.3.3.3.3.3.3.3.3.3.3.3.3.3.3.3.3.3.3.3.3.3.3.3.3.3.3.3.3.3.3.3.3.3.3.3.3.3.3.3.3.3.3.3.3.3.3.3.3.3.",
"3.3.3.3.3.3.3.3.3.3.3.3.3.3.3.3.3.3.3.3.3.3.3.3.3.3.3.3.3.3.3.3.3.3.3.3.3.3.3.3.3.3.3.3.3.3.3.3.3.3.3.3.3.3.3.3.3.3.3.3.3.3.3.3.",
"3.3.3.3.3.3.3.3.3.3.3.3.3.3.3.3.3.3.3.3.3.3.3.3.3.3.3.3.3.3.3.3.3.3.3.3.3.3.3.3.3.3.3.3.3.3.3.3.3.3.3.3.3.3.3.3.3.3.3.3.3.3.3.3.",
"3.3.3.3.3.3.3.3.3.3.3.3.3.3.3.3.3.3.3.3.3.3.3.3.3.3.3.3.3.3.3.3.3.3.3.3.3.3.3.3.3.3.3.3.3.3.3.3.3.3.3.3.3.3.3.3.3.3.3.3.3.3.3.3.",
"3.3.3.3.3.3.3.3.3.3.3.3.3.3.3.3.3.3.3.3.3.3.3.3.3.3.3.3.3.3.3.3.3.3.3.3.3.3.3.3.3.3.3.3.3.3.3.3.3.3.3.3.3.3.3.3.3.3.3.3.3.3.3.3.",
"3.3.3.3.3.3.3.3.3.3.3.3.3.3.3.3.3.3.3.3.j j 3.3.3.3.3.3.3.3.3.3.3.3.3.3.3.3.3.3.3.3.3.3.3.3.3.3.3.3.3.3.3.3.3.3.3.3.3.3.3.3.3.3.",
"3.3.3.3.3.3.3.3.3.3.3.3.3.3.3.3.3.3.3.3.j j 3.3.3.3.3.3.3.3.3.3.3.3.3.3.3.3.3.3.3.3.3.3.3.3.3.3.3.3.3.3.3.3.3.3.3.3.3.3.3.3.3.3.",
"3.3.3.3.3.3.3.3.3.3.3.3.3.3.3.3.3.3.3.j j j j 3.3.3.3.3.3.3.3.3.3.3.3.3.3.3.3.3.3.3.3.3.3.3.3.3.3.3.3.3.j j 3.3.3.3.3.3.3.3.3.3.",
"3.3.3.3.3.3.3.3.3.3.3.3.3.3.3.3.3.3.3.j j j j 3.3.3.3.3.3.3.3.3.3.3.3.3.3.3.3.3.3.3.3.3.3.3.3.3.3.3.3.j j j 3.3.3.3.3.3.3.3.3.3.",
"3.3.3.3.3.3.3.3.3.3.3.3.3.3.3.3.3.3.j j j j j j 3.3.3.3.3.3.3.3.3.3.3.3.3.3.3.3.3.3.3.3.3.3.3.3.3.3.3.j j j 3.3.3.3.3.3.3.3.3.3.",
"3.3.3.3.3.3.3.3.3.3.3.3.3.3.3.3.3.3.j j j j j j 3.3.3.3.3.3.3.3.3.3.3.3.3.3.3.3.3.3.3.3.3.3.3.3.3.3.j j j j 3.3.3.3.3.3.3.3.3.3.",
"3.3.3.3.3.3.3.3.3.3.3.3.3.3.3.3.3.j j j j j j j 3.3.3.3.3.3.3.3.3.3.3.3.3.3.3.3.3.3.3.3.3.3.3.3.3.3.j j j j 3.3.3.3.3.3.3.3.3.3.",
"3.3.3.3.3.3.3.3.3.3.3.3.3.3.3.3.3.j j j j j j j # X # # # # o X # # o o X o X o X # X X X X 3.3.3.j j j j j j 3.3.3.3.3.3.3.3.3.",
"3.3.3.3.3.3.3.3.3.3.3.3.3.3.3.3.j j j j j j j j X X # # # o X o o # o o o o X   # # o o   X j j j j j j j j j j j j j j j 3.3.3.",
"3.3.3.3.3.3.3.3.3.3.3.3.3.3.3.3.j j j j v b x z +.+.+.$.#.#.8.8.q.q.0.0.9.9.9.9.#.#.x x & $ > : v b b b j j j j j j j j j 3.3.3.",
"3.3.3.3.3.3.j j j j j j j j j j j j j j b d b z +.+.+.O.#.#.8.8.q.q.0.0.9.9.9.9.6.#.x x $ $ > : v b b b j j j j j j j j 3.3.3.3.",
"3.3.3.3.3.3.j j j j j j j j j j j j % ; s s 0 e R R F.F.H.H.m.m.M.M.XXoX+XoXXXXXE.E.A.A.2.6.@.o.v s     j j j j j j 3.3.3.3.3.3.",
"3.3.3.3.3.3.3.j j j j j j j j j j j ; ; r r e e R O.F.F._.H.m.m.M.M.XX+XoX+XXXXXE.E.A.C.6.=.@.o.s s .   j j j j 3.3.3.3.3.3.3.3.",
"3.3.3.3.3.3.3.3.3.j j j j j j j   @ 8.8.7.7.a a X.T F.H.2.2.F T #.#.U.[.(.(.(.[././.].{.{.{.oXoXN.N.g g O . j j j 3.3.3.3.3.3.3.",
"3.3.3.3.3.3.3.3.3.3.3.j j j j j O O 8.8.7.y.a h T T H.H.2.2.F F #.#.U.J.(.[.(.(././.].{.{.XXoXoXN.N.p g . O j j j 3.3.3.3.3.3.3.",
"3.3.3.3.3.3.3.3.3.3.3.3.3.j     s u [._.T T T R @X@X_.H.i i %.%.@X@X[.[.(.!. X|.].).).(.].|.].].'.'.C.C.d g . . j j 3.3.3.3.3.3.",
"3.3.3.3.3.3.3.3.3.3.3.3.j j     u u _.'.T T T R @X@X_._.i i %.%.@X@X{.[.(.(..X.X(.).).).|.|.(.].`.'.C.C.d g     j j 3.3.3.3.3.3.",
"3.3.3.3.3.3.3.3.3.3.3.3.j j ; ; J.J.oXoXx z 2 * y.y.G.G.g r q q i.i._.!..X|.(.(.}.|.|.}.}.].).).].].`.'.m.i.% < j j 3.3.3.3.3.3.",
"3.3.3.3.3.3.3.3.3.3.3.j j j ; ; J.J.XXXXc c * 4 y.y._.G.p p q q i.y.E.E.|.|.(.(.|.|.|.}.|.}.].).].].`.'.m.2.% ; 3.3.3.3.3.3.3.3.",
"3.3.3.3.3.3.3.3.3.3.3.j j j z c XXXX+X+Xc c @ @ *.*.R.Y.l l & & &.*.)./.OXOX|.|.}.|..X.X}.}.).).).).W.W.G.H.O.O.d d 3.3.3.3.3.3.",
"3.3.3.3.3.3.3.3.3.3.j j j j z d XXXX+X+Xc c @ @ *.*.R.Y.l l @ @ *.4.).].OXOX|.|.|.|..X.X}.}.).).).).E.W.H.H.O.O.d d 3.3.3.3.3.3.",
"3.3.3.3.3.3.3.3.3.3.j j & & 4.#.).).[.(.t u & & h.h.[.{.y y - - c.c.x.b.x.x.Q.Q.).}.(.|.).}.).}.~.).R.R.G.T.y.y.r q   X 3.3.3.3.",
"3.3.3.3.3.3.3.3.3.j j j & & #.4.).).^.^.u k & & h.l.{.{.y y - - k.c.x.x.x.x.Q.Q.}.}.|.).).).).).~.).W.W.T.T.y.y.q r X X 3.3.3.3.",
"3.3.3.3.3.3.3.3.3.j j j u r m.B.~.~.5.5.t t u u K.D.{.].u k k k b.v.} } ! ! k.k.|.|.].].).).).}.].)./.W.G.V.n.n.h g > > 3.3.3.3.",
"3.3.3.3.3.3.3.3.3.j j j p p B.C./.).5.5.t t u u K.K.'.].k u k k v.v.} } ! ! k.k.|.|.]./.).).|.].).)././.G.G.n.n.g h > > 3.3.3.3.",
"3.3.3.3.3.3.3.3.3.3.3.3.r r h.p.'.'././.K.K.!.E.].].].'.J.K.!.!.Q.~.I.I.L.L.R.R.E.E.{.].].].|.{.{.|./.W.g.V.F.B.o.n > > 3.3.3.3.",
"3.3.3.3.3.3.3.3.3.3.3.3.r p p.p./.'./.^.A.K.!.E.].].].].U.U.!.!.~.~.I.I.L.L.R.I.Y.R.].].].|.|.|.|.]././.V.n.B.V.n n : : 3.3.3.3.",
"3.3.3.3.3.3.3.3.3.3.3.3.x h F.Z.`.`.{.].XXXXK.K.4.4.^.^..XOX.X.X}.|.].).|.|.R.R.Z.Z.W.W.].].|.].|.]./.W.e.u.B.V.X.n : : 3.3.3.3.",
"3.3.3.3.3.3.3.3.3.3.3.3.h h C.F.`.`.].].OX.XK.K.4.4.^.^.OXOX.X.X|.}.|.].].{.R.R.Z.Z.W.W.].].|.|.].|.W.~.e.e.B.B.n n : : 3.3.3.3.",
"3.3.3.3.3.3.3.3.3.3.3.3.h h B.B.T.`.W.R.].).j.j.&.&.^.^.}.|.}.}.).^.}.).|.].S.S.u.u.D.D.~.~.}.).).}.P.P.$.[ f.f.o.o.: : 3.3.3.3.",
"3.3.3.3.3.3.3.3.3.3.3.3.h i B.V.`.T.R.R.].|.j.j.&.&.(.(.(.|.}.}.).).).].{.{.S.Z.u.s.D.v.~.~.).}.}.}.P.L.~ ~ f.f.n o.: : 3.3.3.3.",
"3.3.3.3.3.3.3.3.3.3.j j , 2 %.%.G.G.'./.)./.].]..X.X].).}.).}.|.].].).'.R.P.e.e.:.:.g.g.v.D.L.L.L.L.u.a.U H f.f.@.@.= = 3.3.3.3.",
"3.3.3.3.3.3.3.3.3.3.j j , 3 %.%.G.G./.'.).).].|..X.X|.].).}.|.|.].]./.~.G.P.e.e.;.;.g.g.S.D.L.D.L.D.s.s.P P f.f.n @.= = 3.3.3.3.",
"3.3.3.3.3.3.3.3.3.j j j O O X.X.l.f.G.G.W.W.].).].].).).).'././.Y.Y.z.V.Q [ A D _ ) 1.1.;.:.,.,.r.1.>.>.E E y.y.n n # = 3.3.3.3.",
"3.3.3.3.3.3.3.3.3.j j j + + X.o.p.l.G.G.R.W.'.'.].].].).'.).'.W.Y.G.v.v._ Q A D _ _ 1.1.:.:.,.,.r.r.>.>.E E y.y.n b = # 3.3.3.3.",
"3.3.3.3.3.3.3.3.j j j j j j * * -.-.V.z.V.S.S.v.c.c.S.v.Z.Z.z.B.<.w.P D I I ( ( S S S S {.{.d.d.A A L L F G e e 3.3.3.3.3.3.3.3.",
"3.3.3.j j j j j j j j j j j % * -.-.V.V.S.S.v.v.l.V.c.Z.Z.c.z.z.w.w.D D ( I ( ( S S S S {.|.d.d.A A K I C F e e 3.3.3.3.3.3.3.3.",
"3.3.3.j j j j j j j j j j j j j 6 6 $.$.s.s.a.a.a.a.a.s.s.f.<.<.D D M M ` ` ..../ / ^ / Q.Q.t.t.K K A B w w 3.3.3.3.3.3.3.3.3.3.",
"3.3.3.3.j j j j j j j j j j j j 6 6 $.$.g.d.r.d.a.a.a.2.s.s.<.<.D D M M ` ` ..../ / ^ ^ Q.Q.t.t.^ K H B q w 3.3.3.3.3.3.3.3.3.3.",
"3.3.3.3.3.3.j j j j j j j j j j 1 1 N B _ _ [ [ [ _ _ _ ;.;.Z Z 8 8 L I ] ] | | | | |  .' ' { { { { H H O O 3.3.3.3.3.3.3.3.3.3.",
"3.3.3.3.3.3.j j j j j j j j j j 1 1 B N _ _ [ _ [ _ _ ;.;.;.Z Z 8 8 I L ] ] | | | | | | ' ' { { { { H H O O j j j j j j 3.3.3.3.",
"3.3.3.3.3.j j j j j j j j j 4 4 [ [ K K M M m M m 7 7 m 7 m 7 7 9 9 N N P P U Y Y U Y Y Y U W W U U a a O O j j j j j j 3.3.3.3.",
"3.3.3.3.3.j j j j j j j j j q 4 } [ K K M M m m m m m 7 m 7 7 7 9 9 N N P P Y Y U U Y Y U U W W J U a a . O j j j j 3.3.3.3.3.3.",
"3.3.3.3.j j j j j j j 3.j j & * Q Q ) ) L L G G V C V V F F V f 0 0 < < 5 5 5 5 , * 2 2 , , , , & , + + j j j 3.3.3.3.3.3.3.3.3.",
"3.3.3.3.j j j j j 3.3.3.3.j * * Q Q ) ) P E G J C C V V V F f f 0 0 < < 5 5 5 5 * , 5 2 , , 1 1 * , + + j 3.3.3.3.3.3.3.3.3.3.3.",
"3.3.3.3.j j j 3.3.3.3.3.3.3.3.j 4 2 w e e w w 5 4 4 , 2 3 3 % % + + j j j j j j j j j j j j j j j j 3.3.3.3.3.3.3.3.3.3.3.3.3.3.",
"3.3.3.3.3.3.3.3.3.3.3.3.3.3.3.3.2 2 w 6 e e w q 4 4 2 2 3 3 % 3 # + j j j j j j j j j j j j j j j j 3.3.3.3.3.3.3.3.3.3.3.3.3.3.",
"3.3.3.3.3.3.3.3.3.3.3.3.3.3.3.3.3.3.3.3.3.3.3.3.3.3.3.3.3.3.3.j j j j j j j j j j j j j j j j j j j j 3.3.3.3.3.3.3.3.3.3.3.3.3.",
"3.3.3.3.3.3.3.3.3.3.3.3.3.3.3.3.3.3.3.3.3.3.3.3.3.3.3.3.3.3.j j j j j j j j j j j j j j j j j j j j j 3.3.3.3.3.3.3.3.3.3.3.3.3.",
"3.3.3.3.3.3.3.3.3.3.3.3.3.3.3.3.3.3.3.3.3.3.3.3.3.3.3.3.3.3.j j j j j j j j j 3.3.j j j j j j j j j j j 3.3.3.3.3.3.3.3.3.3.3.3.",
"3.3.3.3.3.3.3.3.3.3.3.3.3.3.3.3.3.3.3.3.3.3.3.3.3.3.3.3.3.j j j j j j j 3.3.3.3.3.3.3.j j j j j j j j j 3.3.3.3.3.3.3.3.3.3.3.3.",
"3.3.3.3.3.3.3.3.3.3.3.3.3.3.3.3.3.3.3.3.3.3.3.3.3.3.3.3.j j j j j j 3.3.3.3.3.3.3.3.3.3.3.j j j j j j j j 3.3.3.3.3.3.3.3.3.3.3.",
"3.3.3.3.3.3.3.3.3.3.3.3.3.3.3.3.3.3.3.3.3.3.3.3.3.3.3.3.j j j 3.3.3.3.3.3.3.3.3.3.3.3.3.3.3.3.j j j j j j 3.3.3.3.3.3.3.3.3.3.3.",
"3.3.3.3.3.3.3.3.3.3.3.3.3.3.3.3.3.3.3.3.3.3.3.3.3.3.3.3.j j 3.3.3.3.3.3.3.3.3.3.3.3.3.3.3.3.3.3.3.j j j j 3.3.3.3.3.3.3.3.3.3.3.",
"3.3.3.3.3.3.3.3.3.3.3.3.3.3.3.3.3.3.3.3.3.3.3.3.3.3.3.3.3.3.3.3.3.3.3.3.3.3.3.3.3.3.3.3.3.3.3.3.3.3.3.3.3.3.3.3.3.3.3.3.3.3.3.3.",
"3.3.3.3.3.3.3.3.3.3.3.3.3.3.3.3.3.3.3.3.3.3.3.3.3.3.3.3.3.3.3.3.3.3.3.3.3.3.3.3.3.3.3.3.3.3.3.3.3.3.3.3.3.3.3.3.3.3.3.3.3.3.3.3.",
"3.3.3.3.3.3.3.3.3.3.3.3.3.3.3.3.3.3.3.3.3.3.3.3.3.3.3.3.3.3.3.3.3.3.3.3.3.3.3.3.3.3.3.3.3.3.3.3.3.3.3.3.3.3.3.3.3.3.3.3.3.3.3.3.",
"3.3.3.3.3.3.3.3.3.3.3.3.3.3.3.3.3.3.3.3.3.3.3.3.3.3.3.3.3.3.3.3.3.3.3.3.3.3.3.3.3.3.3.3.3.3.3.3.3.3.3.3.3.3.3.3.3.3.3.3.3.3.3.3.",
"3.3.3.3.3.3.3.3.3.3.3.3.3.3.3.3.3.3.3.3.3.3.3.3.3.3.3.3.3.3.3.3.3.3.3.3.3.3.3.3.3.3.3.3.3.3.3.3.3.3.3.3.3.3.3.3.3.3.3.3.3.3.3.3."
};
