/* XPM */
static char *result[] = {
/* columns rows colors chars-per-pixel */
"64 64 194 2 ",
"   c #080003",
".  c #150001",
"X  c #190105",
"o  c #1A040B",
"O  c #170C0C",
"+  c #1F0010",
"@  c #1C1111",
"#  c #220101",
"$  c #22000D",
"%  c #2B010B",
"&  c #27080B",
"*  c #39020E",
"=  c #3A080D",
"-  c #250015",
";  c #2B0112",
":  c #370616",
">  c #3B0015",
",  c #221314",
"<  c #23181B",
"1  c #2B1A1B",
"2  c #2F2525",
"3  c #312526",
"4  c #3B2929",
"5  c #42000D",
"6  c #4B0216",
"7  c #450619",
"8  c #490419",
"9  c #57031D",
"0  c #4E1B1B",
"q  c #610B1A",
"w  c #78001C",
"e  c #63111D",
"r  c #430D21",
"t  c #4A0F24",
"y  c #4F172C",
"u  c #4B1B2E",
"i  c #551022",
"p  c #521A2F",
"a  c #4C1B3A",
"s  c #690D21",
"d  c #730526",
"f  c #7D0125",
"g  c #661934",
"h  c #78173C",
"j  c #43202C",
"k  c #4D2635",
"l  c #51253A",
"z  c #44393B",
"x  c #736122",
"c  c #582B43",
"v  c #642643",
"b  c #732F46",
"n  c #6C3249",
"m  c #6F2A56",
"M  c #742C5B",
"N  c #663452",
"B  c #7E3A53",
"V  c #614550",
"C  c #7A4359",
"Z  c #734562",
"A  c #87001F",
"S  c #830424",
"D  c #8C0026",
"F  c #8F0029",
"G  c #92002C",
"H  c #970032",
"J  c #881939",
"K  c #941839",
"L  c #A50439",
"P  c #B9003D",
"I  c #A4173E",
"U  c #87203B",
"Y  c #9E0A41",
"T  c #851A45",
"R  c #981D42",
"E  c #AB0B43",
"W  c #B30A43",
"Q  c #BB084C",
"!  c #A91B4A",
"~  c #B71042",
"^  c #BA164D",
"/  c #BE1652",
"(  c #802641",
")  c #9F2240",
"_  c #873544",
"`  c #893A54",
"'  c #853C5A",
"]  c #923B58",
"[  c #A2294F",
"{  c #AA355A",
"}  c #9C3863",
"|  c #A63C68",
" . c #CB1A58",
".. c #D41357",
"X. c #D51D65",
"o. c #DF1B68",
"O. c #ED1E6F",
"+. c #E71D71",
"@. c #F41673",
"#. c #F21B77",
"$. c #F61C7D",
"%. c #D62269",
"&. c #C7316A",
"*. c #D93974",
"=. c #E8236D",
"-. c #E12270",
";. c #F92677",
":. c #F1247D",
">. c #82455D",
",. c #A94C5C",
"<. c #99476C",
"1. c #94526F",
"2. c #9B4F72",
"3. c #885374",
"4. c #905E78",
"5. c #A74973",
"6. c #B64D76",
"7. c #A95877",
"8. c #B55279",
"9. c #AF6279",
"0. c #C85076",
"q. c #D25171",
"w. c #DD677F",
"e. c #E6C03E",
"r. c #CB3C8A",
"t. c #FA2080",
"y. c #F83084",
"u. c #AF5F83",
"i. c #B25482",
"p. c #9E6883",
"a. c #B56985",
"s. c #BB6D90",
"d. c #C84883",
"f. c #C65584",
"g. c #D5588C",
"h. c #D85799",
"j. c #C3648B",
"k. c #CB648D",
"l. c #D76889",
"z. c #CB7697",
"x. c #CF709B",
"c. c #D7789C",
"v. c #E56E8F",
"b. c #F2608C",
"n. c #E96493",
"m. c #F16391",
"M. c #F77499",
"N. c #CE6CA4",
"B. c #DC76A3",
"V. c #DA7CA2",
"C. c #E576A6",
"Z. c #F276A7",
"A. c #E764B2",
"S. c #E872B7",
"D. c #DB84B3",
"F. c #E482A8",
"G. c #FF84AB",
"H. c #E88EB5",
"J. c #F184B4",
"K. c #FC86B5",
"L. c #F781BA",
"P. c #FF8DBB",
"I. c #E990BA",
"U. c #F894BD",
"Y. c #E989C5",
"T. c #F88AC2",
"R. c #FF8DC5",
"E. c #EF99CC",
"W. c #FE92C5",
"Q. c #FE9DC6",
"!. c #F596CA",
"~. c #FE95CB",
"^. c #FE9ACB",
"/. c #FF96D0",
"(. c #FE9BD4",
"). c #FE9DDB",
"_. c #FFA7C2",
"`. c #FDACCD",
"'. c #FEA2D5",
"]. c #FDACD3",
"[. c #FEA3DC",
"{. c #FFABDD",
"}. c #FEB1DE",
"|. c #FF96E1",
" X c #FF9CE4",
".X c #FFA3E2",
"XX c #FFABE3",
"oX c #FFACE8",
"OX c #FFB4E5",
"+X c #FFBBE4",
"@X c #FFB2EB",
"#X c #FFB7F2",
"$X c #FFC5E3",
"%X c #FFDCFC",
/* pixels */
"e.e.e.e.e.e.e.e.e.e.e.e.e.e.e.e.e.e.e.e.e.e.e.e.e.e.e.e.e.e.e.e.e.e.e.e.e.e.e.e.e.e.e.e.e.e.e.e.e.e.e.e.e.e.e.e.e.e.e.e.e.e.e.e.",
"e.e.e.e.e.e.e.e.e.e.e.e.e.e.e.e.e.e.e.e.e.e.e.e.e.e.e.e.e.e.e.e.e.e.e.e.e.e.e.e.e.e.e.e.e.e.e.e.e.e.e.e.e.e.e.e.e.e.e.e.e.e.e.e.",
"e.e.e.e.e.e.e.e.e.e.e.e.e.e.e.e.e.e.e.e.e.e.e.e.e.e.e.e.e.e.e.e.e.e.e.e.e.e.e.e.e.e.e.e.e.e.e.e.e.e.e.e.e.e.e.e.e.e.e.e.e.e.e.e.",
"e.e.e.e.e.e.e.e.e.e.e.e.e.e.e.e.e.e.e.e.e.e.e.e.e.e.e.e.e.e.e.e.e.e.e.e.e.e.e.e.e.e.e.e.e.e.e.e.e.e.e.e.e.e.e.e.e.e.e.e.e.e.e.e.",
"e.e.e.e.e.e.e.e.e.e.e.e.e.e.e.e.e.e.e.e.e.e.e.e.e.e.e.e.e.e.e.e.e.e.e.e.e.e.e.e.e.e.e.e.e.e.e.e.e.e.e.e.e.e.e.e.e.e.e.e.e.e.e.e.",
"e.e.e.e.e.e.e.e.e.e.e.e.e.e.e.e.e.e.e.e.x x e.e.e.e.e.e.e.e.e.e.e.e.e.e.e.e.e.e.e.e.e.e.e.e.e.e.e.e.e.e.e.e.e.e.e.e.e.e.e.e.e.e.",
"e.e.e.e.e.e.e.e.e.e.e.e.e.e.e.e.e.e.e.e.x x e.e.e.e.e.e.; ; r r u u l l c c k a p p = 7 # % e.e.e.e.e.e.e.e.e.e.e.e.e.e.e.e.e.e.",
"e.e.e.e.e.e.e.e.e.e.e.e.e.e.e.e.e.e.e.x x x x e.e.e.e.e.: % 7 r u u l l c c u a p p : 7 % % e.e.e.e.e.e.x x e.e.e.e.e.e.e.e.e.e.",
"e.e.e.e.e.e.e.e.e.e.e.e.e.e.e.e.e.e.e.x x x 3 3 X X t r 2.5.x.x.V.S.[.E.oXOXE.E.B.B.j.k.] ] 5 * . . e.x x x e.e.e.e.e.e.e.e.e.e.",
"e.e.e.e.e.e.e.e.e.e.e.e.e.e.e.e.e.e.x x x x 3 3 X . u 0 7.5.x.x.D.D.'.{.OXoXE.E.B.B.k.k.] >.* * . . e.x x x e.e.e.e.e.e.e.e.e.e.",
"e.e.e.e.e.e.e.e.e.e.e.e.e.e.e.e.e.e.x x @ @ . . N n H.D.].].^./././.[.).oX.X[.)././.^.^.J.H.7.7.: : X o x x e.e.e.e.e.e.e.e.e.e.",
"e.e.e.e.e.e.e.e.e.e.e.e.e.e.e.e.e.x x x @ @ . . n n D.H.'.'.^.^./.!.).).oXoX[.)././.^.^.J.J.7.7.- : o o x x e.e.e.e.e.e.e.e.e.e.",
"e.e.e.e.e.e.e.e.e.e.e.e.e.e.e.e.e.x x x . . p p z.z.B.B.| | R.P.{.[.k.g.} } I.U.{.{.[.'.'.'.!.!.u.u.> > x x x e.e.e.e.e.e.e.e.e.",
"e.e.e.e.e.e.e.e.e.e.e.e.e.e.e.e.x x x x . X p k z.z.B.B.| | P.R.[.{.g.g.[ } U.!.{.{.'.'.'.'.E.E.u.u.7 > x x x x x x x x x e.e.e.",
"e.e.e.e.e.e.e.e.e.e.e.e.e.e.e.e.x x x x 1 = a.a.F.c.6.6.c.c.Q._.c.v.i.f.C.C.!.Q.'.(.'.'.).E..X.X!.(.<.<.k k x x x x x x x e.e.e.",
"e.e.e.e.e.e.x x x x x x x x x x x x x x = : p.9.F.F.6.6.V.c.Q._.c.c.0.i.C.H.^.^.'.].[.[.).)..X.X^.!.<.<.k l x x x x x x e.e.e.e.",
"e.e.e.e.e.e.x x x x x x x x x x x x X X g g _._.9.9.` ' %X%X$X$X' ' 2.2.%X%X{.XX[.[.oX.X). X).)..XXXD.D.v N . . x x e.e.e.e.e.e.",
"e.e.e.e.e.e.e.x x x x x x x x x x x X X g g _._.9.9.` ` %X%X$X$X' ' 2.2.%X%X{.{.[.E.oXoX X X).).XX.XD.D.v v . . e.e.e.e.e.e.e.e.",
"e.e.e.e.e.e.e.e.e.x x x x x x x x x & & 7.8._.`.>.>.; ; 9.a.`.`.B Z ; ; } } ^.!.[.[.).)..X X X[.).(.].'.7.7.# # x e.e.e.e.e.e.e.",
"e.e.e.e.e.e.e.e.e.e.e.x x x x x x x & % 7.7.`.`.>.>.% - a.a.`.`.B Z - - <.} W.^.[.[.).)..X[. XoX(.).'.'.4.7.# $ x e.e.e.e.e.e.e.",
"e.e.e.e.e.e.e.e.e.e.e.e.e.x x x 1 1 & = z.z.}.$Xp.Z - - i.i.'.].Z Z + - h h ~.W.#X#X.X.X).).[.E.(.(.'.'.V.V.g g 4 4 e.e.e.e.e.e.",
"e.e.e.e.e.e.e.e.e.e.e.e.x x x x 1 1 = & z.z.}.}.Z 3.- - i.8.'.].Z Z $ + h h W.^.#X#X.X X).[.).[.'.(.(.'.B.V.g g 4 4 e.e.e.e.e.e.",
"e.e.e.e.e.e.e.e.e.e.e.e.x x , , O # >.C I.I.D.H.a a $ o N.N.OX{.N N o $ T T g.g.h.h.S.S..X.X(.'.).).'.'.!.W.x.c.C C V V e.e.e.e.",
"e.e.e.e.e.e.e.e.e.e.e.x x x @ , # # >.C I.I.D.D.a a $ $ N.N.XXXXN N $ $ T T g.f.h.h.S.S..X.X[.(.[.).'.'.R.W.c.x.>.>.V V e.e.e.e.",
"e.e.e.e.e.e.e.e.e.e.e.x     ; ; >.' I.J..X{.N.N.M m M M Y.Y.XXXX3.3.v g d.d.d.r.r.r.A.A. XoX[.[.'.(.[.'..X{.}.{.].`.B B 4 u e.e.",
"e.e.e.e.e.e.e.e.e.e.x x     - ; >.` I.U..X.XN.N.m m M M Y.Y.XXXX3.3.v c i.d.r.d.r.r.A.A.oX X[.[.(.(.[.[.XXXX{.{.].].B C u 4 e.e.",
"e.e.e.e.e.e.e.e.e.e.x x < < B N I.I.^./.).).).|.XX}.[.'.{.[.'.'.'.].].].(.).).). X|.|.|.|. X[.'.'.'.).'.[.[.'.).].].c.s.y y . . ",
"e.e.e.e.e.e.e.e.e.x x x < < N N I.I././.).).).).}.XX'.'.{.'.'.'.{.].].].).(.|.). X X|.|. X).).).[.'.'.).[.[.).'.].].F.F.y y o . ",
"e.e.e.e.e.e.e.e.e.x x x , , 4.4.}.}.(.(.!./.).).oXoXT.Y.] | U.U.+X+X{.OX[.[..X.X X)..X[.'.(.).[.W.!./.(.[.[.{..XQ._.F.F.n b o o ",
"e.e.e.e.e.e.e.e.e.x x x , , 4.4.}.}.(.).T./././.oXoXU.Y.] | U.U.+X+X}.oX[.'..X.X).|..X.X).(.'.).R.W./.(..X.X[.[.Q.U.F.F.b n X o ",
"e.e.e.e.e.e.e.e.e.e.e.e.1 1 p.p.+XOX!.!.S.L.!.^.!.W.f.f.S f | { | 5.6.| A.C.T.T.~.^.^.'.W.W.~.W.R.R.~.~.(.(.~.~.J.K.M.F.B B 1 1 ",
"e.e.e.e.e.e.e.e.e.e.e.e.1 1 p.p.+X+X!.!.L.L.^.^.!.W.f.f.f f { { | | | 5.C.A.T.T.^.^.^.^.~.~.~.~.R.R./.~.!.(.~.~.J.K.V.F.B ` 1 1 ",
"e.e.e.e.e.e.e.e.e.e.e.e.. . 1.1.].{.~.~.n.n.G.G.w.l.K K G F E H 6.6.k.g.&.&.*.*.n.m.P.K.W.U.W.W.R.R.S.K.L.L.T.R.Z.Z.l.l.b b . . ",
"e.e.e.e.e.e.e.e.e.e.e.e.. . 1.1.'.'.W.~.l.n.G.Z.l.l.K K G F Y K 6.6.k.g.&.&.*.*.n.M.P.K.W.W.W.Q.P.R.L.L.L.L.W.R.Z.n.l.v.b b . . ",
"e.e.e.e.e.e.e.e.e.e.e.e.4 4 n n s.s.k.j.0.0.q.q.K K A A  . .%.X.[.[.@X@X%.X.P P / / m.m.P.K.P.P.Z.J.g.f.8.8.j.j.8.8.>.] u u 2 2 ",
"e.e.e.e.e.e.e.e.e.e.e.e.j 4 N n s.s.k.k.0.0.q.q.K K D S  . .%.%.[.{.@X@XX.%.P P ^  .m.m.K.P.P.P.J.Z.f.f.8.8.j.j.8.8.] ] u u 2 2 ",
"e.e.e.e.e.e.e.e.e.e.x x x e.e.e.X X : 7 ] ] J J w A P I =.=.;.O.y.y.#.t.@.@.#.#.Q P  .^ b.b.M.v.v.v.( ( % ; + + X X . X z z e.e.",
"e.e.e.e.e.e.e.e.e.e.x x x e.e.e.X X r : ] ] J J A w ~ P =.=.O.O.y.y.t.t.#.#.O.:.Q Q ~ ^ b.w.M.G.v.v.( ( % % + + X X X X z z e.e.",
"e.e.e.e.e.e.e.e.e.x x x x x e.e.e.e.e.e.> > s 9 J R ^ ^ ....;.;.+.@.@.@.$.$.t.t.o.o.I P I I w.w.,.,.5 5 O O e.e.e.e.e.e.e.e.e.e.",
"e.e.e.e.e.e.e.e.e.x x x x x e.e.e.e.e.e.> > 9 9 R K ~ ^ ....;.;.@.@.@.@.t.$.t.t.+.O.~ P I I w.w.,.,.5 5 O O e.e.e.e.e.e.e.e.e.e.",
"e.e.e.e.e.e.e.e.x x x x x x x e.e.e.e.e.e.e.> * s s ) )  .I ....o.o.+.+.#.:.:.:.-.-.W E w w b _ 0 0 e.e.e.e.e.e.e.e.e.e.e.e.e.e.",
"e.e.e.x x x x x x x x x x x x x x x x x x e.* * e e ) ) ~ ~ .. .X.o.+.+.:.#.:.:.-.-.E E w e _ _ 0 0 e.e.e.e.e.e.e.e.e.e.e.e.e.e.",
"e.e.e.x x x x x x x x x x x x x x x x x x x e.e.= = q q A S G G E L Q / X.X.-.%.Q ^ H H S S e s X # e.e.e.e.e.e.e.e.e.e.e.e.e.e.",
"e.e.e.e.x x x x x x x x x x x x x x x x x x e.e.7 = q q A w G G L L / Q X.%.%.%.^ Q H H f f e s X # e.e.e.e.e.e.e.e.e.e.e.e.e.e.",
"e.e.e.e.e.e.x x x x x x x x x x x x x x e.e.e.e.e.e.X X # # 9 8 d d S f D D D D S S F F L L R R * * e.e.e.e.e.e.e.e.e.e.e.e.e.e.",
"e.e.e.e.e.e.x x x x x x x x x x x x e.e.e.e.e.e.x x X X # # 0 9 d d f S D D D A S S F D L L R ) * * x x x x x x x x x x e.e.e.e.",
"e.e.e.e.e.x x x x x x x x x x x x x e.e.e.e.e.e.x x x x x x O # i i _ _ U h U J J U R ) ! ! ) [ * * x x x x x x x x x x e.e.e.e.",
"e.e.e.e.e.x x x x x x x x x x x x x e.e.e.e.e.e.e.e.x x x x & @ i i ( ` U U J U U U ) T ! ! [ [ * * x x x x x x x x e.e.e.e.e.e.",
"e.e.e.e.x x x x x x x e.x x x x x x x e.e.e.e.e.e.e.e.e.x x x x k k r r 7 7 t 0 7 7 6 6 6 6 6 6 x x x x x x x e.e.e.e.e.e.e.e.e.",
"e.e.e.e.x x x x x e.e.e.e.x x x x x x e.e.e.e.e.e.e.e.e.e.e.x x k k r 7 7 8 t t 8 8 8 6 6 6 6 6 x x x x x e.e.e.e.e.e.e.e.e.e.e.",
"e.e.e.e.x x x e.e.e.e.e.e.e.e.x x x x e.e.e.e.e.e.e.e.e.e.e.e.e.x x x x x x x x x x x x x x x x x x e.e.e.e.e.e.e.e.e.e.e.e.e.e.",
"e.e.e.e.e.e.e.e.e.e.e.e.e.e.e.e.e.e.e.e.e.e.e.e.e.e.e.e.e.e.e.e.x x x x x x x x x x x x x x x x x x e.e.e.e.e.e.e.e.e.e.e.e.e.e.",
"e.e.e.e.e.e.e.e.e.e.e.e.e.e.e.e.e.e.e.e.e.e.e.e.e.e.e.e.e.e.e.x x x x x x x x x x x x x x x x x x x x e.e.e.e.e.e.e.e.e.e.e.e.e.",
"e.e.e.e.e.e.e.e.e.e.e.e.e.e.e.e.e.e.e.e.e.e.e.e.e.e.e.e.e.e.x x x x x x x x x x x x x x x x x x x x x e.e.e.e.e.e.e.e.e.e.e.e.e.",
"e.e.e.e.e.e.e.e.e.e.e.e.e.e.e.e.e.e.e.e.e.e.e.e.e.e.e.e.e.e.x x x x x x x x x e.e.x x x x x x x x x x x e.e.e.e.e.e.e.e.e.e.e.e.",
"e.e.e.e.e.e.e.e.e.e.e.e.e.e.e.e.e.e.e.e.e.e.e.e.e.e.e.e.e.x x x x x x x e.e.e.e.e.e.e.x x x x x x x x x e.e.e.e.e.e.e.e.e.e.e.e.",
"e.e.e.e.e.e.e.e.e.e.e.e.e.e.e.e.e.e.e.e.e.e.e.e.e.e.e.e.x x x x x x e.e.e.e.e.e.e.e.e.e.e.x x x x x x x x e.e.e.e.e.e.e.e.e.e.e.",
"e.e.e.e.e.e.e.e.e.e.e.e.e.e.e.e.e.e.e.e.e.e.e.e.e.e.e.e.x x x e.e.e.e.e.e.e.e.e.e.e.e.e.e.e.e.x x x x x x e.e.e.e.e.e.e.e.e.e.e.",
"e.e.e.e.e.e.e.e.e.e.e.e.e.e.e.e.e.e.e.e.e.e.e.e.e.e.e.e.x x e.e.e.e.e.e.e.e.e.e.e.e.e.e.e.e.e.e.e.x x x x e.e.e.e.e.e.e.e.e.e.e.",
"e.e.e.e.e.e.e.e.e.e.e.e.e.e.e.e.e.e.e.e.e.e.e.e.e.e.e.e.e.e.e.e.e.e.e.e.e.e.e.e.e.e.e.e.e.e.e.e.e.e.e.e.e.e.e.e.e.e.e.e.e.e.e.e.",
"e.e.e.e.e.e.e.e.e.e.e.e.e.e.e.e.e.e.e.e.e.e.e.e.e.e.e.e.e.e.e.e.e.e.e.e.e.e.e.e.e.e.e.e.e.e.e.e.e.e.e.e.e.e.e.e.e.e.e.e.e.e.e.e.",
"e.e.e.e.e.e.e.e.e.e.e.e.e.e.e.e.e.e.e.e.e.e.e.e.e.e.e.e.e.e.e.e.e.e.e.e.e.e.e.e.e.e.e.e.e.e.e.e.e.e.e.e.e.e.e.e.e.e.e.e.e.e.e.e.",
"e.e.e.e.e.e.e.e.e.e.e.e.e.e.e.e.e.e.e.e.e.e.e.e.e.e.e.e.e.e.e.e.e.e.e.e.e.e.e.e.e.e.e.e.e.e.e.e.e.e.e.e.e.e.e.e.e.e.e.e.e.e.e.e.",
"e.e.e.e.e.e.e.e.e.e.e.e.e.e.e.e.e.e.e.e.e.e.e.e.e.e.e.e.e.e.e.e.e.e.e.e.e.e.e.e.e.e.e.e.e.e.e.e.e.e.e.e.e.e.e.e.e.e.e.e.e.e.e.e."
};
