/* XPM */
static char *result[] = {
/* columns rows colors chars-per-pixel */
"64 64 192 2 ",
"   c #0B0001",
".  c #130303",
"X  c #1B0103",
"o  c #15040A",
"O  c #1D050A",
"+  c #170B0C",
"@  c #1B0A0A",
"#  c #250004",
"$  c #2D000D",
"%  c #320006",
"&  c #3B0004",
"*  c #35020A",
"=  c #3C000C",
"-  c #2C0011",
";  c #3C0414",
":  c #38031B",
">  c #39091B",
",  c #30171A",
"<  c #3E202F",
"1  c #46000A",
"2  c #440213",
"3  c #440318",
"4  c #49071A",
"5  c #56051F",
"6  c #5E0119",
"7  c #6B000D",
"8  c #64001E",
"9  c #460A26",
"0  c #550621",
"q  c #5B0322",
"w  c #481121",
"e  c #511F2E",
"r  c #4D1C33",
"t  c #5C1734",
"y  c #6B0528",
"u  c #760829",
"i  c #6E1322",
"p  c #6C1B31",
"a  c #731637",
"s  c #422A2D",
"d  c #4F273C",
"f  c #542134",
"g  c #532A3D",
"h  c #4E3738",
"j  c #632236",
"k  c #603A3C",
"l  c #736122",
"z  c #7C1840",
"x  c #572C43",
"c  c #5A2D41",
"v  c #642544",
"b  c #6F2B42",
"n  c #683549",
"m  c #663C51",
"M  c #7A3E53",
"N  c #7F325C",
"B  c #81011D",
"V  c #8C052C",
"C  c #940D33",
"Z  c #9C0A33",
"A  c #8A1435",
"S  c #831B36",
"D  c #8F1E3C",
"F  c #971234",
"G  c #A10D3A",
"H  c #AB083D",
"J  c #801F44",
"K  c #9E1A47",
"L  c #B30041",
"P  c #BD0C46",
"I  c #A81142",
"U  c #B01746",
"Y  c #BB134C",
"T  c #BC1C4F",
"R  c #BD1750",
"E  c #812240",
"W  c #852D52",
"Q  c #96345A",
"!  c #A4344D",
"~  c #AB2753",
"^  c #AD2658",
"/  c #BA2052",
"(  c #B62C5D",
")  c #A63A57",
"_  c #9B2B63",
"`  c #BA2E60",
"'  c #BC3763",
"]  c #CE034B",
"[  c #D8004D",
"{  c #CD0954",
"}  c #C42359",
"|  c #C32B5F",
" . c #D0255E",
".. c #C5375E",
"X. c #CE1467",
"o. c #DC1C6A",
"O. c #ED176B",
"+. c #E21972",
"@. c #F11F76",
"#. c #C53961",
"$. c #D43869",
"%. c #D13F6A",
"&. c #CD2870",
"*. c #874D61",
"=. c #984662",
"-. c #9A576D",
";. c #AA4B65",
":. c #BB506B",
">. c #B24B79",
",. c #AA5972",
"<. c #CF4369",
"1. c #CC4473",
"2. c #DA4C77",
"3. c #CD5B7D",
"4. c #DB5177",
"5. c #E14A79",
"6. c #E4527A",
"7. c #E6C03E",
"8. c #B46582",
"9. c #B96485",
"0. c #BB7089",
"q. c #CD4F8A",
"w. c #DA5383",
"e. c #D9598C",
"r. c #E45887",
"t. c #E25C8B",
"y. c #EB5D89",
"u. c #FF4795",
"i. c #EC5090",
"p. c #C66B8B",
"a. c #D16180",
"s. c #DD6294",
"d. c #DA6599",
"f. c #CE799A",
"g. c #D97499",
"h. c #EE628E",
"j. c #E9688E",
"k. c #E96B98",
"l. c #FA6E9B",
"z. c #C37EA5",
"x. c #DC73AB",
"c. c #F877A7",
"v. c #FF7CA6",
"b. c #EA77B7",
"n. c #FE7EB2",
"m. c #FD7EBD",
"M. c #CA809F",
"N. c #D3849E",
"B. c #EA829E",
"V. c #D483A5",
"C. c #D580AE",
"Z. c #D58CB0",
"A. c #E080AE",
"S. c #FE83AC",
"D. c #E788B4",
"F. c #FD83B3",
"G. c #FF8CB3",
"H. c #F184B9",
"J. c #F788B8",
"K. c #FF8CBA",
"L. c #EA93B8",
"P. c #FF91B6",
"I. c #F39BBE",
"U. c #EC82C3",
"Y. c #F381C5",
"T. c #FD8CC5",
"R. c #FD8FCE",
"E. c #EE96C5",
"W. c #EF95C8",
"Q. c #FF94C4",
"!. c #FF94CB",
"~. c #FD9DCD",
"^. c #FA8ED0",
"/. c #FD9DD4",
"(. c #FE9DDC",
"). c #EEA2C9",
"_. c #E1AFCB",
"`. c #FFA2C4",
"'. c #FFA3CB",
"]. c #EFA6D0",
"[. c #FEA1D6",
"{. c #FDA8D7",
"}. c #FFA2DC",
"|. c #F7ADDA",
" X c #FDABDA",
".X c #E8B7DA",
"XX c #FFB0D4",
"oX c #F9B0D9",
"OX c #FF9EE4",
"+X c #FDA2E1",
"@X c #FFA8E3",
"#X c #FFD8FF",
/* pixels */
"7.7.7.7.7.7.7.7.7.7.7.7.7.7.7.7.7.7.7.7.7.7.7.7.7.7.7.7.7.7.7.7.7.7.7.7.7.7.7.7.7.7.7.7.7.7.7.7.7.7.7.7.7.7.7.7.7.7.7.7.7.7.7.7.",
"7.7.7.7.7.7.7.7.7.7.7.7.7.7.7.7.7.7.7.7.7.7.7.7.7.7.7.7.7.7.7.7.7.7.7.7.7.7.7.7.7.7.7.7.7.7.7.7.7.7.7.7.7.7.7.7.7.7.7.7.7.7.7.7.",
"7.7.7.7.7.7.7.7.7.7.7.7.7.7.7.7.7.7.7.7.7.7.7.7.7.7.7.7.7.7.7.7.7.7.7.7.7.7.7.7.7.7.7.7.7.7.7.7.7.7.7.7.7.7.7.7.7.7.7.7.7.7.7.7.",
"7.7.7.7.7.7.7.7.7.7.7.7.7.7.7.7.7.7.7.7.7.7.7.7.7.7.7.7.7.7.7.7.7.7.7.7.7.7.7.7.7.7.7.7.7.7.7.7.7.7.7.7.7.7.7.7.7.7.7.7.7.7.7.7.",
"7.7.7.7.7.7.7.7.7.7.7.7.7.7.7.7.7.7.7.7.7.7.7.7.7.7.7.7.7.7.7.7.7.7.7.7.7.7.7.7.7.7.7.7.7.7.7.7.7.7.7.7.7.7.7.7.7.7.7.7.7.7.7.7.",
"7.7.7.7.7.7.7.7.7.7.7.7.7.7.7.7.7.7.7.7.l l 7.7.7.7.7.7.7.7.7.7.7.7.7.7.7.7.7.7.7.7.7.7.7.7.7.7.7.7.7.7.7.7.7.7.7.7.7.7.7.7.7.7.",
"7.7.7.7.7.7.7.7.7.7.7.7.7.7.7.7.7.7.7.7.l l 7.7.7.7.7.7.7.7.7.7.7.7.7.7.7.7.7.7.7.7.7.7.7.7.7.7.7.7.7.7.7.7.7.7.7.7.7.7.7.7.7.7.",
"7.7.7.7.7.7.7.7.7.7.7.7.7.7.7.7.7.7.7.l l l l 7.7.7.7.7.7.7.7.7.7.7.7.7.7.7.7.7.7.7.7.7.7.7.7.7.7.7.7.7.l l 7.7.7.7.7.7.7.7.7.7.",
"7.7.7.7.7.7.7.7.7.7.7.7.7.7.7.7.7.7.7.l l l l 7.7.7.  . O X > > 9 9 r r c g x x d d 7.7.7.7.7.7.7.7.7.l l l 7.7.7.7.7.7.7.7.7.7.",
"7.7.7.7.7.7.7.7.7.7.7.7.7.7.7.7.7.7.l l l l l l 7.7.. . X X ; : 4 w r r g g x x d d 7.7.7.7.7.7.7.7.7.l l l 7.7.7.7.7.7.7.7.7.7.",
"7.7.7.7.7.7.7.7.7.7.7.7.7.7.7.7.7.7.l l l l . X $ $ ; : b b 9.9.f.f.Z.L.).).|.|.].].z.f.f j = = # # .   l l 7.7.7.7.7.7.7.7.7.7.",
"7.7.7.7.7.7.7.7.7.7.7.7.7.7.7.7.7.l l l l l X . $ % ; ; b b 9.9.f.f.Z.D.).).|.|.].].M.M.p j * = # X   . l l 7.7.7.7.7.7.7.7.7.7.",
"7.7.7.7.7.7.7.7.7.7.7.7.7.7.7.7.7.l l l . @ ; 2 ,.,.p.0.L.L.`.'./.~.~.~././.+X+X X+X~.~.L.L.M.M.M M . X + + l 7.7.7.7.7.7.7.7.7.",
"7.7.7.7.7.7.7.7.7.7.7.7.7.7.7.7.l l l l @ @ ; 4 ,.,.M.p.L.I.'.'.~.~.~.~./.!.}.+X+X X~.'.J.I.f.f.M M X . + + l l l l l l l 7.7.7.",
"7.7.7.7.7.7.7.7.7.7.7.7.7.7.7.7.l l l l e e ;.;.) ) `.`.p.a.>.>. X X}.[././.}.}.}.}.}.}.[.}.XX{.Z.Z.M M # # l l l l l l l 7.7.7.",
"7.7.7.7.7.7.l l l l l l l l l l l l l l e e ;.;.) ) `.`.p.p.>.>. X@X}.[././.}.}.}.}.}.}.[.}.{.{.Z.Z.M M # $ l l l l l l 7.7.7.7.",
"7.7.7.7.7.7.l l l l l l l l l l l l l l f j a.a.#.' g.g.g.g.A.A.(.|.+X+X(.].}.}.}.}.+X}.+X+X+X}. X}.V.M.> > l l l l 7.7.7.7.7.7.",
"7.7.7.7.7.7.7.l l l l l l l l l l l l l j j a.a.' :.g.g.f.g.A.A./.}.+X@XW./.}.}.}.}.}.}.OX+X}.}. X XV.V.> : l l 7.7.7.7.7.7.7.7.",
"7.7.7.7.7.7.7.7.7.l l l l l l l     $ - 4 4 ) ) B.B.a a V.A.#X#X|./.+X+X@X@X|.(.}.}.+XOX}.OX(.(.@X XE.E.v v o o l 7.7.7.7.7.7.7.",
"7.7.7.7.7.7.7.7.7.7.7.l l l l l     $ $ 4 4 Q =.B.B.a a V.V.#X#X]./.+X@X@X@X}.}.}.}.(.}.OX}.(.(.+X@XE.E.v v o o l 7.7.7.7.7.7.7.",
"7.7.7.7.7.7.7.7.7.7.7.7.7.l l l + + b n 6 5 5 5 N.N.3 3 r t C.C.+X+X+X+X(.}.}.}.[.}.}.(.OX(.(.(.}.+X/./.z.z.< < l l 7.7.7.7.7.7.",
"7.7.7.7.7.7.7.7.7.7.7.7.l l l l + @ b b 5 5 5 5 V.M.3 3 t t C.x.+X+X+X+X(.}.}.}.(.[.(.}.(.OX(.(.+X}./.[.z.z.< < l l 7.7.7.7.7.7.",
"7.7.7.7.7.7.7.7.7.7.7.7.l l l l . . ,.0.W W 9 9 _._.: : v v W.W.^.^.b.U.U.U.[.[./.[.(.(.(.OX(.(.}.}.}.[.Z._.s d l l 7.7.7.7.7.7.",
"7.7.7.7.7.7.7.7.7.7.7.l l l l l + . p.,.Q W 9 9 _._.> : v v W.Y.^.^.U.x.U.U.}.[.}./.(.(.(.(.OX(.}.+X}.[.E.L.x d 7.7.7.7.7.7.7.7.",
"7.7.7.7.7.7.7.7.7.7.7.l l l l l @ O ,.,.a a : : .X.X- - t v x.x.b.b.Y.Y.R.R.(.[.[.}.(.OX+XOXOX(.}.}.}. X).).x x 7.7.7.7.7.7.7.7.",
"7.7.7.7.7.7.7.7.7.7.l l l l l l O O ,.;.a a : : .X.X- - t v x.x.b.b.Y.Y.^.^./.}.(.(.}.+XOX+X}.(.+X}.}.}.).).g g 7.7.7.7.7.7.7.7.",
"7.7.7.7.7.7.7.7.7.7.l l l l l l o . =.=.Q Q N N |.|.N N z z q.q.Y.m.OX+X@X@X}.}.(.(.(.(.(./.(.(.}.}.+X}.oXoXm m 7.7.7.7.7.7.7.7.",
"7.7.7.7.7.7.7.7.7.l l l l l l l     =.=.Q Q N W |.{.N W z z q.q.m.m.OXOX@X@X}.}.(./.(.(.(.(.(.(.(.}.}.}.|.|.c m 7.7.7.7.7.7.7.7.",
"7.7.7.7.7.7.7.7.7.l l l l l 7.7.o . 0.0.oXXX'.[.~.~.'.~.d.s.t.e.T.T././.(./.}.}./.(.R.R.T.T./.}.}.}.}.}.{.|.m m 7.7.7.7.7.7.7.7.",
"7.7.7.7.7.7.7.7.7.l l l 7.7.7.7.+ . 0.0.XXXX[.'.~.~.'.'.s.g.e.e.T.T.}./.[.[.}.}././.R.R.Y.T.(./.}.[.(.}.|.{.m m 7.7.7.7.7.7.7.7.",
"7.7.7.7.7.7.7.7.7.7.7.7.7.7.7.7.+ + -.-.XXXXD.D._ _ Q.~.e.e.~ ^ n.n.Q.T.!.!.!.!.!.!.!.!.b.c.H.J.[./././.E.I.c c 7.7.7.7.7.7.7.7.",
"7.7.7.7.7.7.7.7.7.7.7.7.7.7.7.7.+ + -.-.XXXXD.b._ _ Q.Q.e.a.^ ^ n.n.T.!.!.!.!.!.!.!.!.Q.b.b.H.H./././.!.E.E.c c 7.7.7.7.7.7.7.7.",
"7.7.7.7.7.7.7.7.7.7.7.7.7.7.7.7.    *.*.I.I.H.H.d.d.[./.d.s.` ` h.y.K.K.m.F.n.F.n.n.e.t.d.d.H.H.P.Q.G.F.B.A.e f 7.7.7.7.7.7.7.7.",
"7.7.7.7.7.7.7.7.7.7.7.7.7.7.7.7.    *.*.I.I.H.D.d.d./.'.s.s.( ( y.h.K.K.K.m.F.m.n.n.t.d.d.s.F.H.Q.Q.K.F.A.V.f f 7.7.7.7.7.7.7.7.",
"7.7.7.7.7.7.7.7.7.7.7.7.7.7.7.7.7.7.n n 8.8.~.~.(.}.[.[.H.S.2.2.%.%.1.1.w.w.y.y.y.y.w.w.k.k.n.S.F.F.h.h.3.3.w w 7.7.7.7.7.7.7.7.",
"7.7.7.7.7.7.7.7.7.7.7.7.7.7.7.7.7.7.n n 8.8.`.Q.}.}.[.[.D.c.2.6.%.%.1.1.w.w.y.y.y.y.w.4.k.k.n.H.F.F.h.h.3.3.w w 7.7.7.7.7.7.7.7.",
"7.7.7.7.7.7.7.7.7.7.l l l 7.7.7.7.7.k k J J H.L.J.J././.K.G.j.j.4.4.~ ~ 1.<.6.6.6.6.l.l.l.c.k.k.j.j.#.#.! ! 2 2 7.7.7.7.7.7.7.7.",
"7.7.7.7.7.7.7.7.7.7.l l l 7.7.7.7.7.k k E E H.J.E.J./.[.K.P.j.j.4.4.^ ~ 1.1.6.6.6.6.l.l.c.v.k.k.j.j.#.#.! ! 2 > 7.7.7.7.7.7.7.7.",
"7.7.7.7.7.7.7.7.7.l l l l l 7.7., , y y ` ` t.s.c.c.K.K.P.P.G.G.P.P.S.S.G.F.v.v.l.l.l.c.y.y.#.#.C F 7 7 i i 1 1 7.7.7.7.7.7.7.7.",
"7.7.7.7.7.7.7.7.7.l l l l l 7.7., , y u ` ` e.e.n.n.K.Q.P.P.G.G.P.P.S.S.F.F.v.v.l.l.c.l.y.y.#.' F F 7 7 i i & & 7.7.7.7.7.7.7.7.",
"7.7.7.7.7.7.7.7.l l l l l l l 7.O # K ~ %.$.R R | | j.r.S.S.G.S.P.P.P.P.G.P.v.v.r.r.| | R R R Y 5.5.`.'.:.:.E E j t 7.7.7.7.7.7.",
"7.7.7.l l l l l l l l l l l l l X X K K $.$.T T | ..r.r.S.S.G.G.P.P.P.P.G.P.v.S.r.r.| | R T Y T 5.5.`.[.:.:.E E j e 7.7.7.7.7.7.",
"7.7.7.l l l l l l l l l l l l l # # K K  . .P P P P T } |  .$.<.%.%.<.<.#.#...../ / L L { { o.o.u.u.OXOXi.i.` ` y y X . 7.7.7.7.",
"7.7.7.7.l l l l l l l l l l l l X X D I |  .P P ] H T } ....$...%.<.<.<.#......./ / L L { { o.o.u.u.OXOXi.i.` ` y y X X 7.7.7.7.",
"7.7.7.7.7.7.l l l l l l l l l l s s 6 6 F K Z Z U U G G Z Z Z Z Z Z C F 7 B B B H H ] ] O.O.@.@.+.+.X.X.&.&.( ` 8 8 @ @ 7.7.7.7.",
"7.7.7.7.7.7.l l l l l l l l l l h s 6 8 C C Z I U U G G Z Z Z Z Z Z C C B B B 7 H H ] ] O.O.@.@.+.+.X.X.&.&.( ^ q q # @ 7.7.7.7.",
"7.7.7.7.7.l l l l l l l l l l l l l h h # # * * p p S S D D A A D D S A V V V V Y P ] ] [ [ [ ] { { Y Y K K E E 4 3 @ @ 7.7.7.7.",
"7.7.7.7.7.l l l l l l l l l l l l l h h # # * * p p a S D D S S D D S A i u V V Y Y ] ] [ [ [ [ [ { Y Y K I E a 3 3 . @ 7.7.7.7.",
"7.7.7.7.l l l l l l l 7.l l l l l l l 7.7.7.7.7.. X % % & & & 1 1 1 & & & & 8 8 ~ ~ } } X. .} R I I A A 1 1 1 * s s 7.7.7.7.7.7.",
"7.7.7.7.l l l l l 7.7.7.7.l l l l l l 7.7.7.7.7.X X % % & & 1 & 1 1 = & & & 8 8 ~ ~ } }  . .Y R I I J C 6 1 & % < s 7.7.7.7.7.7.",
"7.7.7.7.l l l 7.7.7.7.7.7.7.7.l l l l 7.7.7.7.7.7.7.7.7.7.7.7.7.l l l l l l l l 3 4 0 0 6 6 q q 2 2 ; * 7.7.7.7.7.7.7.7.7.7.7.7.",
"7.7.7.7.7.7.7.7.7.7.7.7.7.7.7.7.7.7.7.7.7.7.7.7.7.7.7.7.7.7.7.7.l l l l l l l l 4 4 0 0 q q 6 6 2 3 = * 7.7.7.7.7.7.7.7.7.7.7.7.",
"7.7.7.7.7.7.7.7.7.7.7.7.7.7.7.7.7.7.7.7.7.7.7.7.7.7.7.7.7.7.7.l l l l l l l l l l l l l l l l l l l l 7.7.7.7.7.7.7.7.7.7.7.7.7.",
"7.7.7.7.7.7.7.7.7.7.7.7.7.7.7.7.7.7.7.7.7.7.7.7.7.7.7.7.7.7.l l l l l l l l l l l l l l l l l l l l l 7.7.7.7.7.7.7.7.7.7.7.7.7.",
"7.7.7.7.7.7.7.7.7.7.7.7.7.7.7.7.7.7.7.7.7.7.7.7.7.7.7.7.7.7.l l l l l l l l l 7.7.l l l l l l l l l l l 7.7.7.7.7.7.7.7.7.7.7.7.",
"7.7.7.7.7.7.7.7.7.7.7.7.7.7.7.7.7.7.7.7.7.7.7.7.7.7.7.7.7.l l l l l l l 7.7.7.7.7.7.7.l l l l l l l l l 7.7.7.7.7.7.7.7.7.7.7.7.",
"7.7.7.7.7.7.7.7.7.7.7.7.7.7.7.7.7.7.7.7.7.7.7.7.7.7.7.7.l l l l l l 7.7.7.7.7.7.7.7.7.7.7.l l l l l l l l 7.7.7.7.7.7.7.7.7.7.7.",
"7.7.7.7.7.7.7.7.7.7.7.7.7.7.7.7.7.7.7.7.7.7.7.7.7.7.7.7.l l l 7.7.7.7.7.7.7.7.7.7.7.7.7.7.7.7.l l l l l l 7.7.7.7.7.7.7.7.7.7.7.",
"7.7.7.7.7.7.7.7.7.7.7.7.7.7.7.7.7.7.7.7.7.7.7.7.7.7.7.7.l l 7.7.7.7.7.7.7.7.7.7.7.7.7.7.7.7.7.7.7.l l l l 7.7.7.7.7.7.7.7.7.7.7.",
"7.7.7.7.7.7.7.7.7.7.7.7.7.7.7.7.7.7.7.7.7.7.7.7.7.7.7.7.7.7.7.7.7.7.7.7.7.7.7.7.7.7.7.7.7.7.7.7.7.7.7.7.7.7.7.7.7.7.7.7.7.7.7.7.",
"7.7.7.7.7.7.7.7.7.7.7.7.7.7.7.7.7.7.7.7.7.7.7.7.7.7.7.7.7.7.7.7.7.7.7.7.7.7.7.7.7.7.7.7.7.7.7.7.7.7.7.7.7.7.7.7.7.7.7.7.7.7.7.7.",
"7.7.7.7.7.7.7.7.7.7.7.7.7.7.7.7.7.7.7.7.7.7.7.7.7.7.7.7.7.7.7.7.7.7.7.7.7.7.7.7.7.7.7.7.7.7.7.7.7.7.7.7.7.7.7.7.7.7.7.7.7.7.7.7.",
"7.7.7.7.7.7.7.7.7.7.7.7.7.7.7.7.7.7.7.7.7.7.7.7.7.7.7.7.7.7.7.7.7.7.7.7.7.7.7.7.7.7.7.7.7.7.7.7.7.7.7.7.7.7.7.7.7.7.7.7.7.7.7.7.",
"7.7.7.7.7.7.7.7.7.7.7.7.7.7.7.7.7.7.7.7.7.7.7.7.7.7.7.7.7.7.7.7.7.7.7.7.7.7.7.7.7.7.7.7.7.7.7.7.7.7.7.7.7.7.7.7.7.7.7.7.7.7.7.7."
};
