/* XPM */
static char *result[] = {
/* columns rows colors chars-per-pixel */
"32 32 195 2 ",
"   c #0C0000",
".  c #130003",
"X  c #1B0002",
"o  c #1E0C0C",
"O  c #240103",
"+  c #2B0102",
"@  c #23000B",
"#  c #2C010D",
"$  c #3C000B",
"%  c #330104",
"&  c #290415",
"*  c #340511",
"=  c #390012",
"-  c #300813",
";  c #2E1B1B",
":  c #291717",
">  c #311C1D",
",  c #37161F",
"<  c #342222",
"1  c #3F3133",
"2  c #43010B",
"3  c #430002",
"4  c #53010B",
"5  c #450011",
"6  c #490417",
"7  c #4B031A",
"8  c #450919",
"9  c #57081A",
"0  c #680016",
"q  c #470D21",
"w  c #53062E",
"e  c #551529",
"r  c #5C152F",
"t  c #7B0929",
"y  c #79122C",
"u  c #7B0D33",
"i  c #7E0E3A",
"p  c #6F1B36",
"a  c #771E3A",
"s  c #6A172A",
"d  c #4C2131",
"f  c #483839",
"g  c #632835",
"h  c #78203E",
"j  c #5E284D",
"k  c #533F40",
"l  c #712C43",
"z  c #7B2744",
"x  c #683546",
"c  c #7C384E",
"v  c #773346",
"b  c #783552",
"n  c #535252",
"m  c #784866",
"M  c #8C001B",
"N  c #8B002B",
"B  c #830C35",
"V  c #810737",
"C  c #960839",
"Z  c #871A37",
"A  c #9C143E",
"S  c #941139",
"D  c #A2002D",
"F  c #A60B37",
"G  c #BA053B",
"H  c #9A0E42",
"J  c #991D45",
"K  c #BB0C43",
"L  c #B6004B",
"P  c #A81C45",
"I  c #B8114E",
"U  c #AE1C54",
"Y  c #B71953",
"T  c #BB1955",
"R  c #872B4F",
"E  c #862952",
"W  c #912A56",
"Q  c #873651",
"!  c #B1234F",
"~  c #AD2755",
"^  c #BB3057",
"/  c #B52555",
"(  c #AF3E64",
")  c #C3124C",
"_  c #C8144C",
"`  c #D50C5D",
"'  c #D10255",
"]  c #C01C56",
"[  c #CC205F",
"{  c #C1345D",
"}  c #D40861",
"|  c #CA1B66",
" . c #DD0F77",
".. c #E8096B",
"X. c #E41A78",
"o. c #F21F7C",
"O. c #C42461",
"+. c #DD3F6B",
"@. c #DA2871",
"#. c #C4277A",
"$. c #E7216F",
"%. c #994457",
"&. c #884E67",
"*. c #9D4963",
"=. c #945A6E",
"-. c #855974",
";. c #AB456A",
":. c #A6506E",
">. c #AC4370",
",. c #9B657C",
"<. c #C4456C",
"1. c #C84B73",
"2. c #D55C7C",
"3. c #D94A70",
"4. c #FA1A84",
"5. c #FF1C8B",
"6. c #EF2781",
"7. c #F72486",
"8. c #A65D8A",
"9. c #B75881",
"0. c #AE6481",
"q. c #BC648D",
"w. c #BB6C87",
"e. c #AE6C99",
"r. c #B77C96",
"t. c #CA5B87",
"y. c #DD5C90",
"u. c #D9458B",
"i. c #E85A85",
"p. c #E84B9E",
"a. c #E35D92",
"s. c #C5668D",
"d. c #C9758F",
"f. c #CA6C99",
"g. c #DA659A",
"h. c #CC7293",
"j. c #D77799",
"k. c #E36B9A",
"l. c #E46F96",
"z. c #FE6E9E",
"x. c #EC739E",
"c. c #F1739F",
"v. c #F34FA4",
"b. c #E758A8",
"n. c #DC79A8",
"m. c #EB6FA7",
"M. c #F669AF",
"N. c #ED74A3",
"B. c #EF7BAC",
"V. c #E778A7",
"C. c #FA71A3",
"Z. c #F37AA9",
"A. c #F476A4",
"S. c #FF6EBA",
"D. c #FB7BB8",
"F. c #FF6FC2",
"G. c #DD87A6",
"H. c #D18CAA",
"J. c #E985A5",
"K. c #F384AD",
"L. c #F58CAF",
"P. c #F383B6",
"I. c #FE83BB",
"U. c #F18EBC",
"Y. c #F989B6",
"T. c #EC93BB",
"R. c #FD92BC",
"E. c #F397BB",
"W. c #F6A2BF",
"Q. c #FD8DC4",
"!. c #F38BC0",
"~. c #FE93C3",
"^. c #FE96CB",
"/. c #FF9DCC",
"(. c #F596CA",
"). c #FE9DD5",
"_. c #FE9DDA",
"`. c #F79BDA",
"'. c #ECA6C0",
"]. c #FFA3CB",
"[. c #F8A3C6",
"{. c #F8B0C8",
"}. c #FFA2D5",
"|. c #FEADD3",
" X c #FFA3DB",
".X c #FFABDC",
"XX c #FFB4DF",
"oX c #FFBEDC",
"OX c #FF9EE1",
"+X c #FFA4E3",
"@X c #FFABE4",
"#X c #FFB5E7",
"$X c #FFACF0",
"%X c #FFC2DE",
"&X c None",
/* pixels */
"&X&X&X&X&X&X&X&X&X&X&X&X&X&X&X&X&X&X&X&X&X&X&X&X&X&X&X&X&X&X&X&X",
"&X&X&X&X&X&X&X&X&X&X&X&X&X&X&X&X&X&X&X&X&X&X&X&X&X&X&X&X&X&X&X&X",
"&X&X&X&X&X&X&X&X&X&X&X&X&X&X&X&X&X&X&X&X&X&X&X&X&X&X&X&X&X&X&X&X",
"&X&X&X&X&X&X&X&X&X&X&X&X&X; < > > < ; > &X&X&X&X&X&X&X&X&X&X&X&X",
"&X&X&X&X&X&X&X&X&X&X&X&X: 8 l p a z h 9 &X&X&X&X&X&X&X&X&X&X&X&X",
"&X&X&X&X&X&X&X&X&X&X@ q g w.J.L.P.K.V.h.v - > &X&X&X&X&X&X&X&X&X",
"&X&X&X&X&X&X&X&X&X# Q s.E.}.^.R.R.].}.~.T.,.q   &X&X&X&X&X&X&X&X",
"&X&X&X&X&X&X&X1 # c j.~. X XU.W ;.R.U.E >.T.,.o &X&X&X&X&X&X&X&X",
"&X&X&X&X&X&X&X> 7 h.]..X+X).|.%XQ *.%X%Xz w.[.b n &X&X&X&X&X&X&X",
"&X&X&X&X&X&X&Xd ;.~..X XOX`.|.{.e c %XW.q &..Xq.e &X&X&X&X&X&X&X",
"&X&X&X&X&X= 6 R V.).).).+X.X~.E O &.(.h @ -.#Xn.:.s 3 + &X&X&X&X",
"&X&X&Xf 8 :.j.n.!. X X_._.OXQ.t.& m |.9.@ -.#X).t.J.J.g . &X&X&X",
"&X&X1 g r.[./.). X X+X+Xb.#.u.V.& j #Xf.# w g.m.N.R.|.r.. &X&X&X",
"&X&X  =.W.].}. X_.}. XOXF.p.M.Q.8.e.@X(.q.f.Z.D.a.A.XXH.: &X&X&X",
"&X&XX ,.E.R.[./.(.^. X).+X$X+X}.@X@X X}.J.K.Y.z.3.i.R.d.X &X&X&X",
"&X&Xo b G.R.R.R.~.~. X X)._.}. X`._.).g.i V U I 3.3.2.%.o &X&X&X",
"&X&X&Xd l J.P.K.B.B.^.}. X}._. X_.).a./ @XF.| $.K ^ h * &X&X&X&X",
"&X&X&X&X&Xr p ;.k.Z.B.P.P.Q._.^.^.y.Y | S.v.X.o.I N &X&X&X&X&X&X",
"&X&X&X&X&X&X&X7 ( c.N.N.k.m.P.Y.C.O.L 6.X. .5.6./ 4 &X&X&X&X&X&X",
"&X&X&X&X&X&X&X&X9 ;.l.x.x.N.Z.z.i.O.} 4.5.4.4.@.J $ &X&X&X&X&X&X",
"&X&X&X&X&X&X&X&X&X$ Z 1.x.K.z.z.^ ] o.5.4...' T z O &X&X&X&X&X&X",
"&X&X&X&X&X&X&X&X&X+ u S S ~ 1.<.S H o.4...` I Z = &X&X&X&X&X&X&X",
"&X&X&X&X&X&X&X&X&X6 P D M N y 4 3 y @.X.` T i = &X&X&X&X&X&X&X&X",
"&X&X&X&X&X&X&X&X&X5 ! _ _ F 0 % O 2 u C H u * &X&X&X&X&X&X&X&X&X",
"&X&X&X&X&X&X&X&X&X$ J K G G F Z % X X O O X &X&X&X&X&X&X&X&X&X&X",
"&X&X&X&X&X&X&X&X&X&X4 A ! P P Z O n &X&X&X&X&X&X&X&X&X&X&X&X&X&X",
"&X&X&X&X&X&X&X&X&X&X&X&X7 5 6 # &X&X&X&X&X&X&X&X&X&X&X&X&X&X&X&X",
"&X&X&X&X&X&X&X&X&X&X&X&X&X&X&X&X&X&X&X&X&X&X&X&X&X&X&X&X&X&X&X&X",
"&X&X&X&X&X&X&X&X&X&X&X&X&X&X&X&X&X&X&X&X&X&X&X&X&X&X&X&X&X&X&X&X",
"&X&X&X&X&X&X&X&X&X&X&X&X&X&X&X&X&X&X&X&X&X&X&X&X&X&X&X&X&X&X&X&X",
"&X&X&X&X&X&X&X&X&X&X&X&X&X&X&X&X&X&X&X&X&X&X&X&X&X&X&X&X&X&X&X&X",
"&X&X&X&X&X&X&X&X&X&X&X&X&X&X&X&X&X&X&X&X&X&X&X&X&X&X&X&X&X&X&X&X"
};
