/* XPM */
static char *result[] = {
/* columns rows colors chars-per-pixel */
"32 32 201 2 ",
"   c #0C0001",
".  c #150002",
"X  c #150C0E",
"o  c #1C0C0E",
"O  c #1A0003",
"+  c #120C10",
"@  c #240004",
"#  c #2B0207",
"$  c #26020D",
"%  c #2A010B",
"&  c #260808",
"*  c #35000C",
"=  c #320006",
"-  c #2E0115",
";  c #270410",
":  c #330213",
">  c #3C0213",
",  c #3F0418",
"<  c #221416",
"1  c #2C1417",
"2  c #2F1818",
"3  c #381313",
"4  c #3C2F30",
"5  c #430115",
"6  c #490014",
"7  c #490519",
"8  c #6B101C",
"9  c #550F25",
"0  c #471425",
"q  c #51172C",
"w  c #551D30",
"e  c #6E132D",
"r  c #6F182A",
"t  c #76152C",
"y  c #7B1A38",
"u  c #552D36",
"i  c #443434",
"p  c #711F4B",
"a  c #5A3A43",
"s  c #6D2741",
"d  c #782C46",
"f  c #6B3647",
"g  c #7A3B4D",
"h  c #793D52",
"j  c #5B4747",
"k  c #7D4463",
"l  c #870025",
"z  c #920024",
"x  c #861D3A",
"c  c #99193D",
"v  c #A20835",
"b  c #B00D3F",
"n  c #A51B39",
"m  c #981E45",
"M  c #861844",
"N  c #B5144B",
"B  c #BA1C53",
"V  c #BB1751",
"C  c #872A4A",
"Z  c #902243",
"A  c #8F3558",
"S  c #943F5A",
"D  c #993655",
"F  c #A62447",
"G  c #B6294A",
"H  c #B72D57",
"J  c #A8355D",
"K  c #B8375E",
"L  c #9C3F68",
"P  c #BD3765",
"I  c #B92570",
"U  c #A93E74",
"Y  c #C21955",
"T  c #C21755",
"R  c #DE1B5D",
"E  c #C62258",
"W  c #C53C5F",
"Q  c #E0205F",
"!  c #C73D67",
"~  c #D83B6E",
"^  c #E52B6F",
"/  c #EA296D",
"(  c #F0246B",
")  c #E62E70",
"_  c #EF3276",
"`  c #B04554",
"'  c #9E4666",
"]  c #94516B",
"[  c #98546F",
"{  c #975372",
"}  c #9D5B74",
"|  c #9C5F78",
" . c #8B4868",
".. c #A34769",
"X. c #B4486C",
"o. c #A6566F",
"O. c #A85875",
"+. c #B25E7A",
"@. c #8F677E",
"#. c #CD425D",
"$. c #C84863",
"%. c #C95B6E",
"&. c #CC497A",
"*. c #C7527E",
"=. c #D9557C",
"-. c #D35B7F",
";. c #DA4C77",
":. c #BF5F8F",
">. c #BC5291",
",. c #9F6C8D",
"<. c #BE6381",
"1. c #A9748E",
"2. c #B87088",
"3. c #B86F97",
"4. c #A67296",
"5. c #AF7F98",
"6. c #BD7D9C",
"7. c #B27399",
"8. c #A66589",
"9. c #CD448E",
"0. c #D95687",
"q. c #E15B84",
"w. c #E05697",
"e. c #C26F8D",
"r. c #CE658C",
"t. c #CD6494",
"y. c #D5699D",
"u. c #CA759B",
"i. c #C97A97",
"p. c #DD7C9F",
"a. c #E66798",
"s. c #F2729D",
"d. c #E5749A",
"f. c #D971A6",
"g. c #DA72B1",
"h. c #ED73A4",
"j. c #F67AA9",
"k. c #FF75B6",
"l. c #FF79C4",
"z. c #B4829C",
"x. c #C188A2",
"c. c #D98AAC",
"v. c #D097AE",
"b. c #DD80B4",
"n. c #EB89AA",
"m. c #ED82A6",
"M. c #FB81AB",
"N. c #F890AC",
"B. c #ED8EB3",
"V. c #EB8DBD",
"C. c #FC84B1",
"Z. c #F683BA",
"A. c #FD8BBC",
"S. c #FB83B5",
"D. c #FF92BE",
"F. c #F49ABE",
"G. c #FF9BBD",
"H. c #EA96B9",
"J. c #FDA0BB",
"K. c #DE96C9",
"L. c #FE8EC4",
"P. c #FB8DC9",
"I. c #E696C8",
"U. c #FE94C4",
"Y. c #FF9CC6",
"T. c #F696CA",
"R. c #FC96CC",
"E. c #FE9ECE",
"W. c #F79FCF",
"Q. c #FF8DD1",
"!. c #EC99D4",
"~. c #FD9CD4",
"^. c #F49CDB",
"/. c #FE9EDC",
"(. c #FF97D9",
"). c #E589C3",
"_. c #ECACCE",
"`. c #FDA5CD",
"'. c #FFACCB",
"]. c #F2A0CC",
"[. c #F7A6D3",
"{. c #FDA3D4",
"}. c #FEA3DC",
"|. c #FFABDC",
" X c #FAA8D9",
".X c #FFB8D9",
"XX c #FC9DE2",
"oX c #FB9EE8",
"OX c #F79BE7",
"+X c #FDA3E2",
"@X c #FEABE5",
"#X c #FFA2EB",
"$X c #FFACEC",
"%X c #F3A0E0",
"&X c #FFB2EA",
"*X c #FFB5E6",
"=X c #FFC3EB",
"-X c #FFD3EF",
";X c #FFC3F2",
":X c #FFDCFA",
">X c None",
/* pixels */
">X>X>X>X>X>X>X>X>X>X>X>X>X>X>X>X>X>X>X>X>X>X>X>X>X>X>X>X>X>X>X>X",
">X>X>X>X>X>X>X>X>X>X>X>X>X>X>X>X>X>X>X>X>X>X>X>X>X>X>X>X>X>X>X>X",
">X>X>X>X>X>X>X>X>X>X>X>X>X>X>X>X>X>X>X>X>X>X>X>X>X>X>X>X>X>X>X>X",
">X>X>X>X>X>X>X>X>X>X>X>X>X>X>X>X>X>X>X>X>X>X>X>X>X>X>X>X>X>X>X>X",
">X>X>X>X>X>X>X>X>X>X>X>X>X>X>X>X>X>X>X>X>X>X>X>X>X>X>X>X>X>X>X>X",
">X>X>X>X>X>X>X>X>X>X>X>X>X>X>X>X>X>X>X>X>X>X>X>X>X>X>X>X>X>X>X>X",
">X>X>X>X>X>X>X>X>X>X>Xo < X + + X o X < ; 4 >X>X>X>X>X>X>X>X>X>X",
">X>X>X>X>X>X>X>X>X>X# q  .8.4.4.7.z.1.[ o.g j >X>X>X>X>X>X>X>X>X",
">X>X>X>X>X>X>X>X% f ] u.I.@X&X;X[.u.H.'.p.S g u a >X>X>X>X>X>X>X",
">X>X>X>X>X>X>X: | .X*X|.%X X!.@Xc.S D B.c.] 6.v.f 2 >X>X>X>X>X>X",
">X>X>X>X>X1 : { `.}.}.^.^.%X+X!.=X-Xe ' :X.X% 6.x.-   >X>X>X>X>X",
">X>X>X>X>X& d F.{.}.oXoX#X+X^.}.S.L * | F.S $ 5._.k   >X>X>X>X>X",
">X>X>X>X>Xq +.Y.T.XX#XOXoXXX#X$XS.x O 1.V.y $ 5.=X3.$ >X>X>X>X>X",
">X>X>X>XO h n.Y.T.+XoXXX+X+Xl.k.k.9.$ @.'.L # { |.V.s @ >X>X>X>X",
">X>X>X>X; } n.Y.}.+X+XXX@X/.9.I w.y.- ,. X:., p b.`.O.> >X>X>X>X",
">X>X>X>X$ 2.m.C.~.}.+X/.{.P.Q.Q././.K.K.$XXX).I.[.W.+.* >X>X>X>X",
">X>X>X>X# i.d.h.}.}.}.{.P.Z.}.$X+X+X X$Xg.>.+X$X&X[.i., >X>X>X>X",
">X>X>X>X: e.*.0.(.}./.R.j.a.Q./.[.[.W.|.f.U R.{.R.V.e.5 >X>X>X>X",
">X>X>X>X$ o.J ! h.Z.D.Z.0.&.D.'.`.'.Y.{.E.Y.U.D.L.t.d $ >X>X>X>X",
">X>X>X>X  0 X.! F =.=.q.! F N.'.J.J.G.D.D.C.D.D.A.r.w . >X>X>X>X",
">X>X>X>X>X. C -.! G n G G F t r r x K q.s.M.M.M.h.C @ >X>X>X>X>X",
">X>X>X>X>X>X0 y $.#.$.n v H D o.+.J N E H P ;.a.J 5 >X>X>X>X>X>X",
">X>X>X>X>X>X>X3 8 ` %.c z ~ j.=X;Xk._ R v l c Z 9 >X>X>X>X>X>X>X",
">X>X>X>X>X>X>X>X. # 7 t b / ) ) ^ / ( ( Q b e @ >X>X>X>X>X>X>X>X",
">X>X>X>X>X>X>X>X>X>X2 6 m B V Y T Y B B H c = >X>X>X>X>X>X>X>X>X",
">X>X>X>X>X>X>X>X>X>X>Xi > 7 6 6 6 6 5 6 7 7 >X>X>X>X>X>X>X>X>X>X",
">X>X>X>X>X>X>X>X>X>X>X>X>X>X>X>X>X>X>X>X>X>X>X>X>X>X>X>X>X>X>X>X",
">X>X>X>X>X>X>X>X>X>X>X>X>X>X>X>X>X>X>X>X>X>X>X>X>X>X>X>X>X>X>X>X",
">X>X>X>X>X>X>X>X>X>X>X>X>X>X>X>X>X>X>X>X>X>X>X>X>X>X>X>X>X>X>X>X",
">X>X>X>X>X>X>X>X>X>X>X>X>X>X>X>X>X>X>X>X>X>X>X>X>X>X>X>X>X>X>X>X",
">X>X>X>X>X>X>X>X>X>X>X>X>X>X>X>X>X>X>X>X>X>X>X>X>X>X>X>X>X>X>X>X",
">X>X>X>X>X>X>X>X>X>X>X>X>X>X>X>X>X>X>X>X>X>X>X>X>X>X>X>X>X>X>X>X"
};
