/* XPM */
static char *result[] = {
/* columns rows colors chars-per-pixel */
"32 32 189 2 ",
"   c #0C0000",
".  c #160002",
"X  c #1E0000",
"o  c #1C0009",
"O  c #170B0D",
"+  c #220004",
"@  c #290007",
"#  c #23010B",
"$  c #2A000B",
"%  c #260C0D",
"&  c #310007",
"*  c #35030A",
"=  c #3C040D",
"-  c #3F0305",
";  c #270515",
":  c #320212",
">  c #3C0012",
",  c #340B15",
"<  c #350E1B",
"1  c #390D1D",
"2  c #271113",
"3  c #341313",
"4  c #3C2829",
"5  c #4A000D",
"6  c #43000D",
"7  c #4D0015",
"8  c #450D1B",
"9  c #47091B",
"0  c #5B041C",
"q  c #540318",
"w  c #7A0017",
"e  c #560621",
"r  c #5B0122",
"t  c #540D24",
"y  c #4E1E2E",
"u  c #451628",
"i  c #55162E",
"p  c #591C34",
"a  c #5D1B3D",
"s  c #680821",
"d  c #620124",
"f  c #760225",
"g  c #62182F",
"h  c #6F1C37",
"j  c #48282B",
"k  c #4B2634",
"l  c #69263C",
"z  c #5D1E46",
"x  c #542C43",
"c  c #5E2A45",
"v  c #4E3244",
"b  c #6F2449",
"n  c #71374A",
"m  c #89022E",
"M  c #840428",
"N  c #950A32",
"B  c #8C1A3A",
"V  c #941C3E",
"C  c #A2193E",
"Z  c #951A45",
"A  c #B20C42",
"S  c #A71C46",
"D  c #B3144B",
"F  c #B2194A",
"G  c #BC1950",
"H  c #8A3B53",
"J  c #943B56",
"K  c #993B57",
"L  c #A52553",
"P  c #B82656",
"I  c #A53350",
"U  c #BA315D",
"Y  c #AA3563",
"T  c #A73D7C",
"R  c #C00A41",
"E  c #C50D50",
"W  c #C81F5D",
"Q  c #C2235B",
"!  c #C8315B",
"~  c #D51C6C",
"^  c #D51D63",
"/  c #FC1D6F",
"(  c #F51E7B",
")  c #CC266A",
"_  c #D72461",
"`  c #C63461",
"'  c #E32365",
"]  c #F42073",
"[  c #9F425B",
"{  c #B6415D",
"}  c #884E67",
"|  c #8D5270",
" . c #B4446E",
".. c #BD4667",
"X. c #AB5D78",
"o. c #C64867",
"O. c #C6446E",
"+. c #C74C75",
"@. c #D74B7A",
"#. c #CE597C",
"$. c #D0527F",
"%. c #E3547C",
"&. c #C53887",
"*. c #AA4881",
"=. c #BF4E8B",
"-. c #AB5788",
";. c #BD598B",
":. c #B15F86",
">. c #A26388",
",. c #BB6887",
"<. c #BF6F97",
"1. c #CA5C82",
"2. c #C05B8D",
"3. c #DE5A82",
"4. c #C14692",
"5. c #CA6C8D",
"6. c #C96283",
"7. c #DA678F",
"8. c #CA7898",
"9. c #DD799F",
"0. c #E7698D",
"q. c #EE6D95",
"w. c #E96F9B",
"e. c #E06F95",
"r. c #F76F94",
"t. c #E6739D",
"y. c #EA749D",
"u. c #F3759D",
"i. c #FA769A",
"p. c #CF5BA2",
"a. c #DE5BA7",
"s. c #DF62A7",
"d. c #C972A0",
"f. c #D972AD",
"g. c #E06BA0",
"h. c #EB73A1",
"j. c #EB77A7",
"k. c #F57DA3",
"l. c #F57EAE",
"z. c #FA79A8",
"x. c #C4829D",
"c. c #D490A9",
"v. c #CE82B5",
"b. c #DB8BB5",
"n. c #DF94BD",
"m. c #F581A8",
"M. c #E090AB",
"N. c #E588B3",
"B. c #FB82B3",
"V. c #FA8BBC",
"C. c #F589B6",
"Z. c #E494BE",
"A. c #E996BB",
"S. c #E197B3",
"D. c #FB94BA",
"F. c #F793BE",
"G. c #DE91C3",
"H. c #FF8DC4",
"J. c #FF8BCE",
"K. c #E59BC7",
"L. c #F495C2",
"P. c #FD94C4",
"I. c #FF9AC7",
"U. c #FA95CA",
"Y. c #FE9BCC",
"T. c #F594CC",
"R. c #F88DD4",
"E. c #FE9CD3",
"W. c #FE9DDB",
"Q. c #F59FD3",
"!. c #EDA0C9",
"~. c #F7A6C6",
"^. c #FDB3CE",
"/. c #FFA1D3",
"(. c #FCA8D4",
"). c #FFA3DB",
"_. c #FEAADD",
"`. c #F5A8D5",
"'. c #FF9DE3",
"]. c #FFA2E3",
"[. c #FEADE2",
"{. c #FFA3E9",
"}. c #FFACE9",
"|. c #FBBFE4",
" X c #FDB6E7",
".X c #FFB3F7",
"XX c #FFD5FF",
"oX c #FFE2FF",
"OX c None",
/* pixels */
"OXOXOXOXOXOXOXOXOXOXOXOXOXOXOXOXOXOXOXOXOXOXOXOXOXOXOXOXOXOXOXOX",
"OXOXOXOXOXOXOXOXOXOXOXOXOXOXOXOXOXOXOXOXOXOXOXOXOXOXOXOXOXOXOXOX",
"OXOXOXOXOXOXOXOXOXOXOXOXOXOXOXOXOXOXOXOXOXOXOXOXOXOXOXOXOXOXOXOX",
"OXOXOXOXOXOXOXOXOXOXOXOXOXOXOXOXOXOXOXOXOXOXOXOXOXOXOXOXOXOXOXOX",
"OXOXOXOXOXOXOXOXOXOXOXOX, y x v v v k < 4 OXOXOXOXOXOXOXOXOXOXOX",
"OXOXOXOXOXOXOXOXOX  # p X.A.`.[.^.XXK.8.b : o OXOXOXOXOXOXOXOXOX",
"OXOXOXOXOXOXOXOXO o } N.F.Y.).[._./.Y.(.I.,.y ; OXOXOXOXOXOXOXOX",
"OXOXOXOXOXOXOXOXo | K.(.E.).[.;.Y V._.;. .D.c.1 OXOXOXOXOXOXOXOX",
"OXOXOXOXOXOXOXOXa K.(.W.).E.(.F.7.1.L.N.6.#.^.} OXOXOXOXOXOXOXOX",
"OXOXOXOXOXOXOX: ,.E.).E.'.].T.XX~.h b.oXc.h ~.x.u OXOXOXOXOXOXOX",
"OXOXOXOXOXOXOXp A.E.).W.W.W.{.d.e & n.n.i = A.`.n 4 OXOXOXOXOXOX",
"OXOXOXOXOXOX3 H U.W.'.{.{.{..X;.& & G.G.u * (.|.X.= OXOXOXOXOXOX",
"OXOXOXOXOX+ l 5.Y.W.'.{.R.p.a.=.i + v.K.c X -.).f.q X OXOXOXOXOX",
"OXOXOXOX# l 8.I.U.E.W.}.R.=.&.s.-.z G.[.>.z T J.B.Z 9 OXOXOXOXOX",
"OXOXOXo l 8.E.W.E.W.).W.'.'.'.'.).[.[.Q.`.[.].].z.+.,.< OXOXOXOX",
"OXOXOX$ J F._.W.].P.P.Y.W.'.'.'.].'.W.*.*.}.)._.B.u.S.1 OXOXOXOX",
"OXOXOX, [ I._.E.P.j.V.L.E.).W.'.'.'.W.f.f.).[.W.l.B.^.j OXOXOXOX",
"OXOXOX$ J m.Y.D.B.h.l.C.V.E.W.W.).W.).}.).E.E.J.u.t.8., OXOXOXOX",
"OXOXOX2 t J ,.5.e.w.h.w.j.H.T.T.Y.E./.(.I.C.j.s.7.[ 8 2 OXOXOXOX",
"OXOXOXOX. # + 8 I 1.w.h.w.h.j.h.y.y.h.k.k.k.1. .g + . OXOXOXOXOX",
"OXOXOXOXOXOXOXX q M +.m.m.u.q.i.q.3.U N M S U f OXOXOXOXOXOXOXOX",
"OXOXOXOXOXOXOX@ s m V I o.0.r.r.%.P F @.O.m D M OXOXOXOXOXOXOXOX",
"OXOXOXOXOXOXOX= L F N w M o.{ o.! A W W.{.' E G e % OXOXOXOXOXOX",
"OXOXOXOXOXOXOX* S R ' _ F B 6 0 ` ' / ( ] &./ ^ r j OXOXOXOXOXOX",
"OXOXOXOXOXOXOX& B F G Q Z 5 + = Z Q ^ ~ ~ ~ ^ ` e 3 OXOXOXOXOXOX",
"OXOXOXOXOXOXOXOX: 7 5 7 > OXOXj * 6 0 r r r d 0 k OXOXOXOXOXOXOX",
"OXOXOXOXOXOXOXOXOXOXOXOXOXOXOXOXOXOXOXOXOXOXOXOXOXOXOXOXOXOXOXOX",
"OXOXOXOXOXOXOXOXOXOXOXOXOXOXOXOXOXOXOXOXOXOXOXOXOXOXOXOXOXOXOXOX",
"OXOXOXOXOXOXOXOXOXOXOXOXOXOXOXOXOXOXOXOXOXOXOXOXOXOXOXOXOXOXOXOX",
"OXOXOXOXOXOXOXOXOXOXOXOXOXOXOXOXOXOXOXOXOXOXOXOXOXOXOXOXOXOXOXOX",
"OXOXOXOXOXOXOXOXOXOXOXOXOXOXOXOXOXOXOXOXOXOXOXOXOXOXOXOXOXOXOXOX",
"OXOXOXOXOXOXOXOXOXOXOXOXOXOXOXOXOXOXOXOXOXOXOXOXOXOXOXOXOXOXOXOX"
};
