/* XPM */
static char *result[] = {
/* columns rows colors chars-per-pixel */
"32 32 193 2 ",
"   c #1B0002",
".  c #1C0B0C",
"X  c #140607",
"o  c #1D0C13",
"O  c #170C11",
"+  c #240003",
"@  c #2A0205",
"#  c #220E0E",
"$  c #2C000C",
"%  c #33020F",
"&  c #3C090E",
"*  c #360015",
"=  c #3C0514",
"-  c #271919",
";  c #3A0021",
":  c #381726",
">  c #332525",
",  c #3A2527",
"<  c #43000C",
"1  c #4B080A",
"2  c #50000F",
"3  c #420114",
"4  c #440A17",
"5  c #44031B",
"6  c #4D0419",
"7  c #51071D",
"8  c #78020C",
"9  c #7E0112",
"0  c #7F0E19",
"q  c #611617",
"w  c #4E0B22",
"e  c #5A0C25",
"r  c #560624",
"t  c #56182B",
"y  c #4F0430",
"u  c #461431",
"i  c #591737",
"p  c #6F1B27",
"a  c #631B31",
"s  c #781B3B",
"d  c #502533",
"f  c #59323D",
"g  c #7E272A",
"h  c #662A3A",
"j  c #71273A",
"k  c #581A41",
"l  c #632843",
"z  c #66344B",
"x  c #77394D",
"c  c #653553",
"v  c #4C4545",
"b  c #595357",
"n  c #574545",
"m  c #7D4455",
"M  c #85001A",
"N  c #930022",
"B  c #8E162E",
"V  c #97093A",
"C  c #8C1F3B",
"Z  c #861D32",
"A  c #9F1B36",
"S  c #AE0E3F",
"D  c #B30A36",
"F  c #A3133C",
"G  c #852837",
"H  c #94213F",
"J  c #990E46",
"K  c #9F1E4F",
"L  c #BF0844",
"P  c #A11B49",
"I  c #AA1B46",
"U  c #B9194A",
"Y  c #A61A55",
"T  c #AA1C5A",
"R  c #8A3753",
"E  c #963D5A",
"W  c #A12044",
"Q  c #A82258",
"!  c #B32B5B",
"~  c #BA236D",
"^  c #BD3564",
"/  c #C80553",
"(  c #CA1850",
")  c #D80857",
"_  c #C6235A",
"`  c #C3365A",
"'  c #DE1E66",
"]  c #CD1A70",
"[  c #DA236A",
"{  c #CB3964",
"}  c #D52574",
"|  c #C8317B",
" . c #EC267B",
".. c #E9287E",
"X. c #FA2B7C",
"o. c #844D5E",
"O. c #874454",
"+. c #934459",
"@. c #9B4B63",
"#. c #865163",
"$. c #9F5973",
"%. c #AA4162",
"&. c #AE566B",
"*. c #A1417C",
"=. c #B24B7B",
"-. c #A3587A",
";. c #B15672",
":. c #D14F6B",
">. c #CA4C73",
",. c #CA5077",
"<. c #D45378",
"1. c #D64974",
"2. c #E15574",
"3. c #C56A79",
"4. c #AF4D87",
"5. c #BB538F",
"6. c #A66A88",
"7. c #BF6D86",
"8. c #B5728B",
"9. c #A06F91",
"0. c #AF7097",
"q. c #BD79A0",
"w. c #D95D8A",
"e. c #D55B80",
"r. c #E55D88",
"t. c #FF4E9C",
"y. c #CA6B8A",
"u. c #C87896",
"i. c #D4799C",
"p. c #D96794",
"a. c #E7638D",
"s. c #EA6D94",
"d. c #E06195",
"f. c #F06290",
"g. c #E57A99",
"h. c #F1719C",
"j. c #DF77AA",
"k. c #DA74B4",
"l. c #EC66AC",
"z. c #EA7AA7",
"x. c #F07CA5",
"c. c #FF6EB8",
"v. c #EF7CB0",
"b. c #F27DB4",
"n. c #FF73BA",
"m. c #E5819E",
"M. c #DA85A4",
"N. c #D784B0",
"B. c #DD92B0",
"V. c #EA87A8",
"C. c #F585AB",
"Z. c #E490AC",
"A. c #EE85B4",
"S. c #E58CB5",
"D. c #F484B3",
"F. c #F686BA",
"G. c #FE94BD",
"H. c #F797B8",
"J. c #F9A4BB",
"K. c #D69BC5",
"L. c #E98BC2",
"P. c #FF87C2",
"I. c #FF8DC3",
"U. c #FF8DCD",
"Y. c #E499C9",
"T. c #FF95C2",
"R. c #FE95CB",
"E. c #F699CB",
"W. c #FE9BCC",
"Q. c #FF9AC1",
"!. c #FF8BD6",
"~. c #ED98D0",
"^. c #FF95D3",
"/. c #F698D5",
"(. c #FD9BD2",
"). c #F49DDA",
"_. c #FE9DDC",
"`. c #FFA3CE",
"'. c #FBAAC7",
"]. c #FFA4D1",
"[. c #FFA3DC",
"{. c #FDABDC",
"}. c #F8A8DA",
"|. c #FC9DE1",
" X c #FDA2E2",
".X c #FFADE4",
"XX c #FFA9EA",
"oX c #FEB5E9",
"OX c #FFBEE9",
"+X c #FFB4F3",
"@X c #FFC4F8",
"#X c #FFE0FD",
"$X c None",
/* pixels */
"$X$X$X$X$X$X$X$X$X$X$X$X$X$X$X$X$X$X$X$X$X$X$X$X$X$X$X$X$X$X$X$X",
"$X$X$X$X$X$X$X$X$X$X$X$X$X$X$X$X$X$X$X$X$X$X$X$X$X$X$X$X$X$X$X$X",
"$X$X$X$X$X$X$X$X$X$X$X$X$X$X$X$X$X$X$X$X$X$X$X$X$X$X$X$X$X$X$X$X",
"$X$X$X$X$X$X$X$X$X$X$X$X$X$X$X$X$X$X$X$X$X$X$X$X$X$X$X$X$X$X$X$X",
"$X$X$X$X$X$X$X$X$X$X$X$X$X$X$X$X$X$X$X$X$X$X$X$X$X$X$X$X$X$X$X$X",
"$X$X$X$X$X$X$X$X$X$X$X$X$X$X$X$X$X$X$X$X$X$X$X$X$X$X$X$X$X$X$X$X",
"$X$X$X$X$X$X$X$X$XO . # . O O o . # # # $X$X$X$X$X$X$X$X$X$X$X$X",
"$X$X$X$X$X$Xb v , % x -.9.9.0.q.8.$.@.@.z n $X$X$X$X$X$X$X$X$X$X",
"$X$X$X$X$X$X  d #.-.S.`.oX@XoXN.M.J.H.E e t : $X$X$X$X$X$X$X$X$X",
"$X$X$X$X$X  h B.OX.X}.(.).}.Y.-.G 3.J.R j 7.8.@ $X$X$X$X$X$X$X$X",
"$X$X$X$X  f Z.`.}. X_._. X).}.#X&.p '.#XE R `.i X $X$X$X$X$X$X$X",
"$X$X$X$X& M.`.[._.|. X X). XE.u.w a T.y.3 z OXK.: $X$X$X$X$X$X$X",
"$X$X$Xf +.H.W._._._.XX X X+X_.=.* l Q.=.% c @XoXz $X$X$X$X$X$X$X",
"$X$X. e y.Q.R._._._._._.!.c.c.v.; u {.j.* u ).|.-.* $X$X$X$X$X$X",
"$X$X, h V.G.W._.|._._..Xl.~ | b.k i [.F.i y 5.^.V.i $X$X$X$X$X$X",
"$X$X, m V.C.W.[. X[.[.R.U.P.U.^.~.Y.[.}.E.L.(.].i.t $X$X$X$X$X$X",
"$X$X> m V.w.(.|. X[.W.A.R.[.[. XXX+X/.4.L.oX[.`.H.j $X$X$X$X$X$X",
"$X$X> o.m.^ P.|._.^.F.w.D..X_._.|. X/.*.k.[.R.W.V.j $X$X$X$X$X$X",
"$X$X- o.g.P d.P.P.F.h.1.w.I.^.[. X_. XXX X_.(.T.&.< $X$X$X$X$X$X",
"$X$X- x y.W { r.>.>.2.` F ^ C.T.(._._.}.].W.G.g.O.+ $X$X$X$X$X$X",
"$X$X$X$Xe G U I f.}.D D ( ( A e.x.A.V.v.D.D.C.;.= $X$X$X$X$X$X$X",
"$X$X$X$X$Xr V / t.!.) ) X.[ N F <.s.a.a.a.s.%.7 $X$X$X$X$X$X$X$X",
"$X$X$X$X$X+ J } } ] .. . .[ I 9 A :.^ ` ` { V 2 $X$X$X$X$X$X$X$X",
"$X$X$X$X$X+ s K Q Y T Y T W B M 8 9 M M M N L { 5 $X$X$X$X$X$X$X",
"$X$X$X$X$X$X@ < < < 3 3 6 6 1 q g G Z H W P _ ! = $X$X$X$X$X$X$X",
"$X$X$X$X$X$X$X$X$X$X$X$X$X$X$X@ & 4 3 5 7 r r 5 $X$X$X$X$X$X$X$X",
"$X$X$X$X$X$X$X$X$X$X$X$X$X$X$X$X$X$X$X$X$X$X$X$X$X$X$X$X$X$X$X$X",
"$X$X$X$X$X$X$X$X$X$X$X$X$X$X$X$X$X$X$X$X$X$X$X$X$X$X$X$X$X$X$X$X",
"$X$X$X$X$X$X$X$X$X$X$X$X$X$X$X$X$X$X$X$X$X$X$X$X$X$X$X$X$X$X$X$X",
"$X$X$X$X$X$X$X$X$X$X$X$X$X$X$X$X$X$X$X$X$X$X$X$X$X$X$X$X$X$X$X$X",
"$X$X$X$X$X$X$X$X$X$X$X$X$X$X$X$X$X$X$X$X$X$X$X$X$X$X$X$X$X$X$X$X",
"$X$X$X$X$X$X$X$X$X$X$X$X$X$X$X$X$X$X$X$X$X$X$X$X$X$X$X$X$X$X$X$X"
};
