/* XPM */
static char *result[] = {
/* columns rows colors chars-per-pixel */
"32 32 202 2 ",
"   c #080000",
".  c #150102",
"X  c #1C0003",
"o  c #180808",
"O  c #220104",
"+  c #26020B",
"@  c #2A000C",
"#  c #27070B",
"$  c #330003",
"%  c #37030E",
"&  c #2F0110",
"*  c #340213",
"=  c #3A0413",
"-  c #3B0B1C",
";  c #251213",
":  c #2A1414",
">  c #2F1F21",
",  c #3A1126",
"<  c #2C2223",
"1  c #3C2B2D",
"2  c #372326",
"3  c #45000F",
"4  c #4B0319",
"5  c #4E0518",
"6  c #53011C",
"7  c #500012",
"8  c #650018",
"9  c #4A0420",
"0  c #590325",
"q  c #520A20",
"w  c #4A1C2B",
"e  c #441628",
"r  c #5E0F33",
"t  c #5A1D37",
"y  c #650B27",
"u  c #700E34",
"i  c #6B1D39",
"p  c #63193B",
"a  c #751839",
"s  c #482C2C",
"d  c #4C2337",
"f  c #552937",
"g  c #453134",
"h  c #583339",
"j  c #64223E",
"k  c #67293E",
"l  c #70283E",
"z  c #751D41",
"x  c #6B3648",
"c  c #792C46",
"v  c #794667",
"b  c #80052A",
"n  c #8B0937",
"m  c #920830",
"M  c #87173A",
"N  c #95163C",
"B  c #A20432",
"V  c #A80C37",
"C  c #B70036",
"Z  c #A41E3B",
"A  c #84203D",
"S  c #9C1E49",
"D  c #981F55",
"F  c #851B48",
"G  c #AD0641",
"H  c #B7074A",
"J  c #A61947",
"K  c #B7184C",
"L  c #BD1957",
"P  c #86314C",
"I  c #9D2F58",
"U  c #893652",
"Y  c #9D3356",
"T  c #9C375B",
"R  c #842955",
"E  c #AB234C",
"W  c #A22455",
"Q  c #B22C54",
"!  c #B4255A",
"~  c #A43B5A",
"^  c #AB2160",
"/  c #BA2661",
"(  c #BA3768",
")  c #CC034A",
"_  c #C50D46",
"`  c #CB124E",
"'  c #D10150",
"]  c #D5105E",
"[  c #CD245F",
"{  c #D1235C",
"}  c #C33A5A",
"|  c #C71F63",
" . c #E40D63",
".. c #E51468",
"X. c #EF1477",
"o. c #F41C75",
"O. c #FB1F7C",
"+. c #F71D7B",
"@. c #C62765",
"#. c #D72368",
"$. c #C23961",
"%. c #E6236D",
"&. c #E32766",
"*. c #ED267B",
"=. c #E62978",
"-. c #FC267C",
";. c #A6425F",
":. c #895677",
">. c #A14562",
",. c #B14666",
"<. c #AA546F",
"1. c #A74F78",
"2. c #A25775",
"3. c #BF5172",
"4. c #AF677D",
"5. c #D5476D",
"6. c #CE4C7A",
"7. c #D24476",
"8. c #D14A79",
"9. c #D14D75",
"0. c #C95E7B",
"q. c #E54D7E",
"w. c #FF1F84",
"e. c #F0398B",
"r. c #AF5C83",
"t. c #B25C85",
"y. c #B2788C",
"u. c #BF7E94",
"i. c #C54F80",
"p. c #CA5F88",
"a. c #D75987",
"s. c #DE5C93",
"d. c #E55C8B",
"f. c #E95A87",
"g. c #F75C90",
"h. c #C76685",
"j. c #CB6E93",
"k. c #D06091",
"l. c #C67A9E",
"z. c #D97895",
"x. c #D86789",
"c. c #E3638C",
"v. c #EC6D95",
"b. c #ED6D9D",
"n. c #E76893",
"m. c #F46495",
"M. c #F16E9B",
"N. c #F76997",
"B. c #ED709C",
"V. c #F4739E",
"C. c #FE759F",
"Z. c #C46FA0",
"A. c #D97BA8",
"S. c #DF79B0",
"D. c #E379A9",
"F. c #F575A3",
"G. c #FC74A2",
"H. c #F374A8",
"J. c #F27EAB",
"K. c #F878A3",
"L. c #E17BB0",
"P. c #C387A3",
"I. c #D39AB0",
"U. c #E382AF",
"Y. c #E88AAE",
"T. c #FF82AD",
"R. c #EC83B3",
"E. c #E488B3",
"W. c #FC85B4",
"Q. c #FF8AB6",
"!. c #FC83BA",
"~. c #FF89BC",
"^. c #F586BC",
"/. c #EB90BA",
"(. c #F896BB",
"). c #CEA7B6",
"_. c #F8A6BD",
"`. c #F68BC0",
"'. c #FF8EC3",
"]. c #FF92C3",
"[. c #FE93CB",
"{. c #F59CCB",
"}. c #FE9ACC",
"|. c #F49AC3",
" X c #F69DD1",
".X c #FF9BD4",
"XX c #FE9DDC",
"oX c #FF96D0",
"OX c #D8B1C3",
"+X c #FCA3CA",
"@X c #EEB0CC",
"#X c #FDA2D5",
"$X c #FFA1DC",
"%X c #FFAADC",
"&X c #F2AED9",
"*X c #EFB2DA",
"=X c #FF9EE1",
"-X c #FEA3E1",
";X c #FFADE6",
":X c #FFB8E9",
">X c #FFD3F4",
",X c None",
/* pixels */
",X,X,X,X,X,X,X,X,X,X,X,X,X,X,X,X,X,X,X,X,X,X,X,X,X,X,X,X,X,X,X,X",
",X,X,X,X,X,X,X,X,X,X,X,X,X,X,X,X,X,X,X,X,X,X,X,X,X,X,X,X,X,X,X,X",
",X,X,X,X,X,X,X,X,X,X,X,X,X,X,X,X,X,X,X,X,X,X,X,X,X,X,X,X,X,X,X,X",
",X,X,X,X,X,X,X,X,X,X,X,X,X,X,X,X,X,X,X,X,X,X,X,X,X,X,X,X,X,X,X,X",
",X,X,X,X,X,X,X,X,X,X,X,X,X,X,X,X,X,X,X,X,X,X,X,X,X,X,X,X,X,X,X,X",
",X,X,X,X,X,X,X,X,X,X,X* - w d d d e - @   ,X,X,X,X,X,X,X,X,X,X,X",
",X,X,X,X,X,X,X,X# * r 1.A.U.{.+X/.A.h.U 3 + . ,X,X,X,X,X,X,X,X,X",
",X,X,X,X,X,X,X# j r.E.[.}..X$X$X.X}.+X(.h.y.w . < ,X,X,X,X,X,X,X",
",X,X,X,X,X,Xh i l. X-X-X-X-X-XXX%X;Xp.0.+X,.>.l # ,X,X,X,X,X,X,X",
",X,X,X,X,X,X3 j.[.;X$X-X-X-X-X-X-X{.Y.z.z.,.h.P : ,X,X,X,X,X,X,X",
",X,X,X,X,X,Xi (.XX=X=XXXXXXXXX-X-X{.>X_.y P.<.5 @ . ,X,X,X,X,X,X",
",X,X,X,X1 - r.#X-X=X=X=X=X=X-X$X$XXXY.A $ P.k = x O ,X,X,X,X,X,X",
",X,X,X,X2 t S.XX=XXX#XXXXXXX.X.X#X%XL.z @ ).x , y.@ ,X,X,X,X,X,X",
",X,X,X,Xg j L.XX$XXXXXXX-XXX^.R.#X%X[.R # OXd , I.& ,X,X,X,X,X,X",
",X,X,X,Xg t L.XXXX.X.XXX=X$X`.D.R.}.%Xt.p @X:.v I.& ,X,X,X,X,X,X",
",X,X,X,Xs j D..X#XoX.XXXXX$X#XJ.i.^.;X X/.+X&X*XP.O ,X,X,X,X,X,X",
",X,X,X> 4 Y H.[.}.}.].].[.[.].a.W `.-X$X}.T Z.>Xl.+ ,X,X,X,X,X,X",
",X,X,X. u S ( Q.(.J.B.Q.~.~.K.6.( J.-XXX].k.S.#Xl.+ ,X,X,X,X,X,X",
",X,X,Xo F a.x.0.W.c.} 9.9.6.7.7.s.'.$X[.'.'.~.R.2.O ,X,X,X,X,X,X",
",X,X,X. D .X#XF a.m.} Z E E $.d.H.!.'.].'.b.F.p.i @ ,X,X,X,X,X,X",
",X,X,XO ^ e.=.H V q.C.c.n.B.V.V.b.b.K.M.V.F.m.( 8 $ ,X,X,X,X,X,X",
",X,X,XO ^ w.X...) K d.T.V.V.V.K.V.M.C.N.f.g.[ H ! F h ,X,X,X,X,X",
",X,X,XO J ..O.O.#.B J c.V.V.N.v.v.v.f.5.{ &.) ] =.@.n x ,X,X,X,X",
",X,X,XX m %.O.-.&.B 8 A Y ~ ~ ~ >.( Q V _ ) ..-.o.*.7.a : ,X,X,X",
",X,X,XO u { -.o.` m 4 O X . X . . 5 M V C ) '  .o.*./ u 1 ,X,X,X",
",X,X,X. 8 E [ @.Q 8 ,X,X,X,X,X,X,X; 7 N J K L | #.@.I 4 ; ,X,X,X",
",X,X,X,XO % 4 4 q ,X,X,X,X,X,X,X,X,X,X= 4 6 6 0 0 9 * 1 ,X,X,X,X",
",X,X,X,X,X,X,X,X,X,X,X,X,X,X,X,X,X,X,X,X,X,X,X,X,X,X,X,X,X,X,X,X",
",X,X,X,X,X,X,X,X,X,X,X,X,X,X,X,X,X,X,X,X,X,X,X,X,X,X,X,X,X,X,X,X",
",X,X,X,X,X,X,X,X,X,X,X,X,X,X,X,X,X,X,X,X,X,X,X,X,X,X,X,X,X,X,X,X",
",X,X,X,X,X,X,X,X,X,X,X,X,X,X,X,X,X,X,X,X,X,X,X,X,X,X,X,X,X,X,X,X",
",X,X,X,X,X,X,X,X,X,X,X,X,X,X,X,X,X,X,X,X,X,X,X,X,X,X,X,X,X,X,X,X"
};
