/* XPM */
static char *result[] = {
/* columns rows colors chars-per-pixel */
"32 32 198 2 ",
"   c #0F0000",
".  c #150202",
"X  c #1C0304",
"o  c #1F0D0D",
"O  c #240004",
"+  c #2C0002",
"@  c #2C000C",
"#  c #29070D",
"$  c #34000C",
"%  c #3B000B",
"&  c #33080E",
"*  c #380714",
"=  c #2B1C1D",
"-  c #2A1213",
";  c #3D111C",
":  c #291C20",
">  c #271C22",
",  c #2F2023",
"<  c #3C2929",
"1  c #352525",
"2  c #46000B",
"3  c #430116",
"4  c #4C051B",
"5  c #490319",
"6  c #54001B",
"7  c #5B031A",
"8  c #52101F",
"9  c #63011C",
"0  c #5A0624",
"q  c #421921",
"w  c #581228",
"e  c #501830",
"r  c #6C0D26",
"t  c #640022",
"y  c #770827",
"u  c #75122E",
"i  c #7C1437",
"p  c #751A3A",
"a  c #412929",
"s  c #5D293D",
"d  c #453A3A",
"f  c #6D263B",
"g  c #6D2B3F",
"h  c #6F2130",
"j  c #6D2D4A",
"k  c #752B42",
"l  c #6C3E50",
"z  c #764A5B",
"x  c #810523",
"c  c #8E0024",
"v  c #91072A",
"b  c #890431",
"n  c #9F063A",
"m  c #9E0331",
"M  c #81143B",
"N  c #98143A",
"B  c #AC023C",
"V  c #AE0D3D",
"C  c #BC023C",
"Z  c #B60A3F",
"A  c #A1173B",
"S  c #9D1E44",
"D  c #951156",
"F  c #BD0D45",
"G  c #B60B4B",
"H  c #AC1B43",
"J  c #A81A4C",
"K  c #B21D4B",
"L  c #AC1753",
"P  c #BD1D53",
"I  c #982841",
"U  c #8D304D",
"Y  c #9F2653",
"T  c #873B58",
"R  c #983554",
"E  c #B0294B",
"W  c #AB2B54",
"Q  c #B62456",
"!  c #BC255C",
"~  c #AD345D",
"^  c #BB3C57",
"/  c #813E60",
"(  c #A53967",
")  c #BB3D6E",
"_  c #C9094C",
"`  c #D1034A",
"'  c #C6134D",
"]  c #C10852",
"[  c #C11D56",
"{  c #D51355",
"}  c #C3255B",
"|  c #C41C62",
" . c #D41460",
".. c #EA0D63",
"X. c #EC1F64",
"o. c #EF1C75",
"O. c #FC1E7D",
"+. c #F31575",
"@. c #CE2A69",
"#. c #D32A63",
"$. c #CD3763",
"%. c #D33C6D",
"&. c #D52870",
"*. c #E12564",
"=. c #F42C6F",
"-. c #EF2373",
";. c #F1237D",
":. c #8E4F66",
">. c #9B5564",
",. c #8E4D70",
"<. c #8F5774",
"1. c #A1496C",
"2. c #AD4669",
"3. c #AA5167",
"4. c #A84E72",
"5. c #A45175",
"6. c #A45778",
"7. c #A3637D",
"8. c #CA476C",
"9. c #CB4C7D",
"0. c #C54A7B",
"q. c #C8557A",
"w. c #D8577A",
"e. c #E2477C",
"r. c #E05E7F",
"t. c #DA3E8A",
"y. c #EE3A82",
"u. c #A84D83",
"i. c #A66081",
"p. c #BD7B93",
"a. c #DE4186",
"s. c #C35881",
"d. c #D55786",
"f. c #E45B82",
"g. c #CE6682",
"h. c #C1758B",
"j. c #D86599",
"k. c #DF769E",
"l. c #E8658A",
"z. c #E56B9B",
"x. c #EB6D9B",
"c. c #E96695",
"v. c #F46C9B",
"b. c #FB6D9D",
"n. c #E67196",
"m. c #EE729D",
"M. c #E97297",
"N. c #F2759E",
"B. c #D155A1",
"V. c #FF5EA6",
"C. c #E86EA3",
"Z. c #F86DA2",
"A. c #E974A7",
"S. c #F474A3",
"D. c #F971A0",
"F. c #FD7CA2",
"G. c #F376AB",
"H. c #FD7BA9",
"J. c #F37AA6",
"K. c #E67EB1",
"L. c #F47BB3",
"P. c #FA67B8",
"I. c #E3849B",
"U. c #DA82AF",
"Y. c #C991AF",
"T. c #ED87AE",
"R. c #F281AB",
"E. c #E589B3",
"W. c #F283B3",
"Q. c #FE85B2",
"!. c #FD8CBC",
"~. c #FF86B7",
"^. c #EE91BC",
"/. c #FF97BC",
"(. c #FE8CC3",
"). c #F48EC0",
"_. c #FF93C3",
"`. c #F594CC",
"'. c #FD95CB",
"]. c #FD9ACC",
"[. c #F19ACB",
"{. c #FE9DD4",
"}. c #FC9EDC",
"|. c #F99AD3",
" X c #F2A0CC",
".X c #FEA1D6",
"XX c #F2A2DC",
"oX c #FEA3DB",
"OX c #F3A5D3",
"+X c #FEB2DF",
"@X c #F3B5D7",
"#X c #FDA4E1",
"$X c #FFA8E6",
"%X c #FFBFE6",
"&X c #FFBAF9",
"*X c #FFC8FF",
"=X c #FFD3F5",
"-X c None",
/* pixels */
"-X-X-X-X-X-X-X-X-X-X-X-X-X-X-X-X-X-X-X-X-X-X-X-X-X-X-X-X-X-X-X-X",
"-X-X-X-X-X-X-X-X-X-X-X-X-X-X-X-X-X-X-X-X-X-X-X-X-X-X-X-X-X-X-X-X",
"-X-X-X-X-X-X-X-X-X-X-X-X-X-X-X-X-X-X-X-X-X-X-X-X-X-X-X-X-X-X-X-X",
"-X-X-X-X-X-X-X-X-X-X-X= 1 = : > : : , = -X-X-X-X-X-X-X-X-X-X-X-X",
"-X-X-X-X-X-X-X-X-X-X. * T / <.<.,./ j O 1 -X-X-X-X-X-X-X-X-X-X-X",
"-X-X-X-X-X-X-X-X. @ e i.^.].@X$XoX[.U.5.w O -X-X-X-X-X-X-X-X-X-X",
"-X-X-X-X-X-X-XX w 1.U.oXoX.X|.XXXXXXoX].A.T &   -X-X-X-X-X-X-X-X",
"-X-X-X-X-X-X-X* 4.!..X{.{.oX}.}.XXoXoX( q./.>.O -X-X-X-X-X-X-X-X",
"-X-X-X-X-X-X- s U.{.oX{..X.X+X{..X|.OX%X7.k I.h < -X-X-X-X-X-X-X",
"-X-X-X-X-X. $ 6.{.{.oXoX].`.^.A.j.K. X=X:.% g.3.- -X-X-X-X-X-X-X",
"-X-X-X-X-Xo f A.$X}.oXoX{.].K.j.9.d.L.T.2.u u h.s -X-X-X-X-X-X-X",
"-X-X-X-X-XX U ~.}.}.#X{.{.oX{.].L.c.9.!.!.W 2 p.z -X-X-X-X-X-X-X",
"-X-X-X-X-XX 5.'.#X}.`.{.}.}.oX{.oXL.! &.t.D $ Y.z -X-X-X-X-X-X-X",
"-X-X-X-X-X. 5.].#X}.`.'.|.|.'.].{.G.L a.P.B.u.@Xz -X-X-X-X-X-X-X",
"-X-X-X-X-X. 5._.oX#X{.'.(.(._.!.H.d.W (.&X$X.XE.f -X-X-X-X-X-X-X",
"-X-X-X-X-X. U R.|.oXoX'.(.(.!.F.f.8.0.(.+X.X!.( i 6 + O -X-X-X-X",
"-X-X-X-X-XX R M.K.'.{.oX_.z.w.E E w.Q.].{.(.C.S.Q n } N ; -X-X-X",
"-X-X-X-X-X2 I r.J.L.W._.!.Q.S.l.l.F./.!.L.A.x.b.#.' =.} * -X-X-X",
"-X-X-X-Xt b x $.D.Z.C.J.Q.Q.!.!.~.Q.Q.S.C.S.c.$.F { X.P 4 -X-X-X",
"-X-X-X5 2.e.v N f.v.m.m.m.m.x.m.S.x.Z.S.D.v.%.V C { *.J $ -X-X-X",
"-X-X-X2 u.*Xe.c A w.N.N.D.b.b.b.b.v.M.H.D.%.B C ` _ B p @ -X-X-X",
"-X-X-X4 &.V.y.G m H S ~ q.m.m.M.n.n.q.W A V Z ' ' J u $ -X-X-X-X",
"-X-X-X0 &.+.+.+. .B y 9 w g g f f f 8 7 x H K A r 4 @ -X-X-X-X-X",
"-X-X-X5  .y.+.y.o._ J 9 & a a a a < < * r y y 7 q -X-X-X-X-X-X-X",
"-X-X-X@ M G -...` ] P 9 -X-X-X-X-X-X-Xd . X . . -X-X-X-X-X-X-X-X",
"-X-X-X-X$ i } @.[ Q ( -X-X-X-X-X-X-X-X-X-X-X-X-X-X-X-X-X-X-X-X-X",
"-X-X-X-X-X$ 4 0 6 4 3 -X-X-X-X-X-X-X-X-X-X-X-X-X-X-X-X-X-X-X-X-X",
"-X-X-X-X-X-X-X-X-X-X-X-X-X-X-X-X-X-X-X-X-X-X-X-X-X-X-X-X-X-X-X-X",
"-X-X-X-X-X-X-X-X-X-X-X-X-X-X-X-X-X-X-X-X-X-X-X-X-X-X-X-X-X-X-X-X",
"-X-X-X-X-X-X-X-X-X-X-X-X-X-X-X-X-X-X-X-X-X-X-X-X-X-X-X-X-X-X-X-X",
"-X-X-X-X-X-X-X-X-X-X-X-X-X-X-X-X-X-X-X-X-X-X-X-X-X-X-X-X-X-X-X-X",
"-X-X-X-X-X-X-X-X-X-X-X-X-X-X-X-X-X-X-X-X-X-X-X-X-X-X-X-X-X-X-X-X"
};
