/* XPM */
static char *result[] = {
/* columns rows colors chars-per-pixel */
"32 32 194 2 ",
"   c #080003",
".  c #150001",
"X  c #190105",
"o  c #1A040B",
"O  c #170C0C",
"+  c #1F0010",
"@  c #1C1111",
"#  c #220101",
"$  c #22000D",
"%  c #2B010B",
"&  c #27080B",
"*  c #39020E",
"=  c #3A080D",
"-  c #2B0112",
";  c #250015",
":  c #3B0015",
">  c #370616",
",  c #221314",
"<  c #2B1A1B",
"1  c #23181B",
"2  c #2F2525",
"3  c #3B2929",
"4  c #312526",
"5  c #42000D",
"6  c #4B0216",
"7  c #450619",
"8  c #490419",
"9  c #57031D",
"0  c #4E1B1B",
"q  c #610B1A",
"w  c #78001C",
"e  c #63111D",
"r  c #430D21",
"t  c #4A0F24",
"y  c #4B1B2E",
"u  c #4F172C",
"i  c #521A2F",
"p  c #551022",
"a  c #4C1B3A",
"s  c #690D21",
"d  c #7D0125",
"f  c #730526",
"g  c #661934",
"h  c #78173C",
"j  c #43202C",
"k  c #4D2635",
"l  c #51253A",
"z  c #44393B",
"x  c #582B43",
"c  c #642643",
"v  c #732F46",
"b  c #6C3249",
"n  c #6F2A56",
"m  c #742C5B",
"M  c #663452",
"N  c #7E3A53",
"B  c #614550",
"V  c #7A4359",
"C  c #734562",
"Z  c #87001F",
"A  c #830424",
"S  c #8C0026",
"D  c #8F0029",
"F  c #92002C",
"G  c #970032",
"H  c #881939",
"J  c #941839",
"K  c #A50439",
"L  c #B9003D",
"P  c #A4173E",
"I  c #87203B",
"U  c #9E0A41",
"Y  c #851A45",
"T  c #981D42",
"R  c #AB0B43",
"E  c #B30A43",
"W  c #BB084C",
"Q  c #A91B4A",
"!  c #BA164D",
"~  c #B71042",
"^  c #BE1652",
"/  c #802641",
"(  c #9F2240",
")  c #873544",
"_  c #853C5A",
"`  c #893A54",
"'  c #923B58",
"]  c #A2294F",
"[  c #AA355A",
"{  c #9C3863",
"}  c #A63C68",
"|  c #CB1A58",
" . c #D41357",
".. c #D51D65",
"X. c #DF1B68",
"o. c #ED1E6F",
"O. c #E71D71",
"+. c #F41673",
"@. c #F21B77",
"#. c #F61C7D",
"$. c #D62269",
"%. c #C7316A",
"&. c #D93974",
"*. c #E8236D",
"=. c #E12270",
"-. c #F1247D",
";. c #F92677",
":. c #82455D",
">. c #A94C5C",
",. c #99476C",
"<. c #94526F",
"1. c #9B4F72",
"2. c #885374",
"3. c #905E78",
"4. c #A74973",
"5. c #B64D76",
"6. c #A95877",
"7. c #B55279",
"8. c #BD547E",
"9. c #AF6279",
"0. c #C85076",
"q. c #D25171",
"w. c #DD677F",
"e. c #CB3C8A",
"r. c #FA2080",
"t. c #F83084",
"y. c #AF5F83",
"u. c #B25482",
"i. c #9E6883",
"p. c #B56985",
"a. c #BB6D90",
"s. c #C84883",
"d. c #C65584",
"f. c #D5588C",
"g. c #D85799",
"h. c #CB648D",
"j. c #C3648B",
"k. c #D76889",
"l. c #CB7697",
"z. c #CF709B",
"x. c #D7789C",
"c. c #E56E8F",
"v. c #F2608C",
"b. c #E96493",
"n. c #F16391",
"m. c #F77499",
"M. c #CE6CA4",
"N. c #DC76A3",
"B. c #DA7CA2",
"V. c #E576A6",
"C. c #F276A7",
"Z. c #E764B2",
"A. c #E872B7",
"S. c #DB84B3",
"D. c #E482A8",
"F. c #FF84AB",
"G. c #E88EB5",
"H. c #F184B4",
"J. c #F781BA",
"K. c #FF8DBB",
"L. c #FC86B5",
"P. c #E990BA",
"I. c #F894BD",
"U. c #E989C5",
"Y. c #FF8DC5",
"T. c #F88AC2",
"R. c #EF99CC",
"E. c #FE92C5",
"W. c #FE9DC6",
"Q. c #FE95CB",
"!. c #FE9ACB",
"~. c #F596CA",
"^. c #FE9BD4",
"/. c #FE9DDB",
"(. c #FF96D0",
"). c #FDACCD",
"_. c #FFA7C2",
"`. c #FEA2D5",
"'. c #FDACD3",
"]. c #FEA3DC",
"[. c #FFABDD",
"{. c #FEB1DE",
"}. c #FF9CE4",
"|. c #FF96E1",
" X c #FFA3E2",
".X c #FFABE3",
"XX c #FFACE8",
"oX c #FFB4E5",
"OX c #FFBBE4",
"+X c #FFB2EB",
"@X c #FFB7F2",
"#X c #FFC5E3",
"$X c #FFDCFC",
"%X c None",
/* pixels */
"%X%X%X%X%X%X%X%X%X%X%X%X%X%X%X%X%X%X%X%X%X%X%X%X%X%X%X%X%X%X%X%X",
"%X%X%X%X%X%X%X%X%X%X%X%X%X%X%X%X%X%X%X%X%X%X%X%X%X%X%X%X%X%X%X%X",
"%X%X%X%X%X%X%X%X%X%X%X%X%X%X%X%X%X%X%X%X%X%X%X%X%X%X%X%X%X%X%X%X",
"%X%X%X%X%X%X%X%X%X% > i a x l y r * %X%X%X%X%X%X%X%X%X%X%X%X%X%X",
"%X%X%X%X%X%X%X. * ` h.N.R.XX`.S.z.4.r X 4 %X%X%X%X%X%X%X%X%X%X%X",
"%X%X%X%X%X%Xo > 6.H.W.Q.]..X/.(.!.'.S.b . @ %X%X%X%X%X%X%X%X%X%X",
"%X%X%X%X%X%X: y.R.^.'.[.I.{ f.].Y.} N.l.i . %X%X%X%X%X%X%X%X%X%X",
"%X%X%X%X%Xk ,.~. X/./.`.!.V.u.x.W.x.5.D.p.> %X%X%X%X%X%X%X%X%X%X",
"%X%X%X%X. c S..X/. X.X`.[.$X1._ #X$X:.9._.g o %X%X%X%X%X%X%X%X%X",
"%X%X%X%X# 6.'././.}./. X!.{ - V ).9.% V ).6.% %X%X%X%X%X%X%X%X%X",
"%X%X%X3 g B.`.^.]./.}.@XE.h $ C '.u.; 2.{.l.& < %X%X%X%X%X%X%X%X",
"%X%XB :.z.E.`././. XA.g.f.Y $ M [.M.; a S.P.:.# 1 %X%X%X%X%X%X%X",
"%Xj N '.[.[.].^.]. XZ.e.s.s.c 2..XU.m n M. XP._ &   %X%X%X%X%X%X",
"X u x.'.`.].]./.]./.|.}././.'.'.`.].`..X/./.(.P.M 1 %X%X%X%X%X%X",
"o v D._.]. X^.E.`./.]./. X].{.OXI.} T.oX^.Q.^.{.3.1 %X%X%X%X%X%X",
"< N V.L.~.^.Q.Y.~.E.^.Q.T.Z.4.} [ d u.Q.!.J.~.OXi.< %X%X%X%X%X%X",
". v k.C.Y.L.A.Y.E.E.K.n.&.%.f.5.G F J k.F.b.Q.[.<.. %X%X%X%X%X%X",
"2 y ' 7.j.7.f.C.K.K.n.^ L ..+X].$.| Z J q.0.j.a.b 3 %X%X%X%X%X%X",
"%Xz X X o % v c.m.v.! W @.@.-.t.o.*.~ Z J ' > o %X%X%X%X%X%X%X%X",
"%X%X%X%X%XO 5 >.w.P E X.r.#.+.+.;. .! J 9 : %X%X%X%X%X%X%X%X%X%X",
"%X%X%X%X%X%X%X0 I e E =.-.-.O.X. .~ P e = %X%X%X%X%X%X%X%X%X%X%X",
"%X%X%X%X%X%X%X# e A G ! $.$.^ K F d e = %X%X%X%X%X%X%X%X%X%X%X%X",
"%X%X%X%X%X%X%X* T K D A S S A f 8 # X %X%X%X%X%X%X%X%X%X%X%X%X%X",
"%X%X%X%X%X%X%X: ] Q ( H H H ) p & %X%X%X%X%X%X%X%X%X%X%X%X%X%X%X",
"%X%X%X%X%X%X%X%X8 6 8 8 t 7 r k %X%X%X%X%X%X%X%X%X%X%X%X%X%X%X%X",
"%X%X%X%X%X%X%X%X%X%X%X%X%X%X%X%X%X%X%X%X%X%X%X%X%X%X%X%X%X%X%X%X",
"%X%X%X%X%X%X%X%X%X%X%X%X%X%X%X%X%X%X%X%X%X%X%X%X%X%X%X%X%X%X%X%X",
"%X%X%X%X%X%X%X%X%X%X%X%X%X%X%X%X%X%X%X%X%X%X%X%X%X%X%X%X%X%X%X%X",
"%X%X%X%X%X%X%X%X%X%X%X%X%X%X%X%X%X%X%X%X%X%X%X%X%X%X%X%X%X%X%X%X",
"%X%X%X%X%X%X%X%X%X%X%X%X%X%X%X%X%X%X%X%X%X%X%X%X%X%X%X%X%X%X%X%X",
"%X%X%X%X%X%X%X%X%X%X%X%X%X%X%X%X%X%X%X%X%X%X%X%X%X%X%X%X%X%X%X%X",
"%X%X%X%X%X%X%X%X%X%X%X%X%X%X%X%X%X%X%X%X%X%X%X%X%X%X%X%X%X%X%X%X"
};
