/* XPM */
static char *result[] = {
/* columns rows colors chars-per-pixel */
"32 32 183 2 ",
"   c #0D0000",
".  c #160000",
"X  c #1F0002",
"o  c #1B0B0C",
"O  c #1A0D11",
"+  c #240204",
"@  c #2B0005",
"#  c #25020C",
"$  c #2D0109",
"%  c #340106",
"&  c #31010B",
"*  c #3F000A",
"=  c #3C0216",
"-  c #310019",
";  c #3D0618",
":  c #261115",
">  c #301111",
",  c #311B1C",
"<  c #3A1F1F",
"1  c #3C1F21",
"2  c #382828",
"3  c #4E000A",
"4  c #420317",
"5  c #430A12",
"6  c #4C031B",
"7  c #470616",
"8  c #6A0019",
"9  c #76001E",
"0  c #470A23",
"q  c #5E0028",
"w  c #560925",
"e  c #481828",
"r  c #561327",
"t  c #510F38",
"y  c #471D34",
"u  c #660226",
"i  c #7A0728",
"p  c #7D1529",
"a  c #671A33",
"s  c #721D37",
"d  c #5A2434",
"f  c #473139",
"g  c #652538",
"h  c #5C2742",
"j  c #692845",
"k  c #782841",
"l  c #64364A",
"z  c #7F425B",
"x  c #774869",
"c  c #870019",
"v  c #8E001A",
"b  c #90001F",
"n  c #84172D",
"m  c #8B1333",
"M  c #931C34",
"N  c #9E133D",
"B  c #A20027",
"V  c #B00137",
"C  c #AE133C",
"Z  c #911740",
"A  c #BB0B44",
"S  c #B60B44",
"D  c #AF1249",
"F  c #B0184E",
"G  c #B01D5A",
"H  c #8C2F4E",
"J  c #96274F",
"K  c #963448",
"L  c #932E50",
"P  c #8B3C56",
"I  c #8E3F59",
"U  c #963D5F",
"Y  c #A42444",
"T  c #AA2252",
"R  c #B6295B",
"E  c #B93658",
"W  c #A13B62",
"Q  c #B9306C",
"!  c #B92172",
"~  c #C9064A",
"^  c #CF1C5B",
"/  c #D11653",
"(  c #CA245D",
")  c #D20E65",
"_  c #CD1467",
"`  c #E71D6F",
"'  c #E01E74",
"]  c #C23E66",
"[  c #CE2A74",
"{  c #D5387A",
"}  c #ED2475",
"|  c #F62C7D",
" . c #86425B",
".. c #A4405D",
"X. c #BA455F",
"o. c #854F64",
"O. c #9B4D65",
"+. c #87516A",
"@. c #A94B69",
"#. c #AA516D",
"$. c #AC4876",
"%. c #AB5C75",
"&. c #AF5C7E",
"*. c #AC5275",
"=. c #A7617B",
"-. c #C54870",
";. c #CF3D87",
":. c #AF4380",
">. c #B25D88",
",. c #BF5E91",
"<. c #BC6687",
"1. c #B8758C",
"2. c #BA7791",
"3. c #CB4D85",
"4. c #C75D86",
"5. c #EA5C8C",
"6. c #EC5E99",
"7. c #C36889",
"8. c #D5618A",
"9. c #C66991",
"0. c #D16E92",
"q. c #D56B9A",
"w. c #D47394",
"e. c #DF749D",
"r. c #D67A9C",
"t. c #E7668B",
"y. c #E46C93",
"u. c #E56794",
"i. c #E65AA9",
"p. c #DE6DA1",
"a. c #DA79A3",
"s. c #D47EA8",
"d. c #DC75B1",
"f. c #E779A8",
"g. c #F578A7",
"h. c #FF6FB8",
"j. c #FF62B5",
"k. c #F17AB6",
"l. c #FF6FC2",
"z. c #DF87AD",
"x. c #DF88B0",
"c. c #DD88BA",
"v. c #E68DAD",
"b. c #FE83AC",
"n. c #EC89B8",
"m. c #FC80B4",
"M. c #FA88B9",
"N. c #E593BC",
"B. c #E89AB6",
"V. c #F393BC",
"C. c #FF92BE",
"Z. c #FB9BBD",
"A. c #FE8CC1",
"S. c #FF8BCE",
"D. c #F58EC7",
"F. c #ED93C8",
"G. c #EA98CB",
"H. c #FD94C3",
"J. c #FB92CD",
"K. c #FE9CCD",
"L. c #F49AC9",
"P. c #FF87D8",
"I. c #FE93D3",
"U. c #FE9CD4",
"Y. c #FE9CDC",
"T. c #F599D8",
"R. c #F4A3C7",
"E. c #FFB5CE",
"W. c #FDA3D5",
"Q. c #FEA3DB",
"!. c #FEAFDA",
"~. c #F8A8D6",
"^. c #FFB2DC",
"/. c #FE9DE3",
"(. c #FF9BE8",
"). c #FEA3E3",
"_. c #FFAAE3",
"`. c #FFA3EA",
"'. c #FFAAEA",
"]. c #FFB6EC",
"[. c #FFB3F8",
"{. c #FFE1FD",
"}. c None",
/* pixels */
"}.}.}.}.}.}.}.}.}.}.}.}.}.}.}.}.}.}.}.}.}.}.}.}.}.}.}.}.}.}.}.}.",
"}.}.}.}.}.}.}.}.}.}.}.}.}.}.}.}.}.}.}.}.}.}.}.}.}.}.}.}.}.}.}.}.",
"}.}.}.}.}.}.}.}.}.}.}.}.}.}.}.}.}.}.}.}.}.}.}.}.}.}.}.}.}.}.}.}.",
"}.}.}.}.}.}.}.}.}.}.}.}.}.}.}.}.}.}.}.}.}.}.}.}.}.}.}.}.}.}.}.}.",
"}.}.}.}.}.}.}.}.}.}.}.}.}.}.}.}.}.}.}.}.}.}.}.}.}.}.}.}.}.}.}.}.",
"}.}.}.}.}.}.}.}.}.}.. X + @ $ @ $ @ X }.}.}.}.}.}.}.}.}.}.}.}.}.",
"}.}.}.}.}.}.}.}.o : e g  .=.1.2.%.O.d : o }.}.}.}.}.}.}.}.}.}.}.",
"}.}.}.}.}.}.}.+ j >.s.c.G.G.~._.W.V.v.z.P e }.}.}.}.}.}.}.}.}.}.",
"}.}.}.}.}.}.+ g z.W._.].`.'.U.,.q.K.^.w.w.s X }.}.}.}.}.}.}.}.}.",
"}.}.}.}.}.X a w.L.W.L.K.T.Q.R.&.L w.R.O.@.#.y   }.}.}.}.}.}.}.}.",
"}.}.}.}.}.& *.H._.~.Q.Q.).T.Q.{.@.s E.{.H I 1.+ }.}.}.}.}.}.}.}.",
"}.}.}.}.< d N._.T.).).).T.Y.K.9.; g Z.4.4 o.B.4 2 }.}.}.}.}.}.}.",
"}.}.}.}.% %.Q.'././.`.`./.[./.$.# l V.W @ +.!.U # }.}.}.}.}.}.}.",
"}.}.}.}.s f.Y./././.(.(.P.l.h.f.- y ^.r.$ j m.4.& }.}.}.}.}.}.}.",
"}.}.O 0 9.K.Y./.T.Y././.i.! ;.k.t h ^.n.0 w 3.3.4 }.}.}.}.}.}.}.",
"}.}.: l v.!././.I.I.Q.Y.I.S.S.J.F.G.W.W.G.N.A.p.<.d }.}.}.}.}.}.",
"}.}., z L.Q.Y.Y.A.M.K.W._._.).).Q.'.D.$.L.].K.f.L.j }.}.}.}.}.}.",
"}.}., z H.U.W.W.k.y.g.C.W.Q.'.`.`.`.I.:.d.Q.C.e.^.x }.}.}.}.}.}.",
"}.}.: j a.H.R.C.y.] -.8.f.n.S.I.I.I.Y.).U.U.f.$.~.x }.}.}.}.}.}.",
"}.}.o e >.0.v.e.E Y J 9 8 N R R { 6.g.A.H.C.&.a 2.h }.}.}.}.}.}.",
"}.}.}.f = 6 r w i C R C.t.F ( ^ S ( 5.g.b.y.P @ ; }.}.}.}.}.}.}.",
"}.}.}.}.}.}.}.1 u G { P.j.' | | ~ V ] 8.w.K 4 }.}.}.}.}.}.}.}.}.",
"}.}.}.}.}.}.}.}.q Q [ _ ) } ` } / B c X...r }.}.}.}.}.}.}.}.}.}.",
"}.}.}.}.}.}.}.}.7 J T D S A ~ C C b c M 7 }.}.}.}.}.}.}.}.}.}.}.",
"}.}.}.}.}.}.}.}.}.5 3 i m m m n p n M K & }.}.}.}.}.}.}.}.}.}.}.",
"}.}.}.}.}.}.}.}.}.}.}.@ & & & $ % 5 7 5 }.}.}.}.}.}.}.}.}.}.}.}.",
"}.}.}.}.}.}.}.}.}.}.}.}.}.}.}.}.}.}.}.}.}.}.}.}.}.}.}.}.}.}.}.}.",
"}.}.}.}.}.}.}.}.}.}.}.}.}.}.}.}.}.}.}.}.}.}.}.}.}.}.}.}.}.}.}.}.",
"}.}.}.}.}.}.}.}.}.}.}.}.}.}.}.}.}.}.}.}.}.}.}.}.}.}.}.}.}.}.}.}.",
"}.}.}.}.}.}.}.}.}.}.}.}.}.}.}.}.}.}.}.}.}.}.}.}.}.}.}.}.}.}.}.}.",
"}.}.}.}.}.}.}.}.}.}.}.}.}.}.}.}.}.}.}.}.}.}.}.}.}.}.}.}.}.}.}.}.",
"}.}.}.}.}.}.}.}.}.}.}.}.}.}.}.}.}.}.}.}.}.}.}.}.}.}.}.}.}.}.}.}."
};
