/* XPM */
static char *result[] = {
/* columns rows colors chars-per-pixel */
"32 32 196 2 ",
"   c #0B0001",
".  c #130303",
"X  c #1B0103",
"o  c #15040A",
"O  c #170B0C",
"+  c #1B0A0A",
"@  c #1D050A",
"#  c #260008",
"$  c #2D000D",
"%  c #250003",
"&  c #3B0004",
"*  c #35020A",
"=  c #3C000C",
"-  c #320006",
";  c #2C0011",
":  c #3C0414",
">  c #38031B",
",  c #39091B",
"<  c #30171A",
"1  c #3E202F",
"2  c #400007",
"3  c #49000B",
"4  c #440213",
"5  c #440318",
"6  c #49071A",
"7  c #56051F",
"8  c #5E0119",
"9  c #6B000D",
"0  c #64001E",
"q  c #480728",
"w  c #440C23",
"e  c #5B0322",
"r  c #550621",
"t  c #481121",
"y  c #511F2E",
"u  c #4D1C33",
"i  c #5C1734",
"p  c #6B0528",
"a  c #760829",
"s  c #6E1322",
"d  c #6C1B31",
"f  c #731637",
"g  c #422A2D",
"h  c #4F273C",
"j  c #532A3D",
"k  c #542134",
"l  c #4E3738",
"z  c #632236",
"x  c #603A3C",
"c  c #7C1840",
"v  c #5A2D41",
"b  c #572C43",
"n  c #642544",
"m  c #6F2B42",
"M  c #683549",
"N  c #663C51",
"B  c #7A3E53",
"V  c #7F325C",
"C  c #81011D",
"Z  c #8C052C",
"A  c #940D33",
"S  c #9C0A33",
"D  c #8A1435",
"F  c #831B36",
"G  c #8F1E3C",
"H  c #801E3F",
"J  c #971234",
"K  c #A10D3A",
"L  c #AB083D",
"P  c #801F44",
"I  c #9E1A47",
"U  c #BD0C46",
"Y  c #B30041",
"T  c #A81142",
"R  c #BB134C",
"E  c #BC1C4F",
"W  c #B01746",
"Q  c #BD1750",
"!  c #812240",
"~  c #852D52",
"^  c #96345A",
"/  c #A4344D",
"(  c #AB2753",
")  c #AD2658",
"_  c #B62C5D",
"`  c #BA2052",
"'  c #A63A57",
"]  c #9B2B63",
"[  c #BA2E60",
"{  c #BC3763",
"}  c #CE034B",
"|  c #D8004D",
" . c #CD0954",
".. c #C32B5F",
"X. c #C42359",
"o. c #D0255E",
"O. c #C5375E",
"+. c #CE1467",
"@. c #DC1C6A",
"#. c #ED176B",
"$. c #E21972",
"%. c #F11F76",
"&. c #C53961",
"*. c #D13F6A",
"=. c #D43869",
"-. c #CD2870",
";. c #874D61",
":. c #984662",
">. c #9A576D",
",. c #AA4B65",
"<. c #BB506B",
"1. c #B24B79",
"2. c #AA5972",
"3. c #CF4369",
"4. c #CC4473",
"5. c #DA4C77",
"6. c #CD5B7D",
"7. c #DB5177",
"8. c #E14A79",
"9. c #E4527A",
"0. c #B46582",
"q. c #B96485",
"w. c #BB7089",
"e. c #CD4F8A",
"r. c #DA5383",
"t. c #D9598C",
"y. c #E25C8B",
"u. c #EB5D89",
"i. c #E45887",
"p. c #FF4795",
"a. c #EC5090",
"s. c #C66B8B",
"d. c #D16180",
"f. c #DD6294",
"g. c #DA6599",
"h. c #CE799A",
"j. c #D97499",
"k. c #EE628E",
"l. c #E9688E",
"z. c #E96B98",
"x. c #FA6E9B",
"c. c #C37EA5",
"v. c #DC73AB",
"b. c #E17EA6",
"n. c #FF7CA6",
"m. c #F877A7",
"M. c #EA77B7",
"N. c #FE7EB2",
"B. c #FD7EBD",
"V. c #CA809F",
"C. c #D3849E",
"Z. c #EA829E",
"A. c #D483A5",
"S. c #D580AE",
"D. c #D58CB0",
"F. c #E080AE",
"G. c #FE83AC",
"H. c #E788B4",
"J. c #FD83B3",
"K. c #FF8CB3",
"L. c #F184B9",
"P. c #FF8CBA",
"I. c #F788B8",
"U. c #EA93B8",
"Y. c #FF91B6",
"T. c #F39BBE",
"R. c #EC82C3",
"E. c #FD8CC5",
"W. c #FD8FCE",
"Q. c #F381C5",
"!. c #EE96C5",
"~. c #EF95C8",
"^. c #FF94CB",
"/. c #FD9DCD",
"(. c #FF94C4",
"). c #FA8ED0",
"_. c #FD9DD4",
"`. c #FE9DDC",
"'. c #EEA2C9",
"]. c #E1AFCB",
"[. c #FFA3CB",
"{. c #FFA2C4",
"}. c #EFA6D0",
"|. c #FEA1D6",
" X c #FFA2DC",
".X c #F7ADDA",
"XX c #FDABDA",
"oX c #FDA8D7",
"OX c #E8B7DA",
"+X c #FFB0D4",
"@X c #F9B0D9",
"#X c #FF9EE4",
"$X c #FDA2E1",
"%X c #FFA8E3",
"&X c #FFD8FF",
"*X c None",
/* pixels */
"*X*X*X*X*X*X*X*X*X*X*X*X*X*X*X*X*X*X*X*X*X*X*X*X*X*X*X*X*X*X*X*X",
"*X*X*X*X*X*X*X*X*X*X*X*X*X*X*X*X*X*X*X*X*X*X*X*X*X*X*X*X*X*X*X*X",
"*X*X*X*X*X*X*X*X*X*X*X*X*X*X*X*X*X*X*X*X*X*X*X*X*X*X*X*X*X*X*X*X",
"*X*X*X*X*X*X*X*X*X*X*X*X*X*X*X*X*X*X*X*X*X*X*X*X*X*X*X*X*X*X*X*X",
"*X*X*X*X*X*X*X*X*X*X*Xh b j u w > X . *X*X*X*X*X*X*X*X*X*X*X*X*X",
"*X*X*X*X*X*X  % = z V.}..X'.H.h.q.m : * X *X*X*X*X*X*X*X*X*X*X*X",
"*X*X*X*X*XO X B h.U.[. X$X_././.[.U.s.2.: . *X*X*X*X*X*X*X*X*X*X",
"*X*X*X*X*X# B D.oX X X X X_. X.X1.s.[.' ,.y *X*X*X*X*X*X*X*X*X*X",
"*X*X*X*X*X, A.oX X$X X X X`..X|.H.j.j.{ d.z *X*X*X*X*X*X*X*X*X*X",
"*X*X*X*Xo v ~.%X`.$X`. X X%X$X`.&XA.f Z.^ 6 $   *X*X*X*X*X*X*X*X",
"*X*X*X*X1 c._.$X`.#X X X X`.$X XS.i 6 C.7 7 m O *X*X*X*X*X*X*X*X",
"*X*X*X*Xh U. X X`.#X`._. XR.M.).~.z , ].q ~ 0.o *X*X*X*X*X*X*X*X",
"*X*X*X*Xv '. X X`.#X$X X_.).Q.M.v.i ; OX> f 2.o *X*X*X*X*X*X*X*X",
"*X*X*X*XM .X X X`.`.`.`. X%X%XB.e.c ~ @X~ ^ :.o *X*X*X*X*X*X*X*X",
"*X*X*X*XN .X X|._.E.E._. X X_.E.t.g.|.[.|.+Xw.. *X*X*X*X*X*X*X*X",
"*X*X*X*Xb !._._.L.M.^.^.^.^.E.N.) t.^.] H.+X>.O *X*X*X*X*X*X*X*X",
"*X*X*X*Xk b.P.(.L.f.y.N.N.P.P.u._ f._.g.L.T.;.  *X*X*X*X*X*X*X*X",
"*X*X*X*Xt 6.k.J.G.z.t.u.u.r.4.3.7.J.|. X[.0.N *X*X*X*X*X*X*X*X*X",
"*X*X*X*X4 / &.l.z.m.x.9.9.4.) 7.l.P.[.L.I.c x *X*X*X*X*X*X*X*X*X",
"*X*X*X*X= s 9 J O.u.x.x.n.J.G.Y.Y.P.P.N.t.{ a < *X*X*X*X*X*X*X*X",
"*X*X*Xi ! <.{.8.R Q ..i.n.K.Y.Y.K.G.y...E =.I % *X*X*X*X*X*X*X*X",
"*X*XX p ..a.#Xp.@. .Y E O.O.3.3.=.O.` U U o.I X *X*X*X*X*X*X*X*X",
"*X*X+ 0 _ -.+.$.%.#. .L C C A S S S S W K A 0 g *X*X*X*X*X*X*X*X",
"*X*XO 5 f I R  .| | } R Z a F G D G F d * % l *X*X*X*X*X*X*X*X*X",
"*X*X*Xg * 3 D T Q o.X.( 0 & & 3 2 & - X *X*X*X*X*X*X*X*X*X*X*X*X",
"*X*X*X*X*X*X= 4 e e r 6 *X*X*X*X*X*X*X*X*X*X*X*X*X*X*X*X*X*X*X*X",
"*X*X*X*X*X*X*X*X*X*X*X*X*X*X*X*X*X*X*X*X*X*X*X*X*X*X*X*X*X*X*X*X",
"*X*X*X*X*X*X*X*X*X*X*X*X*X*X*X*X*X*X*X*X*X*X*X*X*X*X*X*X*X*X*X*X",
"*X*X*X*X*X*X*X*X*X*X*X*X*X*X*X*X*X*X*X*X*X*X*X*X*X*X*X*X*X*X*X*X",
"*X*X*X*X*X*X*X*X*X*X*X*X*X*X*X*X*X*X*X*X*X*X*X*X*X*X*X*X*X*X*X*X",
"*X*X*X*X*X*X*X*X*X*X*X*X*X*X*X*X*X*X*X*X*X*X*X*X*X*X*X*X*X*X*X*X",
"*X*X*X*X*X*X*X*X*X*X*X*X*X*X*X*X*X*X*X*X*X*X*X*X*X*X*X*X*X*X*X*X"
};
