/* XPM */
static char *result[] = {
/* columns rows colors chars-per-pixel */
"32 32 191 2 ",
"   c #130202",
".  c #1D0000",
"X  c #1D0B0B",
"o  c #2B0002",
"O  c #270008",
"+  c #2B000B",
"@  c #250B0B",
"#  c #290809",
"$  c #360006",
"%  c #33010D",
"&  c #3B000B",
"*  c #3A050A",
"=  c #2C0311",
"-  c #340313",
";  c #310019",
":  c #3E0018",
">  c #3C0A16",
",  c #371417",
"<  c #3B0921",
"1  c #3A2B2B",
"2  c #450317",
"3  c #460917",
"4  c #55021B",
"5  c #5B011C",
"6  c #5B0819",
"7  c #4C111C",
"8  c #620E18",
"9  c #7D0014",
"0  c #4D0A20",
"q  c #5D0020",
"w  c #5F0C26",
"e  c #491C24",
"r  c #471829",
"t  c #551B23",
"y  c #5C1E33",
"u  c #6F092A",
"i  c #600924",
"p  c #700B2D",
"a  c #6F1932",
"s  c #751D36",
"d  c #522232",
"f  c #65272E",
"g  c #6A2639",
"h  c #7E223F",
"j  c #5D2A42",
"k  c #6E2E4F",
"l  c #7D2943",
"z  c #65314C",
"x  c #733449",
"c  c #850020",
"v  c #930024",
"b  c #840630",
"n  c #96093A",
"m  c #821A3B",
"M  c #8F163C",
"N  c #98143E",
"B  c #A50034",
"V  c #981F46",
"C  c #B80845",
"Z  c #A41D48",
"A  c #B51A4B",
"S  c #B2164D",
"D  c #8E294C",
"F  c #832743",
"G  c #9C244B",
"H  c #923753",
"J  c #AB2948",
"K  c #AD2A56",
"L  c #B1285F",
"P  c #B72552",
"I  c #A13B50",
"U  c #B73559",
"Y  c #B32F67",
"T  c #B73D7B",
"R  c #CE0C54",
"E  c #C71E5B",
"W  c #D41859",
"Q  c #C02053",
"!  c #D1205E",
"~  c #D71A64",
"^  c #F51D6B",
"/  c #FC1C74",
"(  c #F71E73",
")  c #C92861",
"_  c #D32263",
"`  c #CD3D69",
"'  c #D2326D",
"]  c #C22D78",
"[  c #E72D6E",
"{  c #EC2871",
"}  c #F62876",
"|  c #8A415F",
" . c #A2475D",
".. c #854264",
"X. c #A54E69",
"o. c #B14B67",
"O. c #A15868",
"+. c #B8586E",
"@. c #A84E77",
"#. c #BB5C7F",
"$. c #B8627D",
"%. c #C7416E",
"&. c #C24B71",
"*. c #D54575",
"=. c #DF557C",
"-. c #E64076",
";. c #B85687",
":. c #B5718E",
">. c #D64D87",
",. c #CD5D80",
"<. c #DE5485",
"1. c #C45C94",
"2. c #FF4C8F",
"3. c #E55485",
"4. c #E95F92",
"5. c #CC6483",
"6. c #CB6A8E",
"7. c #D66C8E",
"8. c #CD7986",
"9. c #C86A98",
"0. c #DB6F93",
"q. c #CC789A",
"w. c #D2779E",
"e. c #E9628A",
"r. c #E36292",
"t. c #E96C95",
"y. c #F46D93",
"u. c #F16192",
"i. c #EF7099",
"p. c #E9769C",
"a. c #CA68A0",
"s. c #D36FA3",
"d. c #DF7FA0",
"f. c #D676A7",
"g. c #EC6BAC",
"h. c #E66DA5",
"j. c #EE76AE",
"k. c #FA78A5",
"l. c #FF7EAF",
"z. c #F779A5",
"x. c #E876B1",
"c. c #F077B0",
"v. c #F67CB5",
"b. c #FB7FB3",
"n. c #FF79BF",
"m. c #F37CB9",
"M. c #D9849A",
"N. c #D888A7",
"B. c #DF86B1",
"V. c #D694B5",
"C. c #D696BC",
"Z. c #E384AA",
"A. c #E58AAB",
"S. c #FF82AC",
"D. c #F08DAF",
"F. c #E593A3",
"G. c #F081B7",
"H. c #FB83B3",
"J. c #FC8AB4",
"K. c #FE8BB9",
"L. c #F983BA",
"P. c #E891BA",
"I. c #FA94BD",
"U. c #F594BD",
"Y. c #FF8CCC",
"T. c #FD88C3",
"R. c #EB93C3",
"E. c #FF95C3",
"W. c #FC9CC4",
"Q. c #FF93CB",
"!. c #F59ACB",
"~. c #FF9BCD",
"^. c #F39DC6",
"/. c #FF96D7",
"(. c #F49FD5",
"). c #FF9CD4",
"_. c #FE9EDC",
"`. c #E9A2CF",
"'. c #F9A1CC",
"]. c #FEA2D3",
"[. c #FEA3DD",
"{. c #FBA8D8",
"}. c #FFB1DE",
"|. c #FFA3E1",
" X c #FFAAE1",
".X c #FEB3E5",
"XX c #FFB6EA",
"oX c #FFC7FA",
"OX c #FFDDFC",
"+X c #FFE0FF",
"@X c None",
/* pixels */
"@X@X@X@X@X@X@X@X@X@X@X@X@X@X@X@X@X@X@X@X@X@X@X@X@X@X@X@X@X@X@X@X",
"@X@X@X@X@X@X@X@X@X@X@X@X@X@X@X@X@X@X@X@X@X@X@X@X@X@X@X@X@X@X@X@X",
"@X@X@X@X@X@X@X@X@X@X@X@X@X@X@X@X@X@X@X@X@X@X@X@X@X@X@X@X@X@X@X@X",
"@X@X@X@X@X@X@X@X@X@X@X@X@X@X@X@X@X@X@X@X@X@X@X@X@X@X@X@X@X@X@X@X",
"@X@X@X@X@X@X@X@X@X@X@X@X@X@X@X@X@X@X@X@X@X@X@X@X@X@X@X@X@X@X@X@X",
"@X@X@X@X@X@X@X@X@X@X, + = = = = ; - . @X@X@X@X@X@X@X@X@X@X@X@X@X",
"@X@X@X@X@X@X@X@XX # d | :.C.V.V.N.:.x , @ @X@X@X@X@X@X@X@X@X@X@X",
"@X@X@X@X@X@X@Xe a D w.R.{.[.|..XXX'.P.M.X.2 @X@X@X@X@X@X@X@X@X@X",
"@X@X@X@X@X@X3 F 7.c.).[._._.|.a.;.I.}.Z.5. .2 @X@X@X@X@X@X@X@X@X",
"@X@X@X@X@X  g 0.I.].).[._.|.|.9.H +.I.#.I +.O.$ @X@X@X@X@X@X@X@X",
"@X@X@X@X@X@ D H.].{.].[.|._.!.+XF.6 A.OX8.8 M.7 @X@X@X@X@X@X@X@X",
"@X@X@X@X1 > @.Q.].].(._.[.[.].Z.f 2 D.Z.t 7 '.@.r @X@X@X@X@X@X@X",
"@X@X@X@X. y w.[.[.[.[._._.|.|.6.3 $ I.6.- r  Xf.< @X@X@X@X@X@X@X",
"@X@X@X@X= H !.[.).[._.|./.Y.n.c.f o `.P.r = m.x.j @X@X@X@X@X@X@X",
"@X@X@X@X- q.]._.Q./._.|.Y.g.T g...; P.].k : T G.z @X@X@X@X@X@X@X",
"@X@X@X@X- q.~.L.v.~._.)./.T.>.g.`.C.[. X'.B.Q.U.j @X@X@X@X@X@X@X",
"@X@X@X@X= $.J.t.r.W.'.'.Q.v.Y j.XXXX|.1.s.XX~.Z.d @X@X@X@X@X@X@X",
"@X@X@X@Xo  .z.<.*.S.K.K.l.4.L h.|.`.|.;.1.].S.5.e @X@X@X@X@X@X@X",
"@X@X@X@X, f 0.e.=.y.t.t.3.%.>.H.[.(.].[.'.H.i.o.* @X@X@X@X@X@X@X",
"@X@X@X@X@X@ H p.y.=.U J J P u.K.E.E.K.W.J.p.,.l O @X@X@X@X@X@X@X",
"@X@X@X@X@X@ w G N J c 9 v P 3.k.b.b.k.b.k.&.F & @X@X@X@X@X@X@X@X",
"@X@X@X@X@X@ 5 b G k.P B C _ E ' ` 3.u.' -.Q 3 @X@X@X@X@X@X@X@X@X",
"@X@X@X@X@X. u L r.oX2.W } { R C V Z ` n Q K O @X@X@X@X@X@X@X@X@X",
"@X@X@X@X@X  i V A [ / / ( { ^ W n u h F G m . @X@X@X@X@X@X@X@X@X",
"@X@X@X@X@X@Xe 5 M S ~ ~ _ _ _ ) u $ $ $ 2 > @X@X@X@X@X@X@X@X@X@X",
"@X@X@X@X@X@X@X@X- 2 q q q q 4 4 e @X@X@X@X@X@X@X@X@X@X@X@X@X@X@X",
"@X@X@X@X@X@X@X@X@X@X@X@X@X@X@X@X@X@X@X@X@X@X@X@X@X@X@X@X@X@X@X@X",
"@X@X@X@X@X@X@X@X@X@X@X@X@X@X@X@X@X@X@X@X@X@X@X@X@X@X@X@X@X@X@X@X",
"@X@X@X@X@X@X@X@X@X@X@X@X@X@X@X@X@X@X@X@X@X@X@X@X@X@X@X@X@X@X@X@X",
"@X@X@X@X@X@X@X@X@X@X@X@X@X@X@X@X@X@X@X@X@X@X@X@X@X@X@X@X@X@X@X@X",
"@X@X@X@X@X@X@X@X@X@X@X@X@X@X@X@X@X@X@X@X@X@X@X@X@X@X@X@X@X@X@X@X",
"@X@X@X@X@X@X@X@X@X@X@X@X@X@X@X@X@X@X@X@X@X@X@X@X@X@X@X@X@X@X@X@X"
};
