/* XPM */
static char *result[] = {
/* columns rows colors chars-per-pixel */
"64 64 193 2 ",
"   c #0B0001",
".  c #140001",
"X  c #190607",
"o  c #13040A",
"O  c #1D030A",
"+  c #1A0A0D",
"@  c #1D0C14",
"#  c #23040A",
"$  c #25070A",
"%  c #2D020B",
"&  c #320005",
"*  c #34010E",
"=  c #2B0411",
"-  c #240F13",
";  c #320013",
":  c #3E0719",
">  c #2E1314",
",  c #2A181B",
"<  c #3B111D",
"1  c #3E1523",
"2  c #2B2121",
"3  c #3A2626",
"4  c #3F262C",
"5  c #3C2B2D",
"6  c #4C0008",
"7  c #54000A",
"8  c #420114",
"9  c #4A0118",
"0  c #4C0D1C",
"q  c #570818",
"w  c #6B001B",
"e  c #460F22",
"r  c #5A0425",
"t  c #560A24",
"y  c #481627",
"u  c #5A1226",
"i  c #5E1832",
"p  c #640E25",
"a  c #640F2D",
"s  c #6F0B2F",
"d  c #601429",
"f  c #700E34",
"g  c #6C1134",
"h  c #6C1E36",
"j  c #45272A",
"k  c #4C2E38",
"l  c #562332",
"z  c #582A3A",
"x  c #55383B",
"c  c #62273D",
"v  c #6E243B",
"b  c #736122",
"n  c #7F1B4A",
"m  c #5F3243",
"M  c #702C42",
"N  c #663548",
"B  c #75495D",
"V  c #8D0E2C",
"C  c #99073F",
"Z  c #A10F2E",
"A  c #B5002D",
"S  c #B50337",
"D  c #A81C3B",
"F  c #A71747",
"G  c #A91249",
"H  c #BE1545",
"J  c #BF0D55",
"K  c #BF1C5A",
"L  c #83334D",
"P  c #802A52",
"I  c #A92F4F",
"U  c #A72356",
"Y  c #BB2357",
"T  c #B92A56",
"R  c #B32C5A",
"E  c #C70445",
"W  c #CC054A",
"Q  c #C5134D",
"!  c #CF0053",
"~  c #D10353",
"^  c #CC1654",
"/  c #CE1D62",
"(  c #DB1865",
")  c #E41567",
"_  c #EB1370",
"`  c #EC1A74",
"'  c #F21F74",
"]  c #C52768",
"[  c #CA376E",
"{  c #D52A70",
"}  c #DC2975",
"|  c #DB3975",
" . c #EA2477",
".. c #EF347D",
"X. c #8B4357",
"o. c #9C445E",
"O. c #884D61",
"+. c #984965",
"@. c #8C5B70",
"#. c #BF4076",
"$. c #AE5875",
"%. c #B35574",
"&. c #B2617E",
"*. c #CC4B74",
"=. c #C84B78",
"-. c #D34877",
";. c #CE557C",
":. c #E14372",
">. c #E6C03E",
",. c #FF2A86",
"<. c #E43685",
"1. c #956987",
"2. c #9C6C86",
"3. c #9C718B",
"4. c #AF7191",
"5. c #B1739A",
"6. c #D44F85",
"7. c #CE5388",
"8. c #DA5B88",
"9. c #DE5F91",
"0. c #EF4D86",
"q. c #E55589",
"w. c #F85F9E",
"e. c #D96389",
"r. c #DA698D",
"t. c #C4728E",
"y. c #C8718C",
"u. c #CD6994",
"i. c #D96891",
"p. c #D8769B",
"a. c #E56494",
"s. c #E96A99",
"d. c #F56695",
"f. c #F46D9D",
"g. c #E4759C",
"h. c #EB749E",
"j. c #E57899",
"k. c #F2719D",
"l. c #D66DA1",
"z. c #D979A1",
"x. c #EE6EA3",
"c. c #F76DA2",
"v. c #EC74A4",
"b. c #EC79A6",
"n. c #EB79A9",
"m. c #F477A1",
"M. c #F977A4",
"N. c #F47CAB",
"B. c #FB7BB2",
"V. c #D78DA6",
"C. c #DF8BAC",
"Z. c #E780AE",
"A. c #E78AAC",
"S. c #F181AF",
"D. c #FD82AD",
"F. c #F68AAE",
"G. c #E98AB6",
"H. c #F482B4",
"J. c #FF8AB2",
"K. c #F282BA",
"L. c #FB85BB",
"P. c #F58BBC",
"I. c #FF8ABA",
"U. c #E89BB9",
"Y. c #FB92BD",
"T. c #F399BE",
"R. c #EF89C0",
"E. c #F488C2",
"W. c #FC8DC4",
"Q. c #E791C7",
"!. c #F594C7",
"~. c #FC94C4",
"^. c #FE9CC7",
"/. c #F490CB",
"(. c #FD95CC",
"). c #F49DCC",
"_. c #FC9CCB",
"`. c #EC9DD0",
"'. c #FC97D1",
"]. c #F79ED3",
"[. c #FC9DD4",
"{. c #FB9ED8",
"}. c #FDA1CD",
"|. c #EFA2D2",
" X c #F5A1D6",
".X c #FCA2D5",
"XX c #F6A1D9",
"oX c #FDA3DA",
"OX c #F7AADB",
"+X c #F5B4DC",
"@X c #FBB2D9",
"#X c #FAB0E0",
"$X c #FFCBFD",
/* pixels */
">.>.>.>.>.>.>.>.>.>.>.>.>.>.>.>.>.>.>.>.>.>.>.>.>.>.>.>.>.>.>.>.>.>.>.>.>.>.>.>.>.>.>.>.>.>.>.>.>.>.>.>.>.>.>.>.>.>.>.>.>.>.>.>.",
">.>.>.>.>.>.>.>.>.>.>.>.>.>.>.>.>.>.>.>.>.>.>.>.>.>.>.>.>.>.>.>.>.>.>.>.>.>.>.>.>.>.>.>.>.>.>.>.>.>.>.>.>.>.>.>.>.>.>.>.>.>.>.>.",
">.>.>.>.>.>.>.>.>.>.>.>.>.>.>.>.>.>.>.>.>.>.>.>.>.>.>.>.>.>.>.>.>.>.>.>.>.>.>.>.>.>.>.>.>.>.>.>.>.>.>.>.>.>.>.>.>.>.>.>.>.>.>.>.",
">.>.>.>.>.>.>.>.>.>.>.>.>.>.>.>.>.>.>.>.>.>.>.>.>.>.>.>.>.>.>.>.>.>.>.>.>.>.>.>.>.>.>.>.>.>.>.>.>.>.>.>.>.>.>.>.>.>.>.>.>.>.>.>.",
">.>.>.>.>.>.>.>.>.>.>.>.>.>.>.>.>.>.>.>.>.>.>.>.>.>.>.>.; ; 0 0 0 q 0 0 0 0 8 6 >.>.>.>.>.>.>.>.>.>.>.>.>.>.>.>.>.>.>.>.>.>.>.>.",
">.>.>.>.>.>.>.>.>.>.>.>.>.>.>.>.>.>.>.>.b b >.>.>.>.>.>.* ; 0 0 0 0 0 0 u 0 * : >.>.>.>.>.>.>.>.>.>.>.>.>.>.>.>.>.>.>.>.>.>.>.>.",
">.>.>.>.>.>.>.>.>.>.>.>.>.>.>.>.>.>.>.>.o o O O ; ; : : +.@.t.4.V.&.y.y.y.y.$.$.t u * * O O     >.>.>.>.>.>.>.>.>.>.>.>.>.>.>.>.",
">.>.>.>.>.>.>.>.>.>.>.>.>.>.>.>.>.>.>.b o o O = ; ; : : +.+.t.t.V.;.y.y.y.y.%.$.u t * * O #     >.>.>.>.b b >.>.>.>.>.>.>.>.>.>.",
">.>.>.>.>.>.>.>.>.>.+ + + + @ @ @ @ + @ o O B P u.u.l.z.G.C.}.|.U.}.|.}.}.).G.G.n.g.u.i.+.+.# O o o + + @ @ @ - + + >.>.>.>.>.>.",
">.>.>.>.>.>.>.>.>.>.+ + + + @ @ @ @ @ o O O n n u.u.z.p.U.G.).}.}.|.).}._.^.G.U.z.V.i.u.+.+.O # + o + + @ + , - + + >.>.>.>.>.>.",
">.>.>.>.>.>.>.>.5 5 o . B B 3.3.1.1.1.1.5.5.l.l.K.L..X}.oXoXoXoXoXoX XOXoXoX.X.X.X.XY.I.p.l.4.4.3.3.2.2.2.2.@.@.% = , 2 >.>.>.>.",
">.>.>.>.>.>.>.>.5 5 . . B B 3.3.1.1.1.1.5.5.l.l.L.L..X.XoXoXoXoXOXOXoX.X@X.X.X.X}..XI.W.l.l.4.4.3.3.2.2.2.2.@.@.# # , , >.>.>.>.",
">.>.>.>.>.>.>.>.# # M M V.C.+X@X+X@X+X+XOXOXR.R.E.E.oX.X.X.X_.).].).}.).].).]. XoX.X(.'.R.R.[.[.+XOX+X#X@XOXQ.U.O.O.= = >.>.>.>.",
">.>.>.>.>.>.>.>.O # M M C.C.@X@X+X+X+X+XOXOXR.K.E.E.{..X.X.X].].). X X}.].].]..XoXoX(.'.E.E.{.{.+XOX#X#X@XOXU.).O.O.= = b >.>.>.",
">.>.>.>.>.>.>.>.< < t.y.Y.Y.|.}.|.|.`.`.Q.Q././._.(.[.[.].[.OX.X.XoX.X.X.X.X.X XoX{.'.'././././.'.'.`.].).).T.T.V.V.z z b >.>.>.",
">.>.>.>.>.>.b b < < V.p.F.Y.T.|.|.|.`.`.Q.Q.!.!.'._..X[..X_..XOX.X.X.X.X.X.XXX X[.XX'.'.'.'././.'.'.].].!.).T.Q.V.V.z m >.>.>.>.",
">.>.>.>.>.>.b b 1 1 C.C.}.}.}.|.|.|.|. XXXXX!.!.~.~..X.X.X[.XX X X X.X.X[..XoXoXoXoX'.'.E.W._.[.{.'.{.{.[.[.^.^.U.U.x N >.>.>.>.",
">.>.>.>.>.>.>.b < < C.C.^.}.}..X|.|. X XXX].!.).!.!..X.X.X XXXXX X X X X.X[.oXoXoXoX_.'.~.W.[.'.{.{.'.{.[.[.}.^.U.U.c z >.>.>.>.",
">.>.>.>.>.>.>.>.y j A.A.Y.Y.}.^.@X.XoX@X_.].Z.Z.S.G.!.(.oX{.oXoXoXOXXXoXXXoX.X{.'.[.R.K.n.n.~.~.'.{.{.oX[..X~.T.U.U.N B >.>.>.>.",
">.>.>.>.>.>.>.>.y j A.V.Y.Y.}.^..X.XoXoX[._.Z.Z.Z.G._.(.{.oXXXXXXXXXXXoXXX.X{..X[.'.G.R.n.n.~.~.{.{.oX{.[.[.Y.~.U.A.B c >.>.>.>.",
">.>.>.>.>.>.>.>.: : V.j.D.D.F.H.P.P.P.P.H.K.n.n.n.n.{.W.{.{.{.{.XXXXoX X.X X).].(._.H.G.b.b.b.b.B.H.L.L.H.H.n.N.A.A.c c >.>.>.>.",
">.>.>.>.>.>.>.>.: 0 j.j.D.D.S.F.H.H.P.P.N.K.n.v.B.n.'.(.{.{.{.{.oXXX.XXX X X]._._.(.P.H.b.h.v.b.B.D.L.L.B.K.N.N.A.A.c c >.>.>.>.",
">.>.>.>.>.>.>.>.x x o.+.r.r.h.h.v.h.x.v.v.x.a.a.x.x.W.W.'.'.{.{.].{.].].].}.}..X!.~.b.n.a.r.k.k.v.m.v.v.v.v.g.g.%.$.x N >.>.>.>.",
">.>.>.>.>.>.>.>.x x o.o.r.r.h.h.h.h.x.v.x.v.i.a.x.x.W.W.{.'.{.{.{.].XX].}.|..X}.~.!.b.N.r.r.k.k.m.h.m.x.v.v.b.p.$.$.N c >.>.>.>.",
">.>.>.>.>.>.>.>.>.>.. # X.X.j.j.f.f.k.k.f.m.=.-.7.7.K.K.'.{.{.'.].].].XX`.XX.X.XY.P.i.9.-.-.d.s.k.k.m.m.h.h.4.%.: ; >.>.>.>.>.>.",
">.>.>.>.>.>.>.>.>.>.# . X.X.j.p.f.f.h.f.h.m.6.=.7.7.K.K.{.{.{.{.XXXX].XX].]..X.XP.P.9.9.-.-.s.f.k.k.M.m.g.k.%.2.: ; >.>.>.>.>.>.",
">.>.>.>.>.>.>.>.>.>.    = % +.o.r.r.*.*.-.-.8.8.H.H.[.[.oX{.].{.XX].XX]. X X].]._.[.L.L.a.q.-.-.*.*.e.e.%.%.< :     >.>.>.>.>.>.",
">.>.>.>.>.>.>.>.>.b     % % o.+.r.r.-.*.;.*.8.e.H.H.'.'.{.oX{.{.XXXX].XX]..X].].[._.I.L.a.a.-.;.*.*.e.r.%.%.: 0 . . >.>.>.>.>.>.",
">.>.>.>.>.>.>.>.>.b b b   . * = L L #.*.;.e.b.b.^.^..X[.].[. X{.XXXX].{..XXXoXoX[..X(.^.S.S.8.8.;.;.o.o.9 e . . >.>.>.>.>.>.>.>.",
">.>.>.>.>.>.>.>.>.b b b     ; ; L L #.=.8.q.b.b.^.^._.[.[.[.XXXXXXXXXX].[.].XXoX{.{._.^.S.S.e.8.;.;.o.I 0 0 . . >.>.>.>.>.>.>.>.",
">.>.>.>.>.>.>.>.>.>.>.>.>.>.2 2 t e j.j.M.D.~.~._._.]..XoXoX X].].XX].{.{.].].{.oX#X}.}.}.}.J.J.r.j.v v > % >.>.>.>.>.>.>.>.>.>.",
">.>.>.>.>.>.>.>.>.>.>.>.>.>.2 2 e e j.s.D.M.Y.~._.^._._.oXoX X.XXX].{.{.].{.].'.oX@X.X}.}.}.J.J.j.r.h h $ > >.>.>.>.>.>.>.>.>.>.",
">.>.>.>.>.>.>.>.>.>.>.>.>.>.>.>.l l F.F.I.I.~.~.^.^. X}..X}._.[.oXoX{.{.'.[.'.'.W.W.L.I.J.I.J.J.j.j.v v j j >.>.>.>.>.>.>.>.>.>.",
">.>.>.>.>.>.>.>.>.>.>.>.>.>.>.>.l l F.F.I.I.~.^.^.^._.}._..X[.'.oXoX{.{.'.[.'.'.W.E.L.I.J.J.J.J.j.A.v v j j >.>.>.>.>.>.>.>.>.>.",
">.>.>.>.>.>.>.>.>.>.>.>.>.>.>.>.e e a.r.k.M.f.x.H.N.Y.P.!.!.W.~.'.(.W.W.(.W.W.W.#.#.C C G G d.d.D.k.v v 3 3 >.>.>.>.>.>.>.>.>.>.",
">.>.>.>.>.>.>.>.>.>.>.>.>.>.>.>.e e r.r.c.c.x.k.S.S.Y.P.!.Y.(.~.'.(.W.W.W.W.W.(.#.#.C C G G d.d.S.k.v v 3 3 >.>.>.>.>.>.>.>.>.>.",
">.>.>.>.>.>.>.>.>.>.b b b >.>.>.8 8 R R 0.0.M.c.N.N.N.B.b.b.b.b.n.n.x.x.B.B.$X$Xa.w.J J ^ ( ....[ [ t t 3 3 >.>.>.>.>.>.>.>.>.>.",
">.>.>.>.>.>.>.>.>.>.b b b >.>.>.8 8 R R 0.0.f.f.N.M.N.N.b.h.b.b.x.n.x.c.B.B.$X$Xx.s.J J ( ( ..,.T [ r r 3 3 >.>.>.>.>.>.>.>.>.>.",
">.>.>.>.>.>.>.>.>.b b b b b >.>.8 : U F ^ ^ :.-.0.;.d.d.k.f.s.h.B.B.c.c.q.q.W.W.w.w. . .,.,.` ` ] ] w r j 4 >.>.>.>.>.>.>.>.>.>.",
">.>.>.>.>.>.>.>.>.b b b b b >.>.8 8 F F ^ ^ | :.:.q.d.d.f.s.h.g.D.B.c.c.9.q.W.W.w.w. . .,.,.` ` K ] r r 4 4 >.>.>.>.>.>.>.>.>.>.",
">.>.>.>.>.>.>.>.b b b b b b b >.9 9 Y Y S E A S H H :.:.d.d.m.m.s.s.7.6.] [ / / ( )  .` _ _ ` ` <.<.n n 4 4 >.>.>.>.>.>.>.>.>.>.",
">.>.>.b b b b b b b b b b b b b 9 9 Y Y S S S A Q D :.:.d.d.h.h.s.i.6.6.{ ] / / ( ( ` ` _ _ ` ` <.<.n n 4 j >.>.>.>.>.>.>.>.>.>.",
">.>.>.b b b b b b b b b b b b b 8 8 Y Y W W W W E E Q Q :.:.r.r.s s q q [ [ Q ^ E W ~ ~ ~ ~ ~ ~ | | n n 5 4 >.>.>.>.>.>.>.>.>.>.",
">.>.>.>.b b b b b b b b b b b b 8 9 Y Y W W W W E E Q Q :.-.r.r.s s 7 w [ [ ^ ^ E W ~ ~ ~ W ! ~ <.| n n 4 5 >.>.>.>.>.>.>.>.>.>.",
">.>.>.>.>.>.b b b b b b b b b b 8 8 R R W W ) ) ' ' ) ) K K a g & & 6 6 I I D S A A A A A A A A Y T t a - - >.>.>.>.>.>.>.>.>.>.",
">.>.>.>.>.>.b b b b b b b b b b 8 * Y R W W ( ) ' ' )  .K K g a & & 6 6 I I S S A A A A A A A A R T a u - - b b b b b b >.>.>.>.",
">.>.>.>.>.b b b b b b b b b b b b b w w G G { { } } { { U U $ & b b b b 7 7 V V D D Z Z D D D D w w l l b b b b b b b b >.>.>.>.",
">.>.>.>.>.b b b b b b b b b b b b b q w G G { { {  .{ { U U & & b b b b 7 7 V V F D Z Z D D D D w w l l b b b b b b >.>.>.>.>.>.",
">.>.>.>.b b b b b b b >.b b b b b b x x 0 0 g g f f g g i i k k b b b b x x u u p p p p p p d d l j b b b b b >.>.>.>.>.>.>.>.>.",
">.>.>.>.b b b b b >.>.>.>.b b b b b x x t 0 g g f f g g i i k k b b b b x x u u p p p p p p d d j j b b b >.>.>.>.>.>.>.>.>.>.>.",
">.>.>.>.b b b >.>.>.>.>.>.>.>.b b b b >., , X $ > > X $ + X >.>.b b b b b b 5 j $ $ > > $ X X # b b >.>.>.>.>.>.>.>.>.>.>.>.>.>.",
">.>.>.>.>.>.>.>.>.>.>.>.>.>.>.>.>.>.>.>., - $ X > > $ X X + >.>.b b b b b b 3 j $ $ > > $ $ $ $ b b >.>.>.>.>.>.>.>.>.>.>.>.>.>.",
">.>.>.>.>.>.>.>.>.>.>.>.>.>.>.>.>.>.>.>.>.>.>.>.>.>.>.>.>.>.>.b b b b b b b b b b b b b b b b b b b b >.>.>.>.>.>.>.>.>.>.>.>.>.",
">.>.>.>.>.>.>.>.>.>.>.>.>.>.>.>.>.>.>.>.>.>.>.>.>.>.>.>.>.>.b b b b b b b b b b b b b b b b b b b b b >.>.>.>.>.>.>.>.>.>.>.>.>.",
">.>.>.>.>.>.>.>.>.>.>.>.>.>.>.>.>.>.>.>.>.>.>.>.>.>.>.>.>.>.b b b b b b b b b >.>.b b b b b b b b b b b >.>.>.>.>.>.>.>.>.>.>.>.",
">.>.>.>.>.>.>.>.>.>.>.>.>.>.>.>.>.>.>.>.>.>.>.>.>.>.>.>.>.b b b b b b b >.>.>.>.>.>.>.b b b b b b b b b >.>.>.>.>.>.>.>.>.>.>.>.",
">.>.>.>.>.>.>.>.>.>.>.>.>.>.>.>.>.>.>.>.>.>.>.>.>.>.>.>.b b b b b b >.>.>.>.>.>.>.>.>.>.>.b b b b b b b b >.>.>.>.>.>.>.>.>.>.>.",
">.>.>.>.>.>.>.>.>.>.>.>.>.>.>.>.>.>.>.>.>.>.>.>.>.>.>.>.b b b >.>.>.>.>.>.>.>.>.>.>.>.>.>.>.>.b b b b b b >.>.>.>.>.>.>.>.>.>.>.",
">.>.>.>.>.>.>.>.>.>.>.>.>.>.>.>.>.>.>.>.>.>.>.>.>.>.>.>.b b >.>.>.>.>.>.>.>.>.>.>.>.>.>.>.>.>.>.>.b b b b >.>.>.>.>.>.>.>.>.>.>.",
">.>.>.>.>.>.>.>.>.>.>.>.>.>.>.>.>.>.>.>.>.>.>.>.>.>.>.>.>.>.>.>.>.>.>.>.>.>.>.>.>.>.>.>.>.>.>.>.>.>.>.>.>.>.>.>.>.>.>.>.>.>.>.>.",
">.>.>.>.>.>.>.>.>.>.>.>.>.>.>.>.>.>.>.>.>.>.>.>.>.>.>.>.>.>.>.>.>.>.>.>.>.>.>.>.>.>.>.>.>.>.>.>.>.>.>.>.>.>.>.>.>.>.>.>.>.>.>.>.",
">.>.>.>.>.>.>.>.>.>.>.>.>.>.>.>.>.>.>.>.>.>.>.>.>.>.>.>.>.>.>.>.>.>.>.>.>.>.>.>.>.>.>.>.>.>.>.>.>.>.>.>.>.>.>.>.>.>.>.>.>.>.>.>.",
">.>.>.>.>.>.>.>.>.>.>.>.>.>.>.>.>.>.>.>.>.>.>.>.>.>.>.>.>.>.>.>.>.>.>.>.>.>.>.>.>.>.>.>.>.>.>.>.>.>.>.>.>.>.>.>.>.>.>.>.>.>.>.>.",
">.>.>.>.>.>.>.>.>.>.>.>.>.>.>.>.>.>.>.>.>.>.>.>.>.>.>.>.>.>.>.>.>.>.>.>.>.>.>.>.>.>.>.>.>.>.>.>.>.>.>.>.>.>.>.>.>.>.>.>.>.>.>.>."
};
