/* XPM */
static char *result[] = {
/* columns rows colors chars-per-pixel */
"64 64 198 2 ",
"   c #0B0001",
".  c #130002",
"X  c #1D0306",
"o  c #17070A",
"O  c #1D090A",
"+  c #170B14",
"@  c #1C0C14",
"#  c #250002",
"$  c #290000",
"%  c #230009",
"&  c #29020E",
"*  c #22090A",
"=  c #3D010C",
"-  c #210915",
";  c #380613",
":  c #211414",
">  c #2B1414",
",  c #301617",
"<  c #2F2222",
"1  c #302626",
"2  c #47050C",
"3  c #5B000A",
"4  c #4D0619",
"5  c #410C1B",
"6  c #5D0013",
"7  c #530915",
"8  c #5D011C",
"9  c #61011C",
"0  c #68001F",
"q  c #5E0326",
"w  c #4E1425",
"e  c #4E1A2D",
"r  c #581127",
"t  c #640523",
"y  c #650E29",
"u  c #6E0B2E",
"i  c #661026",
"p  c #65142C",
"a  c #79083D",
"s  c #661531",
"d  c #532732",
"f  c #592236",
"g  c #483030",
"h  c #523639",
"j  c #602237",
"k  c #736122",
"l  c #5F3745",
"z  c #772A44",
"x  c #683A46",
"c  c #7A3A55",
"v  c #7B4758",
"b  c #98073A",
"n  c #971530",
"m  c #B1002E",
"M  c #AE0338",
"N  c #B40237",
"B  c #BA0033",
"V  c #A61136",
"C  c #A21C3E",
"Z  c #A71D46",
"A  c #BE0453",
"S  c #B61B59",
"D  c #8D2549",
"F  c #8F314F",
"G  c #983850",
"H  c #B02647",
"J  c #AF2D5B",
"K  c #B62859",
"L  c #B23356",
"P  c #BC3365",
"I  c #CC024B",
"U  c #C60B4C",
"Y  c #D0004E",
"T  c #C3134E",
"R  c #C90A56",
"E  c #D60254",
"W  c #C61C53",
"Q  c #D71B5F",
"!  c #DA166C",
"~  c #E80E6C",
"^  c #EB1269",
"/  c #F21A6C",
"(  c #EC1673",
")  c #F11979",
"_  c #D7296D",
"`  c #CA3169",
"'  c #D73E6D",
"]  c #DA2570",
"[  c #D3387E",
"{  c #E32775",
"}  c #87415B",
"|  c #9C4969",
" . c #815468",
".. c #9D516F",
"X. c #A54D68",
"o. c #A45367",
"O. c #A5526D",
"+. c #A65470",
"@. c #946879",
"#. c #CF4B73",
"$. c #D04E7D",
"%. c #DE4B7D",
"&. c #C5517A",
"*. c #D2557B",
"=. c #E6457B",
"-. c #E6C03E",
";. c #DE3C87",
":. c #F82284",
">. c #E53781",
",. c #9C678A",
"<. c #9E7180",
"1. c #A46C89",
"2. c #B46889",
"3. c #BC718F",
"4. c #CB4E81",
"5. c #CD558A",
"6. c #DA5E8E",
"7. c #CE5D93",
"8. c #D85C91",
"9. c #ED4A8F",
"0. c #FF459A",
"q. c #C06D8D",
"w. c #D3608C",
"e. c #D86C8A",
"r. c #CD7287",
"t. c #CF7188",
"y. c #DA6897",
"u. c #CC759A",
"i. c #CE799C",
"p. c #DD749B",
"a. c #E06494",
"s. c #E56A9C",
"d. c #F76699",
"f. c #F36F9E",
"g. c #E1739B",
"h. c #EC739F",
"j. c #E5789B",
"k. c #F2729A",
"l. c #D97FA4",
"z. c #E26EA0",
"x. c #EE6CA3",
"c. c #F16BA2",
"v. c #F96EA4",
"b. c #E575A6",
"n. c #EC73A6",
"m. c #EF78A5",
"M. c #E676AB",
"N. c #EC72A9",
"B. c #EC7EAC",
"V. c #F174A5",
"C. c #F875A8",
"Z. c #E37AB0",
"A. c #F37CB2",
"S. c #F17FB8",
"D. c #CD879F",
"F. c #CE84A6",
"G. c #DD86A8",
"H. c #DD9BB6",
"J. c #E485A5",
"K. c #ED81AC",
"L. c #FB80AC",
"P. c #E486B5",
"I. c #EE81B5",
"U. c #EB85BA",
"Y. c #ED8BBA",
"T. c #F484B6",
"R. c #FC84B4",
"E. c #FF8EB6",
"W. c #F484BA",
"Q. c #F48ABC",
"!. c #FE8DBC",
"~. c #E497B5",
"^. c #E897B5",
"/. c #F393BB",
"(. c #F48DC6",
"). c #FC8FC4",
"_. c #EF92C3",
"`. c #EF98C5",
"'. c #F592C4",
"]. c #FA94C4",
"[. c #F79CC4",
"{. c #F594CC",
"}. c #FB93CB",
"|. c #F49ECB",
" X c #FC9CCD",
".X c #FF8FD0",
"XX c #F79ED3",
"oX c #FD9DD3",
"OX c #FB9EDA",
"+X c #F7A3C8",
"@X c #FDA2CD",
"#X c #F8B3CE",
"$X c #F6A2D3",
"%X c #FBA2D5",
"&X c #FCA1DA",
"*X c #FEB2DD",
"=X c #FFADE0",
"-X c #FFCBFF",
/* pixels */
"-.-.-.-.-.-.-.-.-.-.-.-.-.-.-.-.-.-.-.-.-.-.-.-.-.-.-.-.-.-.-.-.-.-.-.-.-.-.-.-.-.-.-.-.-.-.-.-.-.-.-.-.-.-.-.-.-.-.-.-.-.-.-.-.",
"-.-.-.-.-.-.-.-.-.-.-.-.-.-.-.-.-.-.-.-.-.-.-.-.-.-.-.-.-.-.-.-.-.-.-.-.-.-.-.-.-.-.-.-.-.-.-.-.-.-.-.-.-.-.-.-.-.-.-.-.-.-.-.-.",
"-.-.-.-.-.-.-.-.-.-.-.-.-.-.-.-.-.-.-.-.-.-.-.-.-.-.-.-.-.-.-.-.-.-.-.-.-.-.-.-.-.-.-.-.-.-.-.-.-.-.-.-.-.-.-.-.-.-.-.-.-.-.-.-.",
"-.-.-.-.-.-.-.-.-.-.-.-.-.-.-.-.-.-.-.-.-.-.-.-.-.-.-.-.-.-.-.-.-.-.-.-.-.-.-.-.-.-.-.-.-.-.-.-.-.-.-.-.-.-.-.-.-.-.-.-.-.-.-.-.",
"-.-.-.-.-.-.-.-.-.-.-.-.-.-.-.-.-.-.-.-.-.-.-.-.-.-.= = 7 4 7 7 2 7 7 7 = = -.-.-.-.-.-.-.-.-.-.-.-.-.-.-.-.-.-.-.-.-.-.-.-.-.-.",
"-.-.-.-.-.-.-.-.-.-.-.-.-.-.-.-.-.-.-.-.k k -.-.-.-.= 2 8 4 7 7 2 2 7 7 = = -.-.-.-.-.-.-.-.-.-.-.-.-.-.-.-.-.-.-.-.-.-.-.-.-.-.",
"-.-.-.-.-.-.-.-.-.-.-.-.-.-.-.-.-.-..   X X % % w 5 X.X.e.t.t.r.r.r.t.t.o.o., 5 & - o o     -.-.-.-.-.-.-.-.-.-.-.-.-.-.-.-.-.-.",
"-.-.-.-.-.-.-.-.-.-.-.-.-.-.-.-.-.-.. . X X % $ w w X.X.t.e.t.t.r.r.t.t.o.o.5 5 & & X X     -.-.-.-.-.-.k k -.-.-.-.-.-.-.-.-.-.",
"-.-.-.-.-.-.-.-.o o + o : : o o O O # # } } q.q.l.l././.[.[. X X+X+XE.[././.i.i.3.3.c c % X - - + + - - + + + + -.-.-.-.-.-.-.-.",
"-.-.-.-.-.-.-.-.o o : < : O o o * * # X } } q.q.l.F././.[.[. X X+X+X[.!././.i.i.3.3.c v X @ - - - - - - + + + + -.-.-.-.-.-.-.-.",
"-.-.-.-.-.-.< < o X v v <.<.@.@.<.1.&.2.u.u.Q.Y.%X@X%X@X&X&X&X=XOX=XoX%X XoX@X@XY.^.u.u.3.1.1.1.,.,.,.,. . .o o 1 1 -.-.-.-.-.-.",
"-.-.-.-.-.-.< < X X v  .<.@.@.@.1.<.1.2.u.u.Y.Y.%X%X%X%X%X%X&X&XOX&XoXoX@X@X%X%XY.Y.u.u.2.3.,.1.,.,.,.,. . .o   1 1 -.-.-.-.-.-.",
"-.-.-.-.-.-.$ & v v H.H.#X#X*X#X=X=XOXoXU.U._._.%X%X X X{.XXOXOXOXOXXXXXXXXX$X&X`.`.P.P.$X&X=X=X=X=X=X=X_.H.c c & & -.-.-.-.-.-.",
"-.-.-.-.-.-.$ & v v H.H.#X#X*X*X=X=XXXoXW.U._._.%X*X{.[.XX{.OXOXOXOXOXOXXXXX$X$X`.`._.P.%X$X=X=X=X=X*X=XH.~.c c & & k k k -.-.-.",
"-.-.-.-.-.-.d w D.D.~.~.[.[.#X%X{.{.(.(.(.(.XX XXX|.oXoXOX.XOXOXXXXXOX$X$X$X$X$X|.|._._.`._.{.{.XXOX$X&X`._.F.F.e e k k k -.-.-.",
"-.-.-.-.-.-.d d D.D.~.~.[.+X$X$X{.(.(.(.{.(. XXX XXXXXoXXXOXOXOXXXOXXX&X$X&X$X$X|.|._._._._.{.{.XXXX$X$X`.'.F.F.e e k k -.-.-.-.",
"-.-.-.-.-.-.j f ^.~.#X^.#X#XXXXXOXOXoXOX(.(.{.{.&XoX&XOXOXOXOXOX&X&X&XXX$X%X@X$X`.'.'.'..XoX{.OX&X&X$X$X|.|.H.H.e e -.-.-.-.-.-.",
"-.-.-.-.-.-.f f ^.^.[.+X+X+XOXoXOXOXOXOX(.(.{.{.%X&X&X=XOXOXOXOXOXOX$X$X%X%X$X$X'.|.'.'.oXoXXXOX&X$X%X&X|.|.H.H.e e -.-.-.-.-.-.",
"-.-.-.-.-.-.j j ^.^.^.E.+X+X#X*XOXOX.X{.Z.Z.Q.U.{.}.&X&XOXOXOXOX$XOX&X&X$X$X X XP.P.Z.B. X}.OXOX&X%X%X%X|. XH.~.l f -.-.-.-.-.-.",
"-.-.-.-.-.-.j j ^.^.J.^.+X+X*X&XOXOX{..XZ.Z.U.Y. X}.&X&XOXOXOXOXXX&X$X%X%XoXXX XP.Z.B.A.}. XOX.X%X&X%X%X|.XX~.~.e f -.-.-.-.-.-.",
"-.-.-.-.-.-.s s J.J.K.K.K.K.R.T.A.T.A.A.z.l.W.!. X X&X&XoX$X&X&X=XOXOXXXoX%XoX XI.T.N.N.A.A.S.S.Q.W.W.R.A.I.G.G.w r -.-.-.-.-.-.",
"-.-.-.-.-.-.s j J.J.K.K.m.K.T.T.T.T.K.A.z.z.).Q. X X%X%X&XXX$XXXXXXX$XOX%XoX X XI.U.N.N.S.S.S.S.W.W.W.W.B.K.G.G.e w -.-.-.-.-.-.",
"-.-.-.-.-.-.x x O.+.p.p.h.h.k.s.h.h.V.V.s.s.b.b.].].@X@X$X$X&X$XXXOX=XXXoXoX(.(.M.M.s.s.x.x.x.x.N.N.N.N.p.p.....l l -.-.-.-.-.-.",
"-.-.-.-.-.-.x x +.o.p.p.h.j.g.j.f.h.V.V.a.s.b.b.].].oX$X$X$X&X$XOXXXOXOXoXoX(.(.M.M.y.s.N.x.x.c.N.N.n.n.l.y.....l l -.-.-.-.-.-.",
"-.-.-.-.-.-.-.-.$ % +.+.j.p.h.k.d.k.f.f.4.4.5.8.Q.Q.@X|.$X$X$X&XOXOXOXOX$XOXU.U.7.7.5.4.c.c.v.v.n.x.g.z.| | % X -.-.-.-.-.-.-.-.",
"-.-.-.-.-.-.-.-.& $ +.+.p.g.k.k.k.f.f.f.4.4.5.5.Q.U.@X@X|.$XoX$X$XOXOX&X$XXXU.U.7.7.5.4.x.c.v.v.h.x.g.y.| | % % -.-.-.-.-.-.-.-.",
"-.-.-.-.-.-.-.-.. . ; ; o.O.e.e.#.#.$.$.a.a.T.A.oX@X@X%X|.$X$X&X&XOX$X$X%XoXXXoXW.U.8.y.4.4.4.4.a.a.X.X.; ;     -.-.-.-.-.-.-.-.",
"-.-.-.-.-.-.-.-.. . ; ; o.X.a.e.#.#.$.$.a.a.T.T. X%X@X%X$X$X&X$X$X&X&XOX%XoXoX XW.W.y.y.4.4.4.4.a.a.X.X.; ;     -.-.-.-.-.-.-.-.",
"-.-.-.-.-.-.-.-.-.k     5 , G G *.*.6.6.V.N.}..X&XoXoX$X%X%X&X&X&X&X&X%X%X$X%X%X X XT.I.7.w.&.&.F F 5 5 X . -.-.-.-.-.-.-.-.-.-.",
"-.-.-.-.-.-.-.-.-.k     5 w G G *.*.6.w.N.N.}.}.OXOXoXoX%X%X$X&X$X&X$X%X@XoX%X%XoX XI.I.w.w.&.&.F F 2 5 . o -.-.-.-.-.-.-.-.-.-.",
"-.-.-.-.-.-.-.-.-.-.-.-.> > i i j.g.L.R.oXoX&X&X&X=XoXOX&X&X&X%X&XXX%X%X$X%X%X@X X@X].].Y.T.j.J.s s , , -.-.-.-.-.-.-.-.-.-.-.-.",
"-.-.-.-.-.-.-.-.-.-.-.-.> > i i j.k.L.R.oXoX&X&X&X&XoXoX&X&X&X$X&X&X$X%X$X$X@X%X X@X}.].T.Y.j.J.s s , , -.-.-.-.-.-.-.-.-.-.-.-.",
"-.-.-.-.-.-.-.-.-.-.-.-.-.-.p p j.g.E.E.E.!.E.R.!.!..XoXoXOXOXoXoX&XXXXX$X%X X$XoX X}. X).!.E./.j z -.-.-.-.-.-.-.-.-.-.-.-.-.-.",
"-.-.-.-.-.-.-.-.-.-.-.-.-.-.s s j.g.E.E.!.!.R.R.!.!.oXoXXXoXoXoXOX%X|.XX%X%X$X@X XoX}..X).!./.E.D z -.-.-.-.-.-.-.-.-.-.-.-.-.-.",
"-.-.-.-.-.-.-.-.-.-.-.-.-.-.u s m.m.C.C.K J b b P P ).).{.{.'.}.].'.}.}.'.(.].].I.I.m.m.x.x.g.g.p p -.-.-.-.-.-.-.-.-.-.-.-.-.-.",
"-.-.-.-.-.-.-.-.-.-.-.-.-.-.p p m.m.C.v.J S b b P P ).).{.{.'.'.(.].}.'.(.'.].Q.B.S.m.C.n.n.g.g.p p -.-.-.-.-.-.-.-.-.-.-.-.-.-.",
"-.-.-.-.-.-.-.-.-.-.k k k -.8 8 P P >.>.! ! A A 9.9.-X-X].'.M.M.A.A.C.A.V.V.V.m.L.L.L.k.%.6.L L 6 6 -.-.-.-.-.-.-.-.-.-.-.-.-.-.",
"-.-.-.-.-.-.-.-.-.-.k k k -.6 8 L ` >.>.] ! A A 9.9.-X-X].].M.M.A.A.A.C.V.V.m.m.L.L.k.k.*.%.L J 6 6 -.-.-.-.-.-.-.-.-.-.-.-.-.-.",
"-.-.-.-.-.-.-.-.-.k k k k k 9 q S S { ( :.:.) :.0.0..X.X8.8.z.z.A.S.c.c.f.v.d.d.d.%.' =.W K Z Z 6 3 -.-.-.-.-.-.-.-.-.-.-.-.-.-.",
"-.-.-.-.-.-.-.-.-.k k k k k 9 t S S { { :.:.) { 0.0..X.X8.8.z.z.R.A.c.c.v.d.d.s.%.%.' #.H W Z Z 6 6 -.-.-.-.-.-.-.-.-.-.-.-.-.-.",
"-.-.-.-.-.-.-.-.k k k k k k a a >.9.! ! ) ( ( ) ^ ~ ~ E _ _ 4.&.y.p.d.c.d.d.=.=.W W N N M A H K 8 t -.-.-.-.-.-.-.-.-.-.-.-.-.-.",
"-.-.-.k k k k k k k k k k k a a ;.;.! ] ( ( ( ( ^ ^ ! ! _ _ 4.&.p.y.V.k.d.d.=.=.W W N N M Z K K 9 9 -.-.-.-.-.-.-.-.-.-.-.-.-.-.",
"-.-.-.k k k k k k k k k k k a a ;.[ A R Y Y E E Y Y E E _ ] 9 8 q r 6.6.%.%.T U I U U I U U K K q 8 -.-.-.-.-.-.-.-.-.-.-.-.-.-.",
"-.-.-.-.k k k k k k k k k k a a ;.[ A R Y I E E Y Y E E _ _ 9 9 q t *.w.%.%.T S U U I I U T K K t 8 -.-.-.-.-.-.-.-.-.-.-.-.-.-.",
"-.-.-.-.-.-.k k k k k k k k t q J J M m N B B B B m m m H H 2 = $ $ p y Z Z Q Q / / ^ ^ R R J J 4 2 -.-.-.-.-.-.-.-.-.-.-.-.-.-.",
"-.-.-.-.-.-.k k k k k k k k q t P J m M N B B B B B m m H H = 2 $ # i i Z Z ! ! / / ^ ^ Y R J J 4 4 k k k k k k k k k k -.-.-.-.",
"-.-.-.-.-.k k k k k k k k k x x 0 0 Z Z V V V V C H n n 3 3 k k k k $ $ D D P ` { { { ] S S 9 t x x k k k k k k k k k k -.-.-.-.",
"-.-.-.-.-.k k k k k k k k k x x 0 0 n Z V V V V H C n n 3 3 k k k k $ $ D D ` ` { ' _ ] S S 9 t v x k k k k k k k k -.-.-.-.-.-.",
"-.-.-.-.k k k k k k k -.k k k k d g i r i u i t p i 5 4 h h k k k k h h e w s p u u u u r i g g k k k k k k k -.-.-.-.-.-.-.-.-.",
"-.-.-.-.k k k k k -.-.-.-.k k k h d r i i i t t p p 4 w h h k k k k h h w w s p u u u u y t g 1 k k k k k -.-.-.-.-.-.-.-.-.-.-.",
"-.-.-.-.k k k -.-.-.-.-.-.-.-.k k k X * * $ , , O O : : -.-.-.-.k k k k : : O O , > * $ O O k k k k -.-.-.-.-.-.-.-.-.-.-.-.-.-.",
"-.-.-.-.-.-.-.-.-.-.-.-.-.-.-.-.-.-.X * * * , , O O : : -.-.-.-.k k k k * : # * , > * * X * k k k k -.-.-.-.-.-.-.-.-.-.-.-.-.-.",
"-.-.-.-.-.-.-.-.-.-.-.-.-.-.-.-.-.-.-.-.-.-.-.-.-.-.-.-.-.-.-.k k k k k k k k k k k k k k k k k k k k -.-.-.-.-.-.-.-.-.-.-.-.-.",
"-.-.-.-.-.-.-.-.-.-.-.-.-.-.-.-.-.-.-.-.-.-.-.-.-.-.-.-.-.-.k k k k k k k k k k k k k k k k k k k k k -.-.-.-.-.-.-.-.-.-.-.-.-.",
"-.-.-.-.-.-.-.-.-.-.-.-.-.-.-.-.-.-.-.-.-.-.-.-.-.-.-.-.-.-.k k k k k k k k k -.-.k k k k k k k k k k k -.-.-.-.-.-.-.-.-.-.-.-.",
"-.-.-.-.-.-.-.-.-.-.-.-.-.-.-.-.-.-.-.-.-.-.-.-.-.-.-.-.-.k k k k k k k -.-.-.-.-.-.-.k k k k k k k k k -.-.-.-.-.-.-.-.-.-.-.-.",
"-.-.-.-.-.-.-.-.-.-.-.-.-.-.-.-.-.-.-.-.-.-.-.-.-.-.-.-.k k k k k k -.-.-.-.-.-.-.-.-.-.-.k k k k k k k k -.-.-.-.-.-.-.-.-.-.-.",
"-.-.-.-.-.-.-.-.-.-.-.-.-.-.-.-.-.-.-.-.-.-.-.-.-.-.-.-.k k k -.-.-.-.-.-.-.-.-.-.-.-.-.-.-.-.k k k k k k -.-.-.-.-.-.-.-.-.-.-.",
"-.-.-.-.-.-.-.-.-.-.-.-.-.-.-.-.-.-.-.-.-.-.-.-.-.-.-.-.k k -.-.-.-.-.-.-.-.-.-.-.-.-.-.-.-.-.-.-.k k k k -.-.-.-.-.-.-.-.-.-.-.",
"-.-.-.-.-.-.-.-.-.-.-.-.-.-.-.-.-.-.-.-.-.-.-.-.-.-.-.-.-.-.-.-.-.-.-.-.-.-.-.-.-.-.-.-.-.-.-.-.-.-.-.-.-.-.-.-.-.-.-.-.-.-.-.-.",
"-.-.-.-.-.-.-.-.-.-.-.-.-.-.-.-.-.-.-.-.-.-.-.-.-.-.-.-.-.-.-.-.-.-.-.-.-.-.-.-.-.-.-.-.-.-.-.-.-.-.-.-.-.-.-.-.-.-.-.-.-.-.-.-.",
"-.-.-.-.-.-.-.-.-.-.-.-.-.-.-.-.-.-.-.-.-.-.-.-.-.-.-.-.-.-.-.-.-.-.-.-.-.-.-.-.-.-.-.-.-.-.-.-.-.-.-.-.-.-.-.-.-.-.-.-.-.-.-.-.",
"-.-.-.-.-.-.-.-.-.-.-.-.-.-.-.-.-.-.-.-.-.-.-.-.-.-.-.-.-.-.-.-.-.-.-.-.-.-.-.-.-.-.-.-.-.-.-.-.-.-.-.-.-.-.-.-.-.-.-.-.-.-.-.-.",
"-.-.-.-.-.-.-.-.-.-.-.-.-.-.-.-.-.-.-.-.-.-.-.-.-.-.-.-.-.-.-.-.-.-.-.-.-.-.-.-.-.-.-.-.-.-.-.-.-.-.-.-.-.-.-.-.-.-.-.-.-.-.-.-."
};
