/* XPM */
static char *result[] = {
/* columns rows colors chars-per-pixel */
"64 64 193 2 ",
"   c #080003",
".  c #150001",
"X  c #190105",
"o  c #1A040B",
"O  c #170C0C",
"+  c #1F0010",
"@  c #1C1111",
"#  c #220101",
"$  c #22000D",
"%  c #2B010B",
"&  c #27080B",
"*  c #39020E",
"=  c #3A080D",
"-  c #250015",
";  c #2B0112",
":  c #370616",
">  c #3B0015",
",  c #221314",
"<  c #23181B",
"1  c #2B1A1B",
"2  c #2F2525",
"3  c #312526",
"4  c #3B2929",
"5  c #42000D",
"6  c #4B0216",
"7  c #450619",
"8  c #490419",
"9  c #57031D",
"0  c #4E1B1B",
"q  c #610B1A",
"w  c #78001C",
"e  c #63111D",
"r  c #430D21",
"t  c #4A0F24",
"y  c #4F172C",
"u  c #4B1B2E",
"i  c #551022",
"p  c #521A2F",
"a  c #4C1B3A",
"s  c #690D21",
"d  c #730526",
"f  c #7D0125",
"g  c #661934",
"h  c #78173C",
"j  c #43202C",
"k  c #4D2635",
"l  c #51253A",
"z  c #44393B",
"x  c #736122",
"c  c #582B43",
"v  c #642643",
"b  c #732F46",
"n  c #6C3249",
"m  c #6F2A56",
"M  c #742C5B",
"N  c #663452",
"B  c #7E3A53",
"V  c #614550",
"C  c #7A4359",
"Z  c #734562",
"A  c #87001F",
"S  c #830424",
"D  c #8C0026",
"F  c #8F0029",
"G  c #92002C",
"H  c #970032",
"J  c #881939",
"K  c #941839",
"L  c #A50439",
"P  c #B9003D",
"I  c #A4173E",
"U  c #87203B",
"Y  c #9E0A41",
"T  c #851A45",
"R  c #981D42",
"E  c #AB0B43",
"W  c #BB084C",
"Q  c #A91B4A",
"!  c #BA164D",
"~  c #BE1652",
"^  c #802641",
"/  c #9F2240",
"(  c #873544",
")  c #893A54",
"_  c #853C5A",
"`  c #923B58",
"'  c #A2294F",
"]  c #AA355A",
"[  c #9C3863",
"{  c #A63C68",
"}  c #CB1A58",
"|  c #D41357",
" . c #D51D65",
".. c #DF1B68",
"X. c #ED1E6F",
"o. c #E71D71",
"O. c #F41673",
"+. c #F21B77",
"@. c #F61C7D",
"#. c #D62269",
"$. c #C7316A",
"%. c #D93974",
"&. c #E8236D",
"*. c #E12270",
"=. c #F92677",
"-. c #F1247D",
";. c #82455D",
":. c #A94C5C",
">. c #99476C",
",. c #94526F",
"<. c #9B4F72",
"1. c #885374",
"2. c #905E78",
"3. c #A74973",
"4. c #B64D76",
"5. c #A95877",
"6. c #B55279",
"7. c #BD547E",
"8. c #AF6279",
"9. c #C85076",
"0. c #D25171",
"q. c #DD677F",
"w. c #E6C03E",
"e. c #CB3C8A",
"r. c #FA2080",
"t. c #F83084",
"y. c #AF5F83",
"u. c #B25482",
"i. c #9E6883",
"p. c #B56985",
"a. c #BB6D90",
"s. c #C84883",
"d. c #C65584",
"f. c #D5588C",
"g. c #D85799",
"h. c #C3648B",
"j. c #CB648D",
"k. c #D76889",
"l. c #CB7697",
"z. c #CF709B",
"x. c #D7789C",
"c. c #E56E8F",
"v. c #F2608C",
"b. c #E96493",
"n. c #F16391",
"m. c #F77499",
"M. c #CE6CA4",
"N. c #DC76A3",
"B. c #DA7CA2",
"V. c #E576A6",
"C. c #F276A7",
"Z. c #E764B2",
"A. c #E872B7",
"S. c #DB84B3",
"D. c #E482A8",
"F. c #FF84AB",
"G. c #E88EB5",
"H. c #F184B4",
"J. c #FC86B5",
"K. c #F781BA",
"L. c #FF8DBB",
"P. c #E990BA",
"I. c #F894BD",
"U. c #E989C5",
"Y. c #F88AC2",
"T. c #FF8DC5",
"R. c #EF99CC",
"E. c #FE92C5",
"W. c #FE9DC6",
"Q. c #F596CA",
"!. c #FE95CB",
"~. c #FE9ACB",
"^. c #FF96D0",
"/. c #FE9BD4",
"(. c #FE9DDB",
"). c #FFA7C2",
"_. c #FDACCD",
"`. c #FEA2D5",
"'. c #FDACD3",
"]. c #FEA3DC",
"[. c #FFABDD",
"{. c #FEB1DE",
"}. c #FF96E1",
"|. c #FF9CE4",
" X c #FFA3E2",
".X c #FFABE3",
"XX c #FFACE8",
"oX c #FFB4E5",
"OX c #FFBBE4",
"+X c #FFB2EB",
"@X c #FFB7F2",
"#X c #FFC5E3",
"$X c #FFDCFC",
/* pixels */
"w.w.w.w.w.w.w.w.w.w.w.w.w.w.w.w.w.w.w.w.w.w.w.w.w.w.w.w.w.w.w.w.w.w.w.w.w.w.w.w.w.w.w.w.w.w.w.w.w.w.w.w.w.w.w.w.w.w.w.w.w.w.w.w.",
"w.w.w.w.w.w.w.w.w.w.w.w.w.w.w.w.w.w.w.w.w.w.w.w.w.w.w.w.w.w.w.w.w.w.w.w.w.w.w.w.w.w.w.w.w.w.w.w.w.w.w.w.w.w.w.w.w.w.w.w.w.w.w.w.",
"w.w.w.w.w.w.w.w.w.w.w.w.w.w.w.w.w.w.w.w.w.w.w.w.w.w.w.w.w.w.w.w.w.w.w.w.w.w.w.w.w.w.w.w.w.w.w.w.w.w.w.w.w.w.w.w.w.w.w.w.w.w.w.w.",
"w.w.w.w.w.w.w.w.w.w.w.w.w.w.w.w.w.w.w.w.w.w.w.w.w.w.w.w.w.w.w.w.w.w.w.w.w.w.w.w.w.w.w.w.w.w.w.w.w.w.w.w.w.w.w.w.w.w.w.w.w.w.w.w.",
"w.w.w.w.w.w.w.w.w.w.w.w.w.w.w.w.w.w.w.w.w.w.w.w.w.w.w.w.w.w.w.w.w.w.w.w.w.w.w.w.w.w.w.w.w.w.w.w.w.w.w.w.w.w.w.w.w.w.w.w.w.w.w.w.",
"w.w.w.w.w.w.w.w.w.w.w.w.w.w.w.w.w.w.w.w.x x w.w.w.w.w.w.w.w.w.w.w.w.w.w.w.w.w.w.w.w.w.w.w.w.w.w.w.w.w.w.w.w.w.w.w.w.w.w.w.w.w.w.",
"w.w.w.w.w.w.w.w.w.w.w.w.w.w.w.w.w.w.% % : r y y p a c c l l u u 7 r ; ; w.w.w.w.w.w.w.w.w.w.w.w.w.w.w.w.w.w.w.w.w.w.w.w.w.w.w.w.",
"w.w.w.w.w.w.w.w.w.w.w.w.w.w.w.w.w.w.% % r : a y a u c c l l u u r r ; ; w.w.w.w.w.w.w.w.w.w.w.w.w.w.w.w.x x w.w.w.w.w.w.w.w.w.w.",
"w.w.w.w.w.w.w.w.w.w.w.w.w.w.. . * * ( ) j.j.N.N.R.R.oXoXR.`.S.S.z.z.3.3.r t X X 3 3 w.w.w.w.w.w.w.w.w.x x x w.w.w.w.w.w.w.w.w.w.",
"w.w.w.w.w.w.w.w.w.w.w.w.w.w.. . * = ` ` j.j.N.N.R.R.XX+X`.'.A.S.z.z.5.<.0 3 X X 3 3 w.w.w.w.w.w.w.w.w.x x x w.w.w.w.w.w.w.w.w.w.",
"w.w.w.w.w.w.w.w.w.w.w.w.  O : : 5.5.H.H.W.~.^.^.].].XX X(.(.^.^.~.~.`._.S.G.n n . . @ @ w.w.w.w.w.w.x x x x w.w.w.w.w.w.w.w.w.w.",
"w.w.w.w.w.w.w.w.w.w.w.w.o o : : 5.8.H.H.W.W.^.!.(.].XX.X(.(.^.!.^.W.`.`.G.S.n n X X @ @ w.w.w.w.w.w.x x x x w.w.w.w.w.w.w.w.w.w.",
"w.w.w.w.w.w.w.w.w.w.w.w.> > y.y.R.Q.`./.'.].[.[.Y.P.[ [ f.j.].].L.E.{ { V.N.l.l.p p . . w.w.w.w.w.x x x x x x w.w.w.w.w.w.w.w.w.",
"w.w.w.w.w.w.w.w.w.w.w.w.> > y.y.R.R.`.`.].].'.'.I.Y.' [ f.f.].[.L.L.{ { N.N.l.l.k p . . x x x x x x x x x x x x x x x x x w.w.w.",
"w.w.w.w.w.w.w.w.w.w.k l >.>.^.~. X X(.(.`.].`.`.~.~.V.D.7.7.N.x.).W.B.N.4.4.x.D.p.p.= 1 x x x x x x x x x x x x x x x x x w.w.w.",
"w.w.w.w.w.w.x x x x k k >.>.~.Q. X X(.R.].`.`.`.~.^.D.D.7.u.c.x.W.W.x.B.4.4.D.x.p.p.: : x x x x x x x x x x x x x x x x w.w.w.w.",
"w.w.w.w.w.w.x x . . v n S.S..X X(.(.(. X.X.X(.].oX[.$X$X<.<._ _ #X#X$X$X) ) 8.8.).).g g o X x x x x x x x x x x x x w.w.w.w.w.w.",
"w.w.w.w.w.w.w.x . X v v S.S. X X(.(.|.]..XXX`.].[..X$X$X<.<._ _ #X#X$X$X) _ 8.8.).).e g . X x x x x x x x x x x w.w.w.w.w.w.w.w.",
"w.w.w.w.w.w.w.w.# # <.5.'.'.R.(.(.(. X|.(.(.]. XQ.E.[ >.; ; C Z _._.p.y.# % ;.;._._.6.5.& & x x x x x x x x x x x w.w.w.w.w.w.w.",
"w.w.w.w.w.w.w.w.# o 5.i.'.`.(.(.(. X|. X(.(.].].E.E.>.[ ; ; B Z _._.p.p.% % 1.Z _._.5.5.% & x x x x x x x x x x x w.w.w.w.w.w.w.",
"w.w.w.w.w.w.4 4 g g N.B.`.`././. X X(.].|. X@X@X!.W.h h + + Z Z _.`.6.u.- - 1.Z {.#Xl.l.= & 1 1 x x w.w.x x x x x x w.w.w.w.w.w.",
"w.w.w.w.w.w.3 4 g g N.N.`.`././.].R.|.(. X|.@X@XE.T.h h + + Z Z `.'.u.u.- - Z i.#X{.l.l.& % 1 1 w.w.w.w.w.w.x x x x w.w.w.w.w.w.",
"w.w.w.w.V V ;.;.z.x.E.E.`.`.(.(.R. X X XA.A.g.g.f.f.T T o o N N .X.XM.M.+ + a a S.S.P.P.C ;.# # , , w.w.w.w.w.w.x x w.w.w.w.w.w.",
"w.w.w.w.V V ;.C x.z.E.!.`./.`.(. XR. X XA.A.g.g.f.f.T T $ $ N m {.[.z.M.+ + a a S.G.P.P.;.;.# # , , w.w.w.w.w.w.w.w.w.w.w.w.w.w.",
"w.w.u u C B _.'.{.{..X[.`.].`.`. X]. X XZ.Z.e.e.e.s.s.s.v v 1.1..X.XU.U.M M m m M.M. X XP.P._ _ ; ;     w.w.w.w.w.w.w.w.w.w.w.w.",
"w.w.u 4 n n _._.{.{.]..X].]././.].].|.XXZ.Z.e.e.s.e.s.d.v c 1.>..X.XU.U.M M m m M.M. X XP.K.;._ ; ;     w.w.w.w.w.w.w.w.w.w.w.w.",
"X X u u D.D.'.'./.`.].].`.(.`.(.`.(.|.].}.}.|.|.(.(./.`.'.'.'.{.`.`.].].`.`..X[.(.(.(.(.^./.P.P.N N < < w.w.w.w.w.w.w.w.w.w.w.w.",
"o X y y x.x.'.`.`.(.].].(.`.(.(.(.(.].(.}.}.|.|.}.(.`.(.'.'.'.'.`.`.[..X`.`.[..X}.(.(.(./.^.P.P.N N < < w.w.w.w.w.w.w.w.w.w.w.w.",
"o o b n D.D.W.W.].].]. X^./.Y.!.`.]./.`. X X(.|.|. X].]..X{.OXOXI.I.[ { U.U.oXXX/.^.^.^././.[.oX2.2.< < w.w.w.w.w.w.w.w.w.w.w.w.",
"o o n n D.D.W.W.]..X X X/./.!.!./.`.(./. X].(.|. X X`.`.{.{.OXoXI.I.[ [ P.Y.XXXX/./.^.^././.{.'.2.2., , w.w.w.w.w.w.w.w.w.w.w.w.",
"1 1 ( B B.B.F.J.!.!./.R.!.!.T.T.Q.!.E.W.~.~.~.!.Y.Y.Z.V.3.4.{ { ] ] d f d.9.!.!.^.~.H.K.R.Q.OXOXi.i.1 1 w.w.w.w.w.w.w.w.w.w.w.w.",
"1 1 B B V.D.F.J.!.!././.!.!.T.T.E.!.!.E.^./.!.^.Y.Y.V.Z.3.{ { { ] ] f d d.d.!.!.!.~.H.A.Q.Q.OXOXi.8.1 1 w.w.w.w.w.w.w.w.w.w.w.w.",
". . b b j.k.m.C.E.T.K.K.K.J.T.T.E.E.L.E.J.L.b.b.%.%.$.$.j.j.4.4.I L F G K K k.k.J.F.b.k.!.!.'.[.,.,.. . w.w.w.w.w.w.w.w.w.w.w.w.",
"  . b b k.k.C.C.T.T.K.K.K.A.T.T.E.E.E.T.L.L.n.m.%.%.$.$.f.f.4.4.Y Y F D K K k.q.C.C.b.b.!.!.'.].,.,.. . w.w.w.w.w.w.w.w.w.w.w.w.",
"2 2 p k ` ` 6.6.h.h.6.6.f.d.C.H.L.L.L.L.v.v.~ ~ P P  .#.+X+X.X].#. .} } A A K K 0.0.9.9.j.j.a.a.n n j 4 w.w.w.w.w.w.w.w.w.w.w.w.",
"2 2 p p ` ` 6.6.h.h.u.6.d.d.C.C.L.L.L.L.n.n.! ! P P  .#.+X+X].].#.#.} } A A K K 0.0.9.9.j.j.a.a.V n 4 4 w.w.w.w.w.w.w.w.w.w.w.w.",
"w.w.z z X X X . o o ; $ ^ ^ c.c.m.m.v.v.! ! W P +.+.O.O.-.-.t.t.X.X.&.&.P P w A J J ` ` 7 : X X w.w.w.w.w.w.w.w.w.w.w.w.w.w.w.w.",
"w.w.z z X X . o + + % % U b c.c.m.m.v.v.! ! W | +.-.+.+.-.+.t.t.X.-.&.&.I P S w K J ` ` : : X o w.w.w.w.w.w.w.w.w.w.w.w.w.w.w.w.",
"w.w.w.w.w.w.w.w.w.x O O 5 5 :.:.q.q.I I E P ..o.r.r.@.@.O.O.O.O.=.=.| | ! ! K K 9 9 > > w.w.w.w.w.w.w.w.w.w.w.w.w.w.w.w.w.w.w.w.",
"w.w.w.w.w.w.w.w.w.x O O 5 5 :.:.q.q.I I E P ..o.r.r.@.@.O.O.O.O.=.=.| | ! ! T / s 9 > > w.w.w.w.w.w.w.w.w.w.w.w.w.w.w.w.w.w.w.w.",
"w.w.w.w.w.w.w.w.x x x x x x 0 0 U ;.w q I P *.*.-.-.-.-.o.o. ...| | P I / / e s 5 = x x x w.w.w.w.w.w.w.w.w.w.w.w.w.w.w.w.w.w.w.",
"w.w.w.x x x x x x x x x x x 0 0 ( ( w e P I *.*.-.-.@.+.o.o.....| | I P / K e s = = x x x w.w.w.w.w.w.w.w.w.w.w.w.w.w.w.w.w.w.w.",
"w.w.w.x x x x x x x x x x x # # e e w S H H ! W #.#. . .~ W E E G G D S q q = 0 x x x x x x w.w.w.w.w.w.w.w.w.w.w.w.w.w.w.w.w.w.",
"w.w.w.w.x x x x x x x x x x # # e e S S H H ! W #.#. . .W ~ L L G G S S q e = 5 x x x x x x w.w.w.w.w.w.w.w.w.w.w.w.w.w.w.w.w.w.",
"w.w.w.w.w.w.x x x x x x x x * * / R L L F F S S D D D D f f d d 9 0 # # . X x x x x x x x x x w.w.w.w.w.w.w.w.w.w.w.w.w.w.w.w.w.",
"w.w.w.w.w.w.x x x x x x x x * * R K L L F F A S D D D D S S d d 8 9 # # X X x x x x x x x x x x x x x x x x x x x x x x w.w.w.w.",
"w.w.w.w.w.x x x x x x x x x > * ' ' Q Q R ^ J U U J U U ( ( i i & O x x x x x x x x x x x x x x x x x x x x x x x x x x w.w.w.w.",
"w.w.w.w.w.x x x x x x x x x > 5 ' ' Q Q R / U U J J U T ( ( i i o & x x x x x x x x x x x x x x x x x x x x x x x x w.w.w.w.w.w.",
"w.w.w.w.x x x x x x x w.x x x x 6 8 6 6 6 6 7 8 t t 7 7 r r k k x x x x x x x x x x x x x x x x x x x x x x x w.w.w.w.w.w.w.w.w.",
"w.w.w.w.x x x x x w.w.w.w.x x x 6 6 6 6 8 8 8 8 0 t 7 7 r 7 k k x x x x x x x x x x x x x x x x x x x x x w.w.w.w.w.w.w.w.w.w.w.",
"w.w.w.w.x x x w.w.w.w.w.w.w.w.x x x x w.w.w.w.w.w.w.w.w.w.w.w.w.x x x x x x x x x x x x x x x x x x w.w.w.w.w.w.w.w.w.w.w.w.w.w.",
"w.w.w.w.w.w.w.w.w.w.w.w.w.w.w.w.w.w.w.w.w.w.w.w.w.w.w.w.w.w.w.w.x x x x x x x x x x x x x x x x x x w.w.w.w.w.w.w.w.w.w.w.w.w.w.",
"w.w.w.w.w.w.w.w.w.w.w.w.w.w.w.w.w.w.w.w.w.w.w.w.w.w.w.w.w.w.w.x x x x x x x x x x x x x x x x x x x x w.w.w.w.w.w.w.w.w.w.w.w.w.",
"w.w.w.w.w.w.w.w.w.w.w.w.w.w.w.w.w.w.w.w.w.w.w.w.w.w.w.w.w.w.x x x x x x x x x x x x x x x x x x x x x w.w.w.w.w.w.w.w.w.w.w.w.w.",
"w.w.w.w.w.w.w.w.w.w.w.w.w.w.w.w.w.w.w.w.w.w.w.w.w.w.w.w.w.w.x x x x x x x x x w.w.x x x x x x x x x x x w.w.w.w.w.w.w.w.w.w.w.w.",
"w.w.w.w.w.w.w.w.w.w.w.w.w.w.w.w.w.w.w.w.w.w.w.w.w.w.w.w.w.x x x x x x x w.w.w.w.w.w.w.x x x x x x x x x w.w.w.w.w.w.w.w.w.w.w.w.",
"w.w.w.w.w.w.w.w.w.w.w.w.w.w.w.w.w.w.w.w.w.w.w.w.w.w.w.w.x x x x x x w.w.w.w.w.w.w.w.w.w.w.x x x x x x x x w.w.w.w.w.w.w.w.w.w.w.",
"w.w.w.w.w.w.w.w.w.w.w.w.w.w.w.w.w.w.w.w.w.w.w.w.w.w.w.w.x x x w.w.w.w.w.w.w.w.w.w.w.w.w.w.w.w.x x x x x x w.w.w.w.w.w.w.w.w.w.w.",
"w.w.w.w.w.w.w.w.w.w.w.w.w.w.w.w.w.w.w.w.w.w.w.w.w.w.w.w.x x w.w.w.w.w.w.w.w.w.w.w.w.w.w.w.w.w.w.w.x x x x w.w.w.w.w.w.w.w.w.w.w.",
"w.w.w.w.w.w.w.w.w.w.w.w.w.w.w.w.w.w.w.w.w.w.w.w.w.w.w.w.w.w.w.w.w.w.w.w.w.w.w.w.w.w.w.w.w.w.w.w.w.w.w.w.w.w.w.w.w.w.w.w.w.w.w.w.",
"w.w.w.w.w.w.w.w.w.w.w.w.w.w.w.w.w.w.w.w.w.w.w.w.w.w.w.w.w.w.w.w.w.w.w.w.w.w.w.w.w.w.w.w.w.w.w.w.w.w.w.w.w.w.w.w.w.w.w.w.w.w.w.w.",
"w.w.w.w.w.w.w.w.w.w.w.w.w.w.w.w.w.w.w.w.w.w.w.w.w.w.w.w.w.w.w.w.w.w.w.w.w.w.w.w.w.w.w.w.w.w.w.w.w.w.w.w.w.w.w.w.w.w.w.w.w.w.w.w.",
"w.w.w.w.w.w.w.w.w.w.w.w.w.w.w.w.w.w.w.w.w.w.w.w.w.w.w.w.w.w.w.w.w.w.w.w.w.w.w.w.w.w.w.w.w.w.w.w.w.w.w.w.w.w.w.w.w.w.w.w.w.w.w.w.",
"w.w.w.w.w.w.w.w.w.w.w.w.w.w.w.w.w.w.w.w.w.w.w.w.w.w.w.w.w.w.w.w.w.w.w.w.w.w.w.w.w.w.w.w.w.w.w.w.w.w.w.w.w.w.w.w.w.w.w.w.w.w.w.w."
};
