/* XPM */
static char *result[] = {
/* columns rows colors chars-per-pixel */
"64 64 201 2 ",
"   c #080000",
".  c #150102",
"X  c #1C0003",
"o  c #180808",
"O  c #220104",
"+  c #26020B",
"@  c #27070B",
"#  c #2A000C",
"$  c #330003",
"%  c #37030E",
"&  c #2F0110",
"*  c #340213",
"=  c #3A0413",
"-  c #3B0B1C",
";  c #251213",
":  c #2A1414",
">  c #2F1F21",
",  c #3A1126",
"<  c #2C2223",
"1  c #372326",
"2  c #3C2B2D",
"3  c #45000F",
"4  c #4B0319",
"5  c #4E0518",
"6  c #500012",
"7  c #53011C",
"8  c #650018",
"9  c #4A0420",
"0  c #590325",
"q  c #520A20",
"w  c #441628",
"e  c #4A1C2B",
"r  c #5E0F33",
"t  c #5A1D37",
"y  c #650B27",
"u  c #700E34",
"i  c #63193B",
"p  c #6B1D39",
"a  c #751839",
"s  c #4C2337",
"d  c #552937",
"f  c #453134",
"g  c #503033",
"h  c #64223E",
"j  c #67293E",
"k  c #70283E",
"l  c #736122",
"z  c #751D41",
"x  c #792C46",
"c  c #6B3648",
"v  c #794667",
"b  c #80052A",
"n  c #8B0937",
"m  c #920830",
"M  c #87173A",
"N  c #95163C",
"B  c #A20432",
"V  c #A80C37",
"C  c #B70036",
"Z  c #A41E3B",
"A  c #84203D",
"S  c #851B48",
"D  c #9C1E49",
"F  c #981F55",
"G  c #AD0641",
"H  c #B7074A",
"J  c #A61947",
"K  c #B7184C",
"L  c #BD1957",
"P  c #86314C",
"I  c #842955",
"U  c #9D2F58",
"Y  c #893652",
"T  c #9D3356",
"R  c #9C375B",
"E  c #AB234C",
"W  c #A22455",
"Q  c #B22C54",
"!  c #B4255A",
"~  c #A43B5A",
"^  c #AB2160",
"/  c #BA2661",
"(  c #BA3768",
")  c #C50D46",
"_  c #CC034A",
"`  c #CB124E",
"'  c #D10150",
"]  c #D5105E",
"[  c #CD245F",
"{  c #D1235C",
"}  c #C33A5A",
"|  c #C71F63",
" . c #E40D63",
".. c #E51468",
"X. c #EF1477",
"o. c #F41C75",
"O. c #FA1E7C",
"+. c #C62765",
"@. c #D72368",
"#. c #C23961",
"$. c #E32766",
"%. c #E6236D",
"&. c #ED267B",
"*. c #E62978",
"=. c #FC267C",
"-. c #A6425F",
";. c #895677",
":. c #A14562",
">. c #B14666",
",. c #AA546F",
"<. c #A74F78",
"1. c #A25775",
"2. c #BF5172",
"3. c #AF677D",
"4. c #D5476D",
"5. c #CE4C7A",
"6. c #D24476",
"7. c #D14D75",
"8. c #D14A79",
"9. c #C95E7B",
"0. c #E54D7E",
"q. c #E6C03E",
"w. c #FF1F84",
"e. c #F0398B",
"r. c #AF5C83",
"t. c #B25C85",
"y. c #B2788C",
"u. c #BF7E94",
"i. c #C54F80",
"p. c #CA5F88",
"a. c #D75987",
"s. c #DE5C93",
"d. c #E95A87",
"f. c #E55C8B",
"g. c #F75C90",
"h. c #C76685",
"j. c #D86789",
"k. c #CB6E93",
"l. c #D06091",
"z. c #C67A9E",
"x. c #D97895",
"c. c #E3638C",
"v. c #E76893",
"b. c #EC6D95",
"n. c #ED6D9D",
"m. c #F46495",
"M. c #F76997",
"N. c #F16E9B",
"B. c #ED709C",
"V. c #F4739E",
"C. c #FE759F",
"Z. c #C46FA0",
"A. c #D97BA8",
"S. c #DF79B0",
"D. c #E379A9",
"F. c #F575A3",
"G. c #FC74A2",
"H. c #F878A3",
"J. c #F374A8",
"K. c #F27EAB",
"L. c #E17BB0",
"P. c #C387A3",
"I. c #D39AB0",
"U. c #E382AF",
"Y. c #E88AAE",
"T. c #FF82AD",
"R. c #EC83B3",
"E. c #E488B3",
"W. c #FC85B4",
"Q. c #FF8AB6",
"!. c #F586BC",
"~. c #FC83BA",
"^. c #FF89BC",
"/. c #EB90BA",
"(. c #F896BB",
"). c #CEA7B6",
"_. c #F8A6BD",
"`. c #F68BC0",
"'. c #FF8EC3",
"]. c #FF92C3",
"[. c #F49AC3",
"{. c #FE93CB",
"}. c #F59CCB",
"|. c #FE9ACC",
" X c #FF96D0",
".X c #F69DD1",
"XX c #FF9BD4",
"oX c #FE9DDC",
"OX c #D8B1C3",
"+X c #FCA3CA",
"@X c #EEB0CC",
"#X c #FDA2D5",
"$X c #FFA1DC",
"%X c #F2AED9",
"&X c #FFAADC",
"*X c #EFB2DA",
"=X c #FF9EE1",
"-X c #FEA3E1",
";X c #FFADE6",
":X c #FFB8E9",
">X c #FFD3F4",
/* pixels */
"q.q.q.q.q.q.q.q.q.q.q.q.q.q.q.q.q.q.q.q.q.q.q.q.q.q.q.q.q.q.q.q.q.q.q.q.q.q.q.q.q.q.q.q.q.q.q.q.q.q.q.q.q.q.q.q.q.q.q.q.q.q.q.q.",
"q.q.q.q.q.q.q.q.q.q.q.q.q.q.q.q.q.q.q.q.q.q.q.q.q.q.q.q.q.q.q.q.q.q.q.q.q.q.q.q.q.q.q.q.q.q.q.q.q.q.q.q.q.q.q.q.q.q.q.q.q.q.q.q.",
"q.q.q.q.q.q.q.q.q.q.q.q.q.q.q.q.q.q.q.q.q.q.q.q.q.q.q.q.q.q.q.q.q.q.q.q.q.q.q.q.q.q.q.q.q.q.q.q.q.q.q.q.q.q.q.q.q.q.q.q.q.q.q.q.",
"q.q.q.q.q.q.q.q.q.q.q.q.q.q.q.q.q.q.q.q.q.q.q.q.q.q.q.q.q.q.q.q.q.q.q.q.q.q.q.q.q.q.q.q.q.q.q.q.q.q.q.q.q.q.q.q.q.q.q.q.q.q.q.q.",
"q.q.q.q.q.q.q.q.q.q.q.q.q.q.q.q.q.q.q.q.q.q.q.q.q.q.q.q.q.q.q.q.q.q.q.q.q.q.q.q.q.q.q.q.q.q.q.q.q.q.q.q.q.q.q.q.q.q.q.q.q.q.q.q.",
"q.q.q.q.q.q.q.q.q.q.q.q.q.q.q.q.q.q.q.q.l l q.q.q.q.q.q.q.q.q.q.q.q.q.q.q.q.q.q.q.q.q.q.q.q.q.q.q.q.q.q.q.q.q.q.q.q.q.q.q.q.q.q.",
"q.q.q.q.q.q.q.q.q.q.q.q.q.q.q.q.q.q.q.q.l l q.q.q.q.q.q.q.q.q.q.q.q.q.q.q.q.q.q.q.q.q.q.q.q.q.q.q.q.q.q.q.q.q.q.q.q.q.q.q.q.q.q.",
"q.q.q.q.q.q.q.q.q.q.q.q.q.q.q.q.q.q.q.l l l l q.q.q.q.q.q.q.q.q.q.q.q.q.q.q.q.q.q.q.q.q.q.q.q.q.q.q.q.q.l l q.q.q.q.q.q.q.q.q.q.",
"q.q.q.q.q.q.q.q.q.q.q.q.q.q.q.q.q.q.q.l l l l q.q.q.q.q.q.q.q.q.q.q.q.q.q.q.q.q.q.q.q.q.q.q.q.q.q.q.q.l l l q.q.q.q.q.q.q.q.q.q.",
"q.q.q.q.q.q.q.q.q.q.q.q.q.q.q.q.q.q.l l l l l l q.q.q.q.q.q.q.q.q.q.q.q.q.q.q.q.q.q.q.q.q.q.q.q.q.q.q.l l l q.q.q.q.q.q.q.q.q.q.",
"q.q.q.q.q.q.q.q.q.q.q.q.q.q.q.q.q.q.l l l l * * , , e e s s d d d s , w - - O #     q.q.q.q.q.q.q.q.l l l l q.q.q.q.q.q.q.q.q.q.",
"q.q.q.q.q.q.q.q.q.q.q.q.q.q.q.q.q.l l l l l * * - - e e s d d g s s w w - - + #     q.q.q.q.q.q.q.q.l l l l q.q.q.q.q.q.q.q.q.q.",
"q.q.q.q.q.q.q.q.q.q.q.q.q.q.q.q.@ @ * * r r <.<.z.A.D.U.}.+X[.}././.A.U.3.h.Y Y = 4 + + . . q.q.q.l l l l l l q.q.q.q.q.q.q.q.q.",
"q.q.q.q.q.q.q.q.q.q.q.q.q.q.q.q.@ @ * * r r <.<.A.z.U.U.+X}.}.}././.U.A.h.h.Y Y - = + @ o . l l l l l l l l l l l l l l l q.q.q.",
"q.q.q.q.q.q.q.q.q.q.q.q.q.q.@ @ h h r.r.R.E. X{. X{.XXXX$X#X$XoXXXXX|.{.+X#XQ.(.h.k.3.3.e e . . < < l l l l l l l l l l l q.q.q.",
"q.q.q.q.q.q.l l l l l l l l : @ t z r.r.E.R. X X X{.XXXX#X$XoX.XXXXX|.|.+X+X(.(.h.h.3.3.e e . . < < l l l l l l l l l l q.q.q.q.",
"q.q.q.q.q.q.l l l l l l g g p p k.z..X.X-X;X-X-X-X;X-X-X-X-XoXoX-X$X;X:Xp.p.2.2.+X+X>.2.:.:.k k ; ; l l l l l l l l q.q.q.q.q.q.",
"q.q.q.q.q.q.q.l l l l l d d p j z.z..X.X-X-X;X-X-X-X-X;X-X-XoX=X-X$X:X;Xp.9.2.9.+X+X>.>.:.:.k k @ @ l l l l l l q.q.q.q.q.q.q.q.",
"q.q.q.q.q.q.q.q.q.l l l 5 3 k.k.{. X;X;X=X$X$X-X=X-X-X-X-X=X-X-X-X-X#X#XY.Y.x.x.B.P.>.>.9.h.P P : : l l l l l l l q.q.q.q.q.q.q.",
"q.q.q.q.q.q.q.q.q.q.q.l 5 3 k.k..X{.;X;X$X$X-X-X=X%X-X-X-X=X-X=X-X-XXX.XY.Y.x.x.x.b.>.>.h.9.P P : ; l l l l l l l q.q.q.q.q.q.q.",
"q.q.q.q.q.q.q.q.q.q.q.q.p p [.].oXoX=X=X=XoX=XoXoX=XoX=X=X=X-X-X-X=X}.}.>X>X_._.y y P.Y.,.,.4 4 + # . . l l l l l l q.q.q.q.q.q.",
"q.q.q.q.q.q.q.q.q.q.q.q.p k `.[.oX=X=X=XoX=X.X=X=XoX=X.X-X=X=X-X-X=X}..X>X>X_._.y y P.x.,.1.4 4 # # . . q.q.l l l l q.q.q.q.q.q.",
"q.q.q.q.q.q.q.q.2 2 - - <.t.#XXX=X=X=X=X=X=X=X=X=X=X=X=X=X-X$X$XoX-X.XoXY.Y.x x $ $ 9.P.j j = * c x O @ q.q.q.q.l l q.q.q.q.q.q.",
"q.q.q.q.q.q.q.q.2 2 4 - 2.3.#XXX-X=X=X=X-X=X=X-XoX=X=X=X=X$X$X$X-X-X#XoXI.Y.x x $ $ u.u.j z = - c c O O q.q.q.q.q.q.q.q.q.q.q.q.",
"q.q.q.q.q.q.q.q.1 1 t t S.A.oXXX=X=XoXoX$XXX$XXX$XoX=XoXXXXXXX.X#X#X&X&XU.L.z z # $ ).).c c s , y.y.# @ q.q.q.q.q.q.q.q.q.q.q.q.",
"q.q.q.q.q.q.q.q.1 1 t t A.S.oXoX=X-XoXoX$XoXoX$XoX=XoX=XXXXX|. X$X.X&X&XU.U.z z # # ).).c c , , y.y.# $ q.q.q.q.q.q.q.q.q.q.q.q.",
"q.q.q.q.q.q.q.q.f f h h S.S.oXoX-X=X.XoXoXXXoXoX=X$XoX$X`.`.R.R.$X#X&X&X{.|.I I O # OXOX2 s , , I.I.& & q.q.q.q.q.q.q.q.q.q.q.q.",
"q.q.q.q.q.q.q.q.f f h h S.L.oXoXoX=X.XoXoXXXoXoXoX=XoXoX`.!.R.R.#X#X&X&X[.{.I I # + OXOXf s , , I.I.& # q.q.q.q.q.q.q.q.q.q.q.q.",
"q.q.q.q.q.q.q.q.f f t t A.A.oXoX$X$X#XXXXXoX=XoX-X=XoX$X`.`.D.D.R.L.|. X$X&Xt.t.i i @X@X;.;.v v I.I.# & q.q.q.q.q.q.q.q.q.q.q.q.",
"q.q.q.q.q.q.q.q.f f t t A.D.oXoX$X$XXXXXXXXXoX=X=X=X$XoX`.`.D.D.R.R.|.|.$X$Xt.t.i d @X@X;.;.v v I.I.& & q.q.q.q.q.q.q.q.q.q.q.q.",
"q.q.q.q.q.q.q.q.f f p p L.S.XXXXXXXXXX|.XXXXoX XoX=X$X#X#X+XK.K.i.i.!.!.;X;X.X.X/.[.[.[.%X%X*X*XP.P.O O q.q.q.q.q.q.q.q.q.q.q.q.",
"q.q.q.q.q.q.q.q.e f p k D.D.XXoX#X#X|.XXXXXXoXoX-XoXoX$X+XXXW.K.i.i.!.`.;X;X.X.X(./.@X+X%X%X*X*XP.P.+ + q.q.q.q.q.q.q.q.q.q.q.q.",
"q.q.q.q.q.q.> > 4 4 T T J.J.{.{.|.|.[.|.].].].].{.{.{.{.].].j.a.W W ~.~.=X-X-X$X|.+XR R Z.Z.:X:XP.P.+ + q.q.q.q.q.q.q.q.q.q.q.q.",
"q.q.q.q.q.q.> > 4 4 Y T J.J.{.{.|.|.|.|.].].|.(.{.{.{.{.].].s.a.W W ~.K.-X-X&X$X|.}.R R Z.Z.>X:XP.z.& + q.q.q.q.q.q.q.q.q.q.q.q.",
"q.q.q.q.q.q.o o u u D F ( ( Q.Q.(.].K.F.B.B.Q.Q.^.^.^.W.F.F.5.5.( ( `.~.;X-X#XoX'.].l.l.S.S.$X$Xz.P.+ + q.q.q.q.q.q.q.q.q.q.q.q.",
"q.q.q.q.q.q.. o u u D D ( ( Q.Q.].].K.R.B.B.Q.Q.^.W.Q.Q.K.F.5.5.( ( ~.~.&X-XXX#X'.{.l.s.S.S.#X%Xu.z.+ + q.q.q.q.q.q.q.q.q.q.q.q.",
"q.q.q.q.q.q.o o S S a.a.j.j.9.9.Q.T.c.j.( >.4.4.7.7.5.7.6.6.8.8.s.s.'.'.$X$X{.{.'.'.'.'.^.].R.R.1.1.O O q.q.q.q.q.q.q.q.q.q.q.q.",
"q.q.q.q.q.q.o o S S a.a.j.j.9.9.T.Q.c.c.4.#.4.4.7.7.7.5.6.6.8.8.s.s.'.'.$X#X{.|.'.'.'.'.].^.R.U.1.1.O O q.q.q.q.q.q.q.q.q.q.q.q.",
"q.q.q.q.q.q.. . F F  XoX#X#XS S 0.j.m.m.} } Z Z E E E E +.#.f.f.J.J.~.~.^.'.].].K.'.n.n.F.F.p.a.a z + $ q.q.q.q.q.q.q.q.q.q.q.q.",
"q.q.q.q.q.q.. . F F  XoX#XoXm F a.0.m.m.} } Z Z E E E E #.#.f.c.J.J.~.~.^.^.{.'.'.`.n.n.F.J.a.a.p a # # q.q.q.q.q.q.q.q.q.q.q.q.",
"q.q.q.q.q.q.+ X ^ ^ e.e.*.*.H H V G 0.0.C.C.c.c.v.v.b.B.B.V.B.V.n.J.n.n.F.F.V.n.F.F.G.G.g.m.( ( 8 8 $ $ q.q.q.q.q.q.q.q.q.q.q.q.",
"q.q.q.l l l X + ^ ^ e.e.*.%.H H G G 0.0.C.C.c.v.v.c.B.b.N.N.B.B.n.n.N.n.C.V.N.N.F.n.F.G.m.m.( ( 0 8 $ $ q.q.q.q.q.q.q.q.q.q.q.q.",
"q.q.q.l l l O O ^ L *.e.X.X. ...H H K K a.d.T.T.V.T.V.V.V.H.H.V.F.N.N.n.C.C.M.M.d.d.g.g.[ [ H H ! ! S M d d q.q.q.q.q.q.q.q.q.q.",
"q.q.q.q.l l O O ^ ^ *.w.X.X. ...H ) K K d.d.T.T.C.V.V.V.H.H.V.H.N.F.n.M.C.C.M.M.d.d.g.g.[ [ J K ! ! a A j g q.q.q.q.q.q.q.q.q.q.",
"q.q.q.q.q.q.O O J G X.%.w.w.O.o.$.] B B J D c.c.V.C.b.V.M.N.b.b.b.b.c.b.0.0.4.4.] @.$.$.) _ ] ] &.*.+.+.n S z c q.q.q.q.q.q.q.q.",
"q.q.q.q.q.q.O O J J %.*.w.w.o.O.@.$.B B E Z c.c.V.C.V.b.N.N.N.b.b.b.b.v.0.b.4.4.{ [ $.@.` _ ] ] *.&.#.@.n S x c l l l l q.q.q.q.",
"q.q.q.q.q.l X O n m %.%.O.O.O.O.$.$.B B 8 8 k M ~ T ~ ~ T T ~ ~ :.-.>.>.-.Q V V ) ) _ _ ....=.=.o.o.e.&.6.6.a a : ; l l q.q.q.q.",
"q.q.q.q.q.l O X m m $.%.O.O.O.=.$.$.V C 8 8 A A T ~ ~ -.T T ~ ~ :.-.( -.Q Q V V ) ) _ _ ....=.=.o.X.&.&.6.6.a a : : q.q.q.q.q.q.",
"q.q.q.q.l l . O b b { { =.=.%.o.` ` m m 5 5 O O X X X X X X . . X o 5 5 m M V V C C _ _ ' '  . .o.o.&.&.( +.y y s 2 q.q.q.q.q.q.",
"q.q.q.q.l l O X b b { { =.=.o.o.` ` m m 5 6 X X X X X X X X . . X o 5 6 M M m V C C _ _ ' '  . .X.o.&.&.+./ y y 2 2 q.q.q.q.q.q.",
"q.q.q.q.l l . . y y Z D +.! [ [ Q Q 8 8 q.q.q.q.q.q.q.q.q.q.q.q.l l ; ; 6 6 A N J J K K L L | | @.@.+.+.U U 4 9 ; ; q.q.q.q.q.q.",
"q.q.q.q.q.q.. . 0 y D D [ [ +.[ Q Q 8 8 q.q.q.q.q.q.q.q.q.q.q.q.l l ; ; 6 6 N M J J K K L L | | +.+.+.+.U U 4 9 ; ; q.q.q.q.q.q.",
"q.q.q.q.q.q.q.q.X @ % = 4 4 4 5 q q q.q.q.q.q.q.q.q.q.q.q.q.q.l l l l l l l = = 6 4 7 7 7 7 0 0 0 0 9 9 * * 2 2 q.q.q.q.q.q.q.q.",
"q.q.q.q.q.q.q.q.O X % = 4 4 5 5 q 5 q.q.q.q.q.q.q.q.q.q.q.q.l l l l l l l l = = 5 4 7 7 0 4 0 0 0 0 9 9 * * 2 2 q.q.q.q.q.q.q.q.",
"q.q.q.q.q.q.q.q.q.q.q.q.q.q.q.q.q.q.q.q.q.q.q.q.q.q.q.q.q.q.l l l l l l l l l q.q.l l l l l l l l l l l q.q.q.q.q.q.q.q.q.q.q.q.",
"q.q.q.q.q.q.q.q.q.q.q.q.q.q.q.q.q.q.q.q.q.q.q.q.q.q.q.q.q.l l l l l l l q.q.q.q.q.q.q.l l l l l l l l l q.q.q.q.q.q.q.q.q.q.q.q.",
"q.q.q.q.q.q.q.q.q.q.q.q.q.q.q.q.q.q.q.q.q.q.q.q.q.q.q.q.l l l l l l q.q.q.q.q.q.q.q.q.q.q.l l l l l l l l q.q.q.q.q.q.q.q.q.q.q.",
"q.q.q.q.q.q.q.q.q.q.q.q.q.q.q.q.q.q.q.q.q.q.q.q.q.q.q.q.l l l q.q.q.q.q.q.q.q.q.q.q.q.q.q.q.q.l l l l l l q.q.q.q.q.q.q.q.q.q.q.",
"q.q.q.q.q.q.q.q.q.q.q.q.q.q.q.q.q.q.q.q.q.q.q.q.q.q.q.q.l l q.q.q.q.q.q.q.q.q.q.q.q.q.q.q.q.q.q.q.l l l l q.q.q.q.q.q.q.q.q.q.q.",
"q.q.q.q.q.q.q.q.q.q.q.q.q.q.q.q.q.q.q.q.q.q.q.q.q.q.q.q.q.q.q.q.q.q.q.q.q.q.q.q.q.q.q.q.q.q.q.q.q.q.q.q.q.q.q.q.q.q.q.q.q.q.q.q.",
"q.q.q.q.q.q.q.q.q.q.q.q.q.q.q.q.q.q.q.q.q.q.q.q.q.q.q.q.q.q.q.q.q.q.q.q.q.q.q.q.q.q.q.q.q.q.q.q.q.q.q.q.q.q.q.q.q.q.q.q.q.q.q.q.",
"q.q.q.q.q.q.q.q.q.q.q.q.q.q.q.q.q.q.q.q.q.q.q.q.q.q.q.q.q.q.q.q.q.q.q.q.q.q.q.q.q.q.q.q.q.q.q.q.q.q.q.q.q.q.q.q.q.q.q.q.q.q.q.q.",
"q.q.q.q.q.q.q.q.q.q.q.q.q.q.q.q.q.q.q.q.q.q.q.q.q.q.q.q.q.q.q.q.q.q.q.q.q.q.q.q.q.q.q.q.q.q.q.q.q.q.q.q.q.q.q.q.q.q.q.q.q.q.q.q.",
"q.q.q.q.q.q.q.q.q.q.q.q.q.q.q.q.q.q.q.q.q.q.q.q.q.q.q.q.q.q.q.q.q.q.q.q.q.q.q.q.q.q.q.q.q.q.q.q.q.q.q.q.q.q.q.q.q.q.q.q.q.q.q.q."
};
