/* XPM */
static char *result[] = {
/* columns rows colors chars-per-pixel */
"64 64 199 2 ",
"   c #0C0001",
".  c #150002",
"X  c #1A0003",
"o  c #150C0E",
"O  c #1C0C0E",
"+  c #120C10",
"@  c #240004",
"#  c #2B0207",
"$  c #26020D",
"%  c #2A010B",
"&  c #260808",
"*  c #320006",
"=  c #35000C",
"-  c #270410",
";  c #2E0115",
":  c #330213",
">  c #3C0213",
",  c #3F0418",
"<  c #221416",
"1  c #2C1417",
"2  c #2F1818",
"3  c #381313",
"4  c #3C2F30",
"5  c #430115",
"6  c #490014",
"7  c #490519",
"8  c #6B101C",
"9  c #550F25",
"0  c #471425",
"q  c #51172C",
"w  c #551D30",
"e  c #6E132D",
"r  c #6F182A",
"t  c #76152C",
"y  c #7B1A38",
"u  c #552D36",
"i  c #443434",
"p  c #736122",
"a  c #711F4B",
"s  c #5A3A43",
"d  c #6D2741",
"f  c #782C46",
"g  c #6B3647",
"h  c #7A3B4D",
"j  c #793D52",
"k  c #5B4747",
"l  c #7D4463",
"z  c #870025",
"x  c #920024",
"c  c #861D3A",
"v  c #99193D",
"b  c #A20835",
"n  c #B00D3F",
"m  c #A51B39",
"M  c #861844",
"N  c #981E45",
"B  c #B5144B",
"V  c #BB1751",
"C  c #BA1C53",
"Z  c #872A4A",
"A  c #902243",
"S  c #8F3558",
"D  c #993655",
"F  c #943F5A",
"G  c #A62447",
"H  c #B6294A",
"J  c #B72D57",
"K  c #A8355D",
"L  c #B8375E",
"P  c #9C3F68",
"I  c #BD3765",
"U  c #B92570",
"Y  c #A93E74",
"T  c #C21755",
"R  c #C21955",
"E  c #DE1B5D",
"W  c #C62258",
"Q  c #C53C5F",
"!  c #E0205F",
"~  c #C73D67",
"^  c #D83B6E",
"/  c #E52B6F",
"(  c #EA296D",
")  c #F0246B",
"_  c #E62E70",
"`  c #EF3276",
"'  c #B04554",
"]  c #8B4868",
"[  c #9E4666",
"{  c #94516B",
"}  c #98546F",
"|  c #975372",
" . c #9D5B74",
".. c #9C5F78",
"X. c #A34769",
"o. c #B4486C",
"O. c #A6566F",
"+. c #A85875",
"@. c #B25E7A",
"#. c #8F677E",
"$. c #CD425D",
"%. c #C84863",
"&. c #C95B6E",
"*. c #D34B79",
"=. c #C7527E",
"-. c #D7577D",
";. c #E6C03E",
":. c #BF5F8F",
">. c #BC5291",
",. c #9F6C8D",
"<. c #A66589",
"1. c #A9748E",
"2. c #B87088",
"3. c #B86F97",
"4. c #A67296",
"5. c #AF7F98",
"6. c #B27399",
"7. c #BD7D9C",
"8. c #CD448E",
"9. c #D95687",
"0. c #E15B84",
"q. c #E05697",
"w. c #CE658C",
"e. c #C26F8D",
"r. c #CD6494",
"t. c #D5699D",
"y. c #C97A97",
"u. c #CA759B",
"i. c #DD7C9F",
"p. c #E66798",
"a. c #E5749A",
"s. c #F2729D",
"d. c #D971A6",
"f. c #DA72B1",
"g. c #ED73A4",
"h. c #F67AA9",
"j. c #FF75B6",
"k. c #FF79C4",
"l. c #B4829C",
"z. c #C188A2",
"x. c #D98AAC",
"c. c #D097AE",
"v. c #DD80B4",
"b. c #ED82A6",
"n. c #EB89AA",
"m. c #FB81AB",
"M. c #F890AC",
"N. c #ED8EB3",
"B. c #EB8DBD",
"V. c #FC84B1",
"C. c #FB83B5",
"Z. c #F683BA",
"A. c #FD8BBC",
"S. c #EA96B9",
"D. c #FF92BE",
"F. c #F49ABE",
"G. c #FF9BBD",
"H. c #FDA0BB",
"J. c #DE96C9",
"K. c #E589C3",
"L. c #FE8EC4",
"P. c #FB8DC9",
"I. c #E696C8",
"U. c #FE94C4",
"Y. c #FF9CC6",
"T. c #F696CA",
"R. c #FC96CC",
"E. c #F79FCF",
"W. c #FE9ECE",
"Q. c #FF8DD1",
"!. c #EC99D4",
"~. c #FD9CD4",
"^. c #FF97D9",
"/. c #F49CDB",
"(. c #FE9EDC",
"). c #ECACCE",
"_. c #F2A0CC",
"`. c #FDA5CD",
"'. c #FFACCB",
"]. c #F7A6D3",
"[. c #FDA3D4",
"{. c #FEA3DC",
"}. c #FAA8D9",
"|. c #FFABDC",
" X c #FFB8D9",
".X c #F79BE7",
"XX c #FC9DE2",
"oX c #FB9EE8",
"OX c #F3A0E0",
"+X c #FDA3E2",
"@X c #FEABE5",
"#X c #FFA2EB",
"$X c #FFACEC",
"%X c #FFB5E6",
"&X c #FFB2EA",
"*X c #FFC3EB",
"=X c #FFD3EF",
"-X c #FFC3F2",
";X c #FFDCFA",
/* pixels */
";.;.;.;.;.;.;.;.;.;.;.;.;.;.;.;.;.;.;.;.;.;.;.;.;.;.;.;.;.;.;.;.;.;.;.;.;.;.;.;.;.;.;.;.;.;.;.;.;.;.;.;.;.;.;.;.;.;.;.;.;.;.;.;.",
";.;.;.;.;.;.;.;.;.;.;.;.;.;.;.;.;.;.;.;.;.;.;.;.;.;.;.;.;.;.;.;.;.;.;.;.;.;.;.;.;.;.;.;.;.;.;.;.;.;.;.;.;.;.;.;.;.;.;.;.;.;.;.;.",
";.;.;.;.;.;.;.;.;.;.;.;.;.;.;.;.;.;.;.;.;.;.;.;.;.;.;.;.;.;.;.;.;.;.;.;.;.;.;.;.;.;.;.;.;.;.;.;.;.;.;.;.;.;.;.;.;.;.;.;.;.;.;.;.",
";.;.;.;.;.;.;.;.;.;.;.;.;.;.;.;.;.;.;.;.;.;.;.;.;.;.;.;.;.;.;.;.;.;.;.;.;.;.;.;.;.;.;.;.;.;.;.;.;.;.;.;.;.;.;.;.;.;.;.;.;.;.;.;.",
";.;.;.;.;.;.;.;.;.;.;.;.;.;.;.;.;.;.;.;.;.;.;.;.;.;.;.;.;.;.;.;.;.;.;.;.;.;.;.;.;.;.;.;.;.;.;.;.;.;.;.;.;.;.;.;.;.;.;.;.;.;.;.;.",
";.;.;.;.;.;.;.;.;.;.;.;.;.;.;.;.;.;.;.;.p p ;.;.;.;.;.;.;.;.;.;.;.;.;.;.;.;.;.;.;.;.;.;.;.;.;.;.;.;.;.;.;.;.;.;.;.;.;.;.;.;.;.;.",
";.;.;.;.;.;.;.;.;.;.;.;.;.;.;.;.;.;.;.;.p p ;.;.;.;.;.;.;.;.;.;.;.;.;.;.;.;.;.;.;.;.;.;.;.;.;.;.;.;.;.;.;.;.;.;.;.;.;.;.;.;.;.;.",
";.;.;.;.;.;.;.;.;.;.;.;.;.;.;.;.;.;.;.p p p p ;.;.;.;.;.;.;.;.;.;.;.;.;.;.;.;.;.;.;.;.;.;.;.;.;.;.;.;.;.p p ;.;.;.;.;.;.;.;.;.;.",
";.;.;.;.;.;.;.;.;.;.;.;.;.;.;.;.;.;.;.p p p p ;.;.;.;.;.;.;.;.;.;.;.;.;.;.;.;.;.;.;.;.;.;.;.;.;.;.;.;.p p p ;.;.;.;.;.;.;.;.;.;.",
";.;.;.;.;.;.;.;.;.;.;.;.;.;.;.;.;.;.p p p p p p ;.;.;.;.;.;.;.;.;.;.;.;.;.;.;.;.;.;.;.;.;.;.;.;.;.;.;.p p p ;.;.;.;.;.;.;.;.;.;.",
";.;.;.;.;.;.;.;.;.;.;.;.;.;.;.;.;.;.p p p p p p ;.;.;.;.;.;.;.;.;.;.;.;.;.;.;.;.;.;.;.;.;.;.;.;.;.;.p p p p ;.;.;.;.;.;.;.;.;.;.",
";.;.;.;.;.;.;.;.;.;.;.;.;.;.;.;.;.p p p p p p p ;.;.;.;.;.;.;.;.;.;.;.;.;.;.;.;.;.;.;.;.;.;.;.;.;.;.p p p p ;.;.;.;.;.;.;.;.;.;.",
";.;.;.;.;.;.;.;.;.;.;.;.;.;.;.;.;.p p p p p O O < < + + + + + + o o o o o + < < O O 4 4 ;.;.;.;.;.p p p p p p ;.;.;.;.;.;.;.;.;.",
";.;.;.;.;.;.;.;.;.;.;.;.;.;.;.;.p p p p p p o O < < + + + + + + o o + + + O < < < O 4 4 p p p p p p p p p p p p p p p p p ;.;.;.",
";.;.;.;.;.;.;.;.;.;.;.;.;.;.;.;.p p p p @ # q q ] ] <.<.4.4.4.4.6.6.7.u.6.2.} } X.O.h h k k p p p p p p p p p p p p p p p ;.;.;.",
";.;.;.;.;.;.p p p p p p p p p p p p p p # # q q ] ] <.<.4.4.4.,.6.6.y.l.1.1.} } } X.Z h k k p p p p p p p p p p p p p p ;.;.;.;.",
";.;.;.;.;.;.p p p p p p p p p p - - g g { { u.y.I.S.@X@X%X&X-X-X].{.u.u.S.S.'.'.i.i.F F g h u u s s p p p p p p p p ;.;.;.;.;.;.",
";.;.;.;.;.;.;.p p p p p p p p p % & g g { { u.u.I.I.%X@X&X&X-X-X].}.u.u.S.S.].'.i.i.F F j h u u s s p p p p p p ;.;.;.;.;.;.;.;.",
";.;.;.;.;.;.;.;.;.p p p p p : ; +. .|.'.%X%X[.|.+X}.OXOXOX!.&X&Xx.x.F F D D N.N.x.x.{ { l.l.c.c.g g 2 2 p p p p p ;.;.;.;.;.;.;.",
";.;.;.;.;.;.;.;.;.;.;.p p p : : .... X|.*X%X|.|.}.}.OXOX!.!.OX%Xu.x.F F D D n.N.n.x.{ { l.y.c.c.g g 2 2 p p p p p ;.;.;.;.;.;.;.",
";.;.;.;.;.;.;.;.;.;.1 1 : : } } `.`.{.~.{.|././..X}.OXOX+XOX!.T.-X*X=X=Xe e [ [ ;X;X X*X% # 7.7.z.z.; ; .   p p p p ;.;.;.;.;.;.",
";.;.;.;.;.;.;.;.;.;.1 < : % | { [.[.~.(.{.{.{././.}.OXOX+X+X!.!.*X*X=X=Xe e [ [ ;X;X X X% % 7.7.z.z.; ;     p p p p ;.;.;.;.;.;.",
";.;.;.;.;.;.;.;.;.;.& & f f F.F.[.[.+X|.#X#X.X.X#X+X+X#X/.!.|.+XA.C.X.X.= = ....H.S.F F $ @ 5.5.).).l l     ;.;.p p ;.;.;.;.;.;.",
";.;.;.;.;.;.;.;.;.;.& & f f F.T.[.{.+X{.XX.X#X.X#X#X+X.X/./.{.+XM.A.K P = # ....F.H.S F $ $ 5.5.).).l l     ;.;.;.;.;.;.;.;.;.;.",
";.;.;.;.;.;.;.;.;.;.q q e.&.`.Y.T.T.+XXX#X#X.X.XoXoXXX(.oXoX#X$XC.C.M M @ @ 4.1.N.N.a e ; $ l.l.-X*X3.3.- & ;.;.;.;.;.;.;.;.;.;.",
";.;.;.;.;.;.;.;.;.;.q q @.@.Y.Y.T.T.XX+X#X#X.X.XoX#XXXXXoX.X$X$XL.j.M M @ @ 1.1.N.B.y y % % 5.7.*X*X3.6.- & ;.;.;.;.;.;.;.;.;.;.",
";.;.;.;.;.;.;.;.X X j j n.n.Y.U.T.T.+X{.oX#X.X.X+X+X{.XXk.k.j.k.j.j.=.@.$ $ #.#.|.'.P P % # | | @X|.B.v.d d @ @ ;.;.;.;.;.;.;.;.",
";.;.;.;.;.;.;.;.X X j j n.n.Y.U.T.T.XX+X#X#X/.XX+X#X{.+Xk.k.j.j.j.j.o.8.$ O #.#.'.'.P P # # | | |.%XB.B.d d @ @ ;.;.;.;.;.;.;.;.",
";.;.;.;.;.;.;.;.- -  . .n.n.Y.Y.[.{.+X+XXX#XXXXX@X@X{.(.8.8.U U q.q.t.t.; ; ,.,. X|.:.:.5 , a a v.v.W.W.+.@.> : ;.;.;.;.;.;.;.;.",
";.;.;.;.;.;.;.;.- -  . .n.n.Y.Y.[.{.{.+XXXXXXXXX@X%X(.(.8.8.U U q.q.t.t.; ; ,.,.|.|.:.:., , a a v.v.W.W.@.+.> > ;.;.;.;.;.;.;.;.",
";.;.;.;.;.;.;.;.& $ 2.2.b.b.V.V.[.{.|.{.{.+X(.(.[.{.L.B.Q.R.Q.Q.^.^.~.~.J.J.!.J.$X#XXX+XK.K.I.J.}.}._._.+.+.= : ;.;.;.;.;.;.;.;.",
";.;.;.;.;.;.;.;.$ $ 2.2.b.b.V.V.~.~.+X+X+X+X(.(.{.~.P.P.Q.Q.Q.Q.^.^././.J.J.!.J.@X@X{.XXK.K.I.K.}.]._._.@.+.= > ;.;.;.;.;.;.;.;.",
";.;.;.;.;.;.;.;.% % y.y.a.a.g.g.{.+X+X|.(.{.~.{.L.P.Z.Z.(.(.$X$X#X+X@X@X}.}.&X$Xf.f.>.>.@X+X&X$X&X%X].].y.y., , ;.;.;.;.;.;.;.;.",
";.;.;.;.;.;.;.;.% # y.y.a.a.g.h.|.|.{.+X{.{.{.~.L.T.j.j.(.XX$X$X+X@X+X@X}.+X&X&Xf.f.>.>.@X@X&X&X%X$X]._.u.u., , ;.;.;.;.;.;.;.;.",
";.;.;.;.;.;.;.;.% : e.e.-.=.9.8.^.^.(.(.(.~.~.~.h.h.p.d.Q.Q.(.(._.~._.W.E.E.|.{.d.d.Y Y R.U.~.~.R.~.B.L.e.e., , ;.;.;.;.;.;.;.;.",
";.;.;.;.;.;.;.;.; : e.e.=.-.9.9.^.~.{.(.{.(.R.E.h.h.p.p.Q.P.(.(.~.].].].E.E.|.|.d.d.Y Y R.R.[.~.R.R.B.B.e.e., 5 ;.;.;.;.;.;.;.;.",
";.;.;.;.;.;.;.;.$ @ O. .K K I I g.g.j.K.A.A.V.Z.r.9.*.8.A.A.'.[.`.`.`.`.Y.Y.`.`.W.W.R.R.D.U.U.D.L.L.r.r.f f $ @ ;.;.;.;.;.;.;.;.",
";.;.;.;.;.;.;.;.$ $ } O.I K I I g.g.L.Z.A.D.V.h.9.9.=.*.G.H.|.|.`.`.`.'.Y.`.`.[.`.W.U.Y.U.U.L.U.L.L.r.r.f f $ $ ;.;.;.;.;.;.;.;.",
";.;.;.;.;.;.;.;.    0 0 o.o.~ ~ G G -.*.-.-.0.-.$.I G G M.M.'.'.H.H.H.H.G.G.D.D.D.A.V.A.D.D.D.D.A.A.w.w.q w . X ;.;.;.;.;.;.;.;.",
";.;.;.;.;.;.;.;.    0 0 o.o.~ =.G B -.-.-.-.0.-.o.$.G G M.M.'.H.H.H.H.H.G.G.D.D.A.D.M.C.D.D.D.D.A.A.w.w.w w   X ;.;.;.;.;.;.;.;.",
";.;.;.;.;.;.;.;.p p . . Z f -.&.~ ~ H m m m H H H J G m y t r r r r c c L L 0.0.s.s.h.m.m.m.m.m.g.s.Z S @ @ ;.;.;.;.;.;.;.;.;.;.",
";.;.;.p p p p p p p . . f c -.9.Q Q H H m m W H H H G G c c r 8 r r c c L I 0.0.s.s.m.m.m.m.m.m.g.s.S Z @ X ;.;.;.;.;.;.;.;.;.;.",
";.;.;.p p p p p p p p p 0 0 c y %.o.Q $.$.%.m m b b H J D D O.O.@.@.K K B B E W J J ~ I *.-.0.p.D K , 5 ;.;.;.;.;.;.;.;.;.;.;.;.",
";.;.;.;.p p p p p p p p 0 0 y c %.%.$.$.$.$.m m b b J J D h O.O.@.@.K D B B W W Q J I I *.*.s.p.D D 5 , ;.;.;.;.;.;.;.;.;.;.;.;.",
";.;.;.;.;.;.p p p p p p p p 3 3 8 8 ' ' &.&.m A x x $.^ m.m.*X*X-X-Xj.V.` ` E E b b z z v v A A 9 9 ;.;.;.;.;.;.;.;.;.;.;.;.;.;.",
";.;.;.;.;.;.p p p p p p p p 3 3 8 8 ' ' &.&.m m x x ^ ^ h.h.*X*X-X-Xj.j.` ` E E b x z z v v A A 9 9 p p p p p p p p p p ;.;.;.;.",
";.;.;.;.;.p p p p p p p p p p p . . X & 8 7 r t n n ( ( _ _ _ _ / / ( ( ) ) ) ) E ! n b e e @ @ p p p p p p p p p p p p ;.;.;.;.",
";.;.;.;.;.p p p p p p p p p p p . . & & 7 7 t t n n ( ( _ _ _ _ / / ( ( ) ) ) ) ! ! b B e e @ @ p p p p p p p p p p ;.;.;.;.;.;.",
";.;.;.;.p p p p p p p ;.p p p p p p p ;.2 2 6 6 A N C C V V T R T T R R C C C C W J v v * * p p p p p p p p p ;.;.;.;.;.;.;.;.;.",
";.;.;.;.p p p p p ;.;.;.;.p p p p p p ;.2 2 6 6 N N H R V V R R T T R V C C C V W W M v * * p p p p p p p ;.;.;.;.;.;.;.;.;.;.;.",
";.;.;.;.p p p ;.;.;.;.;.;.;.;.p p p p ;.;.;.i i : > 6 6 6 6 6 6 6 6 6 6 5 5 7 7 6 7 5 5 p p p p p p ;.;.;.;.;.;.;.;.;.;.;.;.;.;.",
";.;.;.;.;.;.;.;.;.;.;.;.;.;.;.;.;.;.;.;.;.;.i i : > 7 7 6 6 6 6 6 6 6 6 5 5 6 6 7 7 7 7 p p p p p p ;.;.;.;.;.;.;.;.;.;.;.;.;.;.",
";.;.;.;.;.;.;.;.;.;.;.;.;.;.;.;.;.;.;.;.;.;.;.;.;.;.;.;.;.;.;.p p p p p p p p p p p p p p p p p p p p ;.;.;.;.;.;.;.;.;.;.;.;.;.",
";.;.;.;.;.;.;.;.;.;.;.;.;.;.;.;.;.;.;.;.;.;.;.;.;.;.;.;.;.;.p p p p p p p p p p p p p p p p p p p p p ;.;.;.;.;.;.;.;.;.;.;.;.;.",
";.;.;.;.;.;.;.;.;.;.;.;.;.;.;.;.;.;.;.;.;.;.;.;.;.;.;.;.;.;.p p p p p p p p p ;.;.p p p p p p p p p p p ;.;.;.;.;.;.;.;.;.;.;.;.",
";.;.;.;.;.;.;.;.;.;.;.;.;.;.;.;.;.;.;.;.;.;.;.;.;.;.;.;.;.p p p p p p p ;.;.;.;.;.;.;.p p p p p p p p p ;.;.;.;.;.;.;.;.;.;.;.;.",
";.;.;.;.;.;.;.;.;.;.;.;.;.;.;.;.;.;.;.;.;.;.;.;.;.;.;.;.p p p p p p ;.;.;.;.;.;.;.;.;.;.;.p p p p p p p p ;.;.;.;.;.;.;.;.;.;.;.",
";.;.;.;.;.;.;.;.;.;.;.;.;.;.;.;.;.;.;.;.;.;.;.;.;.;.;.;.p p p ;.;.;.;.;.;.;.;.;.;.;.;.;.;.;.;.p p p p p p ;.;.;.;.;.;.;.;.;.;.;.",
";.;.;.;.;.;.;.;.;.;.;.;.;.;.;.;.;.;.;.;.;.;.;.;.;.;.;.;.p p ;.;.;.;.;.;.;.;.;.;.;.;.;.;.;.;.;.;.;.p p p p ;.;.;.;.;.;.;.;.;.;.;.",
";.;.;.;.;.;.;.;.;.;.;.;.;.;.;.;.;.;.;.;.;.;.;.;.;.;.;.;.;.;.;.;.;.;.;.;.;.;.;.;.;.;.;.;.;.;.;.;.;.;.;.;.;.;.;.;.;.;.;.;.;.;.;.;.",
";.;.;.;.;.;.;.;.;.;.;.;.;.;.;.;.;.;.;.;.;.;.;.;.;.;.;.;.;.;.;.;.;.;.;.;.;.;.;.;.;.;.;.;.;.;.;.;.;.;.;.;.;.;.;.;.;.;.;.;.;.;.;.;.",
";.;.;.;.;.;.;.;.;.;.;.;.;.;.;.;.;.;.;.;.;.;.;.;.;.;.;.;.;.;.;.;.;.;.;.;.;.;.;.;.;.;.;.;.;.;.;.;.;.;.;.;.;.;.;.;.;.;.;.;.;.;.;.;.",
";.;.;.;.;.;.;.;.;.;.;.;.;.;.;.;.;.;.;.;.;.;.;.;.;.;.;.;.;.;.;.;.;.;.;.;.;.;.;.;.;.;.;.;.;.;.;.;.;.;.;.;.;.;.;.;.;.;.;.;.;.;.;.;.",
";.;.;.;.;.;.;.;.;.;.;.;.;.;.;.;.;.;.;.;.;.;.;.;.;.;.;.;.;.;.;.;.;.;.;.;.;.;.;.;.;.;.;.;.;.;.;.;.;.;.;.;.;.;.;.;.;.;.;.;.;.;.;.;."
};
