/* XPM */
static char *result[] = {
/* columns rows colors chars-per-pixel */
"64 64 184 2 ",
"   c #0D0000",
".  c #160000",
"X  c #1F0002",
"o  c #1B0B0C",
"O  c #1A0D11",
"+  c #240204",
"@  c #2B0005",
"#  c #25020C",
"$  c #2D0109",
"%  c #340106",
"&  c #31010B",
"*  c #3F000A",
"=  c #3C0216",
"-  c #310019",
";  c #3D0618",
":  c #261115",
">  c #301111",
",  c #311B1C",
"<  c #3A1F1F",
"1  c #3C1F21",
"2  c #382828",
"3  c #4E000A",
"4  c #420317",
"5  c #470616",
"6  c #430A12",
"7  c #4C031B",
"8  c #6A0019",
"9  c #76001E",
"0  c #470A23",
"q  c #560925",
"w  c #5E0028",
"e  c #481828",
"r  c #561327",
"t  c #510F38",
"y  c #471D34",
"u  c #660226",
"i  c #7A0728",
"p  c #7D1529",
"a  c #671A33",
"s  c #721D37",
"d  c #5A2434",
"f  c #473139",
"g  c #652538",
"h  c #736122",
"j  c #5C2742",
"k  c #692845",
"l  c #782841",
"z  c #64364A",
"x  c #7F425B",
"c  c #774869",
"v  c #870019",
"b  c #8E001A",
"n  c #90001F",
"m  c #84172D",
"M  c #8B1333",
"N  c #931C34",
"B  c #9E133D",
"V  c #A20027",
"C  c #B00137",
"Z  c #AE133C",
"A  c #911740",
"S  c #B60B44",
"D  c #BB0B44",
"F  c #AF1249",
"G  c #B0184E",
"H  c #B01D5A",
"J  c #8C2F4E",
"K  c #96274F",
"L  c #963448",
"P  c #932E50",
"I  c #8B3C56",
"U  c #8E3F59",
"Y  c #963D5F",
"T  c #A42444",
"R  c #AA2252",
"E  c #B6295B",
"W  c #B93658",
"Q  c #A13B62",
"!  c #B9306C",
"~  c #B92172",
"^  c #C9064A",
"/  c #CF1C5B",
"(  c #D11653",
")  c #CA245D",
"_  c #D20E65",
"`  c #CD1467",
"'  c #E71D6F",
"]  c #E01E74",
"[  c #C23E66",
"{  c #CE2A74",
"}  c #D5387A",
"|  c #ED2475",
" . c #F62C7D",
".. c #86425B",
"X. c #A4405D",
"o. c #BA455F",
"O. c #854F64",
"+. c #9B4D65",
"@. c #87516A",
"#. c #A94B69",
"$. c #AA516D",
"%. c #AC4876",
"&. c #AC5275",
"*. c #AB5C75",
"=. c #AF5C7E",
"-. c #A7617B",
";. c #C54870",
":. c #E6C03E",
">. c #CF3D87",
",. c #AF4380",
"<. c #B25D88",
"1. c #BF5E91",
"2. c #BC6687",
"3. c #B8758C",
"4. c #BA7791",
"5. c #CB4D85",
"6. c #C75D86",
"7. c #EA5C8C",
"8. c #EC5E99",
"9. c #C36889",
"0. c #D5618A",
"q. c #C66991",
"w. c #D16E92",
"e. c #D56B9A",
"r. c #D47394",
"t. c #DF749D",
"y. c #D67A9C",
"u. c #E7668B",
"i. c #E56794",
"p. c #E46C93",
"a. c #E65AA9",
"s. c #DE6DA1",
"d. c #DA79A3",
"f. c #D47EA8",
"g. c #DC75B1",
"h. c #E779A8",
"j. c #F578A7",
"k. c #FF62B5",
"l. c #FF6FB8",
"z. c #F17AB6",
"x. c #FF6FC2",
"c. c #DF87AD",
"v. c #DF88B0",
"b. c #DD88BA",
"n. c #E68DAD",
"m. c #FE83AC",
"M. c #EC89B8",
"N. c #FC80B4",
"B. c #FA88B9",
"V. c #E89AB6",
"C. c #E593BC",
"Z. c #F393BC",
"A. c #FF92BE",
"S. c #FB9BBD",
"D. c #F58EC7",
"F. c #FE8CC1",
"G. c #FF8BCE",
"H. c #ED93C8",
"J. c #EA98CB",
"K. c #FD94C3",
"L. c #FB92CD",
"P. c #F49AC9",
"I. c #FE9CCD",
"U. c #FF87D8",
"Y. c #FE93D3",
"T. c #FE9CD4",
"R. c #F599D8",
"E. c #FE9CDC",
"W. c #F4A3C7",
"Q. c #FFB5CE",
"!. c #FDA3D5",
"~. c #F8A8D6",
"^. c #FEA3DB",
"/. c #FEAFDA",
"(. c #FFB2DC",
"). c #FE9DE3",
"_. c #FF9BE8",
"`. c #FEA3E3",
"'. c #FFAAE3",
"]. c #FFA3EA",
"[. c #FFAAEA",
"{. c #FFB6EC",
"}. c #FFB3F8",
"|. c #FFE1FD",
/* pixels */
":.:.:.:.:.:.:.:.:.:.:.:.:.:.:.:.:.:.:.:.:.:.:.:.:.:.:.:.:.:.:.:.:.:.:.:.:.:.:.:.:.:.:.:.:.:.:.:.:.:.:.:.:.:.:.:.:.:.:.:.:.:.:.:.",
":.:.:.:.:.:.:.:.:.:.:.:.:.:.:.:.:.:.:.:.:.:.:.:.:.:.:.:.:.:.:.:.:.:.:.:.:.:.:.:.:.:.:.:.:.:.:.:.:.:.:.:.:.:.:.:.:.:.:.:.:.:.:.:.",
":.:.:.:.:.:.:.:.:.:.:.:.:.:.:.:.:.:.:.:.:.:.:.:.:.:.:.:.:.:.:.:.:.:.:.:.:.:.:.:.:.:.:.:.:.:.:.:.:.:.:.:.:.:.:.:.:.:.:.:.:.:.:.:.",
":.:.:.:.:.:.:.:.:.:.:.:.:.:.:.:.:.:.:.:.:.:.:.:.:.:.:.:.:.:.:.:.:.:.:.:.:.:.:.:.:.:.:.:.:.:.:.:.:.:.:.:.:.:.:.:.:.:.:.:.:.:.:.:.",
":.:.:.:.:.:.:.:.:.:.:.:.:.:.:.:.:.:.:.:.:.:.:.:.:.:.:.:.:.:.:.:.:.:.:.:.:.:.:.:.:.:.:.:.:.:.:.:.:.:.:.:.:.:.:.:.:.:.:.:.:.:.:.:.",
":.:.:.:.:.:.:.:.:.:.:.:.:.:.:.:.:.:.:.:.h h :.:.:.:.:.:.:.:.:.:.:.:.:.:.:.:.:.:.:.:.:.:.:.:.:.:.:.:.:.:.:.:.:.:.:.:.:.:.:.:.:.:.",
":.:.:.:.:.:.:.:.:.:.:.:.:.:.:.:.:.:.:.:.h h :.:.:.:.:.:.:.:.:.:.:.:.:.:.:.:.:.:.:.:.:.:.:.:.:.:.:.:.:.:.:.:.:.:.:.:.:.:.:.:.:.:.",
":.:.:.:.:.:.:.:.:.:.:.:.:.:.:.:.:.:.:.h h h h :.:.:.:.:.:.:.:.:.:.:.:.:.:.:.:.:.:.:.:.:.:.:.:.:.:.:.:.:.h h :.:.:.:.:.:.:.:.:.:.",
":.:.:.:.:.:.:.:.:.:.:.:.:.:.:.:.:.:.:.h h h h :.:.:.:.:.:.:.:.:.:.:.:.:.:.:.:.:.:.:.:.:.:.:.:.:.:.:.:.h h h :.:.:.:.:.:.:.:.:.:.",
":.:.:.:.:.:.:.:.:.:.:.:.:.:.:.:.:.:.h h h h h h :.:.:.:.:.:.:.:.:.:.:.:.:.:.:.:.:.:.:.:.:.:.:.:.:.:.:.h h h :.:.:.:.:.:.:.:.:.:.",
":.:.:.:.:.:.:.:.:.:.:.:.:.:.:.:.:.:.h h o . X X + + @ @ @ $ $ # % $ + + + + :.:.:.:.:.:.:.:.:.:.:.:.h h h h :.:.:.:.:.:.:.:.:.:.",
":.:.:.:.:.:.:.:.:.:.:.:.:.:.:.:.:.h h h . . X X + + @ @ # @ $ $ $ $ + @ o . :.:.:.:.:.:.:.:.:.:.:.:.h h h h :.:.:.:.:.:.:.:.:.:.",
":.:.:.:.:.:.:.:.:.:.:.:.:.:.:.:.O O : : 0 0 g k ....-.-.4.4.4.9.*.-.+.+.d d > > o o :.:.:.:.:.:.:.h h h h h h :.:.:.:.:.:.:.:.:.",
":.:.:.:.:.:.:.:.:.:.:.:.:.:.:.:.O O : : e 1 g d ....-.-.3.3.4.3.=.*.+.+.d d > o o o h h h h h h h h h h h h h h h h h h h :.:.:.",
":.:.:.:.:.:.:.:.:.:.:.:.:.:.+ $ k a <.<.f.f.b.b.J.J.W.P.~.!.(.(.~.~.Z.Z.n.c.y.c...U e e h h h h h h h h h h h h h h h h h :.:.:.",
":.:.:.:.:.:.h h h h h h h h + # j j <.<.f.f.b.b.J.J.J.R.~.~.'.'.~.~.Z.Z.n.c.c.r...L e 5 h h h h h h h h h h h h h h h h :.:.:.:.",
":.:.:.:.:.:.h h h h h h + + g s c.c.!.!.[.'.{.[.[.[.[.[.R.!.1.1.e.e.W.W.(.'.y.y.w.r.s s X X h h h h h h h h h h h h :.:.:.:.:.:.",
":.:.:.:.:.:.:.h h h h h + + g g c.y.!.!.'.'.[.{.[.`.`.[.!.T.1.1.e.p.W.W.(.(.e.r.w.r.s s # X h h h h h h h h h h :.:.:.:.:.:.:.:.",
":.:.:.:.:.:.:.:.:.h X X a a r.r.J.W.!.!.P.!.I.!.R.R.^.^.J.J.<.*.P P r.r.W.W.+.+.#.#.$.$.y e     h h h h h h h h h :.:.:.:.:.:.:.",
":.:.:.:.:.:.:.:.:.:.X X a g r.r.W.P.^.!.R.P.T.P.R.R.^.R.~.W.=.=.P P r.r.S.W.+.+.#.o.$.$.e d     h h h h h h h h h :.:.:.:.:.:.:.",
":.:.:.:.:.:.:.:.:.:.$ $ &.&.Z.D./.'.~.R././.^.!.`.~.R.R././.|.|.$.$.a s Q.Q.|.|.J J I ..3.3.. + h h :.:.h h h h h h :.:.:.:.:.:.",
":.:.:.:.:.:.:.:.:.:.$ & &.&.K.A.'.'.`.~.^.!.!.E.R.`.R.R./.^.|.|.#.#.s s Q.Q.|.|.J J U ..3.3.X X :.:.:.:.:.:.h h h h :.:.:.:.:.:.",
":.:.:.:.:.:.:.:.< < g g C.C.'.'.R.R.).R.`.`.`.`.R.).E.`.L.I.q.q.; ; d g S.S.9.2.= 4 O.O.V.V.4 4 2 2 :.:.:.:.:.:.h h :.:.:.:.:.:.",
":.:.:.:.:.:.:.:.< < a r C.C.[.[.R.`.`.).`.`.`.`.R.).^.^.I.L.q.q.0 0 d g S.S.6.;.= 4 O.O.V.C.4 0 2 2 :.:.:.:.:.:.:.:.:.:.:.:.:.:.",
":.:.:.:.:.:.:.:.% % $.*.^./.[.[.`.).].)._.`.].].).].}.}.E.E.%.%.# # z z Z.Z.Q Q # + @.@./.(.Y Y # @ :.:.:.:.:.:.:.:.:.:.:.:.:.:.",
":.:.:.:.:.:.:.:.% % *.*.^.^.[.[.R.`.).).].`._.]._._.}.}.E.E.%.%.# # z z Z.Z.Q Q # # @.@././.Y Y + + :.:.:.:.:.:.:.:.:.:.:.:.:.:.",
":.:.:.:.:.:.:.:.l s h.c.E.T.).).).).).)._._._._.U.x.x.x.l.l.s.h.- - y y (.(.t.d.$ $ k k N.N.0.0.> & :.:.:.:.:.:.:.:.:.:.:.:.:.:.",
":.:.:.:.:.:.:.:.l s h.h.E.E.).).).R.).)._.)._._.U.U.x.x.l.k.z.h.- - y y (.(.d.d.$ $ k k N.N.6.6.& > :.:.:.:.:.:.:.:.:.:.:.:.:.:.",
":.:.:.:.O : e 1 q.q.I.I.E.E.).).).R.).E.).`.).).a.a.~ ~ >.>.z.z.t t j j (.(.n.M.0 0 w w 5.5.5.5.4 4 :.:.:.:.:.:.:.:.:.:.:.:.:.:.",
":.:.:.:.O O 1 0 q.q.I.I.E.E.).).R.).E.).).).).).a.a.~ ~ >.>.z.z.t t j d (.(.M.M.0 0 w t 5.5.5.5.4 4 :.:.:.:.:.:.:.:.:.:.:.:.:.:.",
":.:.:.:.: : z z V.v.~.!.E.E._.E.Y.Y.Y.L.^.`.E.E.E.E.G.G.G.G.G.Y.H.H.H.H.!.!./.~.J.V.C.C.F.F.s.s.2.2.d d :.:.:.:.:.:.:.:.:.:.:.:.",
":.:.:.:.: O g z c.v.~.^.E.E.).).Y.Y.L.L.^.^.T.R.Y.Y.G.G.G.G.Y.Y.H.H.H.H.!.!.~.~.C.C.b.H.F.F.s.s.2.2.y d :.:.:.:.:.:.:.:.:.:.:.:.",
":.:.:.:., , x x P.Z.^.^.E.T.E.E.F.F.N.M.I.I./.!.[.'.^.'.`.`.`.`.).).[.{.D.D.%.,.H.H.{.{.~.!.h.n.Z.Z.k k :.:.:.:.:.:.:.:.:.:.:.:.",
":.:.:.:., , x x H.D.^.T.T.E.E.E.F.F.M.N.T.T.^.^.'.'.'.'.'.`.`.).).).[.[.D.D.,.,.H.H.{.{.I.W.z.h.D.Z.k k :.:.:.:.:.:.:.:.:.:.:.:.",
":.:.:.:., , ....K.P.T.^.^.^.!.!.j.z.i.i.j.j.K.K.T.!.^.'.[.`.[.[.[.[.`.`.L.L.,.,.g.g.^.'.A.B.t.e.(.'.c c :.:.:.:.:.:.:.:.:.:.:.:.",
":.:.:.:., , ....P.K.^.T.T.^.T.!.N.N.i.i.j.M.A.A.T.T.^.^.[.[.[.`.].].].[.Y.R.,.,.g.g.'.^.B.A.t.h.(.{.@.c :.:.:.:.:.:.:.:.:.:.:.:.",
":.:.:.:.: : k g y.d.K.I.W.I.A.S.u.i.;.[ ;.;.0.0.h.h.M.M.K.L.Y.Y.U.Y.Y.Y.R.Y.'.'.E.T.T.T.h.h.#.%.~.~.c c :.:.:.:.:.:.:.:.:.:.:.:.",
":.:.:.:.: : k z d.d.K.K.W.W.S.K.p.p.[ [ ;.;.0.0.t.h.M.M.L.G.L.Y.E.Y.Y.Y.E.Y.'.`.Y.T.T.T.p.h.%.#.~.~.c c :.:.:.:.:.:.:.:.:.:.:.:.",
":.:.:.:.o o y e =.=.w.w.n.n.r.c.W W T T T T 9 9 8 8 B A E ~ E E } } 8.8.j.j.B.F.F.K.A.S.9.9.a a 4.4.j z :.:.:.:.:.:.:.:.:.:.:.:.",
":.:.:.:.o O e e =.<.w.w.n.n.t.p.W [ T T T K 9 9 8 8 A A E E E E ;.} 8.8.l.j.F.F.K.K.K.K.9.;.a a 4.4.j f :.:.:.:.:.:.:.:.:.:.:.:.",
":.:.:.:.:.:.f f = = 7 7 r q q q i i B B E W B.A.7.7.G G ) ) / / S S ` ) u.u.m.j.m.m.p.r...I @ @ ; & :.:.:.:.:.:.:.:.:.:.:.:.:.:.",
":.:.:.h h h f f = = 7 0 7 r 8 q 9 i B Z E E A.A.7.7.G G ) / _ ( S S ) E u.} m.m.m.m.t.t.I I @ @ ; > :.:.:.:.:.:.:.:.:.:.:.:.:.:.",
":.:.:.h h h h h h h h h h h < < u u H H } } Y.U.k.k.] ] >. . . .^ ^ C C W W u.0.p.p.L L = = :.:.:.:.:.:.:.:.:.:.:.:.:.:.:.:.:.:.",
":.:.:.:.h h h h h h h h h h 2 < u u H H | } U.Y.k.k.] ]  . . . .^ ^ C C W W u.u.p.p.J J = 6 :.:.:.:.:.:.:.:.:.:.:.:.:.:.:.:.:.:.",
":.:.:.:.:.:.h h h h h h h h h h w w ! ! { { ` ` _ _ |  .' ' | | ( ( V V v v o.o.X.X.r r h h h :.:.:.:.:.:.:.:.:.:.:.:.:.:.:.:.:.",
":.:.:.:.:.:.h h h h h h h h h h w w ! ! { { ` ` _ ` | | ' ' | | ( ( V V v v o.o.X.X.r r h h h h h h h h h h h h h h h h :.:.:.:.",
":.:.:.:.:.h h h h h h h h h h h 7 7 K K R R F F D D D D D D Z Z Z Z n n b b N M 6 5 h h h h h h h h h h h h h h h h h h :.:.:.:.",
":.:.:.:.:.h h h h h h h h h h h 7 4 K K R R F F D D D D D D ^ Z Z Z n n b b N N 5 5 h h h h h h h h h h h h h h h h :.:.:.:.:.:.",
":.:.:.:.h h h h h h h :.h h h h h h * * 3 3 i p M M M M M M m m p p m m N N L L & & h h h h h h h h h h h h h :.:.:.:.:.:.:.:.:.",
":.:.:.:.h h h h h :.:.:.:.h h h h h * * 3 3 i p M M M M M M m m p p m m N N L L % $ h h h h h h h h h h h :.:.:.:.:.:.:.:.:.:.:.",
":.:.:.:.h h h :.:.:.:.:.:.:.:.h h h h :.:.:.+ @ & & $ & & $ $ & % % 6 > 5 5 6 6 h h h h h h h h h h :.:.:.:.:.:.:.:.:.:.:.:.:.:.",
":.:.:.:.:.:.:.:.:.:.:.:.:.:.:.:.:.:.:.:.:.:.@ @ & & & & $ $ % % % % 6 6 3 r 6 6 h h h h h h h h h h :.:.:.:.:.:.:.:.:.:.:.:.:.:.",
":.:.:.:.:.:.:.:.:.:.:.:.:.:.:.:.:.:.:.:.:.:.:.:.:.:.:.:.:.:.:.h h h h h h h h h h h h h h h h h h h h :.:.:.:.:.:.:.:.:.:.:.:.:.",
":.:.:.:.:.:.:.:.:.:.:.:.:.:.:.:.:.:.:.:.:.:.:.:.:.:.:.:.:.:.h h h h h h h h h h h h h h h h h h h h h :.:.:.:.:.:.:.:.:.:.:.:.:.",
":.:.:.:.:.:.:.:.:.:.:.:.:.:.:.:.:.:.:.:.:.:.:.:.:.:.:.:.:.:.h h h h h h h h h :.:.h h h h h h h h h h h :.:.:.:.:.:.:.:.:.:.:.:.",
":.:.:.:.:.:.:.:.:.:.:.:.:.:.:.:.:.:.:.:.:.:.:.:.:.:.:.:.:.h h h h h h h :.:.:.:.:.:.:.h h h h h h h h h :.:.:.:.:.:.:.:.:.:.:.:.",
":.:.:.:.:.:.:.:.:.:.:.:.:.:.:.:.:.:.:.:.:.:.:.:.:.:.:.:.h h h h h h :.:.:.:.:.:.:.:.:.:.:.h h h h h h h h :.:.:.:.:.:.:.:.:.:.:.",
":.:.:.:.:.:.:.:.:.:.:.:.:.:.:.:.:.:.:.:.:.:.:.:.:.:.:.:.h h h :.:.:.:.:.:.:.:.:.:.:.:.:.:.:.:.h h h h h h :.:.:.:.:.:.:.:.:.:.:.",
":.:.:.:.:.:.:.:.:.:.:.:.:.:.:.:.:.:.:.:.:.:.:.:.:.:.:.:.h h :.:.:.:.:.:.:.:.:.:.:.:.:.:.:.:.:.:.:.h h h h :.:.:.:.:.:.:.:.:.:.:.",
":.:.:.:.:.:.:.:.:.:.:.:.:.:.:.:.:.:.:.:.:.:.:.:.:.:.:.:.:.:.:.:.:.:.:.:.:.:.:.:.:.:.:.:.:.:.:.:.:.:.:.:.:.:.:.:.:.:.:.:.:.:.:.:.",
":.:.:.:.:.:.:.:.:.:.:.:.:.:.:.:.:.:.:.:.:.:.:.:.:.:.:.:.:.:.:.:.:.:.:.:.:.:.:.:.:.:.:.:.:.:.:.:.:.:.:.:.:.:.:.:.:.:.:.:.:.:.:.:.",
":.:.:.:.:.:.:.:.:.:.:.:.:.:.:.:.:.:.:.:.:.:.:.:.:.:.:.:.:.:.:.:.:.:.:.:.:.:.:.:.:.:.:.:.:.:.:.:.:.:.:.:.:.:.:.:.:.:.:.:.:.:.:.:.",
":.:.:.:.:.:.:.:.:.:.:.:.:.:.:.:.:.:.:.:.:.:.:.:.:.:.:.:.:.:.:.:.:.:.:.:.:.:.:.:.:.:.:.:.:.:.:.:.:.:.:.:.:.:.:.:.:.:.:.:.:.:.:.:.",
":.:.:.:.:.:.:.:.:.:.:.:.:.:.:.:.:.:.:.:.:.:.:.:.:.:.:.:.:.:.:.:.:.:.:.:.:.:.:.:.:.:.:.:.:.:.:.:.:.:.:.:.:.:.:.:.:.:.:.:.:.:.:.:."
};
