/* XPM */
static char *result[] = {
/* columns rows colors chars-per-pixel */
"64 64 187 2 ",
"   c #0C0000",
".  c #160002",
"X  c #1E0000",
"o  c #1C0009",
"O  c #170B0D",
"+  c #220004",
"@  c #23010B",
"#  c #2A000B",
"$  c #28060A",
"%  c #310007",
"&  c #3F0305",
"*  c #35030A",
"=  c #3C040D",
"-  c #270515",
";  c #320212",
":  c #3C0012",
">  c #340B15",
",  c #350E1B",
"<  c #390D1D",
"1  c #271113",
"2  c #341313",
"3  c #3C2829",
"4  c #43000D",
"5  c #4A000D",
"6  c #4D0015",
"7  c #47091B",
"8  c #450D1B",
"9  c #540318",
"0  c #5B041C",
"q  c #7A0017",
"w  c #560621",
"e  c #5B0122",
"r  c #540D24",
"t  c #451628",
"y  c #4E1E2E",
"u  c #55162E",
"i  c #591C34",
"p  c #5D1B3D",
"a  c #620124",
"s  c #680821",
"d  c #760225",
"f  c #62182F",
"g  c #6F1C37",
"h  c #48282B",
"j  c #4B2634",
"k  c #69263C",
"l  c #736122",
"z  c #5D1E46",
"x  c #542C43",
"c  c #5E2A45",
"v  c #4E3244",
"b  c #6F2449",
"n  c #71374A",
"m  c #840428",
"M  c #89022E",
"N  c #950A32",
"B  c #8C1A3A",
"V  c #941C3E",
"C  c #A2193E",
"Z  c #951A45",
"A  c #B20C42",
"S  c #A71C46",
"D  c #B3144B",
"F  c #B2194A",
"G  c #BC1950",
"H  c #8A3B53",
"J  c #943B56",
"K  c #993B57",
"L  c #A52553",
"P  c #B82656",
"I  c #A53350",
"U  c #BA315D",
"Y  c #AA3563",
"T  c #A73D7C",
"R  c #C00A41",
"E  c #C50D50",
"W  c #C81F5D",
"Q  c #C2235B",
"!  c #C8315B",
"~  c #D51D63",
"^  c #D51C6C",
"/  c #FC1D6F",
"(  c #F51E7B",
")  c #CC266A",
"_  c #D72461",
"`  c #C63461",
"'  c #E32365",
"]  c #F42073",
"[  c #9F425B",
"{  c #B6415D",
"}  c #884E67",
"|  c #8D5270",
" . c #BD4667",
".. c #B4446E",
"X. c #AB5D78",
"o. c #C6456B",
"O. c #C74C75",
"+. c #D74B7A",
"@. c #CE597C",
"#. c #E3547C",
"$. c #E6C03E",
"%. c #C53887",
"&. c #AA4881",
"*. c #BF4E8B",
"=. c #AB5788",
"-. c #B15F86",
";. c #BD598B",
":. c #A26388",
">. c #BB6887",
",. c #BF6F97",
"<. c #CA5C82",
"1. c #C05B8D",
"2. c #DE5A82",
"3. c #C14692",
"4. c #C96283",
"5. c #CA6C8D",
"6. c #DA678F",
"7. c #CA7898",
"8. c #DD799F",
"9. c #E7698D",
"0. c #E06F95",
"q. c #EE6D95",
"w. c #E96F9B",
"e. c #F76F94",
"r. c #E6739D",
"t. c #EA749D",
"y. c #F3759D",
"u. c #FA769A",
"i. c #CF5BA2",
"p. c #DE5BA7",
"a. c #DF62A7",
"s. c #C972A0",
"d. c #D972AD",
"f. c #E06BA0",
"g. c #EB73A1",
"h. c #EB77A7",
"j. c #F57DA3",
"k. c #F57EAE",
"l. c #FA79A8",
"z. c #C4829D",
"x. c #D490A9",
"c. c #CE82B5",
"v. c #DB8BB5",
"b. c #DF94BD",
"n. c #F581A8",
"m. c #E090AB",
"M. c #E588B3",
"N. c #FB82B3",
"B. c #F589B6",
"V. c #FA8BBC",
"C. c #E197B3",
"Z. c #E494BE",
"A. c #E996BB",
"S. c #F793BE",
"D. c #FB94BA",
"F. c #DE91C3",
"G. c #FF8DC4",
"H. c #FF8BCE",
"J. c #E59BC7",
"K. c #F495C2",
"L. c #FD94C4",
"P. c #FF9AC7",
"I. c #F594CC",
"U. c #FA95CA",
"Y. c #FE9BCC",
"T. c #F88DD4",
"R. c #F59FD3",
"E. c #FE9CD3",
"W. c #FE9DDB",
"Q. c #EDA0C9",
"!. c #F7A6C6",
"~. c #FDB3CE",
"^. c #FFA1D3",
"/. c #F5A8D5",
"(. c #FCA8D4",
"). c #FFA3DB",
"_. c #FEAADD",
"`. c #FF9DE3",
"'. c #FFA2E3",
"]. c #FEADE2",
"[. c #FFA3E9",
"{. c #FFACE9",
"}. c #FDB6E7",
"|. c #FBBFE4",
" X c #FFB3F7",
".X c #FFD5FF",
"XX c #FFE2FF",
/* pixels */
"$.$.$.$.$.$.$.$.$.$.$.$.$.$.$.$.$.$.$.$.$.$.$.$.$.$.$.$.$.$.$.$.$.$.$.$.$.$.$.$.$.$.$.$.$.$.$.$.$.$.$.$.$.$.$.$.$.$.$.$.$.$.$.$.",
"$.$.$.$.$.$.$.$.$.$.$.$.$.$.$.$.$.$.$.$.$.$.$.$.$.$.$.$.$.$.$.$.$.$.$.$.$.$.$.$.$.$.$.$.$.$.$.$.$.$.$.$.$.$.$.$.$.$.$.$.$.$.$.$.",
"$.$.$.$.$.$.$.$.$.$.$.$.$.$.$.$.$.$.$.$.$.$.$.$.$.$.$.$.$.$.$.$.$.$.$.$.$.$.$.$.$.$.$.$.$.$.$.$.$.$.$.$.$.$.$.$.$.$.$.$.$.$.$.$.",
"$.$.$.$.$.$.$.$.$.$.$.$.$.$.$.$.$.$.$.$.$.$.$.$.$.$.$.$.$.$.$.$.$.$.$.$.$.$.$.$.$.$.$.$.$.$.$.$.$.$.$.$.$.$.$.$.$.$.$.$.$.$.$.$.",
"$.$.$.$.$.$.$.$.$.$.$.$.$.$.$.$.$.$.$.$.$.$.$.$.$.$.$.$.$.$.$.$.$.$.$.$.$.$.$.$.$.$.$.$.$.$.$.$.$.$.$.$.$.$.$.$.$.$.$.$.$.$.$.$.",
"$.$.$.$.$.$.$.$.$.$.$.$.$.$.$.$.$.$.$.$.l l $.$.$.$.$.$.$.$.$.$.$.$.$.$.$.$.$.$.$.$.$.$.$.$.$.$.$.$.$.$.$.$.$.$.$.$.$.$.$.$.$.$.",
"$.$.$.$.$.$.$.$.$.$.$.$.$.$.$.$.$.$.$.$.l l $.$.$.$.$.$.$.$.$.$.$.$.$.$.$.$.$.$.$.$.$.$.$.$.$.$.$.$.$.$.$.$.$.$.$.$.$.$.$.$.$.$.",
"$.$.$.$.$.$.$.$.$.$.$.$.$.$.$.$.$.$.$.l l l l $.$.$.$.$.$.$.$.$.$.$.$.$.$.$.$.$.$.$.$.$.$.$.$.$.$.$.$.$.l l $.$.$.$.$.$.$.$.$.$.",
"$.$.$.$.$.$.$.$.$.$.$.$.$.$.$.$.$.$.$.l l l l $.< , y y x x x x v v v v j j , , 3 , $.$.$.$.$.$.$.$.$.l l l $.$.$.$.$.$.$.$.$.$.",
"$.$.$.$.$.$.$.$.$.$.$.$.$.$.$.$.$.$.l l l l l l < > y y x x x v v v v v j j , , 3 3 $.$.$.$.$.$.$.$.$.l l l $.$.$.$.$.$.$.$.$.$.",
"$.$.$.$.$.$.$.$.$.$.$.$.$.$.$.$.$.$.    @ @ i i X.X.A.A././.}./.|.|.|.|.Q.Q.,.,.b b - - o o $.$.$.$.l l l l $.$.$.$.$.$.$.$.$.$.",
"$.$.$.$.$.$.$.$.$.$.$.$.$.$.$.$.$.l     @ @ i i X.X.A.A.Q./.}.}.|.|.|.|.J.J.,.7.b b ; ; o o $.$.$.$.l l l l $.$.$.$.$.$.$.$.$.$.",
"$.$.$.$.$.$.$.$.$.$.$.$.$.$.$.$.O O o . | } C.v.D.S.Y.Y.).E.].]._._.^.^.^.Y.).).U.P.>.>.i y - O $.l l l l l l $.$.$.$.$.$.$.$.$.",
"$.$.$.$.$.$.$.$.$.$.$.$.$.$.$.$.O O o o } | m.M.S.S.E.Y.).W.].]._._.^.^.^.^.(.(.P.P.>.5.y y - - l l l l l l l l l l l l l $.$.$.",
"$.$.$.$.$.$.$.$.$.$.$.$.$.$.$.$.o o | | J.Z.(.(.E.^.^.).].].1.;.Y Y V.V.(.(.1.;.....D.D.x.x.< < l l l l l l l l l l l l l $.$.$.",
"$.$.$.$.$.$.l l l l l l l l l l o . | | Q.Z.(.(.^.E.(.).].].1.;.Y Y D.V.(._.1.;.....D.D.x.x.< < l l l l l l l l l l l l $.$.$.$.",
"$.$.$.$.$.$.l l l l l l l l l l z z A.Z._._.^.).).E.).).).(.K.V.6.6.<.<.P.K.M.M.@.5.5.@.~.~.} } l l l l l l l l l l $.$.$.$.$.$.",
"$.$.$.$.$.$.$.l l l l l l l l l i p J.A._.(.).).W.).R.E.^.).A.S.6.2.<.O.K.K.M.M.4.X.@.@.~.~.} } l l l l l l l l $.$.$.$.$.$.$.$.",
"$.$.$.$.$.$.$.$.$.l l l l l ; ; :.-.E.^.'._.E.R.'.W.`.).I.I..X.XY.!.g g v.v.XXXXC.m.g g A.!.z.z.< t l l l l l l l $.$.$.$.$.$.$.",
"$.$.$.$.$.$.$.$.$.$.$.l l l - - -.-.E.Y._.'.R.E.'.`.).`.I.R..X.X!.!.g g v.m.XXXXm.m.g g !.Q.z.z.t t l l l l l l l $.$.$.$.$.$.$.",
"$.$.$.$.$.$.$.$.$.$.$.$.$.l i i K.K.E.E.W.W.W.W.W.W.W.`.{.{.s.s.r r % % b.b.b.b.y u & * A.A.!./.n n h 3 l l l l l l $.$.$.$.$.$.",
"$.$.$.$.$.$.$.$.$.$.$.$.l l i y A.K.E.T.W.W.W.W.W.W.W.T.].{.s.s.r r % % F.F.b.b.u i * * A.A.!.~.n n 3 3 $.$.l l l l $.$.$.$.$.$.",
"$.$.$.$.$.$.$.$.$.$.$.$.2 2 H H U.U.W.W.W.W.[.[.'.[.[.[. X X;.;.% % % * F.F.F.c.y t ; * /./.}.|.X.X.> 8 $.$.$.$.l l $.$.$.$.$.$.",
"$.$.$.$.$.$.$.$.$.$.$.l 2 2 H [ P.Y.E.E.`.`.[.[.[.[.[.[. X X;.;.% % # # F.F.v.F.u t ; ; /.^..X}.X.X.8 = $.$.$.$.$.$.$.$.$.$.$.$.",
"$.$.$.$.$.$.$.$.$.$.+ + k B 5.5.Y.Y.W.W.`.'.[.[.T.T.i.i.p.p.3.*.u u + + c.c.J.J.c c X + =.=.)._.8.8.6 6 X X $.$.$.$.$.$.$.$.$.$.",
"$.$.$.$.$.$.$.$.$.$.+ @ k k 5.5.U.Y.W.W.`.`.[.[.T.T.i.i.p.p.3.*.u u o + c.c.J.J.c c X o =.&.)._.8.8.6 8 X X $.$.$.$.$.$.$.$.$.$.",
"$.$.$.$.$.$.$.$.# + k k s.s.P.U.U.U.W.E.).W.{.[.T.T.*.3.%.%.p.p.=.=.z z F.F.{.].:.:.p p T T H.H.N.l.Z Z 7 r $.$.$.$.$.$.$.$.$.$.",
"$.$.$.$.$.$.$.$.+ + c k s.7.U.L.U.U.E.W.`.W.{.{.T.T.3.3.%.%.a.p.=.=.z z F.F._.}.:.=.p z T T H.H.l.N.Z Z r 7 $.$.$.$.$.$.$.$.$.$.",
"$.$.$.$.$.$.@ o k k 7.7.E.E.E.).E.W.).^.).W.).).W.`.`.`.`.`.`.`.).).].]./._.R.R././.]._.'.'.'.`.l.l.+.O.>.>.2 ; $.$.$.$.$.$.$.$.",
"$.$.$.$.$.$.+ o k k 7.7.E.E.W.W.E.W.W.E.).^.W.).W.W.[.`.[.`.`.`.)._.].].'.].R.R././.].].`.W.[.[.l.l.3.O.,.>.2 > $.$.$.$.$.$.$.$.",
"$.$.$.$.$.$.# @ J [ A.S._._.W.W.).).U.U.L.K.E.E.W.).`.'.`.`.`.`.'.'.`.'.W.W.&.&.=.&.}.{.).W.'.).N.N.t.t.C.C.< , $.$.$.$.$.$.$.$.",
"$.$.$.$.$.$.# # J J S.D._._.W.R.).).U.L.K.L.Y.U.W.W.'.).`.`.`.`.'.[.'.'.W.`.&.T &.&.{.}.W.'._._.N.N.h.y.C.C.< , $.$.$.$.$.$.$.$.",
"$.$.$.$.$.$.> , K [ P.P._._.R.^.L.G.h.k.V.V.L.L.^.^.).'.W.'.W.`.`.'.`.'.W.W.d.d.d.d.).).'.'.).W.k.k.N.B.~.~.3 h $.$.$.$.$.$.$.$.",
"$.$.$.$.$.$., , [ [ P.P._._.E.E.L.U.k.k.S.V.L.I.E.E.'.'.`.W.`.`.`.`.'.W.W.W.d.d.d.d.)._.'.].).).k.k.D.n.~.~.3 t $.$.$.$.$.$.$.$.",
"$.$.$.$.$.$.# # J J n.n.P.Y.!.D.N.N.g.g.k.k.B.k.G.K.E.U.R.R.W.W.).).W.W.)._.].{._.].E.E.E.T.G.H.n.y.q.r.>.z.> > $.$.$.$.$.$.$.$.",
"$.$.$.$.$.$.@ # J J n.n.Y.!.S.D.N.N.f.g.k.k.B.N.G.V.E.E.T.W.W.`.W.W.W.).'.'.{.{.]._.Y.E.E.E.G.G.y.y.n.0.z.5.> 2 $.$.$.$.$.$.$.$.",
"$.$.$.$.$.$.1 1 0 r K J >.@.7.5.0.0.w.w.g.g.w.f.g.h.G.G.I.G.I.I.Y.Y.Y.^.^.E.(.^.P.P.V.B.h.f.f.d.6.6.J J 8 7 1 1 $.$.$.$.$.$.$.$.",
"$.$.$.$.$.$.1 1 r r K J >.X.5.5.0.0.w.w.t.r.g.w.h.h.G.G.I.K.Y.I.E.P.^.^.^.^.^.^.P.Y.B.V.d.h.f.a.6.6.[ [ 7 8 1 1 $.$.$.$.$.$.$.$.",
"$.$.$.$.$.$.$.$.. . @ @ + + 8 8 [ [ @.@.w.w.g.g.w.w.w.g.h.h.h.f.r.r.h.t.t.g.j.j.n.u.y.l.2.<.....f f + + X . $.$.$.$.$.$.$.$.$.$.",
"$.$.$.$.$.$.$.$.. . @ @ o o 8 8 [ [ @.@.w.w.y.g.f.w.g.g.h.h.f.g.r.g.t.t.g.g.j.j.u.l.j.y.+.<.....f f + $ . . $.$.$.$.$.$.$.$.$.$.",
"$.$.$.$.$.$.$.$.l l l l l l X X 9 5 g M O.o.y.n.n.n.u.y.9.q.u.u.q.q.2.2.U o.N N d m C C U U d d $.$.$.$.$.$.$.$.$.$.$.$.$.$.$.$.",
"$.$.$.l l l l l l l l l l l X X 5 9 m m O.O.n.y.n.n.y.y.q.q.u.u.q.q.2.2.o.U N N m m C S U U d a $.$.$.$.$.$.$.$.$.$.$.$.$.$.$.$.",
"$.$.$.l l l l l l l l l l l # + q s M M V V I I  . .9.9.e.e.u.e.#.#.P P S F +.+.O.` M M F F m d $.$.$.$.$.$.$.$.$.$.$.$.$.$.$.$.",
"$.$.$.$.l l l l l l l l l l # # s s M M V B I I  . .9.q.e.e.e.u.#.#.P P S F +.+.` o.M M D G d d $.$.$.$.$.$.$.$.$.$.$.$.$.$.$.$.",
"$.$.$.$.$.$.l l l l l l l l : : L L G R N N m m m M o.o.{ { o.o.! ! A A ) W W.W.[.[.^ ) E E P P 9 9 1 1 $.$.$.$.$.$.$.$.$.$.$.$.",
"$.$.$.$.$.$.l l l l l l l l = = L L F C N N q q M m o.o.{ { o. .! ! A A W W W.W.[.[.^ ^ E E P G 0 0 1 $ l l l l l l l l $.$.$.$.",
"$.$.$.$.$.l l l l l l l l l & % C C R R ' ' _ _ A F B B 4 4 0 s ! _ ' ' / ] ( ( %.( ( ( / / ~ ! 0 0 h h l l l l l l l l $.$.$.$.",
"$.$.$.$.$.l l l l l l l l l & 4 C C R R ' ' _ _ D D B B & 4 0 0 ! ! ' ' ] ] ( ( %.( ( ( / / _ _ w s h h l l l l l l $.$.$.$.$.$.",
"$.$.$.$.l l l l l l l $.l l % % B B S F Q F Q Q Z Z 5 5 X X 2 = V V Q Q _ ~ ^ ^ ^ ^ ^ ^ ~ ~ ` ` w w 2 2 l l l $.$.$.$.$.$.$.$.$.",
"$.$.$.$.l l l l l $.$.$.$.l * % B B F F Q R P ! Z S 5 5 X X 4 8 V Z Q Q ~ ^ ^ ^ ^ ^ ^ ^ ~ ~ ` ` w w 2 2 l $.$.$.$.$.$.$.$.$.$.$.",
"$.$.$.$.l l l $.$.$.$.$.$.$.$.l ; ; 6 6 5 5 5 6 4 = $.$.$.$.h h * * 4 4 9 w e e w e e e a a 0 w j j $.$.$.$.$.$.$.$.$.$.$.$.$.$.",
"$.$.$.$.$.$.$.$.$.$.$.$.$.$.$.$.; * 6 7 5 5 6 6 : 4 $.$.$.$.h h * * 4 4 9 0 e e e e e e a a w 0 j j $.$.$.$.$.$.$.$.$.$.$.$.$.$.",
"$.$.$.$.$.$.$.$.$.$.$.$.$.$.$.$.$.$.$.$.$.$.$.$.$.$.$.$.$.$.$.l l l l l l l l l l l l l l l l l l l l $.$.$.$.$.$.$.$.$.$.$.$.$.",
"$.$.$.$.$.$.$.$.$.$.$.$.$.$.$.$.$.$.$.$.$.$.$.$.$.$.$.$.$.$.l l l l l l l l l l l l l l l l l l l l l $.$.$.$.$.$.$.$.$.$.$.$.$.",
"$.$.$.$.$.$.$.$.$.$.$.$.$.$.$.$.$.$.$.$.$.$.$.$.$.$.$.$.$.$.l l l l l l l l l $.$.l l l l l l l l l l l $.$.$.$.$.$.$.$.$.$.$.$.",
"$.$.$.$.$.$.$.$.$.$.$.$.$.$.$.$.$.$.$.$.$.$.$.$.$.$.$.$.$.l l l l l l l $.$.$.$.$.$.$.l l l l l l l l l $.$.$.$.$.$.$.$.$.$.$.$.",
"$.$.$.$.$.$.$.$.$.$.$.$.$.$.$.$.$.$.$.$.$.$.$.$.$.$.$.$.l l l l l l $.$.$.$.$.$.$.$.$.$.$.l l l l l l l l $.$.$.$.$.$.$.$.$.$.$.",
"$.$.$.$.$.$.$.$.$.$.$.$.$.$.$.$.$.$.$.$.$.$.$.$.$.$.$.$.l l l $.$.$.$.$.$.$.$.$.$.$.$.$.$.$.$.l l l l l l $.$.$.$.$.$.$.$.$.$.$.",
"$.$.$.$.$.$.$.$.$.$.$.$.$.$.$.$.$.$.$.$.$.$.$.$.$.$.$.$.l l $.$.$.$.$.$.$.$.$.$.$.$.$.$.$.$.$.$.$.l l l l $.$.$.$.$.$.$.$.$.$.$.",
"$.$.$.$.$.$.$.$.$.$.$.$.$.$.$.$.$.$.$.$.$.$.$.$.$.$.$.$.$.$.$.$.$.$.$.$.$.$.$.$.$.$.$.$.$.$.$.$.$.$.$.$.$.$.$.$.$.$.$.$.$.$.$.$.",
"$.$.$.$.$.$.$.$.$.$.$.$.$.$.$.$.$.$.$.$.$.$.$.$.$.$.$.$.$.$.$.$.$.$.$.$.$.$.$.$.$.$.$.$.$.$.$.$.$.$.$.$.$.$.$.$.$.$.$.$.$.$.$.$.",
"$.$.$.$.$.$.$.$.$.$.$.$.$.$.$.$.$.$.$.$.$.$.$.$.$.$.$.$.$.$.$.$.$.$.$.$.$.$.$.$.$.$.$.$.$.$.$.$.$.$.$.$.$.$.$.$.$.$.$.$.$.$.$.$.",
"$.$.$.$.$.$.$.$.$.$.$.$.$.$.$.$.$.$.$.$.$.$.$.$.$.$.$.$.$.$.$.$.$.$.$.$.$.$.$.$.$.$.$.$.$.$.$.$.$.$.$.$.$.$.$.$.$.$.$.$.$.$.$.$.",
"$.$.$.$.$.$.$.$.$.$.$.$.$.$.$.$.$.$.$.$.$.$.$.$.$.$.$.$.$.$.$.$.$.$.$.$.$.$.$.$.$.$.$.$.$.$.$.$.$.$.$.$.$.$.$.$.$.$.$.$.$.$.$.$."
};
