/* XPM */
static char *result[] = {
/* columns rows colors chars-per-pixel */
"64 64 193 2 ",
"   c #0B0001",
".  c #130303",
"X  c #1B0103",
"o  c #15040A",
"O  c #1D050A",
"+  c #170B0C",
"@  c #1B0A0A",
"#  c #250004",
"$  c #2D000D",
"%  c #320006",
"&  c #3B0004",
"*  c #35020A",
"=  c #3C000C",
"-  c #2C0011",
";  c #3C0414",
":  c #38031B",
">  c #39091B",
",  c #30171A",
"<  c #3E202F",
"1  c #46000A",
"2  c #440213",
"3  c #440318",
"4  c #49071A",
"5  c #56051F",
"6  c #5E0119",
"7  c #6B000D",
"8  c #64001E",
"9  c #460A26",
"0  c #550621",
"q  c #5B0322",
"w  c #481121",
"e  c #511F2E",
"r  c #4D1C33",
"t  c #5C1734",
"y  c #6B0528",
"u  c #760829",
"i  c #6E1322",
"p  c #6C1B31",
"a  c #731637",
"s  c #422A2D",
"d  c #4F273C",
"f  c #542134",
"g  c #532A3D",
"h  c #4E3738",
"j  c #632236",
"k  c #603A3C",
"l  c #736122",
"z  c #7C1840",
"x  c #572C43",
"c  c #5A2D41",
"v  c #642544",
"b  c #6F2B42",
"n  c #683549",
"m  c #663C51",
"M  c #7A3E53",
"N  c #7F325C",
"B  c #81011D",
"V  c #8C052C",
"C  c #940D33",
"Z  c #9C0A33",
"A  c #8A1435",
"S  c #831B36",
"D  c #801E3F",
"F  c #8F1E3C",
"G  c #971234",
"H  c #A10D3A",
"J  c #AB083D",
"K  c #801F44",
"L  c #9E1A47",
"P  c #B30041",
"I  c #BD0C46",
"U  c #A81142",
"Y  c #B01746",
"T  c #BB134C",
"R  c #BC1C4F",
"E  c #812240",
"W  c #852D52",
"Q  c #96345A",
"!  c #A4344D",
"~  c #AB2753",
"^  c #AD2658",
"/  c #BA2052",
"(  c #B62C5D",
")  c #A63A57",
"_  c #9B2B63",
"`  c #BA2E60",
"'  c #BC3763",
"]  c #CE034B",
"[  c #D8004D",
"{  c #CD0954",
"}  c #C42359",
"|  c #C32B5F",
" . c #D0255E",
".. c #C5375E",
"X. c #CE1467",
"o. c #DC1C6A",
"O. c #ED176B",
"+. c #E21972",
"@. c #F11F76",
"#. c #C53961",
"$. c #D43869",
"%. c #D13F6A",
"&. c #CD2870",
"*. c #874D61",
"=. c #984662",
"-. c #9A576D",
";. c #AA4B65",
":. c #BB506B",
">. c #B24B79",
",. c #AA5972",
"<. c #CF4369",
"1. c #CC4473",
"2. c #DA4C77",
"3. c #CD5B7D",
"4. c #DB5177",
"5. c #E14A79",
"6. c #E4527A",
"7. c #E6C03E",
"8. c #B46582",
"9. c #B96485",
"0. c #BB7089",
"q. c #CD4F8A",
"w. c #DA5383",
"e. c #D9598C",
"r. c #E45887",
"t. c #E25C8B",
"y. c #EB5D89",
"u. c #FF4795",
"i. c #EC5090",
"p. c #C66B8B",
"a. c #D16180",
"s. c #DD6294",
"d. c #DA6599",
"f. c #CE799A",
"g. c #D97499",
"h. c #EE628E",
"j. c #E9688E",
"k. c #E96B98",
"l. c #FA6E9B",
"z. c #C37EA5",
"x. c #DC73AB",
"c. c #E17EA6",
"v. c #F877A7",
"b. c #FF7CA6",
"n. c #EA77B7",
"m. c #FE7EB2",
"M. c #FD7EBD",
"N. c #CA809F",
"B. c #D3849E",
"V. c #EA829E",
"C. c #D483A5",
"Z. c #D580AE",
"A. c #D58CB0",
"S. c #E080AE",
"D. c #FE83AC",
"F. c #E788B4",
"G. c #FD83B3",
"H. c #FF8CB3",
"J. c #F184B9",
"K. c #F788B8",
"L. c #FF8CBA",
"P. c #EA93B8",
"I. c #FF91B6",
"U. c #F39BBE",
"Y. c #EC82C3",
"T. c #F381C5",
"R. c #FD8CC5",
"E. c #FD8FCE",
"W. c #EE96C5",
"Q. c #EF95C8",
"!. c #FF94C4",
"~. c #FF94CB",
"^. c #FD9DCD",
"/. c #FA8ED0",
"(. c #FD9DD4",
"). c #FE9DDC",
"_. c #EEA2C9",
"`. c #E1AFCB",
"'. c #FFA2C4",
"]. c #FFA3CB",
"[. c #EFA6D0",
"{. c #FEA1D6",
"}. c #FDA8D7",
"|. c #FFA2DC",
" X c #F7ADDA",
".X c #FDABDA",
"XX c #E8B7DA",
"oX c #FFB0D4",
"OX c #F9B0D9",
"+X c #FF9EE4",
"@X c #FDA2E1",
"#X c #FFA8E3",
"$X c #FFD8FF",
/* pixels */
"7.7.7.7.7.7.7.7.7.7.7.7.7.7.7.7.7.7.7.7.7.7.7.7.7.7.7.7.7.7.7.7.7.7.7.7.7.7.7.7.7.7.7.7.7.7.7.7.7.7.7.7.7.7.7.7.7.7.7.7.7.7.7.7.",
"7.7.7.7.7.7.7.7.7.7.7.7.7.7.7.7.7.7.7.7.7.7.7.7.7.7.7.7.7.7.7.7.7.7.7.7.7.7.7.7.7.7.7.7.7.7.7.7.7.7.7.7.7.7.7.7.7.7.7.7.7.7.7.7.",
"7.7.7.7.7.7.7.7.7.7.7.7.7.7.7.7.7.7.7.7.7.7.7.7.7.7.7.7.7.7.7.7.7.7.7.7.7.7.7.7.7.7.7.7.7.7.7.7.7.7.7.7.7.7.7.7.7.7.7.7.7.7.7.7.",
"7.7.7.7.7.7.7.7.7.7.7.7.7.7.7.7.7.7.7.7.7.7.7.7.7.7.7.7.7.7.7.7.7.7.7.7.7.7.7.7.7.7.7.7.7.7.7.7.7.7.7.7.7.7.7.7.7.7.7.7.7.7.7.7.",
"7.7.7.7.7.7.7.7.7.7.7.7.7.7.7.7.7.7.7.7.7.7.7.7.7.7.7.7.7.7.7.7.7.7.7.7.7.7.7.7.7.7.7.7.7.7.7.7.7.7.7.7.7.7.7.7.7.7.7.7.7.7.7.7.",
"7.7.7.7.7.7.7.7.7.7.7.7.7.7.7.7.7.7.7.7.l l 7.7.7.7.7.7.7.7.7.7.7.7.7.7.7.7.7.7.7.7.7.7.7.7.7.7.7.7.7.7.7.7.7.7.7.7.7.7.7.7.7.7.",
"7.7.7.7.7.7.7.7.7.7.7.7.7.7.7.7.7.7.7.7.l l 7.7.7.7.7.7.7.7.7.7.7.7.7.7.7.7.7.7.7.7.7.7.7.7.7.7.7.7.7.7.7.7.7.7.7.7.7.7.7.7.7.7.",
"7.7.7.7.7.7.7.7.7.7.7.7.7.7.7.7.7.7.7.l l l l 7.7.7.7.7.7.7.7.7.7.7.7.7.7.7.7.7.7.7.7.7.7.7.7.7.7.7.7.7.l l 7.7.7.7.7.7.7.7.7.7.",
"7.7.7.7.7.7.7.7.7.7.7.7.7.7.7.7.7.7.7.l l l d d x x g g r r 4 9 > : X X . . 7.7.7.7.7.7.7.7.7.7.7.7.7.l l l 7.7.7.7.7.7.7.7.7.7.",
"7.7.7.7.7.7.7.7.7.7.7.7.7.7.7.7.7.7.l l l l d d x x g x r r 9 9 > : # X   . 7.7.7.7.7.7.7.7.7.7.7.7.7.l l l 7.7.7.7.7.7.7.7.7.7.",
"7.7.7.7.7.7.7.7.7.7.7.7..   # X = = j j N.N._.[..X X_._.F.A.f.f.9.9.b b ; ; * * . X 7.7.7.7.7.7.7.7.l l l l 7.7.7.7.7.7.7.7.7.7.",
"7.7.7.7.7.7.7.7.7.7.7.7.  . X # = = j j N.N.[.[. X X_._.F.P.f.f.9.9.b b ; > $ * X X 7.7.7.7.7.7.7.7.l l l l 7.7.7.7.7.7.7.7.7.7.",
"7.7.7.7.7.7.7.7.7.7.+ + X X M M f.N.P.I.].^.@X.X|.#X(.^.^.^.^.^.{.].K.P.p.p.,.,.; ; . X 7.7.7.7.7.l l l l l l 7.7.7.7.7.7.7.7.7.",
"7.7.7.7.7.7.7.7.7.7.+ + X X M M N.f.P.P.^.(.|..X@X|.(.^.^.^.(.^.{.].P.P.0.p.,.,.; ; @ . l l l l l l l l l l l l l l l l l 7.7.7.",
"7.7.7.7.7.7.7.7.7.7.# # M M C.A.}.}.|.{.|.|.|.|.|.|.(.(.|.{.#X.X>.>.p.a.'.'.) ) ;.;.e e l l l l l l l l l l l l l l l l l 7.7.7.",
"7.7.7.7.7.7.l l l l $ # M M A.A.}.}.{.|.|.|.{.|.|.).).(.{.|..X.X>.>.p.p.'.oX) ) ;.;.e e l l l l l l l l l l l l l l l l 7.7.7.7.",
"7.7.7.7.7.7.l l l l : > C.C.}.}.|.|.@X+X|.|.|.|.|.|.[.).+X).{.{.S.S.g.g.g.g.' :.a.a.j j 7.l l l l l l l l l l l l l 7.7.7.7.7.7.",
"7.7.7.7.7.7.7.l l l > > N.C.}.}.|.#X@X@X|.@X|.|.|.|.).[.@X@X).).S.F.g.g.j.g.' ' a.3.j f 7.7.l l l l l l l l l l 7.7.7.7.7.7.7.7.",
"7.7.7.7.7.7.7.7.o o v v Q.W.#X#X).).|.+X+X|.|.|.|.|.#X#X@X@X[.[.$X$XA.C.p a V.V.) ) 4 4 $ $     l l l l l l l l l 7.7.7.7.7.7.7.",
"7.7.7.7.7.7.7.7.o o v x W.W.#X#X).).@X|.|.).|.|.@X@X#X#X@X X).|.$X$XC.C.a a V.V.) =.4 4 - $     l l l l l l l l l 7.7.7.7.7.7.7.",
"7.7.7.7.7.7.7.7.< < z.z.(.(.|.@X).).+X).).|.|.|.|.|.).+X@X@X|.|.A.Z.t t 3 3 C.B.5 5 5 5 n b + . l l 7.7.l l l l l l 7.7.7.7.7.7.",
"7.7.7.7.7.7.7.7.< < z.z.(.(.@X|.).).+X+X|.).{.).|.|.|.[.@X@X@X+XZ.Z.0 t 3 3 C.B.5 5 5 5 b n @ + 7.7.7.7.7.7.l l l l 7.7.7.7.7.7.",
"7.7.7.7.7.7.7.7.d d A.P.{.{.).@X).).+X).).).{.(.).{.Y.Y.n.n././.Q.Q.v v > > `.`.9 w W W 8.8.. + 7.7.7.7.7.7.7.7.l l 7.7.7.7.7.7.",
"7.7.7.7.7.7.7.7.d x `.P.}.}.|.@X).).).).).).{.{.+X[.Y.Y.n.Y././.Q.Q.v c > 9 `.`.9 4 W W 8.8.o   7.7.7.7.7.7.7.7.7.7.7.7.7.7.7.7.",
"7.7.7.7.7.7.7.7.x x _._..X.X).|.+X+X+X).|.+X{.|.(.|.E.E.T.T.n.n.x.x.t t : - XXXX: : a a >.;.O O 7.7.7.7.7.7.7.7.7.7.7.7.7.7.7.7.",
"7.7.7.7.7.7.7.7.x x _._.|.|.).@X).).+X+X+X).|.{.|.(./.E.T.T.n.n.x.x.t p - - XXXX: : a a -.,.O + 7.7.7.7.7.7.7.7.7.7.7.7.7.7.7.7.",
"7.7.7.7.7.7.7.7.m x OX X|.|.).|.).).).).).).).|.|.|.#X#X@X#XM.M.q.q.z z N N  X XN N Q Q Q =.o o 7.7.7.7.7.7.7.7.7.7.7.7.7.7.7.7.",
"7.7.7.7.7.7.7.7.m m  XOX|.|.|.|.).(.).).).).|.+X|.|.#X#X@X#XM.M.q.q.z z W N OX XN N Q Q =.=.o . 7.7.7.7.7.7.7.7.7.7.7.7.7.7.7.7.",
"7.7.7.7.7.7.7.7.m m .X.X|.|.{.|.(.).R.R.E.E.(./.|.|.{.).(.{.R.R.i.e.d.d.^.^.^.^.].{.oXoX0.0.. . 7.7.7.7.7.7.7.7.7.7.7.7.7.7.7.7.",
"7.7.7.7.7.7.7.7.m m OXOX|.|.|.{.|.(.R.L.E.E.(.(.|.|.{.|.(.(.R.R.e.t.g.g.^.'.^.^.{.].oXoX0.0.. + 7.7.7.7.7.7.7.7.7.7.7.7.7.7.7.7.",
"7.7.7.7.7.7.7.7.g c W.W.(.~.(.(.J.J.n.n.~.~.E.~.~.E.~.~.R.!.G.m.^ ^ e.q.!.^._ _ n.F.oXoX-.-.+ + 7.7.7.7.7.7.7.7.7.7.7.7.7.7.7.7.",
"7.7.7.7.7.7.7.7.g c W.W.(.(.{.(.J.J.v.n.~.~.~.E.~.~.~.~.R.R.m.m.^ ^ a.e.!.!._ _ F.F.oXoX-.-.+ + 7.7.7.7.7.7.7.7.7.7.7.7.7.7.7.7.",
"7.7.7.7.7.7.7.7.f f c.c.G.H.!.!.G.J.s.s.s.s.m.m.M.m.M.L.G.L.h.y.( ( s.s.].^.d.d.J.J.U.U.*.*.    7.7.7.7.7.7.7.7.7.7.7.7.7.7.7.7.",
"7.7.7.7.7.7.7.7.f f c.c.L.K.!.!.J.J.s.s.t.t.m.m.m.m.L.L.L.L.y.h.` ( s.s.(.{.d.d.n.F.U.U.*.*.    7.7.7.7.7.7.7.7.7.7.7.7.7.7.7.7.",
"7.7.7.7.7.7.7.7.w w 3.3.h.h.D.G.D.G.k.s.w.w.y.y.y.y.w.w.1.1.%.%.4.2.n.J.{.}.).|.^.^.8.8.n n 7.7.7.7.7.7.7.7.7.7.7.7.7.7.7.7.7.7.",
"7.7.7.7.7.7.7.7.w w 3.3.h.h.D.D.G.G.k.k.w.w.y.y.y.y.w.w.1.1.<.<.4.2.v.G.{.{.|.|.^.(.8.9.n m 7.7.7.7.7.7.7.7.7.7.7.7.7.7.7.7.7.7.",
"7.7.7.7.7.7.7.7.3 2 ! ! ..#.j.j.k.k.v.v.l.l.6.6.6.6.1.1.~ ~ 4.4.j.j.L.L.(.{.K.K.J.K.a E k k 7.7.7.7.7.7.7.7.7.7.7.7.7.7.7.7.7.7.",
"7.7.7.7.7.7.7.7.2 2 ! ! <.#.j.j.k.k.v.l.l.l.6.6.6.6.1.1.~ ~ 4.4.j.j.L.L.{.^.W.K.P.K.E E k k 7.7.7.7.7.7.7.7.7.7.7.7.7.7.7.7.7.7.",
"7.7.7.7.7.7.7.7.= = i i 7 7 G C ....j.y.v.l.l.l.b.b.D.H.D.D.I.I.I.I.L.L.!.L.v.v.t.e.` ` y u , , 7.7.7.7.7.7.7.7.7.7.7.7.7.7.7.7.",
"7.7.7.7.7.7.7.7.= = i i 7 7 G Z ....y.y.l.l.l.l.b.b.H.G.D.D.I.I.I.I.L.L.L.!.v.m.t.s.` ` y u , , 7.7.7.7.7.7.7.7.7.7.7.7.7.7.7.7.",
"7.7.7.7.7.7.t j E E :.:.].].5.5.T R R T ` | r.r.D.b.D.I.I.I.I.I.H.H.D.D.j.j.( ..T R $.$.L L @ # 7.7.7.7.7.7.7.7.7.7.7.7.7.7.7.7.",
"7.7.7.l l l e t E E :.:.'.'.5.w.R T T R | | r.r.b.b.H.H.I.H.I.I.D.H.b.D.6.6.| | T R $.$.~ L X X 7.7.7.7.7.7.7.7.7.7.7.7.7.7.7.7.",
"7.7.7.l X X u y ` ` i.i.+X+Xu.u.o.o.{ { P P R R ..' #.#.<.<.<.%...$.....I } I J I ]  . .F U # X 7.7.7.7.7.7.7.7.7.7.7.7.7.7.7.7.",
"7.7.7.7.. X y y ` ` i.i.+X+Xu.u.o.o.{ { P P / / ' ' <.#.<.<.%.%.%.$... .} } I } I T  . .L L X . 7.7.7.7.7.7.7.7.7.7.7.7.7.7.7.7.",
"7.7.7.7.@ # q 8 ^ ( &.&.X.X.+.+.@.@.O.O.{ ] U J B B B B C C Z Z Z Z Z Z H H Y Y G H C C 6 6 s h 7.7.7.7.7.7.7.7.7.7.7.7.7.7.7.7.",
"7.7.7.7.@ @ 6 8 ( ( &.&.X.X.+.O.@.@.O.O.{ ] J J B B B B C G Z C Z Z Z Z H H Y Y H H C G 6 6 s s l l l l l l l l l l l l 7.7.7.7.",
"7.7.7.7.@ + 4 > K D U L T T { { [ [ [ [ ] ] I Y V V u B S S F F A A F F S S p p * * # % h h l l l l l l l l l l l l l l 7.7.7.7.",
"7.7.7.7.@ + 3 3 z z L L T T { ] [ [ [ [ ] ] T T V V B u S S F F A A F F S a p p * * # # h h l l l l l l l l l l l l 7.7.7.7.7.7.",
"7.7.7.7.l l < < % % 6 1 C C H Y T }  . .} } ~ ~ 8 8 & & & 1 1 1 1 & & & % % X X l l l l l l l l l l l l l l l 7.7.7.7.7.7.7.7.7.",
"7.7.7.7.l l s s * & 1 1 A A U U T } {  .} } ~ ~ 8 8 & & & & = 1 & 1 & & % % X . l l l l l l l l l l l l l 7.7.7.7.7.7.7.7.7.7.7.",
"7.7.7.7.l l l 7.7.7.7.7.* = 2 2 q q q q 5 0 4 4 7.7.7.7.7.7.7.7.l l l l l l l l l l l l l l l l l l 7.7.7.7.7.7.7.7.7.7.7.7.7.7.",
"7.7.7.7.7.7.7.7.7.7.7.7.* = 2 2 q q q q 0 0 4 4 7.7.7.7.7.7.7.7.l l l l l l l l l l l l l l l l l l 7.7.7.7.7.7.7.7.7.7.7.7.7.7.",
"7.7.7.7.7.7.7.7.7.7.7.7.7.7.7.7.7.7.7.7.7.7.7.7.7.7.7.7.7.7.7.l l l l l l l l l l l l l l l l l l l l 7.7.7.7.7.7.7.7.7.7.7.7.7.",
"7.7.7.7.7.7.7.7.7.7.7.7.7.7.7.7.7.7.7.7.7.7.7.7.7.7.7.7.7.7.l l l l l l l l l l l l l l l l l l l l l 7.7.7.7.7.7.7.7.7.7.7.7.7.",
"7.7.7.7.7.7.7.7.7.7.7.7.7.7.7.7.7.7.7.7.7.7.7.7.7.7.7.7.7.7.l l l l l l l l l 7.7.l l l l l l l l l l l 7.7.7.7.7.7.7.7.7.7.7.7.",
"7.7.7.7.7.7.7.7.7.7.7.7.7.7.7.7.7.7.7.7.7.7.7.7.7.7.7.7.7.l l l l l l l 7.7.7.7.7.7.7.l l l l l l l l l 7.7.7.7.7.7.7.7.7.7.7.7.",
"7.7.7.7.7.7.7.7.7.7.7.7.7.7.7.7.7.7.7.7.7.7.7.7.7.7.7.7.l l l l l l 7.7.7.7.7.7.7.7.7.7.7.l l l l l l l l 7.7.7.7.7.7.7.7.7.7.7.",
"7.7.7.7.7.7.7.7.7.7.7.7.7.7.7.7.7.7.7.7.7.7.7.7.7.7.7.7.l l l 7.7.7.7.7.7.7.7.7.7.7.7.7.7.7.7.l l l l l l 7.7.7.7.7.7.7.7.7.7.7.",
"7.7.7.7.7.7.7.7.7.7.7.7.7.7.7.7.7.7.7.7.7.7.7.7.7.7.7.7.l l 7.7.7.7.7.7.7.7.7.7.7.7.7.7.7.7.7.7.7.l l l l 7.7.7.7.7.7.7.7.7.7.7.",
"7.7.7.7.7.7.7.7.7.7.7.7.7.7.7.7.7.7.7.7.7.7.7.7.7.7.7.7.7.7.7.7.7.7.7.7.7.7.7.7.7.7.7.7.7.7.7.7.7.7.7.7.7.7.7.7.7.7.7.7.7.7.7.7.",
"7.7.7.7.7.7.7.7.7.7.7.7.7.7.7.7.7.7.7.7.7.7.7.7.7.7.7.7.7.7.7.7.7.7.7.7.7.7.7.7.7.7.7.7.7.7.7.7.7.7.7.7.7.7.7.7.7.7.7.7.7.7.7.7.",
"7.7.7.7.7.7.7.7.7.7.7.7.7.7.7.7.7.7.7.7.7.7.7.7.7.7.7.7.7.7.7.7.7.7.7.7.7.7.7.7.7.7.7.7.7.7.7.7.7.7.7.7.7.7.7.7.7.7.7.7.7.7.7.7.",
"7.7.7.7.7.7.7.7.7.7.7.7.7.7.7.7.7.7.7.7.7.7.7.7.7.7.7.7.7.7.7.7.7.7.7.7.7.7.7.7.7.7.7.7.7.7.7.7.7.7.7.7.7.7.7.7.7.7.7.7.7.7.7.7.",
"7.7.7.7.7.7.7.7.7.7.7.7.7.7.7.7.7.7.7.7.7.7.7.7.7.7.7.7.7.7.7.7.7.7.7.7.7.7.7.7.7.7.7.7.7.7.7.7.7.7.7.7.7.7.7.7.7.7.7.7.7.7.7.7."
};
