/* XPM */
static char *result[] = {
/* columns rows colors chars-per-pixel */
"64 64 189 2 ",
"   c #130202",
".  c #1D0000",
"X  c #1D0B0B",
"o  c #2B0002",
"O  c #270008",
"+  c #2B000B",
"@  c #250B0B",
"#  c #290809",
"$  c #360006",
"%  c #33010D",
"&  c #3B000B",
"*  c #3A050A",
"=  c #2C0311",
"-  c #340313",
";  c #3C0A16",
":  c #310019",
">  c #3E0018",
",  c #371417",
"<  c #3B0921",
"1  c #3A2B2B",
"2  c #450317",
"3  c #460917",
"4  c #55021B",
"5  c #5B011C",
"6  c #5B0819",
"7  c #4C111C",
"8  c #620E18",
"9  c #7D0014",
"0  c #4D0A20",
"q  c #5D0020",
"w  c #5F0C26",
"e  c #491C24",
"r  c #471829",
"t  c #551B23",
"y  c #5C1E33",
"u  c #600924",
"i  c #6F092A",
"p  c #700B2D",
"a  c #6F1932",
"s  c #751D36",
"d  c #522232",
"f  c #65272E",
"g  c #6A2639",
"h  c #7E223F",
"j  c #736122",
"k  c #5D2A42",
"l  c #6E2E4F",
"z  c #7D2943",
"x  c #65314C",
"c  c #733449",
"v  c #850020",
"b  c #930024",
"n  c #840630",
"m  c #96093A",
"M  c #8F163C",
"N  c #821A3B",
"B  c #98143E",
"V  c #A50034",
"C  c #981F46",
"Z  c #B80845",
"A  c #A41D48",
"S  c #B2164D",
"D  c #B51A4B",
"F  c #832743",
"G  c #8E294C",
"H  c #9C244B",
"J  c #923753",
"K  c #AB2948",
"L  c #AD2A56",
"P  c #B52656",
"I  c #A13B50",
"U  c #B73559",
"Y  c #B32F67",
"T  c #B73D7B",
"R  c #CE0C54",
"E  c #C71E5B",
"W  c #D41859",
"Q  c #C02053",
"!  c #D1205E",
"~  c #D71A64",
"^  c #F51D6B",
"/  c #F71E73",
"(  c #FC1C74",
")  c #C92861",
"_  c #D32263",
"`  c #CD3D69",
"'  c #D2326D",
"]  c #C22D78",
"[  c #E72D6E",
"{  c #EC2871",
"}  c #F62876",
"|  c #8A415F",
" . c #A2475D",
".. c #854264",
"X. c #A54E69",
"o. c #B14B67",
"O. c #A15868",
"+. c #B8586E",
"@. c #A84E77",
"#. c #BB5C7F",
"$. c #B8627D",
"%. c #C7416E",
"&. c #C24B71",
"*. c #D54575",
"=. c #DF557C",
"-. c #E64076",
";. c #E6C03E",
":. c #B85687",
">. c #B5718E",
",. c #D64D87",
"<. c #CD5D80",
"1. c #DE5485",
"2. c #C45C94",
"3. c #FF4C8F",
"4. c #E55485",
"5. c #E95F92",
"6. c #CC6483",
"7. c #CB6A8E",
"8. c #D66C8E",
"9. c #CD7986",
"0. c #C86A98",
"q. c #DB6F93",
"w. c #CC789A",
"e. c #D2779E",
"r. c #E9628A",
"t. c #E36292",
"y. c #E96C95",
"u. c #F16192",
"i. c #F46D93",
"p. c #EF7099",
"a. c #E9769C",
"s. c #CA68A0",
"d. c #D36FA3",
"f. c #D676A7",
"g. c #E66DA5",
"h. c #EC6BAC",
"j. c #EE76AE",
"k. c #F779A5",
"l. c #FA78A5",
"z. c #FF7EAF",
"x. c #E876B1",
"c. c #F077B0",
"v. c #F67CB5",
"b. c #FB7FB3",
"n. c #F37CB9",
"m. c #FF79BF",
"M. c #D9849A",
"N. c #D888A7",
"B. c #DF86B1",
"V. c #D694B5",
"C. c #D696BC",
"Z. c #E384AA",
"A. c #E58AAB",
"S. c #FF82AC",
"D. c #F08DAF",
"F. c #E593A3",
"G. c #FB83B3",
"H. c #FC8AB4",
"J. c #F582B9",
"K. c #FE8BB9",
"L. c #E891BA",
"P. c #F594BD",
"I. c #FA94BD",
"U. c #FD88C3",
"Y. c #FF8CCC",
"T. c #EB93C3",
"R. c #FF95C3",
"E. c #F39DC6",
"W. c #FC9CC4",
"Q. c #FF93CB",
"!. c #F59ACB",
"~. c #FF9BCD",
"^. c #FF96D7",
"/. c #F49FD5",
"(. c #FF9CD4",
"). c #FE9EDC",
"_. c #E9A2CF",
"`. c #F9A1CC",
"'. c #FEA2D3",
"]. c #FEA3DD",
"[. c #FBA8D8",
"{. c #FFB1DE",
"}. c #FFA3E1",
"|. c #FFAAE1",
" X c #FEB3E5",
".X c #FFB6EA",
"XX c #FFC7FA",
"oX c #FFDDFC",
"OX c #FFE0FF",
/* pixels */
";.;.;.;.;.;.;.;.;.;.;.;.;.;.;.;.;.;.;.;.;.;.;.;.;.;.;.;.;.;.;.;.;.;.;.;.;.;.;.;.;.;.;.;.;.;.;.;.;.;.;.;.;.;.;.;.;.;.;.;.;.;.;.;.",
";.;.;.;.;.;.;.;.;.;.;.;.;.;.;.;.;.;.;.;.;.;.;.;.;.;.;.;.;.;.;.;.;.;.;.;.;.;.;.;.;.;.;.;.;.;.;.;.;.;.;.;.;.;.;.;.;.;.;.;.;.;.;.;.",
";.;.;.;.;.;.;.;.;.;.;.;.;.;.;.;.;.;.;.;.;.;.;.;.;.;.;.;.;.;.;.;.;.;.;.;.;.;.;.;.;.;.;.;.;.;.;.;.;.;.;.;.;.;.;.;.;.;.;.;.;.;.;.;.",
";.;.;.;.;.;.;.;.;.;.;.;.;.;.;.;.;.;.;.;.;.;.;.;.;.;.;.;.;.;.;.;.;.;.;.;.;.;.;.;.;.;.;.;.;.;.;.;.;.;.;.;.;.;.;.;.;.;.;.;.;.;.;.;.",
";.;.;.;.;.;.;.;.;.;.;.;.;.;.;.;.;.;.;.;.;.;.;.;.;.;.;.;.;.;.;.;.;.;.;.;.;.;.;.;.;.;.;.;.;.;.;.;.;.;.;.;.;.;.;.;.;.;.;.;.;.;.;.;.",
";.;.;.;.;.;.;.;.;.;.;.;.;.;.;.;.;.;.;.;.j j ;.;.;.;.;.;.;.;.;.;.;.;.;.;.;.;.;.;.;.;.;.;.;.;.;.;.;.;.;.;.;.;.;.;.;.;.;.;.;.;.;.;.",
";.;.;.;.;.;.;.;.;.;.;.;.;.;.;.;.;.;.;.;.j j ;.;.;.;.;.;.;.;.;.;.;.;.;.;.;.;.;.;.;.;.;.;.;.;.;.;.;.;.;.;.;.;.;.;.;.;.;.;.;.;.;.;.",
";.;.;.;.;.;.;.;.;.;.;.;.;.;.;.;.;.;.;.j j j j ;.;.;.;.;.;.;.;.;.;.;.;.;.;.;.;.;.;.;.;.;.;.;.;.;.;.;.;.;.j j ;.;.;.;.;.;.;.;.;.;.",
";.;.;.;.;.;.;.;.;.;.;.;.;.;.;.;.;.;.;.j j j j ;.;.;.;.;.;.;.;.;.;.;.;.;.;.;.;.;.;.;.;.;.;.;.;.;.;.;.;.j j j ;.;.;.;.;.;.;.;.;.;.",
";.;.;.;.;.;.;.;.;.;.;.;.;.;.;.;.;.;.j j j j j j ;.;.;.;.;.;.;.;.;.;.;.;.;.;.;.;.;.;.;.;.;.;.;.;.;.;.;.j j j ;.;.;.;.;.;.;.;.;.;.",
";.;.;.;.;.;.;.;.;.;.;.;.;.;.;.;.;.;.j j , , @ + X = = = = = = = - - = = o . ;.;.;.;.;.;.;.;.;.;.;.;.j j j j ;.;.;.;.;.;.;.;.;.;.",
";.;.;.;.;.;.;.;.;.;.;.;.;.;.;.;.;.j j j , , + + = O = = = = = = : : = = . O ;.;.;.;.;.;.;.;.;.;.;.;.j j j j ;.;.;.;.;.;.;.;.;.;.",
";.;.;.;.;.;.;.;.;.;.;.;.;.;.;.;.X X , @ a d | | >.>.C.C.V.V.V.V.N.V.>.>.c c ; , X @ ;.;.;.;.;.;.;.j j j j j j ;.;.;.;.;.;.;.;.;.",
";.;.;.;.;.;.;.;.;.;.;.;.;.;.;.;.X X @ , d y | | >.>.C.C.V.C.V.V.N.N.>.>.c c , , @ @ j j j j j j j j j j j j j j j j j j j ;.;.;.",
";.;.;.;.;.;.;.;.;.;.;.;.;.;.e e a a G G e.e.T.T.[./.[.|.|.|.|. X X X_.W.D.L.M.w.X.X.2 2 j j j j j j j j j j j j j j j j j ;.;.;.",
";.;.;.;.;.;.j j j j j j j j e e a a G G d.0.T.T./.`.|.|.|.}. X X X X`.`.L.L.M.M.X.X.2 4 j j j j j j j j j j j j j j j j ;.;.;.;.",
";.;.;.;.;.;.j j j j j j 3 ; z z 8.8.c.D.(.(.].}.).).}.).}.}.s.s.:.:.I.I.{.{.Z.Z.9.=. . .3 3 j j j j j j j j j j j j ;.;.;.;.;.;.",
";.;.;.;.;.;.;.j j j j j r ; z z 8.7.k.D.(.(.}.}.).}.).}.}.}.s.s.:.<.W.I.{.{.x.Z.6.8. . .3 2 j j j j j j j j j j ;.;.;.;.;.;.;.;.",
";.;.;.;.;.;.;.;.;.j     s s q.q.P.K.'.'.(.(.].).).).}.}.).}.s.0.J J +.o.W.W.#.#.I I +.+.O.O.+ + j j j j j j j j j ;.;.;.;.;.;.;.",
";.;.;.;.;.;.;.;.;.;.    s s q.q.I.P.`.'.(.(.).).).).).).}.).0.0.J J O.+.W.W.#.#.I I +.+.O.O.% + j j j j j j j j j ;.;.;.;.;.;.;.",
";.;.;.;.;.;.;.;.;.;.@ @ G G k.G.'.[.`.[.'.'.).].}.}.).}.!.E.OXOXF.F.8 6 A.A.oXoX9.9.8 8 M.M.7 0 j j ;.;.j j j j j j ;.;.;.;.;.;.",
";.;.;.;.;.;.;.;.;.;.@ @ G G G.G.'.[.[.`.'.].).)./.}.}.).!.E.OXOXF.F.6 6 A.D.oXoX9.9.8 8 M.M.7 3 ;.;.;.;.;.;.j j j j ;.;.;.;.;.;.",
";.;.;.;.;.;.;.;.1 1 ; 3 @.@.Q.Q.'.[.[./.).'.)./.].}.].|.(.`.Z.N.f f 2 $ D.D.N.a.t t 7 7 `.W.@.@.e < ;.;.;.;.;.;.j j ;.;.;.;.;.;.",
";.;.;.;.;.;.;.;.1 1 ; 3 @.@.Q.Q.'.]./.[.'./.).).}.].}.].'.'.Z.N.f f $ 2 D.D.e.M.t t 7 7 P._.@.@.1 r ;.;.;.;.;.;.;.;.;.;.;.;.;.;.",
";.;.;.;.;.;.;.;..   y y f.w.).).'.].].[.).).).).).).}.}.|.|.0.7.3 3 $ * I.I.7.7.% - r r {.{.f.x.< < ;.;.;.;.;.;.;.;.;.;.;.;.;.;.",
";.;.;.;.;.;.;.;.. . y y f.f.).'.].'.].].}.}.).).).}.).}.}.}.7.8.3 3 * * I.I.7.7.% : 7 r |.|.f.f.< < ;.;.;.;.;.;.;.;.;.;.;.;.;.;.",
";.;.;.;.;.;.;.;.: , J ..!.!.}.].(.(.).].}.}.}.}.^.^.Y.Y.m.m.c.c.f g # . E.E.C.L.r y - % n.n.x.x.k k ;.;.;.;.;.;.;.;.;.;.;.;.;.;.",
";.;.;.;.;.;.;.;.- = J | !.!.].].~.(.].).}.}.}.}.^.^.Y.U.m.m.c.c.g g . o E.`.L.L.r d + = n.n.x.x.k k ;.;.;.;.;.;.;.;.;.;.;.;.;.;.",
";.;.;.;.;.;.;.;.- + w.w.(.`.).(.Y.Q.^.(.).).}.}.Y.Y.h.h.T ] h.h.....: : T.T.[.`.l l > > T T J.J.x x ;.;.;.;.;.;.;.;.;.;.;.;.;.;.",
";.;.;.;.;.;.;.;.- % w.w.'.'.(.).Q.Q.(.(.).^.}.}.Y.^.h.h.] ] h.h.....: : T.T./.[.l l > > T @.x.n.x x ;.;.;.;.;.;.;.;.;.;.;.;.;.;.",
";.;.;.;.;.;.;.;.% % w.w.~.~.J.J.c.v.~.(.(.'.).^.^.^.m.U.,.,.h.n._._.C.C.).).}.}.`.`.B.B.^.Q.L.P.k k ;.;.;.;.;.;.;.;.;.;.;.;.;.;.",
";.;.;.;.;.;.;.;.- - w.w.~.R.J.K.v.J.~.~.).(.(.).^.^.U.m.,.,.n.h._._.C.C.(.].}.|.'.!.B.B.Q.~.P.P.k k ;.;.;.;.;.;.;.;.;.;.;.;.;.;.",
";.;.;.;.;.;.;.;.- , $.$.H.H.t.t.t.t.W.W.(.~.~.~.Y.Y.v.v.Y Y j.j..X.X X X}. X2.2.d.d..X.X`.~.Z.Z.d d ;.;.;.;.;.;.;.;.;.;.;.;.;.;.",
";.;.;.;.;.;.;.;.- = $.$.G.J.t.t.8.t.W.I.~.~.(.`.^.Y.v.c.Y Y j.j..X.X.X.X}.}.2.2.d.d. X X~.~.Z.B.d d ;.;.;.;.;.;.;.;.;.;.;.;.;.;.",
";.;.;.;.;.;.;.;.o o  . .k.k.4.1.*.*.S.S.K.H.K.K.z.z.5.5.L Y g.g.}.|./._.}.}.:.:.2.2.~.'.S.S.6.6.e e ;.;.;.;.;.;.;.;.;.;.;.;.;.;.",
";.;.;.;.;.;.;.;.o o  . .k.a.=.8.=.*.S.S.H.K.K.H.z.z.5.5.Y P g.g.|.}././.}./.:.:.7.2.'.(.S.S.6.<.7 7 ;.;.;.;.;.;.;.;.;.;.;.;.;.;.",
";.;.;.;.;.;.;.;., , f g 8.8.r.r.=.=.i.i.S.=.F.y.5.r.` ` ,.=.v.v.].|.)./././.|.|.'.'.G.G.p.p.o.o., # ;.;.;.;.;.;.;.;.;.;.;.;.;.;.",
";.;.;.;.;.;.;.;., , f s 8.8.r.r.=.=.i.i.=.M.i.i.4.r.` ` ,.,.v.v.|.].(.'./.).[.{.`.'.H.H.p.k.o.o.; * ;.;.;.;.;.;.;.;.;.;.;.;.;.;.",
";.;.;.;.;.;.;.;.;.j # # J J a.k.i.i.=.=. .Q K K K K P P y.u.K.K.R.R.Q.K.I.K.R.W.G.H.q.a.=.6.F c # O ;.;.;.;.;.;.;.;.;.;.;.;.;.;.",
";.;.;.;.;.;.;.;.;.j @ @ | J a.a.i.i.=.=.Q  .K K K K Q K u.5.K.K.Q.Q.K.R.K.K.I.R.H.H.a.q.<.<.F F o O ;.;.;.;.;.;.;.;.;.;.;.;.;.;.",
";.;.;.;.;.;.;.;.j j X X u u H H M B A B b v v 9 b b D D =.4.z.l.G.G.b.z.l.z.z.S.l.l.%.&.F h & - ;.;.;.;.;.;.;.;.;.;.;.;.;.;.;.;.",
";.;.;.j j j j j j j X X w w H H B B A A v v 9 9 b b D D 4.4.l.l.b.b.b.z.l.l.S.G.l.l.&.&.s z & & ;.;.;.;.;.;.;.;.;.;.;.;.;.;.;.;.",
";.;.;.j j j j j j j @ @ u 8 n n K H k.l.D P V V D R _ _ Q E ' ' ` *.1.1.u.u.*.-.-.-.U U 2 3 ;.;.;.;.;.;.;.;.;.;.;.;.;.;.;.;.;.;.",
";.;.;.;.j j j j j j @ @ u 5 n n H H k.l.P D V V Z Z ! _ ! E ' ' ,.' 1.1.u.u.*.' -.[ ` Q 3 2 ;.;.;.;.;.;.;.;.;.;.;.;.;.;.;.;.;.;.",
";.;.;.;.;.;.j j j j X . p p Y L t.t.XXXX3.3.W W } -.} { R R V Z m m A A %.%.V m P Q L K + o j ;.;.;.;.;.;.;.;.;.;.;.;.;.;.;.;.;.",
";.;.;.;.;.;.j j j j . . p i L L r.5.XXXX3.3.~ ~ } } { { R R Z Z m m C C %.%.m m Q Q L L o o j j j j j j j j j j j j j j ;.;.;.;.",
";.;.;.;.;.j j j j j     w w C C D D [ [ / ( ( ( / / / / ^ ^ W W m m i i F F N N H C s N . . j j j j j j j j j j j j j j ;.;.;.;.",
";.;.;.;.;.j j j j j     q w K C D D [ [ / ( ( ( / / / / ^ ^ W ! m m i i F F N N H C N N . o j j j j j j j j j j j j ;.;.;.;.;.;.",
";.;.;.;.j j j j j j j ;.e e 6 6 M M S S ~ ~ ~ ~ _ _ ) _ _ _ ) ) i i $ $ $ $ $ $ 2 $ 3 , j j j j j j j j j j j ;.;.;.;.;.;.;.;.;.",
";.;.;.;.j j j j j ;.;.;.e e 6 4 M B S S _ _ ~ ~ _ _ ) _ _ _ U ) i i $ $ $ $ $ $ 2 2 , ; j j j j j j j j j ;.;.;.;.;.;.;.;.;.;.;.",
";.;.;.;.j j j ;.;.;.;.;.;.;.;.j - - 2 2 q q q q 0 q q q 4 4 4 4 e e j j j j j j j j j j j j j j j j ;.;.;.;.;.;.;.;.;.;.;.;.;.;.",
";.;.;.;.;.;.;.;.;.;.;.;.;.;.;.;.& > 2 2 q q q q q q q 0 4 4 4 4 e e j j j j j j j j j j j j j j j j ;.;.;.;.;.;.;.;.;.;.;.;.;.;.",
";.;.;.;.;.;.;.;.;.;.;.;.;.;.;.;.;.;.;.;.;.;.;.;.;.;.;.;.;.;.;.j j j j j j j j j j j j j j j j j j j j ;.;.;.;.;.;.;.;.;.;.;.;.;.",
";.;.;.;.;.;.;.;.;.;.;.;.;.;.;.;.;.;.;.;.;.;.;.;.;.;.;.;.;.;.j j j j j j j j j j j j j j j j j j j j j ;.;.;.;.;.;.;.;.;.;.;.;.;.",
";.;.;.;.;.;.;.;.;.;.;.;.;.;.;.;.;.;.;.;.;.;.;.;.;.;.;.;.;.;.j j j j j j j j j ;.;.j j j j j j j j j j j ;.;.;.;.;.;.;.;.;.;.;.;.",
";.;.;.;.;.;.;.;.;.;.;.;.;.;.;.;.;.;.;.;.;.;.;.;.;.;.;.;.;.j j j j j j j ;.;.;.;.;.;.;.j j j j j j j j j ;.;.;.;.;.;.;.;.;.;.;.;.",
";.;.;.;.;.;.;.;.;.;.;.;.;.;.;.;.;.;.;.;.;.;.;.;.;.;.;.;.j j j j j j ;.;.;.;.;.;.;.;.;.;.;.j j j j j j j j ;.;.;.;.;.;.;.;.;.;.;.",
";.;.;.;.;.;.;.;.;.;.;.;.;.;.;.;.;.;.;.;.;.;.;.;.;.;.;.;.j j j ;.;.;.;.;.;.;.;.;.;.;.;.;.;.;.;.j j j j j j ;.;.;.;.;.;.;.;.;.;.;.",
";.;.;.;.;.;.;.;.;.;.;.;.;.;.;.;.;.;.;.;.;.;.;.;.;.;.;.;.j j ;.;.;.;.;.;.;.;.;.;.;.;.;.;.;.;.;.;.;.j j j j ;.;.;.;.;.;.;.;.;.;.;.",
";.;.;.;.;.;.;.;.;.;.;.;.;.;.;.;.;.;.;.;.;.;.;.;.;.;.;.;.;.;.;.;.;.;.;.;.;.;.;.;.;.;.;.;.;.;.;.;.;.;.;.;.;.;.;.;.;.;.;.;.;.;.;.;.",
";.;.;.;.;.;.;.;.;.;.;.;.;.;.;.;.;.;.;.;.;.;.;.;.;.;.;.;.;.;.;.;.;.;.;.;.;.;.;.;.;.;.;.;.;.;.;.;.;.;.;.;.;.;.;.;.;.;.;.;.;.;.;.;.",
";.;.;.;.;.;.;.;.;.;.;.;.;.;.;.;.;.;.;.;.;.;.;.;.;.;.;.;.;.;.;.;.;.;.;.;.;.;.;.;.;.;.;.;.;.;.;.;.;.;.;.;.;.;.;.;.;.;.;.;.;.;.;.;.",
";.;.;.;.;.;.;.;.;.;.;.;.;.;.;.;.;.;.;.;.;.;.;.;.;.;.;.;.;.;.;.;.;.;.;.;.;.;.;.;.;.;.;.;.;.;.;.;.;.;.;.;.;.;.;.;.;.;.;.;.;.;.;.;.",
";.;.;.;.;.;.;.;.;.;.;.;.;.;.;.;.;.;.;.;.;.;.;.;.;.;.;.;.;.;.;.;.;.;.;.;.;.;.;.;.;.;.;.;.;.;.;.;.;.;.;.;.;.;.;.;.;.;.;.;.;.;.;.;."
};
