/* XPM */
static char *result[] = {
/* columns rows colors chars-per-pixel */
"64 64 196 2 ",
"   c #0C0202",
".  c #130002",
"X  c #1B0002",
"o  c #1A050A",
"O  c #240103",
"+  c #2C0006",
"@  c #24060A",
"#  c #29010C",
"$  c #33010C",
"%  c #3C040E",
"&  c #250514",
"*  c #350219",
"=  c #3D051C",
"-  c #231218",
";  c #22191A",
":  c #29191A",
">  c #381717",
",  c #3C0125",
"<  c #331B23",
"1  c #372B2C",
"2  c #42030F",
"3  c #4A0013",
"4  c #460B19",
"5  c #530219",
"6  c #431A1D",
"7  c #6B071E",
"8  c #5F0825",
"9  c #43182B",
"0  c #53162C",
"q  c #551D2A",
"w  c #430D34",
"e  c #4F1831",
"r  c #5D1B36",
"t  c #6C0C2C",
"y  c #7C0529",
"u  c #6E162F",
"i  c #7A0C35",
"p  c #641B33",
"a  c #48292A",
"s  c #57242D",
"d  c #572538",
"f  c #6F202E",
"g  c #63273D",
"h  c #736122",
"j  c #5F2644",
"k  c #6D2844",
"l  c #742D41",
"z  c #673A49",
"x  c #7D344F",
"c  c #633A53",
"v  c #713751",
"b  c #4D4141",
"n  c #595456",
"m  c #76425E",
"M  c #870524",
"N  c #820735",
"B  c #950535",
"V  c #9A0437",
"C  c #93073A",
"Z  c #A70E31",
"A  c #A1113D",
"S  c #9D0644",
"D  c #BA1240",
"F  c #862646",
"G  c #8E2A57",
"H  c #942852",
"J  c #883655",
"K  c #953A5A",
"L  c #AA254E",
"P  c #AB2D51",
"I  c #B72256",
"U  c #8F2D60",
"Y  c #8A3F64",
"T  c #993762",
"R  c #A52B62",
"E  c #B23561",
"W  c #B43965",
"Q  c #C4084A",
"!  c #D70F57",
"~  c #C31552",
"^  c #D8175C",
"/  c #CD205C",
"(  c #C83C5E",
")  c #CF1E63",
"_  c #DA1662",
"`  c #E61B6F",
"'  c #F31F79",
"]  c #CC2C62",
"[  c #D62E6B",
"{  c #C93B68",
"}  c #DF3C6E",
"|  c #C62874",
" . c #D52B70",
".. c #D33279",
"X. c #E12065",
"o. c #E5236E",
"O. c #E52075",
"+. c #EB2670",
"@. c #EA227B",
"#. c #F4227D",
"$. c #E7377D",
"%. c #85435C",
"&. c #8A4661",
"*. c #954567",
"=. c #9E5671",
"-. c #BE4169",
";. c #A04F71",
":. c #A75776",
">. c #B95174",
",. c #9B6078",
"<. c #D84877",
"1. c #E6C03E",
"2. c #F11D80",
"3. c #D43B81",
"4. c #E93286",
"5. c #A85885",
"6. c #B75C85",
"7. c #A36981",
"8. c #B06A8D",
"9. c #B86C98",
"0. c #B4719A",
"q. c #D75682",
"w. c #C75D9C",
"e. c #EF4B8E",
"r. c #E45D8D",
"t. c #FF4694",
"y. c #EA589A",
"u. c #FC589D",
"i. c #DD638A",
"p. c #CC6C92",
"a. c #DE6E9F",
"s. c #C07298",
"d. c #D87A9A",
"f. c #EC608D",
"g. c #E66699",
"h. c #F36697",
"j. c #E2709F",
"k. c #ED5FAA",
"l. c #D17EA7",
"z. c #DF6EB0",
"x. c #EA66A3",
"c. c #EC6EA2",
"v. c #F96DA8",
"b. c #EA71A3",
"n. c #E975AA",
"m. c #F471A4",
"M. c #F77EA7",
"N. c #F074AC",
"B. c #F27CAC",
"V. c #EC7AB1",
"C. c #FF76BF",
"Z. c #FF77C2",
"A. c #D18DAE",
"S. c #DF8CB2",
"D. c #E58CAC",
"F. c #E989B5",
"G. c #F688B7",
"H. c #F58CBE",
"J. c #EB91BF",
"K. c #F994BB",
"L. c #F48DC3",
"P. c #FB8DC6",
"I. c #FC8EC8",
"U. c #EC94C4",
"Y. c #E698C2",
"T. c #FC94C4",
"R. c #F798C6",
"E. c #FE95CC",
"W. c #FE9DCC",
"Q. c #FF8DD0",
"!. c #F796D5",
"~. c #FF92D3",
"^. c #F69CD5",
"/. c #FE9DD4",
"(. c #FE9EDC",
"). c #F9A2CB",
"_. c #F5A5D3",
"`. c #FCA1D6",
"'. c #FCAAD4",
"]. c #F6A1DB",
"[. c #FEA3DB",
"{. c #F7A9D8",
"}. c #FEABDD",
"|. c #FDB2D9",
" X c #FFBCDB",
".X c #F79CE0",
"XX c #FFA3E2",
"oX c #FBA8E6",
"OX c #FEACE4",
"+X c #FFADE9",
"@X c #FFB2E6",
"#X c #FFB3EE",
"$X c #FFBCE8",
"%X c #FFC4E2",
"&X c #FFC6EB",
"*X c #FFC2F9",
/* pixels */
"1.1.1.1.1.1.1.1.1.1.1.1.1.1.1.1.1.1.1.1.1.1.1.1.1.1.1.1.1.1.1.1.1.1.1.1.1.1.1.1.1.1.1.1.1.1.1.1.1.1.1.1.1.1.1.1.1.1.1.1.1.1.1.1.",
"1.1.1.1.1.1.1.1.1.1.1.1.1.1.1.1.1.1.1.1.1.1.1.1.1.1.1.1.1.1.1.1.1.1.1.1.1.1.1.1.1.1.1.1.1.1.1.1.1.1.1.1.1.1.1.1.1.1.1.1.1.1.1.1.",
"1.1.1.1.1.1.1.1.1.1.1.1.1.1.1.1.1.1.1.1.1.1.1.1.1.1.1.1.1.1.1.1.1.1.1.1.1.1.1.1.1.1.1.1.1.1.1.1.1.1.1.1.1.1.1.1.1.1.1.1.1.1.1.1.",
"1.1.1.1.1.1.1.1.1.1.1.1.1.1.1.1.1.1.1.1.1.1.1.1.1.1.1.1.1.1.1.1.1.1.1.1.1.1.1.1.1.1.1.1.1.1.1.1.1.1.1.1.1.1.1.1.1.1.1.1.1.1.1.1.",
"1.1.1.1.1.1.1.1.1.1.1.1.1.1.1.1.1.1.1.1.1.1.1.1.1.1.1.1.1.1.1.1.1.1.1.1.1.1.1.1.1.1.1.1.1.1.1.1.1.1.1.1.1.1.1.1.1.1.1.1.1.1.1.1.",
"1.1.1.1.1.1.1.1.1.1.1.1.1.1.1.1.1.1.1.1.h h 1.1.1.1.1.1.1.1.1.1.1.1.1.1.1.1.1.1.1.1.1.1.1.1.1.1.1.1.1.1.1.1.1.1.1.1.1.1.1.1.1.1.",
"1.1.1.1.1.1.1.1.1.1.1.1.1.1.1.1.1.1.1.1.h h 1.1.1.1.1.1.1.1.1.1.1.1.1.1.1.1.1.1.1.1.1.1.1.1.1.1.1.1.1.1.1.1.1.1.1.1.1.1.1.1.1.1.",
"1.1.1.1.1.1.1.1.1.1.1.1.1.1.1.1.1.1.1.h h h h 1.1.1.1.1.1.1.1.1.1.1.1.1.1.1.1.1.1.1.1.1.1.1.1.1.1.1.1.1.h h 1.1.1.1.1.1.1.1.1.1.",
"1.1.1.1.1.1.1.1.1.1.1.1.1.1.1.1.1.1.1.h h h h 1.1.1.1.1.1.1.1.1.1.1.1.1.1.1.1.1.1.1.1.1.1.1.1.1.1.1.1.h h h 1.1.1.1.1.1.1.1.1.1.",
"1.1.1.1.1.1.1.1.1.1.1.1.1.1.1.1.1.1.h h h h h h 1.1.1.1.1.1.1.1.1.1.1.1.1.1.1.1.1.1.1.1.1.1.1.1.1.1.1.h h h 1.1.1.1.1.1.1.1.1.1.",
"1.1.1.1.1.1.1.1.1.1.1.1.1.1.1.1.1.1.h h h h h h 1.1.    X O + + O O O X . o     1.1.1.1.1.1.1.1.1.1.h h h h 1.1.1.1.1.1.1.1.1.1.",
"1.1.1.1.1.1.1.1.1.1.1.1.1.1.1.1.1.h h h h h h h 1.1.    X X + $ O O X X . .     1.1.1.1.1.1.1.1.1.1.h h h h 1.1.1.1.1.1.1.1.1.1.",
"1.1.1.1.1.1.1.1.1.1.1.1.1.1.1.1.1.h h h ; ; : : @ - @ + k k &.&.=.=.%.%.d d X X : : ; - 1.1.1.1.1.h h h h h h 1.1.1.1.1.1.1.1.1.",
"1.1.1.1.1.1.1.1.1.1.1.1.1.1.1.1.h h h h ; ; : : @ @ # + k k &.&.=.=.%.%.d a X o : : ; ; h h h h h h h h h h h h h h h h h 1.1.1.",
"1.1.1.1.1.1.1.1.1.1.1.1.1.1.1.1.h h h h . X r d Y Y 5.5.S.S.J.J.J.J.J.J.A.l.*.*.x x = = .   n n h h h h h h h h h h h h h 1.1.1.",
"1.1.1.1.1.1.h h h h h h h h h h h h h h . . d r Y &.5.5.S.S.J.U.F.J.J.J.l.l.*.*.x x = =   . n n h h h h h h h h h h h h 1.1.1.1.",
"1.1.1.1.1.1.h h h h h h h h h h h h . . v v A.s.U.!.!.(.oXXX@X@XOX@X|.OXOXOXW./.D.K.,.s.g j . X h h h h h h h h h h 1.1.1.1.1.1.",
"1.1.1.1.1.1.1.h h h h h h h h h h h     v v s.A.L.!.!.~.OXoX@X+X|.OXOXOXOXOX/.E.K.D.A.>.g g X X h h h h h h h h 1.1.1.1.1.1.1.1.",
"1.1.1.1.1.1.1.1.1.h h h h h h h   o z z _._.OXOX.X.XXXXX(.(.L.L.L.L.W./.E.T.F.G.K.K.|.|.K.K.l l . . h h h h h h h 1.1.1.1.1.1.1.",
"1.1.1.1.1.1.1.1.1.1.1.h h h h h o . k c _._.OXOX.X.XXXXX(.(.P.L.L.L./.W.E.E.G.G.T.K.|. XK.).l l . o h h h h h h h 1.1.1.1.1.1.1.",
"1.1.1.1.1.1.1.1.1.1.1.1.1.h h h a j Y.A.{.`.XXXX.X.XoXoX(./.U U K T F.F.T.T.G G 6.6.T.T.).W.d.d.$ $ 1.1.h h h h h h 1.1.1.1.1.1.",
"1.1.1.1.1.1.1.1.1.1.1.1.h h h h z j A.S.`.{.XX.X.X.XoXoX^.[.U G T T F.G.T.K.G G 6.6.T.).W.).d.d.$ % 1.1.1.1.h h h h 1.1.1.1.1.1.",
"1.1.1.1.1.1.1.1.1.1.1.1.n n - - m m @X|.`.^./.(..XXX[.].{.{.&X&X;.;.J J  X|. X X*.*.:.:.@X@XR.W.&.K s s 1.1.1.1.h h 1.1.1.1.1.1.",
"1.1.1.1.1.1.1.1.1.1.1.h n n - - m m |.|.^._./.(.XXXX.X[.{.{.&X&X;.;.J J  X X X X&.&.>.;.@X@XW.E.&.K s s 1.1.1.1.1.1.1.1.1.1.1.1.",
"1.1.1.1.1.1.1.1.1.1.1.h   . 9 a 0.0.OX{.^._.[.[.(.(./.(.'.'.|.|.k k r r $X%X%X%X0 0 k k +X#X}.[.p.p.5 5 1.1.1.1.1.1.1.1.1.1.1.1.",
"1.1.1.1.1.1.1.1.1.1.h h .   9 9 0.0.{.OX^.^.(.[./.!.`./.'.'.'.|.k k r p %X$X%X%X0 0 k k #X#X}.XXp.p.5 5 1.1.1.1.1.1.1.1.1.1.1.1.",
"1.1.1.1.1.1.1.1.1.1.. . 4 , s.s.[.`.].].[.[./.(.^.^.@X@X/.W.T T % $ v v '.'.6.6.@ + m c *X*X].].S.F.g g 1.1.1.1.1.1.1.1.1.1.1.1.",
"1.1.1.1.1.1.1.1.1.h   . , , s.9.`.`.(.`.[.[././.^.!.@X@X).`.T K $ $ v v '.|.6.6.# # c m *X*X].].S.S.g g 1.1.1.1.1.1.1.1.1.1.1.1.",
"1.1.1.1.1.1.1.1.1.h # * :.=.R.R././.!.!.(.(.[.XX(.[./.(.E.I.a.a.% * j j |.OXU.J.* & c c #X#X.XoX^.`.%.%.. .   o 1.1.1.1.1.1.1.1.",
"1.1.1.1.1.1.1.1.1.h & & =.5.R.R./.^.!.!.!.(.}.}.(.(.~./.~.E.z.x.* * j j OX|.J.J.* & c c #X#X.X.X`.{.m &.  .     1.1.1.1.1.1.1.1.",
"1.1.1.1.1.1.1.1.< 1 0 e Y.Y..X}.(._.^.^.^.].oXXXk.k.| | 3.3.N.V.= = w w @X@XOX}., , , w w.w.Q.Q.`.`.Y.Y.,.,.+ + 1 1 1.1.1.1.1.1.",
"1.1.1.1.1.1.1.1.< < e e Y.Y.XXXX^./.^.^.].^.XXXXk.k.| | 3.3.N.N., 4 w w @X@X}.@X, , 4 , w.w.Q.Q.`.'.Y.Y.,.,.+ O 1 1 1.1.1.1.1.1.",
"1.1.1.1.1.1.1.1.9 6 0.A.[.[.[.[.[.[.}.[.[.[.XX[.Z.Z.e.k.u.k.I.I.9.9.0.0.oXoX{.oX8.8.5.5.z.z.~.~.!.E.R._.).).,.7.o o 1.1.1.1.1.1.",
"1.1.1.1.1.1.1.1.9 > A.A.'.'.(.[.[.[.XX}.[.[..XXXZ.Z.y.y.x.x.I.I.9.9.0.0.oXoXoX{.8.8.5.5.z.z.~.!.E.E.W.).).).,.7.o o 1.1.1.1.1.1.",
"1.1.1.1.1.1.1.1.v z %X$X[.}./.W.E./.I.T.(./.(./..XoX+X+XoXoX[.[.Q./.!.!.OXoXoXoXOX@X#X#XoX#X.X.XT.T.F.F.W.W.'.'.< < 1.1.1.1.1.1.",
"1.1.1.1.1.1.1.1.v v $X$X[.'./.~.~.W.I.I.(./.[.(.oXoX@X+XOXOX}.[.!.W.^.R.OXoX+XoX+X@X#X#XoXoX.X.XP.T.B.F.).).'.).< : 1.1.1.1.1.1.",
"1.1.1.1.1.1.1.1.0 e S.S.).).W.W.B.V.N.N.L.P.(.(.(.[._._.[.[.}.}.[..X.X(.[.[.6...(..X(..X(.[././.K.K.m.M.z.j.s.s.& & 1.1.1.1.1.1.",
"1.1.1.1.1.1.1.1.0 0 S.S.).).W.W.B.B.n.n.P.P././.[.[._.`.}.}.OX}.(.(.[.[.XX(.3.6.(.(..X(.(.(././.K.P.M.G.l.b.s.9.& - 1.1.1.1.1.1.",
"1.1.1.1.1.1.1.1.% % :.:.D.D.F.G.M.M.c.b.n.V.L.P.`.`.^.].].].(.(.(.(.(..X[..X!..X(..X(.(.XXXX`.`.r.r.q.q.>.>.p p   o 1.1.1.1.1.1.",
"1.1.1.1.1.1.1.1.% 2 :.:.D.D.K.K.B.M.j.j.n.n.E.P.`.[.].].(.(.XX(.(.(.[..X(.(.[..X(.(.(.(.}.XX`./.f.g.q.q.>.>.p p o   1.1.1.1.1.1.",
"1.1.1.1.1.1.1.1.h h % 2 p p F F -.-.h.g.m.m.B.V.L.U.(./.XXoX[.(.oXoXW.E.(.(.[.(.[.[.oXXX`./.G.G.{ { P P u u + + 1.1.1.1.1.1.1.1.",
"1.1.1.h h h h h h h 2 2 p p F F -.-.h.h.j.m.B.n.L.L./.(.XXOX(.[.OXOXW.~.(.(.(..X.X(.XXXX/.`.G.G.<.{ P P u u + + 1.1.1.1.1.1.1.1.",
"1.1.1.h h h h h h h h h + @ 5 5 A A } } h.h.j.h.N.V.H.G.H.H.T.T.U.R./.`.XXXXoXoX~.~.I.I.T.T.i.i.L L 7 7 6 6 1.1.1.1.1.1.1.1.1.1.",
"1.1.1.1.h h h h h h h h O + 5 5 A A } } h.h.c.c.V.V.F.G.H.H.T.T.R.R.`./..XoX.X.XE.Q.I.I.T.E.i.q.L L 7 7 6 6 1.1.1.1.1.1.1.1.1.1.",
"1.1.1.1.1.1.h h h h h h w 4 H L ] ] Q D $.$.h.u.v.h.x.x.j.j.j.z.F.F.H.H.P.P.P.P.V.V.j.g.r.r.<.<.L I y 7 b m 1.1.1.1.1.1.1.1.1.1.",
"1.1.1.1.1.1.h h h h h h 3 4 H H ] ] Q Q $.$.u.u.v.v.x.m.m.j.j.c.V.G.J.L.L.I.P.P.V.V.g.x.r.r.} <.I I y y z z h h h h h h 1.1.1.1.",
"1.1.1.1.1.h h h h h 4 , R R .X.XZ.Z._ ) @.@.+.@.$.4.e.e.v.v.c.c.c.x.b.b.N.N.c.j.M.M.<.<.~ ~ O.o.@.@.....H H > > h h h h 1.1.1.1.",
"1.1.1.1.1.h h h h h 4 4 R R .X(.C.C._ _ #.@.@.@.$.4.e.e.v.v.c.m.a.j.b.n.N.N.c.c.M.M.<.<.~ ~ o. .@.@.....G G > > h h 1.1.1.1.1.1.",
"1.1.1.1.h h h h s d i i ....h.u.t.t.` O.#.#.' #.^ _ _ ) h.r.H.G.G.K.G.G.m.m.f.f.( ( D D Q Q ' ' 2.2.4.4.E E 3 3 b b 1.1.1.1.1.1.",
"1.1.1.1.h h h h g b i i ....u.u.t.t.o.` #.#.' #._ ! ) ) f.f.H.G.K.G.G.G.m.m.f.f.( W D D Q Q ' ' 2.2.4.4.E E 3 3 b b 1.1.1.1.1.1.",
"1.1.1.1.h h h 1.2 3 ( E [ [ ^ _ _ X.X.X.o.o.+.+.! ! ^ / W W J K J J T E <.q.( { Z Z D D ! ^ ` ` O.O. . .P P f f X . 1.1.1.1.1.1.",
"1.1.1.1.1.1.1.1.3 3 E W [ [ ^ ^ [ _ X.X.o.o.+.+.! ! / / E E K J J F K T q.q.{ { Z Z D D ! ^ ` ` O.O. . .P P f f . . 1.1.1.1.1.1.",
"1.1.1.1.1.1.1.1.q q y i C C B B V V B B B B B V V V C C 8 8 a 1 a s a 6 t t N i y M M M V V S S S S N N 7 7 4 4 1 1 1.1.1.1.1.1.",
"1.1.1.1.1.1.1.1.q q u i C C B B B B B B B B B V V V C C 8 8 6 a a a 6 6 t t y M M y M M V B S S S N N N t 7 4 4 a 1 1.1.1.1.1.1.",
"1.1.1.1.1.1.1.1.1.1.. X X O O O O O O X X X X X + O O O @ o h h h h h h X . . X X O O O O O @ o   o X o   . . o 1.1.1.1.1.1.1.1.",
"1.1.1.1.1.1.1.1.1.1.X X O O O O O O X X X X X X + O O O @ ; h h h h h h . X . . O O O O X O O @ o X . X . . o   1.1.1.1.1.1.1.1.",
"1.1.1.1.1.1.1.1.1.1.1.1.1.1.1.1.1.1.1.1.1.1.1.1.1.1.1.1.h h h h h h 1.1.1.1.1.1.1.1.1.1.1.h h h h h h h h 1.1.1.1.1.1.1.1.1.1.1.",
"1.1.1.1.1.1.1.1.1.1.1.1.1.1.1.1.1.1.1.1.1.1.1.1.1.1.1.1.h h h 1.1.1.1.1.1.1.1.1.1.1.1.1.1.1.1.h h h h h h 1.1.1.1.1.1.1.1.1.1.1.",
"1.1.1.1.1.1.1.1.1.1.1.1.1.1.1.1.1.1.1.1.1.1.1.1.1.1.1.1.h h 1.1.1.1.1.1.1.1.1.1.1.1.1.1.1.1.1.1.1.h h h h 1.1.1.1.1.1.1.1.1.1.1.",
"1.1.1.1.1.1.1.1.1.1.1.1.1.1.1.1.1.1.1.1.1.1.1.1.1.1.1.1.1.1.1.1.1.1.1.1.1.1.1.1.1.1.1.1.1.1.1.1.1.1.1.1.1.1.1.1.1.1.1.1.1.1.1.1.",
"1.1.1.1.1.1.1.1.1.1.1.1.1.1.1.1.1.1.1.1.1.1.1.1.1.1.1.1.1.1.1.1.1.1.1.1.1.1.1.1.1.1.1.1.1.1.1.1.1.1.1.1.1.1.1.1.1.1.1.1.1.1.1.1.",
"1.1.1.1.1.1.1.1.1.1.1.1.1.1.1.1.1.1.1.1.1.1.1.1.1.1.1.1.1.1.1.1.1.1.1.1.1.1.1.1.1.1.1.1.1.1.1.1.1.1.1.1.1.1.1.1.1.1.1.1.1.1.1.1.",
"1.1.1.1.1.1.1.1.1.1.1.1.1.1.1.1.1.1.1.1.1.1.1.1.1.1.1.1.1.1.1.1.1.1.1.1.1.1.1.1.1.1.1.1.1.1.1.1.1.1.1.1.1.1.1.1.1.1.1.1.1.1.1.1.",
"1.1.1.1.1.1.1.1.1.1.1.1.1.1.1.1.1.1.1.1.1.1.1.1.1.1.1.1.1.1.1.1.1.1.1.1.1.1.1.1.1.1.1.1.1.1.1.1.1.1.1.1.1.1.1.1.1.1.1.1.1.1.1.1."
};
